<?xml version="1.0" encoding="utf-8"?>
<!-- Generator: Adobe Illustrator 24.1.1, SVG Export Plug-In . SVG Version: 6.00 Build 0)  -->
<svg version="1.1" id="Layer_1" xmlns="http://www.w3.org/2000/svg" xmlns:xlink="http://www.w3.org/1999/xlink" x="0px" y="0px"
	 viewBox="0 0 49.91 53.94" style="enable-background:new 0 0 49.91 53.94;" xml:space="preserve">
<style type="text/css">
	.st0{fill:url(#SVGID_3_);}
	.st1{fill:url(#SVGID_6_);}
	.st2{fill:#B3B2B3;}
	.st3{fill:#D39241;}
	.st4{fill:#315B51;}
	.st5{fill:#C8B34C;}
	.st6{fill:#2BB898;}
	.st7{fill:#385BA6;}
	.st8{fill:#515151;}
	.st9{fill:#F4E8AA;}
	.st10{fill:#FAC86E;}
	.st11{fill:#F4F4F4;}
	.st12{fill:#AD9944;}
	.st13{fill:#00A99D;}
	.st14{fill:#FFFFFF;}
	.st15{fill:url(#SVGID_7_);}
	.st16{fill:#C4AF4C;}
	.st17{fill-rule:evenodd;clip-rule:evenodd;fill:#C4AF4C;}
	.st18{filter:url(#Adobe_OpacityMaskFilter);}
	.st19{fill:url(#SVGID_9_);}
	.st20{mask:url(#SVGID_8_);fill-rule:evenodd;clip-rule:evenodd;fill:#C4AF4C;}
	.st21{filter:url(#Adobe_OpacityMaskFilter_1_);}
	.st22{fill:url(#SVGID_11_);}
	.st23{mask:url(#SVGID_10_);fill-rule:evenodd;clip-rule:evenodd;fill:#F0E4A6;}
	.st24{filter:url(#Adobe_OpacityMaskFilter_2_);}
	.st25{fill:url(#SVGID_13_);}
	.st26{mask:url(#SVGID_12_);fill-rule:evenodd;clip-rule:evenodd;fill:#F0E4A6;}
	.st27{filter:url(#Adobe_OpacityMaskFilter_3_);}
	.st28{fill:url(#SVGID_15_);}
	.st29{mask:url(#SVGID_14_);fill-rule:evenodd;clip-rule:evenodd;fill:#F0E4A6;}
	.st30{filter:url(#Adobe_OpacityMaskFilter_4_);}
	.st31{fill:url(#SVGID_17_);}
	.st32{mask:url(#SVGID_16_);fill-rule:evenodd;clip-rule:evenodd;fill:#F0E4A6;}
	.st33{opacity:0.5;fill-rule:evenodd;clip-rule:evenodd;fill:#C4AF4C;}
	.st34{filter:url(#Adobe_OpacityMaskFilter_5_);}
	.st35{fill:url(#SVGID_19_);}
	.st36{mask:url(#SVGID_18_);fill-rule:evenodd;clip-rule:evenodd;fill:#C4AF4C;}
	.st37{filter:url(#Adobe_OpacityMaskFilter_6_);}
	.st38{fill:url(#SVGID_21_);}
	.st39{mask:url(#SVGID_20_);fill-rule:evenodd;clip-rule:evenodd;fill:#C4AF4C;}
	.st40{filter:url(#Adobe_OpacityMaskFilter_7_);}
	.st41{fill:url(#SVGID_23_);}
	.st42{mask:url(#SVGID_22_);fill-rule:evenodd;clip-rule:evenodd;fill:#F0E4A6;}
	.st43{fill-rule:evenodd;clip-rule:evenodd;fill:#315B51;}
	.st44{filter:url(#Adobe_OpacityMaskFilter_8_);}
	.st45{fill:url(#SVGID_25_);}
	.st46{mask:url(#SVGID_24_);fill-rule:evenodd;clip-rule:evenodd;fill:#2BB494;}
	.st47{fill:#AFAEAF;}
	.st48{fill:none;stroke:#FFFFFF;stroke-width:0.25;stroke-miterlimit:10;}
	.st49{fill:#E0E0E0;}
	.st50{filter:url(#Adobe_OpacityMaskFilter_9_);}
	.st51{fill:url(#SVGID_27_);}
	.st52{mask:url(#SVGID_26_);fill-rule:evenodd;clip-rule:evenodd;fill:#C4AF4C;}
	.st53{filter:url(#Adobe_OpacityMaskFilter_10_);}
	.st54{fill:url(#SVGID_29_);}
	.st55{mask:url(#SVGID_28_);fill-rule:evenodd;clip-rule:evenodd;fill:#F0E4A6;}
	.st56{filter:url(#Adobe_OpacityMaskFilter_11_);}
	.st57{fill:url(#SVGID_31_);}
	.st58{mask:url(#SVGID_30_);fill-rule:evenodd;clip-rule:evenodd;fill:#F0E4A6;}
	.st59{filter:url(#Adobe_OpacityMaskFilter_12_);}
	.st60{fill:url(#SVGID_33_);}
	.st61{mask:url(#SVGID_32_);fill-rule:evenodd;clip-rule:evenodd;fill:#F0E4A6;}
	.st62{filter:url(#Adobe_OpacityMaskFilter_13_);}
	.st63{fill:url(#SVGID_35_);}
	.st64{mask:url(#SVGID_34_);fill-rule:evenodd;clip-rule:evenodd;fill:#F0E4A6;}
	.st65{filter:url(#Adobe_OpacityMaskFilter_14_);}
	.st66{fill:url(#SVGID_37_);}
	.st67{mask:url(#SVGID_36_);fill-rule:evenodd;clip-rule:evenodd;fill:#C4AF4C;}
	.st68{filter:url(#Adobe_OpacityMaskFilter_15_);}
	.st69{fill:url(#SVGID_39_);}
	.st70{mask:url(#SVGID_38_);fill-rule:evenodd;clip-rule:evenodd;fill:#C4AF4C;}
	.st71{fill:none;stroke:#2BB797;stroke-width:1.16;stroke-linecap:round;stroke-linejoin:round;stroke-miterlimit:10;}
	.st72{fill-rule:evenodd;clip-rule:evenodd;fill:none;stroke:#C6C6C6;stroke-width:0.5;stroke-miterlimit:10;}
	.st73{fill-rule:evenodd;clip-rule:evenodd;fill:none;stroke:#C6C6C6;stroke-width:0.75;stroke-miterlimit:10;}
	.st74{fill:#2BB797;}
	.st75{fill:#2BB797;stroke:#2BB797;stroke-width:0.7684;stroke-miterlimit:10;}
	.st76{clip-path:url(#SVGID_41_);fill:#BBBBBB;}
	.st77{clip-path:url(#SVGID_41_);fill:#959595;}
	.st78{clip-path:url(#SVGID_41_);}
	.st79{fill:#959595;}
	.st80{fill:#BBBBBB;}
	.st81{fill:none;stroke:#C6C6C6;stroke-width:0.5;stroke-miterlimit:10;}
	.st82{clip-path:url(#SVGID_43_);}
	.st83{fill-rule:evenodd;clip-rule:evenodd;fill:none;stroke:#C9C9C9;stroke-width:0.5;stroke-miterlimit:10;}
	.st84{fill:#B2B1B2;}
	.st85{fill:#4D4D4D;}
	.st86{fill:#A5CFE3;}
	.st87{fill:url(#);}
	.st88{fill:#9F9F9F;}
	.st89{clip-path:url(#SVGID_45_);fill:#E2E4E6;}
	.st90{clip-path:url(#SVGID_47_);fill:#E2E4E6;}
	.st91{clip-path:url(#SVGID_49_);fill:#E2E4E6;}
	.st92{fill:#CAE0ED;}
	.st93{fill:url(#SVGID_52_);}
	.st94{fill:url(#SVGID_55_);}
	.st95{fill:url(#SVGID_58_);}
	.st96{fill:url(#SVGID_61_);}
	.st97{fill:none;stroke:#B3B2B3;stroke-width:0.5;stroke-miterlimit:10;}
	.st98{fill:#6056DE;}
	.st99{fill:#F4F9F9;}
	.st100{fill:none;stroke:#808080;stroke-width:0.25;stroke-miterlimit:10;}
	.st101{fill:#FF9400;}
	.st102{fill:#4BD965;}
	.st103{fill:#007AFE;}
	.st104{fill:#7F7F7F;}
	.st105{fill:none;stroke:#515151;stroke-width:0.341;stroke-miterlimit:10;}
	.st106{fill:#FFFFFF;stroke:#515151;stroke-width:0.25;stroke-miterlimit:10;}
	.st107{fill:#353535;}
	.st108{fill:#6EB42D;}
	.st109{fill:#622BCC;}
	.st110{fill:#007DC5;}
	.st111{fill:#008ED4;}
	.st112{fill:#EBECEC;}
	.st113{fill:#008CC3;}
	.st114{fill:#E1E8EC;}
	.st115{fill:#DDE7EC;}
	.st116{fill:#FEFEFE;}
	.st117{fill:#F05931;}
	.st118{fill:#F37933;}
	.st119{fill:#EFE8E5;}
	.st120{fill:#EFE8E4;}
	.st121{fill:#C20E2E;}
	.st122{fill:#DC0330;}
	.st123{fill:#FFD745;}
	.st124{fill:#3473A5;}
	.st125{fill:#FFFFFF;stroke:#000000;stroke-width:0.9459;stroke-miterlimit:10;}
</style>
<g>
	<path class="st121" d="M25.02,0.55c3.21,0.82,6.24,2.13,9.36,3.2c4.75,1.64,9.46,3.39,14.22,5.03c0.93,0.32,1.21,0.73,1.09,1.7
		c-1.18,9.95-2.33,19.91-3.45,29.87c-0.13,1.14-0.51,1.86-1.58,2.45C38.42,46.18,32.23,49.66,26,53.08c-0.36,0.2-0.7,0.78-1.25,0.32
		c-0.12-0.38-0.15-0.78-0.15-1.18c0.01-6.24,0.01-12.47,0-18.71c0.14-0.64,0.68-0.63,1.15-0.65c1.55-0.05,3.1-0.02,4.65-0.01
		c1.06,0,1.59,0.63,1.95,1.51c0.69,1.68,1.38,3.36,2.01,5.06c0.38,1.03,1.03,1.47,2.11,1.4c0.79-0.05,1.59-0.03,2.39-0.01
		c0.88,0.02,1.1-0.29,0.72-1.12c-1.4-3.1-2.76-6.23-4.16-9.34c-3.43-7.63-6.8-15.28-10.23-22.91c-0.2-0.44-0.37-0.9-0.48-1.38
		c-0.18-1.43-0.08-2.87-0.08-4.31C24.63,1.32,24.69,0.89,25.02,0.55z"/>
	<path class="st122" d="M25.02,0.55c0,1.95,0,3.9,0,5.85c0.02,1.26-0.73,2.26-1.21,3.34C19.46,19.61,15,29.44,10.65,39.32
		c-0.62,1.41-0.59,1.5,0.92,1.48c4.06-0.03,3.32,0.47,4.84-3.22c0.47-1.15,0.91-2.31,1.39-3.45c0.37-0.87,1-1.3,1.96-1.3
		c1.28,0.01,2.57-0.02,3.85,0.01c0.42,0.01,0.91-0.07,1.16,0.44c0.31,0.38,0.26,0.83,0.26,1.26c0,5.87,0,11.73-0.01,17.6
		c0,0.42,0.14,0.9-0.27,1.24c-3.33-1.81-6.66-3.62-9.98-5.44c-3.25-1.79-6.46-3.63-9.73-5.37c-0.77-0.41-1.06-0.91-1.15-1.72
		C3.16,34.37,2.4,27.88,1.65,21.38c-0.42-3.6-0.83-7.19-1.26-10.79C0.3,9.84,0.15,9.23,1.2,8.86c7.74-2.7,15.45-5.48,23.18-8.23
		C24.58,0.56,24.81,0.57,25.02,0.55z"/>
	<path class="st122" d="M25.02,28.37c-1.41,0-2.82,0-4.41,0c0.52-1.27,0.98-2.48,1.51-3.66c0.97-2.19,1.67-4.5,2.91-6.58
		c0.4,1,0.43,2.05,0.43,3.1c-0.01,1.8,0.01,3.6-0.01,5.4C25.43,27.24,25.51,27.87,25.02,28.37z"/>
	<path class="st121" d="M25.02,28.37c0-3.41,0-6.83,0-10.24c0.89,1.26,1.28,2.75,1.88,4.14c0.85,1.98,1.67,3.97,2.56,6.1
		C27.89,28.37,26.45,28.37,25.02,28.37z"/>
</g>
</svg>
