<?xml version="1.0" encoding="utf-8"?>
<!-- Generator: Adobe Illustrator 24.1.1, SVG Export Plug-In . SVG Version: 6.00 Build 0)  -->
<svg version="1.1" id="Layer_1" xmlns="http://www.w3.org/2000/svg" xmlns:xlink="http://www.w3.org/1999/xlink" x="0px" y="0px"
	 viewBox="0 0 48.21 54.34" style="enable-background:new 0 0 48.21 54.34;" xml:space="preserve">
<style type="text/css">
	.st0{fill:url(#SVGID_3_);}
	.st1{fill:url(#SVGID_6_);}
	.st2{fill:#B3B2B3;}
	.st3{fill:#D39241;}
	.st4{fill:#315B51;}
	.st5{fill:#C8B34C;}
	.st6{fill:#2BB898;}
	.st7{fill:#385BA6;}
	.st8{fill:#515151;}
	.st9{fill:#F4E8AA;}
	.st10{fill:#FAC86E;}
	.st11{fill:#F4F4F4;}
	.st12{fill:#AD9944;}
	.st13{fill:#00A99D;}
	.st14{fill:#FFFFFF;}
	.st15{fill:url(#SVGID_7_);}
	.st16{fill:#C4AF4C;}
	.st17{fill-rule:evenodd;clip-rule:evenodd;fill:#C4AF4C;}
	.st18{filter:url(#Adobe_OpacityMaskFilter);}
	.st19{fill:url(#SVGID_9_);}
	.st20{mask:url(#SVGID_8_);fill-rule:evenodd;clip-rule:evenodd;fill:#C4AF4C;}
	.st21{filter:url(#Adobe_OpacityMaskFilter_1_);}
	.st22{fill:url(#SVGID_11_);}
	.st23{mask:url(#SVGID_10_);fill-rule:evenodd;clip-rule:evenodd;fill:#F0E4A6;}
	.st24{filter:url(#Adobe_OpacityMaskFilter_2_);}
	.st25{fill:url(#SVGID_13_);}
	.st26{mask:url(#SVGID_12_);fill-rule:evenodd;clip-rule:evenodd;fill:#F0E4A6;}
	.st27{filter:url(#Adobe_OpacityMaskFilter_3_);}
	.st28{fill:url(#SVGID_15_);}
	.st29{mask:url(#SVGID_14_);fill-rule:evenodd;clip-rule:evenodd;fill:#F0E4A6;}
	.st30{filter:url(#Adobe_OpacityMaskFilter_4_);}
	.st31{fill:url(#SVGID_17_);}
	.st32{mask:url(#SVGID_16_);fill-rule:evenodd;clip-rule:evenodd;fill:#F0E4A6;}
	.st33{opacity:0.5;fill-rule:evenodd;clip-rule:evenodd;fill:#C4AF4C;}
	.st34{filter:url(#Adobe_OpacityMaskFilter_5_);}
	.st35{fill:url(#SVGID_19_);}
	.st36{mask:url(#SVGID_18_);fill-rule:evenodd;clip-rule:evenodd;fill:#C4AF4C;}
	.st37{filter:url(#Adobe_OpacityMaskFilter_6_);}
	.st38{fill:url(#SVGID_21_);}
	.st39{mask:url(#SVGID_20_);fill-rule:evenodd;clip-rule:evenodd;fill:#C4AF4C;}
	.st40{filter:url(#Adobe_OpacityMaskFilter_7_);}
	.st41{fill:url(#SVGID_23_);}
	.st42{mask:url(#SVGID_22_);fill-rule:evenodd;clip-rule:evenodd;fill:#F0E4A6;}
	.st43{fill-rule:evenodd;clip-rule:evenodd;fill:#315B51;}
	.st44{filter:url(#Adobe_OpacityMaskFilter_8_);}
	.st45{fill:url(#SVGID_25_);}
	.st46{mask:url(#SVGID_24_);fill-rule:evenodd;clip-rule:evenodd;fill:#2BB494;}
	.st47{fill:#AFAEAF;}
	.st48{fill:none;stroke:#FFFFFF;stroke-width:0.25;stroke-miterlimit:10;}
	.st49{fill:#E0E0E0;}
	.st50{filter:url(#Adobe_OpacityMaskFilter_9_);}
	.st51{fill:url(#SVGID_27_);}
	.st52{mask:url(#SVGID_26_);fill-rule:evenodd;clip-rule:evenodd;fill:#C4AF4C;}
	.st53{filter:url(#Adobe_OpacityMaskFilter_10_);}
	.st54{fill:url(#SVGID_29_);}
	.st55{mask:url(#SVGID_28_);fill-rule:evenodd;clip-rule:evenodd;fill:#F0E4A6;}
	.st56{filter:url(#Adobe_OpacityMaskFilter_11_);}
	.st57{fill:url(#SVGID_31_);}
	.st58{mask:url(#SVGID_30_);fill-rule:evenodd;clip-rule:evenodd;fill:#F0E4A6;}
	.st59{filter:url(#Adobe_OpacityMaskFilter_12_);}
	.st60{fill:url(#SVGID_33_);}
	.st61{mask:url(#SVGID_32_);fill-rule:evenodd;clip-rule:evenodd;fill:#F0E4A6;}
	.st62{filter:url(#Adobe_OpacityMaskFilter_13_);}
	.st63{fill:url(#SVGID_35_);}
	.st64{mask:url(#SVGID_34_);fill-rule:evenodd;clip-rule:evenodd;fill:#F0E4A6;}
	.st65{filter:url(#Adobe_OpacityMaskFilter_14_);}
	.st66{fill:url(#SVGID_37_);}
	.st67{mask:url(#SVGID_36_);fill-rule:evenodd;clip-rule:evenodd;fill:#C4AF4C;}
	.st68{filter:url(#Adobe_OpacityMaskFilter_15_);}
	.st69{fill:url(#SVGID_39_);}
	.st70{mask:url(#SVGID_38_);fill-rule:evenodd;clip-rule:evenodd;fill:#C4AF4C;}
	.st71{fill:none;stroke:#2BB797;stroke-width:1.16;stroke-linecap:round;stroke-linejoin:round;stroke-miterlimit:10;}
	.st72{fill-rule:evenodd;clip-rule:evenodd;fill:none;stroke:#C6C6C6;stroke-width:0.5;stroke-miterlimit:10;}
	.st73{fill-rule:evenodd;clip-rule:evenodd;fill:none;stroke:#C6C6C6;stroke-width:0.75;stroke-miterlimit:10;}
	.st74{fill:#2BB797;}
	.st75{fill:#2BB797;stroke:#2BB797;stroke-width:0.7684;stroke-miterlimit:10;}
	.st76{clip-path:url(#SVGID_41_);fill:#BBBBBB;}
	.st77{clip-path:url(#SVGID_41_);fill:#959595;}
	.st78{clip-path:url(#SVGID_41_);}
	.st79{fill:#959595;}
	.st80{fill:#BBBBBB;}
	.st81{fill:none;stroke:#C6C6C6;stroke-width:0.5;stroke-miterlimit:10;}
	.st82{clip-path:url(#SVGID_43_);}
	.st83{fill-rule:evenodd;clip-rule:evenodd;fill:none;stroke:#C9C9C9;stroke-width:0.5;stroke-miterlimit:10;}
	.st84{fill:#B2B1B2;}
	.st85{fill:#4D4D4D;}
	.st86{fill:#A5CFE3;}
	.st87{fill:url(#);}
	.st88{fill:#9F9F9F;}
	.st89{clip-path:url(#SVGID_45_);fill:#E2E4E6;}
	.st90{clip-path:url(#SVGID_47_);fill:#E2E4E6;}
	.st91{clip-path:url(#SVGID_49_);fill:#E2E4E6;}
	.st92{fill:#CAE0ED;}
	.st93{fill:url(#SVGID_52_);}
	.st94{fill:url(#SVGID_55_);}
	.st95{fill:url(#SVGID_58_);}
	.st96{fill:url(#SVGID_61_);}
	.st97{fill:none;stroke:#B3B2B3;stroke-width:0.5;stroke-miterlimit:10;}
	.st98{fill:#6056DE;}
	.st99{fill:#F4F9F9;}
	.st100{fill:none;stroke:#808080;stroke-width:0.25;stroke-miterlimit:10;}
	.st101{fill:#FF9400;}
	.st102{fill:#4BD965;}
	.st103{fill:#007AFE;}
	.st104{fill:#7F7F7F;}
	.st105{fill:none;stroke:#515151;stroke-width:0.341;stroke-miterlimit:10;}
	.st106{fill:#FFFFFF;stroke:#515151;stroke-width:0.25;stroke-miterlimit:10;}
	.st107{fill:#353535;}
	.st108{fill:#6EB42D;}
	.st109{fill:#622BCC;}
	.st110{fill:#007DC5;}
	.st111{fill:#008ED4;}
	.st112{fill:#EBECEC;}
	.st113{fill:#008CC3;}
	.st114{fill:#E1E8EC;}
	.st115{fill:#DDE7EC;}
	.st116{fill:#FEFEFE;}
	.st117{fill:#F05931;}
	.st118{fill:#F37933;}
	.st119{fill:#EFE8E5;}
	.st120{fill:#EFE8E4;}
	.st121{fill:#C20E2E;}
	.st122{fill:#DC0330;}
	.st123{fill:#FFD745;}
	.st124{fill:#3473A5;}
	.st125{fill:#FFFFFF;stroke:#000000;stroke-width:0.9459;stroke-miterlimit:10;}
</style>
<g>
	<path class="st110" d="M24.29,0.12c7.55,0,15.09,0.02,22.64-0.02c0.94,0,1.12,0.26,1.04,1.17c-0.66,7.1-1.27,14.21-1.89,21.31
		c-0.73,8.36-1.47,16.72-2.18,25.08c-0.05,0.62-0.33,0.86-0.88,1.01c-5.97,1.69-11.93,3.4-17.89,5.12c-0.47,0.14-0.91,0.13-1.38,0
		c-6.11-1.71-12.22-3.42-18.34-5.1c-0.67-0.19-0.87-0.51-0.92-1.19C3.66,37.3,2.81,27.11,1.97,16.91C1.53,11.6,1.11,6.29,0.63,0.98
		C0.54,0.01,1.05,0.12,1.65,0.12c6.5,0,13,0,19.5,0C22.19,0.12,23.24,0.12,24.29,0.12z"/>
	<path class="st111" d="M9.08,10.49c0.3-0.49,0.78-0.27,1.18-0.27c4.33-0.02,8.66-0.04,12.99,0.01c0.98,0.01,1.26-0.29,1.19-1.23
		c-0.08-1.11,0-2.23-0.02-3.35c-0.01-0.56,0.12-0.86,0.77-0.86c5.99,0.02,11.98,0.02,17.97,0c0.66,0,0.82,0.3,0.76,0.86
		c-0.27,2.74-0.56,5.48-0.82,8.22c-0.18,1.96-0.31,3.93-0.48,5.89c-0.26,2.96-0.56,5.91-0.83,8.86c-0.17,1.89-0.31,3.78-0.47,5.67
		c-0.28,3.24-0.6,6.48-0.84,9.73c-0.05,0.6-0.31,0.81-0.8,0.95c-4.73,1.35-9.47,2.7-14.2,4.07c-0.85,0.25-1.1-0.05-1.07-0.88
		c0.04-1.48,0.01-2.95,0.01-4.43c0.04-0.2,0.16-0.34,0.32-0.44c3.28-1.1,6.6-2.07,9.9-3.1c1.32-0.41,1.47-0.61,1.58-1.95
		c0.38-4.8,0.79-9.6,1.26-14.39c0.14-1.47,0.02-1.63-1.45-1.63c-3.06-0.01-6.13,0.01-9.19-0.01c-0.48,0-1.19,0.15-1.29-0.45
		c-0.08-0.46,0.6-0.64,1.02-0.82c3.49-1.47,7-2.88,10.51-4.29c1.73-0.69,1.75-0.74,1.75-2.62c0-0.68,0.01-1.37,0-2.05
		c-0.01-0.4,0.01-0.8-0.39-1.06c-0.47-0.27-0.99-0.18-1.49-0.18c-8.73-0.01-17.46,0-26.19-0.01C10.19,10.73,9.6,10.82,9.08,10.49z"
		/>
	<path class="st112" d="M11.03,27.72c-0.52-1.65-0.52-3.39-0.86-5.07c-0.08-0.38,0.25-0.47,0.51-0.58c4.36-1.87,8.71-3.73,13.07-5.6
		c0.77-0.18,0.71,0.42,0.74,0.85c0.06,0.93,0.02,1.87,0.02,2.81c0,2.16,0.02,4.32-0.01,6.48c-0.01,1.13-0.12,1.21-1.26,1.21
		c-3.79,0-7.58,0-11.37,0C11.59,27.82,11.3,27.89,11.03,27.72z"/>
	<path class="st112" d="M24,43.65c-2.89-1-5.88-1.65-8.81-2.52c-1.03-0.31-2.33-0.26-3.03-1c-0.68-0.73-0.31-2-0.44-3.03
		c-0.22-1.75-0.31-3.52-0.48-5.27c-0.06-0.57,0.03-0.87,0.71-0.85c1.44,0.04,2.89,0.04,4.33,0c0.63-0.02,0.8,0.25,0.85,0.81
		c0.08,1,0.26,2,0.35,3c0.04,0.46,0.19,0.73,0.66,0.82c2.02,0.39,4.03,0.79,6.04,1.19c0.1,0.09,0.18,0.2,0.24,0.33
		c0.19,1.88,0.06,3.76,0.07,5.65C24.5,43.16,24.4,43.5,24,43.65z"/>
	<path class="st112" d="M9.88,15.82c-0.33-1.62-0.57-3.25-0.67-4.91c-0.05-0.5,0.34-0.38,0.59-0.38c4.61-0.01,9.23,0,13.84-0.01
		c0.54,0,0.82,0.21,0.84,0.74c0.06,1.37,0.05,2.73,0,4.1c-0.02,0.54-0.26,0.81-0.88,0.81c-4.25-0.04-8.51-0.02-12.76-0.02
		C10.49,16.15,10.11,16.2,9.88,15.82z"/>
	<path class="st113" d="M24.23,36.96c-0.01-0.05-0.03-0.1-0.04-0.15c0.37-0.31,0.23-0.73,0.23-1.11c0.01-2.59,0.01-5.18,0.01-7.77
		c2.41-0.49,4.82-0.53,7.23,0.02c0.24,0.35,0.23,0.75,0.18,1.15c-0.25,1.89-0.4,3.8-0.56,5.7c-0.07,0.86-0.47,1.31-1.3,1.46
		c-1.74,0.31-3.47,0.71-5.22,0.94C24.53,37.19,24.35,37.14,24.23,36.96z"/>
	<path class="st114" d="M31.6,28.15c-0.15-0.27-0.41-0.26-0.65-0.25c-2.18,0.01-4.35,0.03-6.53,0.04
		c-4.09-0.02-8.17-0.03-12.26-0.06c-0.38,0-0.79,0.15-1.13-0.15c4.04,0,8.09-0.02,12.13,0.01c0.79,0.01,1.07-0.19,1.06-1.02
		c-0.04-3.1-0.01-6.2-0.02-9.29c0-0.37,0.15-0.84-0.44-0.94c-0.31-0.38-0.74-0.2-1.11-0.21c-3.93-0.01-7.85,0-11.78-0.02
		c-0.34,0-0.93,0.34-0.99-0.42c0.36,0.2,0.75,0.22,1.15,0.22c4.04-0.01,8.08-0.02,12.13,0.01c0.79,0.01,1.11-0.19,1.06-1.03
		c-0.06-1.15-0.05-2.31,0-3.46c0.03-0.69-0.18-0.95-0.91-0.95c-4.4,0.03-8.81,0.01-13.21,0.01c-0.32,0-0.66-0.05-0.88,0.28
		c-0.05-0.14-0.09-0.29-0.14-0.43c0.25-0.02,0.5-0.06,0.75-0.06c9.42-0.01,18.83-0.02,28.25-0.01c0.3,0,0.66-0.15,0.88,0.21
		C38.5,11.1,37.9,11,37.34,11c-3.59,0.01-7.18,0-10.77,0.01c-0.5,0-1.01-0.06-1.48,0.16c-0.39,0.31-0.36,0.75-0.36,1.18
		c0,4.55,0,9.1,0,13.64c0,0.43-0.05,0.87,0.34,1.18c1.6,0.37,3.22,0.09,4.82,0.17c0.5,0.03,1.01-0.04,1.49,0.12
		C31.8,27.61,31.8,27.66,31.6,28.15z"/>
	<path class="st115" d="M24.23,36.96c0.13,0,0.26,0.01,0.39,0.01c0.05,0.05,0.14,0.09,0.15,0.15c0.34,2.15,0.52,4.3-0.12,6.43
		c-0.08,0.06-0.15,0.11-0.23,0.17c-0.14-0.02-0.28-0.05-0.42-0.07c0.4-0.74,0.18-1.54,0.2-2.31C24.24,39.89,24.22,38.43,24.23,36.96
		z"/>
	<path class="st116" d="M24.65,43.56c-0.01-2.19-0.02-4.39-0.03-6.58c1.76-0.35,3.5-0.74,5.27-1.03c0.76-0.12,0.98-0.44,1.04-1.18
		c0.18-2.21,0.44-4.42,0.67-6.63c0.16-0.81-0.48-0.42-0.73-0.42c-2.07-0.04-4.14-0.03-6.21-0.04c-0.17-0.18-0.13-0.4-0.13-0.61
		c0-5.27,0-10.54,0-15.81c0-0.21-0.04-0.43,0.11-0.62c4.77-0.01,9.54-0.02,14.32-0.02C39.2,12.3,39,14,39.07,15.68
		c0.02,0.6-0.44,0.67-0.83,0.82c-3.84,1.57-7.67,3.13-11.51,4.7c-0.33,0.13-0.65,0.28-0.96,0.62c0.3,0,0.59,0,0.89,0
		c3.43,0,6.86,0.03,10.28-0.02c0.84-0.01,1.02,0.23,0.95,1.04c-0.5,5.38-0.95,10.76-1.4,16.14c-0.06,0.73-0.31,1.11-1.08,1.33
		C31.81,41.35,28.23,42.47,24.65,43.56z"/>
	<path class="st112" d="M24.65,10.65c0.01,5.68,0.01,11.36,0.02,17.04c-0.35-0.22-0.24-0.57-0.24-0.88
		c-0.01-5.09-0.01-10.18,0-15.27C24.42,11.23,24.33,10.88,24.65,10.65z"/>
</g>
</svg>
