<?xml version="1.0" encoding="utf-8"?>
<!-- Generator: Adobe Illustrator 24.1.1, SVG Export Plug-In . SVG Version: 6.00 Build 0)  -->
<svg version="1.1" id="Layer_1" xmlns="http://www.w3.org/2000/svg" xmlns:xlink="http://www.w3.org/1999/xlink" x="0px" y="0px"
	 viewBox="0 0 48.52 48.52" style="enable-background:new 0 0 48.52 48.52;" xml:space="preserve">
<style type="text/css">
	.st0{fill:#FF9400;}
</style>
<path id="ic-new-process-design_1_" class="st0" d="M23.16,12.13c0.56-0.77,1.71-0.77,2.27,0l0,0l11.29,15.53
	c0.3,0.41,0.35,0.95,0.15,1.41l0,0L32.1,39.79h0.59c0.78,0,1.41,0.63,1.41,1.41l0,0v5.65c0,0.78-0.63,1.41-1.41,1.41l0,0H15.82
	c-0.78,0-1.41-0.63-1.41-1.41l0,0V41.2c0-0.78,0.63-1.41,1.41-1.41l0,0h0.66l-4.76-10.72c-0.21-0.46-0.15-1,0.15-1.41l0,0
	L23.16,12.13z M31.29,42.61H17.23v2.82h14.06V42.61z M25.66,17.25v8.66c1.64,0.58,2.81,2.15,2.81,3.99c0,2.34-1.89,4.24-4.22,4.24
	s-4.22-1.9-4.22-4.24c0-1.84,1.18-3.41,2.81-3.99l0,0v-8.57l-8.23,11.33l4.94,11.12h9.46l4.94-11.12L25.66,17.25z M24.26,28.49
	c-0.78,0-1.41,0.63-1.41,1.41s0.63,1.41,1.41,1.41s1.41-0.63,1.41-1.41S25.03,28.49,24.26,28.49z M27.07,0.26
	c0.78,0,1.41,0.63,1.41,1.41l0,0v1.41h11.59c0.58-1.64,2.14-2.82,3.98-2.82c2.33,0,4.22,1.9,4.22,4.24c0,2.34-1.89,4.24-4.22,4.24
	c-1.83,0-3.4-1.18-3.98-2.82l0,0H34.8c5.19,3,8.96,8.15,10.16,14.24c1.84,0.46,3.21,2.13,3.21,4.11c0,2.34-1.89,4.24-4.22,4.24
	c-2.33,0-4.22-1.9-4.22-4.24c0-1.69,0.99-3.15,2.41-3.83C40.68,13.5,35.35,8.02,28.48,6.4l0,0v0.92c0,0.78-0.63,1.41-1.41,1.41l0,0
	h-5.63c-0.78,0-1.41-0.63-1.41-1.41l0,0V6.4C13.15,8.03,7.82,13.52,6.37,20.47c1.38,0.7,2.33,2.13,2.33,3.78
	c0,2.34-1.89,4.24-4.22,4.24s-4.22-1.9-4.22-4.24c0-2.02,1.42-3.72,3.31-4.14C4.78,13.93,8.65,8.85,13.72,5.91l0,0H8.45
	C7.87,7.55,6.31,8.73,4.48,8.73c-2.33,0-4.22-1.9-4.22-4.24c0-2.34,1.89-4.24,4.22-4.24c1.83,0,3.4,1.18,3.98,2.82l0,0h11.59V1.67
	c0-0.78,0.63-1.41,1.41-1.41l0,0H27.07z M4.48,22.85c-0.78,0-1.41,0.63-1.41,1.41s0.63,1.41,1.41,1.41s1.41-0.63,1.41-1.41
	S5.25,22.85,4.48,22.85z M43.95,22.85c-0.78,0-1.41,0.63-1.41,1.41s0.63,1.41,1.41,1.41c0.78,0,1.41-0.63,1.41-1.41
	S44.72,22.85,43.95,22.85z M44.04,3.08c-0.78,0-1.41,0.63-1.41,1.41s0.63,1.41,1.41,1.41s1.41-0.63,1.41-1.41S44.82,3.08,44.04,3.08
	z M4.48,3.08c-0.78,0-1.41,0.63-1.41,1.41S3.7,5.91,4.48,5.91s1.41-0.63,1.41-1.41S5.25,3.08,4.48,3.08z M25.66,3.08h-2.81v2.82
	h2.81V3.08z"/>
</svg>
