<?xml version="1.0" encoding="utf-8"?>
<!-- Generator: Adobe Illustrator 24.1.1, SVG Export Plug-In . SVG Version: 6.00 Build 0)  -->
<svg version="1.1" id="Layer_1" xmlns="http://www.w3.org/2000/svg" xmlns:xlink="http://www.w3.org/1999/xlink" x="0px" y="0px"
	 viewBox="0 0 53.68 52.34" style="enable-background:new 0 0 53.68 52.34;" xml:space="preserve">
<style type="text/css">
	.st0{fill:url(#SVGID_3_);}
	.st1{fill:url(#SVGID_6_);}
	.st2{fill:#B3B2B3;}
	.st3{fill:#D39241;}
	.st4{fill:#315B51;}
	.st5{fill:#C8B34C;}
	.st6{fill:#2BB898;}
	.st7{fill:#385BA6;}
	.st8{fill:#515151;}
	.st9{fill:#F4E8AA;}
	.st10{fill:#FAC86E;}
	.st11{fill:#F4F4F4;}
	.st12{fill:#AD9944;}
	.st13{fill:#00A99D;}
	.st14{fill:#FFFFFF;}
	.st15{fill:url(#SVGID_7_);}
	.st16{fill:#C4AF4C;}
	.st17{fill-rule:evenodd;clip-rule:evenodd;fill:#C4AF4C;}
	.st18{filter:url(#Adobe_OpacityMaskFilter);}
	.st19{fill:url(#SVGID_9_);}
	.st20{mask:url(#SVGID_8_);fill-rule:evenodd;clip-rule:evenodd;fill:#C4AF4C;}
	.st21{filter:url(#Adobe_OpacityMaskFilter_1_);}
	.st22{fill:url(#SVGID_11_);}
	.st23{mask:url(#SVGID_10_);fill-rule:evenodd;clip-rule:evenodd;fill:#F0E4A6;}
	.st24{filter:url(#Adobe_OpacityMaskFilter_2_);}
	.st25{fill:url(#SVGID_13_);}
	.st26{mask:url(#SVGID_12_);fill-rule:evenodd;clip-rule:evenodd;fill:#F0E4A6;}
	.st27{filter:url(#Adobe_OpacityMaskFilter_3_);}
	.st28{fill:url(#SVGID_15_);}
	.st29{mask:url(#SVGID_14_);fill-rule:evenodd;clip-rule:evenodd;fill:#F0E4A6;}
	.st30{filter:url(#Adobe_OpacityMaskFilter_4_);}
	.st31{fill:url(#SVGID_17_);}
	.st32{mask:url(#SVGID_16_);fill-rule:evenodd;clip-rule:evenodd;fill:#F0E4A6;}
	.st33{opacity:0.5;fill-rule:evenodd;clip-rule:evenodd;fill:#C4AF4C;}
	.st34{filter:url(#Adobe_OpacityMaskFilter_5_);}
	.st35{fill:url(#SVGID_19_);}
	.st36{mask:url(#SVGID_18_);fill-rule:evenodd;clip-rule:evenodd;fill:#C4AF4C;}
	.st37{filter:url(#Adobe_OpacityMaskFilter_6_);}
	.st38{fill:url(#SVGID_21_);}
	.st39{mask:url(#SVGID_20_);fill-rule:evenodd;clip-rule:evenodd;fill:#C4AF4C;}
	.st40{filter:url(#Adobe_OpacityMaskFilter_7_);}
	.st41{fill:url(#SVGID_23_);}
	.st42{mask:url(#SVGID_22_);fill-rule:evenodd;clip-rule:evenodd;fill:#F0E4A6;}
	.st43{fill-rule:evenodd;clip-rule:evenodd;fill:#315B51;}
	.st44{filter:url(#Adobe_OpacityMaskFilter_8_);}
	.st45{fill:url(#SVGID_25_);}
	.st46{mask:url(#SVGID_24_);fill-rule:evenodd;clip-rule:evenodd;fill:#2BB494;}
	.st47{fill:#AFAEAF;}
	.st48{fill:none;stroke:#FFFFFF;stroke-width:0.25;stroke-miterlimit:10;}
	.st49{fill:#E0E0E0;}
	.st50{filter:url(#Adobe_OpacityMaskFilter_9_);}
	.st51{fill:url(#SVGID_27_);}
	.st52{mask:url(#SVGID_26_);fill-rule:evenodd;clip-rule:evenodd;fill:#C4AF4C;}
	.st53{filter:url(#Adobe_OpacityMaskFilter_10_);}
	.st54{fill:url(#SVGID_29_);}
	.st55{mask:url(#SVGID_28_);fill-rule:evenodd;clip-rule:evenodd;fill:#F0E4A6;}
	.st56{filter:url(#Adobe_OpacityMaskFilter_11_);}
	.st57{fill:url(#SVGID_31_);}
	.st58{mask:url(#SVGID_30_);fill-rule:evenodd;clip-rule:evenodd;fill:#F0E4A6;}
	.st59{filter:url(#Adobe_OpacityMaskFilter_12_);}
	.st60{fill:url(#SVGID_33_);}
	.st61{mask:url(#SVGID_32_);fill-rule:evenodd;clip-rule:evenodd;fill:#F0E4A6;}
	.st62{filter:url(#Adobe_OpacityMaskFilter_13_);}
	.st63{fill:url(#SVGID_35_);}
	.st64{mask:url(#SVGID_34_);fill-rule:evenodd;clip-rule:evenodd;fill:#F0E4A6;}
	.st65{filter:url(#Adobe_OpacityMaskFilter_14_);}
	.st66{fill:url(#SVGID_37_);}
	.st67{mask:url(#SVGID_36_);fill-rule:evenodd;clip-rule:evenodd;fill:#C4AF4C;}
	.st68{filter:url(#Adobe_OpacityMaskFilter_15_);}
	.st69{fill:url(#SVGID_39_);}
	.st70{mask:url(#SVGID_38_);fill-rule:evenodd;clip-rule:evenodd;fill:#C4AF4C;}
	.st71{fill:none;stroke:#2BB797;stroke-width:1.16;stroke-linecap:round;stroke-linejoin:round;stroke-miterlimit:10;}
	.st72{fill-rule:evenodd;clip-rule:evenodd;fill:none;stroke:#C6C6C6;stroke-width:0.5;stroke-miterlimit:10;}
	.st73{fill-rule:evenodd;clip-rule:evenodd;fill:none;stroke:#C6C6C6;stroke-width:0.75;stroke-miterlimit:10;}
	.st74{fill:#2BB797;}
	.st75{fill:#2BB797;stroke:#2BB797;stroke-width:0.7684;stroke-miterlimit:10;}
	.st76{clip-path:url(#SVGID_41_);fill:#BBBBBB;}
	.st77{clip-path:url(#SVGID_41_);fill:#959595;}
	.st78{clip-path:url(#SVGID_41_);}
	.st79{fill:#959595;}
	.st80{fill:#BBBBBB;}
	.st81{fill:none;stroke:#C6C6C6;stroke-width:0.5;stroke-miterlimit:10;}
	.st82{clip-path:url(#SVGID_43_);}
	.st83{fill-rule:evenodd;clip-rule:evenodd;fill:none;stroke:#C9C9C9;stroke-width:0.5;stroke-miterlimit:10;}
	.st84{fill:#B2B1B2;}
	.st85{fill:#4D4D4D;}
	.st86{fill:#A5CFE3;}
	.st87{fill:url(#);}
	.st88{fill:#9F9F9F;}
	.st89{clip-path:url(#SVGID_45_);fill:#E2E4E6;}
	.st90{clip-path:url(#SVGID_47_);fill:#E2E4E6;}
	.st91{clip-path:url(#SVGID_49_);fill:#E2E4E6;}
	.st92{fill:#CAE0ED;}
	.st93{fill:url(#SVGID_52_);}
	.st94{fill:url(#SVGID_55_);}
	.st95{fill:url(#SVGID_58_);}
	.st96{fill:url(#SVGID_61_);}
	.st97{fill:none;stroke:#B3B2B3;stroke-width:0.5;stroke-miterlimit:10;}
	.st98{fill:#6056DE;}
	.st99{fill:#F4F9F9;}
	.st100{fill:none;stroke:#808080;stroke-width:0.25;stroke-miterlimit:10;}
	.st101{fill:#FF9400;}
	.st102{fill:#4BD965;}
	.st103{fill:#007AFE;}
	.st104{fill:#7F7F7F;}
	.st105{fill:none;stroke:#515151;stroke-width:0.341;stroke-miterlimit:10;}
	.st106{fill:#FFFFFF;stroke:#515151;stroke-width:0.25;stroke-miterlimit:10;}
	.st107{fill:#353535;}
	.st108{fill:#6EB42D;}
	.st109{fill:#622BCC;}
	.st110{fill:#007DC5;}
	.st111{fill:#008ED4;}
	.st112{fill:#EBECEC;}
	.st113{fill:#008CC3;}
	.st114{fill:#E1E8EC;}
	.st115{fill:#DDE7EC;}
	.st116{fill:#FEFEFE;}
	.st117{fill:#F05931;}
	.st118{fill:#F37933;}
	.st119{fill:#EFE8E5;}
	.st120{fill:#EFE8E4;}
	.st121{fill:#C20E2E;}
	.st122{fill:#DC0330;}
	.st123{fill:#FFD745;}
	.st124{fill:#3473A5;}
	.st125{fill:#FFFFFF;stroke:#000000;stroke-width:0.9459;stroke-miterlimit:10;}
</style>
<g>
	<rect x="1.53" y="2.11" class="st107" width="50.77" height="48.62"/>
	<path class="st108" d="M28.67,33.47c0.66,3.1,0.6,3.08,3.76,3.09c0.81,0,1.12-0.28,1.27-1.03c0.56-2.77,1.14-5.54,1.78-8.29
		c0.32-1.36,0.36-2.79,0.86-4.14c0.33,0.18,0.33,0.45,0.36,0.68c0.42,3.3,1.16,6.54,1.75,9.81c0.53,2.97,0.53,2.94,3.51,2.99
		c0.79,0.01,1.1-0.24,1.28-1c1.17-4.84,2.41-9.67,3.59-14.51c0.62-2.52,0.59-2.5-2.02-2.5c-0.75,0-1.08,0.24-1.21,0.97
		c-0.6,3.56-1.22,7.11-1.87,10.66c-0.13,0.71-0.11,1.49-0.61,2.36c-0.66-3.82-1.33-7.38-1.87-10.97c-0.45-2.99-0.38-3-3.39-3.01
		c-0.11,0-0.21,0.01-0.32,0c-0.72-0.11-1.02,0.27-1.15,0.92c-0.62,3.08-1.26,6.16-1.88,9.24c-0.24,1.19-0.43,2.39-0.65,3.63
		c-0.33-0.2-0.36-0.42-0.39-0.63c-0.53-3.39-1.07-6.77-1.56-10.16c-0.43-3.01-0.41-2.97-3.38-3.03c-0.99-0.02-1.19,0.2-0.96,1.19
		C26.65,24.28,27.69,28.87,28.67,33.47z"/>
	<path class="st108" d="M6.96,24.34c0.01,0,0.01,0,0.02,0c0,1.84,0,3.68,0,5.52c0,1.87,0.04,3.75,0,5.62
		c-0.02,0.83,0.24,1.11,1.09,1.09c1.59-0.04,3.18,0.06,4.77,0.04c4.79-0.06,8.41-2.5,10.12-6.98c1.3-3.41,1.39-6.93,0.3-10.41
		c-1.44-4.59-4.82-7.03-9.66-7.12c-1.8-0.04-3.61,0.07-5.41,0.01c-1.02-0.04-1.25,0.37-1.24,1.3C6.99,17.06,6.96,20.7,6.96,24.34z
		 M10.8,28.29c0-1.31,0-2.62,0-3.92c0,0,0,0,0.01,0c0-2.62,0.02-5.23-0.01-7.85c-0.01-0.7,0.16-1.05,0.94-1.01
		c0.95,0.05,1.91-0.09,2.85,0.12c2.5,0.56,4.16,2.07,4.84,4.53c0.88,3.19,0.82,6.36-0.61,9.41c-1.53,3.23-4.45,3.91-7.43,3.67
		c-0.7-0.06-0.59-0.58-0.59-1.02C10.79,30.91,10.8,29.6,10.8,28.29z"/>
	<path class="st108" d="M1.38,52.24c8.5-0.03,17-0.02,25.49-0.02c0,0,0,0.01,0,0.01c8.39,0,16.78,0,25.17,0c1.4,0,1.4-0.01,1.4-1.35
		c0-16.46,0.01-32.93,0.01-49.39c0-1.37-0.01-1.38-1.42-1.38c-16.82,0-33.64,0.02-50.46-0.01c-1.06,0-1.37,0.25-1.37,1.34
		c0.04,16.57,0.04,33.14,0.02,49.71C0.24,52.05,0.52,52.24,1.38,52.24z M3.61,2.14c15.51,0.02,31.02,0.01,46.52-0.03
		c1.13,0,1.34,0.4,1.34,1.42c-0.02,15.19-0.01,30.38,0.02,45.57c0,0.89-0.25,1.14-1.13,1.13c-7.82-0.03-15.65-0.02-23.47-0.02
		c0-0.01,0-0.01,0-0.02c-7.68,0-15.37,0-23.05,0c-1.52,0-1.53-0.01-1.53-1.48c0.01-15.08,0.02-30.17,0-45.25
		C2.3,2.44,2.58,2.14,3.61,2.14z"/>
</g>
</svg>
