<?xml version="1.0" encoding="utf-8"?>
<!-- Generator: Adobe Illustrator 24.1.1, SVG Export Plug-In . SVG Version: 6.00 Build 0)  -->
<svg version="1.1" id="Layer_1" xmlns="http://www.w3.org/2000/svg" xmlns:xlink="http://www.w3.org/1999/xlink" x="0px" y="0px"
	 viewBox="0 0 72.64 50.09" style="enable-background:new 0 0 72.64 50.09;" xml:space="preserve">
<style type="text/css">
	.st0{fill:url(#SVGID_3_);}
	.st1{fill:url(#SVGID_6_);}
	.st2{fill:#B3B2B3;}
	.st3{fill:#D39241;}
	.st4{fill:#315B51;}
	.st5{fill:#C8B34C;}
	.st6{fill:#2BB898;}
	.st7{fill:#385BA6;}
	.st8{fill:#515151;}
	.st9{fill:#F4E8AA;}
	.st10{fill:#FAC86E;}
	.st11{fill:#F4F4F4;}
	.st12{fill:#AD9944;}
	.st13{fill:#00A99D;}
	.st14{fill:#FFFFFF;}
	.st15{fill:url(#SVGID_7_);}
	.st16{fill:#C4AF4C;}
	.st17{fill-rule:evenodd;clip-rule:evenodd;fill:#C4AF4C;}
	.st18{filter:url(#Adobe_OpacityMaskFilter);}
	.st19{fill:url(#SVGID_9_);}
	.st20{mask:url(#SVGID_8_);fill-rule:evenodd;clip-rule:evenodd;fill:#C4AF4C;}
	.st21{filter:url(#Adobe_OpacityMaskFilter_1_);}
	.st22{fill:url(#SVGID_11_);}
	.st23{mask:url(#SVGID_10_);fill-rule:evenodd;clip-rule:evenodd;fill:#F0E4A6;}
	.st24{filter:url(#Adobe_OpacityMaskFilter_2_);}
	.st25{fill:url(#SVGID_13_);}
	.st26{mask:url(#SVGID_12_);fill-rule:evenodd;clip-rule:evenodd;fill:#F0E4A6;}
	.st27{filter:url(#Adobe_OpacityMaskFilter_3_);}
	.st28{fill:url(#SVGID_15_);}
	.st29{mask:url(#SVGID_14_);fill-rule:evenodd;clip-rule:evenodd;fill:#F0E4A6;}
	.st30{filter:url(#Adobe_OpacityMaskFilter_4_);}
	.st31{fill:url(#SVGID_17_);}
	.st32{mask:url(#SVGID_16_);fill-rule:evenodd;clip-rule:evenodd;fill:#F0E4A6;}
	.st33{opacity:0.5;fill-rule:evenodd;clip-rule:evenodd;fill:#C4AF4C;}
	.st34{filter:url(#Adobe_OpacityMaskFilter_5_);}
	.st35{fill:url(#SVGID_19_);}
	.st36{mask:url(#SVGID_18_);fill-rule:evenodd;clip-rule:evenodd;fill:#C4AF4C;}
	.st37{filter:url(#Adobe_OpacityMaskFilter_6_);}
	.st38{fill:url(#SVGID_21_);}
	.st39{mask:url(#SVGID_20_);fill-rule:evenodd;clip-rule:evenodd;fill:#C4AF4C;}
	.st40{filter:url(#Adobe_OpacityMaskFilter_7_);}
	.st41{fill:url(#SVGID_23_);}
	.st42{mask:url(#SVGID_22_);fill-rule:evenodd;clip-rule:evenodd;fill:#F0E4A6;}
	.st43{fill-rule:evenodd;clip-rule:evenodd;fill:#315B51;}
	.st44{filter:url(#Adobe_OpacityMaskFilter_8_);}
	.st45{fill:url(#SVGID_25_);}
	.st46{mask:url(#SVGID_24_);fill-rule:evenodd;clip-rule:evenodd;fill:#2BB494;}
	.st47{fill:#AFAEAF;}
	.st48{fill:none;stroke:#FFFFFF;stroke-width:0.25;stroke-miterlimit:10;}
	.st49{fill:#E0E0E0;}
	.st50{filter:url(#Adobe_OpacityMaskFilter_9_);}
	.st51{fill:url(#SVGID_27_);}
	.st52{mask:url(#SVGID_26_);fill-rule:evenodd;clip-rule:evenodd;fill:#C4AF4C;}
	.st53{filter:url(#Adobe_OpacityMaskFilter_10_);}
	.st54{fill:url(#SVGID_29_);}
	.st55{mask:url(#SVGID_28_);fill-rule:evenodd;clip-rule:evenodd;fill:#F0E4A6;}
	.st56{filter:url(#Adobe_OpacityMaskFilter_11_);}
	.st57{fill:url(#SVGID_31_);}
	.st58{mask:url(#SVGID_30_);fill-rule:evenodd;clip-rule:evenodd;fill:#F0E4A6;}
	.st59{filter:url(#Adobe_OpacityMaskFilter_12_);}
	.st60{fill:url(#SVGID_33_);}
	.st61{mask:url(#SVGID_32_);fill-rule:evenodd;clip-rule:evenodd;fill:#F0E4A6;}
	.st62{filter:url(#Adobe_OpacityMaskFilter_13_);}
	.st63{fill:url(#SVGID_35_);}
	.st64{mask:url(#SVGID_34_);fill-rule:evenodd;clip-rule:evenodd;fill:#F0E4A6;}
	.st65{filter:url(#Adobe_OpacityMaskFilter_14_);}
	.st66{fill:url(#SVGID_37_);}
	.st67{mask:url(#SVGID_36_);fill-rule:evenodd;clip-rule:evenodd;fill:#C4AF4C;}
	.st68{filter:url(#Adobe_OpacityMaskFilter_15_);}
	.st69{fill:url(#SVGID_39_);}
	.st70{mask:url(#SVGID_38_);fill-rule:evenodd;clip-rule:evenodd;fill:#C4AF4C;}
	.st71{fill:none;stroke:#2BB797;stroke-width:1.16;stroke-linecap:round;stroke-linejoin:round;stroke-miterlimit:10;}
	.st72{fill-rule:evenodd;clip-rule:evenodd;fill:none;stroke:#C6C6C6;stroke-width:0.5;stroke-miterlimit:10;}
	.st73{fill-rule:evenodd;clip-rule:evenodd;fill:none;stroke:#C6C6C6;stroke-width:0.75;stroke-miterlimit:10;}
	.st74{fill:#2BB797;}
	.st75{fill:#2BB797;stroke:#2BB797;stroke-width:0.7684;stroke-miterlimit:10;}
	.st76{clip-path:url(#SVGID_41_);fill:#BBBBBB;}
	.st77{clip-path:url(#SVGID_41_);fill:#959595;}
	.st78{clip-path:url(#SVGID_41_);}
	.st79{fill:#959595;}
	.st80{fill:#BBBBBB;}
	.st81{fill:none;stroke:#C6C6C6;stroke-width:0.5;stroke-miterlimit:10;}
	.st82{clip-path:url(#SVGID_43_);}
	.st83{fill-rule:evenodd;clip-rule:evenodd;fill:none;stroke:#C9C9C9;stroke-width:0.5;stroke-miterlimit:10;}
	.st84{fill:#B2B1B2;}
	.st85{fill:#4D4D4D;}
	.st86{fill:#A5CFE3;}
	.st87{fill:url(#);}
	.st88{fill:#9F9F9F;}
	.st89{clip-path:url(#SVGID_45_);fill:#E2E4E6;}
	.st90{clip-path:url(#SVGID_47_);fill:#E2E4E6;}
	.st91{clip-path:url(#SVGID_49_);fill:#E2E4E6;}
	.st92{fill:#CAE0ED;}
	.st93{fill:url(#SVGID_52_);}
	.st94{fill:url(#SVGID_55_);}
	.st95{fill:url(#SVGID_58_);}
	.st96{fill:url(#SVGID_61_);}
	.st97{fill:none;stroke:#B3B2B3;stroke-width:0.5;stroke-miterlimit:10;}
	.st98{fill:#6056DE;}
	.st99{fill:#F4F9F9;}
	.st100{fill:none;stroke:#808080;stroke-width:0.25;stroke-miterlimit:10;}
	.st101{fill:#FF9400;}
	.st102{fill:#4BD965;}
	.st103{fill:#007AFE;}
	.st104{fill:#7F7F7F;}
	.st105{fill:none;stroke:#515151;stroke-width:0.341;stroke-miterlimit:10;}
	.st106{fill:#FFFFFF;stroke:#515151;stroke-width:0.25;stroke-miterlimit:10;}
	.st107{fill:#353535;}
	.st108{fill:#6EB42D;}
	.st109{fill:#622BCC;}
	.st110{fill:#007DC5;}
	.st111{fill:#008ED4;}
	.st112{fill:#EBECEC;}
	.st113{fill:#008CC3;}
	.st114{fill:#E1E8EC;}
	.st115{fill:#DDE7EC;}
	.st116{fill:#FEFEFE;}
	.st117{fill:#F05931;}
	.st118{fill:#F37933;}
	.st119{fill:#EFE8E5;}
	.st120{fill:#EFE8E4;}
	.st121{fill:#C20E2E;}
	.st122{fill:#DC0330;}
	.st123{fill:#FFD745;}
	.st124{fill:#3473A5;}
	.st125{fill:#FFFFFF;stroke:#000000;stroke-width:0.9459;stroke-miterlimit:10;}
</style>
<g>
	<path class="st13" d="M2.68,46.47c-0.03,0.12-0.03,0.23-0.02,0.36l1,0.25c0.15,0.03,0.25,0.1,0.31,0.2c0.07,0.08,0.1,0.2,0.1,0.31
		c0,0.23-0.03,0.43-0.08,0.61c-0.05,0.16-0.15,0.31-0.26,0.43c-0.12,0.12-0.28,0.2-0.46,0.26c-0.18,0.05-0.41,0.08-0.69,0.08H2.02
		c-0.13,0-0.26-0.02-0.38-0.05c-0.13-0.03-0.25-0.08-0.35-0.15c-0.12-0.07-0.21-0.13-0.31-0.21c-0.1-0.08-0.18-0.18-0.25-0.28
		C0.66,48.14,0.59,48,0.56,47.83c-0.05-0.16-0.07-0.33-0.07-0.51c0-0.21,0.03-0.46,0.1-0.71c0.07-0.25,0.16-0.53,0.3-0.81
		c0.08,0.03,0.15,0.07,0.21,0.1c0.07,0.03,0.15,0.07,0.21,0.1c-0.23,0.49-0.35,0.92-0.35,1.28c0,0.13,0.02,0.25,0.05,0.38
		c0.03,0.12,0.08,0.23,0.13,0.31c0.08,0.15,0.21,0.25,0.36,0.33S1.82,48.42,2,48.42h0.58c0.18,0,0.33-0.02,0.46-0.05
		c0.13-0.03,0.23-0.08,0.31-0.15c0.08-0.07,0.15-0.15,0.18-0.26c0.03-0.12,0.07-0.23,0.07-0.39c-0.16-0.05-0.33-0.08-0.49-0.13
		c-0.07-0.02-0.15-0.03-0.21-0.05c-0.08-0.02-0.15-0.03-0.23-0.07c-0.08-0.02-0.15-0.03-0.21-0.05s-0.13-0.03-0.2-0.05
		c-0.08-0.2-0.12-0.39-0.12-0.59s0.05-0.38,0.12-0.54c0.07-0.16,0.18-0.31,0.31-0.44c0.13-0.13,0.28-0.23,0.46-0.31
		c0.16-0.08,0.36-0.13,0.56-0.15s0.41,0,0.62,0.07l-0.13,0.48c-0.12-0.03-0.25-0.05-0.36-0.05c-0.12,0-0.25,0.02-0.35,0.05
		c-0.12,0.03-0.21,0.08-0.31,0.15s-0.18,0.15-0.25,0.23C2.76,46.25,2.71,46.35,2.68,46.47z M5.64,47.39c0,0.2-0.02,0.36-0.07,0.49
		c-0.03,0.13-0.1,0.25-0.2,0.35c-0.08,0.08-0.2,0.15-0.33,0.2c-0.13,0.05-0.3,0.07-0.48,0.07H4.22v0.49h0.36
		c0.25,0,0.48-0.03,0.67-0.12c0.2-0.07,0.36-0.18,0.49-0.31c0.13-0.13,0.23-0.3,0.3-0.49c0.07-0.2,0.1-0.43,0.1-0.67v-1.64H5.65
		v1.64H5.64z M8.41,45.48c0.23,0.21,0.36,0.56,0.36,1.04v0.49v0.49c0,0.25-0.03,0.46-0.12,0.64c-0.07,0.18-0.18,0.33-0.35,0.44
		c-0.15,0.12-0.35,0.21-0.58,0.26c-0.23,0.07-0.51,0.08-0.84,0.08v-0.49c0.26,0,0.49-0.02,0.67-0.07c0.18-0.03,0.33-0.1,0.43-0.18
		c0.1-0.08,0.16-0.16,0.2-0.28c0.05-0.12,0.07-0.26,0.07-0.43H7.79c-0.12,0-0.25-0.02-0.38-0.05s-0.25-0.1-0.35-0.18
		c-0.1-0.08-0.18-0.2-0.25-0.33c-0.07-0.13-0.1-0.3-0.1-0.49c0-0.12,0.02-0.21,0.03-0.31c0.02-0.1,0.05-0.18,0.08-0.25
		c0.03-0.07,0.07-0.13,0.1-0.2c0.03-0.05,0.07-0.1,0.12-0.15c0.1-0.1,0.21-0.16,0.33-0.23c0.13-0.05,0.26-0.08,0.39-0.08
		s0.25,0.02,0.35,0.07C8.22,45.35,8.31,45.42,8.41,45.48z M8.26,46.53c0-0.13-0.02-0.23-0.03-0.33c-0.02-0.08-0.05-0.16-0.07-0.21
		c-0.03-0.07-0.07-0.1-0.1-0.13c-0.03-0.03-0.08-0.05-0.12-0.07c-0.03-0.02-0.07-0.02-0.1-0.03c-0.03,0-0.07,0-0.08,0
		c-0.18,0-0.31,0.07-0.41,0.18c-0.1,0.12-0.15,0.3-0.15,0.53s0.07,0.38,0.2,0.48c0.03,0.02,0.07,0.03,0.1,0.05s0.07,0.02,0.1,0.03
		s0.07,0.02,0.08,0.02c0.03,0,0.05,0,0.07,0h0.48v-0.51H8.26z M12.18,44.53l-0.46-0.44l-0.44,0.44l0.44,0.46L12.18,44.53z
		 M15.1,45.5c0.05,0.18,0.07,0.39,0.07,0.64v0.36c0,0.18-0.03,0.33-0.1,0.46c-0.07,0.13-0.18,0.25-0.31,0.33
		c-0.23,0.15-0.58,0.23-1,0.23H12.8h-0.07h-0.15c-0.16,0-0.3-0.02-0.43-0.07c-0.12-0.05-0.21-0.12-0.3-0.2
		c-0.18,0.18-0.46,0.28-0.81,0.28h-0.49l0,0c-0.12,0-0.23-0.02-0.31-0.03c-0.12-0.02-0.21-0.07-0.31-0.1
		c-0.08-0.05-0.15-0.1-0.2-0.16c-0.05-0.07-0.08-0.15-0.12-0.23c-0.03-0.08-0.05-0.2-0.05-0.3c-0.02-0.12-0.02-0.23-0.02-0.38V43.8
		h0.49v2.53c0,0.15,0,0.28,0.02,0.38c0.02,0.1,0.03,0.16,0.08,0.21c0.03,0.05,0.1,0.08,0.18,0.1c0.08,0.02,0.2,0.03,0.35,0.03h0.39
		c0.13,0,0.23-0.02,0.3-0.03c0.07-0.03,0.13-0.05,0.16-0.1c0.03-0.03,0.07-0.08,0.07-0.13c0.02-0.05,0.02-0.08,0.02-0.13v-0.89h0.49
		v0.87c0,0.07,0.02,0.12,0.03,0.16c0.02,0.05,0.05,0.08,0.08,0.12c0.03,0.03,0.07,0.05,0.1,0.07c0.03,0.02,0.08,0.03,0.12,0.03
		c0.03,0.02,0.07,0.02,0.1,0.02c0.03,0,0.05,0,0.07,0h0.15h0.07h0.95c0.2,0,0.36-0.02,0.48-0.05c0.12-0.03,0.21-0.07,0.28-0.1
		c0.07-0.05,0.12-0.08,0.13-0.13s0.03-0.1,0.05-0.15h-0.43c-0.05,0-0.1,0-0.15,0s-0.12-0.02-0.18-0.02
		c-0.07-0.02-0.12-0.02-0.18-0.05c-0.07-0.02-0.12-0.05-0.18-0.08c-0.05-0.03-0.1-0.07-0.15-0.1c-0.05-0.05-0.1-0.1-0.13-0.16
		c-0.03-0.08-0.07-0.15-0.1-0.23c-0.03-0.08-0.03-0.18-0.03-0.3c0-0.15,0.03-0.28,0.07-0.41c0.05-0.13,0.12-0.23,0.21-0.33
		c0.1-0.1,0.2-0.16,0.31-0.21c0.12-0.05,0.25-0.07,0.38-0.07c0.15,0,0.3,0.03,0.43,0.1c0.13,0.07,0.23,0.16,0.33,0.28
		C14.99,45.17,15.05,45.32,15.1,45.5z M14.69,46.09c0-0.18-0.02-0.33-0.05-0.46c-0.03-0.13-0.08-0.23-0.13-0.31
		c-0.08-0.12-0.2-0.16-0.35-0.16c-0.07,0-0.12,0.02-0.18,0.03c-0.07,0.02-0.12,0.05-0.16,0.1c-0.05,0.03-0.08,0.1-0.12,0.16
		c-0.03,0.07-0.05,0.15-0.05,0.23c0,0.05,0,0.1,0.02,0.15c0.02,0.03,0.03,0.07,0.05,0.1c0.02,0.03,0.03,0.05,0.07,0.07
		c0.02,0.02,0.03,0.03,0.07,0.03c0.05,0.03,0.12,0.05,0.18,0.07c0.07,0.02,0.16,0.02,0.26,0.02h0.39V46.09z M14.54,43.61l-0.46-0.46
		l-0.44,0.44l0.46,0.46L14.54,43.61z M18.75,45.48c0.23,0.21,0.36,0.56,0.36,1.04v0.49v0.49c0,0.25-0.03,0.46-0.12,0.64
		c-0.07,0.18-0.18,0.33-0.35,0.44c-0.15,0.12-0.35,0.21-0.58,0.26c-0.23,0.07-0.51,0.08-0.84,0.08v-0.49c0.26,0,0.49-0.02,0.67-0.07
		c0.18-0.03,0.33-0.1,0.43-0.18c0.1-0.08,0.16-0.16,0.2-0.28c0.05-0.12,0.07-0.26,0.07-0.43h-0.48c-0.12,0-0.25-0.02-0.38-0.05
		c-0.13-0.03-0.25-0.1-0.35-0.18s-0.18-0.2-0.25-0.33c-0.07-0.13-0.1-0.3-0.1-0.49c0-0.12,0.02-0.21,0.03-0.31s0.05-0.18,0.08-0.25
		c0.03-0.07,0.07-0.13,0.1-0.2c0.03-0.05,0.07-0.1,0.12-0.15c0.1-0.1,0.21-0.16,0.33-0.23c0.13-0.05,0.26-0.08,0.39-0.08
		s0.25,0.02,0.35,0.07C18.57,45.35,18.67,45.42,18.75,45.48z M18.62,46.53c0-0.13-0.02-0.23-0.03-0.33
		c-0.02-0.08-0.05-0.16-0.07-0.21c-0.03-0.07-0.07-0.1-0.1-0.13s-0.08-0.05-0.12-0.07c-0.03-0.02-0.07-0.02-0.1-0.03
		c-0.03,0-0.07,0-0.08,0c-0.18,0-0.31,0.07-0.41,0.18c-0.1,0.12-0.15,0.3-0.15,0.53s0.07,0.38,0.2,0.48
		c0.03,0.02,0.07,0.03,0.1,0.05s0.07,0.02,0.1,0.03c0.03,0,0.07,0.02,0.1,0.02c0.03,0,0.05,0,0.07,0h0.48v-0.51H18.62z M25.88,44.69
		l-0.43-0.43l-0.41,0.43l0.41,0.43L25.88,44.69z M26.34,43.94l-0.36-0.38l-0.38,0.38l0.36,0.36L26.34,43.94z M26.47,45.12l0.43-0.43
		l-0.43-0.43l-0.41,0.43L26.47,45.12z M32.09,46.53c0.02,0.07,0.02,0.15,0,0.23c0,0.08-0.02,0.16-0.05,0.25
		c-0.03,0.1-0.07,0.2-0.13,0.28c-0.07,0.08-0.13,0.15-0.21,0.21s-0.18,0.1-0.3,0.13s-0.23,0.05-0.35,0.05s-0.25-0.02-0.38-0.05
		s-0.26-0.08-0.39-0.15c-0.03-0.02-0.08-0.03-0.12-0.05s-0.07-0.03-0.08-0.05c-0.03-0.02-0.05-0.03-0.08-0.03
		c-0.16,0.05-0.36,0.08-0.58,0.12c-0.21,0.03-0.46,0.03-0.72,0.03h-0.3h-0.08h-0.08c-0.18,0-0.33-0.03-0.46-0.08
		s-0.25-0.13-0.33-0.21l-0.07,0.07c-0.08,0.07-0.18,0.13-0.3,0.18s-0.23,0.07-0.35,0.07c-0.16,0-0.33-0.03-0.44-0.08
		c-0.13-0.05-0.25-0.13-0.33-0.21l-0.07,0.07c-0.08,0.07-0.18,0.13-0.3,0.18c-0.12,0.05-0.23,0.07-0.35,0.07
		c-0.21,0-0.41-0.05-0.58-0.15v0.21c0,0.46-0.12,0.81-0.36,1.04c-0.25,0.23-0.61,0.35-1.1,0.35h-0.62c-0.26,0-0.51-0.07-0.74-0.18
		c-0.21-0.12-0.39-0.28-0.54-0.51c-0.1-0.15-0.16-0.31-0.2-0.49c-0.03-0.18-0.05-0.38-0.05-0.59c0.02-0.21,0.05-0.43,0.12-0.66
		s0.15-0.46,0.26-0.71l0.44,0.21c-0.1,0.2-0.18,0.39-0.23,0.59c-0.05,0.18-0.1,0.36-0.1,0.53c-0.02,0.16,0,0.33,0.02,0.46
		c0.03,0.15,0.08,0.26,0.15,0.38c0.1,0.15,0.21,0.25,0.36,0.33c0.15,0.08,0.31,0.12,0.49,0.12h0.62c0.2,0,0.36-0.02,0.49-0.07
		c0.13-0.05,0.23-0.1,0.3-0.18s0.12-0.16,0.15-0.28c0.03-0.12,0.03-0.23,0.03-0.36v-1.84h0.49v0.51c0,0.16,0.02,0.3,0.05,0.41
		c0.03,0.1,0.08,0.18,0.13,0.23c0.05,0.05,0.12,0.08,0.18,0.12c0.07,0.02,0.13,0.03,0.21,0.03c0.05,0,0.1,0,0.15-0.02
		c0.05-0.02,0.12-0.05,0.16-0.08c0.05-0.03,0.08-0.08,0.13-0.15c0.03-0.07,0.05-0.15,0.05-0.23v-0.79h0.49v0.82
		c0,0.16,0.05,0.28,0.13,0.35c0.08,0.08,0.21,0.12,0.39,0.12c0.05,0,0.1,0,0.15-0.02s0.12-0.05,0.16-0.08
		c0.05-0.03,0.08-0.08,0.13-0.15c0.03-0.07,0.05-0.15,0.05-0.23v-0.79h0.49v0.82c0,0.16,0.05,0.28,0.13,0.35
		c0.08,0.08,0.21,0.12,0.39,0.12h0.08h0.1h0.3c0.12,0,0.23,0,0.36,0c0.12,0,0.23-0.02,0.33-0.02c-0.13-0.12-0.21-0.23-0.28-0.36
		c-0.05-0.13-0.08-0.28-0.08-0.46c0-0.13,0.02-0.26,0.07-0.36c0.05-0.12,0.12-0.21,0.2-0.3c0.08-0.08,0.2-0.15,0.31-0.2
		c0.12-0.05,0.25-0.07,0.39-0.07c0.1,0,0.2,0.02,0.3,0.05c0.08,0.03,0.16,0.07,0.25,0.12c0.07,0.05,0.13,0.12,0.18,0.18
		c0.05,0.07,0.1,0.13,0.13,0.2c0.03,0.07,0.07,0.15,0.08,0.21c0.02,0.07,0.03,0.15,0.03,0.2c0,0.18-0.03,0.35-0.1,0.49
		c-0.07,0.15-0.16,0.28-0.3,0.38c0.07,0.03,0.15,0.05,0.23,0.07s0.16,0.03,0.25,0.03c0.05,0,0.1,0,0.16-0.02
		c0.05,0,0.1-0.02,0.15-0.05c0.05-0.02,0.08-0.05,0.13-0.08c0.03-0.03,0.07-0.08,0.1-0.15c0.03-0.07,0.05-0.15,0.03-0.23
		c-0.02-0.08-0.05-0.18-0.12-0.28c-0.05-0.1-0.13-0.2-0.21-0.31c-0.08-0.1-0.18-0.21-0.28-0.33c-0.1-0.12-0.21-0.21-0.33-0.33
		c-0.12-0.12-0.21-0.21-0.33-0.33l0.36-0.35c0.2,0.2,0.38,0.39,0.53,0.56c0.07,0.08,0.15,0.15,0.21,0.23
		c0.07,0.08,0.13,0.15,0.2,0.21c0.07,0.07,0.12,0.13,0.16,0.2c0.05,0.05,0.08,0.1,0.1,0.13c0.05,0.08,0.08,0.15,0.12,0.23
		C32.06,46.38,32.08,46.47,32.09,46.53z M30.5,46.2c0-0.08-0.02-0.16-0.05-0.21c-0.03-0.07-0.08-0.12-0.13-0.15s-0.1-0.07-0.16-0.08
		c-0.05-0.02-0.1-0.03-0.15-0.03c-0.07,0-0.13,0.02-0.2,0.03c-0.07,0.02-0.12,0.05-0.16,0.08s-0.08,0.08-0.1,0.15
		c-0.03,0.05-0.03,0.12-0.03,0.18c0,0.08,0.02,0.15,0.03,0.2c0.02,0.07,0.05,0.12,0.1,0.16c0.05,0.05,0.1,0.1,0.16,0.15
		c0.07,0.05,0.15,0.1,0.25,0.15c0.07-0.03,0.13-0.07,0.18-0.1c0.05-0.05,0.1-0.08,0.15-0.15c0.03-0.05,0.07-0.12,0.1-0.18
		C30.48,46.35,30.5,46.29,30.5,46.2z M34.56,47.52c0,0.25-0.03,0.46-0.12,0.64c-0.07,0.18-0.18,0.33-0.35,0.44
		c-0.15,0.12-0.35,0.21-0.58,0.26c-0.23,0.07-0.51,0.08-0.84,0.08v-0.49c0.26,0,0.49-0.02,0.67-0.07c0.18-0.03,0.33-0.1,0.43-0.18
		c0.1-0.08,0.16-0.16,0.2-0.28c0.05-0.12,0.07-0.26,0.07-0.43h-0.48c-0.12,0-0.25-0.02-0.38-0.05c-0.13-0.03-0.25-0.1-0.35-0.18
		s-0.18-0.2-0.25-0.33c-0.07-0.13-0.1-0.3-0.1-0.49c0-0.12,0.02-0.21,0.03-0.31c0.02-0.1,0.05-0.18,0.08-0.25
		c0.03-0.07,0.07-0.13,0.1-0.2c0.03-0.05,0.07-0.1,0.12-0.15c0.1-0.1,0.21-0.16,0.33-0.23c0.13-0.05,0.26-0.08,0.39-0.08
		c0.13,0,0.25,0.02,0.35,0.07c0.12,0.03,0.21,0.1,0.3,0.18c0.23,0.21,0.36,0.56,0.36,1.04v0.49L34.56,47.52z M34.07,46.53
		c0-0.13-0.02-0.23-0.03-0.33c-0.02-0.08-0.05-0.16-0.07-0.21c-0.03-0.07-0.07-0.1-0.1-0.13c-0.03-0.03-0.08-0.05-0.12-0.07
		c-0.03-0.02-0.07-0.02-0.1-0.03c-0.03,0-0.07,0-0.08,0c-0.18,0-0.31,0.07-0.41,0.18c-0.1,0.12-0.15,0.3-0.15,0.53
		s0.07,0.38,0.2,0.48c0.03,0.02,0.07,0.03,0.1,0.05c0.03,0.02,0.07,0.02,0.1,0.03c0.03,0.02,0.07,0.02,0.08,0.02
		c0.03,0,0.05,0,0.07,0h0.48v-0.51H34.07z M36.63,45.12l0.43-0.43l-0.43-0.43l-0.41,0.43L36.63,45.12z M36.04,44.69l-0.43-0.43
		l-0.41,0.43l0.41,0.43L36.04,44.69z M36.5,43.94l-0.36-0.38l-0.38,0.38l0.36,0.36L36.5,43.94z M37.58,48.03l-0.41,0.43l0.41,0.43
		l0.43-0.43L37.58,48.03z M38.34,47.45c0.12-0.03,0.21-0.1,0.3-0.18c0.08-0.08,0.16-0.18,0.21-0.3c0.05-0.12,0.08-0.26,0.08-0.43
		c0-0.07,0-0.13-0.02-0.2c-0.02-0.08-0.02-0.16-0.03-0.25c-0.02-0.08-0.03-0.16-0.05-0.25c-0.02-0.08-0.03-0.15-0.05-0.23
		c-0.02-0.07-0.03-0.13-0.03-0.16c-0.02-0.05-0.02-0.07-0.02-0.08l-0.48,0.15c0,0.03,0.02,0.07,0.03,0.12s0.02,0.1,0.03,0.16
		c0.02,0.07,0.03,0.13,0.03,0.2c0.02,0.07,0.02,0.15,0.03,0.21c0.02,0.07,0.02,0.13,0.02,0.2c0,0.07,0.02,0.12,0.02,0.15
		c0,0.12-0.02,0.2-0.05,0.26c-0.03,0.07-0.08,0.12-0.13,0.15c-0.05,0.03-0.1,0.05-0.15,0.07s-0.08,0.02-0.12,0.02h-1h-0.1h-0.02
		c-0.02,0-0.05,0-0.1-0.02c-0.05,0-0.1-0.02-0.15-0.05s-0.1-0.07-0.15-0.12c-0.05-0.05-0.07-0.13-0.07-0.23v-0.87h-0.49v1.64
		c0,0.2-0.02,0.36-0.07,0.49c-0.03,0.13-0.1,0.25-0.2,0.35c-0.08,0.08-0.2,0.15-0.33,0.2c-0.13,0.05-0.3,0.07-0.48,0.07h-0.36v0.49
		h0.36c0.25,0,0.48-0.03,0.66-0.1c0.2-0.07,0.36-0.16,0.49-0.31c0.13-0.13,0.23-0.3,0.3-0.49c0.07-0.2,0.1-0.41,0.1-0.66
		c0.15,0.07,0.3,0.1,0.46,0.1h0.02h0.1h1C38.11,47.52,38.22,47.5,38.34,47.45z M37.71,49.21l0.38,0.38l0.36-0.38l-0.38-0.36
		L37.71,49.21z M38.17,48.46l0.41,0.43l0.43-0.43l-0.43-0.43L38.17,48.46z M43.94,47.58c0,0.13-0.02,0.25-0.03,0.36
		c-0.03,0.12-0.08,0.2-0.15,0.28c-0.07,0.08-0.16,0.13-0.3,0.18c-0.13,0.05-0.3,0.07-0.49,0.07h-0.62c-0.18,0-0.35-0.03-0.49-0.12
		c-0.15-0.08-0.26-0.18-0.36-0.33c-0.07-0.12-0.12-0.25-0.15-0.38c-0.03-0.15-0.03-0.3-0.02-0.46s0.05-0.35,0.1-0.53
		c0.05-0.18,0.13-0.38,0.23-0.59l-0.44-0.21c-0.12,0.25-0.21,0.48-0.26,0.71c-0.07,0.23-0.1,0.44-0.12,0.66s0,0.39,0.05,0.58
		c0.05,0.18,0.12,0.35,0.2,0.49c0.13,0.21,0.31,0.39,0.54,0.51c0.21,0.12,0.46,0.18,0.74,0.18h0.62c0.49,0,0.85-0.12,1.1-0.35
		c0.25-0.23,0.36-0.58,0.36-1.04v-1.84h-0.49v1.82H43.94z M43.28,45.55l-0.46-0.46l-0.44,0.46l0.44,0.46L43.28,45.55z M45.6,43.77
		h-0.49v3.75h0.49V43.77z M46.65,47.39c0,0.2-0.02,0.36-0.07,0.49c-0.03,0.13-0.1,0.25-0.2,0.35c-0.08,0.08-0.2,0.15-0.33,0.2
		c-0.13,0.05-0.3,0.07-0.48,0.07h-0.36v0.49h0.36c0.25,0,0.48-0.03,0.67-0.12c0.2-0.07,0.36-0.18,0.49-0.31
		c0.13-0.13,0.23-0.3,0.3-0.49c0.07-0.2,0.1-0.43,0.1-0.67v-1.64h-0.49L46.65,47.39z M55.99,46.53c0.02,0.07,0.02,0.15,0,0.23
		c0,0.08-0.02,0.16-0.05,0.25c-0.03,0.1-0.07,0.2-0.13,0.28c-0.07,0.08-0.13,0.15-0.21,0.21c-0.08,0.07-0.18,0.1-0.3,0.13
		c-0.12,0.03-0.23,0.05-0.35,0.05c-0.12,0-0.25-0.02-0.38-0.05c-0.13-0.03-0.26-0.08-0.39-0.15c-0.03-0.02-0.08-0.03-0.12-0.05
		c-0.03-0.02-0.07-0.03-0.08-0.05c-0.03-0.02-0.05-0.03-0.08-0.03c-0.16,0.05-0.36,0.08-0.58,0.12c-0.21,0.03-0.46,0.03-0.72,0.03
		h-0.3h-0.03h-0.05l0,0c-0.13,0-0.26-0.02-0.36-0.05c-0.12-0.03-0.23-0.07-0.33-0.13c-0.1-0.05-0.2-0.12-0.28-0.2
		c-0.08-0.08-0.16-0.16-0.25-0.26c0,0.02,0,0.02-0.02,0.02c0,0,0,0.02-0.02,0.02c-0.05,0.1-0.12,0.18-0.21,0.26
		c-0.08,0.08-0.2,0.15-0.31,0.2c-0.1,0.05-0.21,0.08-0.35,0.1s-0.26,0.03-0.39,0.03h-0.77l0,0c-0.15,0-0.26-0.02-0.38-0.03
		c-0.12-0.02-0.21-0.07-0.31-0.1c-0.08-0.05-0.15-0.1-0.2-0.16c-0.05-0.07-0.08-0.15-0.12-0.23c-0.03-0.08-0.05-0.2-0.05-0.3
		c-0.02-0.12-0.02-0.23-0.02-0.38v-2.53h0.49v2.53c0,0.15,0,0.28,0.02,0.38c0.02,0.1,0.03,0.16,0.08,0.21
		c0.03,0.05,0.1,0.08,0.18,0.1c0.08,0.02,0.2,0.03,0.35,0.03h0.72c0.1,0,0.2,0,0.28-0.02c0.08-0.02,0.16-0.03,0.25-0.07
		c0.07-0.03,0.13-0.07,0.18-0.1c0.05-0.03,0.08-0.08,0.12-0.13c0.05-0.08,0.05-0.2,0.02-0.31c-0.03-0.12-0.1-0.26-0.21-0.41
		c-0.15-0.21-0.3-0.41-0.39-0.56c-0.12-0.15-0.2-0.28-0.26-0.38c-0.08-0.12-0.15-0.2-0.2-0.28l0.1-0.36l2.42-1.12l0.2,0.46
		l-2.15,0.99l1.04,1.45c0.12,0.15,0.2,0.26,0.28,0.38c0.08,0.1,0.16,0.2,0.26,0.26c0.08,0.07,0.18,0.12,0.28,0.15
		c0.1,0.03,0.23,0.05,0.36,0.05h0.03h0.3c0.12,0,0.23,0,0.36,0c0.12,0,0.23-0.02,0.33-0.02c-0.13-0.12-0.21-0.23-0.28-0.36
		c-0.05-0.13-0.08-0.28-0.08-0.46c0-0.13,0.02-0.26,0.07-0.36c0.05-0.12,0.12-0.21,0.2-0.3c0.08-0.08,0.2-0.15,0.31-0.2
		c0.12-0.05,0.25-0.07,0.39-0.07c0.1,0,0.2,0.02,0.3,0.05c0.08,0.03,0.16,0.07,0.25,0.12c0.07,0.05,0.13,0.12,0.18,0.18
		c0.05,0.07,0.1,0.13,0.13,0.2s0.07,0.15,0.08,0.21c0.02,0.07,0.03,0.15,0.03,0.2c0,0.18-0.03,0.35-0.1,0.49s-0.16,0.28-0.3,0.38
		c0.07,0.03,0.15,0.05,0.23,0.07c0.08,0.02,0.16,0.03,0.25,0.03c0.05,0,0.1,0,0.16-0.02c0.05,0,0.1-0.02,0.15-0.05
		c0.05-0.02,0.08-0.05,0.13-0.08c0.03-0.03,0.07-0.08,0.1-0.15c0.03-0.07,0.05-0.15,0.03-0.23c-0.02-0.08-0.05-0.18-0.12-0.28
		c-0.05-0.1-0.13-0.2-0.21-0.31c-0.08-0.1-0.18-0.21-0.28-0.33c-0.1-0.12-0.21-0.21-0.33-0.33c-0.12-0.12-0.21-0.21-0.33-0.33
		l0.36-0.35c0.2,0.2,0.38,0.39,0.53,0.56c0.07,0.08,0.15,0.15,0.21,0.23c0.07,0.08,0.13,0.15,0.2,0.21c0.07,0.07,0.12,0.13,0.16,0.2
		c0.05,0.05,0.08,0.1,0.1,0.13c0.05,0.08,0.08,0.15,0.12,0.23C55.95,46.38,55.97,46.47,55.99,46.53z M54.38,46.2
		c0-0.08-0.02-0.16-0.05-0.21c-0.03-0.07-0.08-0.12-0.13-0.15c-0.05-0.03-0.1-0.07-0.16-0.08c-0.05-0.02-0.1-0.03-0.15-0.03
		c-0.07,0-0.13,0.02-0.2,0.03c-0.07,0.02-0.12,0.05-0.16,0.08c-0.05,0.03-0.08,0.08-0.1,0.15c-0.03,0.05-0.03,0.12-0.03,0.18
		c0,0.08,0.02,0.15,0.03,0.2c0.02,0.07,0.05,0.12,0.1,0.16c0.05,0.05,0.1,0.1,0.16,0.15c0.07,0.05,0.15,0.1,0.25,0.15
		c0.07-0.03,0.13-0.07,0.18-0.1c0.05-0.05,0.1-0.08,0.15-0.15c0.03-0.05,0.07-0.12,0.1-0.18C54.38,46.35,54.38,46.29,54.38,46.2z
		 M57.1,43.77h-0.49v3.75h0.49V43.77z M58.16,47.39c0,0.2-0.02,0.36-0.07,0.49c-0.03,0.13-0.1,0.25-0.2,0.35
		c-0.08,0.08-0.2,0.15-0.33,0.2c-0.13,0.05-0.3,0.07-0.48,0.07h-0.36v0.49h0.36c0.25,0,0.48-0.03,0.67-0.12
		c0.2-0.07,0.36-0.18,0.49-0.31c0.13-0.13,0.23-0.3,0.3-0.49c0.07-0.2,0.1-0.43,0.1-0.67v-1.64h-0.49V47.39z M62.92,45.55
		l-0.46-0.46l-0.44,0.46l0.44,0.46L62.92,45.55z M65.86,48.54l0.41,0.43l0.43-0.43l-0.43-0.43L65.86,48.54z M64.86,48.54l0.41,0.43
		l0.43-0.43l-0.43-0.43L64.86,48.54z M71.14,48.47l0.46,0.46l0.44-0.46l-0.46-0.46L71.14,48.47z M72.24,46.55
		c0,0.16-0.03,0.31-0.08,0.43c-0.05,0.12-0.13,0.23-0.21,0.3c-0.08,0.08-0.18,0.13-0.3,0.18c-0.12,0.03-0.21,0.07-0.33,0.07h-0.59
		h-0.08h-0.41c-0.12,0-0.21,0.03-0.3,0.08c-0.08,0.07-0.15,0.13-0.18,0.23c-0.05,0.12-0.05,0.25,0,0.36
		c0.05,0.13,0.12,0.25,0.25,0.35l-0.16,0.44c-0.16,0-0.33-0.02-0.49-0.07c-0.15-0.03-0.3-0.1-0.43-0.16
		c-0.13-0.07-0.26-0.15-0.36-0.25c-0.12-0.1-0.21-0.2-0.3-0.31c-0.08-0.12-0.15-0.23-0.21-0.35c-0.05-0.12-0.1-0.25-0.12-0.38
		c-0.12,0.02-0.21,0.02-0.33,0.02c-0.08,0-0.15,0-0.21,0l0,0h-0.43c-0.16,0-0.3-0.02-0.43-0.07c-0.12-0.05-0.21-0.12-0.3-0.2
		c-0.18,0.18-0.44,0.28-0.81,0.28h-0.79h-0.07h-0.03c-0.16,0-0.33-0.03-0.48-0.12v0.18c0,0.46-0.12,0.81-0.36,1.04
		s-0.61,0.35-1.1,0.35h-0.62c-0.28,0-0.53-0.07-0.74-0.18c-0.21-0.12-0.39-0.28-0.54-0.51c-0.1-0.15-0.16-0.31-0.2-0.49
		c-0.03-0.18-0.05-0.38-0.05-0.58c0.02-0.21,0.05-0.43,0.12-0.66s0.15-0.46,0.26-0.71l0.44,0.21c-0.1,0.2-0.18,0.39-0.23,0.59
		c-0.05,0.18-0.1,0.36-0.1,0.53c-0.02,0.16,0,0.31,0.02,0.46c0.03,0.15,0.08,0.26,0.15,0.38c0.1,0.15,0.21,0.25,0.36,0.33
		c0.15,0.08,0.31,0.12,0.49,0.12h0.62c0.2,0,0.36-0.02,0.49-0.07c0.13-0.05,0.23-0.1,0.3-0.18c0.07-0.08,0.12-0.16,0.15-0.28
		c0.03-0.12,0.03-0.23,0.03-0.36v-1.04V46.5v-0.79h0.49v0.82c0,0.07,0.02,0.13,0.03,0.2c0.02,0.05,0.05,0.1,0.1,0.15
		c0.03,0.03,0.08,0.07,0.15,0.1c0.05,0.02,0.12,0.03,0.2,0.03h0.03h0.07h0.79c0.13,0,0.23-0.02,0.3-0.03
		c0.07-0.03,0.13-0.05,0.16-0.1c0.03-0.03,0.07-0.08,0.07-0.13c0.02-0.05,0.02-0.08,0.02-0.13v-0.89h0.49v0.87
		c0,0.07,0.02,0.12,0.03,0.16c0.02,0.05,0.05,0.08,0.08,0.12c0.03,0.03,0.07,0.05,0.1,0.07s0.08,0.03,0.12,0.03
		c0.03,0.02,0.07,0.02,0.1,0.02s0.05,0,0.07,0h0.36c0.08,0,0.16,0,0.26,0s0.21-0.02,0.33-0.02c0.02-0.23,0.03-0.43,0.05-0.59
		c0.03-0.16,0.07-0.31,0.12-0.44c0.05-0.15,0.12-0.26,0.18-0.35c0.07-0.08,0.15-0.16,0.23-0.21s0.16-0.08,0.25-0.1
		c0.08-0.02,0.16-0.03,0.23-0.03c0.15,0,0.28,0.02,0.41,0.07c0.12,0.05,0.21,0.1,0.31,0.18c0.08,0.08,0.15,0.18,0.2,0.3
		c0.05,0.12,0.07,0.25,0.07,0.39c0,0.08-0.02,0.18-0.05,0.28c-0.03,0.1-0.08,0.2-0.16,0.3c-0.08,0.1-0.18,0.2-0.33,0.28
		c-0.13,0.08-0.31,0.16-0.53,0.23c-0.15,0.05-0.31,0.08-0.48,0.12c0.02,0.12,0.07,0.23,0.13,0.33c0.07,0.1,0.13,0.2,0.21,0.3
		c0.08,0.08,0.18,0.16,0.28,0.23s0.21,0.13,0.33,0.16c-0.05-0.05-0.08-0.1-0.1-0.16c-0.02-0.07-0.03-0.13-0.05-0.2
		c0-0.07,0-0.15,0-0.21c0.02-0.07,0.02-0.13,0.05-0.2c0.03-0.1,0.08-0.18,0.15-0.26c0.07-0.08,0.13-0.15,0.21-0.2
		s0.16-0.1,0.26-0.13c0.1-0.03,0.2-0.05,0.3-0.05h0.39h0.16h0.59c0.03,0,0.07,0,0.12-0.02c0.05,0,0.1-0.03,0.15-0.07
		c0.05-0.03,0.08-0.08,0.13-0.15c0.03-0.07,0.05-0.15,0.05-0.26c0-0.03,0-0.08-0.02-0.15c0-0.07-0.02-0.12-0.02-0.2
		c-0.02-0.07-0.02-0.13-0.03-0.21c-0.02-0.07-0.02-0.13-0.03-0.2c-0.02-0.07-0.02-0.12-0.03-0.16c-0.02-0.05-0.02-0.08-0.03-0.12
		l0.48-0.15c0,0.02,0.02,0.03,0.02,0.08c0.02,0.05,0.02,0.1,0.03,0.16c0.02,0.07,0.03,0.15,0.05,0.23c0.02,0.08,0.03,0.16,0.05,0.25
		c0.02,0.08,0.02,0.16,0.03,0.25C72.24,46.42,72.24,46.48,72.24,46.55z M68.43,46.93c0.07-0.02,0.12-0.02,0.16-0.03
		c0.05-0.02,0.12-0.03,0.16-0.05c0.18-0.05,0.31-0.12,0.39-0.16c0.1-0.07,0.16-0.12,0.21-0.18c0.05-0.07,0.07-0.12,0.08-0.16
		c0-0.05,0.02-0.08,0.02-0.12c0-0.16-0.03-0.28-0.12-0.35c-0.08-0.07-0.2-0.12-0.36-0.12c-0.07,0-0.13,0.02-0.18,0.03
		c-0.07,0.03-0.12,0.08-0.16,0.16c-0.05,0.08-0.1,0.2-0.13,0.35C68.46,46.48,68.44,46.68,68.43,46.93z"/>
	<g>
		<polygon id="Fino_x5F_head_5_" class="st13" points="51.6,0.49 36.38,0.49 36.38,0.49 36.37,0.5 32.52,7.09 28.76,13.68 
			28.84,13.81 28.76,13.68 36.35,13.7 43.99,13.68 40.13,20.27 36.37,26.86 36.38,26.86 36.38,26.86 51.6,26.86 59.21,13.68 		"/>
		<path id="Fino_x5F_Tail_5_" class="st13" d="M36.38,26.86l-0.1-0.16l-3.73-6.44l-3.78-6.57l-3.83-6.61L21.16,0.5l-7.61,13.18
			l7.61,13.18L36.38,26.86L36.38,26.86z"/>
	</g>
	<path class="st13" d="M30.71,32.63h-1.04v-1.08h1.04V32.63z M40.1,33.47l0.02,2.51c0,0.92-0.48,1.38-1.43,1.38H37.2h-0.2h-2.05
		h-0.2h-2.07h-0.2h-0.87c-0.31,0-0.59-0.13-0.82-0.41c-0.13-0.16-0.21-0.31-0.26-0.46c-0.2,0.56-0.64,0.85-1.31,0.87h-1.48h-0.2
		h-2.05h-0.21h-1.33c-0.36,1.41-1.25,2.19-2.66,2.32c-0.15-0.2-0.38-0.49-0.69-0.89c1.07,0,1.79-0.48,2.15-1.43H22
		c-0.51,0-0.94-0.2-1.28-0.58c-0.33-0.38-0.49-0.82-0.49-1.33c0-0.59,0.2-1.07,0.58-1.45c0.38-0.36,0.85-0.56,1.41-0.56
		c1.22,0,1.84,0.56,1.84,1.69v1.2h1.22h0.21h2.05h0.2h1.05c0.2,0,0.38-0.05,0.56-0.16c0.23-0.13,0.33-0.33,0.33-0.58l-0.02-2.12
		h1.12c0,0.39,0.02,0.95,0.03,1.66c0,0.38,0.12,0.67,0.33,0.89c0.18,0.2,0.38,0.3,0.59,0.3h0.77h0.2h2.07h0.2h2.05h0.2h1.05
		c0.48,0,0.72-0.25,0.72-0.74v-0.58c0-0.2,0-0.35-0.02-0.48l-0.02-0.59c0-0.21,0-0.38-0.02-0.48L40.1,33.47z M22.92,36.33
		c0-0.36,0-0.71-0.02-1.02v-0.43c0-0.13-0.07-0.26-0.21-0.41c-0.15-0.16-0.31-0.25-0.48-0.25c-0.58,0-0.87,0.39-0.87,1.17
		c0,0.62,0.26,0.92,0.81,0.92h0.77V36.33z M36.99,38.99h1.04V37.9h-1.04V38.99z M38.54,38.99h1.02V37.9h-1.02V38.99z M51.19,30.02
		h-1.04v1.08h1.04V30.02z M52.5,33.32v3.11c0.02,0.62-0.31,0.94-0.95,0.94h-3.06h-0.2h-2.05h-0.2h-2.05h-0.2h-1.12
		c-0.3,0-0.54-0.1-0.76-0.31c-0.25-0.23-0.36-0.54-0.36-0.95l-0.03-5.64h1.13l0.05,5.19c0,0.44,0.16,0.67,0.49,0.67h0.61h0.2h2.05
		h0.2h2.05h0.2h2.45c0.28,0,0.41-0.16,0.43-0.49v-0.3h-0.92c-0.53,0-0.95-0.2-1.3-0.59c-0.31-0.38-0.48-0.81-0.44-1.31
		c0.02-0.69,0.26-1.22,0.72-1.59c0.38-0.31,0.81-0.44,1.27-0.41C51.88,31.73,52.49,32.3,52.5,33.32z M51.35,34.52
		c0-0.36,0-0.71-0.02-1.02v-0.43c0-0.1-0.05-0.21-0.16-0.36c-0.13-0.2-0.31-0.28-0.53-0.28c-0.53,0-0.82,0.38-0.87,1.13
		c0,0.26,0.07,0.48,0.23,0.67c0.16,0.18,0.36,0.28,0.59,0.28H51.35z"/>
</g>
</svg>
