<?xml version="1.0" encoding="utf-8"?>
<!-- Generator: Adobe Illustrator 24.1.1, SVG Export Plug-In . SVG Version: 6.00 Build 0)  -->
<svg version="1.1" id="Layer_1" xmlns="http://www.w3.org/2000/svg" xmlns:xlink="http://www.w3.org/1999/xlink" x="0px" y="0px"
	 viewBox="0 0 85.11 59.28" style="enable-background:new 0 0 85.11 59.28;" xml:space="preserve">
<style type="text/css">
	.st0{fill:url(#SVGID_3_);}
	.st1{fill:url(#SVGID_6_);}
	.st2{fill:#B3B2B3;}
	.st3{fill:#D39241;}
	.st4{fill:#315B51;}
	.st5{fill:#C8B34C;}
	.st6{fill:#2BB898;}
	.st7{fill:#385BA6;}
	.st8{fill:#515151;}
	.st9{fill:#F4E8AA;}
	.st10{fill:#FAC86E;}
	.st11{fill:#F4F4F4;}
	.st12{fill:#AD9944;}
	.st13{fill:#00A99D;}
	.st14{fill:#FFFFFF;}
	.st15{fill:url(#SVGID_7_);}
	.st16{fill:#C4AF4C;}
	.st17{fill-rule:evenodd;clip-rule:evenodd;fill:#C4AF4C;}
	.st18{filter:url(#Adobe_OpacityMaskFilter);}
	.st19{fill:url(#SVGID_9_);}
	.st20{mask:url(#SVGID_8_);fill-rule:evenodd;clip-rule:evenodd;fill:#C4AF4C;}
	.st21{filter:url(#Adobe_OpacityMaskFilter_1_);}
	.st22{fill:url(#SVGID_11_);}
	.st23{mask:url(#SVGID_10_);fill-rule:evenodd;clip-rule:evenodd;fill:#F0E4A6;}
	.st24{filter:url(#Adobe_OpacityMaskFilter_2_);}
	.st25{fill:url(#SVGID_13_);}
	.st26{mask:url(#SVGID_12_);fill-rule:evenodd;clip-rule:evenodd;fill:#F0E4A6;}
	.st27{filter:url(#Adobe_OpacityMaskFilter_3_);}
	.st28{fill:url(#SVGID_15_);}
	.st29{mask:url(#SVGID_14_);fill-rule:evenodd;clip-rule:evenodd;fill:#F0E4A6;}
	.st30{filter:url(#Adobe_OpacityMaskFilter_4_);}
	.st31{fill:url(#SVGID_17_);}
	.st32{mask:url(#SVGID_16_);fill-rule:evenodd;clip-rule:evenodd;fill:#F0E4A6;}
	.st33{opacity:0.5;fill-rule:evenodd;clip-rule:evenodd;fill:#C4AF4C;}
	.st34{filter:url(#Adobe_OpacityMaskFilter_5_);}
	.st35{fill:url(#SVGID_19_);}
	.st36{mask:url(#SVGID_18_);fill-rule:evenodd;clip-rule:evenodd;fill:#C4AF4C;}
	.st37{filter:url(#Adobe_OpacityMaskFilter_6_);}
	.st38{fill:url(#SVGID_21_);}
	.st39{mask:url(#SVGID_20_);fill-rule:evenodd;clip-rule:evenodd;fill:#C4AF4C;}
	.st40{filter:url(#Adobe_OpacityMaskFilter_7_);}
	.st41{fill:url(#SVGID_23_);}
	.st42{mask:url(#SVGID_22_);fill-rule:evenodd;clip-rule:evenodd;fill:#F0E4A6;}
	.st43{fill-rule:evenodd;clip-rule:evenodd;fill:#315B51;}
	.st44{filter:url(#Adobe_OpacityMaskFilter_8_);}
	.st45{fill:url(#SVGID_25_);}
	.st46{mask:url(#SVGID_24_);fill-rule:evenodd;clip-rule:evenodd;fill:#2BB494;}
	.st47{fill:#AFAEAF;}
	.st48{fill:none;stroke:#FFFFFF;stroke-width:0.25;stroke-miterlimit:10;}
	.st49{fill:#E0E0E0;}
	.st50{filter:url(#Adobe_OpacityMaskFilter_9_);}
	.st51{fill:url(#SVGID_27_);}
	.st52{mask:url(#SVGID_26_);fill-rule:evenodd;clip-rule:evenodd;fill:#C4AF4C;}
	.st53{filter:url(#Adobe_OpacityMaskFilter_10_);}
	.st54{fill:url(#SVGID_29_);}
	.st55{mask:url(#SVGID_28_);fill-rule:evenodd;clip-rule:evenodd;fill:#F0E4A6;}
	.st56{filter:url(#Adobe_OpacityMaskFilter_11_);}
	.st57{fill:url(#SVGID_31_);}
	.st58{mask:url(#SVGID_30_);fill-rule:evenodd;clip-rule:evenodd;fill:#F0E4A6;}
	.st59{filter:url(#Adobe_OpacityMaskFilter_12_);}
	.st60{fill:url(#SVGID_33_);}
	.st61{mask:url(#SVGID_32_);fill-rule:evenodd;clip-rule:evenodd;fill:#F0E4A6;}
	.st62{filter:url(#Adobe_OpacityMaskFilter_13_);}
	.st63{fill:url(#SVGID_35_);}
	.st64{mask:url(#SVGID_34_);fill-rule:evenodd;clip-rule:evenodd;fill:#F0E4A6;}
	.st65{filter:url(#Adobe_OpacityMaskFilter_14_);}
	.st66{fill:url(#SVGID_37_);}
	.st67{mask:url(#SVGID_36_);fill-rule:evenodd;clip-rule:evenodd;fill:#C4AF4C;}
	.st68{filter:url(#Adobe_OpacityMaskFilter_15_);}
	.st69{fill:url(#SVGID_39_);}
	.st70{mask:url(#SVGID_38_);fill-rule:evenodd;clip-rule:evenodd;fill:#C4AF4C;}
	.st71{fill:none;stroke:#2BB797;stroke-width:1.16;stroke-linecap:round;stroke-linejoin:round;stroke-miterlimit:10;}
	.st72{fill-rule:evenodd;clip-rule:evenodd;fill:none;stroke:#C6C6C6;stroke-width:0.5;stroke-miterlimit:10;}
	.st73{fill-rule:evenodd;clip-rule:evenodd;fill:none;stroke:#C6C6C6;stroke-width:0.75;stroke-miterlimit:10;}
	.st74{fill:#2BB797;}
	.st75{fill:#2BB797;stroke:#2BB797;stroke-width:0.7684;stroke-miterlimit:10;}
	.st76{clip-path:url(#SVGID_41_);fill:#BBBBBB;}
	.st77{clip-path:url(#SVGID_41_);fill:#959595;}
	.st78{clip-path:url(#SVGID_41_);}
	.st79{fill:#959595;}
	.st80{fill:#BBBBBB;}
	.st81{fill:none;stroke:#C6C6C6;stroke-width:0.5;stroke-miterlimit:10;}
	.st82{clip-path:url(#SVGID_43_);}
	.st83{fill-rule:evenodd;clip-rule:evenodd;fill:none;stroke:#C9C9C9;stroke-width:0.5;stroke-miterlimit:10;}
	.st84{fill:#B2B1B2;}
	.st85{fill:#4D4D4D;}
	.st86{fill:#A5CFE3;}
	.st87{fill:url(#);}
	.st88{fill:#9F9F9F;}
	.st89{clip-path:url(#SVGID_45_);fill:#E2E4E6;}
	.st90{clip-path:url(#SVGID_47_);fill:#E2E4E6;}
	.st91{clip-path:url(#SVGID_49_);fill:#E2E4E6;}
	.st92{fill:#CAE0ED;}
	.st93{fill:url(#SVGID_52_);}
	.st94{fill:url(#SVGID_55_);}
	.st95{fill:url(#SVGID_58_);}
	.st96{fill:url(#SVGID_61_);}
	.st97{fill:none;stroke:#B3B2B3;stroke-width:0.5;stroke-miterlimit:10;}
	.st98{fill:#6056DE;}
	.st99{fill:#F4F9F9;}
	.st100{fill:none;stroke:#808080;stroke-width:0.25;stroke-miterlimit:10;}
	.st101{fill:#FF9400;}
	.st102{fill:#4BD965;}
	.st103{fill:#007AFE;}
	.st104{fill:#7F7F7F;}
	.st105{fill:none;stroke:#515151;stroke-width:0.341;stroke-miterlimit:10;}
	.st106{fill:#FFFFFF;stroke:#515151;stroke-width:0.25;stroke-miterlimit:10;}
	.st107{fill:#353535;}
	.st108{fill:#6EB42D;}
	.st109{fill:#622BCC;}
	.st110{fill:#007DC5;}
	.st111{fill:#008ED4;}
	.st112{fill:#EBECEC;}
	.st113{fill:#008CC3;}
	.st114{fill:#E1E8EC;}
	.st115{fill:#DDE7EC;}
	.st116{fill:#FEFEFE;}
	.st117{fill:#F05931;}
	.st118{fill:#F37933;}
	.st119{fill:#EFE8E5;}
	.st120{fill:#EFE8E4;}
	.st121{fill:#C20E2E;}
	.st122{fill:#DC0330;}
	.st123{fill:#FFD745;}
	.st124{fill:#3473A5;}
	.st125{fill:#FFFFFF;stroke:#000000;stroke-width:0.9459;stroke-miterlimit:10;}
</style>
<g>
	<path class="st104" d="M3.19,54.67c-0.04,0.14-0.04,0.27-0.02,0.42l1.18,0.29c0.17,0.04,0.29,0.12,0.37,0.23
		c0.08,0.1,0.12,0.23,0.12,0.37c0,0.27-0.04,0.5-0.1,0.71c-0.06,0.19-0.17,0.37-0.31,0.5c-0.14,0.14-0.33,0.23-0.54,0.31
		c-0.21,0.06-0.48,0.1-0.81,0.1H2.42c-0.15,0-0.31-0.02-0.44-0.06c-0.15-0.04-0.29-0.1-0.41-0.17c-0.14-0.08-0.25-0.15-0.37-0.25
		c-0.12-0.1-0.21-0.21-0.29-0.33c-0.1-0.15-0.17-0.33-0.21-0.52c-0.06-0.19-0.08-0.39-0.08-0.6c0-0.25,0.04-0.54,0.12-0.83
		s0.19-0.62,0.35-0.95c0.1,0.04,0.17,0.08,0.25,0.12c0.08,0.04,0.17,0.08,0.25,0.12c-0.27,0.58-0.41,1.08-0.41,1.51
		c0,0.15,0.02,0.29,0.06,0.44c0.04,0.14,0.1,0.27,0.15,0.37c0.1,0.17,0.25,0.29,0.42,0.39c0.17,0.1,0.37,0.14,0.58,0.14h0.68
		c0.21,0,0.39-0.02,0.54-0.06c0.15-0.04,0.27-0.1,0.37-0.17c0.1-0.08,0.17-0.17,0.21-0.31c0.04-0.14,0.08-0.27,0.08-0.46
		c-0.19-0.06-0.39-0.1-0.58-0.15c-0.08-0.02-0.17-0.04-0.25-0.06c-0.1-0.02-0.17-0.04-0.27-0.08c-0.1-0.02-0.17-0.04-0.25-0.06
		c-0.08-0.02-0.15-0.04-0.23-0.06c-0.1-0.23-0.14-0.46-0.14-0.69s0.06-0.44,0.14-0.64s0.21-0.37,0.37-0.52
		c0.15-0.15,0.33-0.27,0.54-0.37c0.19-0.1,0.42-0.15,0.66-0.17c0.23-0.02,0.48,0,0.73,0.08L4.83,53.8
		c-0.14-0.04-0.29-0.06-0.42-0.06c-0.14,0-0.29,0.02-0.41,0.06c-0.14,0.04-0.25,0.1-0.37,0.17c-0.12,0.08-0.21,0.17-0.29,0.27
		C3.29,54.42,3.23,54.53,3.19,54.67z M6.66,55.75c0,0.23-0.02,0.42-0.08,0.58c-0.04,0.15-0.12,0.29-0.23,0.41
		c-0.1,0.1-0.23,0.17-0.39,0.23c-0.15,0.06-0.35,0.08-0.56,0.08H5v0.58h0.42c0.29,0,0.56-0.04,0.79-0.14
		c0.23-0.08,0.42-0.21,0.58-0.37c0.15-0.15,0.27-0.35,0.35-0.58s0.12-0.5,0.12-0.79v-1.93H6.68v1.93H6.66z M9.92,53.51
		c0.27,0.25,0.42,0.66,0.42,1.22v0.58v0.58c0,0.29-0.04,0.54-0.14,0.75c-0.08,0.21-0.21,0.39-0.41,0.52
		c-0.17,0.14-0.41,0.25-0.68,0.31c-0.27,0.08-0.6,0.1-0.98,0.1v-0.58c0.31,0,0.58-0.02,0.79-0.08c0.21-0.04,0.39-0.12,0.5-0.21
		c0.12-0.1,0.19-0.19,0.23-0.33c0.06-0.14,0.08-0.31,0.08-0.5H9.19c-0.14,0-0.29-0.02-0.44-0.06c-0.15-0.04-0.29-0.12-0.41-0.21
		c-0.12-0.1-0.21-0.23-0.29-0.39c-0.08-0.15-0.12-0.35-0.12-0.58c0-0.14,0.02-0.25,0.04-0.37c0.02-0.12,0.06-0.21,0.1-0.29
		c0.04-0.08,0.08-0.15,0.12-0.23c0.04-0.06,0.08-0.12,0.14-0.17c0.12-0.12,0.25-0.19,0.39-0.27c0.15-0.06,0.31-0.1,0.46-0.1
		c0.15,0,0.29,0.02,0.41,0.08C9.69,53.36,9.81,53.43,9.92,53.51z M9.75,54.75c0-0.15-0.02-0.27-0.04-0.39
		c-0.02-0.1-0.06-0.19-0.08-0.25c-0.04-0.08-0.08-0.12-0.12-0.15c-0.04-0.04-0.1-0.06-0.14-0.08c-0.04-0.02-0.08-0.02-0.12-0.04
		c-0.04,0-0.08,0-0.1,0c-0.21,0-0.37,0.08-0.48,0.21c-0.12,0.14-0.17,0.35-0.17,0.62c0,0.27,0.08,0.44,0.23,0.56
		c0.04,0.02,0.08,0.04,0.12,0.06s0.08,0.02,0.12,0.04c0.04,0.02,0.08,0.02,0.1,0.02c0.04,0,0.06,0,0.08,0h0.56v-0.6H9.75z
		 M14.34,52.39l-0.54-0.52l-0.52,0.52l0.52,0.54L14.34,52.39z M17.78,53.53c0.06,0.21,0.08,0.46,0.08,0.75v0.42
		c0,0.21-0.04,0.39-0.12,0.54s-0.21,0.29-0.37,0.39c-0.27,0.17-0.68,0.27-1.18,0.27h-1.12H15h-0.17c-0.19,0-0.35-0.02-0.5-0.08
		c-0.14-0.06-0.25-0.14-0.35-0.23c-0.21,0.21-0.54,0.33-0.95,0.33h-0.58l0,0c-0.14,0-0.27-0.02-0.37-0.04
		c-0.14-0.02-0.25-0.08-0.37-0.12c-0.1-0.06-0.17-0.12-0.23-0.19c-0.06-0.08-0.1-0.17-0.14-0.27c-0.04-0.1-0.06-0.23-0.06-0.35
		c-0.02-0.14-0.02-0.27-0.02-0.44v-2.97h0.58v2.97c0,0.17,0,0.33,0.02,0.44c0.02,0.12,0.04,0.19,0.1,0.25
		c0.04,0.06,0.12,0.1,0.21,0.12c0.1,0.02,0.23,0.04,0.41,0.04h0.46c0.15,0,0.27-0.02,0.35-0.04c0.08-0.04,0.15-0.06,0.19-0.12
		c0.04-0.04,0.08-0.1,0.08-0.15c0.02-0.06,0.02-0.1,0.02-0.15v-1.04h0.58v1.02c0,0.08,0.02,0.14,0.04,0.19
		c0.02,0.06,0.06,0.1,0.1,0.14c0.04,0.04,0.08,0.06,0.12,0.08s0.1,0.04,0.14,0.04c0.04,0.02,0.08,0.02,0.12,0.02
		c0.04,0,0.06,0,0.08,0h0.17h0.08h1.12c0.23,0,0.42-0.02,0.56-0.06s0.25-0.08,0.33-0.12c0.08-0.06,0.14-0.1,0.15-0.15
		c0.02-0.06,0.04-0.12,0.06-0.17h-0.5c-0.06,0-0.12,0-0.17,0c-0.06,0-0.14-0.02-0.21-0.02c-0.08-0.02-0.14-0.02-0.21-0.06
		c-0.08-0.02-0.14-0.06-0.21-0.1c-0.06-0.04-0.12-0.08-0.17-0.12c-0.06-0.06-0.12-0.12-0.15-0.19c-0.04-0.1-0.08-0.17-0.12-0.27
		c-0.04-0.1-0.04-0.21-0.04-0.35c0-0.17,0.04-0.33,0.08-0.48c0.06-0.15,0.14-0.27,0.25-0.39c0.12-0.12,0.23-0.19,0.37-0.25
		c0.14-0.06,0.29-0.08,0.44-0.08c0.17,0,0.35,0.04,0.5,0.12s0.27,0.19,0.39,0.33C17.64,53.15,17.72,53.32,17.78,53.53z M17.3,54.23
		c0-0.21-0.02-0.39-0.06-0.54s-0.1-0.27-0.15-0.37c-0.1-0.14-0.23-0.19-0.41-0.19c-0.08,0-0.14,0.02-0.21,0.04
		c-0.08,0.02-0.14,0.06-0.19,0.12c-0.06,0.04-0.1,0.12-0.14,0.19c-0.04,0.08-0.06,0.17-0.06,0.27c0,0.06,0,0.12,0.02,0.17
		c0.02,0.04,0.04,0.08,0.06,0.12c0.02,0.04,0.04,0.06,0.08,0.08c0.02,0.02,0.04,0.04,0.08,0.04c0.06,0.04,0.14,0.06,0.21,0.08
		s0.19,0.02,0.31,0.02h0.46V54.23z M17.12,51.31l-0.54-0.54l-0.52,0.52l0.54,0.54L17.12,51.31z M22.06,53.51
		c0.27,0.25,0.42,0.66,0.42,1.22v0.58v0.58c0,0.29-0.04,0.54-0.14,0.75c-0.08,0.21-0.21,0.39-0.41,0.52
		c-0.17,0.14-0.41,0.25-0.68,0.31c-0.27,0.08-0.6,0.1-0.98,0.1v-0.58c0.31,0,0.58-0.02,0.79-0.08c0.21-0.04,0.39-0.12,0.5-0.21
		c0.12-0.1,0.19-0.19,0.23-0.33c0.06-0.14,0.08-0.31,0.08-0.5h-0.56c-0.14,0-0.29-0.02-0.44-0.06c-0.15-0.04-0.29-0.12-0.41-0.21
		c-0.12-0.1-0.21-0.23-0.29-0.39c-0.08-0.15-0.12-0.35-0.12-0.58c0-0.14,0.02-0.25,0.04-0.37c0.02-0.12,0.06-0.21,0.1-0.29
		c0.04-0.08,0.08-0.15,0.12-0.23c0.04-0.06,0.08-0.12,0.14-0.17c0.12-0.12,0.25-0.19,0.39-0.27c0.15-0.06,0.31-0.1,0.46-0.1
		c0.15,0,0.29,0.02,0.41,0.08C21.85,53.36,21.97,53.43,22.06,53.51z M21.91,54.75c0-0.15-0.02-0.27-0.04-0.39
		c-0.02-0.1-0.06-0.19-0.08-0.25c-0.04-0.08-0.08-0.12-0.12-0.15c-0.04-0.04-0.1-0.06-0.14-0.08c-0.04-0.02-0.08-0.02-0.12-0.04
		c-0.04,0-0.08,0-0.1,0c-0.21,0-0.37,0.08-0.48,0.21c-0.12,0.14-0.17,0.35-0.17,0.62c0,0.27,0.08,0.44,0.23,0.56
		c0.04,0.02,0.08,0.04,0.12,0.06c0.04,0.02,0.08,0.02,0.12,0.04c0.04,0,0.08,0.02,0.12,0.02c0.04,0,0.06,0,0.08,0h0.56v-0.6H21.91z
		 M30.44,52.59l-0.5-0.5l-0.48,0.5l0.48,0.5L30.44,52.59z M30.98,51.7l-0.42-0.44l-0.44,0.44l0.42,0.42L30.98,51.7z M31.13,53.09
		l0.5-0.5l-0.5-0.5l-0.48,0.5L31.13,53.09z M37.73,54.75c0.02,0.08,0.02,0.17,0,0.27c0,0.1-0.02,0.19-0.06,0.29
		c-0.04,0.12-0.08,0.23-0.15,0.33c-0.08,0.1-0.15,0.17-0.25,0.25c-0.1,0.08-0.21,0.12-0.35,0.15c-0.14,0.04-0.27,0.06-0.41,0.06
		s-0.29-0.02-0.44-0.06c-0.15-0.04-0.31-0.1-0.46-0.17c-0.04-0.02-0.1-0.04-0.14-0.06c-0.04-0.02-0.08-0.04-0.1-0.06
		c-0.04-0.02-0.06-0.04-0.1-0.04c-0.19,0.06-0.42,0.1-0.68,0.14c-0.25,0.04-0.54,0.04-0.85,0.04h-0.35h-0.1h-0.1
		c-0.21,0-0.39-0.04-0.54-0.1c-0.15-0.06-0.29-0.15-0.39-0.25l-0.08,0.08c-0.1,0.08-0.21,0.15-0.35,0.21
		c-0.14,0.06-0.27,0.08-0.41,0.08c-0.19,0-0.39-0.04-0.52-0.1c-0.15-0.06-0.29-0.15-0.39-0.25l-0.08,0.08
		c-0.1,0.08-0.21,0.15-0.35,0.21c-0.14,0.06-0.27,0.08-0.41,0.08c-0.25,0-0.48-0.06-0.68-0.17V56c0,0.54-0.14,0.95-0.42,1.22
		c-0.29,0.27-0.71,0.41-1.29,0.41H26.6c-0.31,0-0.6-0.08-0.87-0.21c-0.25-0.14-0.46-0.33-0.64-0.6c-0.12-0.17-0.19-0.37-0.23-0.58
		c-0.04-0.21-0.06-0.44-0.06-0.69c0.02-0.25,0.06-0.5,0.14-0.77c0.08-0.27,0.17-0.54,0.31-0.83l0.52,0.25
		c-0.12,0.23-0.21,0.46-0.27,0.69c-0.06,0.21-0.12,0.42-0.12,0.62c-0.02,0.19,0,0.39,0.02,0.54c0.04,0.17,0.1,0.31,0.17,0.44
		c0.12,0.17,0.25,0.29,0.42,0.39c0.17,0.1,0.37,0.14,0.58,0.14h0.73c0.23,0,0.42-0.02,0.58-0.08c0.15-0.06,0.27-0.12,0.35-0.21
		c0.08-0.1,0.14-0.19,0.17-0.33c0.04-0.14,0.04-0.27,0.04-0.42V53.8h0.58v0.6c0,0.19,0.02,0.35,0.06,0.48
		c0.04,0.12,0.1,0.21,0.15,0.27c0.06,0.06,0.14,0.1,0.21,0.14c0.08,0.02,0.15,0.04,0.25,0.04c0.06,0,0.12,0,0.17-0.02
		c0.06-0.02,0.14-0.06,0.19-0.1c0.06-0.04,0.1-0.1,0.15-0.17c0.04-0.08,0.06-0.17,0.06-0.27v-0.93h0.58v0.96
		c0,0.19,0.06,0.33,0.15,0.41c0.1,0.1,0.25,0.14,0.46,0.14c0.06,0,0.12,0,0.17-0.02c0.06-0.02,0.14-0.06,0.19-0.1
		c0.06-0.04,0.1-0.1,0.15-0.17c0.04-0.08,0.06-0.17,0.06-0.27v-0.93h0.58v0.96c0,0.19,0.06,0.33,0.15,0.41
		c0.1,0.1,0.25,0.14,0.46,0.14h0.1h0.12h0.35c0.14,0,0.27,0,0.42,0c0.14,0,0.27-0.02,0.39-0.02c-0.15-0.14-0.25-0.27-0.33-0.42
		c-0.06-0.15-0.1-0.33-0.1-0.54c0-0.15,0.02-0.31,0.08-0.42c0.06-0.14,0.14-0.25,0.23-0.35c0.1-0.1,0.23-0.17,0.37-0.23
		c0.14-0.06,0.29-0.08,0.46-0.08c0.12,0,0.23,0.02,0.35,0.06c0.1,0.04,0.19,0.08,0.29,0.14c0.08,0.06,0.15,0.14,0.21,0.21
		c0.06,0.08,0.12,0.15,0.15,0.23s0.08,0.17,0.1,0.25c0.02,0.08,0.04,0.17,0.04,0.23c0,0.21-0.04,0.41-0.12,0.58
		c-0.08,0.17-0.19,0.33-0.35,0.44c0.08,0.04,0.17,0.06,0.27,0.08c0.1,0.02,0.19,0.04,0.29,0.04c0.06,0,0.12,0,0.19-0.02
		c0.06,0,0.12-0.02,0.17-0.06c0.06-0.02,0.1-0.06,0.15-0.1c0.04-0.04,0.08-0.1,0.12-0.17c0.04-0.08,0.06-0.17,0.04-0.27
		c-0.02-0.1-0.06-0.21-0.14-0.33c-0.06-0.12-0.15-0.23-0.25-0.37c-0.1-0.12-0.21-0.25-0.33-0.39c-0.12-0.14-0.25-0.25-0.39-0.39
		c-0.14-0.14-0.25-0.25-0.39-0.39l0.42-0.41c0.23,0.23,0.44,0.46,0.62,0.66c0.08,0.1,0.17,0.17,0.25,0.27
		c0.08,0.1,0.15,0.17,0.23,0.25c0.08,0.08,0.14,0.15,0.19,0.23c0.06,0.06,0.1,0.12,0.12,0.15c0.06,0.1,0.1,0.17,0.14,0.27
		C37.69,54.57,37.71,54.67,37.73,54.75z M35.86,54.36c0-0.1-0.02-0.19-0.06-0.25c-0.04-0.08-0.1-0.14-0.15-0.17s-0.12-0.08-0.19-0.1
		c-0.06-0.02-0.12-0.04-0.17-0.04c-0.08,0-0.15,0.02-0.23,0.04c-0.08,0.02-0.14,0.06-0.19,0.1c-0.06,0.04-0.1,0.1-0.12,0.17
		c-0.04,0.06-0.04,0.14-0.04,0.21c0,0.1,0.02,0.17,0.04,0.23c0.02,0.08,0.06,0.14,0.12,0.19s0.12,0.12,0.19,0.17
		c0.08,0.06,0.17,0.12,0.29,0.17c0.08-0.04,0.15-0.08,0.21-0.12c0.06-0.06,0.12-0.1,0.17-0.17c0.04-0.06,0.08-0.14,0.12-0.21
		C35.84,54.53,35.86,54.46,35.86,54.36z M40.62,55.9c0,0.29-0.04,0.54-0.14,0.75c-0.08,0.21-0.21,0.39-0.41,0.52
		c-0.17,0.14-0.41,0.25-0.68,0.31c-0.27,0.08-0.6,0.1-0.98,0.1V57c0.31,0,0.58-0.02,0.79-0.08c0.21-0.04,0.39-0.12,0.5-0.21
		c0.12-0.1,0.19-0.19,0.23-0.33c0.06-0.14,0.08-0.31,0.08-0.5h-0.56c-0.14,0-0.29-0.02-0.44-0.06c-0.15-0.04-0.29-0.12-0.41-0.21
		c-0.12-0.1-0.21-0.23-0.29-0.39s-0.12-0.35-0.12-0.58c0-0.14,0.02-0.25,0.04-0.37c0.02-0.12,0.06-0.21,0.1-0.29
		s0.08-0.15,0.12-0.23c0.04-0.06,0.08-0.12,0.14-0.17c0.12-0.12,0.25-0.19,0.39-0.27c0.15-0.06,0.31-0.1,0.46-0.1
		s0.29,0.02,0.41,0.08c0.14,0.04,0.25,0.12,0.35,0.21c0.27,0.25,0.42,0.66,0.42,1.22v0.58L40.62,55.9z M40.05,54.75
		c0-0.15-0.02-0.27-0.04-0.39c-0.02-0.1-0.06-0.19-0.08-0.25c-0.04-0.08-0.08-0.12-0.12-0.15c-0.04-0.04-0.1-0.06-0.14-0.08
		c-0.04-0.02-0.08-0.02-0.12-0.04c-0.04,0-0.08,0-0.1,0c-0.21,0-0.37,0.08-0.48,0.21c-0.12,0.14-0.17,0.35-0.17,0.62
		c0,0.27,0.08,0.44,0.23,0.56c0.04,0.02,0.08,0.04,0.12,0.06c0.04,0.02,0.08,0.02,0.12,0.04c0.04,0.02,0.08,0.02,0.1,0.02
		c0.04,0,0.06,0,0.08,0h0.56v-0.6H40.05z M43.06,53.09l0.5-0.5l-0.5-0.5l-0.48,0.5L43.06,53.09z M42.36,52.59l-0.5-0.5l-0.48,0.5
		l0.48,0.5L42.36,52.59z M42.9,51.7l-0.42-0.44l-0.44,0.44l0.42,0.42L42.9,51.7z M44.17,56.5L43.69,57l0.48,0.5l0.5-0.5L44.17,56.5z
		 M45.06,55.83c0.14-0.04,0.25-0.12,0.35-0.21c0.1-0.1,0.19-0.21,0.25-0.35c0.06-0.14,0.1-0.31,0.1-0.5c0-0.08,0-0.15-0.02-0.23
		c-0.02-0.1-0.02-0.19-0.04-0.29c-0.02-0.1-0.04-0.19-0.06-0.29c-0.02-0.1-0.04-0.17-0.06-0.27c-0.02-0.08-0.04-0.15-0.04-0.19
		c-0.02-0.06-0.02-0.08-0.02-0.1l-0.56,0.17c0,0.04,0.02,0.08,0.04,0.14c0.02,0.06,0.02,0.12,0.04,0.19
		c0.02,0.08,0.04,0.15,0.04,0.23c0.02,0.08,0.02,0.17,0.04,0.25c0.02,0.08,0.02,0.15,0.02,0.23s0.02,0.14,0.02,0.17
		c0,0.14-0.02,0.23-0.06,0.31c-0.04,0.08-0.1,0.14-0.15,0.17c-0.06,0.04-0.12,0.06-0.17,0.08s-0.1,0.02-0.14,0.02h-1.18h-0.12h-0.02
		c-0.02,0-0.06,0-0.12-0.02c-0.06,0-0.12-0.02-0.17-0.06c-0.06-0.04-0.12-0.08-0.17-0.14c-0.06-0.06-0.08-0.15-0.08-0.27v-1.02
		h-0.58v1.93c0,0.23-0.02,0.42-0.08,0.58c-0.04,0.15-0.12,0.29-0.23,0.41c-0.1,0.1-0.23,0.17-0.39,0.23
		c-0.15,0.06-0.35,0.08-0.56,0.08h-0.42v0.58h0.42c0.29,0,0.56-0.04,0.77-0.12c0.23-0.08,0.42-0.19,0.58-0.37
		c0.15-0.15,0.27-0.35,0.35-0.58c0.08-0.23,0.12-0.48,0.12-0.77c0.17,0.08,0.35,0.12,0.54,0.12h0.02h0.12h1.18
		C44.79,55.9,44.93,55.89,45.06,55.83z M44.33,57.89l0.44,0.44l0.42-0.44l-0.44-0.42L44.33,57.89z M44.87,57l0.48,0.5l0.5-0.5
		l-0.5-0.5L44.87,57z M51.64,55.98c0,0.15-0.02,0.29-0.04,0.42c-0.04,0.14-0.1,0.23-0.17,0.33c-0.08,0.1-0.19,0.15-0.35,0.21
		c-0.15,0.06-0.35,0.08-0.58,0.08h-0.73c-0.21,0-0.41-0.04-0.58-0.14c-0.17-0.1-0.31-0.21-0.42-0.39c-0.08-0.14-0.14-0.29-0.17-0.44
		c-0.04-0.17-0.04-0.35-0.02-0.54c0.02-0.19,0.06-0.41,0.12-0.62c0.06-0.21,0.15-0.44,0.27-0.69l-0.52-0.25
		c-0.14,0.29-0.25,0.56-0.31,0.83c-0.08,0.27-0.12,0.52-0.14,0.77c-0.02,0.25,0,0.46,0.06,0.68c0.06,0.21,0.14,0.41,0.23,0.58
		c0.15,0.25,0.37,0.46,0.64,0.6c0.25,0.14,0.54,0.21,0.87,0.21h0.73c0.58,0,1-0.14,1.29-0.41c0.29-0.27,0.42-0.68,0.42-1.22v-2.16
		h-0.58v2.14H51.64z M50.87,53.59l-0.54-0.54l-0.52,0.54l0.52,0.54L50.87,53.59z M53.59,51.51h-0.58v4.4h0.58V51.51z M54.83,55.75
		c0,0.23-0.02,0.42-0.08,0.58c-0.04,0.15-0.12,0.29-0.23,0.41c-0.1,0.1-0.23,0.17-0.39,0.23c-0.15,0.06-0.35,0.08-0.56,0.08h-0.42
		v0.58h0.42c0.29,0,0.56-0.04,0.79-0.14c0.23-0.08,0.42-0.21,0.58-0.37s0.27-0.35,0.35-0.58c0.08-0.23,0.12-0.5,0.12-0.79v-1.93
		h-0.58L54.83,55.75z M65.79,54.75c0.02,0.08,0.02,0.17,0,0.27c0,0.1-0.02,0.19-0.06,0.29c-0.04,0.12-0.08,0.23-0.15,0.33
		c-0.08,0.1-0.15,0.17-0.25,0.25c-0.1,0.08-0.21,0.12-0.35,0.15c-0.14,0.04-0.27,0.06-0.41,0.06s-0.29-0.02-0.44-0.06
		c-0.15-0.04-0.31-0.1-0.46-0.17c-0.04-0.02-0.1-0.04-0.14-0.06c-0.04-0.02-0.08-0.04-0.1-0.06c-0.04-0.02-0.06-0.04-0.1-0.04
		c-0.19,0.06-0.42,0.1-0.68,0.14c-0.25,0.04-0.54,0.04-0.85,0.04h-0.35h-0.04h-0.06l0,0c-0.15,0-0.31-0.02-0.42-0.06
		c-0.14-0.04-0.27-0.08-0.39-0.15c-0.12-0.06-0.23-0.14-0.33-0.23c-0.1-0.1-0.19-0.19-0.29-0.31c0,0.02,0,0.02-0.02,0.02
		c0,0,0,0.02-0.02,0.02c-0.06,0.12-0.14,0.21-0.25,0.31c-0.1,0.1-0.23,0.17-0.37,0.23c-0.12,0.06-0.25,0.1-0.41,0.12
		c-0.15,0.02-0.31,0.04-0.46,0.04h-0.91l0,0c-0.17,0-0.31-0.02-0.44-0.04c-0.14-0.02-0.25-0.08-0.37-0.12
		c-0.1-0.06-0.17-0.12-0.23-0.19c-0.06-0.08-0.1-0.17-0.14-0.27c-0.04-0.1-0.06-0.23-0.06-0.35c-0.02-0.14-0.02-0.27-0.02-0.44
		v-2.97h0.58v2.97c0,0.17,0,0.33,0.02,0.44c0.02,0.12,0.04,0.19,0.1,0.25c0.04,0.06,0.12,0.1,0.21,0.12
		c0.1,0.02,0.23,0.04,0.41,0.04h0.85c0.12,0,0.23,0,0.33-0.02s0.19-0.04,0.29-0.08c0.08-0.04,0.15-0.08,0.21-0.12
		c0.06-0.04,0.1-0.1,0.14-0.15c0.06-0.1,0.06-0.23,0.02-0.37c-0.04-0.14-0.12-0.31-0.25-0.48c-0.17-0.25-0.35-0.48-0.46-0.66
		c-0.14-0.17-0.23-0.33-0.31-0.44c-0.1-0.14-0.17-0.23-0.23-0.33l0.12-0.42l2.84-1.31l0.23,0.54l-2.53,1.16l1.22,1.7
		c0.14,0.17,0.23,0.31,0.33,0.44c0.1,0.12,0.19,0.23,0.31,0.31c0.1,0.08,0.21,0.14,0.33,0.17c0.12,0.04,0.27,0.06,0.42,0.06h0.04
		h0.35c0.14,0,0.27,0,0.42,0c0.14,0,0.27-0.02,0.39-0.02c-0.15-0.14-0.25-0.27-0.33-0.42c-0.06-0.15-0.1-0.33-0.1-0.54
		c0-0.15,0.02-0.31,0.08-0.42c0.06-0.14,0.14-0.25,0.23-0.35c0.1-0.1,0.23-0.17,0.37-0.23c0.14-0.06,0.29-0.08,0.46-0.08
		c0.12,0,0.23,0.02,0.35,0.06c0.1,0.04,0.19,0.08,0.29,0.14c0.08,0.06,0.15,0.14,0.21,0.21c0.06,0.08,0.12,0.15,0.15,0.23
		c0.04,0.08,0.08,0.17,0.1,0.25c0.02,0.08,0.04,0.17,0.04,0.23c0,0.21-0.04,0.41-0.12,0.58c-0.08,0.17-0.19,0.33-0.35,0.44
		c0.08,0.04,0.17,0.06,0.27,0.08c0.1,0.02,0.19,0.04,0.29,0.04c0.06,0,0.12,0,0.19-0.02c0.06,0,0.12-0.02,0.17-0.06
		c0.06-0.02,0.1-0.06,0.15-0.1c0.04-0.04,0.08-0.1,0.12-0.17c0.04-0.08,0.06-0.17,0.04-0.27s-0.06-0.21-0.14-0.33
		c-0.06-0.12-0.15-0.23-0.25-0.37c-0.1-0.12-0.21-0.25-0.33-0.39c-0.12-0.14-0.25-0.25-0.39-0.39c-0.14-0.14-0.25-0.25-0.39-0.39
		l0.42-0.41c0.23,0.23,0.44,0.46,0.62,0.66c0.08,0.1,0.17,0.17,0.25,0.27s0.15,0.17,0.23,0.25c0.08,0.08,0.14,0.15,0.19,0.23
		c0.06,0.06,0.1,0.12,0.12,0.15c0.06,0.1,0.1,0.17,0.14,0.27C65.75,54.57,65.77,54.67,65.79,54.75z M63.9,54.36
		c0-0.1-0.02-0.19-0.06-0.25c-0.04-0.08-0.1-0.14-0.15-0.17c-0.06-0.04-0.12-0.08-0.19-0.1c-0.06-0.02-0.12-0.04-0.17-0.04
		c-0.08,0-0.15,0.02-0.23,0.04c-0.08,0.02-0.14,0.06-0.19,0.1c-0.06,0.04-0.1,0.1-0.12,0.17c-0.04,0.06-0.04,0.14-0.04,0.21
		c0,0.1,0.02,0.17,0.04,0.23c0.02,0.08,0.06,0.14,0.12,0.19c0.06,0.06,0.12,0.12,0.19,0.17c0.08,0.06,0.17,0.12,0.29,0.17
		c0.08-0.04,0.15-0.08,0.21-0.12c0.06-0.06,0.12-0.1,0.17-0.17c0.04-0.06,0.08-0.14,0.12-0.21C63.9,54.53,63.9,54.46,63.9,54.36z
		 M67.1,51.51h-0.58v4.4h0.58V51.51z M68.33,55.75c0,0.23-0.02,0.42-0.08,0.58c-0.04,0.15-0.12,0.29-0.23,0.41
		c-0.1,0.1-0.23,0.17-0.39,0.23c-0.15,0.06-0.35,0.08-0.56,0.08h-0.42v0.58h0.42c0.29,0,0.56-0.04,0.79-0.14
		c0.23-0.08,0.42-0.21,0.58-0.37s0.27-0.35,0.35-0.58c0.08-0.23,0.12-0.5,0.12-0.79v-1.93h-0.58V55.75z M73.93,53.59l-0.54-0.54
		l-0.52,0.54l0.52,0.54L73.93,53.59z M77.38,57.1l0.48,0.5l0.5-0.5l-0.5-0.5L77.38,57.1z M76.21,57.1l0.48,0.5l0.5-0.5l-0.5-0.5
		L76.21,57.1z M83.58,57.02l0.54,0.54l0.52-0.54l-0.54-0.54L83.58,57.02z M84.87,54.77c0,0.19-0.04,0.37-0.1,0.5
		c-0.06,0.14-0.15,0.27-0.25,0.35c-0.1,0.1-0.21,0.15-0.35,0.21c-0.14,0.04-0.25,0.08-0.39,0.08h-0.69H83h-0.48
		c-0.14,0-0.25,0.04-0.35,0.1c-0.1,0.08-0.17,0.15-0.21,0.27c-0.06,0.14-0.06,0.29,0,0.42c0.06,0.15,0.14,0.29,0.29,0.41l-0.19,0.52
		c-0.19,0-0.39-0.02-0.58-0.08c-0.17-0.04-0.35-0.12-0.5-0.19c-0.15-0.08-0.31-0.17-0.42-0.29c-0.14-0.12-0.25-0.23-0.35-0.37
		c-0.1-0.14-0.17-0.27-0.25-0.41c-0.06-0.14-0.12-0.29-0.14-0.44c-0.14,0.02-0.25,0.02-0.39,0.02c-0.1,0-0.17,0-0.25,0l0,0h-0.5
		c-0.19,0-0.35-0.02-0.5-0.08c-0.14-0.06-0.25-0.14-0.35-0.23c-0.21,0.21-0.52,0.33-0.95,0.33h-0.93h-0.08h-0.04
		c-0.19,0-0.39-0.04-0.56-0.14v0.21c0,0.54-0.14,0.95-0.42,1.22c-0.29,0.27-0.71,0.41-1.29,0.41h-0.73c-0.33,0-0.62-0.08-0.87-0.21
		s-0.46-0.33-0.64-0.6c-0.12-0.17-0.19-0.37-0.23-0.58c-0.04-0.21-0.06-0.44-0.06-0.68c0.02-0.25,0.06-0.5,0.14-0.77
		c0.08-0.27,0.17-0.54,0.31-0.83L72,54.17c-0.12,0.23-0.21,0.46-0.27,0.69c-0.06,0.21-0.12,0.42-0.12,0.62
		c-0.02,0.19,0,0.37,0.02,0.54c0.04,0.17,0.1,0.31,0.17,0.44c0.12,0.17,0.25,0.29,0.42,0.39c0.17,0.1,0.37,0.14,0.58,0.14h0.73
		c0.23,0,0.42-0.02,0.58-0.08c0.15-0.06,0.27-0.12,0.35-0.21c0.08-0.1,0.14-0.19,0.17-0.33c0.04-0.14,0.04-0.27,0.04-0.42v-1.22
		v-0.02v-0.93h0.58v0.96c0,0.08,0.02,0.15,0.04,0.23c0.02,0.06,0.06,0.12,0.12,0.17c0.04,0.04,0.1,0.08,0.17,0.12
		c0.06,0.02,0.14,0.04,0.23,0.04h0.04h0.08h0.93c0.15,0,0.27-0.02,0.35-0.04c0.08-0.04,0.15-0.06,0.19-0.12
		c0.04-0.04,0.08-0.1,0.08-0.15c0.02-0.06,0.02-0.1,0.02-0.15V53.8h0.58v1.02c0,0.08,0.02,0.14,0.04,0.19
		c0.02,0.06,0.06,0.1,0.1,0.14c0.04,0.04,0.08,0.06,0.12,0.08c0.04,0.02,0.1,0.04,0.14,0.04c0.04,0.02,0.08,0.02,0.12,0.02
		c0.04,0,0.06,0,0.08,0h0.42c0.1,0,0.19,0,0.31,0s0.25-0.02,0.39-0.02c0.02-0.27,0.04-0.5,0.06-0.69c0.04-0.19,0.08-0.37,0.14-0.52
		c0.06-0.17,0.14-0.31,0.21-0.41s0.17-0.19,0.27-0.25c0.1-0.06,0.19-0.1,0.29-0.12c0.1-0.02,0.19-0.04,0.27-0.04
		c0.17,0,0.33,0.02,0.48,0.08c0.14,0.06,0.25,0.12,0.37,0.21c0.1,0.1,0.17,0.21,0.23,0.35s0.08,0.29,0.08,0.46
		c0,0.1-0.02,0.21-0.06,0.33c-0.04,0.12-0.1,0.23-0.19,0.35c-0.1,0.12-0.21,0.23-0.39,0.33c-0.15,0.1-0.37,0.19-0.62,0.27
		c-0.17,0.06-0.37,0.1-0.56,0.14c0.02,0.14,0.08,0.27,0.15,0.39s0.15,0.23,0.25,0.35c0.1,0.1,0.21,0.19,0.33,0.27
		c0.12,0.08,0.25,0.15,0.39,0.19c-0.06-0.06-0.1-0.12-0.12-0.19c-0.02-0.08-0.04-0.15-0.06-0.23c0-0.08,0-0.17,0-0.25
		c0.02-0.08,0.02-0.15,0.06-0.23c0.04-0.12,0.1-0.21,0.17-0.31s0.15-0.17,0.25-0.23c0.1-0.06,0.19-0.12,0.31-0.15
		s0.23-0.06,0.35-0.06h0.46h0.19h0.69c0.04,0,0.08,0,0.14-0.02c0.06,0,0.12-0.04,0.17-0.08s0.1-0.1,0.15-0.17
		c0.04-0.08,0.06-0.17,0.06-0.31c0-0.04,0-0.1-0.02-0.17c0-0.08-0.02-0.14-0.02-0.23c-0.02-0.08-0.02-0.15-0.04-0.25
		c-0.02-0.08-0.02-0.15-0.04-0.23c-0.02-0.08-0.02-0.14-0.04-0.19c-0.02-0.06-0.02-0.1-0.04-0.14l0.56-0.17
		c0,0.02,0.02,0.04,0.02,0.1c0.02,0.06,0.02,0.12,0.04,0.19c0.02,0.08,0.04,0.17,0.06,0.27s0.04,0.19,0.06,0.29s0.02,0.19,0.04,0.29
		C84.87,54.61,84.87,54.69,84.87,54.77z M80.39,55.21c0.08-0.02,0.14-0.02,0.19-0.04c0.06-0.02,0.14-0.04,0.19-0.06
		c0.21-0.06,0.37-0.14,0.46-0.19c0.12-0.08,0.19-0.14,0.25-0.21s0.08-0.14,0.1-0.19c0-0.06,0.02-0.1,0.02-0.14
		c0-0.19-0.04-0.33-0.14-0.41c-0.1-0.08-0.23-0.14-0.42-0.14c-0.08,0-0.15,0.02-0.21,0.04c-0.08,0.04-0.14,0.1-0.19,0.19
		c-0.06,0.1-0.12,0.23-0.15,0.41C80.43,54.69,80.41,54.92,80.39,55.21z"/>
	<polygon id="Fino_x5F_head_4_" class="st104" points="60.63,0.68 42.77,0.68 42.77,0.68 42.75,0.7 38.23,8.44 33.81,16.17 
		33.91,16.33 33.81,16.17 42.73,16.19 51.7,16.17 47.17,23.91 42.75,31.65 42.77,31.65 42.77,31.65 60.63,31.65 69.57,16.17 	"/>
	<path id="Fino_x5F_Tail_4_" class="st104" d="M42.77,31.65l-0.12-0.19l-4.38-7.56l-4.44-7.72l-4.5-7.76L24.9,0.7l-8.93,15.48
		l8.93,15.48L42.77,31.65L42.77,31.65z"/>
	<path class="st104" d="M36.11,38.42h-1.22v-1.27h1.22V38.42z M47.13,39.41l0.02,2.95c0,1.08-0.56,1.62-1.68,1.62h-1.74H43.5h-2.41
		h-0.23h-2.43h-0.23h-1.02c-0.37,0-0.69-0.15-0.96-0.48c-0.15-0.19-0.25-0.37-0.31-0.54c-0.23,0.66-0.75,1-1.54,1.02h-1.74h-0.23
		h-2.41h-0.25h-1.56c-0.42,1.66-1.47,2.57-3.13,2.72c-0.17-0.23-0.44-0.58-0.81-1.04c1.25,0,2.1-0.56,2.53-1.68h-0.87
		c-0.6,0-1.1-0.23-1.51-0.68c-0.39-0.44-0.58-0.96-0.58-1.56c0-0.69,0.23-1.25,0.68-1.7c0.44-0.42,1-0.66,1.66-0.66
		c1.43,0,2.16,0.66,2.16,1.99v1.41h1.43h0.25h2.41h0.23h1.23c0.23,0,0.44-0.06,0.66-0.19c0.27-0.15,0.39-0.39,0.39-0.68l-0.02-2.49
		h1.31c0,0.46,0.02,1.12,0.04,1.95c0,0.44,0.14,0.79,0.39,1.04c0.21,0.23,0.44,0.35,0.69,0.35h0.91h0.23h2.43h0.23h2.41h0.23h1.23
		c0.56,0,0.85-0.29,0.85-0.87v-0.68c0-0.23,0-0.41-0.02-0.56l-0.02-0.69c0-0.25,0-0.44-0.02-0.56L47.13,39.41z M26.96,42.76
		c0-0.42,0-0.83-0.02-1.2v-0.5c0-0.15-0.08-0.31-0.25-0.48c-0.17-0.19-0.37-0.29-0.56-0.29c-0.68,0-1.02,0.46-1.02,1.37
		c0,0.73,0.31,1.08,0.95,1.08h0.91V42.76z M43.48,45.89h1.22v-1.27h-1.22V45.89z M45.29,45.89h1.2v-1.27h-1.2V45.89z M60.15,35.35
		h-1.22v1.27h1.22V35.35z M61.7,39.23v3.65c0.02,0.73-0.37,1.1-1.12,1.1h-3.59h-0.23h-2.41h-0.23H51.7h-0.23h-1.31
		c-0.35,0-0.64-0.12-0.89-0.37c-0.29-0.27-0.42-0.64-0.42-1.12l-0.04-6.62h1.33l0.06,6.1c0,0.52,0.19,0.79,0.58,0.79h0.71h0.23h2.41
		h0.23h2.41h0.23h2.88c0.33,0,0.48-0.19,0.5-0.58v-0.35H59.3c-0.62,0-1.12-0.23-1.52-0.69c-0.37-0.44-0.56-0.95-0.52-1.54
		c0.02-0.81,0.31-1.43,0.85-1.87c0.44-0.37,0.95-0.52,1.49-0.48C60.96,37.36,61.68,38.04,61.7,39.23z M60.34,40.64
		c0-0.42,0-0.83-0.02-1.2v-0.5c0-0.12-0.06-0.25-0.19-0.42c-0.15-0.23-0.37-0.33-0.62-0.33c-0.62,0-0.96,0.44-1.02,1.33
		c0,0.31,0.08,0.56,0.27,0.79c0.19,0.21,0.42,0.33,0.69,0.33H60.34z"/>
</g>
</svg>
