<?xml version="1.0" encoding="utf-8"?>
<!-- Generator: Adobe Illustrator 24.1.1, SVG Export Plug-In . SVG Version: 6.00 Build 0)  -->
<svg version="1.1" id="Layer_1" xmlns="http://www.w3.org/2000/svg" xmlns:xlink="http://www.w3.org/1999/xlink" x="0px" y="0px"
	 viewBox="0 0 48.17 54.55" style="enable-background:new 0 0 48.17 54.55;" xml:space="preserve">
<style type="text/css">
	.st0{fill:url(#SVGID_3_);}
	.st1{fill:url(#SVGID_6_);}
	.st2{fill:#B3B2B3;}
	.st3{fill:#D39241;}
	.st4{fill:#315B51;}
	.st5{fill:#C8B34C;}
	.st6{fill:#2BB898;}
	.st7{fill:#385BA6;}
	.st8{fill:#515151;}
	.st9{fill:#F4E8AA;}
	.st10{fill:#FAC86E;}
	.st11{fill:#F4F4F4;}
	.st12{fill:#AD9944;}
	.st13{fill:#00A99D;}
	.st14{fill:#FFFFFF;}
	.st15{fill:url(#SVGID_7_);}
	.st16{fill:#C4AF4C;}
	.st17{fill-rule:evenodd;clip-rule:evenodd;fill:#C4AF4C;}
	.st18{filter:url(#Adobe_OpacityMaskFilter);}
	.st19{fill:url(#SVGID_9_);}
	.st20{mask:url(#SVGID_8_);fill-rule:evenodd;clip-rule:evenodd;fill:#C4AF4C;}
	.st21{filter:url(#Adobe_OpacityMaskFilter_1_);}
	.st22{fill:url(#SVGID_11_);}
	.st23{mask:url(#SVGID_10_);fill-rule:evenodd;clip-rule:evenodd;fill:#F0E4A6;}
	.st24{filter:url(#Adobe_OpacityMaskFilter_2_);}
	.st25{fill:url(#SVGID_13_);}
	.st26{mask:url(#SVGID_12_);fill-rule:evenodd;clip-rule:evenodd;fill:#F0E4A6;}
	.st27{filter:url(#Adobe_OpacityMaskFilter_3_);}
	.st28{fill:url(#SVGID_15_);}
	.st29{mask:url(#SVGID_14_);fill-rule:evenodd;clip-rule:evenodd;fill:#F0E4A6;}
	.st30{filter:url(#Adobe_OpacityMaskFilter_4_);}
	.st31{fill:url(#SVGID_17_);}
	.st32{mask:url(#SVGID_16_);fill-rule:evenodd;clip-rule:evenodd;fill:#F0E4A6;}
	.st33{opacity:0.5;fill-rule:evenodd;clip-rule:evenodd;fill:#C4AF4C;}
	.st34{filter:url(#Adobe_OpacityMaskFilter_5_);}
	.st35{fill:url(#SVGID_19_);}
	.st36{mask:url(#SVGID_18_);fill-rule:evenodd;clip-rule:evenodd;fill:#C4AF4C;}
	.st37{filter:url(#Adobe_OpacityMaskFilter_6_);}
	.st38{fill:url(#SVGID_21_);}
	.st39{mask:url(#SVGID_20_);fill-rule:evenodd;clip-rule:evenodd;fill:#C4AF4C;}
	.st40{filter:url(#Adobe_OpacityMaskFilter_7_);}
	.st41{fill:url(#SVGID_23_);}
	.st42{mask:url(#SVGID_22_);fill-rule:evenodd;clip-rule:evenodd;fill:#F0E4A6;}
	.st43{fill-rule:evenodd;clip-rule:evenodd;fill:#315B51;}
	.st44{filter:url(#Adobe_OpacityMaskFilter_8_);}
	.st45{fill:url(#SVGID_25_);}
	.st46{mask:url(#SVGID_24_);fill-rule:evenodd;clip-rule:evenodd;fill:#2BB494;}
	.st47{fill:#AFAEAF;}
	.st48{fill:none;stroke:#FFFFFF;stroke-width:0.25;stroke-miterlimit:10;}
	.st49{fill:#E0E0E0;}
	.st50{filter:url(#Adobe_OpacityMaskFilter_9_);}
	.st51{fill:url(#SVGID_27_);}
	.st52{mask:url(#SVGID_26_);fill-rule:evenodd;clip-rule:evenodd;fill:#C4AF4C;}
	.st53{filter:url(#Adobe_OpacityMaskFilter_10_);}
	.st54{fill:url(#SVGID_29_);}
	.st55{mask:url(#SVGID_28_);fill-rule:evenodd;clip-rule:evenodd;fill:#F0E4A6;}
	.st56{filter:url(#Adobe_OpacityMaskFilter_11_);}
	.st57{fill:url(#SVGID_31_);}
	.st58{mask:url(#SVGID_30_);fill-rule:evenodd;clip-rule:evenodd;fill:#F0E4A6;}
	.st59{filter:url(#Adobe_OpacityMaskFilter_12_);}
	.st60{fill:url(#SVGID_33_);}
	.st61{mask:url(#SVGID_32_);fill-rule:evenodd;clip-rule:evenodd;fill:#F0E4A6;}
	.st62{filter:url(#Adobe_OpacityMaskFilter_13_);}
	.st63{fill:url(#SVGID_35_);}
	.st64{mask:url(#SVGID_34_);fill-rule:evenodd;clip-rule:evenodd;fill:#F0E4A6;}
	.st65{filter:url(#Adobe_OpacityMaskFilter_14_);}
	.st66{fill:url(#SVGID_37_);}
	.st67{mask:url(#SVGID_36_);fill-rule:evenodd;clip-rule:evenodd;fill:#C4AF4C;}
	.st68{filter:url(#Adobe_OpacityMaskFilter_15_);}
	.st69{fill:url(#SVGID_39_);}
	.st70{mask:url(#SVGID_38_);fill-rule:evenodd;clip-rule:evenodd;fill:#C4AF4C;}
	.st71{fill:none;stroke:#2BB797;stroke-width:1.16;stroke-linecap:round;stroke-linejoin:round;stroke-miterlimit:10;}
	.st72{fill-rule:evenodd;clip-rule:evenodd;fill:none;stroke:#C6C6C6;stroke-width:0.5;stroke-miterlimit:10;}
	.st73{fill-rule:evenodd;clip-rule:evenodd;fill:none;stroke:#C6C6C6;stroke-width:0.75;stroke-miterlimit:10;}
	.st74{fill:#2BB797;}
	.st75{fill:#2BB797;stroke:#2BB797;stroke-width:0.7684;stroke-miterlimit:10;}
	.st76{clip-path:url(#SVGID_41_);fill:#BBBBBB;}
	.st77{clip-path:url(#SVGID_41_);fill:#959595;}
	.st78{clip-path:url(#SVGID_41_);}
	.st79{fill:#959595;}
	.st80{fill:#BBBBBB;}
	.st81{fill:none;stroke:#C6C6C6;stroke-width:0.5;stroke-miterlimit:10;}
	.st82{clip-path:url(#SVGID_43_);}
	.st83{fill-rule:evenodd;clip-rule:evenodd;fill:none;stroke:#C9C9C9;stroke-width:0.5;stroke-miterlimit:10;}
	.st84{fill:#B2B1B2;}
	.st85{fill:#4D4D4D;}
	.st86{fill:#A5CFE3;}
	.st87{fill:url(#);}
	.st88{fill:#9F9F9F;}
	.st89{clip-path:url(#SVGID_45_);fill:#E2E4E6;}
	.st90{clip-path:url(#SVGID_47_);fill:#E2E4E6;}
	.st91{clip-path:url(#SVGID_49_);fill:#E2E4E6;}
	.st92{fill:#CAE0ED;}
	.st93{fill:url(#SVGID_52_);}
	.st94{fill:url(#SVGID_55_);}
	.st95{fill:url(#SVGID_58_);}
	.st96{fill:url(#SVGID_61_);}
	.st97{fill:none;stroke:#B3B2B3;stroke-width:0.5;stroke-miterlimit:10;}
	.st98{fill:#6056DE;}
	.st99{fill:#F4F9F9;}
	.st100{fill:none;stroke:#808080;stroke-width:0.25;stroke-miterlimit:10;}
	.st101{fill:#FF9400;}
	.st102{fill:#4BD965;}
	.st103{fill:#007AFE;}
	.st104{fill:#7F7F7F;}
	.st105{fill:none;stroke:#515151;stroke-width:0.341;stroke-miterlimit:10;}
	.st106{fill:#FFFFFF;stroke:#515151;stroke-width:0.25;stroke-miterlimit:10;}
	.st107{fill:#353535;}
	.st108{fill:#6EB42D;}
	.st109{fill:#622BCC;}
	.st110{fill:#007DC5;}
	.st111{fill:#008ED4;}
	.st112{fill:#EBECEC;}
	.st113{fill:#008CC3;}
	.st114{fill:#E1E8EC;}
	.st115{fill:#DDE7EC;}
	.st116{fill:#FEFEFE;}
	.st117{fill:#F05931;}
	.st118{fill:#F37933;}
	.st119{fill:#EFE8E5;}
	.st120{fill:#EFE8E4;}
	.st121{fill:#C20E2E;}
	.st122{fill:#DC0330;}
	.st123{fill:#FFD745;}
	.st124{fill:#3473A5;}
	.st125{fill:#FFFFFF;stroke:#000000;stroke-width:0.9459;stroke-miterlimit:10;}
</style>
<g>
	<path class="st117" d="M24.12,0.29c7.62,0,15.24,0.01,22.85-0.02c0.88,0,1.09,0.23,1.01,1.09c-0.89,9.62-1.74,19.24-2.61,28.86
		c-0.52,5.8-1.07,11.6-1.54,17.41c-0.09,1.07-0.48,1.5-1.53,1.77c-5.78,1.52-11.53,3.14-17.29,4.75c-0.66,0.18-1.25,0.18-1.91,0
		c-5.86-1.64-11.73-3.26-17.6-4.85c-0.71-0.19-1.04-0.46-1.11-1.28c-0.83-9.73-1.71-19.46-2.58-29.19C1.3,13.03,0.8,7.23,0.24,1.43
		C0.15,0.5,0.33,0.26,1.27,0.27C8.89,0.3,16.5,0.29,24.12,0.29z"/>
	<path class="st118" d="M24.06,10.19c0-1.63,0.02-3.26-0.01-4.89c-0.01-0.66,0.13-0.98,0.89-0.98c5.95,0.03,11.9,0.02,17.86,0
		c0.78,0,0.92,0.34,0.84,1c-0.39,3.11-0.61,6.23-0.87,9.35c-0.29,3.55-0.7,7.09-1.04,10.63c-0.18,1.86-0.3,3.73-0.47,5.6
		c-0.27,2.97-0.6,5.94-0.82,8.92c-0.13,1.8-0.25,3.59-0.47,5.38c-0.06,0.49-0.19,0.75-0.73,0.89c-4.71,1.28-9.41,2.57-14.11,3.91
		c-0.91,0.26-1.13,0.02-1.1-0.87c0.06-1.66,0.01-3.33,0.01-5c0.11-0.25,0.32-0.38,0.55-0.49c3.39-1.07,6.84-1.92,10.26-2.88
		c0.86-0.24,1.21-0.62,1.3-1.55c0.46-5.15,0.88-10.31,1.38-15.45c0.17-0.98-0.47-1.07-1.18-1.07c-3.22,0-6.44,0-9.66,0
		c-3.08,0-6.15,0.01-9.23-0.01c-0.47,0-1.05,0.17-1.3-0.48c0.38-0.45,0.91-0.38,1.41-0.39c1.34-0.02,2.68-0.01,4.01-0.01
		c2.09,0,2.06,0,2.11-2.05c0.03-1.18-0.22-2.37,0.15-3.54c0.45-0.32,0.97-0.23,1.47-0.23c3.76-0.01,7.52,0,11.28-0.01
		c0.46,0,0.95,0.08,1.36-0.22c0.6-0.84,0.35-1.84,0.54-2.76c0.09-0.45,0.03-0.92,0.12-1.37c0.21-1.07-0.49-1.1-1.23-1.1
		c-3.97,0-7.94,0.01-11.91-0.01C25,10.51,24.46,10.63,24.06,10.19z"/>
	<path class="st112" d="M10.59,28.16c-0.41-4.84-0.83-9.69-1.24-14.53c-0.06-0.75-0.08-1.51-0.12-2.26
		c-0.27-0.82,0.02-1.07,0.87-1.07c4.32,0.03,8.63,0.03,12.95,0c0.83-0.01,1.1,0.33,1.1,1.08c0,1.23,0.03,2.46-0.01,3.69
		c-0.03,1.02-0.28,1.28-1.32,1.3c-1.78,0.04-3.55,0.01-5.33,0.02c-0.43,0-0.88-0.07-1.24,0.25c-0.34,0.84-0.1,1.7-0.02,2.54
		c0.09,0.89,0.18,1.78,0.05,2.68c-0.32,0.79,0.29,0.62,0.68,0.63c1.95,0.01,3.89,0,5.84,0.01c1.27,0,1.34,0.07,1.36,1.33
		c0.02,1.12,0.01,2.23,0,3.35c0,0.39,0.03,0.8-0.29,1.12c-3.94,0.15-7.89,0.03-11.84,0.05C11.56,28.34,11.03,28.56,10.59,28.16z"/>
	<path class="st112" d="M23.64,44.05c-3.51-1-7.01-2.04-10.53-2.96c-1.04-0.27-1.44-0.68-1.49-1.8c-0.1-2.34-0.37-4.68-0.61-7.02
		c-0.08-0.76,0.14-1.02,0.92-0.99c1.37,0.06,2.75,0.06,4.13,0c0.77-0.03,1.02,0.27,1.03,0.99c0.02,0.79,0.22,1.59,0.18,2.37
		c-0.06,1.11,0.37,1.58,1.45,1.81c1.73,0.37,3.42,0.92,5.13,1.39c0.33,0.31,0.31,0.72,0.31,1.11c0.01,1.3,0.01,2.6,0,3.89
		C24.14,43.31,24.18,43.81,23.64,44.05z"/>
	<path class="st118" d="M10.59,28.16c0.45,0.2,0.93,0.12,1.4,0.12c3.95-0.01,7.91-0.02,11.86-0.04c0.1-0.08,0.21-0.15,0.32-0.22
		c0.12-0.04,0.25-0.08,0.38-0.1c1.88-0.07,3.76-0.05,5.63-0.02c1.3,0.02,1.59,0.39,1.49,1.66c-0.15,1.87-0.31,3.73-0.52,5.6
		c-0.06,0.57-0.2,1.12-0.8,1.29c-1.97,0.57-3.91,1.27-5.97,1.52c-0.13-0.03-0.24-0.1-0.33-0.21c0-2.71-0.04-5.43,0.03-8.14
		c0.03-0.99-0.31-1.2-1.24-1.19c-3.7,0.05-7.39,0.03-11.09,0.01C11.37,28.45,10.87,28.67,10.59,28.16z"/>
	<path class="st119" d="M15.6,16.35c0.27-0.45,0.71-0.27,1.08-0.27c2.06-0.02,4.13-0.04,6.19,0.01c0.77,0.02,1.01-0.25,0.98-1
		c-0.05-1.26-0.04-2.53,0-3.8c0.02-0.66-0.22-0.88-0.88-0.88c-4.27,0.02-8.55,0.03-12.82-0.01c-0.75-0.01-0.96,0.31-0.92,0.96
		c-0.45-0.94-0.06-1.15,0.87-1.15c4.65,0.02,9.31-0.01,13.96-0.03c4.58,0.01,9.16,0.02,13.74,0.03c1.47,0,1.48,0.02,1.1,1.55
		c-0.44-0.85-1.17-1.01-2.07-1c-3.66,0.04-7.32,0.01-10.98,0.02c-1.34,0-1.39,0.06-1.41,1.41c-0.01,0.69-0.01,1.37,0,2.06
		c0.02,1.33,0.11,1.43,1.42,1.44c3.62,0.01,7.25,0,10.87,0.01c0.6,0,1.25-0.13,1.75,0.38c-0.33,0.33-0.76,0.17-1.14,0.18
		c-4.49,0.02-8.99,0.03-13.48,0.04c-0.27,0.29-0.63,0.33-0.99,0.34c-2.08,0.04-4.17,0.03-6.25,0.01
		C16.25,16.64,15.89,16.6,15.6,16.35z"/>
	<path class="st120" d="M24.06,37.77c0.07,0.02,0.15,0.04,0.22,0.07c0.28,0.98,0.09,1.98,0.12,2.97c0.03,1.03,0,2.07,0.12,3.09
		c-0.15,0.07-0.3,0.15-0.46,0.22c-0.14-0.03-0.28-0.05-0.43-0.08c0.43-1,0.15-2.06,0.2-3.08c0.05-1.04,0.01-2.08,0.01-3.12
		C23.92,37.82,23.99,37.8,24.06,37.77z"/>
	<path class="st116" d="M24.52,43.9c-0.18-0.05-0.41-0.11-0.41-0.3c0.03-1.92-0.28-3.86,0.17-5.77c1.88-0.52,3.76-1.06,5.65-1.54
		c0.62-0.16,0.87-0.43,0.91-1.09c0.13-1.98,0.3-3.96,0.54-5.93c0.1-0.82-0.18-0.99-0.92-0.98c-2.06,0.02-4.13-0.02-6.19-0.03
		c-0.4-0.7-0.21-1.47-0.19-2.21c0.03-1.16-0.23-2.35,0.17-3.49c2.41-0.17,4.83-0.04,7.24-0.07c1.7-0.02,3.39,0,5.09,0
		c1.4,0,1.4,0,1.22,1.45c-0.33,3.95-0.66,7.91-1,11.86c-0.12,1.37-0.25,2.73-0.35,4.1c-0.04,0.45-0.08,0.81-0.64,0.96
		C32.04,41.85,28.28,42.88,24.52,43.9z"/>
	<path class="st116" d="M38.47,16.09c-4.42-0.01-8.85-0.04-13.27,0c-0.91,0.01-1.2-0.27-1.15-1.16c0.07-1.23,0.04-2.46,0.01-3.69
		c-0.02-0.62,0.23-0.82,0.83-0.81c4.39,0.02,8.77,0.03,13.16-0.01c1.17-0.01,0.69,0.83,0.85,1.36
		C38.86,13.22,38.77,14.66,38.47,16.09z"/>
	<path class="st117" d="M15.6,16.35c2.75-0.16,5.5-0.09,8.26-0.04c0.45,1.77,0.13,3.57,0.19,5.35c0.02,0.6-0.51,0.49-0.88,0.49
		c-2.31,0.01-4.61,0.01-6.92,0.01c-0.17-0.12-0.11-0.34-0.21-0.5C16.03,19.88,15.77,18.12,15.6,16.35z"/>
	<path class="st119" d="M16.03,21.67c0.07,0.17,0.14,0.33,0.21,0.5c0.31,0.38,0.74,0.19,1.11,0.19c6.43,0.01,12.86-0.01,19.29-0.01
		c1.54,0,1.56,0.03,1.16,1.6c0.13-1.05-0.26-1.4-1.38-1.38c-4.05,0.08-8.1,0.03-12.15,0.04c-0.23,1.42-0.04,2.86-0.11,4.28
		c-0.02,0.46,0.11,0.93-0.1,1.38c-0.07,0-0.14-0.01-0.22-0.01c0-1.52-0.04-3.03,0.02-4.55c0.03-0.83-0.19-1.15-1.08-1.12
		c-1.95,0.06-3.91,0-5.86,0.03C16.2,22.62,15.89,22.39,16.03,21.67z"/>
	<path class="st112" d="M24.06,28.26c0-1.55-0.01-3.1,0-4.64c0-0.35-0.11-0.73,0.21-1.02c0,1.89,0,3.78,0,5.67
		C24.2,28.26,24.13,28.26,24.06,28.26z"/>
</g>
</svg>
