<?xml version="1.0" encoding="utf-8"?>
<!-- Generator: Adobe Illustrator 24.1.1, SVG Export Plug-In . SVG Version: 6.00 Build 0)  -->
<svg version="1.1" id="Layer_1" xmlns="http://www.w3.org/2000/svg" xmlns:xlink="http://www.w3.org/1999/xlink" x="0px" y="0px"
	 viewBox="0 0 48.19 55.68" style="enable-background:new 0 0 48.19 55.68;" xml:space="preserve">
<style type="text/css">
	.st0{fill:url(#SVGID_3_);}
	.st1{fill:url(#SVGID_6_);}
	.st2{fill:#B3B2B3;}
	.st3{fill:#D39241;}
	.st4{fill:#315B51;}
	.st5{fill:#C8B34C;}
	.st6{fill:#2BB898;}
	.st7{fill:#385BA6;}
	.st8{fill:#515151;}
	.st9{fill:#F4E8AA;}
	.st10{fill:#FAC86E;}
	.st11{fill:#F4F4F4;}
	.st12{fill:#AD9944;}
	.st13{fill:#00A99D;}
	.st14{fill:#FFFFFF;}
	.st15{fill:url(#SVGID_7_);}
	.st16{fill:#C4AF4C;}
	.st17{fill-rule:evenodd;clip-rule:evenodd;fill:#C4AF4C;}
	.st18{filter:url(#Adobe_OpacityMaskFilter);}
	.st19{fill:url(#SVGID_9_);}
	.st20{mask:url(#SVGID_8_);fill-rule:evenodd;clip-rule:evenodd;fill:#C4AF4C;}
	.st21{filter:url(#Adobe_OpacityMaskFilter_1_);}
	.st22{fill:url(#SVGID_11_);}
	.st23{mask:url(#SVGID_10_);fill-rule:evenodd;clip-rule:evenodd;fill:#F0E4A6;}
	.st24{filter:url(#Adobe_OpacityMaskFilter_2_);}
	.st25{fill:url(#SVGID_13_);}
	.st26{mask:url(#SVGID_12_);fill-rule:evenodd;clip-rule:evenodd;fill:#F0E4A6;}
	.st27{filter:url(#Adobe_OpacityMaskFilter_3_);}
	.st28{fill:url(#SVGID_15_);}
	.st29{mask:url(#SVGID_14_);fill-rule:evenodd;clip-rule:evenodd;fill:#F0E4A6;}
	.st30{filter:url(#Adobe_OpacityMaskFilter_4_);}
	.st31{fill:url(#SVGID_17_);}
	.st32{mask:url(#SVGID_16_);fill-rule:evenodd;clip-rule:evenodd;fill:#F0E4A6;}
	.st33{opacity:0.5;fill-rule:evenodd;clip-rule:evenodd;fill:#C4AF4C;}
	.st34{filter:url(#Adobe_OpacityMaskFilter_5_);}
	.st35{fill:url(#SVGID_19_);}
	.st36{mask:url(#SVGID_18_);fill-rule:evenodd;clip-rule:evenodd;fill:#C4AF4C;}
	.st37{filter:url(#Adobe_OpacityMaskFilter_6_);}
	.st38{fill:url(#SVGID_21_);}
	.st39{mask:url(#SVGID_20_);fill-rule:evenodd;clip-rule:evenodd;fill:#C4AF4C;}
	.st40{filter:url(#Adobe_OpacityMaskFilter_7_);}
	.st41{fill:url(#SVGID_23_);}
	.st42{mask:url(#SVGID_22_);fill-rule:evenodd;clip-rule:evenodd;fill:#F0E4A6;}
	.st43{fill-rule:evenodd;clip-rule:evenodd;fill:#315B51;}
	.st44{filter:url(#Adobe_OpacityMaskFilter_8_);}
	.st45{fill:url(#SVGID_25_);}
	.st46{mask:url(#SVGID_24_);fill-rule:evenodd;clip-rule:evenodd;fill:#2BB494;}
	.st47{fill:#AFAEAF;}
	.st48{fill:none;stroke:#FFFFFF;stroke-width:0.25;stroke-miterlimit:10;}
	.st49{fill:#E0E0E0;}
	.st50{filter:url(#Adobe_OpacityMaskFilter_9_);}
	.st51{fill:url(#SVGID_27_);}
	.st52{mask:url(#SVGID_26_);fill-rule:evenodd;clip-rule:evenodd;fill:#C4AF4C;}
	.st53{filter:url(#Adobe_OpacityMaskFilter_10_);}
	.st54{fill:url(#SVGID_29_);}
	.st55{mask:url(#SVGID_28_);fill-rule:evenodd;clip-rule:evenodd;fill:#F0E4A6;}
	.st56{filter:url(#Adobe_OpacityMaskFilter_11_);}
	.st57{fill:url(#SVGID_31_);}
	.st58{mask:url(#SVGID_30_);fill-rule:evenodd;clip-rule:evenodd;fill:#F0E4A6;}
	.st59{filter:url(#Adobe_OpacityMaskFilter_12_);}
	.st60{fill:url(#SVGID_33_);}
	.st61{mask:url(#SVGID_32_);fill-rule:evenodd;clip-rule:evenodd;fill:#F0E4A6;}
	.st62{filter:url(#Adobe_OpacityMaskFilter_13_);}
	.st63{fill:url(#SVGID_35_);}
	.st64{mask:url(#SVGID_34_);fill-rule:evenodd;clip-rule:evenodd;fill:#F0E4A6;}
	.st65{filter:url(#Adobe_OpacityMaskFilter_14_);}
	.st66{fill:url(#SVGID_37_);}
	.st67{mask:url(#SVGID_36_);fill-rule:evenodd;clip-rule:evenodd;fill:#C4AF4C;}
	.st68{filter:url(#Adobe_OpacityMaskFilter_15_);}
	.st69{fill:url(#SVGID_39_);}
	.st70{mask:url(#SVGID_38_);fill-rule:evenodd;clip-rule:evenodd;fill:#C4AF4C;}
	.st71{fill:none;stroke:#2BB797;stroke-width:1.16;stroke-linecap:round;stroke-linejoin:round;stroke-miterlimit:10;}
	.st72{fill-rule:evenodd;clip-rule:evenodd;fill:none;stroke:#C6C6C6;stroke-width:0.5;stroke-miterlimit:10;}
	.st73{fill-rule:evenodd;clip-rule:evenodd;fill:none;stroke:#C6C6C6;stroke-width:0.75;stroke-miterlimit:10;}
	.st74{fill:#2BB797;}
	.st75{fill:#2BB797;stroke:#2BB797;stroke-width:0.7684;stroke-miterlimit:10;}
	.st76{clip-path:url(#SVGID_41_);fill:#BBBBBB;}
	.st77{clip-path:url(#SVGID_41_);fill:#959595;}
	.st78{clip-path:url(#SVGID_41_);}
	.st79{fill:#959595;}
	.st80{fill:#BBBBBB;}
	.st81{fill:none;stroke:#C6C6C6;stroke-width:0.5;stroke-miterlimit:10;}
	.st82{clip-path:url(#SVGID_43_);}
	.st83{fill-rule:evenodd;clip-rule:evenodd;fill:none;stroke:#C9C9C9;stroke-width:0.5;stroke-miterlimit:10;}
	.st84{fill:#B2B1B2;}
	.st85{fill:#4D4D4D;}
	.st86{fill:#A5CFE3;}
	.st87{fill:url(#);}
	.st88{fill:#9F9F9F;}
	.st89{clip-path:url(#SVGID_45_);fill:#E2E4E6;}
	.st90{clip-path:url(#SVGID_47_);fill:#E2E4E6;}
	.st91{clip-path:url(#SVGID_49_);fill:#E2E4E6;}
	.st92{fill:#CAE0ED;}
	.st93{fill:url(#SVGID_52_);}
	.st94{fill:url(#SVGID_55_);}
	.st95{fill:url(#SVGID_58_);}
	.st96{fill:url(#SVGID_61_);}
	.st97{fill:none;stroke:#B3B2B3;stroke-width:0.5;stroke-miterlimit:10;}
	.st98{fill:#6056DE;}
	.st99{fill:#F4F9F9;}
	.st100{fill:none;stroke:#808080;stroke-width:0.25;stroke-miterlimit:10;}
	.st101{fill:#FF9400;}
	.st102{fill:#4BD965;}
	.st103{fill:#007AFE;}
	.st104{fill:#7F7F7F;}
	.st105{fill:none;stroke:#515151;stroke-width:0.341;stroke-miterlimit:10;}
	.st106{fill:#FFFFFF;stroke:#515151;stroke-width:0.25;stroke-miterlimit:10;}
	.st107{fill:#353535;}
	.st108{fill:#6EB42D;}
	.st109{fill:#622BCC;}
	.st110{fill:#007DC5;}
	.st111{fill:#008ED4;}
	.st112{fill:#EBECEC;}
	.st113{fill:#008CC3;}
	.st114{fill:#E1E8EC;}
	.st115{fill:#DDE7EC;}
	.st116{fill:#FEFEFE;}
	.st117{fill:#F05931;}
	.st118{fill:#F37933;}
	.st119{fill:#EFE8E5;}
	.st120{fill:#EFE8E4;}
	.st121{fill:#C20E2E;}
	.st122{fill:#DC0330;}
	.st123{fill:#FFD745;}
	.st124{fill:#3473A5;}
	.st125{fill:#FFFFFF;stroke:#000000;stroke-width:0.9459;stroke-miterlimit:10;}
</style>
<g>
	<path class="st104" d="M47.8,14.43c0-0.11,0-0.21,0-0.32c0-0.17-0.06-0.27-0.23-0.37c-1.07-0.61-2.12-1.26-3.18-1.87
		c-3.77-2.17-7.55-4.32-11.31-6.49C30.14,3.7,27.21,2,24.29,0.3c-0.19-0.11-0.27-0.1-0.45,0.01c-1.51,0.89-3.03,1.75-4.54,2.63
		c-0.29,0.18-0.58,0.35-0.87,0.52c-1.74,1-3.48,2.01-5.22,3c-1.88,1.07-3.77,2.13-5.65,3.21c-2.24,1.3-4.46,2.63-6.72,3.91
		c-0.39,0.22-0.53,0.4-0.53,0.85c0.02,8.79,0.01,17.57,0,26.36c0,0.39,0.13,0.59,0.46,0.79c2.71,1.54,5.42,3.09,8.11,4.67
		c1.54,0.91,3.09,1.82,4.65,2.71c1.44,0.82,2.86,1.69,4.32,2.48c1.43,0.78,2.84,1.6,4.23,2.45c0.61,0.37,1.3,0.63,1.81,1.15
		c0.11,0,0.21,0,0.32,0c0.69-0.61,1.53-0.96,2.31-1.42c3.84-2.25,7.7-4.48,11.55-6.7c3.08-1.78,6.16-3.55,9.26-5.3
		c0.38-0.21,0.46-0.45,0.46-0.84C47.79,31.98,47.8,23.2,47.8,14.43z M42.99,38.05c0,0.34-0.1,0.54-0.4,0.72
		c-2.16,1.24-4.3,2.5-6.46,3.75c-2.73,1.58-5.46,3.15-8.19,4.72c-1.19,0.68-2.39,1.34-3.56,2.05c-0.3,0.18-0.47,0.11-0.71-0.03
		c-2.1-1.23-4.2-2.45-6.31-3.67c-1.54-0.89-3.07-1.79-4.61-2.67c-1.77-1.01-3.51-2.07-5.3-3.05c-0.68-0.37-1.33-0.8-2.01-1.18
		c-0.26-0.15-0.3-0.39-0.3-0.67c0.01-3.48,0.01-6.97,0.01-10.45c0-3.45,0.01-6.89-0.01-10.34c0-0.44,0.16-0.65,0.52-0.85
		c2.45-1.4,4.9-2.81,7.34-4.23c3.55-2.05,7.11-4.1,10.66-6.17c0.32-0.19,0.56-0.16,0.88,0.02c3.54,2.05,7.08,4.09,10.62,6.13
		c2.47,1.42,4.93,2.85,7.41,4.27c0.32,0.18,0.43,0.38,0.43,0.75C42.98,24.12,42.98,31.08,42.99,38.05z"/>
	<path class="st104" d="M10.32,26.57c0,1.26,0.01,2.37-0.01,3.47c0,0.22,0.12,0.55-0.15,0.62c-0.41,0.11-0.85,0.11-1.26-0.02
		c-0.13-0.04-0.11-0.25-0.11-0.39c0-1.78,0-3.57,0-5.35c0-0.33,0.1-0.52,0.46-0.47c0.07,0.01,0.14,0,0.21,0c1.63,0,1.62,0,2.4,1.45
		c0.47,0.87,0.99,1.71,1.5,2.59c0.21-0.21,0.14-0.4,0.15-0.56c0.01-0.98,0.01-1.96,0-2.94c-0.01-0.35,0.09-0.52,0.48-0.52
		c1.29,0.02,1.1-0.1,1.11,1.07c0.01,1.55-0.01,3.1,0.01,4.66c0.01,0.45-0.15,0.61-0.58,0.56c-0.3-0.03-0.61-0.04-0.91,0
		c-0.6,0.1-0.93-0.17-1.2-0.68c-0.55-1.04-1.15-2.06-1.74-3.08C10.62,26.86,10.51,26.78,10.32,26.57z"/>
	<path class="st104" d="M36.59,24.46c0.82-0.31,0.98,0.51,1.34,1.02c0.19,0.27,0.34,0.58,0.51,0.86c0.17,0.29,0.31,0.39,0.49-0.02
		c0.21-0.46,0.47-0.9,0.72-1.34c0.24-0.44,0.62-0.6,1.11-0.53c0.18,0.02,0.36,0.01,0.54,0c0.31,0,0.51,0.02,0.26,0.42
		c-0.46,0.73-0.86,1.5-1.31,2.24c-0.22,0.35-0.19,0.64,0.02,0.97c0.44,0.72,0.84,1.47,1.29,2.19c0.27,0.42,0.08,0.45-0.29,0.49
		c-0.94,0.11-1.63-0.12-1.89-1.13c-0.06-0.25-0.26-0.46-0.4-0.69c-0.24-0.4-0.36-0.39-0.6,0.02c-0.24,0.41-0.53,0.8-0.72,1.24
		c-0.19,0.47-0.51,0.56-0.96,0.56c-1.17-0.01-1.18,0-0.6-1.02c0.31-0.55,0.62-1.11,0.96-1.65c0.21-0.33,0.21-0.6,0.01-0.93
		c-0.43-0.7-0.82-1.42-1.23-2.14c-0.32-0.56-0.31-0.57,0.35-0.57C36.29,24.46,36.38,24.46,36.59,24.46z"/>
	<path class="st104" d="M25.87,24.44c0.75,0,1.5,0.01,2.25,0c0.39-0.01,0.53,0.14,0.53,0.54c-0.02,1.02,0,1.02-1.02,1.02
		c-0.94,0-0.94,0-0.94,0.96c0,1.09-0.01,2.18,0.01,3.27c0.01,0.38-0.13,0.49-0.49,0.49c-1.21,0.01-1.21,0.03-1.21-1.16
		c0-1.04-0.01-2.07,0.01-3.11c0.01-0.33-0.12-0.45-0.43-0.45c-0.36,0-0.71-0.01-1.07,0c-0.27,0-0.36-0.12-0.38-0.39
		c-0.07-1.17-0.08-1.16,1.09-1.16C24.76,24.44,25.32,24.44,25.87,24.44z"/>
	<path class="st104" d="M7.94,27.62c0,0.91-0.01,1.82,0.01,2.73c0,0.27-0.08,0.4-0.36,0.38c-0.04,0-0.07,0-0.11,0
		c-1.07,0-1.07,0-1.07-1.08c0-1.57,0.01-3.14-0.01-4.72c0-0.39,0.1-0.52,0.51-0.52c1.03,0.01,1.03-0.01,1.03,1
		C7.94,26.16,7.94,26.89,7.94,27.62z"/>
	<path class="st104" d="M31.58,30.8c-0.55,0-1.1-0.01-1.66,0c-0.35,0.01-0.52-0.1-0.51-0.49c0.03-1.39-0.13-1.12,1.07-1.11
		c1.23,0.01,2.46,0.04,3.68,0.04c0.39,0,0.5,0.1,0.24,0.44c-0.08,0.11-0.13,0.25-0.19,0.38c-0.27,0.54-0.67,0.82-1.31,0.74
		C32.48,30.76,32.03,30.8,31.58,30.8z"/>
	<path class="st104" d="M34.61,24.44c-0.22,0.45-0.37,0.79-0.56,1.11c-0.18,0.3-0.44,0.5-0.82,0.5c-1.12,0-2.24-0.01-3.36,0.01
		c-0.32,0-0.45-0.1-0.45-0.43c0.02-1.47-0.15-1.17,1.12-1.19c1.14-0.02,2.28,0,3.42,0C34.15,24.44,34.34,24.44,34.61,24.44z"/>
	<path class="st104" d="M32.11,26.82c0.73,0,1.46,0,2.19,0c0.23,0,0.41,0.01,0.18,0.32c-0.18,0.24-0.29,0.52-0.43,0.79
		c-0.14,0.27-0.33,0.43-0.66,0.43c-1.19-0.01-2.39-0.01-3.58,0c-0.26,0-0.37-0.07-0.39-0.36c-0.07-1.17-0.08-1.17,1.08-1.17
		C31.04,26.82,31.57,26.82,32.11,26.82C32.11,26.82,32.11,26.82,32.11,26.82z"/>
	<path class="st104" d="M22.22,27.6c0-0.5,0-1,0-1.5c0-0.21-0.05-0.34-0.25-0.47c-0.79-0.52-1.64-0.96-2.44-1.45
		c-0.31-0.19-0.57-0.19-0.88,0c-0.78,0.47-1.58,0.92-2.39,1.36c-0.25,0.14-0.35,0.35-0.35,0.6c-0.01,0.94,0,1.89,0,2.83
		c0,0.24,0.07,0.46,0.3,0.59c0.84,0.48,1.68,0.96,2.52,1.44c0.25,0.15,0.49,0.14,0.75-0.01c0.56-0.33,1.13-0.65,1.7-0.97
		c1.05-0.61,1.05-0.62,1.05-1.84C22.22,27.99,22.22,27.8,22.22,27.6z M20.49,28.6c-0.41,0.34-0.9,0.75-1.43,0.74
		c-0.51-0.01-0.96-0.43-1.38-0.74c-0.32-0.23-0.3-1.77,0.02-2.03c0.43-0.34,0.91-0.66,1.44-0.77c0.56-0.11,1.61,0.91,1.58,1.47
		C20.68,27.72,20.89,28.26,20.49,28.6z"/>
</g>
</svg>
