<?xml version="1.0" encoding="utf-8"?>
<!-- Generator: Adobe Illustrator 24.1.1, SVG Export Plug-In . SVG Version: 6.00 Build 0)  -->
<svg version="1.1" id="Layer_1" xmlns="http://www.w3.org/2000/svg" xmlns:xlink="http://www.w3.org/1999/xlink" x="0px" y="0px"
	 viewBox="0 0 66.38 44.4" style="enable-background:new 0 0 66.38 44.4;" xml:space="preserve">
<style type="text/css">
	.st0{fill:url(#SVGID_3_);}
	.st1{fill:url(#SVGID_6_);}
	.st2{fill:#B3B2B3;}
	.st3{fill:#D39241;}
	.st4{fill:#315B51;}
	.st5{fill:#C8B34C;}
	.st6{fill:#2BB898;}
	.st7{fill:#385BA6;}
	.st8{fill:#515151;}
	.st9{fill:#F4E8AA;}
	.st10{fill:#FAC86E;}
	.st11{fill:#F4F4F4;}
	.st12{fill:#AD9944;}
	.st13{fill:#00A99D;}
	.st14{fill:#FFFFFF;}
	.st15{fill:url(#SVGID_7_);}
	.st16{fill:#C4AF4C;}
	.st17{fill-rule:evenodd;clip-rule:evenodd;fill:#C4AF4C;}
	.st18{filter:url(#Adobe_OpacityMaskFilter);}
	.st19{fill:url(#SVGID_9_);}
	.st20{mask:url(#SVGID_8_);fill-rule:evenodd;clip-rule:evenodd;fill:#C4AF4C;}
	.st21{filter:url(#Adobe_OpacityMaskFilter_1_);}
	.st22{fill:url(#SVGID_11_);}
	.st23{mask:url(#SVGID_10_);fill-rule:evenodd;clip-rule:evenodd;fill:#F0E4A6;}
	.st24{filter:url(#Adobe_OpacityMaskFilter_2_);}
	.st25{fill:url(#SVGID_13_);}
	.st26{mask:url(#SVGID_12_);fill-rule:evenodd;clip-rule:evenodd;fill:#F0E4A6;}
	.st27{filter:url(#Adobe_OpacityMaskFilter_3_);}
	.st28{fill:url(#SVGID_15_);}
	.st29{mask:url(#SVGID_14_);fill-rule:evenodd;clip-rule:evenodd;fill:#F0E4A6;}
	.st30{filter:url(#Adobe_OpacityMaskFilter_4_);}
	.st31{fill:url(#SVGID_17_);}
	.st32{mask:url(#SVGID_16_);fill-rule:evenodd;clip-rule:evenodd;fill:#F0E4A6;}
	.st33{opacity:0.5;fill-rule:evenodd;clip-rule:evenodd;fill:#C4AF4C;}
	.st34{filter:url(#Adobe_OpacityMaskFilter_5_);}
	.st35{fill:url(#SVGID_19_);}
	.st36{mask:url(#SVGID_18_);fill-rule:evenodd;clip-rule:evenodd;fill:#C4AF4C;}
	.st37{filter:url(#Adobe_OpacityMaskFilter_6_);}
	.st38{fill:url(#SVGID_21_);}
	.st39{mask:url(#SVGID_20_);fill-rule:evenodd;clip-rule:evenodd;fill:#C4AF4C;}
	.st40{filter:url(#Adobe_OpacityMaskFilter_7_);}
	.st41{fill:url(#SVGID_23_);}
	.st42{mask:url(#SVGID_22_);fill-rule:evenodd;clip-rule:evenodd;fill:#F0E4A6;}
	.st43{fill-rule:evenodd;clip-rule:evenodd;fill:#315B51;}
	.st44{filter:url(#Adobe_OpacityMaskFilter_8_);}
	.st45{fill:url(#SVGID_25_);}
	.st46{mask:url(#SVGID_24_);fill-rule:evenodd;clip-rule:evenodd;fill:#2BB494;}
	.st47{fill:#AFAEAF;}
	.st48{fill:none;stroke:#FFFFFF;stroke-width:0.25;stroke-miterlimit:10;}
	.st49{fill:#E0E0E0;}
	.st50{filter:url(#Adobe_OpacityMaskFilter_9_);}
	.st51{fill:url(#SVGID_27_);}
	.st52{mask:url(#SVGID_26_);fill-rule:evenodd;clip-rule:evenodd;fill:#C4AF4C;}
	.st53{filter:url(#Adobe_OpacityMaskFilter_10_);}
	.st54{fill:url(#SVGID_29_);}
	.st55{mask:url(#SVGID_28_);fill-rule:evenodd;clip-rule:evenodd;fill:#F0E4A6;}
	.st56{filter:url(#Adobe_OpacityMaskFilter_11_);}
	.st57{fill:url(#SVGID_31_);}
	.st58{mask:url(#SVGID_30_);fill-rule:evenodd;clip-rule:evenodd;fill:#F0E4A6;}
	.st59{filter:url(#Adobe_OpacityMaskFilter_12_);}
	.st60{fill:url(#SVGID_33_);}
	.st61{mask:url(#SVGID_32_);fill-rule:evenodd;clip-rule:evenodd;fill:#F0E4A6;}
	.st62{filter:url(#Adobe_OpacityMaskFilter_13_);}
	.st63{fill:url(#SVGID_35_);}
	.st64{mask:url(#SVGID_34_);fill-rule:evenodd;clip-rule:evenodd;fill:#F0E4A6;}
	.st65{filter:url(#Adobe_OpacityMaskFilter_14_);}
	.st66{fill:url(#SVGID_37_);}
	.st67{mask:url(#SVGID_36_);fill-rule:evenodd;clip-rule:evenodd;fill:#C4AF4C;}
	.st68{filter:url(#Adobe_OpacityMaskFilter_15_);}
	.st69{fill:url(#SVGID_39_);}
	.st70{mask:url(#SVGID_38_);fill-rule:evenodd;clip-rule:evenodd;fill:#C4AF4C;}
	.st71{fill:none;stroke:#2BB797;stroke-width:1.16;stroke-linecap:round;stroke-linejoin:round;stroke-miterlimit:10;}
	.st72{fill-rule:evenodd;clip-rule:evenodd;fill:none;stroke:#C6C6C6;stroke-width:0.5;stroke-miterlimit:10;}
	.st73{fill-rule:evenodd;clip-rule:evenodd;fill:none;stroke:#C6C6C6;stroke-width:0.75;stroke-miterlimit:10;}
	.st74{fill:#2BB797;}
	.st75{fill:#2BB797;stroke:#2BB797;stroke-width:0.7684;stroke-miterlimit:10;}
	.st76{clip-path:url(#SVGID_41_);fill:#BBBBBB;}
	.st77{clip-path:url(#SVGID_41_);fill:#959595;}
	.st78{clip-path:url(#SVGID_41_);}
	.st79{fill:#959595;}
	.st80{fill:#BBBBBB;}
	.st81{fill:none;stroke:#C6C6C6;stroke-width:0.5;stroke-miterlimit:10;}
	.st82{clip-path:url(#SVGID_43_);}
	.st83{fill-rule:evenodd;clip-rule:evenodd;fill:none;stroke:#C9C9C9;stroke-width:0.5;stroke-miterlimit:10;}
	.st84{fill:#B2B1B2;}
	.st85{fill:#4D4D4D;}
	.st86{fill:#A5CFE3;}
	.st87{fill:url(#);}
	.st88{fill:#9F9F9F;}
	.st89{clip-path:url(#SVGID_45_);fill:#E2E4E6;}
	.st90{clip-path:url(#SVGID_47_);fill:#E2E4E6;}
	.st91{clip-path:url(#SVGID_49_);fill:#E2E4E6;}
	.st92{fill:#CAE0ED;}
	.st93{fill:url(#SVGID_52_);}
	.st94{fill:url(#SVGID_55_);}
	.st95{fill:url(#SVGID_58_);}
	.st96{fill:url(#SVGID_61_);}
	.st97{fill:none;stroke:#B3B2B3;stroke-width:0.5;stroke-miterlimit:10;}
	.st98{fill:#6056DE;}
	.st99{fill:#F4F9F9;}
	.st100{fill:none;stroke:#808080;stroke-width:0.25;stroke-miterlimit:10;}
	.st101{fill:#FF9400;}
	.st102{fill:#4BD965;}
	.st103{fill:#007AFE;}
	.st104{fill:#7F7F7F;}
	.st105{fill:none;stroke:#515151;stroke-width:0.341;stroke-miterlimit:10;}
	.st106{fill:#FFFFFF;stroke:#515151;stroke-width:0.25;stroke-miterlimit:10;}
	.st107{fill:#353535;}
	.st108{fill:#6EB42D;}
	.st109{fill:#622BCC;}
	.st110{fill:#007DC5;}
	.st111{fill:#008ED4;}
	.st112{fill:#EBECEC;}
	.st113{fill:#008CC3;}
	.st114{fill:#E1E8EC;}
	.st115{fill:#DDE7EC;}
	.st116{fill:#FEFEFE;}
	.st117{fill:#F05931;}
	.st118{fill:#F37933;}
	.st119{fill:#EFE8E5;}
	.st120{fill:#EFE8E4;}
	.st121{fill:#C20E2E;}
	.st122{fill:#DC0330;}
	.st123{fill:#FFD745;}
	.st124{fill:#3473A5;}
	.st125{fill:#FFFFFF;stroke:#000000;stroke-width:0.9459;stroke-miterlimit:10;}
</style>
<g>
	<path class="st104" d="M12.02,4.22L12.02,4.22L12.02,4.22z M58.11,15.72L58.11,15.72L58.11,15.72L58.11,15.72z M58.11,15.72h3.84
		v3.84h-3.84V15.72z M19.71,11.91v3.84h-3.84L19.71,11.91z M23.55,11.88h7.68v3.84h-7.68V11.88z M42.75,11.88h7.68v3.84h-7.68V11.88
		z M12.02,8.07h3.84v3.84h-3.84V8.07z M23.55,0.38l-3.84,3.84h-3.84l0,0l0,0l0,0V0.38h-3.84v3.84L8.21,8.07l0,0v7.68H4.37
		l-3.84,3.81l0,0l0,0v3.84h42.89h3.17l3.84,3.84v-7.68h3.84v3.84h7.71l0,0l0,0l3.84-3.84v-7.68h-7.68l0,0l-3.84,3.84V8.07H42.78l0,0
		l0,0l-3.84,3.84V8.07l-3.84,3.81V8.07H23.55V0.38z"/>
	<g>
		<path class="st104" d="M0.47,31.2v-2.35h0.41l0.64,1.96l0.64-1.96h0.38v2.35H2.32v-2.05l-0.7,2.05H1.44l-0.7-2.05v2.05H0.47z"/>
		<path class="st104" d="M4.46,29.5v1.7H4.25v-0.26c-0.09,0.09-0.18,0.18-0.26,0.21C3.9,31.2,3.82,31.2,3.7,31.2
			c-0.15,0-0.23-0.03-0.32-0.12s-0.12-0.21-0.12-0.35v-1.26h0.23v1.17c0,0.12,0.03,0.21,0.06,0.26c0.03,0.06,0.12,0.09,0.21,0.09
			s0.18-0.03,0.23-0.06c0.09-0.03,0.15-0.12,0.23-0.21v-1.26L4.46,29.5L4.46,29.5z"/>
		<path class="st104" d="M4.93,30.9l0.18-0.15c0.06,0.09,0.15,0.15,0.21,0.21c0.09,0.06,0.18,0.06,0.26,0.06
			c0.12,0,0.18-0.03,0.23-0.09c0.06-0.06,0.09-0.12,0.09-0.21c0-0.12-0.12-0.23-0.38-0.29c-0.06-0.03-0.12-0.03-0.15-0.03
			c-0.15-0.03-0.26-0.12-0.32-0.18c-0.06-0.09-0.12-0.18-0.12-0.29c0-0.15,0.06-0.23,0.15-0.32c0.09-0.09,0.21-0.12,0.38-0.12
			c0.12,0,0.23,0.03,0.35,0.06c0.09,0.06,0.18,0.12,0.26,0.21l-0.15,0.15c-0.06-0.09-0.12-0.15-0.21-0.18
			c-0.06-0.03-0.15-0.06-0.23-0.06c-0.09,0-0.15,0.03-0.21,0.06c-0.06,0.06-0.09,0.12-0.09,0.18c0,0.03,0,0.06,0.03,0.09
			c0.03,0.03,0.03,0.06,0.06,0.09c0.06,0.03,0.15,0.09,0.29,0.12c0.06,0.03,0.12,0.03,0.15,0.06c0.15,0.06,0.23,0.12,0.32,0.18
			c0.06,0.09,0.09,0.18,0.09,0.29c0,0.15-0.06,0.26-0.18,0.38c-0.12,0.09-0.26,0.15-0.44,0.15c-0.15,0-0.26-0.03-0.38-0.09
			C5.08,31.08,4.99,30.99,4.93,30.9z"/>
		<path class="st104" d="M7.33,30.99v0.21c-0.03,0-0.06,0.03-0.12,0.03c-0.03,0-0.09,0-0.15,0c-0.12,0-0.23-0.03-0.29-0.09
			c-0.06-0.06-0.09-0.15-0.09-0.23v-1.2H6.42V29.5h0.26v-0.56h0.23v0.56H7.3v0.21H6.92v1.08c0,0.09,0.03,0.15,0.06,0.18
			c0.03,0.03,0.09,0.03,0.18,0.03C7.22,31.02,7.27,30.99,7.33,30.99L7.33,30.99z"/>
		<path class="st104" d="M8.65,30.96c-0.09,0.09-0.18,0.15-0.26,0.21C8.3,31.2,8.21,31.23,8.1,31.23c-0.15,0-0.26-0.03-0.32-0.12
			c-0.09-0.09-0.12-0.21-0.12-0.32c0-0.18,0.09-0.32,0.23-0.41c0.15-0.12,0.41-0.21,0.79-0.26v-0.12c0-0.09-0.03-0.15-0.09-0.18
			c-0.06-0.06-0.15-0.09-0.23-0.09s-0.18,0.03-0.23,0.06c-0.06,0.03-0.12,0.12-0.18,0.21l-0.21-0.12c0.06-0.12,0.15-0.21,0.26-0.26
			c0.12-0.06,0.23-0.09,0.38-0.09c0.18,0,0.32,0.03,0.41,0.12c0.09,0.09,0.15,0.21,0.15,0.38v0.94c0,0.03,0,0.09,0,0.12
			c0,0.03,0,0.09,0.03,0.12v0.03H8.68L8.65,30.96z M8.65,30.76v-0.47c-0.29,0.06-0.47,0.12-0.62,0.21
			c-0.12,0.06-0.18,0.18-0.18,0.26s0.03,0.15,0.09,0.18c0.06,0.06,0.12,0.06,0.21,0.06c0.06,0,0.15-0.03,0.23-0.06
			C8.48,30.9,8.56,30.85,8.65,30.76z"/>
		<path class="st104" d="M9.56,31.2v-1.5H9.27V29.5h0.29v-0.23c0-0.15,0.03-0.26,0.09-0.32c0.06-0.06,0.18-0.12,0.29-0.12
			c0.03,0,0.06,0,0.09,0s0.06,0,0.12,0.03v0.21c-0.03,0-0.06,0-0.09-0.03c-0.03,0-0.06,0-0.09,0c-0.06,0-0.12,0.03-0.15,0.06
			c-0.03,0.03-0.06,0.09-0.06,0.18v0.26h0.38v0.21H9.8v1.5L9.56,31.2L9.56,31.2z"/>
		<path class="st104" d="M11.44,30.96c-0.09,0.09-0.18,0.15-0.26,0.21c-0.09,0.03-0.18,0.06-0.29,0.06c-0.15,0-0.26-0.03-0.32-0.12
			c-0.09-0.09-0.12-0.21-0.12-0.32c0-0.18,0.09-0.32,0.23-0.41c0.15-0.12,0.41-0.21,0.79-0.26v-0.12c0-0.09-0.03-0.15-0.09-0.18
			c-0.06-0.06-0.15-0.09-0.23-0.09c-0.09,0-0.18,0.03-0.23,0.06c-0.06,0.06-0.12,0.12-0.18,0.21l-0.21-0.12
			c0.06-0.12,0.15-0.21,0.26-0.26c0.12-0.06,0.23-0.09,0.38-0.09c0.18,0,0.32,0.03,0.41,0.12c0.09,0.09,0.15,0.21,0.15,0.38v0.94
			c0,0.03,0,0.09,0,0.12c0,0.03,0,0.09,0.03,0.12v0.03H11.5L11.44,30.96z M11.44,30.76v-0.47c-0.29,0.06-0.47,0.12-0.62,0.21
			c-0.12,0.06-0.18,0.18-0.18,0.26s0.03,0.15,0.09,0.18c0.06,0.06,0.12,0.06,0.21,0.06c0.06,0,0.15-0.03,0.23-0.06
			C11.26,30.9,11.35,30.85,11.44,30.76z"/>
		<path class="st104" d="M13.2,30.61l0.23-0.09c0.03,0.15,0.12,0.26,0.21,0.35c0.09,0.09,0.23,0.12,0.35,0.12
			c0.15,0,0.26-0.03,0.35-0.12c0.09-0.09,0.15-0.18,0.15-0.29c0-0.06,0-0.15-0.03-0.18c-0.03-0.06-0.06-0.09-0.12-0.15
			c-0.09-0.06-0.21-0.12-0.38-0.18c-0.06-0.03-0.12-0.03-0.15-0.06c-0.21-0.09-0.32-0.18-0.41-0.26s-0.12-0.21-0.12-0.35
			c0-0.18,0.06-0.35,0.18-0.44c0.12-0.12,0.29-0.18,0.5-0.18c0.18,0,0.32,0.06,0.47,0.15c0.12,0.09,0.21,0.23,0.26,0.41l-0.23,0.06
			c-0.03-0.15-0.09-0.23-0.21-0.32c-0.09-0.06-0.21-0.12-0.32-0.12c-0.12,0-0.23,0.03-0.29,0.12c-0.09,0.06-0.12,0.18-0.12,0.29
			c0,0.06,0,0.12,0.03,0.15c0.03,0.06,0.06,0.09,0.12,0.15c0.06,0.03,0.18,0.09,0.35,0.18c0.06,0.03,0.12,0.03,0.15,0.06
			c0.23,0.09,0.38,0.18,0.47,0.26s0.12,0.23,0.12,0.41c0,0.21-0.06,0.35-0.21,0.47c-0.15,0.12-0.32,0.18-0.53,0.18
			c-0.21,0-0.38-0.06-0.53-0.15C13.34,30.96,13.26,30.82,13.2,30.61z"/>
		<path class="st104" d="M16.45,30.79c-0.06,0.15-0.15,0.26-0.26,0.32c-0.12,0.06-0.23,0.12-0.38,0.12c-0.23,0-0.38-0.09-0.5-0.23
			s-0.18-0.38-0.18-0.64s0.06-0.5,0.18-0.64c0.12-0.15,0.29-0.23,0.5-0.23c0.15,0,0.26,0.03,0.38,0.12
			c0.12,0.09,0.18,0.21,0.23,0.35l-0.23,0.09c-0.03-0.12-0.09-0.18-0.15-0.23s-0.15-0.09-0.23-0.09c-0.15,0-0.23,0.06-0.32,0.18
			c-0.09,0.12-0.12,0.29-0.12,0.5c0,0.23,0.03,0.38,0.12,0.5c0.09,0.12,0.18,0.18,0.32,0.18c0.09,0,0.18-0.03,0.26-0.09
			c0.09-0.06,0.15-0.15,0.18-0.26L16.45,30.79z"/>
		<path class="st104" d="M16.92,29.14v-0.29h0.26v0.29H16.92z M16.95,31.2v-1.7h0.23v1.7H16.95z"/>
		<path class="st104" d="M18.91,30.73l0.18,0.12c-0.06,0.15-0.15,0.23-0.26,0.29c-0.12,0.06-0.23,0.09-0.41,0.09
			c-0.23,0-0.38-0.09-0.5-0.23c-0.12-0.15-0.18-0.38-0.18-0.64s0.06-0.5,0.18-0.64s0.29-0.23,0.5-0.23s0.38,0.09,0.5,0.23
			c0.12,0.15,0.18,0.35,0.18,0.62v0.06H18v0.06c0,0.18,0.03,0.32,0.12,0.41c0.09,0.12,0.21,0.15,0.32,0.15s0.21-0.03,0.29-0.09
			C18.8,30.9,18.86,30.82,18.91,30.73z M17.98,30.2h0.82c0-0.15-0.03-0.29-0.12-0.38c-0.06-0.09-0.18-0.15-0.29-0.15
			c-0.12,0-0.23,0.06-0.29,0.15C18,29.91,17.98,30.02,17.98,30.2z"/>
		<path class="st104" d="M19.56,31.2v-1.7h0.21v0.26c0.09-0.09,0.18-0.18,0.26-0.21c0.09-0.06,0.18-0.06,0.29-0.06
			c0.15,0,0.26,0.03,0.32,0.12c0.09,0.09,0.12,0.21,0.12,0.35v1.26h-0.23v-1.17c0-0.12-0.03-0.21-0.06-0.26
			c-0.03-0.06-0.12-0.09-0.21-0.09c-0.09,0-0.18,0.03-0.23,0.06c-0.09,0.03-0.15,0.12-0.23,0.21v1.26L19.56,31.2L19.56,31.2z"/>
		<path class="st104" d="M22.58,30.79c-0.06,0.15-0.15,0.26-0.26,0.32c-0.12,0.06-0.23,0.12-0.38,0.12c-0.23,0-0.38-0.09-0.5-0.23
			c-0.12-0.15-0.18-0.38-0.18-0.64s0.06-0.5,0.18-0.64c0.12-0.15,0.29-0.23,0.5-0.23c0.15,0,0.26,0.03,0.38,0.12
			c0.12,0.09,0.18,0.21,0.23,0.35l-0.23,0.09c-0.03-0.12-0.09-0.18-0.15-0.23s-0.15-0.09-0.23-0.09c-0.15,0-0.23,0.06-0.32,0.18
			c-0.09,0.12-0.12,0.29-0.12,0.5c0,0.23,0.03,0.38,0.12,0.5c0.09,0.12,0.18,0.18,0.32,0.18c0.09,0,0.18-0.03,0.26-0.09
			c0.09-0.06,0.15-0.15,0.18-0.26L22.58,30.79z"/>
		<path class="st104" d="M24.1,30.73l0.18,0.12c-0.06,0.15-0.15,0.23-0.26,0.29c-0.12,0.06-0.23,0.09-0.41,0.09
			c-0.23,0-0.38-0.09-0.5-0.23c-0.12-0.15-0.18-0.38-0.18-0.64c0-0.26,0.06-0.5,0.18-0.64c0.12-0.15,0.29-0.23,0.5-0.23
			c0.21,0,0.38,0.09,0.5,0.23s0.18,0.35,0.18,0.62v0.06h-1.08v0.06c0,0.18,0.03,0.32,0.12,0.41c0.09,0.12,0.21,0.15,0.32,0.15
			c0.12,0,0.21-0.03,0.29-0.09C23.99,30.9,24.04,30.82,24.1,30.73z M23.16,30.2h0.82c0-0.15-0.03-0.29-0.12-0.38
			c-0.06-0.09-0.18-0.15-0.29-0.15c-0.12,0-0.23,0.06-0.29,0.15C23.19,29.91,23.16,30.02,23.16,30.2z"/>
		<path class="st104" d="M26.62,30.96c-0.09,0.09-0.18,0.15-0.26,0.21c-0.09,0.03-0.18,0.06-0.29,0.06c-0.15,0-0.26-0.03-0.32-0.12
			c-0.09-0.09-0.12-0.21-0.12-0.32c0-0.18,0.09-0.32,0.23-0.41c0.15-0.12,0.41-0.21,0.79-0.26v-0.12c0-0.09-0.03-0.15-0.09-0.18
			c-0.06-0.06-0.15-0.09-0.23-0.09s-0.18,0.03-0.23,0.06c-0.06,0.06-0.12,0.12-0.18,0.21l-0.21-0.12c0.06-0.12,0.15-0.21,0.26-0.26
			c0.12-0.06,0.23-0.09,0.38-0.09c0.18,0,0.32,0.03,0.41,0.12s0.15,0.21,0.15,0.38v0.94c0,0.03,0,0.09,0,0.12
			c0,0.03,0,0.09,0.03,0.12v0.03h-0.26L26.62,30.96z M26.62,30.76v-0.47c-0.29,0.06-0.47,0.12-0.62,0.21
			c-0.12,0.06-0.18,0.18-0.18,0.26s0.03,0.15,0.09,0.18c0.06,0.06,0.12,0.06,0.21,0.06c0.06,0,0.15-0.03,0.23-0.06
			C26.45,30.9,26.54,30.85,26.62,30.76z"/>
		<path class="st104" d="M27.5,31.2v-1.7h0.23v0.26c0.09-0.09,0.18-0.18,0.26-0.21c0.09-0.06,0.18-0.06,0.29-0.06
			c0.15,0,0.26,0.03,0.32,0.12c0.09,0.09,0.12,0.21,0.12,0.35v1.26H28.5v-1.17c0-0.12-0.03-0.21-0.06-0.26
			c-0.03-0.06-0.12-0.09-0.21-0.09c-0.09,0-0.18,0.03-0.23,0.06c-0.09,0.03-0.15,0.12-0.23,0.21v1.26L27.5,31.2L27.5,31.2z"/>
		<path class="st104" d="M30.58,28.85v1.82c0,0.15,0,0.26,0,0.32s0,0.15,0.03,0.21h-0.18l-0.06-0.21c-0.06,0.09-0.15,0.15-0.21,0.18
			c-0.09,0.03-0.18,0.06-0.26,0.06c-0.21,0-0.38-0.09-0.5-0.23c-0.12-0.15-0.18-0.38-0.18-0.64s0.06-0.5,0.18-0.64
			c0.12-0.15,0.29-0.23,0.5-0.23c0.09,0,0.18,0.03,0.26,0.06c0.06,0.03,0.15,0.09,0.18,0.18v-0.85L30.58,28.85L30.58,28.85z
			 M30.35,29.94c-0.06-0.09-0.12-0.15-0.21-0.21c-0.06-0.03-0.15-0.06-0.23-0.06c-0.15,0-0.23,0.06-0.32,0.18
			c-0.09,0.12-0.12,0.26-0.12,0.5c0,0.23,0.03,0.41,0.12,0.53c0.09,0.12,0.21,0.18,0.35,0.18c0.09,0,0.18-0.03,0.23-0.06
			c0.06-0.03,0.12-0.12,0.18-0.18V29.94z"/>
		<path class="st104" d="M32.75,31.2v-2.11h-0.67v-0.23h1.64v0.23h-0.7v2.11H32.75z"/>
		<path class="st104" d="M34.95,30.73l0.18,0.12c-0.06,0.15-0.15,0.23-0.26,0.29c-0.12,0.06-0.23,0.09-0.41,0.09
			c-0.23,0-0.38-0.09-0.5-0.23c-0.12-0.15-0.18-0.38-0.18-0.64c0-0.26,0.06-0.5,0.18-0.64s0.29-0.23,0.5-0.23
			c0.21,0,0.38,0.09,0.5,0.23c0.12,0.15,0.18,0.35,0.18,0.62v0.06h-1.08v0.06c0,0.18,0.03,0.32,0.12,0.41
			c0.09,0.12,0.21,0.15,0.32,0.15s0.21-0.03,0.29-0.09C34.83,30.9,34.89,30.82,34.95,30.73z M34.01,30.2h0.82
			c0-0.15-0.03-0.29-0.12-0.38c-0.06-0.09-0.18-0.15-0.29-0.15s-0.23,0.06-0.29,0.15C34.04,29.91,34.01,30.02,34.01,30.2z"/>
		<path class="st104" d="M36.77,30.79c-0.06,0.15-0.15,0.26-0.26,0.32c-0.12,0.06-0.23,0.12-0.38,0.12c-0.23,0-0.38-0.09-0.5-0.23
			c-0.12-0.15-0.18-0.38-0.18-0.64s0.06-0.5,0.18-0.64s0.29-0.23,0.5-0.23c0.15,0,0.26,0.03,0.38,0.12
			c0.12,0.09,0.18,0.21,0.23,0.35l-0.23,0.09c-0.03-0.12-0.09-0.18-0.15-0.23c-0.06-0.06-0.15-0.09-0.23-0.09
			c-0.15,0-0.23,0.06-0.32,0.18c-0.09,0.12-0.12,0.29-0.12,0.5c0,0.23,0.03,0.38,0.12,0.5c0.09,0.12,0.18,0.18,0.32,0.18
			c0.09,0,0.18-0.03,0.26-0.09c0.09-0.06,0.15-0.15,0.18-0.26L36.77,30.79z"/>
		<path class="st104" d="M37.24,31.2v-2.35h0.23v0.91c0.09-0.09,0.18-0.18,0.26-0.21c0.09-0.06,0.18-0.06,0.29-0.06
			c0.15,0,0.26,0.03,0.35,0.12c0.09,0.09,0.12,0.21,0.12,0.35v1.26h-0.23v-1.17c0-0.12-0.03-0.21-0.06-0.26
			c-0.06-0.06-0.12-0.09-0.23-0.09c-0.09,0-0.18,0.03-0.26,0.06c-0.09,0.03-0.18,0.12-0.23,0.21v1.26L37.24,31.2L37.24,31.2z"/>
		<path class="st104" d="M39.14,31.2v-1.7h0.21v0.26c0.09-0.09,0.18-0.18,0.26-0.21c0.09-0.06,0.18-0.06,0.29-0.06
			c0.15,0,0.26,0.03,0.32,0.12c0.09,0.09,0.12,0.21,0.12,0.35v1.26h-0.23v-1.17c0-0.12-0.03-0.21-0.06-0.26
			c-0.03-0.06-0.12-0.09-0.21-0.09c-0.09,0-0.18,0.03-0.23,0.06c-0.09,0.03-0.15,0.12-0.23,0.21v1.26L39.14,31.2L39.14,31.2z"/>
		<path class="st104" d="M40.84,30.35c0-0.26,0.06-0.5,0.18-0.64s0.29-0.23,0.53-0.23c0.23,0,0.41,0.09,0.53,0.23
			c0.12,0.15,0.18,0.38,0.18,0.64c0,0.26-0.06,0.5-0.18,0.64c-0.12,0.15-0.29,0.23-0.53,0.23c-0.23,0-0.41-0.09-0.53-0.23
			C40.9,30.85,40.84,30.61,40.84,30.35z M41.11,30.35c0,0.23,0.03,0.38,0.12,0.5c0.09,0.12,0.21,0.18,0.35,0.18s0.26-0.06,0.35-0.18
			c0.09-0.12,0.12-0.29,0.12-0.5c0-0.23-0.03-0.38-0.12-0.5c-0.09-0.12-0.21-0.18-0.35-0.18s-0.26,0.06-0.35,0.18
			C41.14,29.97,41.11,30.11,41.11,30.35z"/>
		<path class="st104" d="M42.78,31.2v-2.35h0.23v2.35H42.78z"/>
		<path class="st104" d="M43.54,30.35c0-0.26,0.06-0.5,0.18-0.64c0.12-0.15,0.29-0.23,0.53-0.23c0.23,0,0.41,0.09,0.53,0.23
			c0.12,0.15,0.18,0.38,0.18,0.64c0,0.26-0.06,0.5-0.18,0.64s-0.29,0.23-0.53,0.23c-0.23,0-0.41-0.09-0.53-0.23
			C43.6,30.85,43.54,30.61,43.54,30.35z M43.77,30.35c0,0.23,0.03,0.38,0.12,0.5c0.09,0.12,0.21,0.18,0.35,0.18s0.26-0.06,0.35-0.18
			c0.09-0.12,0.12-0.29,0.12-0.5c0-0.23-0.03-0.38-0.12-0.5c-0.09-0.12-0.21-0.18-0.35-0.18s-0.26,0.06-0.35,0.18
			C43.8,29.97,43.77,30.11,43.77,30.35z"/>
		<path class="st104" d="M45.53,31.05c-0.06-0.03-0.12-0.06-0.15-0.09c-0.03-0.03-0.06-0.09-0.06-0.15c0-0.06,0.03-0.12,0.06-0.15
			c0.03-0.03,0.09-0.09,0.18-0.15c-0.06-0.06-0.12-0.12-0.18-0.21c-0.03-0.09-0.06-0.18-0.06-0.26c0-0.18,0.06-0.32,0.18-0.44
			c0.12-0.12,0.26-0.15,0.47-0.15c0.09,0,0.15,0,0.21,0.03c0.06,0.03,0.12,0.06,0.18,0.09c0.06-0.06,0.12-0.09,0.18-0.12
			c0.06-0.03,0.09-0.03,0.15-0.03h0.03v0.21h-0.06c-0.06,0-0.09,0-0.12,0c-0.03,0-0.06,0.03-0.06,0.03
			c0.03,0.06,0.06,0.09,0.06,0.15c0.03,0.06,0.03,0.12,0.03,0.18c0,0.18-0.06,0.32-0.18,0.44c-0.12,0.12-0.26,0.15-0.44,0.15
			c-0.03,0-0.09,0-0.12,0c-0.03,0-0.09-0.03-0.12-0.03c-0.06,0.03-0.09,0.03-0.12,0.06c-0.03,0.03-0.03,0.06-0.03,0.09
			c0,0.06,0.12,0.12,0.32,0.12c0.06,0,0.12,0,0.18,0c0.26,0.03,0.44,0.06,0.53,0.15c0.09,0.06,0.15,0.18,0.15,0.32
			s-0.06,0.26-0.21,0.35c-0.12,0.09-0.32,0.12-0.56,0.12c-0.23,0-0.41-0.03-0.53-0.12c-0.12-0.06-0.18-0.18-0.18-0.32
			c0-0.09,0.03-0.15,0.06-0.21C45.39,31.14,45.45,31.11,45.53,31.05z M45.5,31.37c0,0.09,0.03,0.15,0.12,0.21
			c0.09,0.03,0.21,0.06,0.35,0.06c0.18,0,0.32-0.03,0.41-0.06c0.09-0.03,0.15-0.12,0.15-0.21c0-0.09-0.06-0.15-0.15-0.18
			c-0.09-0.03-0.23-0.06-0.41-0.06c-0.15,0-0.26,0.03-0.35,0.06C45.53,31.23,45.5,31.28,45.5,31.37z M45.56,30.02
			c0,0.12,0.03,0.23,0.12,0.29c0.06,0.06,0.18,0.12,0.29,0.12s0.21-0.03,0.29-0.12c0.06-0.06,0.12-0.18,0.12-0.29
			c0-0.12-0.03-0.23-0.12-0.29c-0.06-0.06-0.18-0.12-0.29-0.12s-0.21,0.03-0.26,0.12C45.59,29.82,45.56,29.91,45.56,30.02z"/>
		<path class="st104" d="M47.56,31.17l-0.62-1.67h0.23l0.5,1.35l0.44-1.35h0.23l-0.59,1.73c-0.09,0.23-0.18,0.38-0.26,0.47
			c-0.09,0.09-0.21,0.12-0.35,0.12c-0.03,0-0.06,0-0.09,0s-0.06,0-0.06,0v-0.21c0.03,0,0.06,0,0.06,0c0.03,0,0.03,0,0.06,0
			c0.12,0,0.21-0.03,0.26-0.09C47.44,31.43,47.5,31.31,47.56,31.17z"/>
		<path class="st104" d="M49.81,31.2v-2.35h1.38v0.23h-1.11v0.79h0.82v0.21h-0.82v1.11H49.81z"/>
		<path class="st104" d="M51.51,30.35c0-0.26,0.06-0.5,0.18-0.64c0.12-0.15,0.29-0.23,0.53-0.23c0.23,0,0.41,0.09,0.53,0.23
			c0.12,0.15,0.18,0.38,0.18,0.64c0,0.26-0.06,0.5-0.18,0.64s-0.29,0.23-0.53,0.23c-0.23,0-0.41-0.09-0.53-0.23
			C51.54,30.85,51.51,30.61,51.51,30.35z M51.72,30.35c0,0.23,0.03,0.38,0.12,0.5c0.09,0.12,0.21,0.18,0.35,0.18
			s0.26-0.06,0.35-0.18c0.09-0.12,0.12-0.29,0.12-0.5c0-0.23-0.03-0.38-0.12-0.5c-0.09-0.12-0.21-0.18-0.35-0.18
			s-0.26,0.06-0.35,0.18C51.75,29.97,51.72,30.11,51.72,30.35z"/>
		<path class="st104" d="M54.62,29.5v1.7h-0.21v-0.26c-0.09,0.09-0.18,0.18-0.26,0.21c-0.09,0.06-0.18,0.06-0.29,0.06
			c-0.15,0-0.23-0.03-0.32-0.12c-0.09-0.09-0.12-0.21-0.12-0.35v-1.26h0.23v1.17c0,0.12,0.03,0.21,0.06,0.26
			c0.03,0.06,0.12,0.09,0.21,0.09c0.09,0,0.18-0.03,0.23-0.06c0.09-0.03,0.15-0.12,0.23-0.21v-1.26L54.62,29.5L54.62,29.5z"/>
		<path class="st104" d="M55.24,31.2v-1.7h0.21v0.26c0.09-0.09,0.18-0.18,0.26-0.21C55.8,29.5,55.88,29.5,56,29.5
			c0.15,0,0.26,0.03,0.32,0.12c0.09,0.09,0.12,0.21,0.12,0.35v1.26h-0.23v-1.17c0-0.12-0.03-0.21-0.06-0.26
			c-0.03-0.06-0.12-0.09-0.21-0.09c-0.09,0-0.18,0.03-0.23,0.06c-0.09,0.03-0.15,0.12-0.23,0.21v1.26L55.24,31.2L55.24,31.2z"/>
		<path class="st104" d="M58.32,28.85v1.82c0,0.15,0,0.26,0,0.32s0,0.15,0.03,0.21h-0.18l-0.06-0.21c-0.06,0.09-0.15,0.15-0.21,0.18
			c-0.09,0.03-0.18,0.06-0.26,0.06c-0.21,0-0.38-0.09-0.5-0.23c-0.12-0.15-0.18-0.38-0.18-0.64s0.06-0.5,0.18-0.64
			c0.12-0.15,0.29-0.23,0.5-0.23c0.09,0,0.18,0.03,0.26,0.06c0.06,0.03,0.15,0.09,0.18,0.18v-0.85L58.32,28.85L58.32,28.85z
			 M58.11,29.94c-0.06-0.09-0.12-0.15-0.21-0.21c-0.06-0.03-0.15-0.06-0.23-0.06c-0.15,0-0.23,0.06-0.32,0.18
			c-0.09,0.12-0.12,0.26-0.12,0.5c0,0.23,0.03,0.41,0.12,0.53c0.09,0.12,0.21,0.18,0.35,0.18c0.09,0,0.18-0.03,0.23-0.06
			c0.06-0.03,0.12-0.12,0.18-0.18V29.94z"/>
		<path class="st104" d="M59.87,30.96c-0.09,0.09-0.18,0.15-0.26,0.21c-0.09,0.03-0.18,0.06-0.29,0.06c-0.15,0-0.26-0.03-0.32-0.12
			c-0.09-0.09-0.12-0.21-0.12-0.32c0-0.18,0.09-0.32,0.23-0.41c0.15-0.12,0.41-0.21,0.79-0.26v-0.12c0-0.09-0.03-0.15-0.09-0.18
			c-0.06-0.06-0.15-0.09-0.23-0.09c-0.09,0-0.18,0.03-0.23,0.06c-0.06,0.06-0.12,0.12-0.18,0.21l-0.21-0.12
			c0.06-0.12,0.15-0.21,0.26-0.26c0.12-0.06,0.23-0.09,0.38-0.09c0.18,0,0.32,0.03,0.41,0.12c0.09,0.09,0.15,0.21,0.15,0.38v0.94
			c0,0.03,0,0.09,0,0.12c0,0.03,0,0.09,0.03,0.12v0.03h-0.26L59.87,30.96z M59.9,30.76v-0.47c-0.29,0.06-0.47,0.12-0.62,0.21
			c-0.12,0.06-0.18,0.18-0.18,0.26s0.03,0.15,0.09,0.18c0.06,0.06,0.12,0.06,0.21,0.06c0.06,0,0.15-0.03,0.23-0.06
			C59.67,30.9,59.75,30.85,59.9,30.76z"/>
		<path class="st104" d="M61.42,30.99v0.21c-0.03,0-0.06,0.03-0.12,0.03c-0.03,0-0.09,0-0.15,0c-0.12,0-0.23-0.03-0.29-0.09
			c-0.06-0.06-0.09-0.15-0.09-0.23v-1.2h-0.26V29.5h0.26v-0.56h0.23v0.56h0.38v0.21h-0.38v1.08c0,0.09,0.03,0.15,0.06,0.18
			c0.03,0.03,0.09,0.03,0.18,0.03C61.28,31.02,61.37,30.99,61.42,30.99L61.42,30.99z"/>
		<path class="st104" d="M61.86,29.14v-0.29h0.26v0.29H61.86z M61.86,31.2v-1.7h0.23v1.7H61.86z"/>
		<path class="st104" d="M62.66,30.35c0-0.26,0.06-0.5,0.18-0.64c0.12-0.15,0.29-0.23,0.53-0.23c0.23,0,0.41,0.09,0.53,0.23
			c0.12,0.15,0.18,0.38,0.18,0.64c0,0.26-0.06,0.5-0.18,0.64c-0.12,0.15-0.29,0.23-0.53,0.23c-0.23,0-0.41-0.09-0.53-0.23
			C62.68,30.85,62.66,30.61,62.66,30.35z M62.86,30.35c0,0.23,0.03,0.38,0.12,0.5c0.09,0.12,0.21,0.18,0.35,0.18
			s0.26-0.06,0.35-0.18c0.09-0.12,0.12-0.29,0.12-0.5c0-0.23-0.03-0.38-0.12-0.5c-0.09-0.12-0.21-0.18-0.35-0.18
			s-0.26,0.06-0.35,0.18C62.95,29.97,62.86,30.11,62.86,30.35z"/>
		<path class="st104" d="M64.59,31.2v-1.7h0.21v0.26c0.09-0.09,0.18-0.18,0.26-0.21c0.09-0.06,0.18-0.06,0.29-0.06
			c0.15,0,0.26,0.03,0.32,0.12c0.09,0.09,0.12,0.21,0.12,0.35v1.26h-0.23v-1.17c0-0.12-0.03-0.21-0.06-0.26
			c-0.03-0.06-0.12-0.09-0.21-0.09c-0.09,0-0.18,0.03-0.23,0.06c-0.09,0.03-0.15,0.12-0.23,0.21v1.26L64.59,31.2L64.59,31.2z"/>
	</g>
	<path class="st104" d="M65.65,32.63H0.62c-0.06,0-0.12,0.06-0.12,0.12c0,0.06,0.06,0.12,0.12,0.12H18.3l2.08,3.55
		c0,0.03,0,0.03,0,0.06c0.03,0.03,0.06,0.06,0.09,0.06l0,0l0,0l0,0h4.16l2.02,3.55c0,0.03,0,0.06,0,0.06
		c0.03,0.03,0.06,0.06,0.09,0.06h4.19l2.05,3.61c0.03,0.03,0.06,0.06,0.09,0.06l0,0c0.03,0,0.06-0.03,0.09-0.06l2.2-3.61h4.05l0,0
		c0.06,0,0.09-0.03,0.09-0.06l2.17-3.58h4.05l0,0c0.06,0,0.09-0.03,0.12-0.09L48,32.9h17.65c0.06,0,0.12-0.06,0.12-0.12
		C65.79,32.69,65.73,32.63,65.65,32.63z M39.26,32.87l-2.02,3.43h-3.96l2.11-3.46h3.87V32.87z M35.16,32.87l-2.02,3.34l-1.96-3.34
		H35.16z M27.77,32.87h3.14l2.02,3.46h-3.17h-0.67l-2.08-3.46H27.77z M20.47,36.21l-1.96-3.34h3.99L20.47,36.21z M24.6,36.33h-3.96
		l2.11-3.46h3.87L24.6,36.33z M24.84,36.44l1.96-3.46l2.08,3.43l-2.08,3.46L24.84,36.44z M30.9,39.99h-3.93l2.08-3.46h0.7h3.14
		L30.9,39.99z M33.1,43.54l-1.96-3.43l1.96-3.46l2.08,3.46L33.1,43.54z M35.39,39.99l-2.11-3.46h3.96l2.02,3.46H35.39z M39.44,39.87
		l-1.96-3.43l1.93-3.46l2.08,3.43L39.44,39.87z M41.69,36.33l-2.08-3.46h1.14h2.79l2.02,3.46H41.69z M45.74,36.21l-1.96-3.34h3.99
		L45.74,36.21z"/>
</g>
</svg>
