<?xml version="1.0" encoding="utf-8"?>
<!-- Generator: Adobe Illustrator 24.1.1, SVG Export Plug-In . SVG Version: 6.00 Build 0)  -->
<svg version="1.1" id="Layer_1" xmlns="http://www.w3.org/2000/svg" xmlns:xlink="http://www.w3.org/1999/xlink" x="0px" y="0px"
	 viewBox="0 0 48.47 41.53" style="enable-background:new 0 0 48.47 41.53;" xml:space="preserve">
<style type="text/css">
	.st0{fill:url(#SVGID_3_);}
	.st1{fill:url(#SVGID_6_);}
	.st2{fill:#B3B2B3;}
	.st3{fill:#D39241;}
	.st4{fill:#315B51;}
	.st5{fill:#C8B34C;}
	.st6{fill:#2BB898;}
	.st7{fill:#385BA6;}
	.st8{fill:#515151;}
	.st9{fill:#F4E8AA;}
	.st10{fill:#FAC86E;}
	.st11{fill:#F4F4F4;}
	.st12{fill:#AD9944;}
	.st13{fill:#00A99D;}
	.st14{fill:#FFFFFF;}
	.st15{fill:url(#SVGID_7_);}
	.st16{fill:#C4AF4C;}
	.st17{fill-rule:evenodd;clip-rule:evenodd;fill:#C4AF4C;}
	.st18{filter:url(#Adobe_OpacityMaskFilter);}
	.st19{fill:url(#SVGID_9_);}
	.st20{mask:url(#SVGID_8_);fill-rule:evenodd;clip-rule:evenodd;fill:#C4AF4C;}
	.st21{filter:url(#Adobe_OpacityMaskFilter_1_);}
	.st22{fill:url(#SVGID_11_);}
	.st23{mask:url(#SVGID_10_);fill-rule:evenodd;clip-rule:evenodd;fill:#F0E4A6;}
	.st24{filter:url(#Adobe_OpacityMaskFilter_2_);}
	.st25{fill:url(#SVGID_13_);}
	.st26{mask:url(#SVGID_12_);fill-rule:evenodd;clip-rule:evenodd;fill:#F0E4A6;}
	.st27{filter:url(#Adobe_OpacityMaskFilter_3_);}
	.st28{fill:url(#SVGID_15_);}
	.st29{mask:url(#SVGID_14_);fill-rule:evenodd;clip-rule:evenodd;fill:#F0E4A6;}
	.st30{filter:url(#Adobe_OpacityMaskFilter_4_);}
	.st31{fill:url(#SVGID_17_);}
	.st32{mask:url(#SVGID_16_);fill-rule:evenodd;clip-rule:evenodd;fill:#F0E4A6;}
	.st33{opacity:0.5;fill-rule:evenodd;clip-rule:evenodd;fill:#C4AF4C;}
	.st34{filter:url(#Adobe_OpacityMaskFilter_5_);}
	.st35{fill:url(#SVGID_19_);}
	.st36{mask:url(#SVGID_18_);fill-rule:evenodd;clip-rule:evenodd;fill:#C4AF4C;}
	.st37{filter:url(#Adobe_OpacityMaskFilter_6_);}
	.st38{fill:url(#SVGID_21_);}
	.st39{mask:url(#SVGID_20_);fill-rule:evenodd;clip-rule:evenodd;fill:#C4AF4C;}
	.st40{filter:url(#Adobe_OpacityMaskFilter_7_);}
	.st41{fill:url(#SVGID_23_);}
	.st42{mask:url(#SVGID_22_);fill-rule:evenodd;clip-rule:evenodd;fill:#F0E4A6;}
	.st43{fill-rule:evenodd;clip-rule:evenodd;fill:#315B51;}
	.st44{filter:url(#Adobe_OpacityMaskFilter_8_);}
	.st45{fill:url(#SVGID_25_);}
	.st46{mask:url(#SVGID_24_);fill-rule:evenodd;clip-rule:evenodd;fill:#2BB494;}
	.st47{fill:#AFAEAF;}
	.st48{fill:none;stroke:#FFFFFF;stroke-width:0.25;stroke-miterlimit:10;}
	.st49{fill:#E0E0E0;}
	.st50{filter:url(#Adobe_OpacityMaskFilter_9_);}
	.st51{fill:url(#SVGID_27_);}
	.st52{mask:url(#SVGID_26_);fill-rule:evenodd;clip-rule:evenodd;fill:#C4AF4C;}
	.st53{filter:url(#Adobe_OpacityMaskFilter_10_);}
	.st54{fill:url(#SVGID_29_);}
	.st55{mask:url(#SVGID_28_);fill-rule:evenodd;clip-rule:evenodd;fill:#F0E4A6;}
	.st56{filter:url(#Adobe_OpacityMaskFilter_11_);}
	.st57{fill:url(#SVGID_31_);}
	.st58{mask:url(#SVGID_30_);fill-rule:evenodd;clip-rule:evenodd;fill:#F0E4A6;}
	.st59{filter:url(#Adobe_OpacityMaskFilter_12_);}
	.st60{fill:url(#SVGID_33_);}
	.st61{mask:url(#SVGID_32_);fill-rule:evenodd;clip-rule:evenodd;fill:#F0E4A6;}
	.st62{filter:url(#Adobe_OpacityMaskFilter_13_);}
	.st63{fill:url(#SVGID_35_);}
	.st64{mask:url(#SVGID_34_);fill-rule:evenodd;clip-rule:evenodd;fill:#F0E4A6;}
	.st65{filter:url(#Adobe_OpacityMaskFilter_14_);}
	.st66{fill:url(#SVGID_37_);}
	.st67{mask:url(#SVGID_36_);fill-rule:evenodd;clip-rule:evenodd;fill:#C4AF4C;}
	.st68{filter:url(#Adobe_OpacityMaskFilter_15_);}
	.st69{fill:url(#SVGID_39_);}
	.st70{mask:url(#SVGID_38_);fill-rule:evenodd;clip-rule:evenodd;fill:#C4AF4C;}
	.st71{fill:none;stroke:#2BB797;stroke-width:1.16;stroke-linecap:round;stroke-linejoin:round;stroke-miterlimit:10;}
	.st72{fill-rule:evenodd;clip-rule:evenodd;fill:none;stroke:#C6C6C6;stroke-width:0.5;stroke-miterlimit:10;}
	.st73{fill-rule:evenodd;clip-rule:evenodd;fill:none;stroke:#C6C6C6;stroke-width:0.75;stroke-miterlimit:10;}
	.st74{fill:#2BB797;}
	.st75{fill:#2BB797;stroke:#2BB797;stroke-width:0.7684;stroke-miterlimit:10;}
	.st76{clip-path:url(#SVGID_41_);fill:#BBBBBB;}
	.st77{clip-path:url(#SVGID_41_);fill:#959595;}
	.st78{clip-path:url(#SVGID_41_);}
	.st79{fill:#959595;}
	.st80{fill:#BBBBBB;}
	.st81{fill:none;stroke:#C6C6C6;stroke-width:0.5;stroke-miterlimit:10;}
	.st82{clip-path:url(#SVGID_43_);}
	.st83{fill-rule:evenodd;clip-rule:evenodd;fill:none;stroke:#C9C9C9;stroke-width:0.5;stroke-miterlimit:10;}
	.st84{fill:#B2B1B2;}
	.st85{fill:#4D4D4D;}
	.st86{fill:#A5CFE3;}
	.st87{fill:url(#);}
	.st88{fill:#9F9F9F;}
	.st89{clip-path:url(#SVGID_45_);fill:#E2E4E6;}
	.st90{clip-path:url(#SVGID_47_);fill:#E2E4E6;}
	.st91{clip-path:url(#SVGID_49_);fill:#E2E4E6;}
	.st92{fill:#CAE0ED;}
	.st93{fill:url(#SVGID_52_);}
	.st94{fill:url(#SVGID_55_);}
	.st95{fill:url(#SVGID_58_);}
	.st96{fill:url(#SVGID_61_);}
	.st97{fill:none;stroke:#B3B2B3;stroke-width:0.5;stroke-miterlimit:10;}
	.st98{fill:#6056DE;}
	.st99{fill:#F4F9F9;}
	.st100{fill:none;stroke:#808080;stroke-width:0.25;stroke-miterlimit:10;}
	.st101{fill:#FF9400;}
	.st102{fill:#4BD965;}
	.st103{fill:#007AFE;}
	.st104{fill:#7F7F7F;}
	.st105{fill:none;stroke:#515151;stroke-width:0.341;stroke-miterlimit:10;}
	.st106{fill:#FFFFFF;stroke:#515151;stroke-width:0.25;stroke-miterlimit:10;}
	.st107{fill:#353535;}
	.st108{fill:#6EB42D;}
	.st109{fill:#622BCC;}
	.st110{fill:#007DC5;}
	.st111{fill:#008ED4;}
	.st112{fill:#EBECEC;}
	.st113{fill:#008CC3;}
	.st114{fill:#E1E8EC;}
	.st115{fill:#DDE7EC;}
	.st116{fill:#FEFEFE;}
	.st117{fill:#F05931;}
	.st118{fill:#F37933;}
	.st119{fill:#EFE8E5;}
	.st120{fill:#EFE8E4;}
	.st121{fill:#C20E2E;}
	.st122{fill:#DC0330;}
	.st123{fill:#FFD745;}
	.st124{fill:#3473A5;}
	.st125{fill:#FFFFFF;stroke:#000000;stroke-width:0.9459;stroke-miterlimit:10;}
</style>
<g>
	<path id="ic-new-process-build_1_" class="st102" d="M46.42,0.31c0.97,0,1.75,0.78,1.75,1.75l0,0v37.51c0,0.96-0.79,1.75-1.75,1.75
		l0,0H1.93c-0.97,0-1.75-0.78-1.75-1.75l0,0V2.06c0-0.96,0.79-1.75,1.75-1.75l0,0H46.42z M45.36,8.01L29.35,8.05l-2.31,2.15
		c-0.32,0.3-0.74,0.46-1.18,0.46l0,0H2.99v27.85h42.38V8.01z M16.33,17.83c0.57-0.53,1.45-0.5,1.99,0.06
		c0.53,0.56,0.51,1.45-0.06,1.98l0,0l-4.89,4.59l4.89,4.59c0.57,0.53,0.59,1.42,0.06,1.98c-0.28,0.29-0.65,0.44-1.02,0.44
		c-0.35,0-0.69-0.13-0.96-0.38l0,0l-5.93-5.57c-0.29-0.28-0.46-0.66-0.46-1.07c0-0.4,0.17-0.79,0.46-1.07l0,0L16.33,17.83z
		 M25.34,18.28c0.32-0.71,1.15-1.02,1.86-0.71c0.71,0.31,1.03,1.14,0.71,1.85l0,0l-5.02,11.22c-0.23,0.52-0.75,0.83-1.29,0.83
		c-0.19,0-0.39-0.04-0.57-0.12c-0.71-0.31-1.03-1.14-0.71-1.85l0,0L25.34,18.28z M30.04,17.89c0.53-0.56,1.42-0.59,1.99-0.06l0,0
		l5.93,5.57c0.29,0.28,0.46,0.67,0.46,1.07c0,0.4-0.17,0.79-0.46,1.07l0,0l-5.93,5.57c-0.27,0.25-0.62,0.38-0.96,0.38
		c-0.37,0-0.75-0.15-1.02-0.44c-0.53-0.56-0.51-1.45,0.06-1.98l0,0l4.89-4.59l-4.89-4.59C29.53,19.34,29.5,18.45,30.04,17.89z
		 M45.36,3.12H2.99v4.75h22.44l2.31-2.15c0.32-0.3,0.74-0.46,1.18-0.46l0,0l16.44-0.04V3.12z M10.67,4.12l0.14,0.01
		c0.05,0,0.09,0.01,0.14,0.02c0.05,0.01,0.09,0.02,0.13,0.03c0.04,0.01,0.09,0.03,0.13,0.05c0.04,0.02,0.08,0.04,0.12,0.06
		c0.04,0.02,0.08,0.04,0.12,0.07c0.04,0.03,0.08,0.05,0.11,0.08c0.04,0.03,0.07,0.06,0.1,0.09c0.03,0.03,0.06,0.07,0.09,0.1
		c0.03,0.04,0.06,0.07,0.08,0.11c0.02,0.04,0.05,0.08,0.07,0.12c0.02,0.04,0.04,0.08,0.06,0.12c0.02,0.04,0.03,0.08,0.05,0.13
		c0.01,0.04,0.02,0.09,0.03,0.13s0.02,0.09,0.02,0.14c0,0.05,0.01,0.09,0.01,0.14c0,0.05,0,0.09-0.01,0.14
		c0,0.04-0.01,0.09-0.02,0.14c-0.01,0.04-0.02,0.09-0.03,0.13C12,5.97,11.98,6.02,11.96,6.06c-0.02,0.04-0.04,0.08-0.06,0.12
		s-0.05,0.08-0.07,0.12c-0.03,0.04-0.05,0.08-0.08,0.11c-0.03,0.04-0.06,0.07-0.09,0.1c-0.03,0.03-0.07,0.06-0.1,0.09
		c-0.03,0.03-0.07,0.06-0.11,0.08c-0.04,0.03-0.08,0.05-0.12,0.07S11.25,6.8,11.2,6.81c-0.04,0.02-0.09,0.03-0.13,0.05
		c-0.04,0.01-0.09,0.02-0.13,0.03c-0.05,0.01-0.09,0.02-0.14,0.02c-0.05,0-0.09,0.01-0.14,0.01c-0.05,0-0.09,0-0.14-0.01
		c-0.05,0-0.09-0.01-0.14-0.02c-0.04-0.01-0.09-0.02-0.13-0.03c-0.04-0.01-0.09-0.03-0.13-0.05C10.09,6.8,10.04,6.78,10,6.76
		S9.92,6.71,9.89,6.69C9.85,6.66,9.81,6.63,9.77,6.6C9.74,6.58,9.7,6.54,9.67,6.51c-0.03-0.03-0.06-0.07-0.09-0.1
		C9.55,6.38,9.52,6.34,9.5,6.3C9.47,6.26,9.45,6.22,9.43,6.18S9.38,6.1,9.37,6.06C9.35,6.02,9.33,5.97,9.32,5.93
		C9.31,5.88,9.3,5.84,9.29,5.8C9.28,5.75,9.27,5.7,9.27,5.66c0-0.05-0.01-0.09-0.01-0.14c0-0.05,0-0.09,0.01-0.14
		c0-0.05,0.01-0.09,0.02-0.14C9.3,5.2,9.31,5.16,9.32,5.12c0.01-0.04,0.03-0.09,0.05-0.13C9.38,4.94,9.4,4.9,9.43,4.86
		C9.45,4.82,9.47,4.78,9.5,4.74c0.03-0.04,0.05-0.08,0.08-0.11c0.03-0.04,0.06-0.07,0.09-0.1C9.7,4.5,9.74,4.47,9.77,4.44
		c0.04-0.03,0.07-0.06,0.11-0.08C9.92,4.33,9.96,4.31,10,4.29c0.04-0.02,0.08-0.04,0.12-0.06c0.04-0.02,0.09-0.03,0.13-0.05
		c0.04-0.01,0.09-0.03,0.13-0.03c0.05-0.01,0.09-0.02,0.14-0.02c0.09-0.01,0.18-0.01,0.28,0L10.67,4.12z M6.17,4.12L6.3,4.13
		c0.05,0,0.09,0.01,0.14,0.02c0.05,0.01,0.09,0.02,0.13,0.03C6.62,4.2,6.66,4.21,6.7,4.23c0.04,0.02,0.08,0.04,0.12,0.06
		c0.04,0.02,0.08,0.04,0.12,0.07c0.04,0.03,0.08,0.05,0.11,0.08c0.04,0.03,0.07,0.06,0.1,0.09c0.03,0.03,0.06,0.07,0.09,0.1
		c0.03,0.04,0.06,0.07,0.08,0.11c0.03,0.04,0.05,0.08,0.07,0.12C7.43,4.9,7.45,4.94,7.46,4.99C7.48,5.03,7.5,5.07,7.51,5.12
		C7.52,5.16,7.54,5.2,7.54,5.25c0.01,0.04,0.02,0.09,0.02,0.14c0,0.05,0.01,0.09,0.01,0.14c0,0.05,0,0.09-0.01,0.14
		c0,0.04-0.01,0.09-0.02,0.14C7.54,5.84,7.52,5.89,7.51,5.93C7.5,5.97,7.48,6.02,7.46,6.06C7.45,6.1,7.43,6.14,7.41,6.18
		C7.38,6.22,7.36,6.26,7.33,6.3C7.31,6.34,7.28,6.38,7.25,6.41c-0.03,0.04-0.06,0.07-0.09,0.1C7.13,6.54,7.09,6.58,7.06,6.6
		C7.02,6.63,6.98,6.66,6.95,6.69C6.91,6.71,6.87,6.74,6.83,6.76C6.79,6.78,6.75,6.8,6.7,6.81C6.66,6.83,6.62,6.85,6.57,6.86
		C6.53,6.87,6.49,6.89,6.44,6.9C6.4,6.9,6.35,6.91,6.3,6.92c-0.05,0-0.09,0.01-0.14,0.01c-0.05,0-0.09,0-0.14-0.01
		c-0.05,0-0.09-0.01-0.14-0.02C5.85,6.89,5.8,6.87,5.76,6.86C5.71,6.85,5.67,6.83,5.63,6.81C5.59,6.8,5.54,6.78,5.5,6.76
		C5.46,6.74,5.42,6.71,5.39,6.69C5.35,6.66,5.31,6.63,5.27,6.6C5.24,6.58,5.2,6.54,5.17,6.51C4.91,6.25,4.76,5.89,4.76,5.52
		c0-0.05,0-0.09,0.01-0.14c0-0.05,0.01-0.09,0.02-0.14C4.8,5.2,4.81,5.16,4.82,5.12c0.01-0.04,0.03-0.09,0.05-0.13
		C4.88,4.94,4.9,4.9,4.93,4.86C4.95,4.82,4.97,4.78,5,4.74c0.03-0.04,0.05-0.08,0.08-0.11c0.03-0.04,0.06-0.07,0.09-0.1
		C5.2,4.5,5.24,4.47,5.27,4.44c0.04-0.03,0.07-0.06,0.11-0.08C5.42,4.33,5.46,4.31,5.5,4.29c0.04-0.02,0.08-0.04,0.12-0.06
		C5.67,4.21,5.71,4.2,5.76,4.18C5.8,4.17,5.85,4.16,5.89,4.15c0.05-0.01,0.09-0.02,0.14-0.02c0.09-0.01,0.18-0.01,0.28,0L6.17,4.12z
		 M15.26,4.12l0.14,0.01c0.05,0,0.09,0.01,0.14,0.02c0.04,0.01,0.09,0.02,0.13,0.03c0.04,0.01,0.09,0.03,0.13,0.05
		c0.04,0.02,0.08,0.04,0.12,0.06c0.04,0.02,0.08,0.04,0.12,0.07c0.04,0.03,0.08,0.05,0.11,0.08c0.04,0.03,0.07,0.06,0.1,0.09
		c0.03,0.03,0.06,0.07,0.09,0.1c0.03,0.04,0.06,0.07,0.08,0.11c0.02,0.04,0.05,0.08,0.07,0.12c0.02,0.04,0.04,0.08,0.06,0.12
		c0.02,0.04,0.03,0.08,0.05,0.13c0.01,0.04,0.02,0.09,0.03,0.13s0.02,0.09,0.02,0.14c0,0.05,0.01,0.09,0.01,0.14
		c0,0.05,0,0.09-0.01,0.14c0,0.04-0.01,0.09-0.02,0.14c-0.01,0.04-0.02,0.09-0.03,0.13c-0.01,0.04-0.03,0.09-0.05,0.13
		c-0.02,0.04-0.04,0.08-0.06,0.12c-0.02,0.04-0.05,0.08-0.07,0.12c-0.03,0.04-0.05,0.08-0.08,0.11c-0.03,0.04-0.06,0.07-0.09,0.1
		c-0.03,0.03-0.07,0.06-0.1,0.09c-0.04,0.03-0.07,0.06-0.11,0.08C16,6.71,15.96,6.74,15.92,6.76c-0.04,0.02-0.08,0.04-0.12,0.06
		c-0.04,0.02-0.09,0.03-0.13,0.05c-0.04,0.01-0.09,0.02-0.13,0.03c-0.05,0.01-0.09,0.02-0.14,0.02c-0.05,0-0.09,0.01-0.14,0.01
		c-0.05,0-0.09,0-0.14-0.01c-0.05,0-0.09-0.01-0.14-0.02c-0.04-0.01-0.09-0.02-0.13-0.03c-0.04-0.01-0.09-0.03-0.13-0.05
		c-0.04-0.02-0.08-0.04-0.12-0.06c-0.04-0.02-0.08-0.05-0.12-0.07c-0.04-0.03-0.08-0.05-0.11-0.08c-0.04-0.03-0.07-0.06-0.1-0.09
		c-0.03-0.03-0.06-0.07-0.09-0.1c-0.03-0.03-0.06-0.07-0.08-0.11c-0.03-0.04-0.05-0.08-0.07-0.12s-0.04-0.08-0.06-0.12
		c-0.02-0.04-0.03-0.09-0.05-0.13c-0.01-0.04-0.03-0.09-0.03-0.13c-0.01-0.04-0.02-0.09-0.02-0.14c0-0.05-0.01-0.09-0.01-0.14
		c0-0.05,0-0.09,0.01-0.14c0-0.05,0.01-0.09,0.02-0.14c0.01-0.04,0.02-0.09,0.03-0.13c0.01-0.04,0.03-0.09,0.05-0.13
		C13.98,4.94,14,4.9,14.02,4.86c0.02-0.04,0.05-0.08,0.07-0.12c0.03-0.04,0.05-0.08,0.08-0.11c0.03-0.04,0.06-0.07,0.09-0.1
		c0.03-0.03,0.07-0.06,0.1-0.09c0.04-0.03,0.07-0.06,0.11-0.08c0.04-0.03,0.08-0.05,0.12-0.07c0.04-0.02,0.08-0.04,0.12-0.06
		c0.04-0.02,0.09-0.03,0.13-0.05c0.04-0.01,0.09-0.03,0.13-0.03c0.05-0.01,0.09-0.02,0.14-0.02c0.09-0.01,0.18-0.01,0.28,0
		L15.26,4.12z"/>
</g>
</svg>
