<?xml version="1.0" encoding="utf-8"?>
<!-- Generator: Adobe Illustrator 24.1.1, SVG Export Plug-In . SVG Version: 6.00 Build 0)  -->
<svg version="1.1" id="Layer_1" xmlns="http://www.w3.org/2000/svg" xmlns:xlink="http://www.w3.org/1999/xlink" x="0px" y="0px"
	 viewBox="0 0 63.74 65.19" style="enable-background:new 0 0 63.74 65.19;" xml:space="preserve">
<style type="text/css">
	.st0{fill:url(#SVGID_3_);}
	.st1{fill:url(#SVGID_6_);}
	.st2{fill:#B3B2B3;}
	.st3{fill:#D39241;}
	.st4{fill:#315B51;}
	.st5{fill:#C8B34C;}
	.st6{fill:#2BB898;}
	.st7{fill:#385BA6;}
	.st8{fill:#515151;}
	.st9{fill:#F4E8AA;}
	.st10{fill:#FAC86E;}
	.st11{fill:#F4F4F4;}
	.st12{fill:#AD9944;}
	.st13{fill:#00A99D;}
	.st14{fill:#FFFFFF;}
	.st15{fill:url(#SVGID_7_);}
	.st16{fill:#C4AF4C;}
	.st17{fill-rule:evenodd;clip-rule:evenodd;fill:#C4AF4C;}
	.st18{filter:url(#Adobe_OpacityMaskFilter);}
	.st19{fill:url(#SVGID_9_);}
	.st20{mask:url(#SVGID_8_);fill-rule:evenodd;clip-rule:evenodd;fill:#C4AF4C;}
	.st21{filter:url(#Adobe_OpacityMaskFilter_1_);}
	.st22{fill:url(#SVGID_11_);}
	.st23{mask:url(#SVGID_10_);fill-rule:evenodd;clip-rule:evenodd;fill:#F0E4A6;}
	.st24{filter:url(#Adobe_OpacityMaskFilter_2_);}
	.st25{fill:url(#SVGID_13_);}
	.st26{mask:url(#SVGID_12_);fill-rule:evenodd;clip-rule:evenodd;fill:#F0E4A6;}
	.st27{filter:url(#Adobe_OpacityMaskFilter_3_);}
	.st28{fill:url(#SVGID_15_);}
	.st29{mask:url(#SVGID_14_);fill-rule:evenodd;clip-rule:evenodd;fill:#F0E4A6;}
	.st30{filter:url(#Adobe_OpacityMaskFilter_4_);}
	.st31{fill:url(#SVGID_17_);}
	.st32{mask:url(#SVGID_16_);fill-rule:evenodd;clip-rule:evenodd;fill:#F0E4A6;}
	.st33{opacity:0.5;fill-rule:evenodd;clip-rule:evenodd;fill:#C4AF4C;}
	.st34{filter:url(#Adobe_OpacityMaskFilter_5_);}
	.st35{fill:url(#SVGID_19_);}
	.st36{mask:url(#SVGID_18_);fill-rule:evenodd;clip-rule:evenodd;fill:#C4AF4C;}
	.st37{filter:url(#Adobe_OpacityMaskFilter_6_);}
	.st38{fill:url(#SVGID_21_);}
	.st39{mask:url(#SVGID_20_);fill-rule:evenodd;clip-rule:evenodd;fill:#C4AF4C;}
	.st40{filter:url(#Adobe_OpacityMaskFilter_7_);}
	.st41{fill:url(#SVGID_23_);}
	.st42{mask:url(#SVGID_22_);fill-rule:evenodd;clip-rule:evenodd;fill:#F0E4A6;}
	.st43{fill-rule:evenodd;clip-rule:evenodd;fill:#315B51;}
	.st44{filter:url(#Adobe_OpacityMaskFilter_8_);}
	.st45{fill:url(#SVGID_25_);}
	.st46{mask:url(#SVGID_24_);fill-rule:evenodd;clip-rule:evenodd;fill:#2BB494;}
	.st47{fill:#AFAEAF;}
	.st48{fill:none;stroke:#FFFFFF;stroke-width:0.25;stroke-miterlimit:10;}
	.st49{fill:#E0E0E0;}
	.st50{filter:url(#Adobe_OpacityMaskFilter_9_);}
	.st51{fill:url(#SVGID_27_);}
	.st52{mask:url(#SVGID_26_);fill-rule:evenodd;clip-rule:evenodd;fill:#C4AF4C;}
	.st53{filter:url(#Adobe_OpacityMaskFilter_10_);}
	.st54{fill:url(#SVGID_29_);}
	.st55{mask:url(#SVGID_28_);fill-rule:evenodd;clip-rule:evenodd;fill:#F0E4A6;}
	.st56{filter:url(#Adobe_OpacityMaskFilter_11_);}
	.st57{fill:url(#SVGID_31_);}
	.st58{mask:url(#SVGID_30_);fill-rule:evenodd;clip-rule:evenodd;fill:#F0E4A6;}
	.st59{filter:url(#Adobe_OpacityMaskFilter_12_);}
	.st60{fill:url(#SVGID_33_);}
	.st61{mask:url(#SVGID_32_);fill-rule:evenodd;clip-rule:evenodd;fill:#F0E4A6;}
	.st62{filter:url(#Adobe_OpacityMaskFilter_13_);}
	.st63{fill:url(#SVGID_35_);}
	.st64{mask:url(#SVGID_34_);fill-rule:evenodd;clip-rule:evenodd;fill:#F0E4A6;}
	.st65{filter:url(#Adobe_OpacityMaskFilter_14_);}
	.st66{fill:url(#SVGID_37_);}
	.st67{mask:url(#SVGID_36_);fill-rule:evenodd;clip-rule:evenodd;fill:#C4AF4C;}
	.st68{filter:url(#Adobe_OpacityMaskFilter_15_);}
	.st69{fill:url(#SVGID_39_);}
	.st70{mask:url(#SVGID_38_);fill-rule:evenodd;clip-rule:evenodd;fill:#C4AF4C;}
	.st71{fill:none;stroke:#2BB797;stroke-width:1.16;stroke-linecap:round;stroke-linejoin:round;stroke-miterlimit:10;}
	.st72{fill-rule:evenodd;clip-rule:evenodd;fill:none;stroke:#C6C6C6;stroke-width:0.5;stroke-miterlimit:10;}
	.st73{fill-rule:evenodd;clip-rule:evenodd;fill:none;stroke:#C6C6C6;stroke-width:0.75;stroke-miterlimit:10;}
	.st74{fill:#2BB797;}
	.st75{fill:#2BB797;stroke:#2BB797;stroke-width:0.7684;stroke-miterlimit:10;}
	.st76{clip-path:url(#SVGID_41_);fill:#BBBBBB;}
	.st77{clip-path:url(#SVGID_41_);fill:#959595;}
	.st78{clip-path:url(#SVGID_41_);}
	.st79{fill:#959595;}
	.st80{fill:#BBBBBB;}
	.st81{fill:none;stroke:#C6C6C6;stroke-width:0.5;stroke-miterlimit:10;}
	.st82{clip-path:url(#SVGID_43_);}
	.st83{fill-rule:evenodd;clip-rule:evenodd;fill:none;stroke:#C9C9C9;stroke-width:0.5;stroke-miterlimit:10;}
	.st84{fill:#B2B1B2;}
	.st85{fill:#4D4D4D;}
	.st86{fill:#A5CFE3;}
	.st87{fill:url(#);}
	.st88{fill:#9F9F9F;}
	.st89{clip-path:url(#SVGID_45_);fill:#E2E4E6;}
	.st90{clip-path:url(#SVGID_47_);fill:#E2E4E6;}
	.st91{clip-path:url(#SVGID_49_);fill:#E2E4E6;}
	.st92{fill:#CAE0ED;}
	.st93{fill:url(#SVGID_52_);}
	.st94{fill:url(#SVGID_55_);}
	.st95{fill:url(#SVGID_58_);}
	.st96{fill:url(#SVGID_61_);}
	.st97{fill:none;stroke:#B3B2B3;stroke-width:0.5;stroke-miterlimit:10;}
	.st98{fill:#6056DE;}
	.st99{fill:#F4F9F9;}
	.st100{fill:none;stroke:#808080;stroke-width:0.25;stroke-miterlimit:10;}
	.st101{fill:#FF9400;}
	.st102{fill:#4BD965;}
	.st103{fill:#007AFE;}
	.st104{fill:#7F7F7F;}
	.st105{fill:none;stroke:#515151;stroke-width:0.341;stroke-miterlimit:10;}
	.st106{fill:#FFFFFF;stroke:#515151;stroke-width:0.25;stroke-miterlimit:10;}
	.st107{fill:#353535;}
	.st108{fill:#6EB42D;}
	.st109{fill:#622BCC;}
	.st110{fill:#007DC5;}
	.st111{fill:#008ED4;}
	.st112{fill:#EBECEC;}
	.st113{fill:#008CC3;}
	.st114{fill:#E1E8EC;}
	.st115{fill:#DDE7EC;}
	.st116{fill:#FEFEFE;}
	.st117{fill:#F05931;}
	.st118{fill:#F37933;}
	.st119{fill:#EFE8E5;}
	.st120{fill:#EFE8E4;}
	.st121{fill:#C20E2E;}
	.st122{fill:#DC0330;}
	.st123{fill:#FFD745;}
	.st124{fill:#3473A5;}
	.st125{fill:#FFFFFF;stroke:#000000;stroke-width:0.9459;stroke-miterlimit:10;}
</style>
<g>
	<path class="st104" d="M22.14,23.21c-0.13-0.2-0.29-0.37-0.44-0.57c-0.07-0.09-0.13-0.15-0.2-0.24c-1.65-1.78-4.05-2.9-6.71-2.9
		c-5.01,0-9.06,3.98-9.06,8.88c0,1.69,0.48,3.25,1.32,4.6c0.22,0.37,0.48,0.73,0.75,1.06c0.81,1.01,1.85,1.91,3.08,2.66
		c1.96,1.19,4.27,1.67,6.53,1.63h9.41c0-0.53-0.48-9.23-4.49-14.84C22.29,23.38,22.22,23.29,22.14,23.21z"/>
	<path class="st104" d="M48.3,19.42c-2.66,0-5.06,1.12-6.71,2.9c-0.07,0.07-0.13,0.15-0.2,0.24c-0.15,0.18-0.31,0.37-0.44,0.57
		c-0.07,0.09-0.13,0.18-0.2,0.29c-4,5.61-4.49,14.31-4.49,14.84h9.41c2.24,0.02,4.55-0.46,6.53-1.63c1.23-0.75,2.26-1.65,3.08-2.66
		c0.29-0.33,0.53-0.68,0.75-1.06c0.84-1.34,1.32-2.9,1.32-4.6C57.36,23.4,53.31,19.42,48.3,19.42z"/>
	<path class="st104" d="M44.41,11.49c0-6.07-5.85-10.99-13.08-10.99c-7.21,0-13.08,4.93-13.08,10.99c0,4.88,3.8,9.04,9.04,10.47
		c0.37,0.11,0.77,0.07,1.08-0.13c0.4-0.22,0.66-0.66,0.57-1.43c-0.04-0.29-0.13-0.57-0.29-0.84c-0.13-0.26-0.33-0.66-0.4-0.95
		c-0.07-0.26-0.09-0.55-0.09-0.84c0-2.07,1.67-3.69,3.63-3.47c1.52,0.15,2.73,1.41,2.92,2.97c0.11,0.88-0.09,1.69-0.48,2.37
		c-0.24,0.4-0.4,0.86-0.33,1.34v0.02c0.09,0.7,0.75,1.14,1.39,0.97C40.56,20.57,44.41,16.39,44.41,11.49z"/>
	<path class="st104" d="M22.14,23.29c-0.13-0.2-0.29-0.37-0.44-0.57c-0.07-0.09-0.13-0.15-0.2-0.24c-1.65-1.76-4.05-2.9-6.71-2.9
		c-5.01,0-9.06,3.98-9.06,8.88c0,1.69,0.48,3.25,1.32,4.6c0.22,0.37,0.48,0.73,0.75,1.06c0.81,1.01,1.85,1.91,3.08,2.66
		c1.96,1.19,4.27,1.67,6.53,1.63h9.41c0-0.53-0.48-9.23-4.49-14.84C22.29,23.47,22.22,23.38,22.14,23.29z"/>
	<path class="st104" d="M48.3,19.51c-2.66,0-5.06,1.12-6.71,2.9c-0.07,0.07-0.13,0.15-0.2,0.24c-0.15,0.18-0.31,0.37-0.44,0.57
		c-0.07,0.09-0.13,0.18-0.2,0.29c-4,5.61-4.49,14.31-4.49,14.84h9.41c2.24,0.02,4.55-0.46,6.53-1.63c1.23-0.75,2.26-1.65,3.08-2.66
		c0.29-0.33,0.53-0.68,0.75-1.06c0.84-1.34,1.32-2.9,1.32-4.6C57.36,23.49,53.31,19.51,48.3,19.51z"/>
	<path class="st104" d="M44.41,11.57c0-6.07-5.85-10.99-13.08-10.99c-7.21,0-13.08,4.93-13.08,10.99c0,4.88,3.8,9.04,9.04,10.47
		c0.37,0.11,0.77,0.07,1.08-0.13c0.4-0.22,0.66-0.66,0.57-1.43c-0.04-0.29-0.13-0.57-0.29-0.84c-0.13-0.26-0.33-0.66-0.4-0.95
		c-0.07-0.26-0.09-0.55-0.09-0.84c0-2.07,1.67-3.69,3.63-3.47c1.47,0.18,2.68,1.43,2.88,2.99c0.11,0.88-0.09,1.69-0.48,2.37
		c-0.24,0.4-0.4,0.86-0.33,1.34v0.02c0.09,0.7,0.75,1.14,1.39,0.97C40.56,20.66,44.41,16.5,44.41,11.57z"/>
	<path class="st104" d="M1.27,45.83c0.02,0,0.02,0.02,0.04,0.04c0,0.02,0,0.07,0,0.09c0,0.13,0,0.31,0,0.48c0,0.18,0,0.37,0,0.57
		s0,0.37,0,0.57c0,0.18,0,0.35,0,0.48c0,0.15,0,0.35,0,0.55s0,0.42,0,0.66c0,0.22,0,0.46-0.02,0.7c-0.02,0.24-0.02,0.48-0.02,0.73
		s-0.02,0.46-0.02,0.68c0,0.22-0.02,0.42-0.04,0.59l-0.02,0.04c-0.02,0.04-0.04,0.09-0.09,0.13c-0.04,0.07-0.09,0.11-0.13,0.18
		c-0.04,0.07-0.09,0.13-0.13,0.2c-0.04,0.07-0.09,0.11-0.13,0.18c-0.04,0.07-0.07,0.09-0.09,0.09l0,0l0,0v-0.02
		c0-0.42-0.02-0.81-0.02-1.23s-0.02-0.81-0.02-1.19c0-0.37-0.02-0.75-0.04-1.08C0.5,48.95,0.5,48.67,0.48,48.4
		c0-0.07,0-0.15-0.02-0.26c0-0.11-0.02-0.22-0.02-0.37s-0.02-0.33-0.02-0.53c0-0.2-0.02-0.46-0.04-0.73
		c0.02-0.02,0.07-0.04,0.11-0.09c0.04-0.04,0.11-0.09,0.18-0.13c0.07-0.04,0.13-0.11,0.2-0.15c0.07-0.04,0.13-0.09,0.2-0.13
		c0.07-0.04,0.11-0.09,0.18-0.11C1.23,45.83,1.25,45.83,1.27,45.83z"/>
	<path class="st104" d="M3.32,48.27c0,0,0.07,0.04,0.13,0.11c0.09,0.07,0.18,0.15,0.31,0.29c0.13,0.11,0.26,0.24,0.4,0.42
		c0.15,0.15,0.29,0.33,0.42,0.51c0.13,0.18,0.26,0.37,0.37,0.57c0.11,0.2,0.18,0.4,0.24,0.59c0.02,0.11,0.04,0.22,0.04,0.31
		s0,0.13,0,0.18c0,0.13,0,0.26-0.02,0.4c-0.02,0.13-0.04,0.26-0.07,0.4s-0.07,0.24-0.11,0.31c-0.02,0.02-0.04,0.07-0.11,0.11
		c-0.07,0.04-0.15,0.09-0.26,0.13c-0.11,0.04-0.26,0.09-0.44,0.13c-0.18,0.04-0.4,0.04-0.64,0.04c-0.2,0-0.4,0-0.57-0.02
		s-0.33-0.04-0.48-0.07c-0.15-0.02-0.24-0.04-0.33-0.09c-0.09-0.02-0.13-0.04-0.13-0.07C2.04,52.47,2.02,52.43,2,52.34
		c-0.02-0.09-0.04-0.15-0.04-0.24c0-0.15,0-0.22-0.02-0.29c0-0.07,0-0.13,0-0.18v-0.04c0-0.02,0-0.07,0-0.11
		c0-0.04,0-0.07,0.02-0.07l0,0C2,51.44,2.04,51.46,2.13,51.5c0.09,0.02,0.18,0.07,0.31,0.09s0.29,0.07,0.46,0.07
		c0.18,0.02,0.37,0.02,0.62,0.02c0.11,0,0.22,0,0.33,0c0.13,0,0.24-0.02,0.35-0.04s0.24-0.07,0.35-0.11c0.11-0.04,0.2-0.11,0.29-0.2
		c-0.04-0.13-0.11-0.29-0.22-0.42c-0.09-0.13-0.2-0.29-0.33-0.42c-0.13-0.13-0.24-0.26-0.4-0.4s-0.29-0.26-0.42-0.37
		c-0.13-0.11-0.26-0.22-0.4-0.33c-0.13-0.11-0.24-0.2-0.35-0.29c0.04-0.07,0.09-0.13,0.11-0.2c0.04-0.07,0.09-0.13,0.11-0.18
		c0.02-0.04,0.07-0.09,0.09-0.15c0.04-0.07,0.07-0.11,0.11-0.15c0.04-0.04,0.07-0.09,0.09-0.13C3.29,48.29,3.32,48.27,3.32,48.27z"
		/>
	<path class="st104" d="M1.42,55.26L1.42,55.26L1.42,55.26z M6.85,50.1C6.85,50.1,6.88,50.1,6.85,50.1c0.07,0.11,0.11,0.2,0.15,0.31
		c0.04,0.11,0.11,0.22,0.18,0.33c0.07,0.11,0.13,0.22,0.2,0.33c0.07,0.11,0.15,0.2,0.22,0.29c0.09,0.09,0.15,0.15,0.24,0.2
		c0.09,0.04,0.18,0.09,0.26,0.09h0.04v1.03H8.13c-0.09,0-0.18-0.02-0.31-0.04s-0.24-0.09-0.37-0.18c0,0.07,0,0.15,0,0.22
		c0,0.22-0.04,0.44-0.11,0.66c-0.07,0.22-0.18,0.44-0.29,0.64s-0.29,0.4-0.46,0.55c-0.18,0.15-0.33,0.29-0.48,0.4
		c-0.15,0.11-0.31,0.2-0.44,0.24c-0.13,0.04-0.22,0.09-0.29,0.09c-0.02,0-0.02,0-0.02,0c-0.07-0.02-0.15-0.07-0.24-0.11
		c-0.09-0.04-0.2-0.11-0.31-0.15c-0.02-0.02-0.07-0.04-0.13-0.07c-0.04-0.02-0.11-0.07-0.18-0.09c-0.07-0.02-0.11-0.07-0.18-0.09
		c-0.04-0.02-0.09-0.04-0.13-0.07c-0.02-0.02-0.04-0.04-0.04-0.04s0,0,0.02-0.02l0.02-0.02c0.4-0.11,0.75-0.24,1.08-0.4
		c0.33-0.15,0.62-0.31,0.84-0.48c0.29-0.2,0.46-0.4,0.59-0.62c0.13-0.22,0.2-0.44,0.22-0.7c-0.07-0.13-0.11-0.24-0.15-0.33
		c-0.04-0.09-0.09-0.2-0.15-0.29c-0.07-0.09-0.11-0.2-0.15-0.33c-0.04-0.13-0.13-0.29-0.2-0.46c0.02-0.02,0.04-0.07,0.07-0.11
		c0.02-0.07,0.07-0.13,0.11-0.2c0.04-0.07,0.09-0.13,0.13-0.2c0.04-0.07,0.09-0.13,0.13-0.2c0.04-0.07,0.09-0.11,0.11-0.13
		C6.83,50.12,6.85,50.1,6.85,50.1z"/>
	<path class="st104" d="M11.01,51.66v1.03H8v-1.03H11.01z"/>
	<path class="st104" d="M12.84,48.36c0.15,0,0.29,0.02,0.42,0.09c0.13,0.07,0.24,0.15,0.35,0.26c0.11,0.11,0.2,0.24,0.26,0.37
		c0.07,0.13,0.13,0.29,0.2,0.44c0.04,0.15,0.09,0.31,0.13,0.46s0.07,0.31,0.09,0.44c0.02,0.18,0.04,0.35,0.04,0.53
		c0,0.11,0,0.26-0.02,0.42c-0.02,0.18-0.09,0.33-0.18,0.51c-0.11,0.15-0.24,0.31-0.42,0.4c-0.18,0.11-0.37,0.18-0.62,0.24
		c-0.24,0.07-0.51,0.09-0.81,0.11c-0.31,0.02-0.64,0.02-1.01,0.02h-0.42v-1.03h0.4c0.18,0,0.37,0,0.57,0s0.4,0,0.59-0.02
		c0.2-0.02,0.37-0.02,0.55-0.04c0.18-0.02,0.33-0.04,0.46-0.09c0.13-0.04,0.24-0.09,0.31-0.15c0.07-0.07,0.11-0.13,0.11-0.2v-0.02
		c-0.04,0.02-0.11,0.02-0.18,0.04c-0.07,0-0.13,0.02-0.2,0.02c-0.09,0-0.18,0-0.29,0c-0.07,0-0.11,0-0.18,0c-0.07,0-0.13,0-0.2-0.02
		c-0.22-0.02-0.42-0.07-0.59-0.13c-0.18-0.02-0.33-0.11-0.42-0.22c-0.11-0.11-0.18-0.22-0.22-0.33s-0.07-0.22-0.07-0.33
		c0-0.07,0-0.11,0.02-0.18c0-0.04,0.02-0.11,0.02-0.2c0-0.09,0.04-0.2,0.09-0.31c0.04-0.11,0.09-0.24,0.15-0.37
		c0.07-0.13,0.13-0.24,0.24-0.35c0.09-0.11,0.2-0.2,0.35-0.26C12.51,48.4,12.66,48.36,12.84,48.36z M13.19,50.27
		c0.09,0,0.18,0,0.24,0c0.07,0,0.13,0,0.18-0.02c0.04,0,0.11-0.02,0.13-0.02c0-0.02-0.02-0.09-0.04-0.13
		c-0.02-0.07-0.04-0.13-0.09-0.2c-0.04-0.07-0.09-0.15-0.13-0.22c-0.04-0.09-0.11-0.15-0.18-0.2c-0.07-0.07-0.15-0.11-0.24-0.15
		c-0.09-0.04-0.2-0.07-0.31-0.07c-0.18,0-0.33,0.02-0.44,0.09c-0.11,0.07-0.2,0.13-0.26,0.22c-0.07,0.09-0.11,0.18-0.13,0.24
		c-0.02,0.09-0.04,0.13-0.04,0.18c0.02,0.04,0.09,0.09,0.15,0.11c0.07,0.02,0.18,0.07,0.31,0.09c0.13,0.02,0.31,0.04,0.55,0.07
		C12.97,50.27,13.1,50.27,13.19,50.27z M12.75,47.79l-0.73-0.73l0.73-0.73l0.73,0.73L12.75,47.79z"/>
	<path class="st104" d="M20.35,50.23c0,0,0.02,0.02,0.02,0.04c0.13,0.26,0.24,0.51,0.35,0.68c0.09,0.18,0.2,0.33,0.29,0.44
		s0.18,0.18,0.29,0.22c0.09,0.04,0.22,0.07,0.35,0.07c0.07,0,0.15,0,0.22-0.02c0.09-0.02,0.15-0.04,0.22-0.07
		c0.07-0.02,0.13-0.07,0.2-0.11c0.07-0.04,0.11-0.11,0.15-0.15c0.04-0.09,0.09-0.15,0.11-0.22c0.02-0.07,0.07-0.13,0.09-0.2
		c0.02-0.07,0.04-0.13,0.09-0.2c0.02-0.07,0.04-0.15,0.09-0.26l0.55-0.18c-0.02,0.13-0.07,0.29-0.09,0.44
		c-0.04,0.15-0.09,0.33-0.13,0.53c0.02,0.09,0.07,0.15,0.11,0.22c0.04,0.07,0.11,0.11,0.18,0.13s0.13,0.07,0.22,0.07
		c0.07,0,0.15,0.02,0.22,0.02c0.18,0,0.33-0.02,0.44-0.09c0.11-0.07,0.2-0.15,0.26-0.26c0.07-0.11,0.11-0.24,0.15-0.4
		c0.02-0.15,0.07-0.31,0.09-0.51l0.51-0.18c0,0.13-0.02,0.24-0.02,0.37c-0.02,0.11-0.02,0.2-0.04,0.33
		c-0.02,0.11-0.02,0.22-0.07,0.29c0.04,0.11,0.09,0.18,0.18,0.24c0.07,0.07,0.15,0.11,0.26,0.13c0.11,0.02,0.2,0.04,0.31,0.04
		c0.11,0,0.22,0,0.33,0v1.03c-0.2,0-0.37-0.02-0.53-0.07s-0.29-0.11-0.4-0.18c-0.11-0.07-0.2-0.18-0.26-0.26
		c-0.07-0.11-0.11-0.22-0.13-0.33c-0.13,0.29-0.29,0.48-0.46,0.62c-0.18,0.13-0.4,0.22-0.64,0.22c-0.13,0-0.26-0.02-0.35-0.07
		s-0.2-0.09-0.26-0.18c-0.07-0.07-0.13-0.15-0.2-0.26c-0.07-0.11-0.11-0.22-0.15-0.35c-0.07,0.11-0.13,0.22-0.2,0.33
		s-0.15,0.2-0.24,0.26c-0.09,0.07-0.2,0.13-0.33,0.18c-0.13,0.04-0.26,0.07-0.44,0.07c-0.09,0-0.2,0-0.29-0.02s-0.15-0.04-0.22-0.07
		c-0.07-0.02-0.11-0.04-0.15-0.07c-0.04-0.02-0.07-0.04-0.07-0.04c0,0.42-0.07,0.79-0.18,1.14c-0.13,0.35-0.31,0.64-0.55,0.88
		c-0.24,0.24-0.55,0.44-0.9,0.57s-0.77,0.2-1.23,0.2c-0.33,0-0.64-0.04-0.92-0.13s-0.53-0.2-0.73-0.37
		c-0.2-0.18-0.37-0.37-0.48-0.64c-0.11-0.26-0.18-0.48-0.2-0.66c0-0.2-0.02-0.31-0.02-0.35c0-0.31,0.04-0.66,0.13-1.08
		c0.09-0.42,0.26-0.88,0.48-1.41l0.37,0.2c-0.07,0.18-0.11,0.35-0.18,0.55c-0.07,0.2-0.11,0.37-0.15,0.57
		c-0.04,0.2-0.13,0.35-0.15,0.48c-0.02,0.13-0.02,0.24-0.02,0.31c0,0.09,0,0.22,0.02,0.33c0.02,0.13,0.07,0.26,0.13,0.4
		c0.07,0.13,0.18,0.26,0.31,0.37s0.31,0.18,0.51,0.24c0.2,0.07,0.46,0.09,0.75,0.09c0.35,0,0.66-0.02,0.92-0.09
		c0.26-0.04,0.48-0.13,0.68-0.24c0.2-0.11,0.35-0.26,0.48-0.42c0.13-0.18,0.22-0.37,0.29-0.62c-0.09-0.31-0.2-0.59-0.31-0.88
		c-0.11-0.29-0.22-0.55-0.31-0.81c0.04-0.07,0.09-0.15,0.15-0.24c0.04-0.09,0.11-0.15,0.13-0.22c0.07-0.09,0.11-0.18,0.18-0.26
		c0.07-0.09,0.09-0.11,0.11-0.13C20.33,50.23,20.33,50.23,20.35,50.23z M22.27,49.26l-0.64-0.64l0.64-0.64l0.64,0.64L22.27,49.26z
		 M23.02,48.1l-0.64-0.64l0.64-0.64l0.64,0.64L23.02,48.1z M23.74,49.26l-0.64-0.64l0.64-0.64l0.64,0.64L23.74,49.26z"/>
	<path class="st104" d="M29.04,51.66v1.03h-3.01v-1.03H29.04z"/>
	<path class="st104" d="M31.9,49.52c0.11,0,0.22,0.02,0.33,0.09c0.11,0.07,0.22,0.15,0.33,0.26c0.11,0.11,0.2,0.24,0.29,0.4
		s0.18,0.33,0.22,0.51c0.07,0.18,0.11,0.35,0.13,0.53s0.02,0.31,0.02,0.42c0,0.09,0,0.2-0.02,0.29l-0.64,0.7
		c-0.02,0.02-0.07,0.02-0.13,0.02c-0.07,0-0.18,0-0.29-0.04c-0.11-0.02-0.24-0.04-0.37-0.09c-0.13-0.04-0.26-0.09-0.42-0.13
		c-0.13-0.04-0.29-0.11-0.42-0.18c-0.13-0.07-0.24-0.13-0.35-0.2c-0.11-0.07-0.2-0.13-0.24-0.2c-0.09,0.18-0.2,0.31-0.31,0.4
		c-0.11,0.09-0.24,0.18-0.37,0.22c-0.13,0.04-0.26,0.09-0.4,0.09c-0.13,0-0.26,0.02-0.4,0.02H28.8v-1.03h0.46
		c0.11,0,0.22-0.02,0.33-0.09c0.11-0.07,0.2-0.13,0.31-0.24c0.09-0.09,0.2-0.22,0.29-0.33c0.09-0.11,0.2-0.26,0.29-0.4
		c0.09-0.13,0.2-0.26,0.29-0.4c0.11-0.13,0.2-0.24,0.31-0.33c0.11-0.11,0.22-0.18,0.35-0.24C31.61,49.57,31.74,49.52,31.9,49.52z
		 M32.76,51.77c0.04,0,0.07,0,0.09-0.02c0-0.2-0.04-0.4-0.11-0.57c-0.07-0.18-0.15-0.33-0.24-0.46s-0.2-0.24-0.31-0.31
		c-0.11-0.07-0.2-0.11-0.29-0.11s-0.18,0.02-0.26,0.04c-0.07,0.02-0.15,0.09-0.22,0.15c-0.07,0.07-0.15,0.15-0.22,0.26
		c-0.07,0.11-0.15,0.24-0.26,0.37c0.07,0.04,0.15,0.11,0.24,0.15c0.11,0.04,0.22,0.09,0.33,0.15c0.11,0.04,0.24,0.09,0.37,0.13
		c0.13,0.04,0.24,0.07,0.35,0.11c0.11,0.04,0.22,0.04,0.31,0.07S32.69,51.77,32.76,51.77z"/>
	<path class="st104" d="M34.67,45.83c0.02,0,0.02,0.02,0.04,0.04c0,0.02,0,0.07,0,0.09c0,0.13,0,0.31,0,0.48c0,0.18,0,0.37,0,0.57
		s0,0.37,0,0.57c0,0.18,0,0.35,0,0.48c0,0.15,0,0.35,0,0.55s0,0.42,0,0.66c0,0.22,0,0.46-0.02,0.7c-0.02,0.24-0.02,0.48-0.02,0.73
		s-0.02,0.46-0.02,0.68c0,0.22-0.02,0.42-0.04,0.59l-0.02,0.04c-0.02,0.04-0.04,0.09-0.09,0.13c-0.04,0.07-0.09,0.11-0.13,0.18
		s-0.09,0.13-0.13,0.2c-0.04,0.07-0.09,0.11-0.13,0.18c-0.04,0.07-0.07,0.09-0.09,0.09l0,0l0,0v-0.02c0-0.42-0.02-0.81-0.02-1.23
		s-0.02-0.81-0.02-1.19c0-0.37-0.02-0.75-0.04-1.08c-0.02-0.33-0.02-0.62-0.04-0.88c0-0.07,0-0.15-0.02-0.26
		c0-0.11-0.02-0.22-0.02-0.37s-0.02-0.33-0.02-0.53c0-0.2-0.02-0.46-0.04-0.73c0.02-0.02,0.07-0.04,0.11-0.09
		c0.04-0.04,0.11-0.09,0.18-0.13c0.07-0.04,0.13-0.11,0.2-0.15c0.07-0.04,0.13-0.09,0.2-0.13c0.07-0.04,0.11-0.09,0.18-0.11
		C34.62,45.83,34.67,45.83,34.67,45.83z"/>
	<path class="st104" d="M36.49,50.1c0.02,0.02,0.07,0.07,0.11,0.15c0.04,0.09,0.09,0.2,0.13,0.33s0.11,0.29,0.15,0.44
		c0.04,0.15,0.11,0.33,0.15,0.48c0.04,0.15,0.09,0.33,0.11,0.48c0.02,0.15,0.04,0.29,0.04,0.42c0,0.04,0,0.09,0,0.13
		c0,0.26-0.04,0.53-0.11,0.77c-0.09,0.24-0.2,0.48-0.33,0.68c-0.13,0.22-0.29,0.4-0.46,0.55c-0.18,0.15-0.33,0.29-0.51,0.4
		c-0.18,0.11-0.31,0.18-0.42,0.22c-0.13,0.04-0.2,0.09-0.24,0.09c-0.02-0.02-0.07-0.04-0.13-0.07s-0.13-0.07-0.22-0.11
		c-0.09-0.04-0.2-0.11-0.35-0.18c-0.13-0.07-0.29-0.15-0.48-0.26c-0.02-0.02-0.04-0.02-0.04-0.04c0,0,0-0.02,0.02-0.02l0.02-0.02
		c0.2-0.07,0.42-0.13,0.62-0.2c0.22-0.09,0.42-0.18,0.62-0.26c0.2-0.11,0.37-0.22,0.55-0.33c0.18-0.11,0.33-0.24,0.46-0.4
		s0.24-0.29,0.31-0.46c0.07-0.18,0.13-0.33,0.13-0.53c-0.07-0.13-0.11-0.24-0.18-0.33c-0.07-0.11-0.11-0.2-0.18-0.31
		c-0.07-0.09-0.13-0.2-0.2-0.31s-0.15-0.24-0.24-0.4c0.04-0.09,0.09-0.18,0.15-0.29c0.07-0.11,0.13-0.22,0.2-0.31
		c0.07-0.09,0.13-0.18,0.18-0.24C36.41,50.12,36.47,50.1,36.49,50.1L36.49,50.1z"/>
	<path class="st104" d="M39.95,45.19c-0.04,0.07-0.09,0.13-0.15,0.22c-0.07,0.09-0.13,0.18-0.22,0.24
		c-0.09,0.09-0.18,0.15-0.29,0.22c-0.11,0.07-0.22,0.11-0.35,0.11c-0.04,0-0.11,0-0.15,0.02c-0.04,0-0.11,0-0.15,0
		c-0.2,0-0.4-0.02-0.57-0.04s-0.33-0.04-0.46-0.07c-0.09,0.02-0.18,0.07-0.24,0.13c-0.07,0.07-0.13,0.13-0.2,0.2l-0.11-0.07
		c0.02-0.09,0.04-0.18,0.07-0.29c0.04-0.11,0.09-0.2,0.13-0.31c0.04-0.11,0.11-0.2,0.18-0.26c0.07-0.09,0.13-0.13,0.22-0.18
		c0.11,0.02,0.22,0.04,0.31,0.04c0.09,0.02,0.2,0.04,0.31,0.04c0.11,0.02,0.24,0.02,0.37,0.04c0.13,0,0.29,0.02,0.48,0.02
		c0.09,0,0.18,0,0.26-0.02c0.09-0.02,0.15-0.02,0.22-0.04c0.07-0.02,0.13-0.04,0.18-0.07c0.04-0.02,0.09-0.04,0.13-0.07L39.95,45.19
		z M38.8,46.27c0.02,0,0.02,0.02,0.02,0.04c0,0.02,0,0.07,0,0.09c0.02,0.46,0.02,0.92,0.02,1.39c0,0.46,0,0.9-0.02,1.36
		c-0.02,0.46-0.02,0.92-0.04,1.39s-0.04,0.95-0.09,1.43l-0.04,0.04c-0.02,0.04-0.04,0.09-0.09,0.13c-0.04,0.07-0.09,0.11-0.13,0.18
		c-0.04,0.07-0.09,0.13-0.13,0.2c-0.04,0.07-0.09,0.11-0.13,0.18c-0.04,0.07-0.07,0.09-0.09,0.09l0,0l0,0v-0.02
		c0-0.35,0-0.68-0.02-0.97c0-0.29,0-0.55-0.02-0.79c0-0.24-0.02-0.46-0.02-0.68c0-0.2-0.02-0.42-0.02-0.62c0-0.2-0.02-0.4-0.02-0.59
		c0-0.2-0.02-0.4-0.04-0.62c-0.02-0.22-0.02-0.46-0.04-0.73c-0.02-0.26-0.02-0.55-0.04-0.86c0.02-0.02,0.07-0.04,0.11-0.09
		c0.04-0.04,0.11-0.09,0.18-0.13c0.07-0.04,0.13-0.11,0.2-0.15c0.07-0.04,0.13-0.09,0.2-0.13c0.07-0.04,0.11-0.09,0.15-0.11
		C38.71,46.27,38.78,46.27,38.8,46.27z"/>
	<path class="st104" d="M46.15,49.19c0.2,0,0.42,0.02,0.62,0.07l-0.33,0.99c-0.11-0.02-0.24-0.02-0.35-0.02
		c-0.24,0-0.46,0.04-0.66,0.11c-0.2,0.07-0.37,0.18-0.55,0.29c-0.18,0.13-0.31,0.26-0.44,0.44c-0.13,0.18-0.26,0.33-0.37,0.53
		c0.11,0.07,0.22,0.13,0.37,0.18s0.31,0.09,0.48,0.15c0.18,0.04,0.33,0.09,0.51,0.13c0.18,0.04,0.33,0.09,0.46,0.13
		c0.13,0.04,0.26,0.11,0.35,0.15c0.09,0.07,0.15,0.13,0.18,0.2c0.04,0.11,0.04,0.22,0.07,0.29c0.02,0.07,0,0.13,0,0.18
		c0,0.07,0,0.15-0.02,0.24c0,0.09-0.02,0.18-0.04,0.29c-0.02,0.09-0.07,0.18-0.09,0.26c-0.11,0.18-0.24,0.35-0.44,0.51
		c-0.18,0.15-0.4,0.31-0.64,0.44c-0.24,0.13-0.53,0.24-0.86,0.33c-0.33,0.09-0.66,0.15-1.03,0.18c-0.11,0-0.22,0.02-0.33,0.02
		c-0.29,0-0.57-0.02-0.84-0.07c-0.26-0.04-0.51-0.13-0.73-0.24c-0.22-0.11-0.42-0.29-0.57-0.46c-0.15-0.2-0.26-0.42-0.31-0.64
		c-0.04-0.24-0.09-0.46-0.09-0.68c0-0.13,0.02-0.33,0.04-0.62c0.02-0.26,0.13-0.66,0.31-1.19c0.02-0.04,0.04-0.11,0.07-0.2
		c0.02-0.09,0.07-0.18,0.09-0.26c0.04-0.09,0.07-0.2,0.11-0.29c0.04-0.09,0.07-0.18,0.11-0.24l0.37,0.2
		c-0.04,0.11-0.07,0.22-0.13,0.37c-0.04,0.15-0.09,0.29-0.13,0.46c-0.04,0.18-0.09,0.37-0.15,0.57c-0.04,0.22-0.07,0.37-0.09,0.51
		c0,0.13-0.02,0.22-0.02,0.26c0,0.15,0.02,0.33,0.07,0.51c0.04,0.18,0.13,0.33,0.26,0.48s0.31,0.26,0.55,0.37
		c0.24,0.11,0.55,0.13,0.92,0.13c0.07,0,0.15,0,0.22,0c0.07,0,0.15,0,0.24-0.02c0.4-0.02,0.73-0.09,1.01-0.13
		c0.29-0.07,0.51-0.13,0.7-0.2c0.2-0.07,0.35-0.18,0.48-0.26s0.24-0.2,0.35-0.31c-0.11-0.04-0.24-0.11-0.4-0.15
		s-0.33-0.09-0.51-0.13c-0.18-0.04-0.35-0.11-0.53-0.15s-0.33-0.11-0.48-0.2c-0.13-0.07-0.26-0.15-0.33-0.24
		c-0.09-0.09-0.11-0.2-0.11-0.31v-0.02c0.02-0.42,0.11-0.81,0.26-1.14c0.15-0.35,0.33-0.64,0.57-0.9c0.24-0.26,0.51-0.44,0.81-0.59
		C45.49,49.26,45.82,49.19,46.15,49.19z"/>
	<path class="st104" d="M48.34,45.81c0.02,0,0.02,0.02,0.02,0.04c0,0.02,0,0.07,0,0.09c0.02,0.46,0.04,0.86,0.07,1.23
		c0,0.37,0.02,0.73,0.02,1.03s0,0.62,0,0.88s0,0.55,0,0.79c0,0.26,0,0.53,0,0.77c0,0.26,0.02,0.53,0.04,0.81
		c0.11,0.07,0.22,0.11,0.31,0.13c0.11,0.02,0.22,0.04,0.35,0.04h0.24v1.03h-0.22c-0.26,0-0.48-0.02-0.66-0.09
		c-0.18-0.07-0.33-0.15-0.46-0.26c-0.11-0.11-0.22-0.26-0.26-0.42c-0.07-0.15-0.09-0.35-0.09-0.55c0-0.22-0.02-0.46-0.02-0.7
		c0-0.24-0.02-0.51-0.04-0.77c-0.02-0.26-0.02-0.53-0.04-0.79s-0.04-0.53-0.07-0.79c-0.02-0.31-0.04-0.62-0.09-0.92
		c-0.02-0.31-0.07-0.62-0.09-0.92c0.02-0.02,0.07-0.04,0.11-0.09s0.11-0.09,0.18-0.13c0.07-0.04,0.13-0.09,0.2-0.15
		c0.07-0.04,0.13-0.09,0.2-0.13c0.07-0.04,0.11-0.07,0.15-0.09C48.3,45.81,48.32,45.81,48.34,45.81z"/>
	<path class="st104" d="M51.38,49.06c0.13,0,0.26,0.02,0.37,0.09c0.11,0.07,0.2,0.13,0.29,0.22s0.15,0.2,0.22,0.33
		c0.07,0.13,0.11,0.24,0.15,0.37c0.04,0.13,0.07,0.26,0.09,0.4s0.04,0.24,0.04,0.37c-0.02,0.09-0.02,0.18-0.04,0.24
		c0,0.07-0.02,0.13-0.04,0.2c-0.02,0.07-0.04,0.11-0.07,0.18c-0.02,0.04-0.07,0.11-0.11,0.2c0,0,0.02,0,0.04,0s0.07,0,0.11,0
		c0.04,0,0.09,0,0.13,0c0.04,0,0.09,0,0.13,0c0.11,0,0.22,0,0.35,0h0.35v1.03h-0.4c-0.31,0-0.57-0.02-0.79-0.04
		c-0.22-0.02-0.37-0.07-0.53-0.09c-0.15-0.04-0.29-0.09-0.37-0.13c-0.11,0.04-0.26,0.09-0.42,0.13c-0.13,0.02-0.31,0.07-0.48,0.09
		c-0.2,0.02-0.42,0.04-0.66,0.04h-0.51v-1.03h0.48c0.07,0,0.13,0,0.22,0c0.07,0,0.13,0,0.2,0c0.07,0,0.13,0,0.2-0.02
		c-0.04-0.04-0.09-0.11-0.11-0.2c-0.02-0.07-0.07-0.13-0.09-0.22c-0.02-0.09-0.07-0.18-0.07-0.29c0-0.11,0.02-0.22,0.04-0.37
		c0.02-0.13,0.07-0.26,0.11-0.42c0.04-0.13,0.11-0.26,0.18-0.4c0.07-0.13,0.15-0.24,0.26-0.35c0.09-0.11,0.22-0.18,0.33-0.24
		C51.11,49.08,51.25,49.06,51.38,49.06z M51.36,51.44c0.04-0.02,0.11-0.04,0.2-0.07c0.09-0.02,0.15-0.07,0.24-0.13
		c0.09-0.04,0.15-0.11,0.22-0.18c0.07-0.07,0.11-0.15,0.13-0.26c-0.04-0.09-0.09-0.18-0.13-0.26c-0.07-0.09-0.13-0.18-0.2-0.24
		c-0.09-0.07-0.18-0.13-0.26-0.18c-0.11-0.04-0.2-0.07-0.33-0.07c-0.11,0-0.22,0.02-0.31,0.07c-0.09,0.04-0.18,0.09-0.24,0.15
		c-0.07,0.07-0.13,0.15-0.18,0.24c-0.04,0.09-0.09,0.2-0.09,0.33c0.02,0.07,0.09,0.13,0.15,0.18c0.07,0.07,0.15,0.11,0.24,0.18
		c0.09,0.04,0.18,0.09,0.29,0.13C51.18,51.39,51.27,51.42,51.36,51.44z M51.38,48.38l-0.73-0.73l0.73-0.73l0.73,0.73L51.38,48.38z"
		/>
	<path class="st104" d="M56.26,51.66v1.03h-3.01v-1.03H56.26z"/>
	<path class="st104" d="M61.67,49.3c0.18,0,0.33,0.02,0.46,0.07s0.24,0.11,0.35,0.18c0.09,0.07,0.18,0.15,0.24,0.24
		c0.07,0.09,0.11,0.18,0.15,0.29c0.11,0.24,0.15,0.51,0.15,0.84c-0.07,0.18-0.11,0.37-0.2,0.57c-0.09,0.2-0.15,0.37-0.24,0.53
		c-0.13,0.13-0.29,0.26-0.48,0.35c-0.2,0.09-0.4,0.18-0.64,0.24c-0.22,0.07-0.46,0.11-0.7,0.13c-0.24,0.02-0.48,0.04-0.73,0.04
		c-0.2,0-0.4,0-0.57-0.02s-0.35-0.04-0.51-0.07s-0.29-0.07-0.4-0.11c-0.11-0.04-0.2-0.09-0.24-0.13c-0.13-0.11-0.24-0.26-0.33-0.4
		c-0.09-0.15-0.13-0.31-0.15-0.46c-0.09,0.2-0.18,0.35-0.29,0.51c-0.11,0.13-0.24,0.26-0.37,0.35c-0.13,0.09-0.29,0.15-0.46,0.2
		c-0.18,0.04-0.37,0.07-0.57,0.07h-0.09v-1.03h0.09c0.29,0,0.53-0.04,0.73-0.13c0.2-0.09,0.35-0.2,0.46-0.33
		c0.11-0.13,0.22-0.29,0.31-0.46c0.09-0.18,0.15-0.33,0.22-0.51l0.53-0.18c-0.07,0.13-0.09,0.26-0.11,0.4
		c-0.02,0.13-0.02,0.22-0.02,0.31c0,0.07,0,0.13,0.02,0.24s0.04,0.2,0.11,0.31c0.07,0.11,0.15,0.18,0.26,0.22
		c0.07-0.09,0.15-0.22,0.26-0.37c0.11-0.15,0.24-0.31,0.4-0.46s0.31-0.33,0.48-0.48c0.18-0.18,0.37-0.31,0.57-0.46
		c0.2-0.15,0.42-0.24,0.64-0.33S61.45,49.3,61.67,49.3z M60.17,51.81c0.18,0,0.37,0,0.59-0.02c0.2-0.02,0.42-0.07,0.64-0.11
		c0.22-0.04,0.42-0.13,0.62-0.22c0.2-0.09,0.4-0.2,0.57-0.35c0-0.04,0-0.07,0-0.09c0-0.09-0.02-0.18-0.04-0.29
		c-0.04-0.09-0.09-0.18-0.18-0.24c-0.09-0.07-0.2-0.11-0.33-0.15c-0.13-0.04-0.26-0.04-0.44-0.04s-0.35,0.02-0.53,0.07
		c-0.18,0.04-0.35,0.11-0.51,0.18c-0.18,0.07-0.33,0.15-0.48,0.24c-0.15,0.09-0.29,0.2-0.42,0.29c-0.13,0.11-0.24,0.2-0.35,0.31
		c-0.11,0.11-0.18,0.2-0.24,0.29c0.04,0,0.09,0.02,0.15,0.02c0.07,0.02,0.15,0.02,0.24,0.04c0.09,0.02,0.2,0.02,0.33,0.02
		S60.04,51.81,60.17,51.81z"/>
	<path class="st104" d="M1.49,59.84c0.09,0,0.18,0.04,0.24,0.09c0.07,0.04,0.13,0.11,0.18,0.2C1.95,60.21,2,60.3,2.02,60.39
		c0.02,0.09,0.07,0.2,0.07,0.31c0.02,0.09,0.02,0.2,0.04,0.29c0,0.09,0.02,0.18,0.02,0.24c0.02,0.15,0.04,0.31,0.07,0.44
		c0.02,0.13,0.07,0.24,0.11,0.33c0.04,0.09,0.09,0.18,0.13,0.24c0.04,0.07,0.09,0.13,0.13,0.18l-0.2,0.51
		c-0.09-0.09-0.15-0.18-0.22-0.31s-0.11-0.26-0.13-0.4C2,62.08,1.97,61.92,1.95,61.79c-0.02-0.13-0.02-0.26-0.02-0.4
		c-0.02,0-0.07,0.02-0.11,0.02s-0.09,0.02-0.13,0.02c-0.07,0-0.11,0-0.2,0c-0.09,0-0.18-0.02-0.24-0.04s-0.15-0.07-0.22-0.13
		c-0.07-0.07-0.11-0.13-0.13-0.22c-0.04-0.07-0.04-0.15-0.04-0.24c0-0.02,0-0.04,0-0.07c0-0.04,0-0.09,0.02-0.15
		c0-0.07,0.02-0.13,0.04-0.2c0.02-0.07,0.04-0.13,0.09-0.2c0.04-0.07,0.09-0.13,0.13-0.18c0.04-0.04,0.11-0.09,0.15-0.13
		C1.34,59.84,1.42,59.84,1.49,59.84z M1.51,60.94c0.07,0,0.11,0,0.15,0c0.04,0,0.09,0,0.13-0.02c0.04,0,0.09-0.02,0.11-0.02
		c0-0.02,0-0.04-0.02-0.09c0-0.04-0.02-0.09-0.04-0.11s-0.04-0.09-0.07-0.13c-0.02-0.04-0.07-0.09-0.09-0.11
		c-0.04-0.04-0.09-0.07-0.13-0.09c-0.04-0.02-0.11-0.02-0.18-0.02c-0.04,0-0.09,0-0.13,0.02c-0.04,0.02-0.09,0.04-0.11,0.07
		s-0.07,0.07-0.09,0.09c-0.02,0.04-0.04,0.07-0.07,0.11s-0.02,0.07-0.04,0.09c0,0.02-0.02,0.04-0.02,0.07
		c0,0.02,0.02,0.07,0.07,0.09c0.04,0.02,0.07,0.04,0.11,0.04c0.04,0.02,0.11,0.02,0.18,0.02C1.38,60.94,1.45,60.94,1.51,60.94z"/>
	<path class="st104" d="M4.26,59.88c0.02,0.24,0.04,0.46,0.11,0.68c0.04,0.22,0.11,0.42,0.18,0.59c0.07,0.18,0.15,0.35,0.24,0.51
		c0.09,0.15,0.15,0.29,0.24,0.4c0.09,0.11,0.15,0.2,0.2,0.29c0.07,0.07,0.11,0.13,0.13,0.15l-0.33,0.44
		c-0.11-0.13-0.24-0.31-0.35-0.48c-0.04-0.09-0.09-0.18-0.15-0.29c-0.04-0.11-0.09-0.22-0.15-0.33c-0.04-0.11-0.09-0.26-0.13-0.4
		c-0.02-0.15-0.07-0.31-0.09-0.46c-0.04,0.15-0.07,0.31-0.11,0.46c-0.04,0.13-0.09,0.26-0.13,0.4s-0.09,0.24-0.15,0.33
		c-0.04,0.11-0.09,0.2-0.15,0.29c-0.11,0.2-0.22,0.35-0.35,0.48L2.92,62.5c0.02-0.02,0.07-0.09,0.13-0.15
		c0.07-0.07,0.13-0.18,0.2-0.29c0.09-0.11,0.15-0.24,0.24-0.4c0.09-0.15,0.15-0.31,0.24-0.51c0.07-0.18,0.13-0.37,0.18-0.59
		c0.04-0.22,0.09-0.44,0.11-0.68L4.26,59.88z"/>
	<path class="st104" d="M6.15,59.92c0,0,0.02,0.02,0.04,0.09c0.02,0.07,0.07,0.13,0.09,0.24c0.04,0.09,0.07,0.18,0.09,0.22
		c0.02,0.07,0.07,0.11,0.09,0.13c0.02,0.04,0.07,0.07,0.11,0.07c0.04,0.02,0.11,0.02,0.18,0.02c0.09,0,0.18-0.02,0.22-0.04
		c0.04-0.02,0.11-0.09,0.13-0.13c0.02-0.04,0.04-0.13,0.07-0.22c0-0.09,0.02-0.18,0.02-0.26l0.2-0.07c0,0.07,0,0.13,0,0.22
		c0,0.02,0,0.09,0,0.15c0,0.07-0.02,0.15-0.04,0.24c0.02,0.04,0.07,0.09,0.11,0.11c0.04,0.02,0.11,0.02,0.18,0.02
		c0.07,0,0.13-0.02,0.18-0.04c0.04-0.04,0.09-0.09,0.11-0.13c0.02-0.04,0.04-0.13,0.07-0.22c0-0.09,0.02-0.18,0.02-0.26l0.2-0.07
		c0,0.09,0.02,0.18,0.02,0.26c0,0,0,0.04,0,0.09c0,0.04,0,0.13-0.02,0.22s-0.02,0.18-0.07,0.26c-0.04,0.09-0.07,0.15-0.11,0.22
		c-0.04,0.07-0.09,0.11-0.15,0.15c-0.07,0.04-0.13,0.04-0.22,0.04c-0.07,0-0.13-0.02-0.18-0.04c-0.04-0.02-0.09-0.07-0.11-0.09
		C7.34,61.09,7.29,61.05,7.29,61c-0.02-0.02-0.02-0.04-0.02-0.07c-0.04,0.09-0.11,0.15-0.2,0.22c-0.09,0.04-0.18,0.09-0.31,0.09
		c-0.07,0-0.11,0-0.15-0.02c-0.04,0-0.07-0.02-0.07-0.02c0.02,0.13,0.04,0.26,0.04,0.4s0.02,0.24,0.02,0.33c0,0.09,0,0.13,0,0.15
		c0,0.13,0,0.24-0.02,0.4c0,0.13-0.04,0.29-0.07,0.42l-0.2,0.04c0-0.04,0-0.11,0-0.15c0-0.2,0-0.37-0.02-0.57s-0.04-0.37-0.09-0.57
		c-0.04-0.18-0.09-0.35-0.13-0.48C6.04,61,6,60.87,5.95,60.76c-0.04-0.11-0.09-0.2-0.13-0.29c-0.04-0.09-0.07-0.13-0.09-0.18
		L6.15,59.92z"/>
	<path class="st104" d="M9.8,60.72c0,0,0.02,0.04,0.02,0.09c0.02,0.07,0.04,0.15,0.07,0.24c0.02,0.11,0.07,0.22,0.11,0.37
		c0.04,0.13,0.09,0.29,0.15,0.44c0.02,0.07,0.04,0.13,0.09,0.18c0.04,0.04,0.07,0.11,0.09,0.15c0.04,0.04,0.07,0.09,0.11,0.11
		c0.04,0.02,0.09,0.04,0.15,0.04h0.04v0.51h-0.04c-0.07,0-0.11,0-0.15-0.02s-0.09-0.04-0.13-0.07c-0.04-0.02-0.09-0.07-0.11-0.09
		c-0.04-0.04-0.07-0.07-0.09-0.11c-0.02,0.02-0.04,0.04-0.07,0.09c-0.02,0.04-0.07,0.07-0.11,0.11c-0.04,0.04-0.11,0.07-0.2,0.09
		c-0.09,0.02-0.18,0.04-0.29,0.04c-0.09,0-0.18,0-0.26-0.02c-0.09,0-0.15-0.02-0.22-0.04C8.9,62.8,8.86,62.8,8.81,62.78
		c-0.04-0.02-0.07-0.02-0.07-0.02c-0.02-0.02-0.02-0.07-0.02-0.09c0-0.04-0.02-0.09-0.02-0.13c0-0.04,0-0.09-0.02-0.13
		c0-0.04,0-0.09,0-0.11c0-0.04,0-0.09,0.02-0.09l0,0c0.07,0.07,0.18,0.09,0.29,0.13c0.11,0.02,0.26,0.04,0.42,0.04
		c0.04,0,0.09,0,0.13,0s0.09,0,0.13-0.02c0.04,0,0.09-0.02,0.13-0.04s0.09-0.04,0.13-0.09c-0.04-0.09-0.07-0.18-0.11-0.24
		c-0.02-0.07-0.07-0.15-0.09-0.22c-0.02-0.07-0.07-0.15-0.11-0.24c-0.04-0.09-0.09-0.2-0.13-0.31c0-0.02,0.02-0.04,0.04-0.07
		c0.02-0.02,0.02-0.04,0.04-0.07s0.02-0.04,0.04-0.07c0.02-0.02,0.02-0.04,0.02-0.07c0.02-0.02,0.04-0.04,0.04-0.07
		c0.02-0.02,0.02-0.04,0.04-0.07C9.76,60.76,9.76,60.76,9.8,60.72C9.78,60.74,9.8,60.72,9.8,60.72z"/>
	<path class="st104" d="M12.02,62.36v0.51h-1.45v-0.51H12.02z"/>
	<path class="st104" d="M14.11,60.01l-1.47,0.66c0.07,0.07,0.13,0.15,0.22,0.22c0.07,0.09,0.13,0.15,0.2,0.24
		c0.07,0.09,0.13,0.18,0.18,0.29s0.09,0.2,0.13,0.31c0.02,0.11,0.04,0.2,0.04,0.26c0,0.07,0,0.11,0,0.13c0,0.11-0.02,0.22-0.04,0.33
		c-0.15,0.13-0.33,0.24-0.55,0.31c-0.22,0.07-0.48,0.09-0.79,0.11h-0.09v-0.51h0.11c0.13,0,0.26,0,0.4,0c0.13,0,0.24-0.02,0.35-0.04
		c0.11-0.02,0.2-0.04,0.26-0.09c0.09-0.04,0.13-0.09,0.18-0.18c-0.07-0.13-0.13-0.26-0.22-0.37c-0.09-0.11-0.2-0.22-0.31-0.33
		c-0.11-0.09-0.22-0.2-0.33-0.26c-0.11-0.09-0.2-0.15-0.31-0.24l0.11-0.46c0.09-0.04,0.18-0.09,0.31-0.13
		c0.11-0.04,0.24-0.11,0.37-0.15c0.13-0.07,0.26-0.11,0.4-0.18c0.13-0.07,0.26-0.11,0.4-0.15c0.11-0.04,0.22-0.09,0.33-0.13
		c0.09-0.04,0.18-0.07,0.22-0.09L14.11,60.01z"/>
	<path class="st104" d="M18.6,61.18c0.09,0,0.2,0,0.29,0.04l-0.15,0.48c-0.07,0-0.11-0.02-0.15-0.02c-0.11,0-0.22,0.02-0.31,0.04
		c-0.09,0.04-0.18,0.09-0.26,0.13c-0.09,0.07-0.15,0.13-0.22,0.2c-0.07,0.09-0.13,0.15-0.18,0.24c0.04,0.02,0.11,0.07,0.18,0.09
		c0.07,0.02,0.15,0.04,0.22,0.07c0.07,0.02,0.15,0.04,0.24,0.07s0.15,0.04,0.22,0.07c0.07,0.02,0.13,0.04,0.18,0.09
		c0.04,0.02,0.07,0.07,0.09,0.11c0.02,0.07,0.02,0.11,0.02,0.13c0,0.04,0,0.07,0,0.09c0,0.04,0,0.07,0,0.11
		c0,0.04-0.02,0.09-0.02,0.13c-0.02,0.04-0.02,0.09-0.04,0.13c-0.04,0.09-0.13,0.18-0.2,0.24c-0.09,0.09-0.2,0.15-0.31,0.2
		c-0.11,0.04-0.26,0.11-0.42,0.15c-0.15,0.07-0.31,0.09-0.51,0.11c-0.04,0-0.11,0-0.15,0c-0.13,0-0.26,0-0.4-0.02
		s-0.24-0.07-0.35-0.11c-0.11-0.07-0.2-0.13-0.26-0.22c-0.07-0.09-0.13-0.2-0.15-0.31c-0.02-0.11-0.04-0.22-0.04-0.33
		c0-0.07,0-0.15,0.02-0.29c0.02-0.13,0.07-0.33,0.15-0.57c0-0.02,0.02-0.07,0.02-0.09c0.02-0.04,0.02-0.09,0.04-0.13
		c0.02-0.04,0.02-0.13,0.04-0.18c0.02-0.04,0.04-0.09,0.04-0.11l0.18,0.09c-0.02,0.04-0.04,0.11-0.07,0.18
		c-0.02,0.07-0.04,0.13-0.07,0.22c-0.02,0.09-0.04,0.18-0.07,0.29s-0.04,0.18-0.04,0.24c0,0.07,0,0.11,0,0.13
		c0,0.07,0,0.15,0.02,0.24c0.02,0.09,0.07,0.15,0.11,0.24c0.07,0.07,0.15,0.13,0.26,0.18s0.26,0.07,0.44,0.07c0.04,0,0.07,0,0.11,0
		c0.04,0,0.07,0,0.11,0c0.2-0.02,0.35-0.04,0.48-0.07c0.13-0.02,0.24-0.07,0.35-0.09c0.09-0.04,0.18-0.09,0.24-0.13
		c0.07-0.04,0.11-0.09,0.18-0.15c-0.04-0.02-0.11-0.04-0.2-0.07s-0.15-0.04-0.24-0.07c-0.09-0.02-0.18-0.04-0.26-0.07
		s-0.15-0.07-0.22-0.09c-0.07-0.04-0.13-0.07-0.15-0.11c-0.02-0.04-0.04-0.15-0.04-0.2v-0.02c0.02-0.2,0.04-0.37,0.13-0.55
		c0.09-0.18,0.15-0.31,0.26-0.44c0.11-0.13,0.24-0.22,0.4-0.29C18.29,61.2,18.44,61.18,18.6,61.18z"/>
	<path class="st104" d="M17.74,64.08L17.74,64.08L17.74,64.08z M20.35,61.6C20.35,61.6,20.35,61.62,20.35,61.6
		c0.02,0.04,0.04,0.09,0.09,0.15c0.02,0.04,0.04,0.11,0.09,0.15c0.02,0.07,0.07,0.11,0.09,0.15c0.04,0.04,0.07,0.09,0.11,0.13
		c0.04,0.04,0.09,0.07,0.11,0.09c0.04,0.02,0.09,0.04,0.13,0.04h0.02v0.51h-0.04c-0.04,0-0.09,0-0.15-0.02s-0.11-0.04-0.18-0.09
		c0,0.04,0,0.07,0,0.11c0,0.11-0.02,0.2-0.04,0.31c-0.02,0.11-0.09,0.2-0.13,0.31c-0.07,0.09-0.13,0.18-0.22,0.26
		c-0.09,0.09-0.15,0.13-0.24,0.2c-0.07,0.04-0.15,0.09-0.2,0.11c-0.07,0.04-0.11,0.07-0.13,0.07h-0.02c-0.02,0-0.07-0.02-0.11-0.07
		c-0.04-0.02-0.09-0.04-0.15-0.09c-0.02,0-0.04-0.02-0.07-0.02c-0.02-0.02-0.04-0.02-0.09-0.04c-0.02-0.02-0.07-0.02-0.09-0.04
		c-0.02-0.02-0.04-0.02-0.07-0.04l-0.02-0.02l0,0c0,0,0,0,0.02,0c0.18-0.07,0.35-0.11,0.51-0.18c0.15-0.07,0.29-0.15,0.4-0.24
		c0.11-0.09,0.2-0.18,0.26-0.29s0.09-0.22,0.11-0.33c-0.02-0.07-0.07-0.11-0.09-0.15c-0.02-0.04-0.04-0.09-0.07-0.13
		c-0.02-0.04-0.04-0.09-0.09-0.15c-0.02-0.07-0.07-0.13-0.09-0.22c0-0.02,0.02-0.02,0.04-0.07c0.02-0.02,0.02-0.04,0.04-0.09
		c0.02-0.02,0.04-0.07,0.07-0.09c0.02-0.02,0.04-0.07,0.07-0.09s0.04-0.04,0.04-0.07S20.33,61.6,20.35,61.6z M20.27,61.11
		l-0.35-0.33l0.35-0.35l0.35,0.35L20.27,61.11z"/>
	<path class="st104" d="M22.36,62.36v0.51H20.9v-0.51H22.36z"/>
	<path class="st104" d="M24.44,60.01l-1.47,0.66c0.07,0.07,0.13,0.15,0.22,0.22c0.07,0.09,0.13,0.15,0.2,0.24
		c0.07,0.09,0.13,0.18,0.18,0.29s0.09,0.2,0.13,0.31c0.02,0.11,0.04,0.2,0.04,0.26c0,0.07,0,0.11,0,0.13c0,0.11-0.02,0.22-0.04,0.33
		c-0.15,0.13-0.33,0.24-0.55,0.31c-0.22,0.07-0.48,0.09-0.79,0.11h-0.11v-0.51h0.11c0.13,0,0.26,0,0.4,0s0.24-0.02,0.35-0.04
		c0.11-0.02,0.2-0.04,0.26-0.09c0.09-0.04,0.13-0.09,0.18-0.18c-0.07-0.13-0.13-0.26-0.22-0.37s-0.2-0.22-0.31-0.33
		c-0.11-0.09-0.22-0.2-0.33-0.26c-0.11-0.09-0.2-0.15-0.31-0.24l0.11-0.46c0.09-0.04,0.18-0.09,0.31-0.13
		c0.11-0.04,0.24-0.11,0.37-0.15c0.13-0.07,0.26-0.11,0.4-0.18s0.26-0.11,0.4-0.15c0.11-0.04,0.22-0.09,0.33-0.13
		c0.09-0.04,0.18-0.07,0.22-0.09L24.44,60.01z"/>
	<path class="st104" d="M22.51,64.08L22.51,64.08L22.51,64.08z M25.1,61.6C25.13,61.6,25.13,61.62,25.1,61.6
		c0.02,0.04,0.04,0.09,0.09,0.15c0.02,0.04,0.04,0.11,0.09,0.15c0.02,0.07,0.07,0.11,0.09,0.15c0.04,0.04,0.07,0.09,0.11,0.13
		c0.04,0.04,0.09,0.07,0.11,0.09c0.04,0.02,0.09,0.04,0.13,0.04h0.02v0.51h-0.02c-0.04,0-0.09,0-0.15-0.02s-0.11-0.04-0.18-0.09
		c0,0.04,0,0.07,0,0.11c0,0.11-0.02,0.2-0.04,0.31c-0.02,0.11-0.09,0.2-0.13,0.31c-0.07,0.09-0.13,0.18-0.22,0.26
		c-0.09,0.09-0.15,0.13-0.24,0.2c-0.07,0.04-0.15,0.09-0.2,0.11c-0.07,0.04-0.11,0.07-0.13,0.07H24.4c-0.02,0-0.07-0.02-0.11-0.07
		c-0.04-0.02-0.09-0.04-0.15-0.09c-0.02,0-0.04-0.02-0.07-0.02c-0.02-0.02-0.04-0.02-0.09-0.04c-0.02-0.02-0.07-0.02-0.09-0.04
		c-0.02-0.02-0.04-0.02-0.07-0.04l-0.02-0.02l0,0c0,0,0,0,0.02,0c0.18-0.07,0.35-0.11,0.51-0.18c0.15-0.07,0.29-0.15,0.4-0.24
		c0.11-0.09,0.2-0.18,0.26-0.29s0.09-0.22,0.11-0.33c-0.02-0.07-0.07-0.11-0.09-0.15c-0.02-0.04-0.04-0.09-0.07-0.13
		c-0.02-0.04-0.04-0.09-0.09-0.15c-0.02-0.07-0.07-0.13-0.09-0.22c0-0.02,0.02-0.02,0.04-0.07c0.02-0.02,0.02-0.04,0.04-0.09
		c0.02-0.02,0.04-0.07,0.07-0.09c0.02-0.02,0.04-0.07,0.07-0.09s0.04-0.04,0.04-0.07S25.1,61.6,25.1,61.6z"/>
	<path class="st104" d="M27.1,62.36v0.51h-1.45v-0.51H27.1z"/>
	<path class="st104" d="M28.49,61.33c0.04,0,0.11,0.02,0.15,0.04c0.07,0.02,0.11,0.07,0.15,0.13c0.04,0.07,0.09,0.11,0.13,0.2
		c0.04,0.07,0.09,0.15,0.11,0.24c0.02,0.09,0.04,0.18,0.07,0.24c0,0.09,0.02,0.15,0.02,0.2s0,0.09,0,0.13l-0.31,0.35
		c0,0-0.02,0.02-0.07,0.02s-0.09,0-0.13-0.02c-0.04-0.02-0.11-0.02-0.18-0.04s-0.13-0.04-0.2-0.07s-0.13-0.04-0.2-0.09
		c-0.07-0.02-0.11-0.07-0.18-0.09c-0.04-0.02-0.09-0.07-0.11-0.09c-0.04,0.09-0.09,0.15-0.15,0.2c-0.07,0.04-0.11,0.09-0.18,0.11
		c-0.07,0.02-0.13,0.04-0.18,0.04c-0.07,0-0.13,0-0.18,0h-0.02v-0.51h0.22c0.04,0,0.11-0.02,0.15-0.04s0.09-0.07,0.15-0.11
		s0.09-0.11,0.13-0.15c0.04-0.07,0.09-0.13,0.13-0.18c0.04-0.07,0.09-0.13,0.15-0.18c0.04-0.07,0.09-0.11,0.15-0.15
		c0.04-0.04,0.11-0.09,0.18-0.11C28.36,61.35,28.42,61.33,28.49,61.33z M28.89,62.41c0.02,0,0.04,0,0.04,0
		c0-0.09-0.02-0.18-0.04-0.26c-0.02-0.09-0.07-0.15-0.11-0.22c-0.04-0.07-0.09-0.11-0.15-0.15c-0.04-0.04-0.09-0.04-0.13-0.04
		c-0.04,0-0.09,0-0.13,0.02c-0.04,0.02-0.07,0.04-0.11,0.07c-0.04,0.02-0.07,0.07-0.11,0.13c-0.04,0.04-0.09,0.11-0.13,0.18
		c0.02,0.02,0.07,0.04,0.11,0.07c0.04,0.02,0.11,0.04,0.15,0.07c0.07,0.02,0.11,0.04,0.18,0.07s0.11,0.04,0.18,0.04
		c0.07,0.02,0.11,0.02,0.15,0.04C28.84,62.41,28.86,62.41,28.89,62.41z"/>
	<path class="st104" d="M32.36,61.38c0,0.09,0.02,0.2,0.02,0.29c0,0.09,0.02,0.18,0.02,0.24s0.02,0.13,0.02,0.18
		c0,0.04,0.02,0.09,0.02,0.09c0,0.02,0.02,0.04,0.02,0.07c0.02,0.02,0.04,0.04,0.07,0.07c0.02,0.02,0.07,0.02,0.11,0.04
		s0.09,0.02,0.15,0.02h0.04v0.51h-0.09c-0.11,0-0.2-0.02-0.29-0.04c-0.07-0.04-0.13-0.09-0.18-0.13c-0.04-0.04-0.09-0.11-0.11-0.18
		s-0.04-0.13-0.07-0.18l-0.24,0.24l0,0c0,0,0,0-0.02,0s-0.07,0-0.13,0c-0.07,0-0.11-0.02-0.2-0.02c-0.07,0-0.13-0.02-0.22-0.04
		s-0.15-0.04-0.22-0.07c-0.02-0.02-0.02-0.04-0.04-0.09c-0.02-0.04-0.02-0.09-0.04-0.13c-0.02-0.04-0.02-0.09-0.02-0.15
		c0-0.04,0-0.09-0.02-0.11c0-0.02,0-0.04,0-0.04c0-0.04,0-0.07,0-0.11c0-0.02,0.02-0.07,0.02-0.07c0.04-0.04,0.09-0.09,0.15-0.15
		c0.07-0.04,0.15-0.11,0.24-0.15s0.18-0.11,0.24-0.15c0.07-0.04,0.15-0.09,0.22-0.13L31.81,61l0.4-0.35L32.36,61.38z M31.96,61.42
		c-0.09,0.04-0.18,0.09-0.26,0.13c-0.09,0.04-0.15,0.09-0.24,0.11c-0.07,0.04-0.13,0.07-0.2,0.11c-0.04,0.04-0.09,0.07-0.13,0.09
		c0,0.04,0.02,0.07,0.07,0.09s0.11,0.04,0.2,0.07s0.18,0.02,0.29,0.04c0.11,0,0.24,0.02,0.37,0.02L31.96,61.42z"/>
	<path class="st104" d="M34.25,62.36v0.51H32.8v-0.51H34.25z"/>
	<path class="st104" d="M35.64,61.33c0.04,0,0.11,0.02,0.15,0.04c0.04,0.02,0.11,0.09,0.15,0.13c0.04,0.07,0.09,0.13,0.15,0.2
		c0.04,0.09,0.09,0.18,0.13,0.26c0.02,0.07,0.07,0.13,0.11,0.18c0.04,0.04,0.09,0.09,0.13,0.11c0.04,0.02,0.11,0.04,0.15,0.04
		c0.07,0,0.11,0.02,0.18,0.02h0.04v0.51H36.8c-0.09,0-0.15,0-0.22-0.04c-0.07-0.02-0.13-0.04-0.18-0.09
		c-0.04-0.02-0.09-0.07-0.13-0.11c-0.04-0.04-0.07-0.07-0.07-0.09l-0.24,0.33c-0.02,0-0.04,0-0.07,0s-0.09,0-0.13-0.02
		c-0.04,0-0.11-0.02-0.18-0.04s-0.13-0.04-0.2-0.07c-0.07-0.02-0.13-0.04-0.2-0.09c-0.07-0.02-0.11-0.07-0.15-0.09
		c-0.04-0.02-0.09-0.07-0.11-0.09c-0.04,0.09-0.09,0.15-0.15,0.2c-0.04,0.04-0.11,0.09-0.15,0.11c-0.07,0.02-0.11,0.04-0.18,0.04
		s-0.11,0-0.18,0.02h-0.07V62.3h0.18c0.02,0,0.07,0,0.09,0s0.04,0,0.07,0c0.04,0,0.09-0.02,0.11-0.07c0.04-0.04,0.09-0.07,0.11-0.13
		c0.04-0.04,0.09-0.11,0.13-0.15c0.04-0.04,0.09-0.11,0.13-0.18c0.04-0.07,0.09-0.11,0.13-0.18c0.04-0.07,0.09-0.11,0.15-0.15
		c0.07-0.04,0.11-0.09,0.15-0.11C35.5,61.31,35.57,61.33,35.64,61.33z M36.03,62.41c0.02,0,0.04,0,0.04-0.02
		c-0.02-0.09-0.07-0.18-0.11-0.26c-0.04-0.09-0.09-0.15-0.13-0.22c-0.04-0.07-0.09-0.11-0.13-0.15c-0.04-0.04-0.09-0.07-0.13-0.07
		c-0.07,0-0.11,0-0.13,0.02c-0.04,0.02-0.07,0.04-0.11,0.09c-0.02,0.04-0.07,0.09-0.09,0.13c-0.02,0.04-0.07,0.11-0.11,0.15
		c0.02,0.02,0.04,0.04,0.09,0.07s0.09,0.04,0.15,0.07c0.07,0.02,0.11,0.04,0.18,0.07c0.07,0.02,0.11,0.04,0.18,0.04
		c0.07,0.02,0.11,0.02,0.15,0.04C35.97,62.39,36.01,62.41,36.03,62.41z"/>
	<path class="st104" d="M38.21,62.36v0.51h-1.45v-0.51H38.21z"/>
	<path class="st104" d="M39.26,61.46v0.04c0,0.02,0,0.04,0.02,0.09c0.02,0.04,0.02,0.09,0.02,0.13c0,0.04,0.02,0.11,0.02,0.15
		c0,0.07,0,0.11,0.02,0.15c0,0.04,0,0.09,0,0.13v0.04c0.02,0.02,0.07,0.04,0.11,0.07c0.04,0.02,0.11,0.02,0.18,0.04
		c0.07,0,0.13,0.02,0.2,0.02c0.07,0,0.13,0,0.18,0h0.04v0.51h-0.07c-0.07,0-0.13,0-0.22-0.02c-0.09-0.02-0.15-0.04-0.22-0.07
		c-0.07-0.02-0.13-0.07-0.2-0.11s-0.11-0.09-0.13-0.13c-0.02,0.02-0.07,0.07-0.11,0.09c-0.04,0.02-0.09,0.04-0.15,0.09
		c-0.07,0.04-0.11,0.04-0.18,0.07c-0.07,0.02-0.13,0.04-0.18,0.04c-0.07,0.02-0.13,0.02-0.2,0.02c-0.07,0-0.11,0.02-0.18,0.02h-0.11
		v-0.51h0.04c0.04,0,0.11,0,0.15,0s0.13,0,0.18,0c0.07,0,0.13,0,0.18-0.02c0.07,0,0.11-0.02,0.18-0.02
		c0.04-0.02,0.09-0.02,0.13-0.04s0.07-0.04,0.07-0.07c-0.02-0.09-0.04-0.15-0.07-0.22c-0.02-0.07-0.04-0.13-0.07-0.2L39.26,61.46z
		 M38.54,63.88l-0.33-0.33l0.33-0.33l0.33,0.33L38.54,63.88z M39.26,63.88l-0.33-0.33l0.33-0.33l0.33,0.33L39.26,63.88z"/>
	<path class="st104" d="M41.4,62.36v0.51h-1.45v-0.51H41.4z"/>
	<path class="st104" d="M42.23,61.09c0,0,0.02,0.02,0.04,0.07c0.02,0.04,0.04,0.09,0.07,0.18c0.02,0.09,0.04,0.15,0.07,0.26
		c0.02,0.09,0.04,0.18,0.04,0.26c0,0.09,0,0.15,0,0.22c0,0.07,0,0.13,0,0.24c0,0.09-0.02,0.22-0.07,0.33
		c-0.04,0.04-0.09,0.07-0.18,0.09c-0.07,0.02-0.15,0.04-0.24,0.07c-0.09,0.02-0.18,0.02-0.26,0.04c-0.09,0.02-0.18,0.02-0.29,0.02
		h-0.13v-0.51h0.11c0.11,0,0.2,0,0.31,0c0.11,0,0.18-0.02,0.26-0.02c0.07,0,0.13-0.02,0.18-0.02c0.04-0.02,0.07-0.02,0.09-0.02
		c0-0.04-0.02-0.09-0.04-0.15c-0.02-0.07-0.07-0.13-0.09-0.2c-0.04-0.07-0.07-0.13-0.11-0.2c-0.04-0.07-0.07-0.11-0.09-0.15
		L42.23,61.09z M41.99,63.93l-0.35-0.35l0.35-0.35l0.35,0.35L41.99,63.93z"/>
	<path class="st104" d="M47.05,61.18c0.09,0,0.2,0,0.29,0.04l-0.15,0.48c-0.07,0-0.11-0.02-0.15-0.02c-0.11,0-0.22,0.02-0.31,0.04
		c-0.09,0.04-0.18,0.09-0.26,0.13c-0.09,0.07-0.15,0.13-0.22,0.2c-0.07,0.09-0.13,0.15-0.18,0.24c0.04,0.02,0.11,0.07,0.18,0.09
		s0.15,0.04,0.22,0.07c0.07,0.02,0.15,0.04,0.24,0.07c0.09,0.02,0.15,0.04,0.22,0.07c0.07,0.02,0.13,0.04,0.18,0.09
		c0.04,0.02,0.07,0.07,0.09,0.11c0.02,0.07,0.02,0.11,0.02,0.13c0,0.04,0,0.07,0,0.09c0,0.04,0,0.07,0,0.11
		c0,0.04-0.02,0.09-0.02,0.13c-0.02,0.04-0.02,0.09-0.04,0.13c-0.04,0.09-0.13,0.18-0.2,0.24c-0.09,0.09-0.2,0.15-0.31,0.2
		c-0.11,0.04-0.26,0.11-0.42,0.15s-0.31,0.07-0.51,0.09c-0.04,0-0.11,0-0.15,0c-0.13,0-0.29-0.02-0.4-0.04
		c-0.11-0.02-0.24-0.07-0.35-0.11c-0.11-0.07-0.2-0.13-0.26-0.22c-0.07-0.09-0.13-0.2-0.15-0.31c-0.02-0.11-0.04-0.22-0.04-0.33
		c0-0.07,0-0.15,0.02-0.29c0.02-0.13,0.07-0.33,0.15-0.57c0-0.02,0.02-0.07,0.02-0.09c0.02-0.04,0.02-0.09,0.04-0.13
		c0.02-0.04,0.04-0.09,0.04-0.13c0.02-0.04,0.04-0.09,0.04-0.11l0.18,0.09c-0.02,0.04-0.04,0.11-0.07,0.18
		c-0.02,0.07-0.04,0.13-0.07,0.22c-0.02,0.09-0.04,0.18-0.07,0.29c-0.02,0.11-0.04,0.18-0.04,0.24c0,0.07,0,0.11,0,0.13
		c0,0.07,0,0.15,0.02,0.24c0.02,0.09,0.07,0.15,0.11,0.24c0.07,0.07,0.15,0.13,0.26,0.18c0.11,0.04,0.26,0.07,0.44,0.07
		c0.04,0,0.07,0,0.11,0s0.07,0,0.11,0c0.2-0.02,0.35-0.04,0.48-0.07c0.13-0.02,0.24-0.07,0.35-0.09c0.09-0.04,0.18-0.09,0.24-0.13
		c0.07-0.04,0.11-0.09,0.18-0.15c-0.04-0.02-0.11-0.04-0.2-0.07c-0.09-0.02-0.15-0.04-0.24-0.07c-0.09-0.02-0.18-0.04-0.26-0.07
		s-0.15-0.07-0.22-0.09c-0.07-0.04-0.13-0.07-0.15-0.11c-0.02-0.04-0.07-0.09-0.07-0.15v-0.07c0.02-0.2,0.04-0.37,0.13-0.55
		s0.15-0.31,0.26-0.44c0.11-0.13,0.24-0.22,0.4-0.29C46.72,61.2,46.89,61.18,47.05,61.18z"/>
	<path class="st104" d="M48.76,61.6c0,0,0.02,0.04,0.04,0.07c0.02,0.04,0.04,0.09,0.07,0.15c0.02,0.07,0.04,0.13,0.07,0.22
		c0.02,0.07,0.04,0.15,0.07,0.24c0.02,0.09,0.04,0.15,0.04,0.24s0.02,0.15,0.02,0.2c0,0.02,0,0.04,0,0.07
		c0,0.13-0.02,0.24-0.07,0.37c-0.04,0.11-0.09,0.22-0.15,0.33c-0.07,0.11-0.15,0.2-0.22,0.26c-0.09,0.07-0.15,0.13-0.24,0.18
		c-0.09,0.04-0.15,0.09-0.2,0.11c-0.02,0.04-0.07,0.04-0.09,0.04c-0.02,0-0.04-0.02-0.07-0.02c-0.02-0.02-0.07-0.04-0.11-0.07
		c-0.04-0.02-0.09-0.04-0.15-0.09c-0.07-0.04-0.13-0.07-0.22-0.13l-0.02-0.02l0,0c0,0,0,0,0.02,0c0.09-0.02,0.2-0.07,0.31-0.09
		c0.09-0.04,0.2-0.09,0.29-0.13c0.09-0.04,0.18-0.11,0.26-0.15c0.09-0.07,0.15-0.11,0.22-0.2c0.07-0.07,0.11-0.13,0.15-0.22
		c0.04-0.09,0.07-0.15,0.07-0.24c-0.02-0.07-0.07-0.11-0.09-0.15c-0.02-0.04-0.07-0.09-0.09-0.15c-0.02-0.04-0.07-0.09-0.09-0.15
		c-0.02-0.07-0.07-0.11-0.11-0.2c0.02-0.04,0.04-0.09,0.09-0.13c0.02-0.04,0.07-0.11,0.09-0.15c0.02-0.04,0.07-0.09,0.09-0.11
		C48.74,61.62,48.74,61.6,48.76,61.6L48.76,61.6z"/>
	<path class="st104" d="M50.02,59.55c0,0,0.02,0,0.02,0.02c0,0.02,0,0.02,0,0.04c0,0.07,0,0.15,0,0.22c0,0.09,0,0.18,0,0.26
		c0,0.09,0,0.18,0,0.26c0,0.09,0,0.18,0,0.24c0,0.09,0,0.18,0,0.26c0,0.09,0,0.2,0,0.31s0,0.22,0,0.33s0,0.22-0.02,0.35
		c0,0.11,0,0.22-0.02,0.33c0,0.11,0,0.2-0.02,0.29l-0.02,0.02c0,0.02-0.02,0.04-0.04,0.07s-0.04,0.07-0.07,0.09
		c-0.02,0.04-0.04,0.07-0.07,0.09c-0.02,0.02-0.04,0.07-0.07,0.09c-0.02,0.02-0.02,0.04-0.04,0.04l0,0l0,0c0,0,0,0,0-0.02
		c0-0.2,0-0.4,0-0.59s0-0.4-0.02-0.57c0-0.18,0-0.35-0.02-0.51c0-0.15-0.02-0.31-0.02-0.42c0-0.02,0-0.07,0-0.13
		c0-0.07,0-0.11,0-0.18s0-0.15-0.02-0.26c0-0.09-0.02-0.22-0.02-0.35c0,0,0.02-0.02,0.04-0.04s0.04-0.04,0.09-0.07
		c0.04-0.02,0.07-0.04,0.11-0.07c0.04-0.02,0.07-0.04,0.09-0.07c0.02-0.02,0.07-0.04,0.09-0.04S50.02,59.55,50.02,59.55z"/>
	<path class="st104" d="M48.54,64.08L48.54,64.08L48.54,64.08z M51.14,61.6C51.14,61.6,51.14,61.62,51.14,61.6
		c0.02,0.04,0.04,0.09,0.09,0.15c0.02,0.04,0.04,0.11,0.09,0.15c0.02,0.07,0.07,0.11,0.09,0.15c0.04,0.04,0.07,0.09,0.11,0.13
		c0.04,0.04,0.09,0.07,0.11,0.09c0.04,0.02,0.09,0.04,0.13,0.04h0.02v0.51h-0.02c-0.04,0-0.09,0-0.15-0.02
		c-0.07-0.02-0.11-0.04-0.18-0.09c0,0.04,0,0.07,0,0.11c0,0.11-0.02,0.2-0.04,0.31c-0.02,0.11-0.09,0.2-0.13,0.31
		c-0.07,0.09-0.13,0.18-0.22,0.26c-0.09,0.09-0.15,0.13-0.24,0.2c-0.07,0.04-0.15,0.09-0.2,0.11c-0.07,0.04-0.11,0.07-0.13,0.07
		h-0.02c-0.02,0-0.07-0.02-0.11-0.07c-0.04-0.02-0.09-0.04-0.15-0.09c-0.02,0-0.04-0.02-0.07-0.02c-0.02-0.02-0.04-0.02-0.09-0.04
		c-0.02-0.02-0.07-0.02-0.09-0.04s-0.04-0.02-0.07-0.04l-0.02-0.02l0,0c0,0,0,0,0.02,0c0.18-0.07,0.35-0.11,0.51-0.18
		c0.15-0.07,0.29-0.15,0.4-0.24c0.11-0.09,0.2-0.18,0.26-0.29c0.07-0.11,0.09-0.22,0.11-0.33c-0.02-0.07-0.07-0.11-0.09-0.15
		c-0.02-0.04-0.04-0.09-0.07-0.13c-0.02-0.04-0.04-0.09-0.09-0.15c-0.02-0.07-0.07-0.13-0.09-0.22c0-0.02,0.02-0.02,0.04-0.07
		c0.02-0.02,0.02-0.04,0.04-0.09c0.02-0.02,0.04-0.07,0.07-0.09s0.04-0.07,0.07-0.09c0.02-0.02,0.04-0.04,0.04-0.07
		S51.14,61.6,51.14,61.6z M51.05,61.11l-0.35-0.35l0.35-0.35l0.35,0.35L51.05,61.11z"/>
	<path class="st104" d="M53.14,62.36v0.51h-1.45v-0.51H53.14z"/>
	<path class="st104" d="M55.23,60.01l-1.47,0.66c0.07,0.07,0.13,0.15,0.22,0.22c0.07,0.09,0.13,0.15,0.2,0.24
		c0.07,0.09,0.13,0.18,0.18,0.29c0.04,0.11,0.09,0.2,0.13,0.31c0.02,0.11,0.04,0.2,0.04,0.26c0,0.07,0,0.11,0,0.13
		c0,0.11-0.02,0.22-0.04,0.33c-0.15,0.13-0.33,0.24-0.55,0.31c-0.22,0.07-0.48,0.09-0.79,0.11h-0.11v-0.51h0.11c0.13,0,0.26,0,0.4,0
		s0.24-0.02,0.35-0.04c0.11-0.02,0.2-0.04,0.26-0.09c0.09-0.04,0.13-0.09,0.18-0.18c-0.07-0.13-0.13-0.26-0.22-0.37
		c-0.09-0.11-0.2-0.22-0.31-0.33c-0.11-0.09-0.22-0.2-0.33-0.26c-0.11-0.09-0.2-0.15-0.31-0.24l0.11-0.46
		c0.09-0.04,0.18-0.09,0.31-0.13c0.11-0.04,0.24-0.11,0.37-0.15c0.13-0.07,0.26-0.11,0.4-0.18c0.13-0.07,0.26-0.11,0.4-0.15
		c0.11-0.04,0.22-0.09,0.33-0.13c0.09-0.04,0.18-0.07,0.22-0.09L55.23,60.01z M55.14,59.24l-1.74,0.73l0.09-0.33l1.71-0.73
		L55.14,59.24z"/>
	<path class="st104" d="M55.86,61.6c0,0,0.02,0.04,0.04,0.07c0.02,0.04,0.04,0.09,0.07,0.15s0.04,0.13,0.07,0.22
		c0.02,0.07,0.04,0.15,0.07,0.24c0.02,0.09,0.04,0.15,0.04,0.24s0.02,0.15,0.02,0.2c0,0.02,0,0.04,0,0.07
		c0,0.13-0.02,0.24-0.07,0.37c-0.04,0.11-0.09,0.22-0.15,0.33c-0.07,0.11-0.15,0.2-0.22,0.26c-0.09,0.07-0.15,0.13-0.24,0.18
		c-0.09,0.04-0.15,0.09-0.2,0.11c-0.02,0.04-0.07,0.04-0.09,0.04s-0.04-0.02-0.07-0.02c-0.02-0.02-0.07-0.04-0.11-0.07
		s-0.09-0.04-0.15-0.09c-0.07-0.04-0.13-0.07-0.22-0.13l-0.02-0.02l0,0c0,0,0,0,0.02,0c0.09-0.02,0.2-0.07,0.31-0.09
		c0.09-0.04,0.2-0.09,0.29-0.13c0.09-0.04,0.18-0.11,0.26-0.15c0.09-0.07,0.15-0.11,0.22-0.2c0.07-0.07,0.11-0.13,0.15-0.22
		c0.04-0.09,0.07-0.15,0.07-0.24c-0.02-0.07-0.07-0.11-0.09-0.15c-0.02-0.04-0.07-0.09-0.09-0.15c-0.02-0.04-0.07-0.09-0.09-0.15
		c-0.02-0.07-0.07-0.11-0.11-0.2c0.02-0.04,0.04-0.09,0.09-0.13c0.02-0.04,0.07-0.11,0.09-0.15c0.02-0.04,0.07-0.09,0.09-0.11
		C55.84,61.62,55.86,61.6,55.86,61.6L55.86,61.6z"/>
	<path class="st104" d="M57.14,59.55c0,0,0.02,0,0.02,0.02c0,0.02,0,0.02,0,0.04c0.02,0.22,0.02,0.42,0.02,0.59
		c0,0.18,0,0.35,0,0.48c0,0.15,0,0.29,0,0.42c0,0.13,0,0.26,0,0.4s0,0.24,0,0.37s0,0.26,0.02,0.4c0.04,0.02,0.11,0.04,0.15,0.07
		c0.04,0.02,0.11,0.02,0.18,0.02h0.11v0.51h-0.11c-0.13,0-0.22-0.02-0.31-0.04s-0.15-0.07-0.22-0.13c-0.07-0.04-0.11-0.13-0.13-0.2
		c-0.02-0.09-0.04-0.18-0.04-0.26c0-0.11,0-0.22-0.02-0.33c0-0.11,0-0.24-0.02-0.37c-0.02-0.13-0.02-0.26-0.02-0.37
		c0-0.13-0.02-0.26-0.02-0.37c-0.02-0.15-0.02-0.29-0.04-0.44c-0.02-0.15-0.02-0.29-0.04-0.44c0,0,0.02-0.02,0.04-0.04
		s0.04-0.04,0.09-0.07c0.04-0.02,0.11-0.09,0.13-0.11s0.07-0.04,0.09-0.07s0.07-0.04,0.09-0.04S57.14,59.55,57.14,59.55z"/>
	<path class="st104" d="M59.03,62.36v0.51h-1.45v-0.51H59.03z"/>
	<path class="st104" d="M60.39,62.36v0.51h-1.45v-0.51H60.39z"/>
	<path class="st104" d="M62.5,60.01l-1.47,0.66c0.07,0.07,0.13,0.15,0.22,0.22c0.07,0.09,0.13,0.15,0.2,0.24
		c0.07,0.09,0.13,0.18,0.18,0.29s0.09,0.2,0.13,0.31c0.02,0.11,0.04,0.2,0.04,0.26c0,0.07,0,0.11,0,0.13c0,0.11-0.02,0.22-0.04,0.33
		c-0.15,0.13-0.33,0.24-0.55,0.31c-0.22,0.07-0.48,0.09-0.79,0.11h-0.11v-0.51h0.11c0.13,0,0.26,0,0.4,0s0.24-0.02,0.35-0.04
		s0.2-0.04,0.26-0.09c0.09-0.04,0.13-0.09,0.18-0.18c-0.07-0.13-0.13-0.26-0.22-0.37c-0.09-0.11-0.2-0.22-0.31-0.33
		c-0.11-0.09-0.22-0.2-0.33-0.26c-0.11-0.09-0.2-0.15-0.31-0.24l0.11-0.46c0.09-0.04,0.18-0.09,0.31-0.13
		c0.11-0.04,0.24-0.11,0.37-0.15c0.13-0.07,0.26-0.11,0.4-0.18s0.26-0.11,0.4-0.15c0.11-0.04,0.22-0.09,0.33-0.13
		c0.09-0.04,0.18-0.07,0.22-0.09L62.5,60.01z"/>
</g>
</svg>
