<?xml version="1.0" encoding="utf-8"?>
<!-- Generator: Adobe Illustrator 24.1.1, SVG Export Plug-In . SVG Version: 6.00 Build 0)  -->
<svg version="1.1" id="Layer_1" xmlns="http://www.w3.org/2000/svg" xmlns:xlink="http://www.w3.org/1999/xlink" x="0px" y="0px"
	 viewBox="0 0 61.11 64.55" style="enable-background:new 0 0 61.11 64.55;" xml:space="preserve">
<style type="text/css">
	.st0{fill:url(#SVGID_3_);}
	.st1{fill:url(#SVGID_6_);}
	.st2{fill:#B3B2B3;}
	.st3{fill:#D39241;}
	.st4{fill:#315B51;}
	.st5{fill:#C8B34C;}
	.st6{fill:#2BB898;}
	.st7{fill:#385BA6;}
	.st8{fill:#515151;}
	.st9{fill:#F4E8AA;}
	.st10{fill:#FAC86E;}
	.st11{fill:#F4F4F4;}
	.st12{fill:#AD9944;}
	.st13{fill:#00A99D;}
	.st14{fill:#FFFFFF;}
	.st15{fill:url(#SVGID_7_);}
	.st16{fill:#C4AF4C;}
	.st17{fill-rule:evenodd;clip-rule:evenodd;fill:#C4AF4C;}
	.st18{filter:url(#Adobe_OpacityMaskFilter);}
	.st19{fill:url(#SVGID_9_);}
	.st20{mask:url(#SVGID_8_);fill-rule:evenodd;clip-rule:evenodd;fill:#C4AF4C;}
	.st21{filter:url(#Adobe_OpacityMaskFilter_1_);}
	.st22{fill:url(#SVGID_11_);}
	.st23{mask:url(#SVGID_10_);fill-rule:evenodd;clip-rule:evenodd;fill:#F0E4A6;}
	.st24{filter:url(#Adobe_OpacityMaskFilter_2_);}
	.st25{fill:url(#SVGID_13_);}
	.st26{mask:url(#SVGID_12_);fill-rule:evenodd;clip-rule:evenodd;fill:#F0E4A6;}
	.st27{filter:url(#Adobe_OpacityMaskFilter_3_);}
	.st28{fill:url(#SVGID_15_);}
	.st29{mask:url(#SVGID_14_);fill-rule:evenodd;clip-rule:evenodd;fill:#F0E4A6;}
	.st30{filter:url(#Adobe_OpacityMaskFilter_4_);}
	.st31{fill:url(#SVGID_17_);}
	.st32{mask:url(#SVGID_16_);fill-rule:evenodd;clip-rule:evenodd;fill:#F0E4A6;}
	.st33{opacity:0.5;fill-rule:evenodd;clip-rule:evenodd;fill:#C4AF4C;}
	.st34{filter:url(#Adobe_OpacityMaskFilter_5_);}
	.st35{fill:url(#SVGID_19_);}
	.st36{mask:url(#SVGID_18_);fill-rule:evenodd;clip-rule:evenodd;fill:#C4AF4C;}
	.st37{filter:url(#Adobe_OpacityMaskFilter_6_);}
	.st38{fill:url(#SVGID_21_);}
	.st39{mask:url(#SVGID_20_);fill-rule:evenodd;clip-rule:evenodd;fill:#C4AF4C;}
	.st40{filter:url(#Adobe_OpacityMaskFilter_7_);}
	.st41{fill:url(#SVGID_23_);}
	.st42{mask:url(#SVGID_22_);fill-rule:evenodd;clip-rule:evenodd;fill:#F0E4A6;}
	.st43{fill-rule:evenodd;clip-rule:evenodd;fill:#315B51;}
	.st44{filter:url(#Adobe_OpacityMaskFilter_8_);}
	.st45{fill:url(#SVGID_25_);}
	.st46{mask:url(#SVGID_24_);fill-rule:evenodd;clip-rule:evenodd;fill:#2BB494;}
	.st47{fill:#AFAEAF;}
	.st48{fill:none;stroke:#FFFFFF;stroke-width:0.25;stroke-miterlimit:10;}
	.st49{fill:#E0E0E0;}
	.st50{filter:url(#Adobe_OpacityMaskFilter_9_);}
	.st51{fill:url(#SVGID_27_);}
	.st52{mask:url(#SVGID_26_);fill-rule:evenodd;clip-rule:evenodd;fill:#C4AF4C;}
	.st53{filter:url(#Adobe_OpacityMaskFilter_10_);}
	.st54{fill:url(#SVGID_29_);}
	.st55{mask:url(#SVGID_28_);fill-rule:evenodd;clip-rule:evenodd;fill:#F0E4A6;}
	.st56{filter:url(#Adobe_OpacityMaskFilter_11_);}
	.st57{fill:url(#SVGID_31_);}
	.st58{mask:url(#SVGID_30_);fill-rule:evenodd;clip-rule:evenodd;fill:#F0E4A6;}
	.st59{filter:url(#Adobe_OpacityMaskFilter_12_);}
	.st60{fill:url(#SVGID_33_);}
	.st61{mask:url(#SVGID_32_);fill-rule:evenodd;clip-rule:evenodd;fill:#F0E4A6;}
	.st62{filter:url(#Adobe_OpacityMaskFilter_13_);}
	.st63{fill:url(#SVGID_35_);}
	.st64{mask:url(#SVGID_34_);fill-rule:evenodd;clip-rule:evenodd;fill:#F0E4A6;}
	.st65{filter:url(#Adobe_OpacityMaskFilter_14_);}
	.st66{fill:url(#SVGID_37_);}
	.st67{mask:url(#SVGID_36_);fill-rule:evenodd;clip-rule:evenodd;fill:#C4AF4C;}
	.st68{filter:url(#Adobe_OpacityMaskFilter_15_);}
	.st69{fill:url(#SVGID_39_);}
	.st70{mask:url(#SVGID_38_);fill-rule:evenodd;clip-rule:evenodd;fill:#C4AF4C;}
	.st71{fill:none;stroke:#2BB797;stroke-width:1.16;stroke-linecap:round;stroke-linejoin:round;stroke-miterlimit:10;}
	.st72{fill-rule:evenodd;clip-rule:evenodd;fill:none;stroke:#C6C6C6;stroke-width:0.5;stroke-miterlimit:10;}
	.st73{fill-rule:evenodd;clip-rule:evenodd;fill:none;stroke:#C6C6C6;stroke-width:0.75;stroke-miterlimit:10;}
	.st74{fill:#2BB797;}
	.st75{fill:#2BB797;stroke:#2BB797;stroke-width:0.7684;stroke-miterlimit:10;}
	.st76{clip-path:url(#SVGID_41_);fill:#BBBBBB;}
	.st77{clip-path:url(#SVGID_41_);fill:#959595;}
	.st78{clip-path:url(#SVGID_41_);}
	.st79{fill:#959595;}
	.st80{fill:#BBBBBB;}
	.st81{fill:none;stroke:#C6C6C6;stroke-width:0.5;stroke-miterlimit:10;}
	.st82{clip-path:url(#SVGID_43_);}
	.st83{fill-rule:evenodd;clip-rule:evenodd;fill:none;stroke:#C9C9C9;stroke-width:0.5;stroke-miterlimit:10;}
	.st84{fill:#B2B1B2;}
	.st85{fill:#4D4D4D;}
	.st86{fill:#A5CFE3;}
	.st87{fill:url(#);}
	.st88{fill:#9F9F9F;}
	.st89{clip-path:url(#SVGID_45_);fill:#E2E4E6;}
	.st90{clip-path:url(#SVGID_47_);fill:#E2E4E6;}
	.st91{clip-path:url(#SVGID_49_);fill:#E2E4E6;}
	.st92{fill:#CAE0ED;}
	.st93{fill:url(#SVGID_52_);}
	.st94{fill:url(#SVGID_55_);}
	.st95{fill:url(#SVGID_58_);}
	.st96{fill:url(#SVGID_61_);}
	.st97{fill:none;stroke:#B3B2B3;stroke-width:0.5;stroke-miterlimit:10;}
	.st98{fill:#6056DE;}
	.st99{fill:#F4F9F9;}
	.st100{fill:none;stroke:#808080;stroke-width:0.25;stroke-miterlimit:10;}
	.st101{fill:#FF9400;}
	.st102{fill:#4BD965;}
	.st103{fill:#007AFE;}
	.st104{fill:#7F7F7F;}
	.st105{fill:none;stroke:#515151;stroke-width:0.341;stroke-miterlimit:10;}
	.st106{fill:#FFFFFF;stroke:#515151;stroke-width:0.25;stroke-miterlimit:10;}
	.st107{fill:#353535;}
	.st108{fill:#6EB42D;}
	.st109{fill:#622BCC;}
	.st110{fill:#007DC5;}
	.st111{fill:#008ED4;}
	.st112{fill:#EBECEC;}
	.st113{fill:#008CC3;}
	.st114{fill:#E1E8EC;}
	.st115{fill:#DDE7EC;}
	.st116{fill:#FEFEFE;}
	.st117{fill:#F05931;}
	.st118{fill:#F37933;}
	.st119{fill:#EFE8E5;}
	.st120{fill:#EFE8E4;}
	.st121{fill:#C20E2E;}
	.st122{fill:#DC0330;}
	.st123{fill:#FFD745;}
	.st124{fill:#3473A5;}
	.st125{fill:#FFFFFF;stroke:#000000;stroke-width:0.9459;stroke-miterlimit:10;}
</style>
<path class="st104" d="M5.4,57.24c-0.07,0.85-0.24,1.61-0.5,2.28c-0.17,0.45-0.4,0.86-0.67,1.25c-0.64,0.87-1.42,1.31-2.32,1.32
	c-0.47-0.02-0.84-0.17-1.12-0.46c-0.27-0.29-0.42-0.69-0.44-1.2c0-0.81,0.26-1.69,0.8-2.64c0.1-0.19,0.17-0.25,0.18-0.18
	c0.02,0.07,0.02,0.14-0.01,0.21c-0.35,0.7-0.53,1.3-0.54,1.81c0.02,0.4,0.16,0.69,0.42,0.89c0.26,0.2,0.6,0.3,1,0.3
	c0.52,0,1.01-0.14,1.49-0.41c0.35-0.24,0.64-0.53,0.85-0.89c0.33-0.5,0.47-1.18,0.44-2.05c0-0.12-0.02-0.23-0.04-0.34
	c-0.02-0.11-0.03-0.23-0.04-0.34c0-0.12,0.03-0.21,0.1-0.27c0.07-0.06,0.15-0.08,0.24-0.06C5.43,56.53,5.48,56.79,5.4,57.24z
	 M3.46,58.16c0.02,0.08,0.01,0.17-0.02,0.26c-0.03,0.1-0.07,0.2-0.14,0.32c-0.06,0.12-0.14,0.22-0.24,0.32
	c-0.07,0.06-0.12,0.1-0.16,0.1c-0.02,0-0.08-0.03-0.16-0.1c-0.09-0.07-0.16-0.13-0.23-0.19c-0.07-0.06-0.13-0.11-0.18-0.16
	c-0.05-0.05-0.07-0.09-0.07-0.12c0.16-0.34,0.26-0.56,0.32-0.67c0.06-0.1,0.15-0.26,0.27-0.46C2.91,57.53,3,57.6,3.1,57.68
	c0.11,0.08,0.19,0.16,0.24,0.23S3.44,58.06,3.46,58.16z"/>
<path class="st104" d="M4.36,63.46C4.52,63.15,4.62,63,4.65,63c0.07-0.03,0.17,0.02,0.3,0.15c0.13,0.13,0.23,0.24,0.3,0.33
	c0.08-0.13,0.17-0.28,0.27-0.44c0.1-0.16,0.16-0.24,0.19-0.24c0.1,0,0.22,0.07,0.35,0.22c0.14,0.14,0.21,0.28,0.22,0.41
	c0,0.15-0.07,0.33-0.22,0.54c-0.14,0.2-0.25,0.3-0.32,0.3c-0.04,0-0.12-0.06-0.24-0.17c-0.12-0.12-0.22-0.2-0.3-0.27
	c-0.21,0.43-0.39,0.65-0.51,0.65c-0.03,0-0.08-0.03-0.14-0.08c-0.06-0.05-0.14-0.12-0.26-0.21S4.11,64.02,4.11,64
	C4.11,63.94,4.19,63.77,4.36,63.46z M5.19,56.82c-0.01,0.12-0.01,0.24-0.01,0.36c0.01,0.12,0.02,0.24,0.04,0.37
	c0.02,0.12,0.03,0.25,0.04,0.37c0.02-0.08,0.06-0.25,0.12-0.5c0.03-0.09,0.06-0.15,0.09-0.18c0.03-0.03,0.07-0.05,0.12-0.08
	c0.15-0.08,0.27-0.2,0.38-0.36c0.08-0.12,0.13-0.21,0.16-0.3c0.03-0.08,0.06-0.17,0.08-0.28S6.24,56.04,6.24,56
	c0-0.07-0.02-0.11-0.06-0.11c-0.06,0-0.13,0.11-0.21,0.34c-0.03,0.08-0.08,0.15-0.15,0.19c-0.07,0.04-0.17,0.06-0.31,0.05
	c-0.14-0.01-0.22-0.02-0.25-0.02C5.22,56.58,5.2,56.7,5.19,56.82z"/>
<path class="st104" d="M8.32,58.35c-0.14,0.39-0.27,0.67-0.39,0.85s-0.21,0.3-0.28,0.34c-0.07,0.04-0.17,0.09-0.3,0.14
	C7.21,59.73,7,59.8,6.73,59.89c-0.28,0.09-0.44,0.13-0.49,0.13c-0.03,0-0.05-0.01-0.05-0.02c-0.03-0.04,0.13-0.19,0.5-0.43
	c0.36-0.24,0.6-0.4,0.7-0.48s0.21-0.19,0.32-0.33c0.11-0.14,0.19-0.31,0.24-0.49c-0.06-0.01-0.11,0-0.17,0.03
	c-0.06,0.03-0.11,0.04-0.17,0.04c-0.15,0-0.27-0.05-0.37-0.14s-0.14-0.19-0.13-0.3c0.02-0.07,0.04-0.15,0.07-0.24
	c0.03-0.09,0.09-0.23,0.19-0.43c0.1-0.19,0.19-0.36,0.29-0.48c0.1-0.13,0.19-0.19,0.29-0.19c0.16,0,0.3,0.07,0.41,0.21
	s0.16,0.31,0.16,0.5c0,0.1-0.01,0.2-0.02,0.29c-0.01,0.1-0.02,0.18-0.04,0.25c-0.01,0.06-0.03,0.15-0.06,0.25
	C8.38,58.17,8.35,58.26,8.32,58.35z"/>
<path class="st104" d="M8.18,57.9c0-0.03-0.02-0.13-0.06-0.32c-0.01-0.06-0.01-0.11-0.01-0.16c0-0.1,0.09-0.18,0.27-0.24
	c0.06-0.02,0.14-0.08,0.23-0.17c0.09-0.09,0.14-0.16,0.16-0.22c0.01-0.06,0.02-0.11,0.01-0.16c0-0.05-0.01-0.11-0.02-0.2
	c-0.01-0.04-0.01-0.1-0.01-0.18c0-0.04,0-0.08,0.01-0.11c0.01-0.05,0.17-0.44,0.49-1.17c0.04-0.02,0.07-0.02,0.08,0
	s0.02,0.07,0.02,0.14l-0.01,0.94c-0.01,0.34-0.09,0.66-0.23,0.96c-0.15,0.3-0.27,0.51-0.38,0.63C8.61,57.77,8.5,57.88,8.39,58
	C8.28,58.18,8.22,58.14,8.18,57.9z M8.52,52.7c0-0.09,0.07-0.28,0.22-0.57c0.15-0.29,0.25-0.44,0.29-0.44
	c0.09-0.04,0.21,0.03,0.38,0.2c0.17,0.17,0.26,0.3,0.27,0.4c0,0.13-0.07,0.31-0.21,0.55c-0.14,0.24-0.24,0.36-0.3,0.36
	c-0.02-0.01-0.11-0.06-0.25-0.16c-0.14-0.09-0.25-0.16-0.31-0.21C8.55,52.79,8.52,52.74,8.52,52.7z"/>
<path class="st104" d="M15.77,55.18c-0.02,0.1-0.04,0.2-0.07,0.29c-0.03,0.09-0.09,0.22-0.17,0.39c-0.08,0.17-0.12,0.26-0.14,0.29
	c-0.06,0.1-0.12,0.15-0.17,0.15c-0.04-0.02-0.07-0.05-0.1-0.07c-0.03-0.02-0.05-0.03-0.08-0.03c-0.1,0-0.23,0.04-0.39,0.12
	c-0.16,0.08-0.34,0.21-0.54,0.39c-0.19,0.18-0.35,0.35-0.46,0.5c-0.11,0.16-0.16,0.26-0.16,0.32c0,0.09,0.03,0.16,0.08,0.2
	c0.05,0.04,0.13,0.08,0.26,0.13c0.12,0.05,0.2,0.09,0.24,0.12c0.13,0.09,0.2,0.27,0.2,0.54c0,0.37-0.07,0.79-0.21,1.27
	c-0.14,0.47-0.32,0.89-0.55,1.24c-0.12,0.16-0.25,0.33-0.41,0.49c-0.16,0.16-0.32,0.3-0.5,0.42c-0.34,0.23-0.74,0.34-1.18,0.34
	c-0.5-0.01-0.89-0.18-1.15-0.51c-0.12-0.17-0.2-0.35-0.25-0.54c-0.05-0.19-0.07-0.37-0.07-0.54c0-0.22,0.02-0.43,0.05-0.64
	c0.03-0.21,0.08-0.42,0.15-0.63c0.1-0.34,0.23-0.67,0.38-0.99c0.15-0.32,0.27-0.57,0.36-0.77l0.28-0.6c0.03-0.07,0.07-0.13,0.1-0.2
	c0.04-0.06,0.07-0.1,0.1-0.1c0.04,0,0.06,0.03,0.06,0.1s0,0.11-0.02,0.14c-0.04,0.12-0.08,0.21-0.11,0.29
	c-0.03,0.08-0.08,0.19-0.14,0.34c-0.06,0.15-0.13,0.31-0.21,0.48c-0.07,0.17-0.13,0.31-0.18,0.42c-0.23,0.62-0.35,1.09-0.35,1.4
	c0,0.33,0.12,0.58,0.35,0.78c0.23,0.19,0.56,0.29,0.98,0.29c0.35,0,0.69-0.08,1.01-0.24c0.24-0.12,0.45-0.27,0.61-0.45
	c0.16-0.17,0.29-0.34,0.37-0.49c0.09-0.15,0.13-0.29,0.13-0.41c0-0.08-0.06-0.13-0.17-0.17c-0.11-0.04-0.19-0.06-0.24-0.07
	s-0.11-0.03-0.17-0.07c-0.12-0.06-0.22-0.13-0.28-0.22c-0.06-0.09-0.1-0.21-0.1-0.37c0-0.23,0.08-0.53,0.23-0.89
	s0.37-0.72,0.65-1.07c0.23-0.29,0.43-0.52,0.62-0.7c0.1-0.09,0.23-0.2,0.38-0.31c0.16-0.12,0.31-0.22,0.45-0.3
	c0.18-0.1,0.32-0.16,0.42-0.18c0.04,0,0.07,0.02,0.09,0.05S15.78,55.15,15.77,55.18z"/>
<path class="st104" d="M16.91,57.19c-0.29,0.41-0.43,0.76-0.43,1.05c0,0.13,0.02,0.24,0.07,0.33c0.05,0.09,0.09,0.13,0.13,0.13
	c0.04,0,0.1-0.09,0.17-0.28c0.04-0.1,0.06-0.15,0.07-0.15c0.08,0,0.16,0.07,0.23,0.2c0.05,0.09,0.07,0.18,0.07,0.28
	c0,0.27-0.09,0.54-0.26,0.81c-0.19,0.32-0.42,0.48-0.67,0.48c-0.16,0-0.3-0.08-0.41-0.23c-0.11-0.15-0.16-0.32-0.16-0.51
	c0-0.3,0.1-0.66,0.3-1.06c0.16-0.33,0.4-0.69,0.7-1.09c-0.16-0.07-0.31-0.18-0.44-0.33c-0.13-0.15-0.19-0.36-0.19-0.64
	c0-0.2,0.04-0.48,0.12-0.83c0.06-0.23,0.1-0.39,0.13-0.47c0.1-0.3,0.23-0.66,0.41-1.06c0.18-0.41,0.3-0.61,0.36-0.61
	c0.04,0,0.05,0.07,0.01,0.18c-0.07,0.2-0.13,0.4-0.18,0.6c-0.03,0.12-0.06,0.27-0.11,0.47c-0.05,0.19-0.07,0.4-0.09,0.61
	c0,0.19,0.03,0.35,0.11,0.48s0.25,0.21,0.52,0.24c0.05,0,0.09,0,0.13,0c0.04,0,0.06,0.03,0.06,0.08c0,0.08-0.02,0.17-0.05,0.27
	c-0.04,0.1-0.12,0.28-0.25,0.52c-0.1,0.16-0.19,0.31-0.28,0.45C16.95,57.13,16.93,57.16,16.91,57.19z"/>
<path class="st104" d="M24.22,55.18c-0.02,0.1-0.04,0.2-0.07,0.29c-0.03,0.09-0.09,0.22-0.17,0.39c-0.08,0.17-0.12,0.26-0.14,0.29
	c-0.06,0.1-0.12,0.15-0.17,0.15c-0.04-0.02-0.07-0.05-0.1-0.07c-0.03-0.02-0.05-0.03-0.08-0.03c-0.1,0-0.23,0.04-0.39,0.12
	c-0.16,0.08-0.34,0.21-0.54,0.39c-0.19,0.18-0.35,0.35-0.46,0.5c-0.11,0.16-0.16,0.26-0.16,0.32c0,0.09,0.03,0.16,0.08,0.2
	c0.05,0.04,0.13,0.08,0.26,0.13s0.2,0.09,0.24,0.12c0.13,0.09,0.2,0.27,0.2,0.54c0,0.37-0.07,0.79-0.21,1.27
	c-0.14,0.47-0.32,0.89-0.55,1.24c-0.12,0.16-0.25,0.33-0.41,0.49s-0.32,0.3-0.5,0.42c-0.34,0.23-0.74,0.34-1.18,0.34
	c-0.5-0.01-0.89-0.18-1.15-0.51c-0.12-0.17-0.2-0.35-0.25-0.54c-0.05-0.19-0.07-0.37-0.07-0.54c0-0.22,0.02-0.43,0.05-0.64
	c0.03-0.21,0.08-0.42,0.15-0.63c0.1-0.34,0.23-0.67,0.38-0.99c0.15-0.32,0.27-0.57,0.36-0.77l0.28-0.6c0.03-0.07,0.07-0.13,0.1-0.2
	c0.04-0.06,0.07-0.1,0.1-0.1c0.04,0,0.06,0.03,0.06,0.1s0,0.11-0.02,0.14c-0.04,0.12-0.08,0.21-0.11,0.29
	c-0.03,0.08-0.08,0.19-0.14,0.34c-0.06,0.15-0.13,0.31-0.21,0.48c-0.07,0.17-0.13,0.31-0.18,0.42c-0.23,0.62-0.35,1.09-0.35,1.4
	c0,0.33,0.12,0.58,0.35,0.78c0.23,0.19,0.56,0.29,0.98,0.29c0.35,0,0.69-0.08,1.01-0.24c0.24-0.12,0.45-0.27,0.61-0.45
	s0.29-0.34,0.37-0.49c0.09-0.15,0.13-0.29,0.13-0.41c0-0.08-0.06-0.13-0.17-0.17s-0.19-0.06-0.24-0.07s-0.11-0.03-0.17-0.07
	c-0.12-0.06-0.22-0.13-0.28-0.22c-0.06-0.09-0.1-0.21-0.1-0.37c0-0.23,0.08-0.53,0.23-0.89c0.15-0.36,0.37-0.72,0.65-1.07
	c0.23-0.29,0.43-0.52,0.62-0.7c0.1-0.09,0.23-0.2,0.38-0.31c0.16-0.12,0.31-0.22,0.45-0.3c0.18-0.1,0.32-0.16,0.42-0.18
	c0.04,0,0.07,0.02,0.09,0.05C24.22,55.12,24.23,55.15,24.22,55.18z"/>
<path class="st104" d="M26.22,56.93c0,0.11-0.04,0.3-0.12,0.58c-0.08,0.28-0.18,0.59-0.3,0.92c-0.13,0.33-0.24,0.59-0.33,0.76
	c-0.1,0.17-0.2,0.3-0.31,0.39c-0.11,0.09-0.3,0.17-0.55,0.25s-0.46,0.12-0.61,0.15c-0.15,0.03-0.25,0.04-0.29,0.04
	c-0.04,0-0.06-0.02-0.07-0.05c-0.01-0.03,0-0.06,0.04-0.11c0.04-0.07,0.15-0.16,0.33-0.27c0.18-0.11,0.38-0.25,0.62-0.41
	c0.23-0.17,0.4-0.31,0.5-0.43s0.21-0.31,0.34-0.55c0.13-0.25,0.24-0.5,0.34-0.75c0.1-0.25,0.17-0.42,0.22-0.51
	c0.04-0.09,0.09-0.14,0.14-0.13C26.19,56.82,26.22,56.86,26.22,56.93z"/>
<path class="st104" d="M28.34,58.35c-0.14,0.39-0.27,0.67-0.39,0.85s-0.21,0.3-0.28,0.34c-0.07,0.04-0.17,0.09-0.3,0.14
	c-0.14,0.05-0.34,0.12-0.62,0.21c-0.28,0.09-0.44,0.13-0.49,0.13c-0.03,0-0.05-0.01-0.05-0.02c-0.03-0.04,0.13-0.19,0.5-0.43
	c0.36-0.24,0.6-0.4,0.7-0.48s0.21-0.19,0.32-0.33c0.11-0.14,0.19-0.31,0.24-0.49c-0.06-0.01-0.11,0-0.17,0.03
	c-0.06,0.03-0.11,0.04-0.17,0.04c-0.15,0-0.27-0.05-0.37-0.14s-0.14-0.19-0.13-0.3c0.02-0.07,0.04-0.15,0.07-0.24
	c0.03-0.09,0.09-0.23,0.19-0.43c0.1-0.19,0.19-0.36,0.29-0.48c0.1-0.13,0.19-0.19,0.29-0.19c0.16,0,0.3,0.07,0.41,0.21
	c0.11,0.14,0.16,0.31,0.16,0.5c0,0.1-0.01,0.2-0.02,0.29c-0.01,0.1-0.02,0.18-0.04,0.25c-0.01,0.06-0.03,0.15-0.06,0.25
	C28.41,58.17,28.38,58.26,28.34,58.35z"/>
<path class="st104" d="M29.5,57.78c-0.01,0.15-0.02,0.29-0.05,0.41c-0.02,0.12-0.06,0.22-0.1,0.31c-0.04,0.09-0.09,0.15-0.15,0.19
	c-0.06,0.04-0.14,0.06-0.22,0.04c0-0.31,0.04-0.74,0.1-1.3c0.06-0.56,0.15-1.17,0.28-1.84c0.06-0.19,0.19-0.54,0.39-1.03
	c0.02-0.05,0.04-0.07,0.06-0.06c0.02,0.01,0.03,0.03,0.03,0.06c-0.01,0.24-0.06,0.71-0.15,1.39s-0.14,1.15-0.16,1.41
	C29.51,57.61,29.5,57.75,29.5,57.78z"/>
<path class="st104" d="M31.57,58.78c-0.12-0.02-0.21-0.02-0.27,0c-0.21,0.07-0.42,0.29-0.64,0.67c-0.23,0.38-0.5,0.57-0.79,0.57
	c-0.29-0.02-0.52-0.16-0.67-0.4c-0.15-0.24-0.23-0.54-0.23-0.89c0.07-0.23,0.14-0.43,0.23-0.6c0.08-0.17,0.18-0.28,0.29-0.35
	c0,0.4,0.1,0.69,0.29,0.86c0.15,0.13,0.32,0.2,0.51,0.2c0.27,0,0.49-0.12,0.67-0.36c0.13-0.17,0.24-0.3,0.34-0.38S31.49,58,31.57,58
	c0.01,0.02,0.02,0.07,0.04,0.17c0.02,0.1,0.03,0.18,0.03,0.26c0,0.08-0.01,0.15-0.02,0.2C31.61,58.67,31.59,58.72,31.57,58.78z
	 M30.27,55.33c0-0.09,0.07-0.28,0.22-0.57c0.15-0.29,0.25-0.44,0.29-0.44c0.09-0.04,0.21,0.03,0.38,0.2c0.17,0.17,0.26,0.3,0.27,0.4
	c0,0.13-0.07,0.31-0.21,0.55s-0.24,0.36-0.3,0.36c-0.02-0.01-0.11-0.06-0.25-0.16c-0.14-0.09-0.25-0.16-0.31-0.21
	C30.3,55.42,30.27,55.37,30.27,55.33z"/>
<path class="st104" d="M31.57,58c0.16,0.06,0.28,0.08,0.35,0.07s0.14-0.03,0.2-0.07c0.06-0.04,0.09-0.11,0.09-0.21
	c0-0.07-0.03-0.14-0.08-0.21c-0.06-0.07-0.11-0.1-0.17-0.1l-0.1,0.05c-0.02,0.02-0.09,0.02-0.18,0.02c-0.12,0-0.24-0.02-0.35-0.07
	c-0.11-0.05-0.16-0.12-0.16-0.23c0-0.08,0.02-0.17,0.06-0.27c0.04-0.12,0.12-0.28,0.22-0.49c0.07-0.16,0.14-0.3,0.23-0.42
	c0.08-0.12,0.15-0.18,0.21-0.18c0.17,0,0.35,0.09,0.51,0.26c0.22,0.21,0.33,0.48,0.33,0.81c0,0.16-0.02,0.32-0.06,0.48
	c-0.04,0.19-0.1,0.36-0.18,0.53c-0.12,0.23-0.25,0.44-0.39,0.6c-0.14,0.16-0.26,0.24-0.36,0.24l-0.15-0.02
	c-0.06-0.16-0.09-0.31-0.09-0.44C31.48,58.21,31.51,58.1,31.57,58z M32.23,52.28c0-0.09,0.07-0.28,0.22-0.57
	c0.15-0.29,0.25-0.44,0.29-0.44c0.09-0.04,0.21,0.03,0.38,0.2c0.17,0.17,0.26,0.3,0.27,0.4c0,0.13-0.07,0.31-0.21,0.55
	c-0.14,0.24-0.24,0.36-0.3,0.36c-0.02-0.01-0.11-0.06-0.25-0.16c-0.14-0.09-0.25-0.16-0.31-0.21
	C32.26,52.36,32.23,52.32,32.23,52.28z"/>
<g>
	<path class="st104" d="M39,10.43H22.14C22.15,10.43,29.73,4.4,39,10.43z"/>
	<polygon class="st104" points="42.7,14.21 44.15,16.56 9.36,16.56 10.25,14.21 	"/>
	<polygon class="st104" points="45.32,20.44 45.5,22.68 8.46,22.68 8.64,20.44 	"/>
	<path class="st104" d="M45.23,26.57c0,0-0.18,0.9-0.81,2.35H9.09l-0.36-2.35H45.23z"/>
	<polygon class="st104" points="52.71,23.41 52.53,25.75 15.76,25.75 15.58,23.41 	"/>
	<polygon class="st104" points="51.81,29.62 50.99,31.97 18.18,31.97 17.01,29.62 	"/>
	<polygon class="st104" points="16.75,17.28 16.03,19.63 52.44,19.63 51.99,17.28 	"/>
	<path class="st104" d="M39,35.75H22.23C22.25,35.75,29.64,42.07,39,35.75z"/>
	<path class="st104" d="M20.53,35.11h19.28l2.44-2.42H10.34c0,0,5.58,13.24,19.73,13.24s20.29-11.62,20.47-13.24
		c0,0-4.77,8.93-14.87,8.93S22.25,37.1,20.53,35.11z"/>
	<path class="st104" d="M21.25,11.06c0,0-1.9,1.72-2.35,2.44h31.64c0,0-5.22-13.15-19.64-13.15s-19.66,11.8-20.29,13.14
		c0,0,5.31-9.02,15.32-9.02s14.78,6.67,14.78,6.67L21.25,11.06z"/>
	<path class="st104" d="M35.5,58.35c-0.14,0.39-0.27,0.67-0.39,0.85c-0.12,0.18-0.21,0.3-0.28,0.34c-0.07,0.04-0.17,0.09-0.3,0.14
		c-0.14,0.05-0.34,0.12-0.62,0.21c-0.28,0.09-0.44,0.13-0.49,0.13c-0.03,0-0.05-0.01-0.05-0.02c-0.03-0.04,0.13-0.19,0.5-0.43
		c0.36-0.24,0.6-0.4,0.7-0.48c0.11-0.08,0.21-0.19,0.32-0.33c0.11-0.14,0.19-0.31,0.24-0.49c-0.06-0.01-0.11,0-0.17,0.03
		c-0.06,0.03-0.11,0.04-0.17,0.04c-0.15,0-0.27-0.05-0.37-0.14s-0.14-0.19-0.13-0.3c0.02-0.07,0.04-0.15,0.07-0.24
		c0.03-0.09,0.09-0.23,0.19-0.43c0.1-0.19,0.19-0.36,0.29-0.48c0.1-0.13,0.19-0.19,0.29-0.19c0.16,0,0.3,0.07,0.41,0.21
		s0.16,0.31,0.16,0.5c0,0.1-0.01,0.2-0.02,0.29c-0.01,0.1-0.02,0.18-0.04,0.25c-0.01,0.06-0.03,0.15-0.06,0.25
		C35.56,58.17,35.53,58.26,35.5,58.35z"/>
	<path class="st104" d="M37.06,60.02c-0.33-0.03-0.63,0.04-0.91,0.21c-0.03,0.02-0.06,0.02-0.09,0c-0.03-0.02-0.02-0.08,0.02-0.18
		c0.05-0.12,0.17-0.28,0.35-0.5c0.18-0.21,0.39-0.39,0.63-0.52C37.18,59.38,37.18,59.71,37.06,60.02z"/>
	<path class="st104" d="M40.2,59.02c-0.1,0.1-0.19,0.17-0.29,0.21c-0.09,0.04-0.19,0.06-0.3,0.06c-0.06,0-0.13-0.01-0.2-0.02
		c-0.08-0.01-0.15-0.03-0.18-0.04l-0.42,0.35l-0.36,0.32c-0.24,0.17-0.52,0.26-0.82,0.26c-0.12,0-0.23-0.02-0.33-0.05
		c-0.1-0.04-0.17-0.06-0.22-0.07c-0.01-0.05-0.02-0.12-0.03-0.19c-0.01-0.08-0.02-0.16-0.02-0.25c0-0.09,0-0.18,0.01-0.27
		c0.01-0.09,0.02-0.18,0.04-0.27c0.16-0.08,0.31-0.11,0.45-0.11s0.29,0.02,0.44,0.07c0.07,0.02,0.16,0.03,0.27,0.03
		c0.2,0,0.36-0.03,0.49-0.1s0.19-0.13,0.19-0.21c0-0.18-0.03-0.29-0.09-0.34s-0.15-0.07-0.26-0.07c-0.18,0.02-0.25,0.03-0.23,0.02
		c-0.04-0.01-0.06-0.04-0.04-0.07c0.02-0.08,0.1-0.17,0.24-0.28c0.09-0.07,0.18-0.12,0.26-0.16c0.09-0.04,0.17-0.06,0.25-0.08
		c0.09-0.02,0.2-0.04,0.33-0.04c0.13,0,0.27,0.02,0.41,0.07c0.13,0.05,0.2,0.14,0.2,0.27c0,0.05-0.02,0.13-0.07,0.23
		c-0.05,0.1-0.11,0.21-0.2,0.32c0,0.03,0.04,0.04,0.11,0.04c0.06,0,0.11-0.01,0.15-0.02c0.04-0.01,0.11-0.04,0.21-0.1
		c0.02,0.02,0.04,0.04,0.07,0.08c0.02,0.04,0.03,0.08,0.03,0.11c0,0.04-0.01,0.09-0.03,0.15C40.24,58.93,40.21,58.98,40.2,59.02z"/>
</g>
<path class="st104" d="M40.48,58.32c0.15-0.13,0.25-0.24,0.32-0.33c0.06-0.08,0.11-0.16,0.16-0.25c0.04,0.01,0.11,0.02,0.2,0.02
	c0.12,0,0.21-0.05,0.27-0.14c0.06-0.1,0.11-0.17,0.13-0.23c0.03-0.06,0.06-0.11,0.1-0.16c0.02-0.01,0.04-0.01,0.08,0.01
	c0.04,0.02,0.08,0.03,0.11,0.01c0.08-0.04,0.17-0.16,0.27-0.36c0.02-0.04,0.04-0.08,0.07-0.12c0.02-0.03,0.04-0.04,0.06-0.04
	c0.02,0,0.04,0.03,0.04,0.08c0,0.06-0.02,0.15-0.05,0.26c-0.08,0.28-0.2,0.49-0.34,0.63c-0.1,0.12-0.24,0.25-0.44,0.39
	c-0.16,0.17-0.29,0.27-0.4,0.32c-0.11,0.05-0.16,0.07-0.17,0.07l-0.69,0.51c-0.03-0.08-0.04-0.17-0.05-0.25
	c0-0.08,0.01-0.17,0.05-0.25L40.48,58.32z"/>
<path class="st104" d="M44.33,58.35c-0.14,0.39-0.27,0.67-0.39,0.85c-0.12,0.18-0.21,0.3-0.28,0.34c-0.07,0.04-0.17,0.09-0.3,0.14
	c-0.14,0.05-0.34,0.12-0.62,0.21c-0.28,0.09-0.44,0.13-0.49,0.13c-0.03,0-0.05-0.01-0.05-0.02c-0.03-0.04,0.13-0.19,0.5-0.43
	c0.36-0.24,0.6-0.4,0.7-0.48c0.11-0.08,0.21-0.19,0.32-0.33c0.11-0.14,0.19-0.31,0.24-0.49c-0.06-0.01-0.11,0-0.17,0.03
	c-0.06,0.03-0.11,0.04-0.17,0.04c-0.15,0-0.27-0.05-0.37-0.14s-0.14-0.19-0.13-0.3c0.02-0.07,0.04-0.15,0.07-0.24
	c0.03-0.09,0.09-0.23,0.19-0.43c0.1-0.19,0.19-0.36,0.29-0.48c0.1-0.13,0.19-0.19,0.29-0.19c0.16,0,0.3,0.07,0.41,0.21
	s0.16,0.31,0.16,0.5c0,0.1-0.01,0.2-0.02,0.29c-0.01,0.1-0.02,0.18-0.04,0.25c-0.01,0.06-0.03,0.15-0.06,0.25
	C44.39,58.17,44.36,58.26,44.33,58.35z"/>
<path class="st104" d="M43.96,52.75c0-0.05,0.08-0.23,0.24-0.54c0.16-0.31,0.26-0.46,0.3-0.46c0.07-0.03,0.17,0.02,0.3,0.15
	c0.13,0.12,0.23,0.24,0.3,0.33c0.08-0.13,0.17-0.28,0.27-0.44c0.1-0.16,0.16-0.24,0.19-0.24c0.1,0,0.22,0.07,0.35,0.22
	c0.14,0.15,0.21,0.28,0.22,0.41c0,0.15-0.07,0.33-0.22,0.54c-0.14,0.2-0.25,0.3-0.32,0.3c-0.04,0-0.12-0.06-0.24-0.17
	c-0.12-0.12-0.22-0.2-0.3-0.27c-0.21,0.43-0.39,0.65-0.51,0.65c-0.03,0-0.08-0.03-0.14-0.08c-0.06-0.05-0.14-0.12-0.26-0.21
	C44.02,52.83,43.96,52.77,43.96,52.75z M44.19,57.9c0-0.03-0.02-0.13-0.06-0.32c-0.01-0.06-0.01-0.11-0.01-0.16
	c0-0.1,0.09-0.18,0.27-0.24c0.06-0.02,0.14-0.08,0.23-0.17s0.14-0.16,0.16-0.22c0.01-0.06,0.02-0.11,0.01-0.16
	c0-0.05-0.01-0.11-0.02-0.2c-0.01-0.04-0.01-0.1-0.01-0.18c0-0.04,0-0.08,0.01-0.11c0.01-0.05,0.17-0.44,0.49-1.17
	c0.04-0.02,0.07-0.02,0.08,0s0.02,0.07,0.02,0.14l-0.01,0.94c-0.01,0.34-0.09,0.66-0.23,0.96c-0.15,0.3-0.27,0.51-0.38,0.63
	c-0.11,0.12-0.22,0.23-0.33,0.35C44.3,58.18,44.23,58.14,44.19,57.9z"/>
<path class="st104" d="M51.13,57.5c0,0.26-0.04,0.57-0.11,0.94c-0.07,0.37-0.15,0.66-0.24,0.89c-0.15,0.38-0.31,0.72-0.48,1
	c-0.12,0.19-0.27,0.41-0.45,0.63c-0.34,0.43-0.68,0.75-1,0.94c-0.39,0.23-0.83,0.35-1.31,0.35c-0.5,0-0.89-0.17-1.16-0.52
	c-0.23-0.31-0.35-0.71-0.35-1.2c0-0.22,0.03-0.47,0.08-0.75c0.05-0.28,0.14-0.58,0.27-0.87s0.36-0.73,0.71-1.29
	c0.03-0.06,0.06-0.11,0.1-0.16c0.03-0.05,0.06-0.06,0.09-0.04c0.06,0.05,0.01,0.21-0.14,0.49c-0.11,0.19-0.19,0.33-0.23,0.42
	c-0.11,0.24-0.21,0.5-0.29,0.77c-0.08,0.27-0.12,0.48-0.12,0.64c0,0.47,0.15,0.8,0.44,0.99c0.23,0.16,0.55,0.23,0.98,0.23
	c0.37,0,0.7-0.06,1-0.18c0.45-0.18,0.84-0.49,1.17-0.92c0.16-0.21,0.29-0.46,0.4-0.73c0.11-0.27,0.16-0.53,0.16-0.78
	c0-0.15-0.02-0.25-0.07-0.32c-0.05-0.06-0.11-0.1-0.18-0.11c-0.09,0.02-0.16,0.04-0.22,0.04c-0.12,0-0.22-0.03-0.3-0.1
	c-0.08-0.07-0.11-0.16-0.09-0.27c0.02-0.11,0.08-0.25,0.16-0.43c0.05-0.1,0.11-0.2,0.16-0.31c0.06-0.11,0.11-0.2,0.16-0.26
	c0.09-0.11,0.17-0.16,0.26-0.16c0.18,0,0.33,0.1,0.44,0.31C51.07,56.91,51.13,57.18,51.13,57.5z M47.86,54.05
	c0-0.05,0.08-0.24,0.25-0.56c0.17-0.32,0.27-0.48,0.31-0.48c0.07-0.03,0.17,0.02,0.31,0.15c0.14,0.13,0.24,0.25,0.31,0.35
	c0.08-0.14,0.17-0.29,0.27-0.46c0.1-0.17,0.17-0.26,0.2-0.26c0.1,0,0.23,0.08,0.37,0.23c0.15,0.15,0.22,0.29,0.23,0.43
	c0,0.16-0.08,0.35-0.23,0.56c-0.15,0.21-0.26,0.32-0.33,0.32c-0.04,0-0.13-0.06-0.25-0.18c-0.12-0.12-0.23-0.21-0.32-0.28
	c-0.22,0.45-0.4,0.68-0.54,0.68c-0.03,0-0.08-0.03-0.14-0.08c-0.06-0.05-0.15-0.12-0.27-0.22S47.86,54.08,47.86,54.05z"/>
<path class="st104" d="M53.3,58.35c-0.14,0.39-0.27,0.67-0.39,0.85c-0.12,0.18-0.21,0.3-0.28,0.34c-0.07,0.04-0.17,0.09-0.3,0.14
	c-0.14,0.05-0.34,0.12-0.62,0.21c-0.28,0.09-0.44,0.13-0.49,0.13c-0.03,0-0.05-0.01-0.05-0.02c-0.03-0.04,0.13-0.19,0.5-0.43
	c0.36-0.24,0.6-0.4,0.7-0.48c0.11-0.08,0.21-0.19,0.32-0.33c0.11-0.14,0.19-0.31,0.24-0.49c-0.06-0.01-0.11,0-0.17,0.03
	c-0.06,0.03-0.11,0.04-0.17,0.04c-0.15,0-0.27-0.05-0.37-0.14s-0.14-0.19-0.13-0.3c0.02-0.07,0.04-0.15,0.07-0.24
	c0.03-0.09,0.09-0.23,0.19-0.43c0.1-0.19,0.19-0.36,0.29-0.48c0.1-0.13,0.19-0.19,0.29-0.19c0.16,0,0.3,0.07,0.41,0.21
	c0.11,0.14,0.16,0.31,0.16,0.5c0,0.1-0.01,0.2-0.02,0.29c-0.01,0.1-0.02,0.18-0.04,0.25c-0.01,0.06-0.03,0.15-0.06,0.25
	C53.36,58.17,53.33,58.26,53.3,58.35z"/>
<path class="st104" d="M54.71,59.61c-0.08,0.1-0.16,0.18-0.21,0.22c-0.08,0.06-0.16,0.1-0.24,0.13c-0.08,0.03-0.17,0.06-0.27,0.08
	c-0.1,0.02-0.19,0.04-0.29,0.07l-0.39,0.1c-0.16,0.03-0.26,0.03-0.29,0.01c0-0.06,0.07-0.13,0.2-0.21c0.12-0.08,0.24-0.15,0.36-0.23
	c0.12-0.08,0.25-0.15,0.37-0.23c0.31-0.22,0.55-0.42,0.7-0.61c0.12-0.15,0.21-0.28,0.28-0.39c0.04-0.06,0.11-0.17,0.2-0.33
	l0.26-0.52c0.06-0.12,0.12-0.22,0.17-0.3c0.05-0.08,0.1-0.11,0.14-0.11c0.04,0.02,0.05,0.06,0.04,0.12
	c-0.04,0.13-0.07,0.22-0.08,0.26c-0.06,0.21-0.1,0.36-0.1,0.44c-0.02,0.07-0.04,0.12-0.05,0.14c-0.1,0.21-0.19,0.42-0.3,0.61
	C55.17,58.93,55,59.18,54.71,59.61z"/>
<path class="st104" d="M57.62,58.78c-0.12-0.02-0.21-0.02-0.27,0c-0.21,0.07-0.42,0.29-0.64,0.67c-0.23,0.38-0.5,0.57-0.79,0.57
	c-0.29-0.02-0.52-0.16-0.67-0.4c-0.15-0.24-0.23-0.54-0.23-0.89c0.07-0.23,0.14-0.43,0.23-0.6c0.08-0.17,0.18-0.28,0.29-0.35
	c0,0.4,0.1,0.69,0.29,0.86c0.15,0.13,0.32,0.2,0.51,0.2c0.27,0,0.49-0.12,0.67-0.36c0.13-0.17,0.24-0.3,0.34-0.38
	c0.09-0.08,0.18-0.11,0.27-0.11c0.01,0.02,0.02,0.07,0.04,0.17c0.02,0.1,0.03,0.18,0.03,0.26c0,0.08-0.01,0.15-0.02,0.2
	C57.66,58.67,57.64,58.72,57.62,58.78z M56.32,55.33c0-0.09,0.07-0.28,0.22-0.57c0.15-0.29,0.25-0.44,0.29-0.44
	c0.09-0.04,0.21,0.03,0.38,0.2c0.17,0.17,0.26,0.3,0.27,0.4c0,0.13-0.07,0.31-0.21,0.55c-0.14,0.24-0.24,0.36-0.3,0.36
	c-0.02-0.01-0.11-0.06-0.25-0.16c-0.14-0.09-0.25-0.16-0.31-0.21C56.35,55.42,56.32,55.37,56.32,55.33z"/>
<path class="st104" d="M60.83,56.45c0,0.31-0.1,0.63-0.29,0.97c-0.19,0.34-0.43,0.61-0.71,0.79c-0.1,0.08-0.22,0.14-0.36,0.17
	c-0.16,0.04-0.31,0.07-0.45,0.07c-0.18,0-0.32-0.03-0.41-0.08c-0.08-0.04-0.14-0.09-0.17-0.14c-0.03-0.04-0.05-0.06-0.07-0.06
	c-0.03,0-0.07,0.03-0.12,0.1c-0.04,0.05-0.12,0.17-0.26,0.37c-0.07,0.1-0.13,0.15-0.2,0.16c-0.07,0.02-0.12,0.01-0.17-0.01
	c-0.04-0.13-0.06-0.26-0.06-0.39c0-0.13,0.02-0.26,0.06-0.39c0.03,0.01,0.08,0.02,0.15,0.04c0.07,0.02,0.12,0.03,0.16,0.03
	c0.1,0,0.21-0.09,0.35-0.27c0.14-0.22,0.23-0.33,0.29-0.33c0.02,0,0.07,0.01,0.14,0.04c0.06,0.02,0.13,0.04,0.2,0.04
	c0.05,0,0.11-0.05,0.18-0.14c0.26-0.36,0.43-0.6,0.51-0.71c0.14-0.19,0.28-0.36,0.44-0.48c0.14-0.12,0.27-0.18,0.38-0.18
	c0.12,0,0.22,0.04,0.3,0.12C60.79,56.21,60.83,56.32,60.83,56.45z M60.53,56.8c-0.02-0.03-0.07-0.07-0.13-0.11
	c-0.07-0.04-0.15-0.06-0.27-0.05c-0.16,0-0.35,0.14-0.55,0.41c-0.06,0.08-0.12,0.17-0.18,0.24c-0.06,0.08-0.12,0.16-0.18,0.24
	c0.09,0.01,0.21,0,0.37-0.03c0.16-0.03,0.35-0.11,0.57-0.25C60.38,57.12,60.5,56.97,60.53,56.8z"/>
</svg>
