<?xml version="1.0" encoding="utf-8"?>
<!-- Generator: Adobe Illustrator 24.1.1, SVG Export Plug-In . SVG Version: 6.00 Build 0)  -->
<svg version="1.0" xmlns="http://www.w3.org/2000/svg" xmlns:xlink="http://www.w3.org/1999/xlink" x="0px" y="0px"
	 viewBox="0 0 21.62 18.83" style="enable-background:new 0 0 21.62 18.83;" xml:space="preserve">
<style type="text/css">
	.st0{fill:#FAFAFA;}
	.st1{fill:url(#SVGID_3_);}
	.st2{fill:#C5B04C;}
	.st3{fill-rule:evenodd;clip-rule:evenodd;fill:#C5B04C;}
	.st4{filter:url(#Adobe_OpacityMaskFilter);}
	.st5{fill:url(#SVGID_5_);}
	.st6{mask:url(#SVGID_4_);fill-rule:evenodd;clip-rule:evenodd;fill:#C5B04C;}
	.st7{filter:url(#Adobe_OpacityMaskFilter_1_);}
	.st8{fill:url(#SVGID_7_);}
	.st9{mask:url(#SVGID_6_);fill-rule:evenodd;clip-rule:evenodd;fill:#F1E5A7;}
	.st10{filter:url(#Adobe_OpacityMaskFilter_2_);}
	.st11{fill:url(#SVGID_9_);}
	.st12{mask:url(#SVGID_8_);fill-rule:evenodd;clip-rule:evenodd;fill:#F1E5A7;}
	.st13{filter:url(#Adobe_OpacityMaskFilter_3_);}
	.st14{fill:url(#SVGID_11_);}
	.st15{mask:url(#SVGID_10_);fill-rule:evenodd;clip-rule:evenodd;fill:#F1E5A7;}
	.st16{filter:url(#Adobe_OpacityMaskFilter_4_);}
	.st17{fill:url(#SVGID_13_);}
	.st18{mask:url(#SVGID_12_);fill-rule:evenodd;clip-rule:evenodd;fill:#F1E5A7;}
	.st19{opacity:0.5;fill-rule:evenodd;clip-rule:evenodd;fill:#C5B04C;}
	.st20{filter:url(#Adobe_OpacityMaskFilter_5_);}
	.st21{fill:url(#SVGID_15_);}
	.st22{mask:url(#SVGID_14_);fill-rule:evenodd;clip-rule:evenodd;fill:#C5B04C;}
	.st23{filter:url(#Adobe_OpacityMaskFilter_6_);}
	.st24{fill:url(#SVGID_17_);}
	.st25{mask:url(#SVGID_16_);fill-rule:evenodd;clip-rule:evenodd;fill:#C5B04C;}
	.st26{filter:url(#Adobe_OpacityMaskFilter_7_);}
	.st27{fill:url(#SVGID_19_);}
	.st28{mask:url(#SVGID_18_);fill-rule:evenodd;clip-rule:evenodd;fill:#F1E5A7;}
	.st29{fill-rule:evenodd;clip-rule:evenodd;fill:#315B51;}
	.st30{filter:url(#Adobe_OpacityMaskFilter_8_);}
	.st31{fill:url(#SVGID_21_);}
	.st32{mask:url(#SVGID_20_);fill-rule:evenodd;clip-rule:evenodd;fill:#2BB595;}
	.st33{fill:#B0AFB0;}
	.st34{fill:#FFFFFF;}
	.st35{fill:none;stroke:#FFFFFF;stroke-width:0.25;stroke-miterlimit:10;}
	.st36{fill:#C9C9C9;}
	.st37{fill:#B3B2B3;}
	.st38{fill:#D39241;}
	.st39{opacity:0.58;fill:#111C19;}
	.st40{fill:#315B51;}
	.st41{fill:#C8B34C;}
	.st42{fill:#2BB898;}
	.st43{fill:#385BA6;}
	.st44{fill:#515151;}
	.st45{fill:#F4E8AA;}
	.st46{fill:#FAC86E;}
	.st47{fill:#F4F4F4;}
	.st48{fill:#AD9944;}
	.st49{fill:#00A99D;}
	.st50{fill:none;stroke:#B3B2B3;stroke-width:0.5;stroke-miterlimit:10;}
	.st51{opacity:0.35;fill:#1D2D28;}
	.st52{fill:#DAE1E5;}
	.st53{opacity:0.28;clip-path:url(#SVGID_25_);fill:#EAEAEA;}
	.st54{opacity:0.28;clip-path:url(#SVGID_27_);fill:#B3B2B3;}
	.st55{fill:#2BB898;stroke:#2BB898;stroke-width:0.7684;stroke-miterlimit:10;}
	.st56{fill:none;stroke:#B3B3B3;stroke-width:0.5;stroke-miterlimit:10;}
	.st57{fill:#4D4D4D;}
	.st58{fill:#E1E1E1;}
	.st59{filter:url(#Adobe_OpacityMaskFilter_9_);}
	.st60{fill:url(#SVGID_29_);}
	.st61{mask:url(#SVGID_28_);fill-rule:evenodd;clip-rule:evenodd;fill:#C5B04C;}
	.st62{filter:url(#Adobe_OpacityMaskFilter_10_);}
	.st63{fill:url(#SVGID_31_);}
	.st64{mask:url(#SVGID_30_);fill-rule:evenodd;clip-rule:evenodd;fill:#F1E5A7;}
	.st65{filter:url(#Adobe_OpacityMaskFilter_11_);}
	.st66{fill:url(#SVGID_33_);}
	.st67{mask:url(#SVGID_32_);fill-rule:evenodd;clip-rule:evenodd;fill:#F1E5A7;}
	.st68{filter:url(#Adobe_OpacityMaskFilter_12_);}
	.st69{fill:url(#SVGID_35_);}
	.st70{mask:url(#SVGID_34_);fill-rule:evenodd;clip-rule:evenodd;fill:#F1E5A7;}
	.st71{filter:url(#Adobe_OpacityMaskFilter_13_);}
	.st72{fill:url(#SVGID_37_);}
	.st73{mask:url(#SVGID_36_);fill-rule:evenodd;clip-rule:evenodd;fill:#F1E5A7;}
	.st74{filter:url(#Adobe_OpacityMaskFilter_14_);}
	.st75{fill:url(#SVGID_39_);}
	.st76{mask:url(#SVGID_38_);fill-rule:evenodd;clip-rule:evenodd;fill:#C5B04C;}
	.st77{filter:url(#Adobe_OpacityMaskFilter_15_);}
	.st78{fill:url(#SVGID_41_);}
	.st79{mask:url(#SVGID_40_);fill-rule:evenodd;clip-rule:evenodd;fill:#C5B04C;}
	.st80{fill:none;stroke:#2BB898;stroke-width:1.16;stroke-linecap:round;stroke-linejoin:round;stroke-miterlimit:10;}
	.st81{fill-rule:evenodd;clip-rule:evenodd;fill:none;stroke:#C7C7C7;stroke-width:0.5;stroke-miterlimit:10;}
	.st82{fill:none;stroke:#C7C7C7;stroke-width:0.5;stroke-miterlimit:10;}
	.st83{fill-rule:evenodd;clip-rule:evenodd;fill:none;stroke:#C7C7C7;stroke-width:0.75;stroke-miterlimit:10;}
	.st84{clip-path:url(#SVGID_43_);fill:#BCBCBC;}
	.st85{clip-path:url(#SVGID_43_);fill:#969696;}
	.st86{clip-path:url(#SVGID_43_);}
	.st87{fill:#969696;}
	.st88{fill:#BCBCBC;}
	.st89{clip-path:url(#SVGID_45_);}
	.st90{fill-rule:evenodd;clip-rule:evenodd;fill:none;stroke:#CACACA;stroke-width:0.5;stroke-miterlimit:10;}
	.st91{fill:#A6D0E4;}
	.st92{fill:url(#);}
	.st93{fill:#A0A0A0;}
	.st94{fill:#FFFFFF;stroke:#FFFFFF;stroke-width:0.5;stroke-miterlimit:10;}
	.st95{fill:#111C19;}
	.st96{fill-rule:evenodd;clip-rule:evenodd;fill:#111C19;}
	.st97{filter:url(#Adobe_OpacityMaskFilter_16_);}
	.st98{fill:url(#SVGID_49_);}
	.st99{mask:url(#SVGID_48_);fill-rule:evenodd;clip-rule:evenodd;fill:#111C19;}
	.st100{filter:url(#Adobe_OpacityMaskFilter_17_);}
	.st101{fill:url(#SVGID_51_);}
	.st102{mask:url(#SVGID_50_);fill-rule:evenodd;clip-rule:evenodd;fill:#111C19;}
	.st103{filter:url(#Adobe_OpacityMaskFilter_18_);}
	.st104{fill:url(#SVGID_53_);}
	.st105{mask:url(#SVGID_52_);fill-rule:evenodd;clip-rule:evenodd;fill:#111C19;}
	.st106{filter:url(#Adobe_OpacityMaskFilter_19_);}
	.st107{fill:url(#SVGID_55_);}
	.st108{mask:url(#SVGID_54_);fill-rule:evenodd;clip-rule:evenodd;fill:#111C19;}
	.st109{filter:url(#Adobe_OpacityMaskFilter_20_);}
	.st110{fill:url(#SVGID_57_);}
	.st111{mask:url(#SVGID_56_);fill-rule:evenodd;clip-rule:evenodd;fill:#111C19;}
	.st112{opacity:0.5;fill-rule:evenodd;clip-rule:evenodd;fill:#111C19;}
	.st113{filter:url(#Adobe_OpacityMaskFilter_21_);}
	.st114{fill:url(#SVGID_59_);}
	.st115{mask:url(#SVGID_58_);fill-rule:evenodd;clip-rule:evenodd;fill:#111C19;}
	.st116{filter:url(#Adobe_OpacityMaskFilter_22_);}
	.st117{fill:url(#SVGID_61_);}
	.st118{mask:url(#SVGID_60_);fill-rule:evenodd;clip-rule:evenodd;fill:#111C19;}
	.st119{filter:url(#Adobe_OpacityMaskFilter_23_);}
	.st120{fill:url(#SVGID_63_);}
	.st121{mask:url(#SVGID_62_);fill-rule:evenodd;clip-rule:evenodd;fill:#111C19;}
	.st122{filter:url(#Adobe_OpacityMaskFilter_24_);}
	.st123{fill:url(#SVGID_65_);}
	.st124{mask:url(#SVGID_64_);fill-rule:evenodd;clip-rule:evenodd;fill:#111C19;}
	.st125{filter:url(#Adobe_OpacityMaskFilter_25_);}
	.st126{fill:url(#SVGID_67_);}
	.st127{mask:url(#SVGID_66_);fill-rule:evenodd;clip-rule:evenodd;fill:#111C19;}
	.st128{filter:url(#Adobe_OpacityMaskFilter_26_);}
	.st129{fill:url(#SVGID_69_);}
	.st130{mask:url(#SVGID_68_);fill-rule:evenodd;clip-rule:evenodd;fill:#111C19;}
	.st131{filter:url(#Adobe_OpacityMaskFilter_27_);}
	.st132{fill:url(#SVGID_71_);}
	.st133{mask:url(#SVGID_70_);fill-rule:evenodd;clip-rule:evenodd;fill:#111C19;}
	.st134{filter:url(#Adobe_OpacityMaskFilter_28_);}
	.st135{fill:url(#SVGID_73_);}
	.st136{mask:url(#SVGID_72_);fill-rule:evenodd;clip-rule:evenodd;fill:#111C19;}
	.st137{filter:url(#Adobe_OpacityMaskFilter_29_);}
	.st138{fill:url(#SVGID_75_);}
	.st139{mask:url(#SVGID_74_);fill-rule:evenodd;clip-rule:evenodd;fill:#111C19;}
	.st140{filter:url(#Adobe_OpacityMaskFilter_30_);}
	.st141{fill:url(#SVGID_77_);}
	.st142{mask:url(#SVGID_76_);fill-rule:evenodd;clip-rule:evenodd;fill:#111C19;}
	.st143{filter:url(#Adobe_OpacityMaskFilter_31_);}
	.st144{fill:url(#SVGID_79_);}
	.st145{mask:url(#SVGID_78_);fill-rule:evenodd;clip-rule:evenodd;fill:#111C19;}
	.st146{filter:url(#Adobe_OpacityMaskFilter_32_);}
	.st147{fill:url(#SVGID_81_);}
	.st148{mask:url(#SVGID_80_);fill-rule:evenodd;clip-rule:evenodd;fill:#111C19;}
	.st149{filter:url(#Adobe_OpacityMaskFilter_33_);}
	.st150{fill:url(#SVGID_83_);}
	.st151{mask:url(#SVGID_82_);fill-rule:evenodd;clip-rule:evenodd;fill:#111C19;}
	.st152{filter:url(#Adobe_OpacityMaskFilter_34_);}
	.st153{fill:url(#SVGID_85_);}
	.st154{mask:url(#SVGID_84_);fill-rule:evenodd;clip-rule:evenodd;fill:#111C19;}
	.st155{filter:url(#Adobe_OpacityMaskFilter_35_);}
	.st156{fill:url(#SVGID_87_);}
	.st157{mask:url(#SVGID_86_);fill-rule:evenodd;clip-rule:evenodd;fill:#111C19;}
	.st158{filter:url(#Adobe_OpacityMaskFilter_36_);}
	.st159{fill:url(#SVGID_89_);}
	.st160{mask:url(#SVGID_88_);fill-rule:evenodd;clip-rule:evenodd;fill:#111C19;}
</style>
<g id="Layer_1">
	<g>
		<path class="st42" d="M10.18,3.25h3.34c0.41,0,0.74-0.33,0.74-0.74s-0.33-0.74-0.74-0.74h-3.34c-0.41,0-0.74,0.33-0.74,0.74
			S9.77,3.25,10.18,3.25L10.18,3.25z M19.45,1.01V4.6c0,0.56-0.45,1.01-1.01,1.01H8.79c-0.56,0-1.01-0.45-1.01-1.01V1.01
			C7.77,0.45,8.23,0,8.79,0h9.65C19,0,19.45,0.45,19.45,1.01z M4.86,17.59c0,0.68-0.55,1.23-1.23,1.23H1.32
			c-0.68,0-1.23-0.55-1.23-1.23V7.49c0-0.68,0.55-1.23,1.23-1.23h2.32c0.68,0,1.23,0.55,1.23,1.23V17.59z M21.62,17.59
			c0,0.68-0.55,1.23-1.23,1.23H6.84c-0.68,0-1.23-0.55-1.23-1.23V7.49c0-0.68,0.55-1.23,1.23-1.23h13.55c0.68,0,1.23,0.55,1.23,1.23
			V17.59z M10.16,8.85H9.18c-0.41,0-0.74,0.33-0.74,0.74c0,0.41,0.33,0.74,0.74,0.74h0.99c0.41,0,0.74-0.33,0.74-0.74
			C10.9,9.18,10.57,8.85,10.16,8.85z M14.11,8.85h-0.99c-0.41,0-0.74,0.33-0.74,0.74c0,0.41,0.33,0.74,0.74,0.74h0.99
			c0.41,0,0.74-0.33,0.74-0.74C14.85,9.18,14.51,8.85,14.11,8.85z M18.05,8.85h-0.99c-0.41,0-0.74,0.33-0.74,0.74
			c0,0.41,0.33,0.74,0.74,0.74h0.99c0.41,0,0.74-0.33,0.74-0.74C18.79,9.18,18.46,8.85,18.05,8.85z M10.16,11.8H9.18
			c-0.41,0-0.74,0.33-0.74,0.74s0.33,0.74,0.74,0.74h0.99c0.41,0,0.74-0.33,0.74-0.74S10.57,11.8,10.16,11.8z M14.11,11.8h-0.99
			c-0.41,0-0.74,0.33-0.74,0.74s0.33,0.74,0.74,0.74h0.99c0.41,0,0.74-0.33,0.74-0.74S14.51,11.8,14.11,11.8z M18.05,11.8h-0.99
			c-0.41,0-0.74,0.33-0.74,0.74s0.33,0.74,0.74,0.74h0.99c0.41,0,0.74-0.33,0.74-0.74S18.46,11.8,18.05,11.8z M10.16,14.76H9.18
			c-0.41,0-0.74,0.33-0.74,0.74c0,0.41,0.33,0.74,0.74,0.74h0.99c0.41,0,0.74-0.33,0.74-0.74C10.9,15.09,10.57,14.76,10.16,14.76z
			 M14.11,14.76h-0.99c-0.41,0-0.74,0.33-0.74,0.74c0,0.41,0.33,0.74,0.74,0.74h0.99c0.41,0,0.74-0.33,0.74-0.74
			C14.85,15.09,14.51,14.76,14.11,14.76z M18.05,14.76h-0.99c-0.41,0-0.74,0.33-0.74,0.74c0,0.41,0.33,0.74,0.74,0.74h0.99
			c0.41,0,0.74-0.33,0.74-0.74C18.79,15.09,18.46,14.76,18.05,14.76z"/>
	</g>
</g>
<g id="Layer_2">
</g>
</svg>
