<?xml version="1.0" encoding="utf-8"?>
<!-- Generator: Adobe Illustrator 24.1.1, SVG Export Plug-In . SVG Version: 6.00 Build 0)  -->
<svg version="1.1" xmlns="http://www.w3.org/2000/svg" xmlns:xlink="http://www.w3.org/1999/xlink" x="0px" y="0px"
	 viewBox="0 0 45.09 48.21" style="enable-background:new 0 0 45.09 48.21;" xml:space="preserve">
<style type="text/css">
	.st0{fill:none;stroke:#666666;stroke-width:0.5;stroke-miterlimit:10;}
	.st1{fill-rule:evenodd;clip-rule:evenodd;fill:#3F3F3F;}
	.st2{fill:#808080;}
	.st3{fill:none;stroke:#B3B3B3;stroke-width:0.5;stroke-miterlimit:10;}
	.st4{fill:#315B51;stroke:#FAC86E;stroke-width:0.5;stroke-miterlimit:10;}
	.st5{fill:#F2F2F2;}
	.st6{fill:#666666;}
	.st7{fill:#333333;}
	.st8{opacity:0.28;clip-path:url(#SVGID_2_);fill:#B3B2B3;}
	.st9{fill:#A3A3A3;}
	.st10{fill:#FFFFFF;}
	.st11{fill:none;stroke:#FFFFFF;stroke-width:0.4619;stroke-miterlimit:10;}
	.st12{fill:none;stroke:#FFFFFF;stroke-width:0.7388;stroke-miterlimit:10;}
	.st13{clip-path:url(#SVGID_10_);}
	.st14{opacity:0.65;}
	.st15{fill:url(#SVGID_11_);}
	.st16{fill:url(#SVGID_12_);}
	.st17{fill:#FAC86E;}
	.st18{fill:#38B396;}
	.st19{fill:#4576CB;}
	.st20{fill:none;stroke:#FFFFFF;stroke-width:0.4678;stroke-miterlimit:10;}
	.st21{fill:#989898;}
	.st22{fill:#00A99D;}
	.st23{fill:#B3B3B3;}
	.st24{fill:#CCC4A3;}
	.st25{opacity:0.8;fill:#E1E1E1;}
	.st26{fill:#E1E1E1;}
	.st27{fill:#C5B04C;}
	.st28{fill-rule:evenodd;clip-rule:evenodd;fill:#C5B04C;}
	.st29{filter:url(#Adobe_OpacityMaskFilter);}
	.st30{fill:url(#SVGID_84_);}
	.st31{mask:url(#SVGID_83_);fill-rule:evenodd;clip-rule:evenodd;fill:#C5B04C;}
	.st32{filter:url(#Adobe_OpacityMaskFilter_1_);}
	.st33{fill:url(#SVGID_86_);}
	.st34{mask:url(#SVGID_85_);fill-rule:evenodd;clip-rule:evenodd;fill:#F1E5A7;}
	.st35{filter:url(#Adobe_OpacityMaskFilter_2_);}
	.st36{fill:url(#SVGID_88_);}
	.st37{mask:url(#SVGID_87_);fill-rule:evenodd;clip-rule:evenodd;fill:#F1E5A7;}
	.st38{filter:url(#Adobe_OpacityMaskFilter_3_);}
	.st39{fill:url(#SVGID_90_);}
	.st40{mask:url(#SVGID_89_);fill-rule:evenodd;clip-rule:evenodd;fill:#F1E5A7;}
	.st41{filter:url(#Adobe_OpacityMaskFilter_4_);}
	.st42{fill:url(#SVGID_92_);}
	.st43{mask:url(#SVGID_91_);fill-rule:evenodd;clip-rule:evenodd;fill:#F1E5A7;}
	.st44{opacity:0.5;fill-rule:evenodd;clip-rule:evenodd;fill:#C5B04C;}
	.st45{filter:url(#Adobe_OpacityMaskFilter_5_);}
	.st46{fill:url(#SVGID_94_);}
	.st47{mask:url(#SVGID_93_);fill-rule:evenodd;clip-rule:evenodd;fill:#C5B04C;}
	.st48{filter:url(#Adobe_OpacityMaskFilter_6_);}
	.st49{fill:url(#SVGID_96_);}
	.st50{mask:url(#SVGID_95_);fill-rule:evenodd;clip-rule:evenodd;fill:#C5B04C;}
	.st51{fill:none;stroke:#2BB898;stroke-width:1.16;stroke-linecap:round;stroke-linejoin:round;stroke-miterlimit:10;}
	.st52{fill-rule:evenodd;clip-rule:evenodd;fill:none;stroke:#C7C7C7;stroke-width:0.5;stroke-miterlimit:10;}
	.st53{fill:none;stroke:#C7C7C7;stroke-width:0.5;stroke-miterlimit:10;}
	.st54{fill-rule:evenodd;clip-rule:evenodd;fill:none;stroke:#C7C7C7;stroke-width:0.75;stroke-miterlimit:10;}
	.st55{fill:#2BB898;}
	.st56{fill:#2BB898;stroke:#2BB898;stroke-width:0.7684;stroke-miterlimit:10;}
	.st57{fill:#515151;}
	.st58{clip-path:url(#SVGID_98_);fill:#BCBCBC;}
	.st59{clip-path:url(#SVGID_98_);fill:#969696;}
	.st60{clip-path:url(#SVGID_98_);}
	.st61{fill:#969696;}
	.st62{fill:#BCBCBC;}
	.st63{clip-path:url(#SVGID_100_);}
	.st64{fill-rule:evenodd;clip-rule:evenodd;fill:none;stroke:#CACACA;stroke-width:0.5;stroke-miterlimit:10;}
	.st65{fill:#B3B2B3;}
	.st66{fill:#4D4D4D;}
	.st67{fill:#A6D0E4;}
	.st68{fill:url(#);}
	.st69{fill:#A0A0A0;}
	.st70{fill:#D39241;}
	.st71{fill:url(#SVGID_101_);}
	.st72{filter:url(#Adobe_OpacityMaskFilter_7_);}
	.st73{fill:url(#SVGID_103_);}
	.st74{mask:url(#SVGID_102_);fill-rule:evenodd;clip-rule:evenodd;fill:#C5B04C;}
	.st75{filter:url(#Adobe_OpacityMaskFilter_8_);}
	.st76{fill:url(#SVGID_105_);}
	.st77{mask:url(#SVGID_104_);fill-rule:evenodd;clip-rule:evenodd;fill:#F1E5A7;}
	.st78{filter:url(#Adobe_OpacityMaskFilter_9_);}
	.st79{fill:url(#SVGID_107_);}
	.st80{mask:url(#SVGID_106_);fill-rule:evenodd;clip-rule:evenodd;fill:#F1E5A7;}
	.st81{filter:url(#Adobe_OpacityMaskFilter_10_);}
	.st82{fill:url(#SVGID_109_);}
	.st83{mask:url(#SVGID_108_);fill-rule:evenodd;clip-rule:evenodd;fill:#F1E5A7;}
	.st84{filter:url(#Adobe_OpacityMaskFilter_11_);}
	.st85{fill:url(#SVGID_111_);}
	.st86{mask:url(#SVGID_110_);fill-rule:evenodd;clip-rule:evenodd;fill:#F1E5A7;}
	.st87{filter:url(#Adobe_OpacityMaskFilter_12_);}
	.st88{fill:url(#SVGID_113_);}
	.st89{mask:url(#SVGID_112_);fill-rule:evenodd;clip-rule:evenodd;fill:#C5B04C;}
	.st90{filter:url(#Adobe_OpacityMaskFilter_13_);}
	.st91{fill:url(#SVGID_115_);}
	.st92{mask:url(#SVGID_114_);fill-rule:evenodd;clip-rule:evenodd;fill:#C5B04C;}
	.st93{filter:url(#Adobe_OpacityMaskFilter_14_);}
	.st94{fill:url(#SVGID_117_);}
	.st95{mask:url(#SVGID_116_);fill-rule:evenodd;clip-rule:evenodd;fill:#F1E5A7;}
	.st96{fill-rule:evenodd;clip-rule:evenodd;fill:#315B51;}
	.st97{filter:url(#Adobe_OpacityMaskFilter_15_);}
	.st98{fill:url(#SVGID_119_);}
	.st99{mask:url(#SVGID_118_);fill-rule:evenodd;clip-rule:evenodd;fill:#2BB595;}
	.st100{fill:#B0AFB0;}
	.st101{fill:none;stroke:#FFFFFF;stroke-width:0.25;stroke-miterlimit:10;}
	.st102{fill:#C9C9C9;}
	.st103{fill:none;stroke:#999999;stroke-miterlimit:10;}
</style>
<g id="Layer_1">
</g>
<g id="Layer_2">
	<g>
		<g>
			<path class="st103" d="M29.38,38.76l-12.25-0.1c-1.29-0.01-2.33-1.07-2.32-2.36l0,0c0.01-1.29,1.07-2.33,2.36-2.32l12.25,0.1
				c1.29,0.01,2.33,1.07,2.32,2.36l0,0C31.73,37.73,30.67,38.77,29.38,38.76z"/>
			<path class="st103" d="M29.34,43.5L17.1,43.4c-1.29-0.01-2.33-1.07-2.32-2.36l0,0c0.01-1.29,1.07-2.33,2.36-2.32l12.25,0.1
				c1.29,0.01,2.33,1.07,2.32,2.36l0,0C31.69,42.47,30.63,43.51,29.34,43.5z"/>
			<path class="st103" d="M11.72,23.01L11.72,23.01L11.72,23.01c0.02,0.03,0.05,0.07,0.07,0.1c0.5,0.71,3.6,5.2,4.82,10.92h13.1
				c1.22-5.72,4.31-10.22,4.82-10.92c0.02-0.03,0.05-0.06,0.07-0.1l0,0h0c0.25-0.34,0.48-0.69,0.69-1.05c1.27-2.12,2-4.61,2-7.26
				c0-7.81-6.33-14.13-14.13-14.13c-7.81,0-14.13,6.33-14.13,14.13c0,2.65,0.73,5.14,2,7.26C11.24,22.32,11.48,22.67,11.72,23.01z"
				/>
			<path class="st103" d="M17.78,43.45c0.64,2.38,2.81,4.13,5.39,4.13c2.55,0,4.69-1.71,5.36-4.04L17.78,43.45z"/>
			<path class="st103" d="M20.69,33.97v-11.8c0-1.16-0.94-2.1-2.1-2.1c-1.16,0-2.1,0.94-2.1,2.1c0,1.16,0.94,2.1,2.1,2.1h4.67"/>
			<path class="st103" d="M25.83,33.97v-11.8c0-1.16,0.94-2.1,2.1-2.1c1.16,0,2.1,0.94,2.1,2.1c0,1.16-0.94,2.1-2.1,2.1h-4.67"/>
		</g>
		<g>
			<line class="st103" x1="41" y1="17.55" x2="44.94" y2="17.55"/>
			<line class="st103" x1="41.15" y1="12.53" x2="44.67" y2="10.75"/>
			<line class="st103" x1="39.78" y1="22.22" x2="43.3" y2="24"/>
		</g>
		<g>
			<line class="st103" x1="4.36" y1="17.55" x2="0.41" y2="17.55"/>
			<line class="st103" x1="4.21" y1="12.53" x2="0.69" y2="10.75"/>
			<line class="st103" x1="5.58" y1="22.22" x2="2.06" y2="24"/>
		</g>
	</g>
</g>
</svg>
