<?xml version="1.0" encoding="utf-8"?>
<!-- Generator: Adobe Illustrator 24.1.1, SVG Export Plug-In . SVG Version: 6.00 Build 0)  -->
<svg version="1.1" id="Layer_1" xmlns="http://www.w3.org/2000/svg" xmlns:xlink="http://www.w3.org/1999/xlink" x="0px" y="0px"
	 viewBox="0 0 64.57 132.28" style="enable-background:new 0 0 64.57 132.28;" xml:space="preserve">
<style type="text/css">
	.st0{clip-path:url(#SVGID_2_);fill:#47C1B8;}
</style>
<g>
	<defs>
		
			<rect id="SVGID_1_" x="-37.31" y="31.55" transform="matrix(6.123234e-17 -1 1 6.123234e-17 -34.863 98.1714)" width="137.93" height="69.93"/>
	</defs>
	<clipPath id="SVGID_2_">
		<use xlink:href="#SVGID_1_"  style="overflow:visible;"/>
	</clipPath>
	<path class="st0" d="M10.94,7.38v2.48c0,0.6-0.49,1.08-1.08,1.08H7.38c-0.6,0-1.08-0.49-1.08-1.08V7.38c0-0.59-0.49-1.08-1.08-1.08
		H1.36c-0.59,0-1.08-0.48-1.08-1.08V1.36c0-0.6,0.49-1.08,1.08-1.08h3.87c0.59,0,1.08,0.49,1.08,1.08v3.87
		c0,0.6,0.49,1.08,1.08,1.08h2.48C10.45,6.3,10.94,6.79,10.94,7.38z M10.94,24.68v2.48c0,0.6-0.49,1.08-1.08,1.08H7.38
		c-0.6,0-1.08-0.49-1.08-1.08v-2.48c0-0.59-0.49-1.08-1.08-1.08H1.36c-0.59,0-1.08-0.48-1.08-1.08v-3.87c0-0.6,0.49-1.08,1.08-1.08
		h3.87c0.59,0,1.08,0.49,1.08,1.08v3.87c0,0.6,0.49,1.08,1.08,1.08h2.48C10.45,23.6,10.94,24.09,10.94,24.68z M10.94,41.99v2.48
		c0,0.6-0.49,1.08-1.08,1.08H7.38c-0.6,0-1.08-0.49-1.08-1.08v-2.48c0-0.59-0.49-1.08-1.08-1.08H1.36c-0.59,0-1.08-0.48-1.08-1.08
		v-3.87c0-0.6,0.49-1.08,1.08-1.08h3.87c0.59,0,1.08,0.49,1.08,1.08v3.87c0,0.6,0.49,1.08,1.08,1.08h2.48
		C10.45,40.91,10.94,41.39,10.94,41.99z M10.94,59.29v2.48c0,0.6-0.49,1.08-1.08,1.08H7.38c-0.6,0-1.08-0.49-1.08-1.08v-2.48
		c0-0.59-0.49-1.08-1.08-1.08H1.36c-0.59,0-1.08-0.48-1.08-1.08v-3.87c0-0.6,0.49-1.08,1.08-1.08h3.87c0.59,0,1.08,0.49,1.08,1.08
		v3.87c0,0.6,0.49,1.08,1.08,1.08h2.48C10.45,58.21,10.94,58.69,10.94,59.29z M10.94,76.59v2.48c0,0.6-0.49,1.08-1.08,1.08H7.38
		c-0.6,0-1.08-0.49-1.08-1.08v-2.48c0-0.59-0.49-1.08-1.08-1.08H1.36c-0.59,0-1.08-0.48-1.08-1.08v-3.87c0-0.6,0.49-1.08,1.08-1.08
		h3.87c0.59,0,1.08,0.49,1.08,1.08v3.87c0,0.6,0.49,1.08,1.08,1.08h2.48C10.45,75.51,10.94,76,10.94,76.59z M10.94,93.89v2.48
		c0,0.6-0.49,1.08-1.08,1.08H7.38c-0.6,0-1.08-0.49-1.08-1.08v-2.48c0-0.59-0.49-1.08-1.08-1.08H1.36c-0.59,0-1.08-0.48-1.08-1.08
		v-3.87c0-0.6,0.49-1.08,1.08-1.08h3.87c0.59,0,1.08,0.49,1.08,1.08v3.87c0,0.6,0.49,1.08,1.08,1.08h2.48
		C10.45,92.81,10.94,93.3,10.94,93.89z M10.94,111.2v2.48c0,0.6-0.49,1.08-1.08,1.08H7.38c-0.6,0-1.08-0.49-1.08-1.08v-2.48
		c0-0.59-0.49-1.08-1.08-1.08H1.36c-0.59,0-1.08-0.48-1.08-1.08v-3.87c0-0.6,0.49-1.08,1.08-1.08h3.87c0.59,0,1.08,0.49,1.08,1.08
		v3.87c0,0.6,0.49,1.08,1.08,1.08h2.48C10.45,110.12,10.94,110.6,10.94,111.2z M10.94,128.5v2.48c0,0.6-0.49,1.08-1.08,1.08H7.38
		c-0.6,0-1.08-0.49-1.08-1.08v-2.48c0-0.59-0.49-1.08-1.08-1.08H1.36c-0.59,0-1.08-0.48-1.08-1.08v-3.87c0-0.6,0.49-1.08,1.08-1.08
		h3.87c0.59,0,1.08,0.49,1.08,1.08v3.87c0,0.6,0.49,1.08,1.08,1.08h2.48C10.45,127.42,10.94,127.9,10.94,128.5z M28.73,7.38v2.48
		c0,0.6-0.49,1.08-1.08,1.08h-2.48c-0.6,0-1.08-0.49-1.08-1.08V7.38c0-0.59-0.49-1.08-1.08-1.08h-3.87c-0.59,0-1.08-0.48-1.08-1.08
		V1.36c0-0.6,0.49-1.08,1.08-1.08h3.87c0.59,0,1.08,0.49,1.08,1.08v3.87c0,0.6,0.49,1.08,1.08,1.08h2.48
		C28.24,6.3,28.73,6.79,28.73,7.38z M28.73,24.68v2.48c0,0.6-0.49,1.08-1.08,1.08h-2.48c-0.6,0-1.08-0.49-1.08-1.08v-2.48
		c0-0.59-0.49-1.08-1.08-1.08h-3.87c-0.59,0-1.08-0.48-1.08-1.08v-3.87c0-0.6,0.49-1.08,1.08-1.08h3.87c0.59,0,1.08,0.49,1.08,1.08
		v3.87c0,0.6,0.49,1.08,1.08,1.08h2.48C28.24,23.6,28.73,24.09,28.73,24.68z M28.73,41.99v2.48c0,0.6-0.49,1.08-1.08,1.08h-2.48
		c-0.6,0-1.08-0.49-1.08-1.08v-2.48c0-0.59-0.49-1.08-1.08-1.08h-3.87c-0.59,0-1.08-0.48-1.08-1.08v-3.87c0-0.6,0.49-1.08,1.08-1.08
		h3.87c0.59,0,1.08,0.49,1.08,1.08v3.87c0,0.6,0.49,1.08,1.08,1.08h2.48C28.24,40.91,28.73,41.39,28.73,41.99z M28.73,59.29v2.48
		c0,0.6-0.49,1.08-1.08,1.08h-2.48c-0.6,0-1.08-0.49-1.08-1.08v-2.48c0-0.59-0.49-1.08-1.08-1.08h-3.87c-0.59,0-1.08-0.48-1.08-1.08
		v-3.87c0-0.6,0.49-1.08,1.08-1.08h3.87c0.59,0,1.08,0.49,1.08,1.08v3.87c0,0.6,0.49,1.08,1.08,1.08h2.48
		C28.24,58.21,28.73,58.69,28.73,59.29z M28.73,76.59v2.48c0,0.6-0.49,1.08-1.08,1.08h-2.48c-0.6,0-1.08-0.49-1.08-1.08v-2.48
		c0-0.59-0.49-1.08-1.08-1.08h-3.87c-0.59,0-1.08-0.48-1.08-1.08v-3.87c0-0.6,0.49-1.08,1.08-1.08h3.87c0.59,0,1.08,0.49,1.08,1.08
		v3.87c0,0.6,0.49,1.08,1.08,1.08h2.48C28.24,75.51,28.73,76,28.73,76.59z M28.73,93.89v2.48c0,0.6-0.49,1.08-1.08,1.08h-2.48
		c-0.6,0-1.08-0.49-1.08-1.08v-2.48c0-0.59-0.49-1.08-1.08-1.08h-3.87c-0.59,0-1.08-0.48-1.08-1.08v-3.87c0-0.6,0.49-1.08,1.08-1.08
		h3.87c0.59,0,1.08,0.49,1.08,1.08v3.87c0,0.6,0.49,1.08,1.08,1.08h2.48C28.24,92.81,28.73,93.3,28.73,93.89z M28.73,111.2v2.48
		c0,0.6-0.49,1.08-1.08,1.08h-2.48c-0.6,0-1.08-0.49-1.08-1.08v-2.48c0-0.59-0.49-1.08-1.08-1.08h-3.87c-0.59,0-1.08-0.48-1.08-1.08
		v-3.87c0-0.6,0.49-1.08,1.08-1.08h3.87c0.59,0,1.08,0.49,1.08,1.08v3.87c0,0.6,0.49,1.08,1.08,1.08h2.48
		C28.24,110.12,28.73,110.6,28.73,111.2z M28.73,128.5v2.48c0,0.6-0.49,1.08-1.08,1.08h-2.48c-0.6,0-1.08-0.49-1.08-1.08v-2.48
		c0-0.59-0.49-1.08-1.08-1.08h-3.87c-0.59,0-1.08-0.48-1.08-1.08v-3.87c0-0.6,0.49-1.08,1.08-1.08h3.87c0.59,0,1.08,0.49,1.08,1.08
		v3.87c0,0.6,0.49,1.08,1.08,1.08h2.48C28.24,127.42,28.73,127.9,28.73,128.5z M46.52,7.38v2.48c0,0.6-0.49,1.08-1.08,1.08h-2.48
		c-0.6,0-1.08-0.49-1.08-1.08V7.38c0-0.59-0.49-1.08-1.08-1.08h-3.87c-0.59,0-1.08-0.48-1.08-1.08V1.36c0-0.6,0.49-1.08,1.08-1.08
		h3.87c0.59,0,1.08,0.49,1.08,1.08v3.87c0,0.6,0.49,1.08,1.08,1.08h2.48C46.03,6.3,46.52,6.79,46.52,7.38z M46.52,24.68v2.48
		c0,0.6-0.49,1.08-1.08,1.08h-2.48c-0.6,0-1.08-0.49-1.08-1.08v-2.48c0-0.59-0.49-1.08-1.08-1.08h-3.87c-0.59,0-1.08-0.48-1.08-1.08
		v-3.87c0-0.6,0.49-1.08,1.08-1.08h3.87c0.59,0,1.08,0.49,1.08,1.08v3.87c0,0.6,0.49,1.08,1.08,1.08h2.48
		C46.03,23.6,46.52,24.09,46.52,24.68z M46.52,41.99v2.48c0,0.6-0.49,1.08-1.08,1.08h-2.48c-0.6,0-1.08-0.49-1.08-1.08v-2.48
		c0-0.59-0.49-1.08-1.08-1.08h-3.87c-0.59,0-1.08-0.48-1.08-1.08v-3.87c0-0.6,0.49-1.08,1.08-1.08h3.87c0.59,0,1.08,0.49,1.08,1.08
		v3.87c0,0.6,0.49,1.08,1.08,1.08h2.48C46.03,40.91,46.52,41.39,46.52,41.99z M46.52,59.29v2.48c0,0.6-0.49,1.08-1.08,1.08h-2.48
		c-0.6,0-1.08-0.49-1.08-1.08v-2.48c0-0.59-0.49-1.08-1.08-1.08h-3.87c-0.59,0-1.08-0.48-1.08-1.08v-3.87c0-0.6,0.49-1.08,1.08-1.08
		h3.87c0.59,0,1.08,0.49,1.08,1.08v3.87c0,0.6,0.49,1.08,1.08,1.08h2.48C46.03,58.21,46.52,58.69,46.52,59.29z M46.52,76.59v2.48
		c0,0.6-0.49,1.08-1.08,1.08h-2.48c-0.6,0-1.08-0.49-1.08-1.08v-2.48c0-0.59-0.49-1.08-1.08-1.08h-3.87c-0.59,0-1.08-0.48-1.08-1.08
		v-3.87c0-0.6,0.49-1.08,1.08-1.08h3.87c0.59,0,1.08,0.49,1.08,1.08v3.87c0,0.6,0.49,1.08,1.08,1.08h2.48
		C46.03,75.51,46.52,76,46.52,76.59z M46.52,93.89v2.48c0,0.6-0.49,1.08-1.08,1.08h-2.48c-0.6,0-1.08-0.49-1.08-1.08v-2.48
		c0-0.59-0.49-1.08-1.08-1.08h-3.87c-0.59,0-1.08-0.48-1.08-1.08v-3.87c0-0.6,0.49-1.08,1.08-1.08h3.87c0.59,0,1.08,0.49,1.08,1.08
		v3.87c0,0.6,0.49,1.08,1.08,1.08h2.48C46.03,92.81,46.52,93.3,46.52,93.89z M46.52,111.2v2.48c0,0.6-0.49,1.08-1.08,1.08h-2.48
		c-0.6,0-1.08-0.49-1.08-1.08v-2.48c0-0.59-0.49-1.08-1.08-1.08h-3.87c-0.59,0-1.08-0.48-1.08-1.08v-3.87c0-0.6,0.49-1.08,1.08-1.08
		h3.87c0.59,0,1.08,0.49,1.08,1.08v3.87c0,0.6,0.49,1.08,1.08,1.08h2.48C46.03,110.12,46.52,110.6,46.52,111.2z M46.52,128.5v2.48
		c0,0.6-0.49,1.08-1.08,1.08h-2.48c-0.6,0-1.08-0.49-1.08-1.08v-2.48c0-0.59-0.49-1.08-1.08-1.08h-3.87c-0.59,0-1.08-0.48-1.08-1.08
		v-3.87c0-0.6,0.49-1.08,1.08-1.08h3.87c0.59,0,1.08,0.49,1.08,1.08v3.87c0,0.6,0.49,1.08,1.08,1.08h2.48
		C46.03,127.42,46.52,127.9,46.52,128.5z M64.31,7.38v2.48c0,0.6-0.49,1.08-1.08,1.08h-2.48c-0.6,0-1.08-0.49-1.08-1.08V7.38
		c0-0.59-0.49-1.08-1.08-1.08h-3.87c-0.59,0-1.08-0.48-1.08-1.08V1.36c0-0.6,0.49-1.08,1.08-1.08h3.87c0.59,0,1.08,0.49,1.08,1.08
		v3.87c0,0.6,0.49,1.08,1.08,1.08h2.48C63.82,6.3,64.31,6.79,64.31,7.38z M64.31,24.68v2.48c0,0.6-0.49,1.08-1.08,1.08h-2.48
		c-0.6,0-1.08-0.49-1.08-1.08v-2.48c0-0.59-0.49-1.08-1.08-1.08h-3.87c-0.59,0-1.08-0.48-1.08-1.08v-3.87c0-0.6,0.49-1.08,1.08-1.08
		h3.87c0.59,0,1.08,0.49,1.08,1.08v3.87c0,0.6,0.49,1.08,1.08,1.08h2.48C63.82,23.6,64.31,24.09,64.31,24.68z M64.31,41.99v2.48
		c0,0.6-0.49,1.08-1.08,1.08h-2.48c-0.6,0-1.08-0.49-1.08-1.08v-2.48c0-0.59-0.49-1.08-1.08-1.08h-3.87c-0.59,0-1.08-0.48-1.08-1.08
		v-3.87c0-0.6,0.49-1.08,1.08-1.08h3.87c0.59,0,1.08,0.49,1.08,1.08v3.87c0,0.6,0.49,1.08,1.08,1.08h2.48
		C63.82,40.91,64.31,41.39,64.31,41.99z M64.31,59.29v2.48c0,0.6-0.49,1.08-1.08,1.08h-2.48c-0.6,0-1.08-0.49-1.08-1.08v-2.48
		c0-0.59-0.49-1.08-1.08-1.08h-3.87c-0.59,0-1.08-0.48-1.08-1.08v-3.87c0-0.6,0.49-1.08,1.08-1.08h3.87c0.59,0,1.08,0.49,1.08,1.08
		v3.87c0,0.6,0.49,1.08,1.08,1.08h2.48C63.82,58.21,64.31,58.69,64.31,59.29z M64.31,76.59v2.48c0,0.6-0.49,1.08-1.08,1.08h-2.48
		c-0.6,0-1.08-0.49-1.08-1.08v-2.48c0-0.59-0.49-1.08-1.08-1.08h-3.87c-0.59,0-1.08-0.48-1.08-1.08v-3.87c0-0.6,0.49-1.08,1.08-1.08
		h3.87c0.59,0,1.08,0.49,1.08,1.08v3.87c0,0.6,0.49,1.08,1.08,1.08h2.48C63.82,75.51,64.31,76,64.31,76.59z M64.31,93.89v2.48
		c0,0.6-0.49,1.08-1.08,1.08h-2.48c-0.6,0-1.08-0.49-1.08-1.08v-2.48c0-0.59-0.49-1.08-1.08-1.08h-3.87c-0.59,0-1.08-0.48-1.08-1.08
		v-3.87c0-0.6,0.49-1.08,1.08-1.08h3.87c0.59,0,1.08,0.49,1.08,1.08v3.87c0,0.6,0.49,1.08,1.08,1.08h2.48
		C63.82,92.81,64.31,93.3,64.31,93.89z M64.31,111.2v2.48c0,0.6-0.49,1.08-1.08,1.08h-2.48c-0.6,0-1.08-0.49-1.08-1.08v-2.48
		c0-0.59-0.49-1.08-1.08-1.08h-3.87c-0.59,0-1.08-0.48-1.08-1.08v-3.87c0-0.6,0.49-1.08,1.08-1.08h3.87c0.59,0,1.08,0.49,1.08,1.08
		v3.87c0,0.6,0.49,1.08,1.08,1.08h2.48C63.82,110.12,64.31,110.6,64.31,111.2z M64.31,128.5v2.48c0,0.6-0.49,1.08-1.08,1.08h-2.48
		c-0.6,0-1.08-0.49-1.08-1.08v-2.48c0-0.59-0.49-1.08-1.08-1.08h-3.87c-0.59,0-1.08-0.48-1.08-1.08v-3.87c0-0.6,0.49-1.08,1.08-1.08
		h3.87c0.59,0,1.08,0.49,1.08,1.08v3.87c0,0.6,0.49,1.08,1.08,1.08h2.48C63.82,127.42,64.31,127.9,64.31,128.5z"/>
</g>
</svg>
