<?xml version="1.0" encoding="utf-8"?>
<!-- Generator: Adobe Illustrator 24.1.1, SVG Export Plug-In . SVG Version: 6.00 Build 0)  -->
<svg version="1.1" id="Layer_1" xmlns="http://www.w3.org/2000/svg" xmlns:xlink="http://www.w3.org/1999/xlink" x="0px" y="0px"
	 viewBox="0 0 132.26 153.38" style="enable-background:new 0 0 132.26 153.38;" xml:space="preserve">
<style type="text/css">
	.st0{clip-path:url(#SVGID_2_);fill:#EAEAEA;}
</style>
<g>
	<defs>
		<rect id="SVGID_1_" x="-3.17" y="-3.45" width="137.93" height="157.93"/>
	</defs>
	<clipPath id="SVGID_2_">
		<use xlink:href="#SVGID_1_"  style="overflow:visible;"/>
	</clipPath>
	<path class="st0" d="M124.93,10.8h-2.48c-0.6,0-1.08-0.49-1.08-1.08V7.25c0-0.6,0.49-1.08,1.08-1.08h2.48
		c0.59,0,1.08-0.49,1.08-1.08V1.22c0-0.59,0.48-1.08,1.08-1.08h3.87c0.6,0,1.08,0.49,1.08,1.08v3.87c0,0.59-0.49,1.08-1.08,1.08
		h-3.87c-0.6,0-1.08,0.49-1.08,1.08v2.48C126.01,10.31,125.52,10.8,124.93,10.8z M107.63,10.8h-2.48c-0.6,0-1.08-0.49-1.08-1.08
		V7.25c0-0.6,0.49-1.08,1.08-1.08h2.48c0.59,0,1.08-0.49,1.08-1.08V1.22c0-0.59,0.48-1.08,1.08-1.08h3.87c0.6,0,1.08,0.49,1.08,1.08
		v3.87c0,0.59-0.49,1.08-1.08,1.08h-3.87c-0.6,0-1.08,0.49-1.08,1.08v2.48C108.71,10.31,108.22,10.8,107.63,10.8z M90.32,10.8h-2.48
		c-0.6,0-1.08-0.49-1.08-1.08V7.25c0-0.6,0.49-1.08,1.08-1.08h2.48c0.59,0,1.08-0.49,1.08-1.08V1.22c0-0.59,0.48-1.08,1.08-1.08
		h3.87c0.6,0,1.08,0.49,1.08,1.08v3.87c0,0.59-0.49,1.08-1.08,1.08h-3.87c-0.6,0-1.08,0.49-1.08,1.08v2.48
		C91.4,10.31,90.92,10.8,90.32,10.8z M73.02,10.8h-2.48c-0.6,0-1.08-0.49-1.08-1.08V7.25c0-0.6,0.49-1.08,1.08-1.08h2.48
		c0.59,0,1.08-0.49,1.08-1.08V1.22c0-0.59,0.48-1.08,1.08-1.08h3.87c0.6,0,1.08,0.49,1.08,1.08v3.87c0,0.59-0.49,1.08-1.08,1.08
		h-3.87c-0.6,0-1.08,0.49-1.08,1.08v2.48C74.1,10.31,73.62,10.8,73.02,10.8z M55.72,10.8h-2.48c-0.6,0-1.08-0.49-1.08-1.08V7.25
		c0-0.6,0.49-1.08,1.08-1.08h2.48c0.59,0,1.08-0.49,1.08-1.08V1.22c0-0.59,0.48-1.08,1.08-1.08h3.87c0.6,0,1.08,0.49,1.08,1.08v3.87
		c0,0.59-0.49,1.08-1.08,1.08h-3.87c-0.6,0-1.08,0.49-1.08,1.08v2.48C56.8,10.31,56.31,10.8,55.72,10.8z M38.42,10.8h-2.48
		c-0.6,0-1.08-0.49-1.08-1.08V7.25c0-0.6,0.49-1.08,1.08-1.08h2.48c0.59,0,1.08-0.49,1.08-1.08V1.22c0-0.59,0.48-1.08,1.08-1.08
		h3.87c0.6,0,1.08,0.49,1.08,1.08v3.87c0,0.59-0.49,1.08-1.08,1.08h-3.87c-0.6,0-1.08,0.49-1.08,1.08v2.48
		C39.5,10.31,39.01,10.8,38.42,10.8z M21.11,10.8h-2.48c-0.6,0-1.08-0.49-1.08-1.08V7.25c0-0.6,0.49-1.08,1.08-1.08h2.48
		c0.59,0,1.08-0.49,1.08-1.08V1.22c0-0.59,0.48-1.08,1.08-1.08h3.87c0.6,0,1.08,0.49,1.08,1.08v3.87c0,0.59-0.49,1.08-1.08,1.08
		h-3.87c-0.6,0-1.08,0.49-1.08,1.08v2.48C22.19,10.31,21.71,10.8,21.11,10.8z M3.81,10.8H1.34c-0.6,0-1.08-0.49-1.08-1.08V7.25
		c0-0.6,0.49-1.08,1.08-1.08h2.48c0.59,0,1.08-0.49,1.08-1.08V1.22c0-0.59,0.48-1.08,1.08-1.08h3.87c0.6,0,1.08,0.49,1.08,1.08v3.87
		c0,0.59-0.49,1.08-1.08,1.08H5.97c-0.6,0-1.08,0.49-1.08,1.08v2.48C4.89,10.31,4.41,10.8,3.81,10.8z M124.93,28.59h-2.48
		c-0.6,0-1.08-0.49-1.08-1.08v-2.48c0-0.6,0.49-1.08,1.08-1.08h2.48c0.59,0,1.08-0.49,1.08-1.08v-3.87c0-0.59,0.48-1.08,1.08-1.08
		h3.87c0.6,0,1.08,0.49,1.08,1.08v3.87c0,0.59-0.49,1.08-1.08,1.08h-3.87c-0.6,0-1.08,0.49-1.08,1.08v2.48
		C126.01,28.11,125.52,28.59,124.93,28.59z M107.63,28.59h-2.48c-0.6,0-1.08-0.49-1.08-1.08v-2.48c0-0.6,0.49-1.08,1.08-1.08h2.48
		c0.59,0,1.08-0.49,1.08-1.08v-3.87c0-0.59,0.48-1.08,1.08-1.08h3.87c0.6,0,1.08,0.49,1.08,1.08v3.87c0,0.59-0.49,1.08-1.08,1.08
		h-3.87c-0.6,0-1.08,0.49-1.08,1.08v2.48C108.71,28.11,108.22,28.59,107.63,28.59z M90.32,28.59h-2.48c-0.6,0-1.08-0.49-1.08-1.08
		v-2.48c0-0.6,0.49-1.08,1.08-1.08h2.48c0.59,0,1.08-0.49,1.08-1.08v-3.87c0-0.59,0.48-1.08,1.08-1.08h3.87
		c0.6,0,1.08,0.49,1.08,1.08v3.87c0,0.59-0.49,1.08-1.08,1.08h-3.87c-0.6,0-1.08,0.49-1.08,1.08v2.48
		C91.4,28.11,90.92,28.59,90.32,28.59z M73.02,28.59h-2.48c-0.6,0-1.08-0.49-1.08-1.08v-2.48c0-0.6,0.49-1.08,1.08-1.08h2.48
		c0.59,0,1.08-0.49,1.08-1.08v-3.87c0-0.59,0.48-1.08,1.08-1.08h3.87c0.6,0,1.08,0.49,1.08,1.08v3.87c0,0.59-0.49,1.08-1.08,1.08
		h-3.87c-0.6,0-1.08,0.49-1.08,1.08v2.48C74.1,28.11,73.62,28.59,73.02,28.59z M55.72,28.59h-2.48c-0.6,0-1.08-0.49-1.08-1.08v-2.48
		c0-0.6,0.49-1.08,1.08-1.08h2.48c0.59,0,1.08-0.49,1.08-1.08v-3.87c0-0.59,0.48-1.08,1.08-1.08h3.87c0.6,0,1.08,0.49,1.08,1.08
		v3.87c0,0.59-0.49,1.08-1.08,1.08h-3.87c-0.6,0-1.08,0.49-1.08,1.08v2.48C56.8,28.11,56.31,28.59,55.72,28.59z M38.42,28.59h-2.48
		c-0.6,0-1.08-0.49-1.08-1.08v-2.48c0-0.6,0.49-1.08,1.08-1.08h2.48c0.59,0,1.08-0.49,1.08-1.08v-3.87c0-0.59,0.48-1.08,1.08-1.08
		h3.87c0.6,0,1.08,0.49,1.08,1.08v3.87c0,0.59-0.49,1.08-1.08,1.08h-3.87c-0.6,0-1.08,0.49-1.08,1.08v2.48
		C39.5,28.11,39.01,28.59,38.42,28.59z M21.11,28.59h-2.48c-0.6,0-1.08-0.49-1.08-1.08v-2.48c0-0.6,0.49-1.08,1.08-1.08h2.48
		c0.59,0,1.08-0.49,1.08-1.08v-3.87c0-0.59,0.48-1.08,1.08-1.08h3.87c0.6,0,1.08,0.49,1.08,1.08v3.87c0,0.59-0.49,1.08-1.08,1.08
		h-3.87c-0.6,0-1.08,0.49-1.08,1.08v2.48C22.19,28.11,21.71,28.59,21.11,28.59z M3.81,28.59H1.34c-0.6,0-1.08-0.49-1.08-1.08v-2.48
		c0-0.6,0.49-1.08,1.08-1.08h2.48c0.59,0,1.08-0.49,1.08-1.08v-3.87c0-0.59,0.48-1.08,1.08-1.08h3.87c0.6,0,1.08,0.49,1.08,1.08
		v3.87c0,0.59-0.49,1.08-1.08,1.08H5.97c-0.6,0-1.08,0.49-1.08,1.08v2.48C4.89,28.11,4.41,28.59,3.81,28.59z M124.93,46.38h-2.48
		c-0.6,0-1.08-0.49-1.08-1.08v-2.48c0-0.6,0.49-1.08,1.08-1.08h2.48c0.59,0,1.08-0.49,1.08-1.08V36.8c0-0.59,0.48-1.08,1.08-1.08
		h3.87c0.6,0,1.08,0.49,1.08,1.08v3.87c0,0.59-0.49,1.08-1.08,1.08h-3.87c-0.6,0-1.08,0.49-1.08,1.08v2.48
		C126.01,45.9,125.52,46.38,124.93,46.38z M107.63,46.38h-2.48c-0.6,0-1.08-0.49-1.08-1.08v-2.48c0-0.6,0.49-1.08,1.08-1.08h2.48
		c0.59,0,1.08-0.49,1.08-1.08V36.8c0-0.59,0.48-1.08,1.08-1.08h3.87c0.6,0,1.08,0.49,1.08,1.08v3.87c0,0.59-0.49,1.08-1.08,1.08
		h-3.87c-0.6,0-1.08,0.49-1.08,1.08v2.48C108.71,45.9,108.22,46.38,107.63,46.38z M90.32,46.38h-2.48c-0.6,0-1.08-0.49-1.08-1.08
		v-2.48c0-0.6,0.49-1.08,1.08-1.08h2.48c0.59,0,1.08-0.49,1.08-1.08V36.8c0-0.59,0.48-1.08,1.08-1.08h3.87
		c0.6,0,1.08,0.49,1.08,1.08v3.87c0,0.59-0.49,1.08-1.08,1.08h-3.87c-0.6,0-1.08,0.49-1.08,1.08v2.48
		C91.4,45.9,90.92,46.38,90.32,46.38z M73.02,46.38h-2.48c-0.6,0-1.08-0.49-1.08-1.08v-2.48c0-0.6,0.49-1.08,1.08-1.08h2.48
		c0.59,0,1.08-0.49,1.08-1.08V36.8c0-0.59,0.48-1.08,1.08-1.08h3.87c0.6,0,1.08,0.49,1.08,1.08v3.87c0,0.59-0.49,1.08-1.08,1.08
		h-3.87c-0.6,0-1.08,0.49-1.08,1.08v2.48C74.1,45.9,73.62,46.38,73.02,46.38z M55.72,46.38h-2.48c-0.6,0-1.08-0.49-1.08-1.08v-2.48
		c0-0.6,0.49-1.08,1.08-1.08h2.48c0.59,0,1.08-0.49,1.08-1.08V36.8c0-0.59,0.48-1.08,1.08-1.08h3.87c0.6,0,1.08,0.49,1.08,1.08v3.87
		c0,0.59-0.49,1.08-1.08,1.08h-3.87c-0.6,0-1.08,0.49-1.08,1.08v2.48C56.8,45.9,56.31,46.38,55.72,46.38z M38.42,46.38h-2.48
		c-0.6,0-1.08-0.49-1.08-1.08v-2.48c0-0.6,0.49-1.08,1.08-1.08h2.48c0.59,0,1.08-0.49,1.08-1.08V36.8c0-0.59,0.48-1.08,1.08-1.08
		h3.87c0.6,0,1.08,0.49,1.08,1.08v3.87c0,0.59-0.49,1.08-1.08,1.08h-3.87c-0.6,0-1.08,0.49-1.08,1.08v2.48
		C39.5,45.9,39.01,46.38,38.42,46.38z M21.11,46.38h-2.48c-0.6,0-1.08-0.49-1.08-1.08v-2.48c0-0.6,0.49-1.08,1.08-1.08h2.48
		c0.59,0,1.08-0.49,1.08-1.08V36.8c0-0.59,0.48-1.08,1.08-1.08h3.87c0.6,0,1.08,0.49,1.08,1.08v3.87c0,0.59-0.49,1.08-1.08,1.08
		h-3.87c-0.6,0-1.08,0.49-1.08,1.08v2.48C22.19,45.9,21.71,46.38,21.11,46.38z M3.81,46.38H1.34c-0.6,0-1.08-0.49-1.08-1.08v-2.48
		c0-0.6,0.49-1.08,1.08-1.08h2.48c0.59,0,1.08-0.49,1.08-1.08V36.8c0-0.59,0.48-1.08,1.08-1.08h3.87c0.6,0,1.08,0.49,1.08,1.08v3.87
		c0,0.59-0.49,1.08-1.08,1.08H5.97c-0.6,0-1.08,0.49-1.08,1.08v2.48C4.89,45.9,4.41,46.38,3.81,46.38z M124.93,64.17h-2.48
		c-0.6,0-1.08-0.49-1.08-1.08v-2.48c0-0.6,0.49-1.08,1.08-1.08h2.48c0.59,0,1.08-0.49,1.08-1.08v-3.87c0-0.59,0.48-1.08,1.08-1.08
		h3.87c0.6,0,1.08,0.49,1.08,1.08v3.87c0,0.59-0.49,1.08-1.08,1.08h-3.87c-0.6,0-1.08,0.49-1.08,1.08v2.48
		C126.01,63.69,125.52,64.17,124.93,64.17z M107.63,64.17h-2.48c-0.6,0-1.08-0.49-1.08-1.08v-2.48c0-0.6,0.49-1.08,1.08-1.08h2.48
		c0.59,0,1.08-0.49,1.08-1.08v-3.87c0-0.59,0.48-1.08,1.08-1.08h3.87c0.6,0,1.08,0.49,1.08,1.08v3.87c0,0.59-0.49,1.08-1.08,1.08
		h-3.87c-0.6,0-1.08,0.49-1.08,1.08v2.48C108.71,63.69,108.22,64.17,107.63,64.17z M90.32,64.17h-2.48c-0.6,0-1.08-0.49-1.08-1.08
		v-2.48c0-0.6,0.49-1.08,1.08-1.08h2.48c0.59,0,1.08-0.49,1.08-1.08v-3.87c0-0.59,0.48-1.08,1.08-1.08h3.87
		c0.6,0,1.08,0.49,1.08,1.08v3.87c0,0.59-0.49,1.08-1.08,1.08h-3.87c-0.6,0-1.08,0.49-1.08,1.08v2.48
		C91.4,63.69,90.92,64.17,90.32,64.17z M73.02,64.17h-2.48c-0.6,0-1.08-0.49-1.08-1.08v-2.48c0-0.6,0.49-1.08,1.08-1.08h2.48
		c0.59,0,1.08-0.49,1.08-1.08v-3.87c0-0.59,0.48-1.08,1.08-1.08h3.87c0.6,0,1.08,0.49,1.08,1.08v3.87c0,0.59-0.49,1.08-1.08,1.08
		h-3.87c-0.6,0-1.08,0.49-1.08,1.08v2.48C74.1,63.69,73.62,64.17,73.02,64.17z M55.72,64.17h-2.48c-0.6,0-1.08-0.49-1.08-1.08v-2.48
		c0-0.6,0.49-1.08,1.08-1.08h2.48c0.59,0,1.08-0.49,1.08-1.08v-3.87c0-0.59,0.48-1.08,1.08-1.08h3.87c0.6,0,1.08,0.49,1.08,1.08
		v3.87c0,0.59-0.49,1.08-1.08,1.08h-3.87c-0.6,0-1.08,0.49-1.08,1.08v2.48C56.8,63.69,56.31,64.17,55.72,64.17z M38.42,64.17h-2.48
		c-0.6,0-1.08-0.49-1.08-1.08v-2.48c0-0.6,0.49-1.08,1.08-1.08h2.48c0.59,0,1.08-0.49,1.08-1.08v-3.87c0-0.59,0.48-1.08,1.08-1.08
		h3.87c0.6,0,1.08,0.49,1.08,1.08v3.87c0,0.59-0.49,1.08-1.08,1.08h-3.87c-0.6,0-1.08,0.49-1.08,1.08v2.48
		C39.5,63.69,39.01,64.17,38.42,64.17z M21.11,64.17h-2.48c-0.6,0-1.08-0.49-1.08-1.08v-2.48c0-0.6,0.49-1.08,1.08-1.08h2.48
		c0.59,0,1.08-0.49,1.08-1.08v-3.87c0-0.59,0.48-1.08,1.08-1.08h3.87c0.6,0,1.08,0.49,1.08,1.08v3.87c0,0.59-0.49,1.08-1.08,1.08
		h-3.87c-0.6,0-1.08,0.49-1.08,1.08v2.48C22.19,63.69,21.71,64.17,21.11,64.17z M3.81,64.17H1.34c-0.6,0-1.08-0.49-1.08-1.08v-2.48
		c0-0.6,0.49-1.08,1.08-1.08h2.48c0.59,0,1.08-0.49,1.08-1.08v-3.87c0-0.59,0.48-1.08,1.08-1.08h3.87c0.6,0,1.08,0.49,1.08,1.08
		v3.87c0,0.59-0.49,1.08-1.08,1.08H5.97c-0.6,0-1.08,0.49-1.08,1.08v2.48C4.89,63.69,4.41,64.17,3.81,64.17z M124.93,81.96h-2.48
		c-0.6,0-1.08-0.49-1.08-1.08v-2.48c0-0.6,0.49-1.08,1.08-1.08h2.48c0.59,0,1.08-0.49,1.08-1.08v-3.87c0-0.59,0.48-1.08,1.08-1.08
		h3.87c0.6,0,1.08,0.49,1.08,1.08v3.87c0,0.59-0.49,1.08-1.08,1.08h-3.87c-0.6,0-1.08,0.49-1.08,1.08v2.48
		C126.01,81.48,125.52,81.96,124.93,81.96z M107.63,81.96h-2.48c-0.6,0-1.08-0.49-1.08-1.08v-2.48c0-0.6,0.49-1.08,1.08-1.08h2.48
		c0.59,0,1.08-0.49,1.08-1.08v-3.87c0-0.59,0.48-1.08,1.08-1.08h3.87c0.6,0,1.08,0.49,1.08,1.08v3.87c0,0.59-0.49,1.08-1.08,1.08
		h-3.87c-0.6,0-1.08,0.49-1.08,1.08v2.48C108.71,81.48,108.22,81.96,107.63,81.96z M90.32,81.96h-2.48c-0.6,0-1.08-0.49-1.08-1.08
		v-2.48c0-0.6,0.49-1.08,1.08-1.08h2.48c0.59,0,1.08-0.49,1.08-1.08v-3.87c0-0.59,0.48-1.08,1.08-1.08h3.87
		c0.6,0,1.08,0.49,1.08,1.08v3.87c0,0.59-0.49,1.08-1.08,1.08h-3.87c-0.6,0-1.08,0.49-1.08,1.08v2.48
		C91.4,81.48,90.92,81.96,90.32,81.96z M73.02,81.96h-2.48c-0.6,0-1.08-0.49-1.08-1.08v-2.48c0-0.6,0.49-1.08,1.08-1.08h2.48
		c0.59,0,1.08-0.49,1.08-1.08v-3.87c0-0.59,0.48-1.08,1.08-1.08h3.87c0.6,0,1.08,0.49,1.08,1.08v3.87c0,0.59-0.49,1.08-1.08,1.08
		h-3.87c-0.6,0-1.08,0.49-1.08,1.08v2.48C74.1,81.48,73.62,81.96,73.02,81.96z M55.72,81.96h-2.48c-0.6,0-1.08-0.49-1.08-1.08v-2.48
		c0-0.6,0.49-1.08,1.08-1.08h2.48c0.59,0,1.08-0.49,1.08-1.08v-3.87c0-0.59,0.48-1.08,1.08-1.08h3.87c0.6,0,1.08,0.49,1.08,1.08
		v3.87c0,0.59-0.49,1.08-1.08,1.08h-3.87c-0.6,0-1.08,0.49-1.08,1.08v2.48C56.8,81.48,56.31,81.96,55.72,81.96z M38.42,81.96h-2.48
		c-0.6,0-1.08-0.49-1.08-1.08v-2.48c0-0.6,0.49-1.08,1.08-1.08h2.48c0.59,0,1.08-0.49,1.08-1.08v-3.87c0-0.59,0.48-1.08,1.08-1.08
		h3.87c0.6,0,1.08,0.49,1.08,1.08v3.87c0,0.59-0.49,1.08-1.08,1.08h-3.87c-0.6,0-1.08,0.49-1.08,1.08v2.48
		C39.5,81.48,39.01,81.96,38.42,81.96z M21.11,81.96h-2.48c-0.6,0-1.08-0.49-1.08-1.08v-2.48c0-0.6,0.49-1.08,1.08-1.08h2.48
		c0.59,0,1.08-0.49,1.08-1.08v-3.87c0-0.59,0.48-1.08,1.08-1.08h3.87c0.6,0,1.08,0.49,1.08,1.08v3.87c0,0.59-0.49,1.08-1.08,1.08
		h-3.87c-0.6,0-1.08,0.49-1.08,1.08v2.48C22.19,81.48,21.71,81.96,21.11,81.96z M3.81,81.96H1.34c-0.6,0-1.08-0.49-1.08-1.08v-2.48
		c0-0.6,0.49-1.08,1.08-1.08h2.48c0.59,0,1.08-0.49,1.08-1.08v-3.87c0-0.59,0.48-1.08,1.08-1.08h3.87c0.6,0,1.08,0.49,1.08,1.08
		v3.87c0,0.59-0.49,1.08-1.08,1.08H5.97c-0.6,0-1.08,0.49-1.08,1.08v2.48C4.89,81.48,4.41,81.96,3.81,81.96z M124.93,99.75h-2.48
		c-0.6,0-1.08-0.49-1.08-1.08V96.2c0-0.6,0.49-1.08,1.08-1.08h2.48c0.59,0,1.08-0.49,1.08-1.08v-3.87c0-0.59,0.48-1.08,1.08-1.08
		h3.87c0.6,0,1.08,0.49,1.08,1.08v3.87c0,0.59-0.49,1.08-1.08,1.08h-3.87c-0.6,0-1.08,0.49-1.08,1.08v2.48
		C126.01,99.27,125.52,99.75,124.93,99.75z M107.63,99.75h-2.48c-0.6,0-1.08-0.49-1.08-1.08V96.2c0-0.6,0.49-1.08,1.08-1.08h2.48
		c0.59,0,1.08-0.49,1.08-1.08v-3.87c0-0.59,0.48-1.08,1.08-1.08h3.87c0.6,0,1.08,0.49,1.08,1.08v3.87c0,0.59-0.49,1.08-1.08,1.08
		h-3.87c-0.6,0-1.08,0.49-1.08,1.08v2.48C108.71,99.27,108.22,99.75,107.63,99.75z M90.32,99.75h-2.48c-0.6,0-1.08-0.49-1.08-1.08
		V96.2c0-0.6,0.49-1.08,1.08-1.08h2.48c0.59,0,1.08-0.49,1.08-1.08v-3.87c0-0.59,0.48-1.08,1.08-1.08h3.87
		c0.6,0,1.08,0.49,1.08,1.08v3.87c0,0.59-0.49,1.08-1.08,1.08h-3.87c-0.6,0-1.08,0.49-1.08,1.08v2.48
		C91.4,99.27,90.92,99.75,90.32,99.75z M73.02,99.75h-2.48c-0.6,0-1.08-0.49-1.08-1.08V96.2c0-0.6,0.49-1.08,1.08-1.08h2.48
		c0.59,0,1.08-0.49,1.08-1.08v-3.87c0-0.59,0.48-1.08,1.08-1.08h3.87c0.6,0,1.08,0.49,1.08,1.08v3.87c0,0.59-0.49,1.08-1.08,1.08
		h-3.87c-0.6,0-1.08,0.49-1.08,1.08v2.48C74.1,99.27,73.62,99.75,73.02,99.75z M55.72,99.75h-2.48c-0.6,0-1.08-0.49-1.08-1.08V96.2
		c0-0.6,0.49-1.08,1.08-1.08h2.48c0.59,0,1.08-0.49,1.08-1.08v-3.87c0-0.59,0.48-1.08,1.08-1.08h3.87c0.6,0,1.08,0.49,1.08,1.08
		v3.87c0,0.59-0.49,1.08-1.08,1.08h-3.87c-0.6,0-1.08,0.49-1.08,1.08v2.48C56.8,99.27,56.31,99.75,55.72,99.75z M38.42,99.75h-2.48
		c-0.6,0-1.08-0.49-1.08-1.08V96.2c0-0.6,0.49-1.08,1.08-1.08h2.48c0.59,0,1.08-0.49,1.08-1.08v-3.87c0-0.59,0.48-1.08,1.08-1.08
		h3.87c0.6,0,1.08,0.49,1.08,1.08v3.87c0,0.59-0.49,1.08-1.08,1.08h-3.87c-0.6,0-1.08,0.49-1.08,1.08v2.48
		C39.5,99.27,39.01,99.75,38.42,99.75z M21.11,99.75h-2.48c-0.6,0-1.08-0.49-1.08-1.08V96.2c0-0.6,0.49-1.08,1.08-1.08h2.48
		c0.59,0,1.08-0.49,1.08-1.08v-3.87c0-0.59,0.48-1.08,1.08-1.08h3.87c0.6,0,1.08,0.49,1.08,1.08v3.87c0,0.59-0.49,1.08-1.08,1.08
		h-3.87c-0.6,0-1.08,0.49-1.08,1.08v2.48C22.19,99.27,21.71,99.75,21.11,99.75z M3.81,99.75H1.34c-0.6,0-1.08-0.49-1.08-1.08V96.2
		c0-0.6,0.49-1.08,1.08-1.08h2.48c0.59,0,1.08-0.49,1.08-1.08v-3.87c0-0.59,0.48-1.08,1.08-1.08h3.87c0.6,0,1.08,0.49,1.08,1.08
		v3.87c0,0.59-0.49,1.08-1.08,1.08H5.97c-0.6,0-1.08,0.49-1.08,1.08v2.48C4.89,99.27,4.41,99.75,3.81,99.75z M124.93,117.54h-2.48
		c-0.6,0-1.08-0.49-1.08-1.08v-2.48c0-0.6,0.49-1.08,1.08-1.08h2.48c0.59,0,1.08-0.49,1.08-1.08v-3.87c0-0.59,0.48-1.08,1.08-1.08
		h3.87c0.6,0,1.08,0.49,1.08,1.08v3.87c0,0.59-0.49,1.08-1.08,1.08h-3.87c-0.6,0-1.08,0.49-1.08,1.08v2.48
		C126.01,117.06,125.52,117.54,124.93,117.54z M107.63,117.54h-2.48c-0.6,0-1.08-0.49-1.08-1.08v-2.48c0-0.6,0.49-1.08,1.08-1.08
		h2.48c0.59,0,1.08-0.49,1.08-1.08v-3.87c0-0.59,0.48-1.08,1.08-1.08h3.87c0.6,0,1.08,0.49,1.08,1.08v3.87
		c0,0.59-0.49,1.08-1.08,1.08h-3.87c-0.6,0-1.08,0.49-1.08,1.08v2.48C108.71,117.06,108.22,117.54,107.63,117.54z M90.32,117.54
		h-2.48c-0.6,0-1.08-0.49-1.08-1.08v-2.48c0-0.6,0.49-1.08,1.08-1.08h2.48c0.59,0,1.08-0.49,1.08-1.08v-3.87
		c0-0.59,0.48-1.08,1.08-1.08h3.87c0.6,0,1.08,0.49,1.08,1.08v3.87c0,0.59-0.49,1.08-1.08,1.08h-3.87c-0.6,0-1.08,0.49-1.08,1.08
		v2.48C91.4,117.06,90.92,117.54,90.32,117.54z M73.02,117.54h-2.48c-0.6,0-1.08-0.49-1.08-1.08v-2.48c0-0.6,0.49-1.08,1.08-1.08
		h2.48c0.59,0,1.08-0.49,1.08-1.08v-3.87c0-0.59,0.48-1.08,1.08-1.08h3.87c0.6,0,1.08,0.49,1.08,1.08v3.87
		c0,0.59-0.49,1.08-1.08,1.08h-3.87c-0.6,0-1.08,0.49-1.08,1.08v2.48C74.1,117.06,73.62,117.54,73.02,117.54z M55.72,117.54h-2.48
		c-0.6,0-1.08-0.49-1.08-1.08v-2.48c0-0.6,0.49-1.08,1.08-1.08h2.48c0.59,0,1.08-0.49,1.08-1.08v-3.87c0-0.59,0.48-1.08,1.08-1.08
		h3.87c0.6,0,1.08,0.49,1.08,1.08v3.87c0,0.59-0.49,1.08-1.08,1.08h-3.87c-0.6,0-1.08,0.49-1.08,1.08v2.48
		C56.8,117.06,56.31,117.54,55.72,117.54z M38.42,117.54h-2.48c-0.6,0-1.08-0.49-1.08-1.08v-2.48c0-0.6,0.49-1.08,1.08-1.08h2.48
		c0.59,0,1.08-0.49,1.08-1.08v-3.87c0-0.59,0.48-1.08,1.08-1.08h3.87c0.6,0,1.08,0.49,1.08,1.08v3.87c0,0.59-0.49,1.08-1.08,1.08
		h-3.87c-0.6,0-1.08,0.49-1.08,1.08v2.48C39.5,117.06,39.01,117.54,38.42,117.54z M21.11,117.54h-2.48c-0.6,0-1.08-0.49-1.08-1.08
		v-2.48c0-0.6,0.49-1.08,1.08-1.08h2.48c0.59,0,1.08-0.49,1.08-1.08v-3.87c0-0.59,0.48-1.08,1.08-1.08h3.87
		c0.6,0,1.08,0.49,1.08,1.08v3.87c0,0.59-0.49,1.08-1.08,1.08h-3.87c-0.6,0-1.08,0.49-1.08,1.08v2.48
		C22.19,117.06,21.71,117.54,21.11,117.54z M3.81,117.54H1.34c-0.6,0-1.08-0.49-1.08-1.08v-2.48c0-0.6,0.49-1.08,1.08-1.08h2.48
		c0.59,0,1.08-0.49,1.08-1.08v-3.87c0-0.59,0.48-1.08,1.08-1.08h3.87c0.6,0,1.08,0.49,1.08,1.08v3.87c0,0.59-0.49,1.08-1.08,1.08
		H5.97c-0.6,0-1.08,0.49-1.08,1.08v2.48C4.89,117.06,4.41,117.54,3.81,117.54z M124.93,135.34h-2.48c-0.6,0-1.08-0.49-1.08-1.08
		v-2.48c0-0.6,0.49-1.08,1.08-1.08h2.48c0.59,0,1.08-0.49,1.08-1.08v-3.87c0-0.59,0.48-1.08,1.08-1.08h3.87
		c0.6,0,1.08,0.49,1.08,1.08v3.87c0,0.59-0.49,1.08-1.08,1.08h-3.87c-0.6,0-1.08,0.49-1.08,1.08v2.48
		C126.01,134.85,125.52,135.34,124.93,135.34z M107.63,135.34h-2.48c-0.6,0-1.08-0.49-1.08-1.08v-2.48c0-0.6,0.49-1.08,1.08-1.08
		h2.48c0.59,0,1.08-0.49,1.08-1.08v-3.87c0-0.59,0.48-1.08,1.08-1.08h3.87c0.6,0,1.08,0.49,1.08,1.08v3.87
		c0,0.59-0.49,1.08-1.08,1.08h-3.87c-0.6,0-1.08,0.49-1.08,1.08v2.48C108.71,134.85,108.22,135.34,107.63,135.34z M90.32,135.34
		h-2.48c-0.6,0-1.08-0.49-1.08-1.08v-2.48c0-0.6,0.49-1.08,1.08-1.08h2.48c0.59,0,1.08-0.49,1.08-1.08v-3.87
		c0-0.59,0.48-1.08,1.08-1.08h3.87c0.6,0,1.08,0.49,1.08,1.08v3.87c0,0.59-0.49,1.08-1.08,1.08h-3.87c-0.6,0-1.08,0.49-1.08,1.08
		v2.48C91.4,134.85,90.92,135.34,90.32,135.34z M73.02,135.34h-2.48c-0.6,0-1.08-0.49-1.08-1.08v-2.48c0-0.6,0.49-1.08,1.08-1.08
		h2.48c0.59,0,1.08-0.49,1.08-1.08v-3.87c0-0.59,0.48-1.08,1.08-1.08h3.87c0.6,0,1.08,0.49,1.08,1.08v3.87
		c0,0.59-0.49,1.08-1.08,1.08h-3.87c-0.6,0-1.08,0.49-1.08,1.08v2.48C74.1,134.85,73.62,135.34,73.02,135.34z M55.72,135.34h-2.48
		c-0.6,0-1.08-0.49-1.08-1.08v-2.48c0-0.6,0.49-1.08,1.08-1.08h2.48c0.59,0,1.08-0.49,1.08-1.08v-3.87c0-0.59,0.48-1.08,1.08-1.08
		h3.87c0.6,0,1.08,0.49,1.08,1.08v3.87c0,0.59-0.49,1.08-1.08,1.08h-3.87c-0.6,0-1.08,0.49-1.08,1.08v2.48
		C56.8,134.85,56.31,135.34,55.72,135.34z M38.42,135.34h-2.48c-0.6,0-1.08-0.49-1.08-1.08v-2.48c0-0.6,0.49-1.08,1.08-1.08h2.48
		c0.59,0,1.08-0.49,1.08-1.08v-3.87c0-0.59,0.48-1.08,1.08-1.08h3.87c0.6,0,1.08,0.49,1.08,1.08v3.87c0,0.59-0.49,1.08-1.08,1.08
		h-3.87c-0.6,0-1.08,0.49-1.08,1.08v2.48C39.5,134.85,39.01,135.34,38.42,135.34z M21.11,135.34h-2.48c-0.6,0-1.08-0.49-1.08-1.08
		v-2.48c0-0.6,0.49-1.08,1.08-1.08h2.48c0.59,0,1.08-0.49,1.08-1.08v-3.87c0-0.59,0.48-1.08,1.08-1.08h3.87
		c0.6,0,1.08,0.49,1.08,1.08v3.87c0,0.59-0.49,1.08-1.08,1.08h-3.87c-0.6,0-1.08,0.49-1.08,1.08v2.48
		C22.19,134.85,21.71,135.34,21.11,135.34z M3.81,135.34H1.34c-0.6,0-1.08-0.49-1.08-1.08v-2.48c0-0.6,0.49-1.08,1.08-1.08h2.48
		c0.59,0,1.08-0.49,1.08-1.08v-3.87c0-0.59,0.48-1.08,1.08-1.08h3.87c0.6,0,1.08,0.49,1.08,1.08v3.87c0,0.59-0.49,1.08-1.08,1.08
		H5.97c-0.6,0-1.08,0.49-1.08,1.08v2.48C4.89,134.85,4.41,135.34,3.81,135.34z M124.93,153.13h-2.48c-0.6,0-1.08-0.49-1.08-1.08
		v-2.48c0-0.6,0.49-1.08,1.08-1.08h2.48c0.59,0,1.08-0.49,1.08-1.08v-3.87c0-0.59,0.48-1.08,1.08-1.08h3.87
		c0.6,0,1.08,0.49,1.08,1.08v3.87c0,0.59-0.49,1.08-1.08,1.08h-3.87c-0.6,0-1.08,0.49-1.08,1.08v2.48
		C126.01,152.64,125.52,153.13,124.93,153.13z M107.63,153.13h-2.48c-0.6,0-1.08-0.49-1.08-1.08v-2.48c0-0.6,0.49-1.08,1.08-1.08
		h2.48c0.59,0,1.08-0.49,1.08-1.08v-3.87c0-0.59,0.48-1.08,1.08-1.08h3.87c0.6,0,1.08,0.49,1.08,1.08v3.87
		c0,0.59-0.49,1.08-1.08,1.08h-3.87c-0.6,0-1.08,0.49-1.08,1.08v2.48C108.71,152.64,108.22,153.13,107.63,153.13z M90.32,153.13
		h-2.48c-0.6,0-1.08-0.49-1.08-1.08v-2.48c0-0.6,0.49-1.08,1.08-1.08h2.48c0.59,0,1.08-0.49,1.08-1.08v-3.87
		c0-0.59,0.48-1.08,1.08-1.08h3.87c0.6,0,1.08,0.49,1.08,1.08v3.87c0,0.59-0.49,1.08-1.08,1.08h-3.87c-0.6,0-1.08,0.49-1.08,1.08
		v2.48C91.4,152.64,90.92,153.13,90.32,153.13z M73.02,153.13h-2.48c-0.6,0-1.08-0.49-1.08-1.08v-2.48c0-0.6,0.49-1.08,1.08-1.08
		h2.48c0.59,0,1.08-0.49,1.08-1.08v-3.87c0-0.59,0.48-1.08,1.08-1.08h3.87c0.6,0,1.08,0.49,1.08,1.08v3.87
		c0,0.59-0.49,1.08-1.08,1.08h-3.87c-0.6,0-1.08,0.49-1.08,1.08v2.48C74.1,152.64,73.62,153.13,73.02,153.13z M55.72,153.13h-2.48
		c-0.6,0-1.08-0.49-1.08-1.08v-2.48c0-0.6,0.49-1.08,1.08-1.08h2.48c0.59,0,1.08-0.49,1.08-1.08v-3.87c0-0.59,0.48-1.08,1.08-1.08
		h3.87c0.6,0,1.08,0.49,1.08,1.08v3.87c0,0.59-0.49,1.08-1.08,1.08h-3.87c-0.6,0-1.08,0.49-1.08,1.08v2.48
		C56.8,152.64,56.31,153.13,55.72,153.13z M38.42,153.13h-2.48c-0.6,0-1.08-0.49-1.08-1.08v-2.48c0-0.6,0.49-1.08,1.08-1.08h2.48
		c0.59,0,1.08-0.49,1.08-1.08v-3.87c0-0.59,0.48-1.08,1.08-1.08h3.87c0.6,0,1.08,0.49,1.08,1.08v3.87c0,0.59-0.49,1.08-1.08,1.08
		h-3.87c-0.6,0-1.08,0.49-1.08,1.08v2.48C39.5,152.64,39.01,153.13,38.42,153.13z M21.11,153.13h-2.48c-0.6,0-1.08-0.49-1.08-1.08
		v-2.48c0-0.6,0.49-1.08,1.08-1.08h2.48c0.59,0,1.08-0.49,1.08-1.08v-3.87c0-0.59,0.48-1.08,1.08-1.08h3.87
		c0.6,0,1.08,0.49,1.08,1.08v3.87c0,0.59-0.49,1.08-1.08,1.08h-3.87c-0.6,0-1.08,0.49-1.08,1.08v2.48
		C22.19,152.64,21.71,153.13,21.11,153.13z M3.81,153.13H1.34c-0.6,0-1.08-0.49-1.08-1.08v-2.48c0-0.6,0.49-1.08,1.08-1.08h2.48
		c0.59,0,1.08-0.49,1.08-1.08v-3.87c0-0.59,0.48-1.08,1.08-1.08h3.87c0.6,0,1.08,0.49,1.08,1.08v3.87c0,0.59-0.49,1.08-1.08,1.08
		H5.97c-0.6,0-1.08,0.49-1.08,1.08v2.48C4.89,152.64,4.41,153.13,3.81,153.13z"/>
</g>
</svg>
