<?xml version="1.0" encoding="utf-8"?>
<!-- Generator: Adobe Illustrator 24.1.1, SVG Export Plug-In . SVG Version: 6.00 Build 0)  -->
<svg version="1.1" id="Layer_1" xmlns="http://www.w3.org/2000/svg" xmlns:xlink="http://www.w3.org/1999/xlink" x="0px" y="0px"
	 viewBox="0 0 13.02 13.89" style="enable-background:new 0 0 13.02 13.89;" xml:space="preserve">
<style type="text/css">
	.st0{fill:#FFFFFF;}
</style>
<g>
	<g>
		<path class="st0" d="M10.58,9c-0.8,0-1.51,0.4-1.96,1L4.77,8.03c0.06-0.22,0.11-0.44,0.11-0.68c0-0.32-0.07-0.63-0.18-0.91
			l4.03-2.42c0.45,0.53,1.11,0.87,1.85,0.87c1.35,0,2.44-1.09,2.44-2.44S11.92,0,10.58,0S8.14,1.09,8.14,2.44
			c0,0.31,0.06,0.6,0.17,0.88L4.27,5.75c-0.45-0.51-1.1-0.84-1.83-0.84C1.09,4.91,0,6,0,7.35s1.09,2.44,2.44,2.44
			c0.82,0,1.54-0.41,1.98-1.03l3.83,1.96c-0.07,0.23-0.12,0.47-0.12,0.72c0,1.35,1.09,2.44,2.44,2.44s2.44-1.09,2.44-2.44
			S11.92,9,10.58,9z"/>
	</g>
</g>
</svg>
