<?xml version="1.0" encoding="utf-8"?>
<!-- Generator: Adobe Illustrator 24.1.1, SVG Export Plug-In . SVG Version: 6.00 Build 0)  -->
<svg version="1.1" id="Layer_1" xmlns="http://www.w3.org/2000/svg" xmlns:xlink="http://www.w3.org/1999/xlink" x="0px" y="0px"
	 viewBox="0 0 30.5 30.21" style="enable-background:new 0 0 30.5 30.21;" xml:space="preserve">
<style type="text/css">
	.st0{fill:#FFFFFF;}
</style>
<g>
	<path class="st0" d="M3.07,21.44h1.95v1.95h0.97v-4.87c0-1.07-0.87-1.95-1.95-1.95s-1.95,0.87-1.95,1.95v4.87h0.97V21.44z
		 M4.04,17.54c0.54,0,0.97,0.44,0.97,0.97v1.95H3.07v-1.95C3.07,17.98,3.51,17.54,4.04,17.54z"/>
	<path class="st0" d="M7.94,20.46h0.97c1.07,0,1.95-0.87,1.95-1.95s-0.87-1.95-1.95-1.95H6.97v6.82h0.97V20.46z M7.94,17.54h0.97
		c0.54,0,0.97,0.44,0.97,0.97s-0.44,0.97-0.97,0.97H7.94V17.54z"/>
	<path class="st0" d="M11.35,17.54h0.97v4.87h-0.97v0.97h2.92v-0.97H13.3v-4.87h0.97v-0.97h-2.92V17.54z"/>
	<path class="st0" d="M5.99,11.69h0.97v0.97H5.99V11.69z"/>
	<path class="st0" d="M4.04,11.69h0.97v0.97H4.04V11.69z"/>
	<path class="st0" d="M2.09,11.69h0.97v0.97H2.09V11.69z"/>
	<path class="st0" d="M15.74,22.41h7.8v-7.8h-7.8V22.41z M16.71,15.59h5.85v5.85h-5.85V15.59z"/>
	<path class="st0" d="M22.56,25.34h0.97v0.97h-0.97V25.34z"/>
	<path class="st0" d="M15.74,25.34h5.85v0.97h-5.85V25.34z"/>
	<path class="st0" d="M15.74,23.39h7.8v0.97h-7.8V23.39z"/>
	<path class="st0" d="M15.74,27.29h7.8v0.97h-7.8V27.29z"/>
	<path class="st0" d="M5.99,25.34H3.07c-0.54,0-0.97,0.44-0.97,0.97v0.97c0,0.54,0.44,0.97,0.97,0.97h2.92
		c0.54,0,0.97-0.44,0.97-0.97v-0.97C6.97,25.77,6.53,25.34,5.99,25.34z M3.07,27.29v-0.97h2.92l0,0.97H3.07z"/>
	<path class="st0" d="M11.84,25.34H8.92c-0.54,0-0.97,0.44-0.97,0.97v0.97c0,0.54,0.44,0.97,0.97,0.97h2.92
		c0.54,0,0.97-0.44,0.97-0.97v-0.97C12.81,25.77,12.38,25.34,11.84,25.34z M8.92,27.29v-0.97h2.92l0,0.97H8.92z"/>
	<path class="st0" d="M30.36,7.31c0-4.03-3.28-7.31-7.31-7.31c-2.8,0-5.23,1.58-6.46,3.9h-4.06l-0.97-0.97h-3.7
		c-0.2-0.57-0.74-0.97-1.37-0.97c-0.81,0-1.46,0.66-1.46,1.46s0.66,1.46,1.46,1.46c0.63,0,1.17-0.41,1.37-0.97h3.3l0.97,0.97h4.04
		c-0.27,0.76-0.43,1.58-0.43,2.44c0,0.16,0.02,0.32,0.03,0.49h-1.29L13.5,6.82H9.8C9.6,6.26,9.06,5.85,8.43,5.85
		c-0.81,0-1.46,0.66-1.46,1.46s0.66,1.46,1.46,1.46c0.63,0,1.17-0.41,1.37-0.97h3.3l0.97,0.97h1.82c0.07,0.33,0.16,0.65,0.27,0.97
		H1.61c-0.81,0-1.46,0.66-1.46,1.46v17.54c0,0.81,0.66,1.46,1.46,1.46h22.41c0.81,0,1.46-0.66,1.46-1.46V14.19
		C28.37,13.17,30.36,10.39,30.36,7.31z M6.48,3.9c-0.27,0-0.49-0.22-0.49-0.49s0.22-0.49,0.49-0.49s0.49,0.22,0.49,0.49
		S6.75,3.9,6.48,3.9z M8.43,7.8c-0.27,0-0.49-0.22-0.49-0.49s0.22-0.49,0.49-0.49s0.49,0.22,0.49,0.49C8.92,7.58,8.7,7.8,8.43,7.8z
		 M20.81,9.75c-0.11-0.62-0.17-1.28-0.19-1.95h4.85c-0.03,0.88-0.13,1.74-0.3,2.52c-0.27-0.34-0.68-0.57-1.15-0.57H20.81z
		 M16.74,6.82c0.08-1.07,0.43-2.07,0.98-2.92h2.29c-0.21,0.87-0.33,1.86-0.36,2.92H16.74z M21.02,3.9h4.06
		c0.22,0.84,0.36,1.83,0.4,2.92h-4.85C20.65,5.72,20.8,4.74,21.02,3.9z M23.05,0.97c0.61,0,1.25,0.72,1.72,1.95h-3.44
		C21.8,1.7,22.44,0.97,23.05,0.97z M29.36,6.82h-2.91c-0.03-1.06-0.15-2.05-0.36-2.92h2.29C28.93,4.75,29.27,5.75,29.36,6.82
		L29.36,6.82z M26.44,7.8h2.92c-0.08,1.06-0.43,2.06-0.99,2.92h-2.3C26.29,9.82,26.41,8.83,26.44,7.8z M27.61,2.92h-1.8
		c-0.21-0.63-0.47-1.18-0.77-1.62C26.02,1.63,26.9,2.19,27.61,2.92z M21.06,1.3c-0.3,0.45-0.56,0.99-0.77,1.62h-1.8
		C19.19,2.19,20.07,1.63,21.06,1.3z M16.74,7.8h2.91c0.02,0.67,0.08,1.32,0.18,1.95h-2.61C16.95,9.12,16.79,8.47,16.74,7.8
		L16.74,7.8z M1.61,10.72h22.41c0.27,0,0.49,0.22,0.49,0.49v1.46H8.71l-0.97,0.97H1.12v-2.44C1.12,10.94,1.34,10.72,1.61,10.72
		L1.61,10.72z M24.02,29.24H1.61c-0.27,0-0.49-0.22-0.49-0.49V14.62h7.02l0.97-0.97h15.39v15.1C24.51,29.02,24.29,29.24,24.02,29.24
		z M25.48,13.15v-1.45h2.12C27.01,12.31,26.29,12.81,25.48,13.15z"/>
	<path class="st0" d="M21.58,4.87h0.97v0.97h-0.97V4.87z"/>
	<path class="st0" d="M23.53,4.87h0.97v0.97h-0.97V4.87z"/>
</g>
</svg>
