<?xml version="1.0" encoding="utf-8"?>
<!-- Generator: Adobe Illustrator 24.1.1, SVG Export Plug-In . SVG Version: 6.00 Build 0)  -->
<svg version="1.1" id="Layer_1" xmlns="http://www.w3.org/2000/svg" xmlns:xlink="http://www.w3.org/1999/xlink" x="0px" y="0px"
	 viewBox="0 0 30.34 30.21" style="enable-background:new 0 0 30.34 30.21;" xml:space="preserve">
<style type="text/css">
	.st0{fill:#00A99D;}
	.st1{fill:#FFFFFF;}
</style>
<rect x="16.43" y="3.64" class="st0" width="3.65" height="3.44"/>
<polygon class="st0" points="25.51,3.64 29.09,3.97 29.47,7.08 25.51,7.08 "/>
<polygon class="st0" points="20.3,7.34 25.45,7.66 25.99,10.77 20.3,10.77 "/>
<rect x="2.81" y="26.02" class="st0" width="3.36" height="1.52"/>
<rect x="8.5" y="26.02" class="st0" width="3.36" height="1.52"/>
<polygon class="st0" points="24.68,13.15 8.15,13.15 7.49,14.12 0.82,14.12 0.82,10.31 24.68,10.31 "/>
<rect x="16.3" y="15.36" class="st0" width="6.34" height="6.34"/>
<g>
	<path class="st1" d="M2.99,21.44h1.95v1.95h0.97v-4.87c0-1.07-0.87-1.95-1.95-1.95s-1.95,0.87-1.95,1.95v4.87h0.97V21.44z
		 M3.96,17.54c0.54,0,0.97,0.44,0.97,0.97v1.95H2.99v-1.95C2.99,17.98,3.43,17.54,3.96,17.54z"/>
	<path class="st1" d="M7.86,20.46h0.97c1.07,0,1.95-0.87,1.95-1.95s-0.87-1.95-1.95-1.95H6.89v6.82h0.97V20.46z M7.86,17.54h0.97
		c0.54,0,0.97,0.44,0.97,0.97s-0.44,0.97-0.97,0.97H7.86V17.54z"/>
	<path class="st1" d="M11.27,17.54h0.97v4.87h-0.97v0.97h2.92v-0.97h-0.97v-4.87h0.97v-0.97h-2.92V17.54z"/>
	<path class="st1" d="M5.91,11.69h0.97v0.97H5.91V11.69z"/>
	<path class="st1" d="M3.96,11.69h0.97v0.97H3.96V11.69z"/>
	<path class="st1" d="M2.01,11.69h0.97v0.97H2.01V11.69z"/>
	<path class="st1" d="M15.66,22.41h7.8v-7.8h-7.8V22.41z M16.63,15.59h5.85v5.85h-5.85V15.59z"/>
	<path class="st1" d="M22.48,25.34h0.97v0.97h-0.97V25.34z"/>
	<path class="st1" d="M15.66,25.34h5.85v0.97h-5.85V25.34z"/>
	<path class="st1" d="M15.66,23.39h7.8v0.97h-7.8V23.39z"/>
	<path class="st1" d="M15.66,27.29h7.8v0.97h-7.8V27.29z"/>
	<path class="st1" d="M5.91,25.34H2.99c-0.54,0-0.97,0.44-0.97,0.97v0.97c0,0.54,0.44,0.97,0.97,0.97h2.92
		c0.54,0,0.97-0.44,0.97-0.97v-0.97C6.89,25.77,6.45,25.34,5.91,25.34z M2.99,27.29v-0.97h2.92l0,0.97H2.99z"/>
	<path class="st1" d="M11.76,25.34H8.84c-0.54,0-0.97,0.44-0.97,0.97v0.97c0,0.54,0.44,0.97,0.97,0.97h2.92
		c0.54,0,0.97-0.44,0.97-0.97v-0.97C12.73,25.77,12.3,25.34,11.76,25.34z M8.84,27.29v-0.97h2.92l0,0.97H8.84z"/>
	<path class="st1" d="M30.27,7.31C30.27,3.28,27,0,22.97,0c-2.8,0-5.23,1.58-6.46,3.9h-4.06l-0.97-0.97h-3.7
		C7.57,2.36,7.03,1.95,6.4,1.95c-0.81,0-1.46,0.66-1.46,1.46S5.59,4.87,6.4,4.87c0.63,0,1.17-0.41,1.37-0.97h3.3l0.97,0.97h4.04
		c-0.27,0.76-0.43,1.58-0.43,2.44c0,0.16,0.02,0.32,0.03,0.49H14.4l-0.97-0.97h-3.7c-0.2-0.57-0.74-0.97-1.37-0.97
		c-0.81,0-1.46,0.66-1.46,1.46s0.66,1.46,1.46,1.46c0.63,0,1.17-0.41,1.37-0.97h3.3l0.97,0.97h1.82c0.07,0.33,0.16,0.65,0.27,0.97
		H1.53c-0.81,0-1.46,0.66-1.46,1.46v17.54c0,0.81,0.66,1.46,1.46,1.46h22.41c0.81,0,1.46-0.66,1.46-1.46V14.19
		C28.29,13.17,30.27,10.39,30.27,7.31z M6.4,3.9c-0.27,0-0.49-0.22-0.49-0.49S6.13,2.92,6.4,2.92s0.49,0.22,0.49,0.49
		S6.67,3.9,6.4,3.9z M8.35,7.8c-0.27,0-0.49-0.22-0.49-0.49s0.22-0.49,0.49-0.49s0.49,0.22,0.49,0.49C8.84,7.58,8.62,7.8,8.35,7.8z
		 M20.73,9.75c-0.11-0.62-0.17-1.28-0.19-1.95h4.85c-0.03,0.88-0.13,1.74-0.3,2.52c-0.27-0.34-0.68-0.57-1.15-0.57H20.73z
		 M16.66,6.82c0.08-1.07,0.43-2.07,0.98-2.92h2.29c-0.21,0.87-0.33,1.86-0.36,2.92H16.66z M20.94,3.9H25
		c0.22,0.84,0.36,1.83,0.4,2.92h-4.85C20.57,5.72,20.72,4.74,20.94,3.9z M22.97,0.97c0.61,0,1.25,0.72,1.72,1.95h-3.44
		C21.72,1.7,22.36,0.97,22.97,0.97z M29.28,6.82h-2.91c-0.03-1.06-0.15-2.05-0.36-2.92h2.29C28.85,4.75,29.19,5.75,29.28,6.82
		L29.28,6.82z M26.36,7.8h2.92c-0.08,1.06-0.43,2.06-0.99,2.92h-2.3C26.21,9.82,26.33,8.83,26.36,7.8z M27.53,2.92h-1.8
		c-0.21-0.63-0.47-1.18-0.77-1.62C25.94,1.63,26.82,2.19,27.53,2.92z M20.98,1.3c-0.3,0.45-0.56,0.99-0.77,1.62h-1.8
		C19.11,2.19,19.99,1.63,20.98,1.3z M16.66,7.8h2.91c0.02,0.67,0.08,1.32,0.18,1.95h-2.61C16.87,9.12,16.71,8.47,16.66,7.8
		L16.66,7.8z M1.53,10.72h22.41c0.27,0,0.49,0.22,0.49,0.49v1.46H8.63l-0.97,0.97H1.04v-2.44C1.04,10.94,1.26,10.72,1.53,10.72
		L1.53,10.72z M23.94,29.24H1.53c-0.27,0-0.49-0.22-0.49-0.49V14.62h7.02l0.97-0.97h15.39v15.1C24.43,29.02,24.21,29.24,23.94,29.24
		z M25.4,13.15v-1.45h2.12C26.93,12.31,26.21,12.81,25.4,13.15z"/>
	<path class="st1" d="M21.5,4.87h0.97v0.97H21.5V4.87z"/>
	<path class="st1" d="M23.45,4.87h0.97v0.97h-0.97V4.87z"/>
</g>
</svg>
