<?xml version="1.0" encoding="utf-8"?>
<!-- Generator: Adobe Illustrator 24.1.1, SVG Export Plug-In . SVG Version: 6.00 Build 0)  -->
<svg version="1.1" id="Layer_1" xmlns="http://www.w3.org/2000/svg" xmlns:xlink="http://www.w3.org/1999/xlink" x="0px" y="0px"
	 viewBox="0 0 48 49" style="enable-background:new 0 0 48 49;" xml:space="preserve">
<style type="text/css">
	.st0{fill:#248B75;}
	.st1{fill:#2BB898;}
</style>
<g>
	<g>
		<g>
			<g>
				<path class="st0" d="M36.38,34.25c-0.91,1.47-1.94,2.77-3.11,3.86c-0.44,0.42-0.89,0.81-1.36,1.16c-0.67,0.5-1.36,0.96-2.1,1.36
					c-1.57,0.84-3.31,1.45-5.24,1.8c-6.8,1.21-13.77-2-17.34-7.95c-0.1-0.2-0.24-0.38-0.35-0.57c-0.86-1.74-1.57-3.51-1.84-5.44
					c-0.57-4.12,0.04-7.8,1.88-11c0.08-0.15,0.16-0.3,0.25-0.44c0.98-1.6,2.28-3.08,3.91-4.42c0.5-0.42,1.04-0.81,1.59-1.15
					c6.63-4.29,15.18-3.4,21,2.28c0.94,0.91,1.74,1.94,2.44,3.05c0.16,0.25,0.13,0.36-0.13,0.52c-2.25,1.27-4.48,2.53-6.7,3.84
					c-0.37,0.2-0.43,0-0.6-0.21c-1.67-2.37-3.98-3.61-6.87-3.67c-1.59-0.03-3.07,0.39-4.34,1.16c-1.57,0.92-2.83,2.35-3.54,4.08
					c-0.21,0.5-0.38,1.04-0.48,1.6c-0.06,0.28-0.11,0.55-0.14,0.83c-0.16,1.66,0.1,3.23,0.93,4.68c0.04,0.1,0.06,0.21,0.13,0.3
					c1.66,2.76,4.09,4.25,7.29,4.28c0.57,0,1.12-0.04,1.64-0.13c1.22-0.21,2.3-0.67,3.27-1.36c0.18-0.13,0.35-0.26,0.52-0.4
					c0.72-0.59,1.35-1.36,1.9-2.24c1.94,1.04,3.85,2.08,5.79,3.12c0.4,0.23,0.82,0.45,1.22,0.69C36.16,33.96,36.38,34,36.38,34.25z"
					/>
			</g>
			<g>
				<path class="st0" d="M43.49,25.76c0,1.2,0,1.2-1.22,1.2c-1.19,0-1.19,0-1.19,1.17c0,1.24,0,1.24-1.23,1.24
					c-1.21,0-1.21,0-1.21-1.2c0-1.21,0-1.21-1.2-1.21c-1.2,0-1.2,0-1.2-1.21c0-1.23,0-1.23,1.24-1.23c1.17,0,1.17,0,1.17-1.19
					c0-1.22,0-1.22,1.19-1.22c1.25,0,1.25,0,1.25,1.22c0,1.18,0,1.18,1.17,1.19C43.49,24.52,43.49,24.52,43.49,25.76z"/>
			</g>
			<g>
				<path class="st0" d="M33.75,26.96c-1.14,0-1.14,0-1.14,1.15c0,1.25,0,1.25-1.27,1.25c-1.13,0-1.13,0-1.13-1.1
					c0-1.3,0-1.3-1.28-1.3c-1.16,0-1.16,0-1.16-1.14c0-1.3,0-1.3,1.29-1.3c1.16,0,1.16,0,1.16-1.15c0-1.26,0-1.26,1.26-1.26
					c1.14,0,1.14,0,1.14,1.16c0,1.25,0,1.25,1.27,1.25c1.13,0,1.13,0,1.13,1.11c0,0.02,0,0.04,0,0.06
					C35.02,26.96,35.02,26.96,33.75,26.96z"/>
			</g>
		</g>
		<g>
			<path class="st1" d="M29.81,40.63c-1.57,0.84-3.31,1.45-5.24,1.8c-6.8,1.21-13.77-2-17.34-7.95c-0.1-0.2-0.24-0.38-0.35-0.57
				c-0.86-1.74-1.57-3.51-1.84-5.44c-0.57-4.12,0.04-7.8,1.88-11l6.54,6.62c-0.06,0.28-0.11,0.55-0.14,0.83
				c-0.16,1.66,0.1,3.23,0.93,4.68c0.04,0.1,0.06,0.21,0.13,0.3c1.66,2.76,4.09,4.25,7.29,4.28c0.57,0,1.12-0.04,1.64-0.13
				L29.81,40.63z"/>
		</g>
	</g>
	<g>
		<g>
			<path class="st0" d="M45.94,47.37H1.61V3.03h44.34V47.37z M2.86,46.11h41.82V4.29H2.86V46.11z"/>
		</g>
		<rect x="42.27" y="0.12" class="st1" width="5.83" height="5.83"/>
		<rect x="-0.05" y="0.12" class="st1" width="5.83" height="5.83"/>
		<rect x="42.27" y="43.2" class="st1" width="5.83" height="5.83"/>
		<rect x="-0.05" y="43.2" class="st1" width="5.83" height="5.83"/>
	</g>
</g>
</svg>
