<?xml version="1.0" encoding="utf-8"?>
<!-- Generator: Adobe Illustrator 24.1.1, SVG Export Plug-In . SVG Version: 6.00 Build 0)  -->
<svg version="1.1" id="Layer_1" xmlns="http://www.w3.org/2000/svg" xmlns:xlink="http://www.w3.org/1999/xlink" x="0px" y="0px"
	 viewBox="0 0 41.28 41.62" style="enable-background:new 0 0 41.28 41.62;" xml:space="preserve">
<style type="text/css">
	.st0{opacity:0.28;fill:#666666;}
</style>
<path class="st0" d="M13.69,41.36H4.18c-2.29,0-4.15-1.87-4.15-4.15v-9.51c0-2.29,1.87-4.15,4.15-4.15h9.51
	c2.29,0,4.15-1.87,4.15-4.15V4.53c0-2.29,1.86-4.15,4.15-4.15h14.86c2.29,0,4.15,1.87,4.15,4.15v14.86c0,2.29-1.86,4.15-4.15,4.15
	H21.99c-2.29,0-4.15,1.86-4.15,4.15v9.51C17.84,39.49,15.97,41.36,13.69,41.36z"/>
</svg>
