<?xml version="1.0" encoding="utf-8"?>
<!-- Generator: Adobe Illustrator 24.1.1, SVG Export Plug-In . SVG Version: 6.00 Build 0)  -->
<svg version="1.1" id="Layer_1" xmlns="http://www.w3.org/2000/svg" xmlns:xlink="http://www.w3.org/1999/xlink" x="0px" y="0px"
	 viewBox="0 0 33.93 30.29" style="enable-background:new 0 0 33.93 30.29;" xml:space="preserve">
<style type="text/css">
	.st0{fill:#FFFFFF;}
</style>
<path class="st0" d="M20.66,15.07h3.22c0.27,0,0.5-0.22,0.5-0.5c0-0.27-0.22-0.5-0.5-0.5h-3.22c-0.27,0-0.5,0.22-0.5,0.5
	C20.17,14.85,20.39,15.07,20.66,15.07z M22.69,11.28c0.06,0.02,0.11,0.03,0.17,0.03c0.2,0,0.39-0.12,0.47-0.33l2.01-5.51
	c0.09-0.26-0.04-0.54-0.3-0.63c-0.26-0.09-0.54,0.04-0.63,0.3l-2.01,5.51C22.3,10.9,22.43,11.19,22.69,11.28z M5.87,13.66l3.37,1.95
	c0.26,0.15,0.55,0.23,0.85,0.24c0.01,0,0.03,0,0.04,0s0.03,0,0.04,0c0.29-0.01,0.59-0.08,0.85-0.24l3.37-1.95
	c0.26-0.15,0.42-0.42,0.42-0.73V8.3v0c0,0,0,0,0,0c0-0.02,0-0.04,0-0.06c-0.02-0.28-0.17-0.53-0.42-0.67l-3.37-1.95
	c-0.55-0.32-1.23-0.32-1.77,0L5.87,7.57c-0.25,0.14-0.4,0.39-0.42,0.67c0,0.02,0,0.04,0,0.06v0v0v4.63
	C5.45,13.23,5.61,13.51,5.87,13.66z M13.82,12.84l-3.19,1.84v-3.55c0.14-0.04,0.27-0.09,0.39-0.17l2.8-1.62L13.82,12.84L13.82,12.84
	z M9.74,6.49c0.24-0.14,0.54-0.14,0.78,0l3.14,1.81l-3.14,1.81c-0.24,0.14-0.54,0.14-0.78,0L6.6,8.3L9.74,6.49z M6.44,9.36l2.8,1.62
	c0.12,0.07,0.26,0.13,0.39,0.17v3.55l-3.19-1.84L6.44,9.36z M20.66,13.59h1.48c0.27,0,0.5-0.22,0.5-0.5c0-0.27-0.22-0.5-0.5-0.5
	h-1.48c-0.27,0-0.5,0.22-0.5,0.5C20.17,13.37,20.39,13.59,20.66,13.59z M22.04,15.57h-1.37c-0.27,0-0.5,0.22-0.5,0.5
	s0.22,0.5,0.5,0.5h1.37c0.27,0,0.5-0.22,0.5-0.5S22.31,15.57,22.04,15.57z M29.49,0.08h-0.71c-0.27,0-0.5,0.22-0.5,0.5
	s0.22,0.5,0.5,0.5h0.71c1.88,0,3.42,1.53,3.42,3.42v13.34h-1.69V4.98c0-1.23-1-2.23-2.23-2.23H5c-1.23,0-2.23,1-2.23,2.23v12.84
	H1.08V4.49c0-1.88,1.53-3.42,3.42-3.42h21.94c0.27,0,0.5-0.22,0.5-0.5s-0.22-0.5-0.5-0.5H4.5c-2.43,0-4.41,1.98-4.41,4.41v14.93
	c0,2.14,1.53,3.97,3.64,4.34c0.03,0.01,0.06,0.01,0.09,0.01c0.24,0,0.44-0.17,0.49-0.41c0.05-0.27-0.13-0.53-0.4-0.57
	c-1.63-0.29-2.82-1.7-2.82-3.37v-0.6h2.18c0,0,0,0,0,0c0,0,0,0,0,0h27.46c0,0,0,0,0,0c0,0,0,0,0,0h2.18v0.6
	c0,1.88-1.53,3.42-3.42,3.42H6.14c-0.27,0-0.5,0.22-0.5,0.5c0,0.27,0.22,0.5,0.5,0.5h5.92L11.8,26.7h-0.22
	c-0.93,0-1.77,0.62-2.03,1.52L9.44,28.6c-0.12,0.4-0.04,0.82,0.21,1.16s0.63,0.53,1.05,0.53h12.59c0.42,0,0.8-0.19,1.05-0.53
	c0.25-0.34,0.33-0.76,0.21-1.16l-0.11-0.39c-0.26-0.89-1.1-1.52-2.03-1.52h-0.22l-0.26-2.87h7.56c2.43,0,4.41-1.98,4.41-4.41V4.49
	C33.9,2.06,31.92,0.08,29.49,0.08L29.49,0.08z M16.5,17.83H3.76V4.98C3.76,4.3,4.31,3.75,5,3.75h11.5V17.83z M30.23,17.83H17.49
	V3.75h11.5c0.68,0,1.24,0.55,1.24,1.24V17.83z M13.06,23.83h7.87l0.26,2.87h-8.4L13.06,23.83z M22.4,27.69
	c0.5,0,0.94,0.33,1.08,0.81l0.11,0.39c0.04,0.14-0.02,0.24-0.05,0.29c-0.06,0.08-0.16,0.13-0.26,0.13H10.7
	c-0.14,0-0.22-0.08-0.26-0.13c-0.04-0.05-0.09-0.15-0.05-0.29l0.11-0.39c0.14-0.48,0.58-0.81,1.08-0.81L22.4,27.69z M17.94,20.83
	c0-0.52-0.43-0.95-0.95-0.95s-0.95,0.43-0.95,0.95s0.43,0.95,0.95,0.95C17.52,21.78,17.94,21.35,17.94,20.83z M26.11,5.92
	c-0.19-0.19-0.51-0.19-0.7,0c-0.19,0.19-0.19,0.51,0,0.7l1.44,1.44l-1.44,1.44c-0.19,0.19-0.19,0.51,0,0.7
	c0.1,0.1,0.22,0.14,0.35,0.14s0.25-0.05,0.35-0.14l1.79-1.79c0.19-0.19,0.19-0.51,0-0.7L26.11,5.92z M27.06,14.08h-1.71
	c-0.27,0-0.5,0.22-0.5,0.5c0,0.27,0.22,0.5,0.5,0.5h1.71c0.27,0,0.5-0.22,0.5-0.5C27.55,14.31,27.33,14.08,27.06,14.08z
	 M21.96,10.34c0.13,0,0.25-0.05,0.35-0.14c0.19-0.19,0.19-0.51,0-0.7l-1.44-1.44l1.44-1.44c0.19-0.19,0.19-0.51,0-0.7
	c-0.19-0.19-0.51-0.19-0.7,0l-1.79,1.79c-0.19,0.19-0.19,0.51,0,0.7l1.79,1.79C21.7,10.29,21.83,10.34,21.96,10.34L21.96,10.34z
	 M26.49,15.57H23.5c-0.27,0-0.5,0.22-0.5,0.5s0.22,0.5,0.5,0.5h2.99c0.27,0,0.5-0.22,0.5-0.5S26.77,15.57,26.49,15.57z M25.92,13.1
	c0-0.27-0.22-0.5-0.5-0.5H23.6c-0.27,0-0.5,0.22-0.5,0.5c0,0.27,0.22,0.5,0.5,0.5h1.82C25.7,13.59,25.92,13.37,25.92,13.1z"/>
</svg>
