<?xml version="1.0" encoding="utf-8"?>
<!-- Generator: Adobe Illustrator 24.1.1, SVG Export Plug-In . SVG Version: 6.00 Build 0)  -->
<svg version="1.1" id="Layer_1" xmlns="http://www.w3.org/2000/svg" xmlns:xlink="http://www.w3.org/1999/xlink" x="0px" y="0px"
	 viewBox="0 0 30.76 30.27" style="enable-background:new 0 0 30.76 30.27;" xml:space="preserve">
<style type="text/css">
	.st0{fill:#FFFFFF;}
</style>
<path class="st0" d="M17.68,18.43l1.51-3.52l0.93,0.4l-1.51,3.52L17.68,18.43z M19.15,20.64h1.51v1.01h-1.51V20.64z M20.7,18.95
	l0.93,0.37l1.01-2.52c0.07-0.16,0.04-0.35-0.06-0.49l-1.51-2.01l-0.81,0.6l1.34,1.79L20.7,18.95z M16.13,20.64h2.01v1.01h-2.01
	V20.64z M12.27,15.22c-0.21-0.08-0.44-0.11-0.67-0.11c-0.23,0-0.46,0.04-0.67,0.11l0.34,0.95c0.52-0.18,1.1,0.09,1.28,0.62
	c0.18,0.52-0.09,1.1-0.62,1.28c-0.22,0.08-0.45,0.08-0.67,0l-0.34,0.95c1.05,0.37,2.2-0.18,2.57-1.23
	C13.87,16.74,13.31,15.59,12.27,15.22z M14.11,22.66h3.02v1.01h-3.02V22.66z M7.75,12.08h5.68c0.66,0,1.19-0.53,1.19-1.19V5.22
	c0-0.66-0.53-1.19-1.19-1.19H7.75c-0.66,0-1.19,0.53-1.19,1.19v5.68C6.56,11.55,7.09,12.08,7.75,12.08z M7.57,5.22
	c0-0.1,0.08-0.18,0.18-0.18h5.68c0.1,0,0.18,0.08,0.18,0.18v5.68c0,0.1-0.08,0.18-0.18,0.18H7.75c-0.1,0-0.18-0.08-0.18-0.18
	C7.57,10.9,7.57,5.22,7.57,5.22z M5.56,15.1H2.53c-0.28,0-0.5,0.23-0.5,0.5v3.02c0,0.28,0.23,0.5,0.5,0.5h3.02
	c0.28,0,0.5-0.23,0.5-0.5V15.6C6.06,15.33,5.83,15.1,5.56,15.1z M5.05,18.13H3.04v-2.01h2.01V18.13z M25.36,22.59
	c-1.15,0-2.08,0.93-2.08,2.08s0.93,2.08,2.08,2.08s2.08-0.93,2.08-2.08S26.51,22.6,25.36,22.59z M24.69,25.17h-0.27
	c-0.24-0.45-0.13-1.01,0.27-1.33V25.17z M26.38,25c-0.11,0.32-0.36,0.58-0.68,0.68v-2.03C26.26,23.84,26.56,24.44,26.38,25z
	 M17.14,27.19h-3.52c-0.28,0-0.5,0.23-0.5,0.5c0,0.28,0.23,0.5,0.5,0.5h3.52c0.28,0,0.5-0.23,0.5-0.5
	C17.64,27.41,17.41,27.19,17.14,27.19z M29.74,24.67l0.9-1.37c0.11-0.16,0.11-0.36,0.02-0.53l-1.01-1.74
	c-0.1-0.17-0.28-0.26-0.47-0.25l-1.64,0.1l-0.73-1.47c-0.09-0.17-0.26-0.28-0.45-0.28h-0.67v-9.06h0.59
	c0.28,0.79,1.14,1.2,1.93,0.92c0.43-0.15,0.77-0.49,0.92-0.92h1.09V9.06h-1.09c-0.28-0.79-1.14-1.2-1.93-0.92
	c-0.43,0.15-0.77,0.49-0.92,0.92h-0.59v-1.6c0.79,0.28,1.65-0.13,1.93-0.92l0,0h2.6v-1h-2.6c-0.28-0.79-1.14-1.2-1.93-0.92l0,0V1.51
	c0-0.83-0.68-1.51-1.51-1.51H6.06C5.22,0,4.55,0.68,4.55,1.51v11.58H1.21c-0.66,0-1.19,0.53-1.19,1.19v5.68
	c0,0.66,0.53,1.19,1.19,1.19h3.34v7.55c0,0.83,0.68,1.51,1.51,1.51h20.31c0.19,0,0.37-0.11,0.45-0.28l0.73-1.47l1.64,0.1
	c0.19,0.01,0.37-0.09,0.47-0.25l1.01-1.74c0.1-0.17,0.09-0.37-0.02-0.53L29.74,24.67z M27.71,9.06c0.28,0,0.5,0.23,0.5,0.5
	c0,0.28-0.23,0.5-0.5,0.5s-0.5-0.23-0.5-0.5S27.43,9.06,27.71,9.06z M26.2,5.54c0.28,0,0.5,0.23,0.5,0.5s-0.23,0.5-0.5,0.5
	c-0.28,0-0.5-0.23-0.5-0.5C25.7,5.76,25.92,5.54,26.2,5.54z M5.56,1.51c0-0.28,0.23-0.5,0.5-0.5h18.13c0.28,0,0.5,0.23,0.5,0.5v0.5
	H5.56V1.51z M5.56,3.02h19.13v2.52h-1.01V5.22c0-0.66-0.53-1.19-1.19-1.19h-5.68c-0.66,0-1.19,0.53-1.19,1.19v5.68
	c0,0.66,0.53,1.19,1.19,1.19h5.68c0.66,0,1.19-0.53,1.19-1.19v-0.83h1.01v9.06h-0.33c-0.19,0-0.37,0.11-0.45,0.28l-0.73,1.47
	l-1.64-0.1c-0.19-0.01-0.37,0.09-0.47,0.25l-0.94,1.63h-1.99v1.01h2.17l0.66,1.01l-0.33,0.5H5.56v-4.03h1.33
	c0.66,0,1.19-0.53,1.19-1.19v-2.34h1.81l-0.65,0.65l0.71,0.71l1.51-1.51c0.2-0.2,0.2-0.52,0-0.71l-1.51-1.51l-0.71,0.71l0.65,0.65
	H8.07v-2.34c0-0.66-0.53-1.19-1.19-1.19H5.56V3.02z M24.69,6.55v2.52h-1.01V6.55H24.69z M22.67,5.22v5.68c0,0.1-0.08,0.18-0.18,0.18
	h-5.68c-0.1,0-0.18-0.08-0.18-0.18V5.22c0-0.1,0.08-0.18,0.18-0.18h5.68C22.59,5.03,22.67,5.12,22.67,5.22z M1.21,20.14
	c-0.1,0-0.18-0.08-0.18-0.18v-5.68c0-0.1,0.08-0.18,0.18-0.18h5.68c0.1,0,0.18,0.08,0.18,0.18v5.68c0,0.1-0.08,0.18-0.18,0.18H1.21z
	 M6.06,29.2c-0.28,0-0.5-0.23-0.5-0.5v-2.52h14.46c-0.04,0.13-0.02,0.27,0.05,0.39l1.01,1.74c0.1,0.17,0.28,0.26,0.47,0.25l1.64-0.1
	l0.37,0.74C23.56,29.2,6.06,29.2,6.06,29.2z M28.94,27.54l-1.66-0.1c-0.2-0.01-0.39,0.1-0.48,0.28l-0.74,1.49h-1.39l-0.74-1.49
	c-0.09-0.18-0.28-0.29-0.48-0.28l-1.66,0.1l-0.7-1.21L22,24.94c0.11-0.17,0.11-0.39,0-0.55L21.09,23l0.7-1.21l1.66,0.1
	c0.2,0.01,0.39-0.1,0.48-0.28l0.74-1.49h1.39l0.74,1.49c0.09,0.18,0.28,0.29,0.48,0.28l1.66-0.1l0.7,1.21l-0.91,1.39
	c-0.11,0.17-0.09,0.38,0,0.55l0.91,1.39L28.94,27.54z M16.16,19.32l0.93-0.37l-0.9-2.25l1.34-1.79l-0.81-0.6l-1.51,2.01
	c-0.11,0.14-0.13,0.33-0.06,0.49L16.16,19.32z M14.11,20.64h1.01v1.01h-1.01V20.64z M19.65,6.04c-1.11,0-2.01,0.9-2.01,2.01
	s0.9,2.01,2.01,2.01s2.01-0.9,2.01-2.01C21.67,6.94,20.76,6.04,19.65,6.04z M19.65,9.06c-0.56,0-1.01-0.45-1.01-1.01
	s0.45-1.01,1.01-1.01s1.01,0.45,1.01,1.01C20.66,8.61,20.21,9.06,19.65,9.06z M9.34,10c0.16,0.09,0.35,0.09,0.51-0.01l2.52-1.51
	c0.24-0.14,0.32-0.45,0.17-0.69c-0.04-0.07-0.1-0.13-0.17-0.17L9.84,6.11C9.6,5.97,9.29,6.05,9.15,6.29
	C9.1,6.36,9.08,6.45,9.08,6.55v3.02C9.08,9.75,9.18,9.92,9.34,10z M10.09,7.43l1.04,0.62l-1.04,0.62V7.43z"/>
</svg>
