<?xml version="1.0" encoding="utf-8"?>
<!-- Generator: Adobe Illustrator 24.1.1, SVG Export Plug-In . SVG Version: 6.00 Build 0)  -->
<svg version="1.1" id="Layer_1" xmlns="http://www.w3.org/2000/svg" xmlns:xlink="http://www.w3.org/1999/xlink" x="0px" y="0px"
	 viewBox="0 0 30.23 30.23" style="enable-background:new 0 0 30.23 30.23;" xml:space="preserve">
<style type="text/css">
	.st0{fill:#FFFFFF;}
</style>
<path class="st0" d="M2.94,21.46h1.95v1.95h0.97v-4.87c0-1.07-0.87-1.95-1.95-1.95s-1.95,0.87-1.95,1.95v4.87h0.97V21.46z
	 M3.92,17.57c0.54,0,0.97,0.44,0.97,0.97v1.95H2.94v-1.95C2.94,18,3.38,17.57,3.92,17.57z M7.81,20.49h0.97
	c1.07,0,1.95-0.87,1.95-1.95s-0.87-1.95-1.95-1.95H6.84v6.82h0.97V20.49z M7.81,17.57h0.97c0.54,0,0.97,0.44,0.97,0.97
	s-0.44,0.97-0.97,0.97H7.81V17.57z M11.22,16.59h2.92v0.97h-0.97v4.87h0.97v0.97h-2.92v-0.97h0.97v-4.87h-0.97V16.59z M5.86,11.72
	h0.97v0.97H5.86V11.72z M3.92,11.72h0.97v0.97H3.92V11.72z M1.97,11.72h0.97v0.97H1.97V11.72z M15.61,22.44h7.8v-7.8h-7.8V22.44z
	 M16.58,15.62h5.85v5.85h-5.85V15.62z M22.43,25.36h0.97v0.97h-0.97V25.36z M15.61,25.36h5.85v0.97h-5.85V25.36z M15.61,23.41h7.8
	v0.97h-7.8V23.41z M15.61,27.31h7.8v0.97h-7.8V27.31z M5.86,25.36H2.94c-0.54,0-0.97,0.44-0.97,0.97v0.97
	c0,0.54,0.44,0.97,0.97,0.97h2.92c0.54,0,0.97-0.44,0.97-0.97v-0.97C6.84,25.8,6.4,25.36,5.86,25.36z M2.94,27.31v-0.97h2.92l0,0.97
	H2.94z M11.71,25.36H8.79c-0.54,0-0.97,0.44-0.97,0.97v0.97c0,0.54,0.44,0.97,0.97,0.97h2.92c0.54,0,0.97-0.44,0.97-0.97v-0.97
	C12.69,25.8,12.25,25.36,11.71,25.36z M8.79,27.31v-0.97h2.92l0,0.97H8.79z M30.23,7.33c0-4.03-3.28-7.31-7.31-7.31
	c-2.8,0-5.23,1.58-6.46,3.9H12.4l-0.97-0.97h-3.7c-0.2-0.57-0.74-0.97-1.37-0.97c-0.81,0-1.46,0.66-1.46,1.46S5.55,4.9,6.35,4.9
	c0.63,0,1.17-0.41,1.37-0.97h3.3L12,4.9h4.04c-0.27,0.76-0.43,1.58-0.43,2.44c0,0.16,0.02,0.32,0.03,0.49h-1.29l-0.97-0.97h-3.7
	C9.47,6.28,8.94,5.87,8.3,5.87c-0.81,0-1.46,0.66-1.46,1.46c0,0.81,0.66,1.46,1.46,1.46c0.63,0,1.17-0.41,1.37-0.97h3.3l0.97,0.97
	h1.82c0.07,0.33,0.16,0.65,0.27,0.97H1.48c-0.81,0-1.46,0.66-1.46,1.46v17.54c0,0.81,0.66,1.46,1.46,1.46h22.41
	c0.81,0,1.46-0.66,1.46-1.46V14.22C28.24,13.19,30.23,10.42,30.23,7.33z M6.35,3.92c-0.27,0-0.49-0.22-0.49-0.49
	s0.22-0.49,0.49-0.49c0.27,0,0.49,0.22,0.49,0.49S6.62,3.92,6.35,3.92z M8.3,7.82c-0.27,0-0.49-0.22-0.49-0.49
	c0-0.27,0.22-0.49,0.49-0.49s0.49,0.22,0.49,0.49C8.79,7.6,8.57,7.82,8.3,7.82z M20.68,9.77c-0.11-0.62-0.17-1.28-0.19-1.95h4.85
	c-0.03,0.88-0.13,1.74-0.3,2.52c-0.27-0.34-0.68-0.57-1.15-0.57H20.68z M16.61,6.85c0.08-1.07,0.43-2.07,0.98-2.92h2.29
	c-0.21,0.87-0.33,1.86-0.36,2.92H16.61z M20.89,3.92h4.06c0.22,0.84,0.36,1.83,0.4,2.92h-4.85C20.53,5.75,20.67,4.76,20.89,3.92z
	 M22.92,1c0.61,0,1.25,0.72,1.72,1.95H21.2C21.67,1.72,22.31,1,22.92,1z M29.23,6.85h-2.91c-0.03-1.06-0.15-2.05-0.36-2.92h2.29
	C28.8,4.78,29.15,5.78,29.23,6.85L29.23,6.85z M26.31,7.82h2.92c-0.08,1.06-0.43,2.06-0.99,2.92h-2.3
	C26.16,9.84,26.28,8.85,26.31,7.82z M27.48,2.95h-1.8c-0.21-0.63-0.47-1.18-0.77-1.62C25.89,1.65,26.77,2.21,27.48,2.95z
	 M20.93,1.32c-0.3,0.45-0.56,0.99-0.77,1.62h-1.8C19.06,2.21,19.94,1.65,20.93,1.32z M16.61,7.82h2.91
	c0.02,0.67,0.08,1.32,0.18,1.95h-2.61C16.82,9.14,16.66,8.49,16.61,7.82L16.61,7.82z M1.48,10.74h22.41c0.27,0,0.49,0.22,0.49,0.49
	v1.46H8.59l-0.97,0.97H0.99v-2.44C0.99,10.96,1.21,10.74,1.48,10.74L1.48,10.74z M23.89,29.26H1.48c-0.27,0-0.49-0.22-0.49-0.49
	V14.64h7.02l0.97-0.97h15.39v15.1C24.38,29.04,24.16,29.26,23.89,29.26z M25.35,13.17v-1.45h2.12
	C26.88,12.34,26.16,12.84,25.35,13.17z M21.46,4.9h0.97v0.97h-0.97V4.9z M23.41,4.9h0.97v0.97h-0.97V4.9z"/>
</svg>
