<?xml version="1.0" encoding="utf-8"?>
<!-- Generator: Adobe Illustrator 24.1.1, SVG Export Plug-In . SVG Version: 6.00 Build 0)  -->
<svg version="1.1" id="Layer_1" xmlns="http://www.w3.org/2000/svg" xmlns:xlink="http://www.w3.org/1999/xlink" x="0px" y="0px"
	 viewBox="0 0 30.45 30.29" style="enable-background:new 0 0 30.45 30.29;" xml:space="preserve">
<style type="text/css">
	.st0{fill:#FFFFFF;}
</style>
<path class="st0" d="M2.27,9.67c-0.08-0.08-0.13-0.2-0.13-0.31c0-0.12,0.05-0.23,0.13-0.31l1.39-1.39c0.17-0.17,0.45-0.17,0.63,0
	c0.17,0.17,0.17,0.45,0,0.63L3.21,9.36l1.07,1.07c0.17,0.17,0.17,0.45,0,0.63c-0.09,0.09-0.2,0.13-0.31,0.13s-0.23-0.04-0.31-0.13
	L2.27,9.67z M8.05,9.36l-1.07,1.07c-0.17,0.17-0.17,0.45,0,0.63c0.09,0.09,0.2,0.13,0.31,0.13s0.23-0.04,0.31-0.13l1.39-1.39
	c0.17-0.17,0.17-0.45,0-0.63L7.6,7.66c-0.17-0.17-0.45-0.17-0.63,0c-0.17,0.17-0.17,0.45,0,0.63L8.05,9.36z M4.97,11.16
	c0.05,0.02,0.11,0.03,0.16,0.03c0.18,0,0.34-0.11,0.41-0.28l1.09-2.78c0.09-0.23-0.02-0.48-0.25-0.57C6.16,7.47,5.9,7.58,5.81,7.81
	l-1.09,2.78C4.63,10.81,4.75,11.07,4.97,11.16z M2.84,13.79h2.98c0.24,0,0.44-0.2,0.44-0.44c0-0.24-0.2-0.44-0.44-0.44H2.84
	c-0.24,0-0.44,0.2-0.44,0.44C2.39,13.59,2.59,13.79,2.84,13.79z M12.69,12.9H7.44C7.2,12.9,7,13.1,7,13.34
	c0,0.24,0.2,0.44,0.44,0.44h5.24c0.24,0,0.44-0.2,0.44-0.44C13.13,13.1,12.93,12.9,12.69,12.9z M2.84,15.65h1.27
	c0.24,0,0.44-0.2,0.44-0.44c0-0.24-0.2-0.44-0.44-0.44H2.84c-0.24,0-0.44,0.2-0.44,0.44C2.39,15.45,2.59,15.65,2.84,15.65z
	 M11.07,14.77c-0.24,0-0.44,0.2-0.44,0.44c0,0.24,0.2,0.44,0.44,0.44h0.77c0.24,0,0.44-0.2,0.44-0.44c0-0.24-0.2-0.44-0.44-0.44
	H11.07z M9.9,15.21c0-0.24-0.2-0.44-0.44-0.44h-3.8c-0.24,0-0.44,0.2-0.44,0.44c0,0.24,0.2,0.44,0.44,0.44h3.8
	C9.7,15.65,9.9,15.45,9.9,15.21z M12.8,15.21c0,0.24,0.2,0.44,0.44,0.44h1.45c0.24,0,0.44-0.2,0.44-0.44c0-0.24-0.2-0.44-0.44-0.44
	h-1.45C13,14.77,12.8,14.97,12.8,15.21z M10.39,9.71h1.53c0.24,0,0.44-0.2,0.44-0.44c0-0.24-0.2-0.44-0.44-0.44h-1.53
	c-0.24,0-0.44,0.2-0.44,0.44C9.95,9.52,10.15,9.71,10.39,9.71z M13.63,9.71h9.32c0.24,0,0.44-0.2,0.44-0.44
	c0-0.24-0.2-0.44-0.44-0.44h-9.32c-0.24,0-0.44,0.2-0.44,0.44C13.19,9.52,13.39,9.71,13.63,9.71z M21.54,10.78h-3.78
	c-0.24,0-0.44,0.2-0.44,0.44c0,0.24,0.2,0.44,0.44,0.44h3.78c0.24,0,0.44-0.2,0.44-0.44C21.98,10.97,21.78,10.78,21.54,10.78z
	 M16.35,10.78h-1.3c-0.24,0-0.44,0.2-0.44,0.44c0,0.24,0.2,0.44,0.44,0.44h1.3c0.24,0,0.44-0.2,0.44-0.44
	C16.79,10.97,16.59,10.78,16.35,10.78z M10.39,11.66h3.18c0.24,0,0.44-0.2,0.44-0.44c0-0.24-0.2-0.44-0.44-0.44h-3.18
	c-0.24,0-0.44,0.2-0.44,0.44C9.95,11.46,10.15,11.66,10.39,11.66z M9.47,16.62H6.48c-0.24,0-0.44,0.2-0.44,0.44s0.2,0.44,0.44,0.44
	h2.98c0.24,0,0.44-0.2,0.44-0.44S9.71,16.62,9.47,16.62z M5.13,16.62H2.84c-0.24,0-0.44,0.2-0.44,0.44s0.2,0.44,0.44,0.44h2.29
	c0.24,0,0.44-0.2,0.44-0.44S5.37,16.62,5.13,16.62z M14.87,16.62h-3.89c-0.24,0-0.44,0.2-0.44,0.44s0.2,0.44,0.44,0.44h3.89
	c0.24,0,0.44-0.2,0.44-0.44S15.11,16.62,14.87,16.62z M20.14,14.35h-2.13c-0.24,0-0.44,0.2-0.44,0.44c0,0.24,0.2,0.44,0.44,0.44
	h2.13c0.24,0,0.44-0.2,0.44-0.44C20.58,14.54,20.38,14.35,20.14,14.35z M23.83,15.23h3.01c0.24,0,0.44-0.2,0.44-0.44
	c0-0.24-0.2-0.44-0.44-0.44h-3.01c-0.24,0-0.44,0.2-0.44,0.44C23.39,15.03,23.59,15.23,23.83,15.23z M22.33,14.35h-0.69
	c-0.24,0-0.44,0.2-0.44,0.44c0,0.24,0.2,0.44,0.44,0.44h0.69c0.24,0,0.44-0.2,0.44-0.44C22.77,14.54,22.57,14.35,22.33,14.35z
	 M18.01,20.05h2.13c0.24,0,0.44-0.2,0.44-0.44c0-0.24-0.2-0.44-0.44-0.44h-2.13c-0.24,0-0.44,0.2-0.44,0.44
	C17.56,19.86,17.76,20.05,18.01,20.05z M23.83,20.05h3.01c0.24,0,0.44-0.2,0.44-0.44c0-0.24-0.2-0.44-0.44-0.44h-3.01
	c-0.24,0-0.44,0.2-0.44,0.44C23.39,19.86,23.59,20.05,23.83,20.05z M21.64,20.05h0.69c0.24,0,0.44-0.2,0.44-0.44
	c0-0.24-0.2-0.44-0.44-0.44h-0.69c-0.24,0-0.44,0.2-0.44,0.44C21.2,19.86,21.4,20.05,21.64,20.05z M20.14,23.99h-2.13
	c-0.24,0-0.44,0.2-0.44,0.44c0,0.24,0.2,0.44,0.44,0.44h2.13c0.24,0,0.44-0.2,0.44-0.44C20.58,24.19,20.38,23.99,20.14,23.99z
	 M26.84,23.99h-3.01c-0.24,0-0.44,0.2-0.44,0.44c0,0.24,0.2,0.44,0.44,0.44h3.01c0.24,0,0.44-0.2,0.44-0.44
	C27.28,24.19,27.08,23.99,26.84,23.99z M22.33,23.99h-0.69c-0.24,0-0.44,0.2-0.44,0.44c0,0.24,0.2,0.44,0.44,0.44h0.69
	c0.24,0,0.44-0.2,0.44-0.44C22.77,24.19,22.57,23.99,22.33,23.99z M30.42,1.99L30.39,23.4c0,0.92-0.64,1.7-1.51,1.9v0.21
	c0,0.48-0.39,0.87-0.87,0.87h-8.18v0.56h1.34c0.89,0,1.62,0.73,1.62,1.62v0.96c0,0.41-0.33,0.74-0.74,0.74H8.52
	c-0.41,0-0.74-0.33-0.74-0.74v-0.96c0-0.89,0.73-1.62,1.62-1.62h1.34v-1.59H6.48c-0.24,0-0.44-0.2-0.44-0.44
	c0-0.24,0.2-0.44,0.44-0.44h9.48v-1.11c0-0.48,0.39-0.87,0.87-0.87h0.35v-0.76H1.06v1.68c0,0.59,0.48,1.06,1.06,1.06h1.67
	c0.24,0,0.44,0.2,0.44,0.44c0,0.24-0.2,0.44-0.44,0.44H2.13c-1.07,0-1.95-0.87-1.95-1.95V1.99c0-1.07,0.87-1.95,1.95-1.95h26.35
	C29.55,0.04,30.42,0.91,30.42,1.99z M27.99,20.67v-2.12H16.85v2.12H27.99z M26.77,17.67v-0.93h-8.7v0.93H26.77z M18.07,21.56v0.93
	h8.7v-0.93H18.07z M11.62,26.94h7.32v-0.56h-2.1c-0.48,0-0.87-0.39-0.87-0.87v-0.16h-4.34V26.94z M9.4,27.83
	c-0.4,0-0.73,0.33-0.73,0.73v0.81H21.9v-0.81c0-0.4-0.33-0.73-0.73-0.73H9.4z M27.99,23.37H16.85v2.12h11.14V23.37z M29.5,21.73
	h-1.84v0.76h0.35c0.48,0,0.87,0.39,0.87,0.87v1.01c0.37-0.17,0.62-0.54,0.62-0.97V21.73z M29.5,6.06H1.06v14.78h14.92
	c-0.01-0.05-0.01-2.3-0.01-2.3c0-0.48,0.39-0.87,0.87-0.87h0.35v-0.93h-0.35c-0.48,0-0.87-0.39-0.87-0.87v-2.15
	c0-0.48,0.39-0.87,0.87-0.87h5.92c0.24,0,0.44,0.2,0.44,0.44c0,0.24-0.2,0.44-0.44,0.44h-5.9v2.12h11.14v-2.12h-2.49
	c-0.24,0-0.44-0.2-0.44-0.44c0-0.24,0.2-0.44,0.44-0.44h2.5c0.48,0,0.87,0.39,0.87,0.87v2.15c0,0.48-0.39,0.87-0.87,0.87h-0.35v0.93
	h0.35c0.48,0,0.87,0.39,0.87,0.87c0,0-0.01,2.25-0.01,2.3h0.64V6.06z M29.5,1.99c0-0.59-0.48-1.06-1.06-1.06H2.16
	C1.57,0.93,1.1,1.4,1.1,1.99v3.19H29.5V1.99z M4.74,3.04c0,0.72-0.58,1.3-1.3,1.3s-1.3-0.58-1.3-1.3s0.58-1.3,1.3-1.3
	S4.74,2.32,4.74,3.04z M3.86,3.04c0-0.23-0.19-0.41-0.41-0.41c-0.23,0-0.41,0.19-0.41,0.41c0,0.23,0.19,0.41,0.41,0.41
	C3.67,3.45,3.86,3.27,3.86,3.04z M8.05,3.04c0,0.72-0.58,1.3-1.3,1.3s-1.3-0.58-1.3-1.3s0.58-1.3,1.3-1.3
	C7.47,1.74,8.05,2.32,8.05,3.04z M7.16,3.04c0-0.23-0.19-0.41-0.41-0.41c-0.23,0-0.41,0.19-0.41,0.41c0,0.23,0.19,0.41,0.41,0.41
	C6.98,3.45,7.16,3.27,7.16,3.04z M11.36,3.04c0,0.72-0.58,1.3-1.3,1.3s-1.3-0.58-1.3-1.3s0.58-1.3,1.3-1.3S11.36,2.32,11.36,3.04z
	 M10.47,3.04c0-0.23-0.19-0.41-0.41-0.41c-0.23,0-0.41,0.19-0.41,0.41c0,0.23,0.19,0.41,0.41,0.41C10.28,3.45,10.47,3.27,10.47,3.04
	z"/>
</svg>
