<?xml version="1.0" encoding="utf-8"?>
<!-- Generator: Adobe Illustrator 24.1.1, SVG Export Plug-In . SVG Version: 6.00 Build 0)  -->
<svg version="1.1" id="Layer_1" xmlns="http://www.w3.org/2000/svg" xmlns:xlink="http://www.w3.org/1999/xlink" x="0px" y="0px"
	 viewBox="0 0 74.81 66.83" style="enable-background:new 0 0 74.81 66.83;" xml:space="preserve">
<style type="text/css">
	.st0{fill:#00A99D;}
	.st1{fill:#515151;}
</style>
<g>
	<circle class="st0" cx="40.1" cy="10.28" r="2.52"/>
	<circle class="st0" cx="48.8" cy="15.89" r="2.52"/>
	<circle class="st0" cx="54.26" cy="30.18" r="2.52"/>
	<path class="st0" d="M42.99,61.38l-19.42-0.15c-1.11-0.01-2-0.92-1.99-2.02v0c0.01-1.11,0.92-2,2.02-1.99l19.42,0.15
		c1.11,0.01,2,0.92,1.99,2.02v0C45.01,60.49,44.1,61.39,42.99,61.38z"/>
	<path class="st0" d="M42.96,65.4l-19.42-0.15c-1.11-0.01-2-0.92-1.99-2.02v0c0.01-1.11,0.92-2,2.02-1.99l19.42,0.15
		c1.11,0.01,2,0.92,1.99,2.02v0C44.98,64.51,44.07,65.41,42.96,65.4z"/>
	<path class="st0" d="M42.26,34.5l-9.04-0.07l0.12-14.86l9.04,0.07c0.8,0.01,1.44,0.66,1.44,1.46l-0.1,11.96
		C43.72,33.87,43.06,34.51,42.26,34.5z"/>
	
		<rect x="70.06" y="30.48" transform="matrix(7.657106e-03 -1 1 7.657106e-03 39.0356 102.5077)" class="st1" width="2.22" height="2.22"/>
	
		<rect x="70.02" y="34.91" transform="matrix(7.657106e-03 -1 1 7.657106e-03 34.5701 106.8718)" class="st1" width="2.22" height="2.22"/>
	
		<rect x="72.26" y="32.71" transform="matrix(7.657106e-03 -1 1 7.657106e-03 38.9849 106.9225)" class="st1" width="2.22" height="2.22"/>
	
		<rect x="67.82" y="32.68" transform="matrix(7.657106e-03 -1 1 7.657106e-03 34.6208 102.457)" class="st1" width="2.22" height="2.22"/>
	<g>
		<path class="st1" d="M57.69,29.24c-0.46-1.33-1.71-2.22-3.11-2.23c-1.4-0.01-2.66,0.87-3.14,2.19l-6.85-0.05l0.03-4.43l4.43,0.03
			c0.61,0,1.11-0.49,1.12-1.1c0,0,0,0,0,0l0.04-4.64c1.74-0.6,2.66-2.49,2.06-4.23c-0.6-1.74-2.49-2.66-4.23-2.06
			c-1.74,0.6-2.66,2.49-2.06,4.23c0.33,0.95,1.07,1.7,2.01,2.04l-0.03,3.53l-3.32-0.03l0.02-2.22c0-0.61-0.49-1.11-1.1-1.12
			c0,0,0,0,0,0l-2.22-0.02l0.04-5.74c1.74-0.6,2.66-2.49,2.06-4.23c-0.6-1.74-2.49-2.66-4.23-2.06c-1.74,0.6-2.66,2.49-2.06,4.23
			c0.33,0.95,1.07,1.7,2.01,2.04l-0.04,5.74l-4.43-0.03l0.07-9.7l0.06-7.99c0-0.61-0.49-1.11-1.1-1.12c0,0,0,0,0,0
			C20.06,0.19,9.28,10,9.18,22.64c-0.05,6,2.28,13.96,6.06,20.78c0.68,1.22,1.57,2.51,2.51,3.88c1.99,2.88,4.2,6.12,4.42,8.93
			c-0.86,0.6-1.36,1.58-1.35,2.62c0,0.75,0.25,1.48,0.72,2.06c-0.66,0.64-1.03,1.52-1.04,2.45c-0.01,1.83,1.46,3.33,3.3,3.35
			l18.84,0.14c1.85,0,3.35-1.49,3.35-3.34c0-0.01,0-0.02,0-0.04c0.01-0.9-0.36-1.77-1-2.39c0.48-0.6,0.75-1.35,0.75-2.12
			c0.01-1.75-1.4-3.19-3.16-3.2c-0.05,0-0.09,0-0.14,0l-8.03-0.06l0.16-21.09l2.22,0.02l-0.03,3.32c0,0.61,0.49,1.11,1.1,1.12
			c0,0,0,0,0,0l3.32,0.03l-0.01,1.31c-1.74,0.6-2.66,2.49-2.06,4.23s2.49,2.66,4.23,2.06c1.74-0.6,2.66-2.49,2.06-4.23
			c-0.33-0.95-1.07-1.7-2.01-2.04L43.41,38c0-0.61-0.49-1.11-1.1-1.12c0,0,0,0,0,0l-3.32-0.03l0.02-2.22l4.43,0.03
			c0.61,0,1.11-0.49,1.12-1.1c0,0,0,0,0,0l0.02-2.22l6.85,0.05c0.6,1.73,2.49,2.65,4.22,2.04C57.38,32.86,58.3,30.97,57.69,29.24z
			 M49.13,14.78c0.61,0,1.1,0.5,1.1,1.12c0,0.61-0.5,1.1-1.12,1.1c-0.61,0-1.1-0.5-1.1-1.12C48.02,15.26,48.52,14.77,49.13,14.78z
			 M32.29,43.41L32.2,55.68l-7.85-0.06c-0.43-3.27-2.72-6.61-4.77-9.59c-0.91-1.32-1.77-2.56-2.4-3.69
			c-3.55-6.4-5.82-14.13-5.78-19.69C11.48,11.6,20.71,2.95,32.61,2.52l-0.05,6.86c0,0,0.01,6.01-0.01,7.64
			C32.55,17.03,32.18,42.31,32.29,43.41z M32.34,36.74c0,0,0.47,1.74,1.42,7.45l0.49-1.46c0.14-0.43,0.01-0.9-0.33-1.19
			c-0.84-0.72-0.8-3.6-1.17-4.95 M32.48,19.17l-0.12,15.33 M43.77,63.53c-0.01,0.61-0.5,1.1-1.12,1.1l-18.84-0.14
			c-0.62-0.02-1.12-0.53-1.1-1.16c0-0.01,0-0.03,0-0.04c0.01-0.61,0.5-1.1,1.12-1.1l18.84,0.14c0.62,0.02,1.12,0.53,1.1,1.16
			C43.77,63.5,43.77,63.52,43.77,63.53z M42.42,57.98c0.56-0.05,1.05,0.37,1.1,0.93c0,0.04,0,0.07,0,0.11
			c-0.01,0.61-0.5,1.1-1.12,1.1l-18.27-0.14c-0.62-0.02-1.12-0.53-1.1-1.16c0-0.01,0-0.03,0-0.04c0.03-0.55,0.5-0.98,1.05-0.95
			c0.02,0,0.04,0,0.06,0.01L42.42,57.98L42.42,57.98z M42.27,42.43c0.61,0,1.1,0.5,1.1,1.12c0,0.61-0.5,1.1-1.12,1.1
			s-1.1-0.5-1.1-1.12C41.16,42.91,41.66,42.42,42.27,42.43z M40.31,9.17c0.61,0,1.1,0.5,1.1,1.12c0,0.61-0.5,1.1-1.12,1.1
			c-0.61,0-1.1-0.5-1.1-1.12C39.2,9.66,39.7,9.17,40.31,9.17z M42.35,32.45l-7.76-0.06l0.08-11.08l7.76,0.06L42.35,32.45z
			 M54.54,31.44c-0.61,0-1.1-0.5-1.1-1.12c0-0.61,0.5-1.1,1.12-1.1c0.61,0,1.1,0.5,1.1,1.12C55.66,30.95,55.16,31.44,54.54,31.44z
			 M32.34,36.74c0,0,0.26,1.34,1.42,7.45"/>
	</g>
	<g>
		<path class="st1" d="M44.03,51.02c-0.4,0.7-0.75,1.42-1.05,2.16l2.05,0.83c0.27-0.65,0.58-1.29,0.93-1.9L44.03,51.02z"/>
	</g>
	<g>
		<path class="st1" d="M46.55,47.14c-0.44,0.62-0.88,1.25-1.3,1.89l1.85,1.22c0.41-0.62,0.83-1.23,1.26-1.83L46.55,47.14z"/>
	</g>
	<g>
		<path class="st1" d="M49.1,43.47c-0.38,0.59-0.8,1.2-1.24,1.83l1.81,1.28c0.46-0.65,0.9-1.29,1.3-1.91L49.1,43.47z"/>
	</g>
	<g>
		<path class="st1" d="M51.21,39.63c-0.32,0.66-0.66,1.32-1.01,1.96l1.95,1.06c0.37-0.68,0.72-1.36,1.06-2.05L51.21,39.63z"/>
	</g>
	<g>
		<path class="st1" d="M52.97,35.57c-0.26,0.68-0.54,1.37-0.84,2.05l2.03,0.88c0.31-0.71,0.6-1.42,0.87-2.13L52.97,35.57z"/>
	</g>
	<g>
		<path class="st1" d="M57.94,22.79l-2.22,0l0,0.2c0,0.62-0.04,1.27-0.1,1.95l2.21,0.2c0.07-0.74,0.1-1.45,0.11-2.14L57.94,22.79z"
			/>
	</g>
	<g>
		<path class="st1" d="M57.41,18.07l-2.16,0.49c0.16,0.69,0.27,1.4,0.35,2.1l2.2-0.25C57.71,19.62,57.58,18.84,57.41,18.07z"/>
	</g>
	<g>
		<path class="st1" d="M55.85,13.58l-2,0.95c0.31,0.64,0.58,1.3,0.81,1.97l2.09-0.73C56.49,15.03,56.19,14.29,55.85,13.58z"/>
	</g>
	<g>
		<path class="st1" d="M53.34,9.55l-1.75,1.37c0.44,0.56,0.85,1.15,1.23,1.75l1.88-1.17C54.29,10.82,53.83,10.17,53.34,9.55z"/>
	</g>
	<g>
		<path class="st1" d="M50.05,6.14l-1.43,1.7c0.55,0.46,1.07,0.95,1.57,1.46l1.59-1.54C51.23,7.19,50.66,6.65,50.05,6.14z"/>
	</g>
	<g>
		<path class="st1" d="M46.15,3.47l-1.07,1.94c0.63,0.35,1.25,0.73,1.83,1.13l1.25-1.83C47.52,4.27,46.84,3.85,46.15,3.47z"/>
	</g>
	<g>
		<path class="st1" d="M41.82,1.6L41.13,3.7c0.69,0.22,1.37,0.48,2.01,0.76l0.88-2.03C43.32,2.12,42.57,1.84,41.82,1.6z"/>
	</g>
	<g>
		<path class="st1" d="M37.23,0.54l-0.3,2.2c0.71,0.1,1.43,0.23,2.12,0.39l0.5-2.16C38.79,0.79,38.01,0.65,37.23,0.54z"/>
	</g>
	<g>
		
			<rect x="2.24" y="59.86" transform="matrix(7.657106e-03 -1 1 7.657106e-03 -57.6391 63.8472)" class="st1" width="2.22" height="2.22"/>
	</g>
	<g>
		
			<rect x="2.21" y="64.29" transform="matrix(7.657106e-03 -1 1 7.657106e-03 -62.1046 68.2113)" class="st1" width="2.22" height="2.22"/>
	</g>
	<g>
		
			<rect x="4.44" y="62.09" transform="matrix(7.657106e-03 -1 1 7.657106e-03 -57.6898 68.262)" class="st1" width="2.22" height="2.22"/>
	</g>
	<g>
		
			<rect x="0.01" y="62.06" transform="matrix(7.657106e-03 -1 1 7.657106e-03 -62.0539 63.7965)" class="st1" width="2.22" height="2.22"/>
	</g>
	<g>
		
			<rect x="63.64" y="0.49" transform="matrix(7.657106e-03 -1 1 7.657106e-03 62.6513 66.3327)" class="st1" width="2.22" height="2.22"/>
	</g>
	<g>
		
			<rect x="63.6" y="4.92" transform="matrix(7.657106e-03 -1 1 7.657106e-03 58.1858 70.6968)" class="st1" width="2.22" height="2.22"/>
	</g>
	<g>
		
			<rect x="65.84" y="2.72" transform="matrix(7.657106e-03 -1 1 7.657106e-03 62.6006 70.7475)" class="st1" width="2.22" height="2.22"/>
	</g>
	<g>
		
			<rect x="61.41" y="2.69" transform="matrix(7.657106e-03 -1 1 7.657106e-03 58.2365 66.282)" class="st1" width="2.22" height="2.22"/>
	</g>
	<line class="st1" x1="32.55" y1="9.39" x2="34.77" y2="9.4"/>
</g>
</svg>
