<?xml version="1.0" encoding="utf-8"?>
<!-- Generator: Adobe Illustrator 24.1.1, SVG Export Plug-In . SVG Version: 6.00 Build 0)  -->
<svg version="1.1" id="Layer_1" xmlns="http://www.w3.org/2000/svg" xmlns:xlink="http://www.w3.org/1999/xlink" x="0px" y="0px"
	 viewBox="0 0 30.71 30.21" style="enable-background:new 0 0 30.71 30.21;" xml:space="preserve">
<style type="text/css">
	.st0{fill:#00A99D;}
	.st1{fill:#FFFFFF;}
</style>
<rect x="5.28" y="26.01" class="st0" width="19.2" height="3.91"/>
<polygon class="st0" points="27.19,21.3 26.21,19.78 24.17,19.78 23.52,21.3 21.07,21.3 20.64,22.66 21.45,24.3 21.07,25.69 
	20.8,26.61 21.65,28.02 23.27,28.02 24.17,29.2 24.67,29.57 26.42,29.57 27.42,27.99 29.45,27.88 30.24,26.18 29.21,24.67 
	30.24,23.16 29.31,21.5 "/>
<rect x="16.48" y="5.03" class="st0" width="6.52" height="6.19"/>
<rect x="7.31" y="5.03" class="st0" width="6.52" height="6.19"/>
<rect x="0.77" y="14.02" class="st0" width="6.52" height="6.19"/>
<g id="outline_3_">
	<path class="st1" d="M17.12,27.19h-3.52c-0.28,0-0.5,0.23-0.5,0.5s0.23,0.5,0.5,0.5h3.52c0.28,0,0.5-0.23,0.5-0.5
		S17.4,27.19,17.12,27.19z"/>
	<path class="st1" d="M7.73,12.08h5.68c0.66,0,1.19-0.53,1.19-1.19V5.22c0-0.66-0.53-1.19-1.19-1.19H7.73
		c-0.66,0-1.19,0.53-1.19,1.19v5.68C6.55,11.55,7.08,12.08,7.73,12.08z M7.55,5.22c0-0.1,0.08-0.18,0.18-0.18h5.68
		c0.1,0,0.18,0.08,0.18,0.18v5.68c0,0.1-0.08,0.18-0.18,0.18H7.73c-0.1,0-0.18-0.08-0.18-0.18V5.22z"/>
	<path class="st1" d="M16.15,19.32l0.93-0.37l-0.9-2.25l1.34-1.79l-0.81-0.6l-1.51,2.01c-0.11,0.14-0.13,0.33-0.06,0.49L16.15,19.32
		z"/>
	<path class="st1" d="M20.68,18.95l0.93,0.37l1.01-2.52c0.07-0.16,0.04-0.35-0.06-0.49l-1.51-2.01l-0.81,0.6l1.34,1.79L20.68,18.95z
		"/>
	
		<rect x="16.96" y="16.36" transform="matrix(0.3939 -0.9191 0.9191 0.3939 -4.0599 27.577)" class="st1" width="3.83" height="1.01"/>
	<path class="st1" d="M9.32,10c0.16,0.09,0.35,0.09,0.51-0.01l2.52-1.51c0.24-0.14,0.32-0.45,0.17-0.69
		c-0.04-0.07-0.1-0.13-0.17-0.17L9.83,6.11C9.59,5.97,9.28,6.05,9.13,6.29C9.09,6.36,9.06,6.45,9.06,6.55v3.02
		C9.06,9.75,9.16,9.92,9.32,10z M10.07,7.43l1.04,0.62l-1.04,0.62V7.43z"/>
	<path class="st1" d="M19.64,6.04c-1.11,0-2.01,0.9-2.01,2.01s0.9,2.01,2.01,2.01c1.11,0,2.01-0.9,2.01-2.01
		C21.65,6.94,20.75,6.04,19.64,6.04z M19.64,9.06c-0.56,0-1.01-0.45-1.01-1.01s0.45-1.01,1.01-1.01c0.56,0,1.01,0.45,1.01,1.01
		C20.64,8.61,20.19,9.06,19.64,9.06z"/>
	<path class="st1" d="M11.58,15.1c-0.23,0-0.46,0.04-0.67,0.11l0.34,0.95c0.52-0.18,1.1,0.09,1.28,0.62s-0.09,1.1-0.62,1.28
		c-0.22,0.08-0.45,0.08-0.67,0l-0.34,0.95c1.05,0.37,2.2-0.18,2.57-1.23c0.37-1.05-0.18-2.2-1.23-2.57
		C12.03,15.14,11.81,15.1,11.58,15.1z"/>
	<path class="st1" d="M5.54,15.1H2.52c-0.28,0-0.5,0.23-0.5,0.5v3.02c0,0.28,0.23,0.5,0.5,0.5h3.02c0.28,0,0.5-0.23,0.5-0.5v-3.02
		C6.04,15.33,5.82,15.1,5.54,15.1z M5.03,18.13H3.02v-2.01h2.01V18.13z"/>
	<path class="st1" d="M30.65,22.77l-1.01-1.74c-0.1-0.17-0.28-0.26-0.47-0.25l-1.64,0.1l-0.73-1.47c-0.09-0.17-0.26-0.28-0.45-0.28
		h-0.67v-9.06h0.59c0.28,0.79,1.14,1.2,1.93,0.92c0.43-0.15,0.77-0.49,0.92-0.92h1.09V9.06h-1.09c-0.28-0.79-1.14-1.2-1.93-0.92
		c-0.43,0.15-0.77,0.49-0.92,0.92h-0.59v-1.6c0.79,0.28,1.65-0.13,1.93-0.92c0,0,0,0,0,0h2.6V5.54h-2.6
		c-0.28-0.79-1.14-1.2-1.93-0.92c0,0,0,0,0,0V1.51C25.68,0.68,25,0,24.17,0H6.04C5.21,0,4.53,0.68,4.53,1.51v11.58H1.19
		C0.53,13.09,0,13.62,0,14.28v5.68c0,0.66,0.53,1.19,1.19,1.19h3.34v7.55c0,0.83,0.68,1.51,1.51,1.51h20.31
		c0.19,0,0.37-0.11,0.45-0.28l0.73-1.47l1.64,0.1c0.19,0.01,0.37-0.09,0.47-0.25l1.01-1.74c0.1-0.17,0.09-0.37-0.02-0.53l-0.9-1.37
		l0.9-1.37C30.73,23.14,30.74,22.94,30.65,22.77z M27.69,9.06c0.28,0,0.5,0.23,0.5,0.5c0,0.28-0.23,0.5-0.5,0.5s-0.5-0.23-0.5-0.5
		C27.19,9.29,27.41,9.06,27.69,9.06z M26.18,5.54c0.28,0,0.5,0.23,0.5,0.5s-0.23,0.5-0.5,0.5c-0.28,0-0.5-0.23-0.5-0.5
		C25.68,5.76,25.9,5.54,26.18,5.54z M5.54,1.51c0-0.28,0.23-0.5,0.5-0.5h18.13c0.28,0,0.5,0.23,0.5,0.5v0.5H5.54V1.51z M5.54,3.02
		h19.13v2.52h-1.01V5.22c0-0.66-0.53-1.19-1.19-1.19H16.8c-0.66,0-1.19,0.53-1.19,1.19v5.68c0,0.66,0.53,1.19,1.19,1.19h5.68
		c0.66,0,1.19-0.53,1.19-1.19v-0.83h1.01v9.06h-0.33c-0.19,0-0.37,0.11-0.45,0.28l-0.73,1.47l-1.64-0.1
		c-0.19-0.01-0.37,0.09-0.47,0.25l-0.94,1.63h-1.99v1.01h2.17l0.66,1.01l-0.33,0.5H5.54v-4.03h1.33c0.66,0,1.19-0.53,1.19-1.19
		v-2.34h1.81l-0.65,0.65l0.71,0.71l1.51-1.51c0.2-0.2,0.2-0.52,0-0.71c0,0,0,0,0,0l-1.51-1.51l-0.71,0.71l0.65,0.65H8.06v-2.34
		c0-0.66-0.53-1.19-1.19-1.19H5.54V3.02z M24.67,6.55v2.52h-1.01V6.55H24.67z M22.66,5.22v5.68c0,0.1-0.08,0.18-0.18,0.18H16.8
		c-0.1,0-0.18-0.08-0.18-0.18V5.22c0-0.1,0.08-0.18,0.18-0.18h5.68C22.58,5.04,22.66,5.12,22.66,5.22z M1.19,20.14
		c-0.1,0-0.18-0.08-0.18-0.18v-5.68c0-0.1,0.08-0.18,0.18-0.18h5.68c0.1,0,0.18,0.08,0.18,0.18v5.68c0,0.1-0.08,0.18-0.18,0.18H1.19
		z M6.04,29.2c-0.28,0-0.5-0.23-0.5-0.5v-2.52H20c-0.04,0.13-0.02,0.27,0.05,0.39l1.01,1.74c0.1,0.17,0.28,0.26,0.47,0.25l1.64-0.1
		l0.37,0.74H6.04z M28.7,24.95l0.91,1.39l-0.7,1.21l-1.66-0.1c-0.2-0.01-0.39,0.1-0.48,0.28l-0.74,1.49h-1.39l-0.74-1.49
		c-0.09-0.18-0.28-0.29-0.48-0.28l-1.66,0.1l-0.7-1.21l0.91-1.39c0.11-0.17,0.11-0.39,0-0.55l-0.91-1.39l0.7-1.21l1.66,0.1
		c0.2,0.01,0.39-0.1,0.48-0.28l0.74-1.49h1.39l0.74,1.49c0.09,0.18,0.28,0.29,0.48,0.28l1.66-0.1l0.7,1.21l-0.91,1.39
		C28.6,24.56,28.61,24.78,28.7,24.95z"/>
	<path class="st1" d="M25.35,22.59c-1.15,0-2.08,0.93-2.08,2.08s0.93,2.08,2.08,2.08c1.15,0,2.08-0.93,2.08-2.08l0,0
		C27.42,23.52,26.49,22.6,25.35,22.59z M24.67,25.17H24.4c-0.24-0.45-0.13-1.01,0.27-1.33V25.17z M25.68,25.69v-2.03
		c0.56,0.18,0.87,0.79,0.68,1.35C26.26,25.33,26,25.58,25.68,25.69z"/>
	<rect x="14.1" y="20.64" class="st1" width="1.01" height="1.01"/>
	<rect x="16.11" y="20.64" class="st1" width="2.01" height="1.01"/>
	<rect x="14.1" y="22.66" class="st1" width="3.02" height="1.01"/>
	<rect x="19.13" y="20.64" class="st1" width="1.51" height="1.01"/>
</g>
</svg>
