<?xml version="1.0" encoding="utf-8"?>
<!-- Generator: Adobe Illustrator 24.1.1, SVG Export Plug-In . SVG Version: 6.00 Build 0)  -->
<svg version="1.1" id="Layer_1" xmlns="http://www.w3.org/2000/svg" xmlns:xlink="http://www.w3.org/1999/xlink" x="0px" y="0px"
	 viewBox="0 0 62.31 62.26" style="enable-background:new 0 0 62.31 62.26;" xml:space="preserve">
<style type="text/css">
	.st0{fill:#00A99D;}
	.st1{fill:#515151;}
</style>
<g>
	
		<rect x="5.91" y="45.89" transform="matrix(1 7.657106e-03 -7.657106e-03 1 0.3627 -0.055)" class="st0" width="2.9" height="2.9"/>
	
		<rect x="9.75" y="45.89" transform="matrix(1 7.657106e-03 -7.657106e-03 1 0.3628 -0.0843)" class="st0" width="2.9" height="2.9"/>
	
		<rect x="5.73" y="49.78" transform="matrix(1 7.657106e-03 -7.657106e-03 1 0.3925 -0.0535)" class="st0" width="2.9" height="2.9"/>
	
		<rect x="9.66" y="49.81" transform="matrix(1 7.657106e-03 -7.657106e-03 1 0.3928 -0.0836)" class="st0" width="2.9" height="2.9"/>
	
		<rect x="5.73" y="53.74" transform="matrix(1 7.657106e-03 -7.657106e-03 1 0.4228 -0.0533)" class="st0" width="2.9" height="2.9"/>
	
		<rect x="10.12" y="53.58" transform="matrix(1 7.657106e-03 -7.657106e-03 1 0.4217 -0.0869)" class="st0" width="2.9" height="2.9"/>
	<polygon class="st0" points="59.58,55.36 47.36,55.48 47.43,47.05 57.91,43.95 	"/>
	
		<rect x="25.56" y="5.03" transform="matrix(1 7.657106e-03 -7.657106e-03 1 0.0572 -0.2951)" class="st0" width="26.03" height="4.58"/>
	<circle class="st0" cx="11.34" cy="25.64" r="9.77"/>
	
		<rect x="13.8" y="45.81" transform="matrix(1 7.657106e-03 -7.657106e-03 1 0.3623 -0.1154)" class="st0" width="2.9" height="2.9"/>
	<path class="st1" d="M55.77,29.97l-0.17-0.32l5.35-5.27c0.86-0.85,1.34-1.98,1.35-3.19c0.02-2.5-2-4.55-4.5-4.56
		c-0.51,0-1,0.09-1.46,0.25l0.1-13.24c0.01-1.65-1.32-3.01-2.97-3.02L22.35,0.38c-0.8-0.01-1.56,0.3-2.13,0.86l-8.88,8.75
		c-0.57,0.56-0.89,1.31-0.89,2.11l-0.02,2.22C4.83,14.78,0.4,19.46,0.35,25.18L0.11,57.14c-0.02,2.75,2.2,5.01,4.96,5.03l11.98,0.09
		c2.75,0.02,5.01-2.2,5.03-4.96l0.01-1l23.97,0.18l1,0.01l14.16,0.11l-2.08-13.1C59.16,38.8,58,34.12,55.77,29.97z M57.12,42.83
		l-9.76,2.58l-2.33-1.9c-1.18-0.96-1.86-2.39-1.84-3.91l0.06-8.11l0.01-1c1.1,0.01,1.99,0.91,1.98,2.01l-0.05,6.99l2,0.02l0.01-1.58
		l6.92-6.81C56.01,34.73,57.04,38.76,57.12,42.83z M43.28,28.5c-1.1-0.01-2,0.88-2.01,1.98l-0.01,1c0,0.55-0.46,1-1.01,0.99
		c-0.55,0-1-0.46-0.99-1.01l0.01-1c0.02-2.2,1.82-3.98,4.03-3.96l2.58,0.02l-2.07,2.04C43.63,28.54,43.46,28.5,43.28,28.5
		L43.28,28.5z M32.21,45.47l1.34-3.28l2.83,2.87l-3.3,1.29c-0.42,0.17-0.92-0.18-0.92-0.64C32.16,45.63,32.17,45.55,32.21,45.47z
		 M38.16,44.03l-3.55-3.61l6.09-5.99c0.19-0.03,0.37-0.07,0.54-0.13l-0.04,5.29c0,0.45,0.05,0.9,0.13,1.33L38.16,44.03z
		 M37.44,32.45l-11.17-0.09l0.03-3.99l11.34,0.09c-0.23,0.62-0.36,1.29-0.36,1.99l-0.01,1C37.26,31.8,37.33,32.14,37.44,32.45z
		 M26.25,34.37l11.57,0.09l-4.03,3.96l-7.58-0.06L26.25,34.37z M26.21,40.36l5.92,0.05l-1.63,3.98l-4.32-0.03L26.21,40.36z
		 M26.16,46.35l4.09,0.03c0.29,1.15,1.32,2.01,2.56,2.02c0.34,0,0.68-0.06,0.99-0.18l2.33-0.91l-0.02,3.12l-9.99-0.08L26.16,46.35z
		 M38.14,46.52l0.56-0.22l3.35-3.3c0.04,0.07,0.07,0.13,0.11,0.2l-0.06,7.27l-3.99-0.03L38.14,46.52z M44.14,45.37l1.99,1.61
		L46.1,50.5l-2-0.02L44.14,45.37z M60.31,21.18c-0.01,0.68-0.27,1.31-0.76,1.78L47.22,35.11l0.02-2.58c0.01-1.25-0.57-2.36-1.47-3.1
		L56,19.35c0.48-0.47,1.12-0.73,1.8-0.73C59.19,18.64,60.32,19.78,60.31,21.18L60.31,21.18z M20.49,3.77l-0.04,5.58
		c0,0.55-0.46,1-1.01,0.99l-5.58-0.04L20.49,3.77z M11.41,16.27c4.96,0.04,8.96,4.1,8.92,9.06c-0.04,4.96-4.1,8.96-9.06,8.92
		c-4.96-0.04-8.96-4.1-8.92-9.06C2.39,20.24,6.45,16.24,11.41,16.27L11.41,16.27z M6.27,35c1.49,0.78,3.19,1.24,4.98,1.25
		c1.8,0.01,3.5-0.42,5-1.17l-0.04,5.21L6.23,40.2L6.27,35z M17.06,60.26L5.08,60.17c-1.65-0.01-2.99-1.37-2.97-3.02l0.2-25.66
		c0.56,0.81,1.23,1.55,1.98,2.19l-0.05,6.51c-0.01,1.1,0.88,2,1.98,2.01l9.99,0.08c1.1,0.01,2-0.88,2.01-1.98l0.05-6.51
		c0.76-0.62,1.44-1.35,2.01-2.16l-0.2,25.66C20.07,58.94,18.72,60.28,17.06,60.26z M22.1,54.31l0.22-28.96
		c0.04-5.72-4.32-10.46-9.9-11.01l0.02-2.05l6.99,0.05c1.65,0.01,3.01-1.32,3.02-2.97l0.05-6.99l30.96,0.24c0.55,0,1,0.46,0.99,1.01
		l-0.11,14.57l-6.45,6.36l-4.58-0.04c-1.77-0.01-3.36,0.75-4.47,1.96l-14.52-0.11l-0.2,25.97l21.97,0.17l-0.02,2L22.1,54.31z
		 M48.07,54.51l0.06-7.23l9.2-2.43l1.55,9.74L48.07,54.51z"/>
	<path class="st1" d="M10.3,30.1l-0.02,2.14l2,0.02l0.02-2.14c1.16-0.36,2.01-1.42,2.02-2.69c0.01-1.09-0.59-2.07-1.56-2.56
		l-1.94-0.99c-0.29-0.15-0.47-0.44-0.47-0.77c0-0.47,0.39-0.85,0.86-0.85l0.29,0c0.47,0,0.85,0.39,0.85,0.86l-0.01,1.14l2,0.02
		l0.01-1.14c0.01-1.27-0.83-2.35-1.98-2.72l0.02-2.14l-2-0.02l-0.02,2.14c-1.16,0.36-2.01,1.42-2.02,2.69
		c-0.01,1.09,0.59,2.07,1.56,2.56l1.94,0.99c0.29,0.15,0.47,0.44,0.47,0.77c0,0.47-0.39,0.85-0.86,0.85l-0.29,0
		c-0.47,0-0.85-0.39-0.85-0.86l0.01-1.14l-2-0.02l-0.01,1.14C8.32,28.65,9.15,29.73,10.3,30.1z"/>
	<path class="st1" d="M16.19,44.28L6.2,44.2c-1.1-0.01-2,0.88-2.01,1.98l-0.08,9.99c-0.01,1.1,0.88,2,1.98,2.01l9.99,0.08
		c1.1,0.01,2-0.88,2.01-1.98l0.08-9.99C18.18,45.19,17.29,44.28,16.19,44.28z M16.16,48.27l-2-0.02l0.02-2l2,0.02L16.16,48.27z
		 M12.1,56.23l-2-0.02l0.02-2l2,0.02L12.1,56.23z M12.13,52.23l-2-0.02l0.02-2l2,0.02L12.13,52.23z M8.14,52.2l-2-0.02l0.02-2
		l2,0.02L8.14,52.2z M10.17,48.22l0.02-2l2,0.02l-0.02,2L10.17,48.22z M8.18,46.21l-0.02,2l-2-0.02l0.02-2L8.18,46.21z M6.12,54.19
		l2,0.02l-0.02,2l-2-0.02L6.12,54.19z M14.1,56.24l0.05-5.99l2,0.02l-0.04,5.99L14.1,56.24z"/>
	<path class="st1" d="M52.45,4.6L24.48,4.39l-0.05,5.99L52.4,10.6L52.45,4.6z M50.42,8.58L26.45,8.4l0.02-2l23.97,0.18L50.42,8.58z"
		/>
	<path class="st1" d="M24.42,12.38l27.96,0.21l-0.02,2l-27.96-0.21L24.42,12.38z"/>
	<path class="st1" d="M24.39,16.37l27.96,0.21l-0.02,2l-27.96-0.21L24.39,16.37z"/>
	<path class="st1" d="M24.36,20.37l15.98,0.12l-0.02,2l-15.98-0.12L24.36,20.37z"/>
</g>
</svg>
