<?xml version="1.0" encoding="utf-8"?>
<!-- Generator: Adobe Illustrator 24.1.1, SVG Export Plug-In . SVG Version: 6.00 Build 0)  -->
<svg version="1.1" id="Layer_1" xmlns="http://www.w3.org/2000/svg" xmlns:xlink="http://www.w3.org/1999/xlink" x="0px" y="0px"
	 viewBox="0 0 63.64 62.18" style="enable-background:new 0 0 63.64 62.18;" xml:space="preserve">
<style type="text/css">
	.st0{fill:#00A99D;}
	.st1{fill:#515151;}
</style>
<g>
	<polygon class="st0" points="59.93,11.04 55.41,11.19 50.88,11.34 53.01,7.35 55.14,3.36 57.54,7.2 	"/>
	<polygon class="st0" points="13.12,11.04 8.59,11.19 4.07,11.34 6.2,7.35 8.33,3.36 10.72,7.2 	"/>
	<circle class="st0" cx="55.05" cy="54.06" r="6.83"/>
	<circle class="st0" cx="8.59" cy="54.06" r="6.83"/>
	<circle class="st0" cx="31.95" cy="30.7" r="13.62"/>
	<path class="st1" d="M31.95,16.49c-7.84,0-14.22,6.38-14.22,14.22s6.38,14.22,14.22,14.22s14.22-6.38,14.22-14.22
		S39.79,16.49,31.95,16.49z M44.08,31.72c-0.22,2.6-1.24,4.96-2.84,6.84l-1.4-1.4l-1.44,1.44l1.4,1.4
		c-1.88,1.59-4.25,2.62-6.84,2.84v-1.98h-2.03v1.98c-2.6-0.22-4.96-1.24-6.84-2.84l1.4-1.4l-1.44-1.44l-1.4,1.4
		c-1.59-1.88-2.62-4.25-2.84-6.84h1.98v-2.03h-1.98c0.22-2.6,1.24-4.96,2.84-6.84l1.4,1.4l1.44-1.44l-1.4-1.4
		c1.88-1.59,4.25-2.62,6.84-2.84v1.98h2.03v-1.98c2.6,0.22,4.96,1.24,6.84,2.84l-1.4,1.4l1.44,1.44l1.4-1.4
		c1.59,1.88,2.62,4.25,2.84,6.84H42.1v2.03L44.08,31.72L44.08,31.72z"/>
	<path class="st1" d="M31.95,27.66c-0.47,0-0.91,0.11-1.3,0.31l-3.05-3.05l-1.44,1.44l3.05,3.05c-0.19,0.4-0.31,0.84-0.31,1.3
		c0,1.32,0.85,2.44,2.03,2.86v2.22h2.03v-2.22c1.18-0.42,2.03-1.54,2.03-2.86C34.99,29.02,33.63,27.66,31.95,27.66z M31.95,31.72
		c-0.56,0-1.02-0.46-1.02-1.02c0-0.56,0.46-1.02,1.02-1.02c0.56,0,1.02,0.46,1.02,1.02C32.96,31.26,32.51,31.72,31.95,31.72z"/>
	<path class="st1" d="M47.73,39.89c0.83-1.42,1.46-2.94,1.88-4.53l2.65-0.88v-7.56l-2.65-0.88c-0.42-1.59-1.05-3.1-1.88-4.53
		l1.25-2.5l-5.34-5.34l-2.5,1.25c-1.42-0.83-2.94-1.46-4.53-1.88l-0.88-2.65h-7.56l-0.88,2.65c-1.59,0.42-3.1,1.05-4.53,1.88
		l-2.5-1.25l-5.34,5.34l1.25,2.5c-0.83,1.42-1.46,2.94-1.88,4.53l-2.65,0.88v7.56l2.65,0.88c0.42,1.59,1.05,3.1,1.88,4.53l-1.25,2.5
		l5.34,5.34l2.5-1.25c1.42,0.83,2.94,1.46,4.53,1.88l0.88,2.65h7.56l0.88-2.65c1.59-0.42,3.1-1.05,4.53-1.88l2.5,1.25l5.34-5.34
		L47.73,39.89z M43.23,45.26l-2.2-1.1l-0.48,0.3c-1.54,0.96-3.2,1.66-4.96,2.06l-0.56,0.13l-0.78,2.33h-4.63l-0.78-2.33l-0.56-0.13
		c-1.75-0.4-3.42-1.09-4.96-2.06l-0.48-0.3l-2.2,1.1l-3.27-3.27l1.1-2.2l-0.3-0.48c-0.96-1.54-1.66-3.2-2.06-4.96L16,33.8
		l-2.33-0.78v-4.63L16,27.61l0.13-0.56c0.4-1.75,1.09-3.42,2.06-4.96l0.3-0.48l-1.1-2.2l3.27-3.27l2.2,1.1l0.48-0.3
		c1.54-0.96,3.2-1.66,4.96-2.06l0.56-0.13l0.78-2.33h4.63l0.78,2.33l0.56,0.13c1.75,0.4,3.42,1.09,4.96,2.06l0.48,0.3l2.2-1.1
		l3.27,3.27l-1.1,2.2l0.3,0.48c0.96,1.54,1.66,3.2,2.06,4.96l0.13,0.56l2.33,0.78v4.63L47.9,33.8l-0.13,0.56
		c-0.4,1.75-1.09,3.42-2.06,4.96l-0.3,0.48l1.1,2.2L43.23,45.26z"/>
	<path class="st1" d="M8.59,45.94c-4.48,0-8.12,3.64-8.12,8.12s3.64,8.12,8.12,8.12s8.12-3.64,8.12-8.12S13.07,45.94,8.59,45.94z
		 M8.59,60.15c-3.36,0-6.09-2.73-6.09-6.09c0-3.36,2.73-6.09,6.09-6.09s6.09,2.73,6.09,6.09C14.69,57.42,11.95,60.15,8.59,60.15z"/>
	<path class="st1" d="M13.37,51.01l-1.44-1.44l-5.37,5.37l-1.31-1.31l-1.44,1.44l2.75,2.75L13.37,51.01z"/>
	<path class="st1" d="M7.58,37.81h2.03v2.03H7.58V37.81z"/>
	<path class="st1" d="M7.58,41.87h2.03v2.03H7.58V41.87z"/>
	<path class="st1" d="M7.58,35.78h2.03V12.43h5.79L8.59,0.18l-6.8,12.24h5.79V35.78z M8.59,4.36l3.35,6.03h-6.7L8.59,4.36z"/>
	<path class="st1" d="M55.05,45.94c-4.48,0-8.12,3.64-8.12,8.12s3.64,8.12,8.12,8.12s8.12-3.64,8.12-8.12S59.53,45.94,55.05,45.94z
		 M55.05,60.15c-3.36,0-6.09-2.73-6.09-6.09c0-3.36,2.73-6.09,6.09-6.09c3.36,0,6.09,2.73,6.09,6.09
		C61.14,57.42,58.41,60.15,55.05,60.15z"/>
	<path class="st1" d="M59.83,51.01l-1.44-1.44l-5.37,5.37l-1.31-1.31l-1.44,1.44l2.75,2.75L59.83,51.01z"/>
	<path class="st1" d="M54.03,37.81h2.03v2.03h-2.03V37.81z"/>
	<path class="st1" d="M54.03,41.87h2.03v2.03h-2.03V41.87z"/>
	<path class="st1" d="M54.03,35.78h2.03V12.43h5.79l-6.8-12.24l-6.8,12.24h5.79V35.78z M55.05,4.36l3.35,6.03h-6.7L55.05,4.36z"/>
</g>
</svg>
