<?xml version="1.0" encoding="utf-8"?>
<!-- Generator: Adobe Illustrator 24.1.1, SVG Export Plug-In . SVG Version: 6.00 Build 0)  -->
<svg version="1.1" id="Layer_1" xmlns="http://www.w3.org/2000/svg" xmlns:xlink="http://www.w3.org/1999/xlink" x="0px" y="0px"
	 viewBox="0 0 63.64 63.74" style="enable-background:new 0 0 63.64 63.74;" xml:space="preserve">
<style type="text/css">
	.st0{fill:#00A99D;}
	.st1{fill:#515151;}
</style>
<g>
	<path class="st0" d="M3.73,62.43l57.71,0.44c0.73,0.01,1.33-0.59,1.34-1.32l0.02-2.21L2.34,58.88l-0.02,2.12
		C2.31,61.78,2.95,62.43,3.73,62.43z"/>
	<path class="st0" d="M15.14,47.62c0,0-0.59-5.8,1.32-7.23s10.08-4.91,10.1-7.37c0.02-2.46-3.04-7.35-3.08-9.69
		c-0.05-2.34,0.29-13.58,0.61-14.08c0.32-0.5,0.73-3.85,8.15-3.6c3.05,0.1,4.97,0.95,6.19,1.91c1.27,1.01,2,2.56,2.07,4.19
		c0.14,3.16,0.47,11.63,0.16,12.34c-0.39,0.88-3.26,5.15-3.2,6.03c0.06,0.88-0.25,2.97,0.99,4.11c1.24,1.15,8.53,4.74,9.34,7.08
		c0.8,2.34,0.9,6.56,0.9,6.56L15.14,47.62z"/>
	<path class="st1" d="M63.63,58.46c0-0.12-0.03-0.25-0.07-0.36c-0.01-0.02-0.02-0.03-0.03-0.05c-0.03-0.07-0.07-0.14-0.11-0.2
		l-7.09-9.26l0.23-30.21c0.01-1.75-1.39-3.17-3.14-3.19l-7.38-0.06l0.01-1.05c0.19-7.42-5.67-13.6-13.09-13.81l-1.01-0.01
		c-7.43,0.09-13.38,6.18-13.3,13.6l-0.01,1.05l-7.38-0.06C9.51,14.85,8.08,16.26,8.07,18L7.84,48.22l-7.23,9.15
		c-0.05,0.06-0.08,0.13-0.12,0.2c-0.01,0.02-0.02,0.03-0.03,0.05c-0.05,0.11-0.07,0.24-0.08,0.36c0,0.01-0.01,0.03-0.01,0.04
		l-0.02,2.11c-0.01,1.75,1.39,3.17,3.14,3.19l56.93,0.44c1.75,0.01,3.17-1.39,3.19-3.14l0.02-2.11
		C63.64,58.48,63.63,58.47,63.63,58.46z M46.01,20.4l0.02-3.16l7.38,0.06c0.58,0,1.05,0.48,1.05,1.06l-0.23,29.52l-4.22-0.03
		l0.03-3.46c0.05-2.76-1.45-5.31-3.88-6.62l-6.58-3.84c-0.6-0.33-0.97-0.96-0.95-1.65l0.01-1.82c1.43-1.92,2.48-4.11,3.09-6.43
		c0.02-0.08,0.03-0.15,0.03-0.23l0.01-1.32l2.11,0.02C45.05,22.5,46,21.57,46.01,20.4z M27.56,29.19c-0.36-0.5-0.69-1.02-1-1.55
		l1.52,0.01c0.24,1.23,1.31,2.12,2.57,2.13l2.11,0.02c1.46,0.01,2.64-1.16,2.66-2.62l0.01-1.05c0.01-1.46-1.16-2.64-2.62-2.66
		l-2.11-0.02c-1.25-0.01-2.34,0.86-2.6,2.09l-2.57-0.02c-0.26-0.64-0.47-1.3-0.63-1.97l0.08-10.95c0-0.04,0-0.09-0.01-0.13
		c-0.09-1.39,0.36-2.76,1.25-3.83c1.23-1.38,3.31-2.06,6.18-2.04c2.86,0.02,4.92,0.73,6.13,2.12c0.89,1.08,1.32,2.47,1.21,3.87
		c-0.01,0.04-0.01,0.09-0.01,0.13l-0.08,10.95c-0.56,2.02-1.49,3.92-2.75,5.6c-0.24,0.32-0.37,0.7-0.37,1.1l-0.01,1.9
		c-0.03,1.46,0.76,2.81,2.04,3.51l6.58,3.84c1.74,0.95,2.81,2.78,2.79,4.76l-0.03,3.46l-31.63-0.24l0.03-3.62
		c0-1.92,1.03-3.69,2.7-4.63l6.86-3.8c1.25-0.69,2.02-2.01,2.03-3.44l0.01-1.82C27.92,29.89,27.79,29.51,27.56,29.19z M30.14,27.14
		l0.01-1.05c0-0.29,0.24-0.52,0.53-0.52l2.11,0.02c0.29,0,0.52,0.24,0.52,0.53l-0.01,1.05c0,0.29-0.24,0.52-0.53,0.52l-2.11-0.02
		C30.37,27.66,30.14,27.43,30.14,27.14z M43.9,20.39l-2.11-0.02l0.04-5.27l2.11,0.02L43.9,20.39L43.9,20.39z M31.93,2.37l1.01,0.01
		c5.85,0.17,10.61,4.78,10.96,10.63l-2.06-0.02l0-0.21c0.17-1.96-0.44-3.92-1.7-5.43c-1.62-1.87-4.22-2.84-7.73-2.86
		c-3.5-0.03-6.12,0.9-7.77,2.75c-1.28,1.5-1.92,3.44-1.78,5.41l0,0.21l-2.06-0.02C21.25,6.99,26.08,2.45,31.93,2.37z M20.75,14.94
		l2.11,0.02l-0.04,5.27l-2.11-0.02L20.75,14.94z M20.68,23.9l0.01-1.58l2.11,0.02l-0.01,1.32c0,0.08,0.01,0.15,0.02,0.23
		c0.12,0.55,0.28,1.09,0.47,1.62l-1.23-0.01C21.23,25.43,20.62,24.72,20.68,23.9z M10.18,18.02c0-0.58,0.48-1.05,1.06-1.05
		l7.38,0.06l-0.05,6.85c-0.07,1.98,1.48,3.64,3.46,3.72l2.14,0.02c0.47,0.95,1.02,1.87,1.63,2.74l-0.01,1.74
		c0,0.66-0.35,1.28-0.93,1.61l-6.87,3.8c-2.34,1.31-3.79,3.78-3.79,6.46l-0.03,3.62l-4.22-0.03L10.18,18.02z M9.4,49.65l45.36,0.35
		l5.68,7.42L3.6,56.98L9.4,49.65z M61.52,60.59c0,0.58-0.48,1.05-1.06,1.05L3.52,61.2c-0.58,0-1.05-0.48-1.05-1.06l0.01-1.05
		l59.04,0.45L61.52,60.59L61.52,60.59z"/>
	<path class="st1" d="M48.92,53.11l-33.74-0.26c-0.58,0-1.06,0.46-1.06,1.05c0,0.58,0.46,1.06,1.05,1.06l33.74,0.26
		c0.58,0,1.06-0.46,1.06-1.05C49.97,53.59,49.5,53.12,48.92,53.11z"/>
	<path class="st1" d="M10.97,52.82l-1.05-0.01c-0.58,0-1.06,0.46-1.06,1.05c0,0.58,0.46,1.06,1.05,1.06l1.05,0.01
		c0.58,0,1.06-0.46,1.06-1.05C12.02,53.3,11.55,52.83,10.97,52.82z"/>
	<path class="st1" d="M54.19,53.15l-1.05-0.01c-0.58,0-1.06,0.46-1.06,1.05c0,0.58,0.46,1.06,1.05,1.06l1.05,0.01
		c0.58,0,1.06-0.46,1.06-1.05S54.78,53.16,54.19,53.15z"/>
</g>
</svg>
