<?xml version="1.0" encoding="utf-8"?>
<!-- Generator: Adobe Illustrator 24.1.1, SVG Export Plug-In . SVG Version: 6.00 Build 0)  -->
<svg version="1.1" id="Layer_1" xmlns="http://www.w3.org/2000/svg" xmlns:xlink="http://www.w3.org/1999/xlink" x="0px" y="0px"
	 viewBox="0 0 30.5 30.21" style="enable-background:new 0 0 30.5 30.21;" xml:space="preserve">
<style type="text/css">
	.st0{fill:#FFFFFF;}
</style>
<g>
	<g>
		<path class="st0" d="M3.57,11.08c0.09,0.09,0.2,0.13,0.31,0.13c0.11,0,0.23-0.04,0.31-0.13c0.17-0.17,0.17-0.45,0-0.63L3.12,9.38
			l1.07-1.07c0.17-0.17,0.17-0.45,0-0.63s-0.45-0.17-0.63,0L2.18,9.07C2.1,9.15,2.05,9.26,2.05,9.38c0,0.12,0.05,0.23,0.13,0.31
			L3.57,11.08z"/>
		<path class="st0" d="M7.96,9.38l-1.07,1.07c-0.17,0.17-0.17,0.45,0,0.63c0.09,0.09,0.2,0.13,0.31,0.13c0.11,0,0.23-0.04,0.31-0.13
			L8.9,9.69c0.17-0.17,0.17-0.45,0-0.63L7.51,7.68c-0.17-0.17-0.45-0.17-0.63,0c-0.17,0.17-0.17,0.45,0,0.63L7.96,9.38z"/>
		<path class="st0" d="M4.88,11.18c0.05,0.02,0.11,0.03,0.16,0.03c0.18,0,0.34-0.11,0.41-0.28l1.09-2.78
			c0.09-0.23-0.02-0.48-0.25-0.57C6.07,7.49,5.81,7.6,5.72,7.83l-1.09,2.78C4.54,10.83,4.65,11.09,4.88,11.18z"/>
		<path class="st0" d="M2.74,13.81h2.98c0.24,0,0.44-0.2,0.44-0.44c0-0.24-0.2-0.44-0.44-0.44H2.74c-0.24,0-0.44,0.2-0.44,0.44
			C2.3,13.61,2.5,13.81,2.74,13.81z"/>
		<path class="st0" d="M12.59,12.92H7.35c-0.24,0-0.44,0.2-0.44,0.44c0,0.24,0.2,0.44,0.44,0.44h5.24c0.24,0,0.44-0.2,0.44-0.44
			C13.03,13.12,12.84,12.92,12.59,12.92z"/>
		<path class="st0" d="M2.74,15.67h1.27c0.24,0,0.44-0.2,0.44-0.44c0-0.24-0.2-0.44-0.44-0.44H2.74c-0.24,0-0.44,0.2-0.44,0.44
			C2.3,15.48,2.5,15.67,2.74,15.67z"/>
		<path class="st0" d="M10.97,14.79c-0.24,0-0.44,0.2-0.44,0.44c0,0.24,0.2,0.44,0.44,0.44h0.77c0.24,0,0.44-0.2,0.44-0.44
			c0-0.24-0.2-0.44-0.44-0.44H10.97z"/>
		<path class="st0" d="M9.81,15.23c0-0.24-0.2-0.44-0.44-0.44h-3.8c-0.24,0-0.44,0.2-0.44,0.44c0,0.24,0.2,0.44,0.44,0.44h3.8
			C9.61,15.67,9.81,15.48,9.81,15.23z"/>
		<path class="st0" d="M12.71,15.23c0,0.24,0.2,0.44,0.44,0.44h1.45c0.24,0,0.44-0.2,0.44-0.44c0-0.24-0.2-0.44-0.44-0.44h-1.45
			C12.9,14.79,12.71,14.99,12.71,15.23z"/>
		<path class="st0" d="M10.3,9.74h1.53c0.24,0,0.44-0.2,0.44-0.44c0-0.24-0.2-0.44-0.44-0.44H10.3c-0.24,0-0.44,0.2-0.44,0.44
			C9.85,9.54,10.05,9.74,10.3,9.74z"/>
		<path class="st0" d="M13.54,9.74h9.32c0.24,0,0.44-0.2,0.44-0.44c0-0.24-0.2-0.44-0.44-0.44h-9.32c-0.24,0-0.44,0.2-0.44,0.44
			C13.09,9.54,13.29,9.74,13.54,9.74z"/>
		<path class="st0" d="M21.44,10.8h-3.78c-0.24,0-0.44,0.2-0.44,0.44c0,0.24,0.2,0.44,0.44,0.44h3.78c0.24,0,0.44-0.2,0.44-0.44
			C21.89,11,21.69,10.8,21.44,10.8z"/>
		<path class="st0" d="M16.25,10.8h-1.3c-0.24,0-0.44,0.2-0.44,0.44c0,0.24,0.2,0.44,0.44,0.44h1.3c0.24,0,0.44-0.2,0.44-0.44
			C16.69,11,16.5,10.8,16.25,10.8z"/>
		<path class="st0" d="M10.3,11.68h3.18c0.24,0,0.44-0.2,0.44-0.44c0-0.24-0.2-0.44-0.44-0.44H10.3c-0.24,0-0.44,0.2-0.44,0.44
			C9.85,11.48,10.05,11.68,10.3,11.68z"/>
		<path class="st0" d="M9.37,16.64H6.39c-0.24,0-0.44,0.2-0.44,0.44c0,0.24,0.2,0.44,0.44,0.44h2.98c0.24,0,0.44-0.2,0.44-0.44
			C9.81,16.84,9.61,16.64,9.37,16.64z"/>
		<path class="st0" d="M5.03,16.64H2.74c-0.24,0-0.44,0.2-0.44,0.44c0,0.24,0.2,0.44,0.44,0.44h2.29c0.24,0,0.44-0.2,0.44-0.44
			C5.48,16.84,5.28,16.64,5.03,16.64z"/>
		<path class="st0" d="M14.78,16.64h-3.89c-0.24,0-0.44,0.2-0.44,0.44c0,0.24,0.2,0.44,0.44,0.44h3.89c0.24,0,0.44-0.2,0.44-0.44
			C15.22,16.84,15.02,16.64,14.78,16.64z"/>
		<path class="st0" d="M20.04,14.37h-2.13c-0.24,0-0.44,0.2-0.44,0.44c0,0.24,0.2,0.44,0.44,0.44h2.13c0.24,0,0.44-0.2,0.44-0.44
			C20.49,14.56,20.29,14.37,20.04,14.37z"/>
		<path class="st0" d="M23.74,15.25h3.01c0.24,0,0.44-0.2,0.44-0.44c0-0.24-0.2-0.44-0.44-0.44h-3.01c-0.24,0-0.44,0.2-0.44,0.44
			C23.3,15.05,23.49,15.25,23.74,15.25z"/>
		<path class="st0" d="M22.24,14.37h-0.69c-0.24,0-0.44,0.2-0.44,0.44c0,0.24,0.2,0.44,0.44,0.44h0.69c0.24,0,0.44-0.2,0.44-0.44
			C22.68,14.56,22.48,14.37,22.24,14.37z"/>
		<path class="st0" d="M17.91,20.07h2.13c0.24,0,0.44-0.2,0.44-0.44c0-0.24-0.2-0.44-0.44-0.44h-2.13c-0.24,0-0.44,0.2-0.44,0.44
			C17.47,19.88,17.67,20.07,17.91,20.07z"/>
		<path class="st0" d="M23.74,20.07h3.01c0.24,0,0.44-0.2,0.44-0.44c0-0.24-0.2-0.44-0.44-0.44h-3.01c-0.24,0-0.44,0.2-0.44,0.44
			C23.3,19.88,23.49,20.07,23.74,20.07z"/>
		<path class="st0" d="M21.55,20.07h0.69c0.24,0,0.44-0.2,0.44-0.44c0-0.24-0.2-0.44-0.44-0.44h-0.69c-0.24,0-0.44,0.2-0.44,0.44
			C21.1,19.88,21.3,20.07,21.55,20.07z"/>
		<path class="st0" d="M20.04,24.01h-2.13c-0.24,0-0.44,0.2-0.44,0.44c0,0.24,0.2,0.44,0.44,0.44h2.13c0.24,0,0.44-0.2,0.44-0.44
			C20.49,24.21,20.29,24.01,20.04,24.01z"/>
		<path class="st0" d="M26.75,24.01h-3.01c-0.24,0-0.44,0.2-0.44,0.44c0,0.24,0.2,0.44,0.44,0.44h3.01c0.24,0,0.44-0.2,0.44-0.44
			C27.19,24.21,26.99,24.01,26.75,24.01z"/>
		<path class="st0" d="M22.24,24.01h-0.69c-0.24,0-0.44,0.2-0.44,0.44c0,0.24,0.2,0.44,0.44,0.44h0.69c0.24,0,0.44-0.2,0.44-0.44
			C22.68,24.21,22.48,24.01,22.24,24.01z"/>
		<path class="st0" d="M28.38,0.06H2.03c-1.07,0-1.95,0.87-1.95,1.95v21.42c0,1.07,0.87,1.95,1.95,1.95H3.7
			c0.24,0,0.44-0.2,0.44-0.44c0-0.24-0.2-0.44-0.44-0.44H2.03c-0.59,0-1.06-0.48-1.06-1.06v-1.68h16.13v0.76h-0.35
			c-0.48,0-0.87,0.39-0.87,0.87v1.11H6.39c-0.24,0-0.44,0.2-0.44,0.44c0,0.24,0.2,0.44,0.44,0.44h4.26v1.59H9.31
			c-0.89,0-1.62,0.73-1.62,1.62v0.96c0,0.41,0.33,0.74,0.74,0.74h13.52c0.41,0,0.74-0.33,0.74-0.74v-0.96
			c0-0.89-0.73-1.62-1.62-1.62h-1.34V26.4h8.18c0.48,0,0.87-0.39,0.87-0.87v-0.21c0.86-0.2,1.51-0.97,1.51-1.9l0.03-21.42
			C30.33,0.94,29.45,0.06,28.38,0.06z M16.76,20.69v-2.12H27.9v2.12H16.76z M17.98,17.69v-0.93h8.7v0.93H17.98z M26.68,21.58v0.93
			h-8.7v-0.93H26.68z M11.53,25.37h4.34v0.16c0,0.48,0.39,0.87,0.87,0.87h2.1v0.56h-7.32V25.37z M21.07,27.85
			c0.4,0,0.73,0.33,0.73,0.73v0.81H8.58v-0.81c0-0.4,0.33-0.73,0.73-0.73H21.07z M27.9,25.52H16.76v-2.12H27.9V25.52z M29.41,23.43
			c0,0.43-0.26,0.8-0.62,0.97v-1.01c0-0.48-0.39-0.87-0.87-0.87h-0.35v-0.76h1.84V23.43z M29.41,20.86h-0.64
			c0.01-0.05,0.01-2.31,0.01-2.31c0-0.48-0.39-0.87-0.87-0.87h-0.35v-0.93h0.35c0.48,0,0.87-0.39,0.87-0.87v-2.15
			c0-0.48-0.39-0.87-0.87-0.87h-2.5c-0.24,0-0.44,0.2-0.44,0.44c0,0.24,0.2,0.44,0.44,0.44h2.49v2.12H16.76v-2.12h5.9
			c0.24,0,0.44-0.2,0.44-0.44c0-0.24-0.2-0.44-0.44-0.44h-5.92c-0.48,0-0.87,0.39-0.87,0.87v2.15c0,0.48,0.39,0.87,0.87,0.87h0.35
			v0.93h-0.35c-0.48,0-0.87,0.39-0.87,0.87c0,0,0.01,2.25,0.01,2.31H0.97V6.08h28.44V20.86z M29.41,5.2H1V2.01
			c0-0.59,0.48-1.06,1.06-1.06h26.28c0.59,0,1.06,0.48,1.06,1.06V5.2z"/>
		<path class="st0" d="M3.35,1.76c-0.72,0-1.3,0.58-1.3,1.3s0.58,1.3,1.3,1.3s1.3-0.58,1.3-1.3S4.06,1.76,3.35,1.76z M3.35,3.47
			c-0.23,0-0.41-0.19-0.41-0.41c0-0.23,0.19-0.41,0.41-0.41c0.23,0,0.41,0.19,0.41,0.41C3.76,3.29,3.58,3.47,3.35,3.47z"/>
		<path class="st0" d="M6.66,1.76c-0.72,0-1.3,0.58-1.3,1.3s0.58,1.3,1.3,1.3s1.3-0.58,1.3-1.3S7.37,1.76,6.66,1.76z M6.66,3.47
			c-0.23,0-0.41-0.19-0.41-0.41c0-0.23,0.19-0.41,0.41-0.41c0.23,0,0.41,0.19,0.41,0.41C7.07,3.29,6.88,3.47,6.66,3.47z"/>
		<path class="st0" d="M9.96,1.76c-0.72,0-1.3,0.58-1.3,1.3s0.58,1.3,1.3,1.3c0.72,0,1.3-0.58,1.3-1.3S10.68,1.76,9.96,1.76z
			 M9.96,3.47c-0.23,0-0.41-0.19-0.41-0.41c0-0.23,0.19-0.41,0.41-0.41c0.23,0,0.41,0.19,0.41,0.41C10.38,3.29,10.19,3.47,9.96,3.47
			z"/>
	</g>
</g>
</svg>
