<?xml version="1.0" encoding="utf-8"?>
<!-- Generator: Adobe Illustrator 24.1.1, SVG Export Plug-In . SVG Version: 6.00 Build 0)  -->
<svg version="1.1" id="Layer_1" xmlns="http://www.w3.org/2000/svg" xmlns:xlink="http://www.w3.org/1999/xlink" x="0px" y="0px"
	 viewBox="0 0 30.34 30.21" style="enable-background:new 0 0 30.34 30.21;" xml:space="preserve">
<style type="text/css">
	.st0{fill:#00A99D;}
	.st1{fill:#FFFFFF;}
</style>
<g>
	<rect x="0.63" y="0.6" class="st0" width="29.21" height="4.94"/>
	<rect x="16.23" y="13.48" class="st0" width="12.22" height="2.79"/>
	<rect x="8.24" y="27.49" class="st0" width="13.93" height="2.79"/>
	<rect x="16.23" y="18.25" class="st0" width="12.22" height="2.79"/>
	<rect x="16.23" y="23.01" class="st0" width="12.22" height="2.79"/>
	<g>
		<path class="st1" d="M3.58,11.09c0.09,0.09,0.2,0.13,0.31,0.13c0.11,0,0.23-0.04,0.31-0.13c0.17-0.17,0.17-0.45,0-0.63L3.13,9.39
			l1.07-1.07c0.17-0.17,0.17-0.45,0-0.63s-0.45-0.17-0.63,0L2.19,9.08c-0.08,0.08-0.13,0.2-0.13,0.31c0,0.12,0.05,0.23,0.13,0.31
			L3.58,11.09z"/>
		<path class="st1" d="M7.97,9.39L6.9,10.47c-0.17,0.17-0.17,0.45,0,0.63c0.09,0.09,0.2,0.13,0.31,0.13c0.11,0,0.23-0.04,0.31-0.13
			L8.91,9.7c0.17-0.17,0.17-0.45,0-0.63L7.52,7.69c-0.17-0.17-0.45-0.17-0.63,0c-0.17,0.17-0.17,0.45,0,0.63L7.97,9.39z"/>
		<path class="st1" d="M4.89,11.19c0.05,0.02,0.11,0.03,0.16,0.03c0.18,0,0.34-0.11,0.41-0.28l1.09-2.78
			c0.09-0.23-0.02-0.48-0.25-0.57C6.08,7.5,5.82,7.61,5.73,7.84l-1.09,2.78C4.55,10.85,4.66,11.1,4.89,11.19z"/>
		<path class="st1" d="M2.76,13.82h2.98c0.24,0,0.44-0.2,0.44-0.44c0-0.24-0.2-0.44-0.44-0.44H2.76c-0.24,0-0.44,0.2-0.44,0.44
			C2.31,13.62,2.51,13.82,2.76,13.82z"/>
		<path class="st1" d="M12.61,12.93H7.36c-0.24,0-0.44,0.2-0.44,0.44c0,0.24,0.2,0.44,0.44,0.44h5.24c0.24,0,0.44-0.2,0.44-0.44
			C13.05,13.13,12.85,12.93,12.61,12.93z"/>
		<path class="st1" d="M2.76,15.69h1.27c0.24,0,0.44-0.2,0.44-0.44c0-0.24-0.2-0.44-0.44-0.44H2.76c-0.24,0-0.44,0.2-0.44,0.44
			C2.31,15.49,2.51,15.69,2.76,15.69z"/>
		<path class="st1" d="M10.99,14.8c-0.24,0-0.44,0.2-0.44,0.44c0,0.24,0.2,0.44,0.44,0.44h0.77c0.24,0,0.44-0.2,0.44-0.44
			c0-0.24-0.2-0.44-0.44-0.44H10.99z"/>
		<path class="st1" d="M9.82,15.24c0-0.24-0.2-0.44-0.44-0.44h-3.8c-0.24,0-0.44,0.2-0.44,0.44c0,0.24,0.2,0.44,0.44,0.44h3.8
			C9.62,15.69,9.82,15.49,9.82,15.24z"/>
		<path class="st1" d="M12.72,15.24c0,0.24,0.2,0.44,0.44,0.44h1.45c0.24,0,0.44-0.2,0.44-0.44c0-0.24-0.2-0.44-0.44-0.44h-1.45
			C12.92,14.8,12.72,15,12.72,15.24z"/>
		<path class="st1" d="M10.31,9.75h1.53c0.24,0,0.44-0.2,0.44-0.44c0-0.24-0.2-0.44-0.44-0.44h-1.53c-0.24,0-0.44,0.2-0.44,0.44
			C9.87,9.55,10.07,9.75,10.31,9.75z"/>
		<path class="st1" d="M13.55,9.75h9.32c0.24,0,0.44-0.2,0.44-0.44c0-0.24-0.2-0.44-0.44-0.44h-9.32c-0.24,0-0.44,0.2-0.44,0.44
			C13.11,9.55,13.31,9.75,13.55,9.75z"/>
		<path class="st1" d="M21.46,10.81h-3.78c-0.24,0-0.44,0.2-0.44,0.44c0,0.24,0.2,0.44,0.44,0.44h3.78c0.24,0,0.44-0.2,0.44-0.44
			C21.9,11.01,21.7,10.81,21.46,10.81z"/>
		<path class="st1" d="M16.26,10.81h-1.3c-0.24,0-0.44,0.2-0.44,0.44c0,0.24,0.2,0.44,0.44,0.44h1.3c0.24,0,0.44-0.2,0.44-0.44
			C16.71,11.01,16.51,10.81,16.26,10.81z"/>
		<path class="st1" d="M10.31,11.69h3.18c0.24,0,0.44-0.2,0.44-0.44c0-0.24-0.2-0.44-0.44-0.44h-3.18c-0.24,0-0.44,0.2-0.44,0.44
			C9.87,11.5,10.07,11.69,10.31,11.69z"/>
		<path class="st1" d="M9.38,16.65H6.4c-0.24,0-0.44,0.2-0.44,0.44c0,0.24,0.2,0.44,0.44,0.44h2.98c0.24,0,0.44-0.2,0.44-0.44
			C9.83,16.85,9.63,16.65,9.38,16.65z"/>
		<path class="st1" d="M5.05,16.65H2.76c-0.24,0-0.44,0.2-0.44,0.44c0,0.24,0.2,0.44,0.44,0.44h2.29c0.24,0,0.44-0.2,0.44-0.44
			C5.49,16.85,5.29,16.65,5.05,16.65z"/>
		<path class="st1" d="M14.79,16.65h-3.89c-0.24,0-0.44,0.2-0.44,0.44c0,0.24,0.2,0.44,0.44,0.44h3.89c0.24,0,0.44-0.2,0.44-0.44
			C15.23,16.85,15.03,16.65,14.79,16.65z"/>
		<path class="st1" d="M20.06,14.38h-2.13c-0.24,0-0.44,0.2-0.44,0.44c0,0.24,0.2,0.44,0.44,0.44h2.13c0.24,0,0.44-0.2,0.44-0.44
			C20.5,14.58,20.3,14.38,20.06,14.38z"/>
		<path class="st1" d="M23.75,15.26h3.01c0.24,0,0.44-0.2,0.44-0.44c0-0.24-0.2-0.44-0.44-0.44h-3.01c-0.24,0-0.44,0.2-0.44,0.44
			C23.31,15.07,23.51,15.26,23.75,15.26z"/>
		<path class="st1" d="M22.25,14.38h-0.69c-0.24,0-0.44,0.2-0.44,0.44c0,0.24,0.2,0.44,0.44,0.44h0.69c0.24,0,0.44-0.2,0.44-0.44
			C22.69,14.58,22.49,14.38,22.25,14.38z"/>
		<path class="st1" d="M17.93,20.09h2.13c0.24,0,0.44-0.2,0.44-0.44c0-0.24-0.2-0.44-0.44-0.44h-2.13c-0.24,0-0.44,0.2-0.44,0.44
			C17.48,19.89,17.68,20.09,17.93,20.09z"/>
		<path class="st1" d="M23.75,20.09h3.01c0.24,0,0.44-0.2,0.44-0.44c0-0.24-0.2-0.44-0.44-0.44h-3.01c-0.24,0-0.44,0.2-0.44,0.44
			C23.31,19.89,23.51,20.09,23.75,20.09z"/>
		<path class="st1" d="M21.56,20.09h0.69c0.24,0,0.44-0.2,0.44-0.44c0-0.24-0.2-0.44-0.44-0.44h-0.69c-0.24,0-0.44,0.2-0.44,0.44
			C21.12,19.89,21.32,20.09,21.56,20.09z"/>
		<path class="st1" d="M20.06,24.02h-2.13c-0.24,0-0.44,0.2-0.44,0.44c0,0.24,0.2,0.44,0.44,0.44h2.13c0.24,0,0.44-0.2,0.44-0.44
			C20.5,24.22,20.3,24.02,20.06,24.02z"/>
		<path class="st1" d="M26.76,24.02h-3.01c-0.24,0-0.44,0.2-0.44,0.44c0,0.24,0.2,0.44,0.44,0.44h3.01c0.24,0,0.44-0.2,0.44-0.44
			C27.2,24.22,27,24.02,26.76,24.02z"/>
		<path class="st1" d="M22.25,24.02h-0.69c-0.24,0-0.44,0.2-0.44,0.44c0,0.24,0.2,0.44,0.44,0.44h0.69c0.24,0,0.44-0.2,0.44-0.44
			C22.69,24.22,22.49,24.02,22.25,24.02z"/>
		<path class="st1" d="M28.39,0.07H2.05c-1.07,0-1.95,0.87-1.95,1.95v21.42c0,1.07,0.87,1.95,1.95,1.95h1.67
			c0.24,0,0.44-0.2,0.44-0.44c0-0.24-0.2-0.44-0.44-0.44H2.05c-0.59,0-1.06-0.48-1.06-1.06v-1.68h16.13v0.76h-0.35
			c-0.48,0-0.87,0.39-0.87,0.87v1.11H6.4c-0.24,0-0.44,0.2-0.44,0.44c0,0.24,0.2,0.44,0.44,0.44h4.26v1.59H9.32
			c-0.89,0-1.62,0.73-1.62,1.62v0.96c0,0.41,0.33,0.74,0.74,0.74h13.52c0.41,0,0.74-0.33,0.74-0.74v-0.96
			c0-0.89-0.73-1.62-1.62-1.62h-1.34v-0.56h8.18c0.48,0,0.87-0.39,0.87-0.87v-0.21c0.86-0.2,1.51-0.97,1.51-1.9l0.03-21.42
			C30.34,0.95,29.47,0.07,28.39,0.07z M16.77,20.71v-2.12h11.14v2.12H16.77z M17.99,17.7v-0.93h8.7v0.93H17.99z M26.69,21.59v0.93
			h-8.7v-0.93H26.69z M11.54,25.39h4.34v0.16c0,0.48,0.39,0.87,0.87,0.87h2.1v0.56h-7.32V25.39z M21.08,27.86
			c0.4,0,0.73,0.33,0.73,0.73v0.81H8.59v-0.81c0-0.4,0.33-0.73,0.73-0.73H21.08z M27.91,25.53H16.77v-2.12h11.14V25.53z
			 M29.42,23.44c0,0.43-0.26,0.8-0.62,0.97v-1.01c0-0.48-0.39-0.87-0.87-0.87h-0.35v-0.76h1.84V23.44z M29.42,20.87h-0.64
			c0.01-0.05,0.01-2.3,0.01-2.3c0-0.48-0.39-0.87-0.87-0.87h-0.35v-0.93h0.35c0.48,0,0.87-0.39,0.87-0.87v-2.15
			c0-0.48-0.39-0.87-0.87-0.87h-2.5c-0.24,0-0.44,0.2-0.44,0.44c0,0.24,0.2,0.44,0.44,0.44h2.49v2.12H16.77v-2.12h5.9
			c0.24,0,0.44-0.2,0.44-0.44c0-0.24-0.2-0.44-0.44-0.44h-5.92c-0.48,0-0.87,0.39-0.87,0.87v2.15c0,0.48,0.39,0.87,0.87,0.87h0.35
			v0.93h-0.35c-0.48,0-0.87,0.39-0.87,0.87c0,0,0.01,2.25,0.01,2.3H0.98V6.09h28.44V20.87z M29.42,5.21H1.02V2.02
			c0-0.59,0.48-1.06,1.06-1.06h26.28c0.59,0,1.06,0.48,1.06,1.06V5.21z"/>
		<path class="st1" d="M3.36,1.77c-0.72,0-1.3,0.58-1.3,1.3s0.58,1.3,1.3,1.3s1.3-0.58,1.3-1.3S4.08,1.77,3.36,1.77z M3.36,3.49
			c-0.23,0-0.41-0.19-0.41-0.41c0-0.23,0.19-0.41,0.41-0.41c0.23,0,0.41,0.19,0.41,0.41C3.78,3.3,3.59,3.49,3.36,3.49z"/>
		<path class="st1" d="M6.67,1.77c-0.72,0-1.3,0.58-1.3,1.3s0.58,1.3,1.3,1.3s1.3-0.58,1.3-1.3S7.38,1.77,6.67,1.77z M6.67,3.49
			c-0.23,0-0.41-0.19-0.41-0.41c0-0.23,0.19-0.41,0.41-0.41c0.23,0,0.41,0.19,0.41,0.41C7.08,3.3,6.9,3.49,6.67,3.49z"/>
		<path class="st1" d="M9.98,1.77c-0.72,0-1.3,0.58-1.3,1.3s0.58,1.3,1.3,1.3s1.3-0.58,1.3-1.3S10.69,1.77,9.98,1.77z M9.98,3.49
			c-0.23,0-0.41-0.19-0.41-0.41c0-0.23,0.19-0.41,0.41-0.41c0.23,0,0.41,0.19,0.41,0.41C10.39,3.3,10.2,3.49,9.98,3.49z"/>
	</g>
</g>
</svg>
