<?xml version="1.0" encoding="utf-8"?>
<!-- Generator: Adobe Illustrator 24.1.1, SVG Export Plug-In . SVG Version: 6.00 Build 0)  -->
<svg version="1.1" id="Layer_1" xmlns="http://www.w3.org/2000/svg" xmlns:xlink="http://www.w3.org/1999/xlink" x="0px" y="0px"
	 viewBox="0 0 33.92 30.21" style="enable-background:new 0 0 33.92 30.21;" xml:space="preserve">
<style type="text/css">
	.st0{fill:#00A99D;}
	.st1{fill:#FFFFFF;}
</style>
<path class="st0" d="M12.69,27l-2.51,0.98c0,0-0.26,1.42,0,1.66c0.26,0.23,12.4,0.18,12.4,0.18l1.33-0.23c0,0,0.29-1.53-0.25-1.98
	c-0.53-0.45-1.87-0.48-1.87-0.48l-0.21-3.49l-8.97-0.23L12.69,27z"/>
<polygon class="st0" points="14.48,10.71 14.19,13.19 10.11,15.35 6.36,13.41 5.74,10.9 5.91,8.14 10.09,5.69 14.24,7.9 "/>
<g>
	<path class="st1" d="M20.69,14.99h3.22c0.27,0,0.5-0.22,0.5-0.5c0-0.27-0.22-0.5-0.5-0.5h-3.22c-0.27,0-0.5,0.22-0.5,0.5
		C20.2,14.77,20.42,14.99,20.69,14.99z M22.71,11.2c0.06,0.02,0.11,0.03,0.17,0.03c0.2,0,0.39-0.12,0.47-0.33l2.01-5.51
		c0.09-0.26-0.04-0.54-0.3-0.63c-0.26-0.09-0.54,0.04-0.63,0.3l-2.01,5.51C22.33,10.82,22.46,11.1,22.71,11.2z M5.9,13.57l3.37,1.95
		c0.26,0.15,0.55,0.23,0.85,0.24c0.01,0,0.03,0,0.04,0s0.03,0,0.04,0c0.29-0.01,0.59-0.08,0.85-0.24l3.37-1.95
		c0.26-0.15,0.42-0.42,0.42-0.73V8.22v0c0,0,0,0,0,0c0-0.02,0-0.04,0-0.06c-0.02-0.28-0.17-0.53-0.42-0.67l-3.37-1.95
		c-0.55-0.32-1.23-0.32-1.77,0L5.9,7.49c-0.25,0.14-0.4,0.39-0.42,0.67c0,0.02,0,0.04,0,0.06v0v0v4.63
		C5.48,13.15,5.64,13.42,5.9,13.57z M13.84,12.76l-3.19,1.84v-3.55c0.14-0.04,0.27-0.09,0.39-0.17l2.8-1.62L13.84,12.76L13.84,12.76
		z M9.77,6.4c0.24-0.14,0.54-0.14,0.78,0l3.14,1.81l-3.14,1.81c-0.24,0.14-0.54,0.14-0.78,0L6.62,8.22L9.77,6.4z M6.47,9.27
		l2.8,1.62c0.12,0.07,0.26,0.13,0.39,0.17v3.55l-3.19-1.84L6.47,9.27z M20.69,13.51h1.48c0.27,0,0.5-0.22,0.5-0.5s-0.22-0.5-0.5-0.5
		h-1.48c-0.27,0-0.5,0.22-0.5,0.5S20.42,13.51,20.69,13.51z M22.06,15.49h-1.37c-0.27,0-0.5,0.22-0.5,0.5s0.22,0.5,0.5,0.5h1.37
		c0.27,0,0.5-0.22,0.5-0.5S22.34,15.49,22.06,15.49z M29.52,0h-0.71c-0.27,0-0.5,0.22-0.5,0.5s0.22,0.5,0.5,0.5h0.71
		c1.88,0,3.42,1.53,3.42,3.42v13.34h-1.69V4.9c0-1.23-1-2.23-2.23-2.23h-24c-1.23,0-2.23,1-2.23,2.23v12.84H1.11V4.41
		c0-1.88,1.53-3.42,3.42-3.42h21.94c0.27,0,0.5-0.22,0.5-0.5S26.75,0,26.47,0H4.53C2.1,0,0.12,1.98,0.12,4.41v14.93
		c0,2.14,1.53,3.97,3.64,4.34c0.03,0.01,0.06,0.01,0.09,0.01c0.24,0,0.44-0.17,0.49-0.41c0.05-0.27-0.13-0.53-0.4-0.57
		C2.3,22.42,1.11,21,1.11,19.34v-0.6h2.18c0,0,0,0,0,0c0,0,0,0,0,0h27.46c0,0,0,0,0,0c0,0,0,0,0,0h2.18v0.6
		c0,1.88-1.53,3.42-3.42,3.42H6.17c-0.27,0-0.5,0.22-0.5,0.5c0,0.27,0.22,0.5,0.5,0.5h5.92l-0.26,2.87h-0.22
		c-0.93,0-1.77,0.62-2.03,1.52l-0.11,0.39c-0.12,0.4-0.04,0.82,0.21,1.16s0.63,0.53,1.05,0.53h12.59c0.42,0,0.8-0.19,1.05-0.53
		c0.25-0.34,0.33-0.76,0.21-1.16l-0.11-0.39c-0.26-0.89-1.1-1.52-2.03-1.52h-0.22l-0.26-2.87h7.56c2.43,0,4.41-1.98,4.41-4.41V4.41
		C33.92,1.98,31.95,0,29.52,0L29.52,0z M16.53,17.75H3.79V4.9c0-0.68,0.55-1.24,1.24-1.24h11.5V17.75z M30.26,17.75H17.52V3.67h11.5
		c0.68,0,1.24,0.55,1.24,1.24V17.75z M13.09,23.75h7.87l0.26,2.87h-8.4L13.09,23.75z M22.43,27.6c0.5,0,0.94,0.33,1.08,0.81
		l0.11,0.39c0.04,0.14-0.02,0.24-0.05,0.29c-0.06,0.08-0.16,0.13-0.26,0.13H10.73c-0.14,0-0.22-0.08-0.26-0.13
		c-0.04-0.05-0.09-0.15-0.05-0.29l0.11-0.39c0.14-0.48,0.58-0.81,1.08-0.81L22.43,27.6z M17.97,20.75c0-0.52-0.43-0.95-0.95-0.95
		s-0.95,0.43-0.95,0.95s0.43,0.95,0.95,0.95C17.55,21.7,17.97,21.27,17.97,20.75z M26.14,5.84c-0.19-0.19-0.51-0.19-0.7,0
		c-0.19,0.19-0.19,0.51,0,0.7l1.44,1.44l-1.44,1.44c-0.19,0.19-0.19,0.51,0,0.7c0.1,0.1,0.22,0.14,0.35,0.14s0.25-0.05,0.35-0.14
		l1.79-1.79c0.19-0.19,0.19-0.51,0-0.7L26.14,5.84z M27.08,14h-1.71c-0.27,0-0.5,0.22-0.5,0.5c0,0.27,0.22,0.5,0.5,0.5h1.71
		c0.27,0,0.5-0.22,0.5-0.5C27.58,14.22,27.36,14,27.08,14z M21.98,10.26c0.13,0,0.25-0.05,0.35-0.14c0.19-0.19,0.19-0.51,0-0.7
		L20.9,7.97l1.44-1.44c0.19-0.19,0.19-0.51,0-0.7c-0.19-0.19-0.51-0.19-0.7,0l-1.79,1.79c-0.19,0.19-0.19,0.51,0,0.7l1.79,1.79
		C21.73,10.21,21.86,10.26,21.98,10.26L21.98,10.26z M26.52,15.49h-2.99c-0.27,0-0.5,0.22-0.5,0.5c0,0.27,0.22,0.5,0.5,0.5h2.99
		c0.27,0,0.5-0.22,0.5-0.5C27.02,15.71,26.79,15.49,26.52,15.49z M25.95,13.01c0-0.27-0.22-0.5-0.5-0.5h-1.82
		c-0.27,0-0.5,0.22-0.5,0.5s0.22,0.5,0.5,0.5h1.82C25.73,13.51,25.95,13.29,25.95,13.01z"/>
</g>
</svg>
