<?xml version="1.0" encoding="utf-8"?>
<!-- Generator: Adobe Illustrator 24.1.1, SVG Export Plug-In . SVG Version: 6.00 Build 0)  -->
<svg version="1.1" id="Layer_1" xmlns="http://www.w3.org/2000/svg" xmlns:xlink="http://www.w3.org/1999/xlink" x="0px" y="0px"
	 viewBox="0 0 33.89 30.21" style="enable-background:new 0 0 33.89 30.21;" xml:space="preserve">
<style type="text/css">
	.st0{fill:#FFFFFF;}
</style>
<g>
	<path class="st0" d="M20.65,14.99h3.22c0.27,0,0.5-0.22,0.5-0.5c0-0.27-0.22-0.5-0.5-0.5h-3.22c-0.27,0-0.5,0.22-0.5,0.5
		C20.16,14.77,20.38,14.99,20.65,14.99z M22.68,11.2c0.06,0.02,0.11,0.03,0.17,0.03c0.2,0,0.39-0.12,0.47-0.33l2.01-5.51
		c0.09-0.26-0.04-0.54-0.3-0.63c-0.26-0.09-0.54,0.04-0.63,0.3l-2.01,5.51C22.29,10.82,22.42,11.1,22.68,11.2z M5.86,13.57
		l3.37,1.95c0.26,0.15,0.55,0.23,0.85,0.24c0.01,0,0.03,0,0.04,0c0.01,0,0.03,0,0.04,0c0.29-0.01,0.59-0.08,0.85-0.24l3.37-1.95
		c0.26-0.15,0.42-0.42,0.42-0.73V8.22v0c0,0,0,0,0,0c0-0.02,0-0.04,0-0.06c-0.02-0.28-0.17-0.53-0.42-0.67l-3.37-1.95
		c-0.55-0.32-1.23-0.32-1.77,0L5.86,7.49c-0.25,0.14-0.4,0.39-0.42,0.67c0,0.02,0,0.04,0,0.06v0v0v4.63
		C5.44,13.15,5.6,13.42,5.86,13.57z M13.81,12.76l-3.19,1.84v-3.55c0.14-0.04,0.27-0.09,0.39-0.17l2.8-1.62L13.81,12.76L13.81,12.76
		z M9.73,6.4c0.24-0.14,0.54-0.14,0.78,0l3.14,1.81l-3.14,1.81c-0.24,0.14-0.54,0.14-0.78,0L6.59,8.22L9.73,6.4z M6.43,9.27
		l2.8,1.62c0.12,0.07,0.26,0.13,0.39,0.17v3.55l-3.19-1.84L6.43,9.27z M20.65,13.51h1.48c0.27,0,0.5-0.22,0.5-0.5s-0.22-0.5-0.5-0.5
		h-1.48c-0.27,0-0.5,0.22-0.5,0.5S20.38,13.51,20.65,13.51z M22.03,15.49h-1.37c-0.27,0-0.5,0.22-0.5,0.5s0.22,0.5,0.5,0.5h1.37
		c0.27,0,0.5-0.22,0.5-0.5S22.3,15.49,22.03,15.49z M29.48,0h-0.71c-0.27,0-0.5,0.22-0.5,0.5s0.22,0.5,0.5,0.5h0.71
		c1.88,0,3.42,1.53,3.42,3.42v13.34h-1.69V4.9c0-1.23-1-2.23-2.23-2.23h-24c-1.23,0-2.23,1-2.23,2.23v12.84H1.07V4.41
		c0-1.88,1.53-3.42,3.42-3.42h21.94c0.27,0,0.5-0.22,0.5-0.5S26.71,0,26.44,0H4.49C2.06,0,0.08,1.98,0.08,4.41v14.93
		c0,2.14,1.53,3.97,3.64,4.34c0.03,0.01,0.06,0.01,0.09,0.01c0.24,0,0.44-0.17,0.49-0.41c0.05-0.27-0.13-0.53-0.4-0.57
		c-1.63-0.29-2.82-1.7-2.82-3.37v-0.6h2.18c0,0,0,0,0,0c0,0,0,0,0,0h27.46c0,0,0,0,0,0c0,0,0,0,0,0h2.18v0.6
		c0,1.88-1.53,3.42-3.42,3.42H6.13c-0.27,0-0.5,0.22-0.5,0.5c0,0.27,0.22,0.5,0.5,0.5h5.92l-0.26,2.87h-0.22
		c-0.93,0-1.77,0.62-2.03,1.52l-0.11,0.39c-0.12,0.4-0.04,0.82,0.21,1.16c0.25,0.34,0.63,0.53,1.05,0.53h12.59
		c0.42,0,0.8-0.19,1.05-0.53c0.25-0.34,0.33-0.76,0.21-1.16l-0.11-0.39c-0.26-0.89-1.1-1.52-2.03-1.52h-0.22l-0.26-2.87h7.56
		c2.43,0,4.41-1.98,4.41-4.41V4.41C33.89,1.98,31.91,0,29.48,0L29.48,0z M16.49,17.75H3.75V4.9c0-0.68,0.55-1.24,1.24-1.24h11.5
		V17.75z M30.22,17.75H17.48V3.67h11.5c0.68,0,1.24,0.55,1.24,1.24V17.75z M13.05,23.75h7.87l0.26,2.87h-8.4L13.05,23.75z
		 M22.39,27.6c0.5,0,0.94,0.33,1.08,0.81l0.11,0.39c0.04,0.14-0.02,0.24-0.05,0.29c-0.06,0.08-0.16,0.13-0.26,0.13H10.69
		c-0.14,0-0.22-0.08-0.26-0.13c-0.04-0.05-0.09-0.15-0.05-0.29l0.11-0.39c0.14-0.48,0.58-0.81,1.08-0.81L22.39,27.6z M17.93,20.75
		c0-0.52-0.43-0.95-0.95-0.95s-0.95,0.43-0.95,0.95s0.43,0.95,0.95,0.95S17.93,21.27,17.93,20.75z M26.1,5.84
		c-0.19-0.19-0.51-0.19-0.7,0c-0.19,0.19-0.19,0.51,0,0.7l1.44,1.44L25.4,9.41c-0.19,0.19-0.19,0.51,0,0.7
		c0.1,0.1,0.22,0.14,0.35,0.14s0.25-0.05,0.35-0.14l1.79-1.79c0.19-0.19,0.19-0.51,0-0.7L26.1,5.84z M27.05,14h-1.71
		c-0.27,0-0.5,0.22-0.5,0.5c0,0.27,0.22,0.5,0.5,0.5h1.71c0.27,0,0.5-0.22,0.5-0.5C27.54,14.22,27.32,14,27.05,14z M21.94,10.26
		c0.13,0,0.25-0.05,0.35-0.14c0.19-0.19,0.19-0.51,0-0.7l-1.44-1.44l1.44-1.44c0.19-0.19,0.19-0.51,0-0.7
		c-0.19-0.19-0.51-0.19-0.7,0l-1.79,1.79c-0.19,0.19-0.19,0.51,0,0.7l1.79,1.79C21.69,10.21,21.82,10.26,21.94,10.26L21.94,10.26z
		 M26.48,15.49h-2.99c-0.27,0-0.5,0.22-0.5,0.5c0,0.27,0.22,0.5,0.5,0.5h2.99c0.27,0,0.5-0.22,0.5-0.5
		C26.98,15.71,26.76,15.49,26.48,15.49z M25.91,13.01c0-0.27-0.22-0.5-0.5-0.5h-1.82c-0.27,0-0.5,0.22-0.5,0.5s0.22,0.5,0.5,0.5
		h1.82C25.69,13.51,25.91,13.29,25.91,13.01z"/>
</g>
</svg>
