<?xml version="1.0" encoding="utf-8"?>
<!-- Generator: Adobe Illustrator 24.1.1, SVG Export Plug-In . SVG Version: 6.00 Build 0)  -->
<svg version="1.1" xmlns="http://www.w3.org/2000/svg" xmlns:xlink="http://www.w3.org/1999/xlink" x="0px" y="0px"
	 viewBox="0 0 517.03 464.6" style="enable-background:new 0 0 517.03 464.6;" xml:space="preserve">
<style type="text/css">
	.st0{fill:none;stroke:#F4F7F9;stroke-miterlimit:10;}
	.st1{fill:#F4F7F9;}
	.st2{fill:#315B51;}
	.st3{fill:#C8B34C;}
	.st4{fill:#B3B2B3;}
	.st5{fill:#2BB898;}
	.st6{fill:#D39241;}
	.st7{fill:#385BA6;}
	.st8{fill:#515151;}
	.st9{fill:#F4E8AA;}
	.st10{fill:#FAC86E;}
	.st11{fill:#F4F4F4;}
	.st12{fill:#AD9944;}
	.st13{fill:#00A99D;}
	.st14{fill:url(#SVGID_1_);}
	.st15{fill:#C4AF4C;}
	.st16{fill-rule:evenodd;clip-rule:evenodd;fill:#C4AF4C;}
	.st17{filter:url(#Adobe_OpacityMaskFilter);}
	.st18{fill:url(#SVGID_3_);}
	.st19{mask:url(#SVGID_2_);fill-rule:evenodd;clip-rule:evenodd;fill:#C4AF4C;}
	.st20{filter:url(#Adobe_OpacityMaskFilter_1_);}
	.st21{fill:url(#SVGID_5_);}
	.st22{mask:url(#SVGID_4_);fill-rule:evenodd;clip-rule:evenodd;fill:#F0E4A6;}
	.st23{filter:url(#Adobe_OpacityMaskFilter_2_);}
	.st24{fill:url(#SVGID_7_);}
	.st25{mask:url(#SVGID_6_);fill-rule:evenodd;clip-rule:evenodd;fill:#F0E4A6;}
	.st26{filter:url(#Adobe_OpacityMaskFilter_3_);}
	.st27{fill:url(#SVGID_9_);}
	.st28{mask:url(#SVGID_8_);fill-rule:evenodd;clip-rule:evenodd;fill:#F0E4A6;}
	.st29{filter:url(#Adobe_OpacityMaskFilter_4_);}
	.st30{fill:url(#SVGID_11_);}
	.st31{mask:url(#SVGID_10_);fill-rule:evenodd;clip-rule:evenodd;fill:#F0E4A6;}
	.st32{opacity:0.5;fill-rule:evenodd;clip-rule:evenodd;fill:#C4AF4C;}
	.st33{filter:url(#Adobe_OpacityMaskFilter_5_);}
	.st34{fill:url(#SVGID_13_);}
	.st35{mask:url(#SVGID_12_);fill-rule:evenodd;clip-rule:evenodd;fill:#C4AF4C;}
	.st36{filter:url(#Adobe_OpacityMaskFilter_6_);}
	.st37{fill:url(#SVGID_15_);}
	.st38{mask:url(#SVGID_14_);fill-rule:evenodd;clip-rule:evenodd;fill:#C4AF4C;}
	.st39{filter:url(#Adobe_OpacityMaskFilter_7_);}
	.st40{fill:url(#SVGID_17_);}
	.st41{mask:url(#SVGID_16_);fill-rule:evenodd;clip-rule:evenodd;fill:#F0E4A6;}
	.st42{fill-rule:evenodd;clip-rule:evenodd;fill:#315B51;}
	.st43{filter:url(#Adobe_OpacityMaskFilter_8_);}
	.st44{fill:url(#SVGID_19_);}
	.st45{mask:url(#SVGID_18_);fill-rule:evenodd;clip-rule:evenodd;fill:#2BB494;}
	.st46{fill:#AFAEAF;}
	.st47{fill:#FFFFFF;}
	.st48{fill:none;stroke:#FFFFFF;stroke-width:0.25;stroke-miterlimit:10;}
	.st49{fill:#333333;}
	.st50{fill:none;stroke:#CACACA;stroke-width:0.5;stroke-miterlimit:10;}
	.st51{opacity:0.3;}
	.st52{fill:url(#SVGID_20_);}
	.st53{fill:url(#SVGID_21_);}
	.st54{fill:url(#SVGID_22_);}
	.st55{fill:url(#SVGID_23_);}
	.st56{fill:url(#SVGID_24_);}
	.st57{fill:url(#SVGID_25_);}
	.st58{fill:#029385;}
	.st59{fill:#009183;}
	.st60{fill:#FCD1C5;}
	.st61{fill:url(#SVGID_26_);}
	.st62{fill:#F0F6FF;}
	.st63{fill:#AA8383;}
	.st64{fill:#C4CCD6;}
	.st65{fill:#E2B1A6;}
	.st66{fill:#1B2B3A;}
	.st67{fill:#936D6D;}
	.st68{fill:url(#SVGID_27_);}
	.st69{fill:url(#SVGID_28_);}
	.st70{fill:url(#SVGID_29_);}
	.st71{fill:url(#SVGID_30_);}
	.st72{fill:url(#SVGID_31_);}
	.st73{fill:#160A5B;}
	.st74{fill:url(#SVGID_32_);}
	.st75{fill:#722318;}
	.st76{fill:url(#SVGID_33_);}
	.st77{fill:#453C9E;}
	.st78{fill:url(#SVGID_34_);}
	.st79{fill:#DAE1E5;}
	.st80{fill:#E0E0E0;}
	.st81{filter:url(#Adobe_OpacityMaskFilter_9_);}
	.st82{fill:url(#SVGID_36_);}
	.st83{mask:url(#SVGID_35_);fill-rule:evenodd;clip-rule:evenodd;fill:#C4AF4C;}
	.st84{filter:url(#Adobe_OpacityMaskFilter_10_);}
	.st85{fill:url(#SVGID_38_);}
	.st86{mask:url(#SVGID_37_);fill-rule:evenodd;clip-rule:evenodd;fill:#F0E4A6;}
	.st87{filter:url(#Adobe_OpacityMaskFilter_11_);}
	.st88{fill:url(#SVGID_40_);}
	.st89{mask:url(#SVGID_39_);fill-rule:evenodd;clip-rule:evenodd;fill:#F0E4A6;}
	.st90{filter:url(#Adobe_OpacityMaskFilter_12_);}
	.st91{fill:url(#SVGID_42_);}
	.st92{mask:url(#SVGID_41_);fill-rule:evenodd;clip-rule:evenodd;fill:#F0E4A6;}
	.st93{filter:url(#Adobe_OpacityMaskFilter_13_);}
	.st94{fill:url(#SVGID_44_);}
	.st95{mask:url(#SVGID_43_);fill-rule:evenodd;clip-rule:evenodd;fill:#F0E4A6;}
	.st96{filter:url(#Adobe_OpacityMaskFilter_14_);}
	.st97{fill:url(#SVGID_46_);}
	.st98{mask:url(#SVGID_45_);fill-rule:evenodd;clip-rule:evenodd;fill:#C4AF4C;}
	.st99{filter:url(#Adobe_OpacityMaskFilter_15_);}
	.st100{fill:url(#SVGID_48_);}
	.st101{mask:url(#SVGID_47_);fill-rule:evenodd;clip-rule:evenodd;fill:#C4AF4C;}
	.st102{fill:none;stroke:#2BB797;stroke-width:1.16;stroke-linecap:round;stroke-linejoin:round;stroke-miterlimit:10;}
	.st103{fill-rule:evenodd;clip-rule:evenodd;fill:none;stroke:#C6C6C6;stroke-width:0.5;stroke-miterlimit:10;}
	.st104{fill-rule:evenodd;clip-rule:evenodd;fill:none;stroke:#C6C6C6;stroke-width:0.75;stroke-miterlimit:10;}
	.st105{fill:#2BB797;}
	.st106{fill:#2BB797;stroke:#2BB797;stroke-width:0.7684;stroke-miterlimit:10;}
	.st107{clip-path:url(#SVGID_50_);fill:#BBBBBB;}
	.st108{clip-path:url(#SVGID_50_);fill:#959595;}
	.st109{clip-path:url(#SVGID_50_);}
	.st110{fill:#959595;}
	.st111{fill:#BBBBBB;}
	.st112{fill:none;stroke:#C6C6C6;stroke-width:0.5;stroke-miterlimit:10;}
	.st113{clip-path:url(#SVGID_52_);}
	.st114{fill-rule:evenodd;clip-rule:evenodd;fill:none;stroke:#C9C9C9;stroke-width:0.5;stroke-miterlimit:10;}
	.st115{fill:#B2B1B2;}
	.st116{fill:#4D4D4D;}
	.st117{fill:#A5CFE3;}
	.st118{fill:url(#);}
	.st119{fill:#9F9F9F;}
	.st120{opacity:0.3;fill:url(#XMLID_64_);}
	.st121{fill:#35160D;}
	.st122{fill:#FCC082;}
	.st123{opacity:0.5;fill:#FCC082;}
	.st124{fill:#221001;}
	.st125{fill:url(#XMLID_65_);}
	.st126{enable-background:new    ;}
	.st127{fill:#1E1B1C;}
	.st128{fill:#0F0B0C;}
	.st129{fill:#4B4949;}
	.st130{opacity:0.3;fill:url(#XMLID_66_);}
	.st131{fill:url(#XMLID_67_);}
	.st132{fill-rule:evenodd;clip-rule:evenodd;fill:none;stroke:#CACACA;stroke-width:0.5;stroke-miterlimit:10;}
	.st133{fill:#249373;}
	.st134{fill:none;stroke:#249373;stroke-miterlimit:10;}
	.st135{fill:#E2CA49;}
	.st136{fill:none;stroke:#E2CA49;stroke-miterlimit:10;}
	.st137{fill:#3C3C3B;}
	.st138{fill:none;stroke:#000000;stroke-miterlimit:10;}
	.st139{fill:url(#SVGID_53_);}
	.st140{fill:url(#SVGID_54_);}
	.st141{fill:url(#SVGID_55_);}
	.st142{fill:url(#SVGID_56_);}
	.st143{fill:url(#SVGID_57_);}
	.st144{fill:url(#SVGID_58_);}
	.st145{fill:url(#SVGID_59_);}
	.st146{fill:url(#SVGID_60_);}
	.st147{fill:url(#SVGID_61_);}
	.st148{fill:url(#SVGID_62_);}
	.st149{fill:url(#SVGID_63_);}
	.st150{fill:url(#SVGID_64_);}
	.st151{fill:url(#SVGID_65_);}
	.st152{fill:url(#SVGID_66_);}
	.st153{fill:url(#SVGID_67_);}
	.st154{fill:#8E8E8E;}
	.st155{clip-path:url(#SVGID_69_);fill:#E2E4E6;}
	.st156{clip-path:url(#SVGID_71_);fill:#E2E4E6;}
	.st157{clip-path:url(#SVGID_73_);fill:#E2E4E6;}
</style>
<g id="Layer_1">
	<path class="st0" d="M1.38,321.43v99.03c0,23.81,19.42,43.22,43.21,43.22h99.02c23.81,0,43.21-19.42,43.21-43.22v-99.03
		c0-23.8,19.42-43.22,43.22-43.22h154.68c23.79,0,43.21-19.4,43.21-43.22V80.33c0-23.82-19.42-43.22-43.21-43.22H230.05
		c-23.8,0-43.22,19.41-43.22,43.22v154.66c0,23.83-19.41,43.22-43.21,43.22H44.59C20.8,278.21,1.38,297.63,1.38,321.43z"/>
	<g>
		<g class="st51">
			<g>
				
					<linearGradient id="SVGID_1_" gradientUnits="userSpaceOnUse" x1="-3231.0125" y1="3886.5867" x2="-3038.895" y2="3886.5867" gradientTransform="matrix(-0.866 0.5 0.866 0.5 -5777.2476 -19.3504)">
					<stop  offset="0" style="stop-color:#C0BFF6"/>
					<stop  offset="0.2938" style="stop-color:#C5C4F7"/>
					<stop  offset="0.6399" style="stop-color:#D3D2F9"/>
					<stop  offset="1" style="stop-color:#E9E9FD"/>
				</linearGradient>
				<path class="st14" d="M281.84,435.5l158-91.76c2.18-1.26,1.91-3.46-0.61-4.92L333.5,277.78c-2.52-1.46-6.34-1.61-8.52-0.35
					l-158,91.76c-2.18,1.26-1.91,3.46,0.61,4.92l105.72,61.04C275.84,436.61,279.65,436.76,281.84,435.5z"/>
			</g>
			
				<linearGradient id="SVGID_2_" gradientUnits="userSpaceOnUse" x1="-7849.5029" y1="354.9512" x2="-7702.9932" y2="354.9512" gradientTransform="matrix(-1 0 0 1 -7433.2466 0)">
				<stop  offset="0.3548" style="stop-color:#00A99D"/>
				<stop  offset="0.4601" style="stop-color:#04A297"/>
				<stop  offset="0.6095" style="stop-color:#109084"/>
				<stop  offset="0.7843" style="stop-color:#237167"/>
				<stop  offset="0.8925" style="stop-color:#315B51"/>
			</linearGradient>
			<path style="fill:url(#SVGID_2_);" d="M161.7,349.71l37.13-2.42l126.46-73.55c2.25-1.3,6.18-1.14,8.78,0.36l81.75,47.2
				l29.29-1.91v20.44l-0.03,0c0,0.83-0.47,1.62-1.49,2.21l-162.08,94.12c-2.25,1.3-6.18,1.14-8.78-0.36l-108.9-62.87
				c-1.38-0.8-2.08-1.81-2.13-2.78l-0.02,0V349.71z"/>
			
				<linearGradient id="SVGID_3_" gradientUnits="userSpaceOnUse" x1="-3255.6228" y1="3864.4702" x2="-3058.5171" y2="3864.4702" gradientTransform="matrix(-0.866 0.5 0.866 0.5 -5777.2476 -19.3504)">
				<stop  offset="0" style="stop-color:#00A99D"/>
				<stop  offset="1" style="stop-color:#00A99D"/>
			</linearGradient>
			<path class="st18" d="M281.52,415.56l162.08-94.12c2.25-1.3,1.97-3.57-0.63-5.07l-108.9-62.87c-2.6-1.5-6.53-1.66-8.78-0.36
				l-162.08,94.12c-2.25,1.3-1.97,3.57,0.63,5.07l108.9,62.87C275.34,416.7,279.27,416.86,281.52,415.56z"/>
		</g>
		<g>
			<g>
				
					<linearGradient id="SVGID_4_" gradientUnits="userSpaceOnUse" x1="-3289.6482" y1="3827.9509" x2="-3097.5308" y2="3827.9509" gradientTransform="matrix(-0.866 0.5 0.866 0.5 -5777.2476 -19.3504)">
					<stop  offset="0" style="stop-color:#C0BFF6"/>
					<stop  offset="0.2938" style="stop-color:#C5C4F7"/>
					<stop  offset="0.6399" style="stop-color:#D3D2F9"/>
					<stop  offset="1" style="stop-color:#E9E9FD"/>
				</linearGradient>
				<path style="fill:url(#SVGID_4_);" d="M281.84,376.87l158-91.76c2.18-1.26,1.91-3.46-0.61-4.92L333.5,219.15
					c-2.52-1.46-6.34-1.61-8.52-0.35l-158,91.76c-2.18,1.26-1.91,3.46,0.61,4.92l105.72,61.04
					C275.84,377.97,279.65,378.13,281.84,376.87z"/>
			</g>
			
				<linearGradient id="SVGID_5_" gradientUnits="userSpaceOnUse" x1="-7849.5029" y1="296.3154" x2="-7702.9932" y2="296.3154" gradientTransform="matrix(-1 0 0 1 -7433.2466 0)">
				<stop  offset="0.3548" style="stop-color:#00A99D"/>
				<stop  offset="0.4601" style="stop-color:#04A297"/>
				<stop  offset="0.6095" style="stop-color:#109084"/>
				<stop  offset="0.7843" style="stop-color:#237167"/>
				<stop  offset="0.8925" style="stop-color:#315B51"/>
			</linearGradient>
			<path class="st21" d="M161.7,291.08l37.13-2.42l126.46-73.55c2.25-1.3,6.18-1.14,8.78,0.36l81.75,47.2l29.29-1.91v20.44l-0.03,0
				c0,0.83-0.47,1.62-1.49,2.21l-162.08,94.12c-2.25,1.3-6.18,1.14-8.78-0.36l-108.9-62.87c-1.38-0.8-2.08-1.81-2.13-2.78l-0.02,0
				V291.08z"/>
			
				<linearGradient id="SVGID_6_" gradientUnits="userSpaceOnUse" x1="-3314.2585" y1="3805.835" x2="-3117.1528" y2="3805.835" gradientTransform="matrix(-0.866 0.5 0.866 0.5 -5777.2476 -19.3504)">
				<stop  offset="0" style="stop-color:#00A99D"/>
				<stop  offset="1" style="stop-color:#00A99D"/>
			</linearGradient>
			<path style="fill:url(#SVGID_6_);" d="M281.52,356.92l162.08-94.12c2.25-1.3,1.97-3.57-0.63-5.07l-108.9-62.87
				c-2.6-1.5-6.53-1.66-8.78-0.36l-162.08,94.12c-2.25,1.3-1.97,3.57,0.63,5.07l108.9,62.87
				C275.34,358.06,279.27,358.22,281.52,356.92z"/>
		</g>
		<g>
			<g>
				<path class="st2" d="M308.35,239.43l-0.15,0.71l-0.21-0.47c0,0-1.08,3.66-0.15,5.49c0.92,1.83,2.28,4.09,4.23,6.65
					c1.95,2.56,5.06,7.88,5.88,8.91c0.82,1.02,5.57,5,11.51,5.61c5.94,0.61,7.45-2.79,6.96-4.63c-0.49-1.84-3.69-6.72-7.17-10.69
					s-6.14-9.09-6.14-9.09L308.35,239.43z"/>
				<path class="st2" d="M326.2,223.3c0,0-0.18,3.81,0.22,5.38c0.4,1.57,9.12,2.06,12.23,2.46c3.1,0.4,8.51,2.61,10.2,3.44
					c1.69,0.83,13.02,2.03,14.41-2.15c1.38-4.18-5.68-7.68-10.48-8.79c-4.79-1.11-12.62-3.5-12.62-3.5L326.2,223.3z"/>
				<path class="st58" d="M295.94,147.86c0,0-0.31,10.69,3.26,25.43c3.56,14.74,3.13,25.07,3.13,25.07s-3.73,16.69-0.45,28.08
					c3.28,11.39,6.06,14.58,6.06,14.58s6.55,8.68,15.15,0.9c0,0-4.83-15.65-5.41-28.1c0,0,4.26-9.15,5.73-17.31
					c0,0,1.23,12.97,1.97,18.21c0,0-0.74,7.7,1.31,10.81c2.05,3.11,11.3,4.01,14.25-1.39c2.95-5.41-2.46-2.76-0.82-27.63
					c0,0,8.52-10.62,9.75-30.16c1.23-19.54,1.11-27.28,0-31.09c-1.11-3.81-19.99-17.53-19.99-17.53l-10.65,13.6L295.94,147.86z"/>
				<path class="st2" d="M337.96,169.67c3.07-3.69,4.8-15.24,4.8-15.24s-4.8,9.71-8.24,12.53c-3.44,2.83-6.39,8.48-7,12.16
					c-0.61,3.69-4.1,17.38-4.1,17.38s1.23,12.97,1.97,18.21c0,0-0.74,7.7,1.31,10.81c0.41,0.63,1.13,1.16,2.02,1.57
					c0-0.15-0.52-17.17,0-24.39C329.24,195.47,334.89,173.35,337.96,169.67z"/>
				<path class="st59" d="M267.58,69.06c0,0-8.14,15.9-8.96,17.13c-0.82,1.23-16.06,20.64-17.53,31.87c0,0-1.15,4.34,4.1,8.19
					c5.24,3.85,31.7,20.64,33.34,20.89c1.64,0.25,11.22-4.42,11.63-14.91c0,0-20.72-9.67-25.23-14.5c0,0,8.07-13.56,12.02-17.55
					c0.99-1,1.57-2.83,1.89-5.01c1.3-8.9-2.2-17.84-8.84-23.91L267.58,69.06z"/>
				<path class="st59" d="M328.44,31.8c0,0,12.59,4.67,16.9,3.07c4.3-1.6,14.87-2.95,22.12-7c7.25-4.05,38.91-12.23,43.6-12.51
					c0,0,0.08,0.18-0.7,0.51c-0.78,0.33-4.03,0.61-4.92,4.3c-0.88,3.69,1.06,8.11,1.6,8.42c0.53,0.31,0.84-1,3.87-2.4
					c3.03-1.39,4.89-1.31,4.89-1.31l1.15,1.45l0.7,1.07c0,0-1.49,4.46-5.55,4.77c-4.05,0.31-30.1,11.18-31.74,11.67
					c-1.64,0.49-23.51,9.92-27.61,11.39c-4.1,1.47-7.29,3.35-7.29,3.35s-12.78-8.52-13.19-8.52
					C331.86,50.07,328.44,31.8,328.44,31.8z"/>
				<path class="st60" d="M443.31,7.23c-0.98-1.06-12.86,2.33-12.86,2.33s-2.01-0.66-3.97-0.57c-1.97,0.08-7.29,4.18-9.17,5.08
					c-1.88,0.9-6.25,1.29-6.25,1.29c-10.51,2.17-4.63,13.7-4.2,13.54c0.43-0.16,3.3-2.09,4.2-2.56c0.9-0.47,2.52-0.72,2.52-0.72
					c0.47,0.27,2.62,1.33,4.08,1.78c1.45,0.45,5.02-0.08,6.57-1.09c1.56-1,6.27-1.43,6.49-1.29c0.23,0.14,0.96,0.51,0.96,0.51
					s0.29,1.19,1.23,1.47c0.94,0.29,1.97-2.01,2.38-2.25c0.41-0.25,1.76-1.15,2.01-1.56c0.25-0.41,1.02-7.09,0.78-8.27
					c-0.25-1.19-2.87-2.54-2.87-2.54s6.59-2.21,7.13-2.33C442.85,9.93,444.29,8.29,443.31,7.23z M431.59,19.49
					c-0.6,0.23-1.38,0.18-2.26,0.6s-1.92,0.86-2.81,0.78c0,0-1.23-2-0.31-2.67c0.92-0.68,1.66-1.29,1.66-1.29s1.63-0.31,1.63-0.52
					c0,0,0.91,0.74,1.83,0.14c0,0,1,1.48,2.4,1.44C433.73,17.96,432.19,19.26,431.59,19.49z"/>
				<path class="st2" d="M349.88,135.26c-1.11-3.81-19.99-17.53-19.99-17.53l-5.29,6.75l-4.54,17.66l-24.12,7.51v0
					c0,0.02,1.28,12.07,20.92,10.68c19.66-1.39,21.95-16.63,21.95-16.63s2.18,5,11.86,6.31
					C350.91,141.94,350.6,137.76,349.88,135.26z"/>
				<path class="st13" d="M291.47,41.72l-3.32,8.52c0,0-15.99,13.83-20.57,18.83c0,0,7.9,15.15,9.37,31.12c0,0,7.31,5.96,9.52,8.7
					c2.21,2.74,7.8,15.44,9.58,19.62c1.78,4.18-3.19,16.77-3.19,16.77s6.8,12.55,17.73,12.14c10.94-0.41,18.39-7.09,19.78-18.96
					c1.39-11.88,0.98-13.6,0.98-13.6s4.91,14.58,12.37,14.58s19.29-12.66,19.29-12.66s7.99-7.25,7.25-10.53
					c-0.74-3.28-18.8-31.62-19.78-36.29c-0.98-4.67-5.04-21.38-5.04-21.38L328.44,31.8l-10.38,0.49L291.47,41.72z"/>
				<g>
					
						<linearGradient id="SVGID_7_" gradientUnits="userSpaceOnUse" x1="-5488.0776" y1="147.174" x2="-5450.3843" y2="147.174" gradientTransform="matrix(-1 0 0 1 -5157.5171 0)">
						<stop  offset="0.3548" style="stop-color:#00A99D"/>
						<stop  offset="0.4601" style="stop-color:#04A297"/>
						<stop  offset="0.6095" style="stop-color:#109084"/>
						<stop  offset="0.7843" style="stop-color:#237167"/>
						<stop  offset="0.8925" style="stop-color:#315B51"/>
					</linearGradient>
					<path class="st24" d="M311.06,154.42c10.46-0.39,17.67-6.58,19.5-17.51c-0.06,0.5-0.11,1-0.18,1.54
						c-1.39,11.88-8.85,18.55-19.78,18.96c-10.94,0.41-17.73-12.14-17.73-12.14s0.36-0.92,0.85-2.33
						C295.3,145.53,301.63,154.77,311.06,154.42z"/>
				</g>
				<path class="st62" d="M291.47,41.72c0,0-0.08,5.08,1.93,10.12c2.01,5.04,8.56,33.42,23.43,43.13l5.71,3.62V80.52
					c0,0-0.1-11.12-2.64-18.16c-2.54-7.04-2.46-15.65-2.46-15.65s-4.17-1.15-4.17-1.06C313.26,45.73,291.47,41.72,291.47,41.72z"/>
				<path class="st60" d="M309.79,54.9c0,0,2.64,1.08,3.78-0.65c1.14-1.72,2.3-5.19,2-6.79c0,0,7.03,0.35,8.43-3.34
					c1.39-3.69-0.12-4.65-0.35-5.8c-0.23-1.15-0.43-4.16-1.37-6.35l-0.1-0.94c0,0,1.43-1.23,0.78-2.52c-0.66-1.29-4.5-5.3-4.89-5.98
					c-0.39-0.68,0.1-5.65-1.4-8.13c-1.49-2.48-4.38-5.92-4.38-5.92s-14.99-11.69-26.79,0c-11.8,11.69,5.98,33.22,5.98,33.22
					s1.42,6.95,4.86,9.72C299.78,54.2,309.79,54.9,309.79,54.9z"/>
				<path class="st63" d="M298.83,26.43c0.01-0.43-0.05-0.86-0.19-1.27c-0.44-1.28-1.19-4.74,2.41-7.36
					c4.51-3.28,12.45-6.23,12.21-9.5s-12.78-11.39-22.04-7.04c-9.26,4.34-17.94,15.32-11.63,26.95
					c6.31,11.63,11.88,13.52,11.88,13.52s1.88-0.39,0.19-2.32c-1.69-1.94-4.76-6.82-2.21-8.36c2.55-1.54,6.97,1.78,7.56,2.52
					c0.23,0.28,0.46,0.64,0.65,0.98c0.33,0.55,1.02,0.77,1.6,0.5l0.22-0.1c0.58-0.27,0.86-0.95,0.64-1.55l-1.11-3.01
					c-0.17-0.45-0.25-0.93-0.24-1.41L298.83,26.43z"/>
				<path class="st64" d="M309.41,58.18c0,0-3.34,2.38-5.3,6.92c0,0,3.56-3.69,5.59-4.42c0,0,3.93,1.84,3.93,3.07
					c0,1.23,0.37,8.6,1.29,12.56c0.92,3.97,0.81,17.89,0.81,17.89l2.49,1.64l1.18-6.11l-0.45-13.02l-2.31-11.86
					c0,0-0.43-4.48-0.61-4.73C315.84,59.88,309.41,58.18,309.41,58.18z"/>
				<path class="st59" d="M309.41,58.18c0,0,3.81-4.05,5.73-4.14c1.93-0.08,2.96,0.96,3,1.19s1.85,6.58,1.85,6.58
					s3.59,11.07,3.23,23.97s-0.68,12.8-0.68,12.8l-4.72-3c0,0,1.28-9.23-1.3-19.92s-0.31-12.29-1.54-13.39
					S308.82,59.49,309.41,58.18z"/>
				<path class="st2" d="M286.48,108.89c2.21,2.74,7.69,15.42,9.47,19.6c0.29,0.68,0.51,1.59,0.5,2.62
					c0.45,0.29,0.72,0.47,0.72,0.47l2.39-2.33c0,0-2.15-7.74-5.59-17.32c-3.44-9.58-17.02-11.73-17.02-11.73
					S284.27,106.14,286.48,108.89z"/>
				<path class="st60" d="M290.16,132.56c0,0,3.89-5.65,5.12-6.39c0,0-0.29,1.6,1.93,2.58c2.21,0.98,13.78,5.47,14.18,5.99
					c0.4,0.52-0.03,1.17-0.77,1.32c0,0,2.4,0.82,3.38,0.8c0.98-0.02,2.29,1.23,1.64,2.29c-0.66,1.07-1.21,0.98-1.21,0.98
					s0.29,1.19-0.43,1.45c-0.72,0.27-2.44,0.31-2.44,0.31s0.35,1.19-0.61,1.66c-0.96,0.47-5.65,0.98-5.65,0.98s-3.67-0.39-4.71-0.41
					c-1.04-0.02-5.82,1.15-7.84,0.86c-2.03-0.29-8.72-2.66-9.4-3.06C282.67,141.53,290.16,132.56,290.16,132.56z"/>
				<path class="st2" d="M287.4,53l0.49,7.62l4.12,1.29l-2.76,2.27c0,0,11.16,25.37,25.41,33.4c0,0-13.6-4.83-26.46-33.18
					c0,0,1.35-1.6,1.76-2.05l-2.87-1.27L287.4,53z"/>
				<path class="st2" d="M323.83,52.2c0,0,5.05,25.89,0.75,45.38c0,0,5.18-9.38,0.5-45.38H323.83z"/>
				<path class="st65" d="M437.79,14.37c-0.73-1.02-2.6-1.98-2.6-1.98s-5.39,2.19-6.31,2.62C428.89,15.01,434.41,14.43,437.79,14.37
					z"/>
				<path class="st65" d="M406.85,28.9c0.22-0.08,1.08-0.63,1.99-1.21v0c-3.58-4.81,0.35-11.77,0.37-11.79
					C401.29,18.98,406.45,29.05,406.85,28.9z"/>
				<path class="st65" d="M283.34,141.93c0.5,0.3,4.32,1.68,7.08,2.49c0,0,1.79-7,1.38-9.34c-0.4-2.34-1.38-2.9-1.38-2.9
					c-0.16,0.23-0.26,0.38-0.26,0.38S282.67,141.53,283.34,141.93z"/>
				<path class="st2" d="M290.16,132.23c0,0,1.2,4.04-1.54,7.18c-2.73,3.13-3.04,3.53-3.04,3.53h-3.14c0,0-1.63-4.95-1.38-5.07
					C281.32,137.75,290.16,132.23,290.16,132.23z"/>
				<path class="st2" d="M319.41,59.76L319.41,59.76c0,0,3.01,17.75,2.33,24.26c-0.68,6.51-0.43,13.56-0.43,13.56l0.95,0.83
					l0.28,0.18c0,0,0.31,0.1,0.68-12.8s-3.23-23.97-3.23-23.97S319.73,60.91,319.41,59.76z"/>
				<g>
					<path class="st2" d="M320.39,243.88c0.87-0.49,1.78-1.13,2.7-1.96c0,0-4.83-15.65-5.41-28.1c0,0,4.26-9.15,5.73-17.31
						c-0.41,1.62-5.37,10.39-7.61,19.36C313.58,224.84,320.39,243.88,320.39,243.88z"/>
				</g>
				<g>
					<path class="st65" d="M298.41,38.85c0-0.02-0.01-0.04-0.01-0.04S298.4,38.82,298.41,38.85z"/>
					<path class="st65" d="M298.41,38.85c0.09,0.44,1.37,6.76,3.92,9.73c2.64,3.07,4.68,6.03,4.68,6.03
						c1.64,0.21,2.79,0.29,2.79,0.29s2.64,1.08,3.78-0.65c1.14-1.72,2.3-5.19,2-6.79c0,0-9.49-0.98-13.12-3.5
						C299.09,41.63,298.47,39.19,298.41,38.85z"/>
				</g>
				<path class="st66" d="M294.98,126.23c0,0,0.51,1.08,0.6,1.16c0.09,0.09,0.22-0.82,0.22-0.82s-0.42-0.88-0.45-0.88L294.98,126.23
					z"/>
				<path class="st2" d="M322.54,98.59c0,0,6.62,21.15,8.83,26.27l-0.13,5.09C331.24,129.95,322.81,103.68,322.54,98.59z"/>
				<path class="st2" d="M328.94,106.13c0.38,1.23-0.25,2.52-1.39,2.86c-1.15,0.35-2.38-0.37-2.75-1.6
					c-0.38-1.23,0.25-2.52,1.39-2.86C327.33,104.17,328.56,104.89,328.94,106.13z"/>
				<path class="st2" d="M332.3,115.25c0.38,1.23-0.25,2.52-1.39,2.86c-1.15,0.35-2.38-0.37-2.75-1.6
					c-0.38-1.23,0.25-2.52,1.39-2.86C330.69,113.3,331.92,114.02,332.3,115.25z"/>
			</g>
			<path class="st67" d="M299.02,30.36c-0.17-0.45-0.25-0.93-0.24-1.41l0.05-2.53c0.01-0.43-0.05-0.86-0.19-1.27
				c-0.13-0.37-0.28-0.92-0.34-1.57c0,0-10.31,7.51-16.85,7.8c5.5,8.8,10.02,10.33,10.02,10.33s1.88-0.39,0.19-2.32
				c-1.69-1.94-4.76-6.82-2.21-8.36c2.55-1.54,6.97,1.78,7.56,2.52c0.23,0.28,0.46,0.64,0.65,0.98c0.33,0.55,1.02,0.77,1.6,0.5
				l0.22-0.1c0.58-0.27,0.86-0.95,0.64-1.55L299.02,30.36z"/>
		</g>
		<g>
			<g>
				<path class="st2" d="M283.06,321.95c0,0,4.45,0.52,8.68,0.29c4.24-0.23,15.86,0.7,15.84,4.31c-0.02,3.61-5.56,9.24-12.93,10.64
					c-7.37,1.4-17.1,0.46-21.94,1c-4.85,0.54-8.62-3.3-7.15-7.45C267.04,326.6,283.06,321.95,283.06,321.95z"/>
				<path class="st2" d="M256.59,314.4c0,0-1.37,2.35-0.42,3.63c0.95,1.28,3.44,4.44,9.98,0.6c6.54-3.84,19.42-9.67,19.42-9.67
					s7.36-4.15,6.59-8.23s-7.82-2.85-7.82-2.85L256.59,314.4z"/>
				<path class="st58" d="M296.83,249.97c0,0-0.79,28.66-6.3,39.67c-5.52,11.01-5.56,29.85-6.56,33.48
					c-0.99,3.62-4.58,8.98-10.86,10.6c-6.28,1.62-7.72-1.92-7.64-4.14c0.08-2.22,1.48-5.93,1.25-8.33c-0.23-2.4-1.02-3.47-1.23-4.57
					c0,0-7.21,2.49-8.89-2.27c0,0,0.44-1.47,0.46-2.21c0.02-0.74-2.77-18.66-3.21-20.85c-0.44-2.2-0.42-14.43,1.03-20.67
					c1.45-6.24-0.7-19.25-0.7-19.25l21.95-4.71L296.83,249.97z"/>
				
					<linearGradient id="SVGID_8_" gradientUnits="userSpaceOnUse" x1="-5433.0508" y1="292.5618" x2="-5411.1021" y2="292.5618" gradientTransform="matrix(-1 0 0 1 -5157.5171 0)">
					<stop  offset="0.3548" style="stop-color:#00A99D"/>
					<stop  offset="0.4601" style="stop-color:#04A297"/>
					<stop  offset="0.6095" style="stop-color:#109084"/>
					<stop  offset="0.7843" style="stop-color:#237167"/>
					<stop  offset="0.8925" style="stop-color:#315B51"/>
				</linearGradient>
				<path style="fill:url(#SVGID_8_);" d="M254.86,270.67c1.45-6.24-0.7-19.25-0.7-19.25l1.91-0.41c0.29,1.82,1.99,13.24,0.66,18.98
					c-1.45,6.24-1.46,18.48-1.03,20.68c0.44,2.2,3.22,20.11,3.21,20.85c-0.02,0.74-0.46,2.21-0.46,2.21
					c1.68,4.76,8.89,2.27,8.89,2.27c0.22,1.1,1,2.17,1.23,4.57c0.23,2.4-1.17,6.12-1.25,8.33c-0.08,2.22,1.36,5.76,7.64,4.14
					c0.2-0.05,0.37-0.13,0.56-0.19c-0.76,0.35-1.56,0.65-2.43,0.88c-6.28,1.62-7.72-1.92-7.64-4.14c0.08-2.22,1.48-5.93,1.25-8.33
					c-0.23-2.4-1.04-3.69-1.26-4.79c0,0-7.18,2.71-8.86-2.05c0,0,0.44-1.47,0.46-2.21c0.02-0.74-2.77-18.66-3.21-20.85
					C253.4,289.14,253.41,276.91,254.86,270.67z"/>
				<path class="st2" d="M260.96,252.94c0,0,0.57,4.5,3.07,8.07c0,0,1.52,15.03,4.04,22.36c0,0-1.26,15.01-2.52,19.75
					c-1.26,4.74-0.08,13.55-0.08,13.55s-0.82,0.34-2.02,0.48c-1.21,0.14-3.23-17.46-1.69-20.79c1.54-3.32,1.46-17.66,0.28-21.99
					c-1.19-4.33-2.3-17.09-3.51-19.28c-1.21-2.19,0.84-3.59,0.84-3.59L260.96,252.94z"/>
				<path class="st2" d="M269.25,137.88c0,0,7.41,4.25,7.78,12.59l-5.24-0.61C271.79,149.86,272.49,140.51,269.25,137.88z"/>
				<path class="st2" d="M277.71,257.81c-14.59,1.68-23.12-3.38-23.12-3.38c-0.23-1.83-0.43-3.02-0.43-3.02l21.95-4.71l20.71,3.26
					c0,0-0.16,5.75-0.83,13.08c-3.54,0.65-7.71-6.8-7.71-6.8l-9.99,1.44C278.3,257.69,292.3,256.13,277.71,257.81z"/>
				<path class="st13" d="M294.03,250.65c0,0-30.75,14.27-48.61-6.29c-0.52-0.59-0.81-1.35-0.88-2.14l-0.41-5.25
					c-0.05-0.67-0.24-1.32-0.54-1.92l0,0c-0.66-1.29-0.94-2.74-0.82-4.19c0.53-6.05,1.96-22.77,2.23-27.47
					c0.32-5.77-5.63-28.73-12.47-38.54c-6.84-9.81,4.9-34.82,4.9-34.82s2.97-5.97,10.25-4.65c0,0-6.23,5.15-2.04,9.62
					c4.19,4.47,15.52,7.31,15.52,7.31s21.05,8.25,28.87,19.67c0,0,2.82,5.96,3.62,13.68c0.8,7.71,1.3,26,1.83,28.47
					c0.53,2.46,2.83,19.17,2.79,19.96C298.2,224.86,294.03,250.65,294.03,250.65z"/>
				<g>
					
						<linearGradient id="SVGID_9_" gradientUnits="userSpaceOnUse" x1="-5405.189" y1="127.1893" x2="-5401.7109" y2="127.1893" gradientTransform="matrix(-1 0 0 1 -5157.5171 0)">
						<stop  offset="0" style="stop-color:#5761D7"/>
						<stop  offset="0.0726" style="stop-color:#5472D8"/>
						<stop  offset="0.2791" style="stop-color:#4E9CDB"/>
						<stop  offset="0.4801" style="stop-color:#49BDDD"/>
						<stop  offset="0.6715" style="stop-color:#45D5DF"/>
						<stop  offset="0.8493" style="stop-color:#43E3E0"/>
						<stop  offset="1" style="stop-color:#42E8E0"/>
					</linearGradient>
					<path class="st27" d="M244.75,129.16c-0.7-1.32-0.68-2.65-0.29-3.85c0.97-0.12,2.01-0.15,3.21,0.07
						C247.67,125.38,245.74,126.98,244.75,129.16z"/>
					<path class="st2" d="M284.55,253.86c0,0-23.53-44.85-24.41-62.62c-0.87-17.77,31.53,32.06,31.53,32.06l2.35,27.34
						C294.03,250.65,288.16,253.15,284.55,253.86z"/>
					
						<linearGradient id="SVGID_10_" gradientUnits="userSpaceOnUse" x1="-5455.7627" y1="238.4469" x2="-5400.2563" y2="238.4469" gradientTransform="matrix(-1 0 0 1 -5157.5171 0)">
						<stop  offset="0.3548" style="stop-color:#00A99D"/>
						<stop  offset="0.4601" style="stop-color:#04A297"/>
						<stop  offset="0.6095" style="stop-color:#109084"/>
						<stop  offset="0.7843" style="stop-color:#237167"/>
						<stop  offset="0.8925" style="stop-color:#315B51"/>
					</linearGradient>
					<path style="fill:url(#SVGID_10_);" d="M243.59,230.45c0.31,0.6,0.49,1.25,0.54,1.92l0.41,5.25c0.06,0.79,0.36,1.54,0.88,2.14
						c17.86,20.57,48.61,6.29,48.61,6.29s3-18.52,3.93-24.62c0.18,1.46,0.29,2.48,0.28,2.65c-0.05,0.78-4.22,26.57-4.22,26.57
						s-30.75,14.27-48.61-6.29c-0.52-0.59-0.81-1.35-0.88-2.14l-0.41-5.25c-0.05-0.67-0.24-1.32-0.54-1.92
						c-0.66-1.29-0.94-2.74-0.82-4.19c0.05-0.63,0.12-1.39,0.19-2.22C243.1,229.26,243.29,229.87,243.59,230.45z"/>
					
						<linearGradient id="SVGID_11_" gradientUnits="userSpaceOnUse" x1="-5402.5239" y1="177.3808" x2="-5387.9214" y2="177.3808" gradientTransform="matrix(-1 0 0 1 -5157.5171 0)">
						<stop  offset="0.3548" style="stop-color:#00A99D"/>
						<stop  offset="0.4601" style="stop-color:#04A297"/>
						<stop  offset="0.6095" style="stop-color:#109084"/>
						<stop  offset="0.7843" style="stop-color:#237167"/>
						<stop  offset="0.8925" style="stop-color:#315B51"/>
					</linearGradient>
					<path class="st30" d="M232.52,160.25c6.84,9.81,12.79,32.77,12.47,38.54c-0.03,0.53-0.08,1.23-0.13,2.03
						c-0.9-8.21-6.26-27.26-12.34-35.97c-1.91-2.74-2.34-6.67-2.02-10.9C230.73,156.36,231.33,158.54,232.52,160.25z"/>
				</g>
				<path class="st59" d="M290.23,197.59c-1.03-3.93-1.77-7.93-2.15-11.97c-0.66-7.09-3.79-18.84-17.49-15.54
					c-19.3,4.65-8.38,29.23-5.84,33.38c2.54,4.14,12.65,22.6,13.18,23.64c0.5,0.97,15.39,23.01,20.38,28.05
					c0.45,0.46,1.19,0.47,1.67,0.04c1.74-1.55,5.65-5.25,6.04-7.41c0.51-2.79-2.9-12.55-2.9-12.55s-9.29-24.99-10.01-26.15
					C292.56,208.2,291.89,203.92,290.23,197.59z"/>
				<path class="st60" d="M268.96,138.52c0,0,1.28-3.64,4.93-4.32c3.66-0.69,5.67-1.86,5.93-3.22c0.26-1.36,0.14-2.96,0.88-5.03
					c0.73-2.06,1.09-7.03,1.07-7.14c-0.02-0.12,2.74-1.2,2.78-2.43c0.04-1.23-1.78-5.48-1.65-5.83c0.13-0.35,1.45-3.18,1.07-5.27
					s-0.9-5.12-2.25-7.63c-1.35-2.5-10.76-17.84-31.01-7.7c-20.25,10.14-2.4,26.05-3.3,37.23c0,0-1.59,2.46,2.18,6.05
					C253.35,136.83,263.16,136.82,268.96,138.52z"/>
				<path class="st65" d="M249.58,133.24c-3.77-3.59-2.18-6.05-2.18-6.05c0.12-1.54-0.12-3.18-0.56-4.88l8.27,0.8
					c0,0,11.02-11.51,10.68-5.82c-0.34,5.69,2.66,6.4,2.66,6.4l-2.17,3.25c-0.56,0.83-0.1,1.71,0.49,2.52
					c3.91,5.36,12,2.94,12.02,2.94c-0.97,0.74-2.62,1.36-4.91,1.79c-3.66,0.69-4.93,4.32-4.93,4.32
					C263.16,136.82,253.35,136.83,249.58,133.24z"/>
				<g>
					<path class="st63" d="M282.13,91.53c0,0,1.8,4.13-0.41,6.12c-2.21,1.99-4.21,3.85-4.21,3.85l0.46,5.32
						c0.07,0.76-0.09,1.53-0.46,2.21l-2.56,4.71c-0.49,0.91-0.71,1.94-0.63,2.97l0.17,2.14c0.05,0.63-0.38,1.19-0.99,1.32
						l-0.76,0.15c-0.67,0.13-1.32-0.3-1.46-0.97l-0.58-2.94c0,0-1.75-2.26-4.88,0.89l-2.92,1.48c-0.81,0.41-1.42,1.15-1.65,2.03
						c-0.63,2.35-2.01,6.98-3.28,7.84c-1.73,1.16-9.16-1.77-10.27-3.26c-1.11-1.49-4.65-11.88-6.69-16.86
						c-2.05-4.98-2.57-17.84,12.73-22.51C269.01,81.34,279.61,87.06,282.13,91.53z"/>
					<path class="st67" d="M247.67,125.38c-1.11-1.49-4.65-11.88-6.69-16.86c0,0,6.38,3.38,14.22,3.86
						c7.84,0.48,22.43-9.45,22.43-9.45l0.33,3.9c0.07,0.76-0.1,1.53-0.46,2.21l-2.56,4.71c-0.49,0.91-0.71,1.94-0.63,2.97l0.17,2.14
						c0.05,0.63-0.38,1.19-0.99,1.32l-0.76,0.15c-0.67,0.13-1.32-0.3-1.46-0.97l-0.58-2.94c0,0-1.75-2.26-4.88,0.89l-4.22,2.14
						c0,0-1.91,8.05-3.63,9.2C256.22,129.8,248.78,126.87,247.67,125.38z"/>
				</g>
				<path class="st62" d="M247.42,125.9c0,0-5.54,4.06-2.05,8.8c3.49,4.74,25.59,11.67,26.75,12.87c0,0,0.17-7.43-2.87-9.69
					c0,0-16.62-1.64-19.58-5.45C246.7,128.61,247.42,125.9,247.42,125.9z"/>
				<path class="st64" d="M247.42,125.9c0,0-0.72,2.71,2.24,6.52c2.24,2.89,12.31,4.53,17.07,5.15l0,0c0,0-1.64,1.1-4.08,6.09
					c-6.86-2.68-15.24-6.2-17.28-8.97C241.88,129.96,247.42,125.9,247.42,125.9z"/>
				<path class="st2" d="M245.14,142.19c0,0,10,4.37,14.83,6.31c4.83,1.94,10.13,4.59,10.13,4.59l1.6-1.83l2.5,4.23
					c0,0,7.54,3.48,11.18,6.59s6.51,7.31,6.95,8.28c0,0-9.81-10.28-17.15-12.98l-1.98-0.75l-1.39-3.4l-1.58,1.91
					C270.23,155.15,248.36,145.04,245.14,142.19z"/>
			</g>
			<g>
				
					<linearGradient id="SVGID_12_" gradientUnits="userSpaceOnUse" x1="-5482.646" y1="282.2228" x2="-5439.6592" y2="282.2228" gradientTransform="matrix(-1 0 0 1 -5157.5171 0)">
					<stop  offset="0" style="stop-color:#53C2C9"/>
					<stop  offset="0.3231" style="stop-color:#4BD5D4"/>
					<stop  offset="0.689" style="stop-color:#44E3DD"/>
					<stop  offset="1" style="stop-color:#42E8E0"/>
				</linearGradient>
				<path style="fill:url(#SVGID_12_);" d="M282.36,279.84L282.36,279.84L282.36,279.84c0.21-0.7,0.56-1.32,1-1.71l33.58-29.44
					c0.9-0.79,1.85-0.33,2.12,1.03l6,30.17c0.27,1.36-0.24,3.1-1.14,3.89L296.3,308l1.67,8.14l-8.88-2.6l0-0.02
					c-0.4-0.17-0.73-0.62-0.87-1.33l-6-30.17C282.08,281.34,282.14,280.56,282.36,279.84z"/>
				<path class="st13" d="M326.9,250.92l-8.69-2.52l-0.28-0.08c-0.32-0.04-0.66,0.08-1,0.38l-33.58,29.44
					c-0.44,0.39-0.79,1.01-1,1.7l1.31,0.42l0,0l7.42,2.38l29.35-25.99l0,0L326.9,250.92z"/>
				<path class="st2" d="M332.71,286.35l-33.58,29.44c-0.9,0.79-1.85,0.33-2.12-1.03l-6-30.17c-0.27-1.36,0.24-3.1,1.14-3.89
					l33.58-29.44c0.9-0.79,1.85-0.33,2.12,1.03l6,30.17C334.12,283.82,333.61,285.56,332.71,286.35z"/>
				<path class="st73" d="M292.5,313.4l-6-30.17c-0.27-1.36,0.24-3.1,1.14-3.89l33.58-29.44c0.28-0.25,0.56-0.37,0.83-0.38
					c-0.35-0.1-0.75,0.01-1.13,0.35l-33.58,29.44c-0.9,0.79-1.41,2.53-1.14,3.89l6,30.17c0.19,0.94,0.67,1.49,1.27,1.45
					C293.01,314.69,292.66,314.17,292.5,313.4z"/>
				<g>
					<g>
						<path class="st2" d="M301.61,266.89l-1.92-0.65c-0.43-0.15-0.84-0.18-1.17-0.08l-0.15,0.04c-0.18,0.05-0.26,0.24-0.22,0.48
							l0.06,0.29l5.4,1.83l-0.06-0.29c-0.05-0.25-0.22-0.52-0.45-0.71l-0.19-0.16C302.5,267.3,302.04,267.04,301.61,266.89z"/>
						<polygon class="st2" points="301.25,270.88 303.61,268.81 298.21,266.32 295.88,268.35 						"/>
						
							<linearGradient id="SVGID_13_" gradientUnits="userSpaceOnUse" x1="-5458.7686" y1="269.5292" x2="-5453.2964" y2="269.5292" gradientTransform="matrix(-1 0 0 1 -5157.5171 0)">
							<stop  offset="0" style="stop-color:#5761D7"/>
							<stop  offset="0.0726" style="stop-color:#5472D8"/>
							<stop  offset="0.2791" style="stop-color:#4E9CDB"/>
							<stop  offset="0.4801" style="stop-color:#49BDDD"/>
							<stop  offset="0.6715" style="stop-color:#45D5DF"/>
							<stop  offset="0.8493" style="stop-color:#43E3E0"/>
							<stop  offset="1" style="stop-color:#42E8E0"/>
						</linearGradient>
						<path class="st34" d="M299.25,268.96l-1.92-0.65c-0.43-0.15-0.84-0.18-1.17-0.08l-0.15,0.04c-0.18,0.05-0.26,0.24-0.22,0.48
							l0.06,0.29l5.4,1.83l-0.06-0.29c-0.05-0.25-0.22-0.52-0.45-0.71l-0.19-0.15C300.13,269.37,299.68,269.11,299.25,268.96z"/>
						<polygon class="st75" points="298.2,269.85 297.93,268.52 298.1,268.57 298.36,269.9 						"/>
						<polygon class="st75" points="297.93,268.52 300.37,266.47 300.51,266.52 298.1,268.57 						"/>
					</g>
					<g>
						<path class="st2" d="M312.32,257.51l-1.92-0.65c-0.43-0.15-0.84-0.18-1.17-0.08l-0.15,0.04c-0.18,0.05-0.26,0.24-0.22,0.48
							l0.06,0.29l5.4,1.83l-0.06-0.29c-0.05-0.25-0.22-0.52-0.45-0.71l-0.19-0.16C313.21,257.92,312.76,257.66,312.32,257.51z"/>
						<polygon class="st2" points="311.96,261.5 314.33,259.43 308.92,256.94 306.59,258.97 						"/>
						
							<linearGradient id="SVGID_14_" gradientUnits="userSpaceOnUse" x1="-5469.4819" y1="260.1507" x2="-5464.0103" y2="260.1507" gradientTransform="matrix(-1 0 0 1 -5157.5171 0)">
							<stop  offset="0" style="stop-color:#5761D7"/>
							<stop  offset="0.0726" style="stop-color:#5472D8"/>
							<stop  offset="0.2791" style="stop-color:#4E9CDB"/>
							<stop  offset="0.4801" style="stop-color:#49BDDD"/>
							<stop  offset="0.6715" style="stop-color:#45D5DF"/>
							<stop  offset="0.8493" style="stop-color:#43E3E0"/>
							<stop  offset="1" style="stop-color:#42E8E0"/>
						</linearGradient>
						<path style="fill:url(#SVGID_14_);" d="M309.96,259.58l-1.92-0.65c-0.43-0.15-0.84-0.18-1.17-0.08l-0.15,0.04
							c-0.18,0.05-0.26,0.24-0.22,0.48l0.06,0.29l5.4,1.83l-0.06-0.29c-0.05-0.25-0.22-0.52-0.45-0.71l-0.19-0.16
							C310.85,259.99,310.4,259.73,309.96,259.58z"/>
						<polygon class="st75" points="308.91,260.47 308.65,259.14 308.81,259.19 309.08,260.52 						"/>
						<polygon class="st75" points="308.65,259.14 311.08,257.09 311.22,257.14 308.81,259.19 						"/>
					</g>
					<g>
						<path class="st13" d="M296.43,262.2l1.12,5.65l1.58-1.39l-1.09-5.49c-0.16-0.8,0.21-1.9,0.83-2.44l6.89-6.04
							c0.62-0.54,1.25-0.33,1.41,0.48l1.09,5.49l1.58-1.39l-1.12-5.65c-0.35-1.78-1.74-2.25-3.11-1.05l-7.35,6.45
							C296.89,258.02,296.07,260.43,296.43,262.2z"/>
						<path class="st5" d="M308.28,251.88l-3.03-0.01l-8.14,7.93l-0.03,4.42l0.46,3.63l1.99,0.68l-0.29-4.54l-0.14-3.13l1.62-2.42
							c0,0,3.08-2.61,3.11-2.68C303.87,255.68,308.28,251.88,308.28,251.88z"/>
						<polygon class="st13" points="310.24,259.14 308.25,258.46 307.45,254.42 309.31,254.39 309.86,254.42 						"/>
						<path class="st77" d="M309.58,250.49l-2.16-0.73c0,0,0.62,0.97,0.63,0.96c0.01-0.01,0.7,0.15,0.72,0.15L309.58,250.49z"/>
						<path class="st2" d="M298.42,262.88l1.12,5.65l1.58-1.39l-1.09-5.49c-0.16-0.8,0.21-1.9,0.83-2.44l6.89-6.04
							c0.62-0.54,1.25-0.33,1.41,0.48l1.09,5.49l1.58-1.39l-1.12-5.65c-0.35-1.78-1.74-2.25-3.11-1.05l-7.35,6.45
							C298.88,258.7,298.07,261.1,298.42,262.88z"/>
					</g>
				</g>
			</g>
			<path class="st60" d="M305.47,247.58c0,0,1.65,5.59,1.4,7.04c-0.25,1.45-3.1,4.45-4.89,5.11c-1.8,0.66-1.2-1.34-1.7-2.52
				c-0.51-1.18-0.64-3.85-0.64-3.85L305.47,247.58z"/>
			<path class="st65" d="M299.64,253.36l5.84-5.78c0,0,0.34,1.15,0.69,2.54c0,0.01-2,4.43-6.09,6.46
				C299.74,255.28,299.64,253.36,299.64,253.36z"/>
			<path class="st2" d="M305.97,247.97c0,0-1.76,6.32-7.23,7.38l1.36-6.87c0,0,4.59-1.59,4.74-1.62
				C304.98,246.84,305.97,247.97,305.97,247.97z"/>
			
				<linearGradient id="SVGID_15_" gradientUnits="userSpaceOnUse" x1="-5459.0386" y1="215.1979" x2="-5416.9014" y2="215.1979" gradientTransform="matrix(-1 0 0 1 -5157.5171 0)">
				<stop  offset="0.3548" style="stop-color:#00A99D"/>
				<stop  offset="0.4601" style="stop-color:#04A297"/>
				<stop  offset="0.6095" style="stop-color:#109084"/>
				<stop  offset="0.7843" style="stop-color:#237167"/>
				<stop  offset="0.8925" style="stop-color:#315B51"/>
			</linearGradient>
			<path class="st37" d="M262.39,174.89c-3.85,15.82,11.75,37.88,14.26,44.35c2.51,6.47,24.68,34.69,24.68,34.69
				c-0.01,0.01-0.01,0.01-0.02,0.02c0.12,0.16,0.21,0.27,0.21,0.27c-0.39,0.31-0.85,0.66-1.21,0.88c-0.5,0.22-0.28,0.19-0.85,0.36
				l0,0c-0.41,0.11-0.84,0-1.15-0.32c-4.99-5.04-19.88-27.08-20.38-28.05c-0.53-1.04-10.64-19.5-13.18-23.64
				C262.71,200.14,255.3,183.68,262.39,174.89z"/>
		</g>
	</g>
	<path class="st79" d="M191.45,106.6v11.17c0,2.69-2.19,4.88-4.88,4.88H175.4c-2.69,0-4.88-2.19-4.88-4.88V106.6
		c0-2.69-2.19-4.88-4.88-4.88h-17.45c-2.68,0-4.88-2.19-4.88-4.88V79.4c0-2.69,2.19-4.88,4.88-4.88h17.45
		c2.69,0,4.88,2.19,4.88,4.88v17.45c0,2.69,2.19,4.88,4.88,4.88h11.17C189.25,101.72,191.45,103.92,191.45,106.6z"/>
	<path class="st79" d="M516.33,256.32v11.17c0,2.69-2.19,4.88-4.88,4.88h-11.17c-2.69,0-4.88-2.19-4.88-4.88v-11.17
		c0-2.69-2.19-4.88-4.88-4.88h-17.45c-2.68,0-4.88-2.19-4.88-4.88v-17.45c0-2.69,2.19-4.88,4.88-4.88h17.45
		c2.69,0,4.88,2.19,4.88,4.88v17.45c0,2.69,2.19,4.88,4.88,4.88h11.17C514.14,251.45,516.33,253.64,516.33,256.32z"/>
</g>
<g id="Layer_2">
</g>
<g id="Layer_3">
</g>
</svg>
