<?xml version="1.0" encoding="utf-8"?>
<!-- Generator: Adobe Illustrator 24.1.1, SVG Export Plug-In . SVG Version: 6.00 Build 0)  -->
<svg version="1.1" xmlns="http://www.w3.org/2000/svg" xmlns:xlink="http://www.w3.org/1999/xlink" x="0px" y="0px"
	 viewBox="0 0 81.72 71.12" style="enable-background:new 0 0 81.72 71.12;" xml:space="preserve">
<style type="text/css">
	.st0{fill:none;stroke:#F4F7F9;stroke-miterlimit:10;}
	.st1{fill:#F4F7F9;}
	.st2{fill:#315B51;}
	.st3{fill:#C8B34C;}
	.st4{fill:#B3B2B3;}
	.st5{fill:#2BB898;}
	.st6{fill:#D39241;}
	.st7{fill:#385BA6;}
	.st8{fill:#515151;}
	.st9{fill:#F4E8AA;}
	.st10{fill:#FAC86E;}
	.st11{fill:#F4F4F4;}
	.st12{fill:#AD9944;}
	.st13{fill:#00A99D;}
	.st14{fill:url(#SVGID_1_);}
	.st15{fill:#C4AF4C;}
	.st16{fill-rule:evenodd;clip-rule:evenodd;fill:#C4AF4C;}
	.st17{filter:url(#Adobe_OpacityMaskFilter);}
	.st18{fill:url(#SVGID_3_);}
	.st19{mask:url(#SVGID_2_);fill-rule:evenodd;clip-rule:evenodd;fill:#C4AF4C;}
	.st20{filter:url(#Adobe_OpacityMaskFilter_1_);}
	.st21{fill:url(#SVGID_5_);}
	.st22{mask:url(#SVGID_4_);fill-rule:evenodd;clip-rule:evenodd;fill:#F0E4A6;}
	.st23{filter:url(#Adobe_OpacityMaskFilter_2_);}
	.st24{fill:url(#SVGID_7_);}
	.st25{mask:url(#SVGID_6_);fill-rule:evenodd;clip-rule:evenodd;fill:#F0E4A6;}
	.st26{filter:url(#Adobe_OpacityMaskFilter_3_);}
	.st27{fill:url(#SVGID_9_);}
	.st28{mask:url(#SVGID_8_);fill-rule:evenodd;clip-rule:evenodd;fill:#F0E4A6;}
	.st29{filter:url(#Adobe_OpacityMaskFilter_4_);}
	.st30{fill:url(#SVGID_11_);}
	.st31{mask:url(#SVGID_10_);fill-rule:evenodd;clip-rule:evenodd;fill:#F0E4A6;}
	.st32{opacity:0.5;fill-rule:evenodd;clip-rule:evenodd;fill:#C4AF4C;}
	.st33{filter:url(#Adobe_OpacityMaskFilter_5_);}
	.st34{fill:url(#SVGID_13_);}
	.st35{mask:url(#SVGID_12_);fill-rule:evenodd;clip-rule:evenodd;fill:#C4AF4C;}
	.st36{filter:url(#Adobe_OpacityMaskFilter_6_);}
	.st37{fill:url(#SVGID_15_);}
	.st38{mask:url(#SVGID_14_);fill-rule:evenodd;clip-rule:evenodd;fill:#C4AF4C;}
	.st39{filter:url(#Adobe_OpacityMaskFilter_7_);}
	.st40{fill:url(#SVGID_17_);}
	.st41{mask:url(#SVGID_16_);fill-rule:evenodd;clip-rule:evenodd;fill:#F0E4A6;}
	.st42{fill-rule:evenodd;clip-rule:evenodd;fill:#315B51;}
	.st43{filter:url(#Adobe_OpacityMaskFilter_8_);}
	.st44{fill:url(#SVGID_19_);}
	.st45{mask:url(#SVGID_18_);fill-rule:evenodd;clip-rule:evenodd;fill:#2BB494;}
	.st46{fill:#AFAEAF;}
	.st47{fill:#FFFFFF;}
	.st48{fill:none;stroke:#FFFFFF;stroke-width:0.25;stroke-miterlimit:10;}
	.st49{fill:#333333;}
	.st50{fill:none;stroke:#CACACA;stroke-width:0.5;stroke-miterlimit:10;}
	.st51{opacity:0.3;}
	.st52{fill:url(#SVGID_20_);}
	.st53{fill:url(#SVGID_21_);}
	.st54{fill:url(#SVGID_22_);}
	.st55{fill:url(#SVGID_23_);}
	.st56{fill:url(#SVGID_24_);}
	.st57{fill:url(#SVGID_25_);}
	.st58{fill:#029385;}
	.st59{fill:#009183;}
	.st60{fill:#FCD1C5;}
	.st61{fill:url(#SVGID_26_);}
	.st62{fill:#F0F6FF;}
	.st63{fill:#AA8383;}
	.st64{fill:#C4CCD6;}
	.st65{fill:#E2B1A6;}
	.st66{fill:#1B2B3A;}
	.st67{fill:#936D6D;}
	.st68{fill:url(#SVGID_27_);}
	.st69{fill:url(#SVGID_28_);}
	.st70{fill:url(#SVGID_29_);}
	.st71{fill:url(#SVGID_30_);}
	.st72{fill:url(#SVGID_31_);}
	.st73{fill:#160A5B;}
	.st74{fill:url(#SVGID_32_);}
	.st75{fill:#722318;}
	.st76{fill:url(#SVGID_33_);}
	.st77{fill:#453C9E;}
	.st78{fill:url(#SVGID_34_);}
	.st79{fill:#DAE1E5;}
	.st80{fill:#E0E0E0;}
	.st81{filter:url(#Adobe_OpacityMaskFilter_9_);}
	.st82{fill:url(#SVGID_36_);}
	.st83{mask:url(#SVGID_35_);fill-rule:evenodd;clip-rule:evenodd;fill:#C4AF4C;}
	.st84{filter:url(#Adobe_OpacityMaskFilter_10_);}
	.st85{fill:url(#SVGID_38_);}
	.st86{mask:url(#SVGID_37_);fill-rule:evenodd;clip-rule:evenodd;fill:#F0E4A6;}
	.st87{filter:url(#Adobe_OpacityMaskFilter_11_);}
	.st88{fill:url(#SVGID_40_);}
	.st89{mask:url(#SVGID_39_);fill-rule:evenodd;clip-rule:evenodd;fill:#F0E4A6;}
	.st90{filter:url(#Adobe_OpacityMaskFilter_12_);}
	.st91{fill:url(#SVGID_42_);}
	.st92{mask:url(#SVGID_41_);fill-rule:evenodd;clip-rule:evenodd;fill:#F0E4A6;}
	.st93{filter:url(#Adobe_OpacityMaskFilter_13_);}
	.st94{fill:url(#SVGID_44_);}
	.st95{mask:url(#SVGID_43_);fill-rule:evenodd;clip-rule:evenodd;fill:#F0E4A6;}
	.st96{filter:url(#Adobe_OpacityMaskFilter_14_);}
	.st97{fill:url(#SVGID_46_);}
	.st98{mask:url(#SVGID_45_);fill-rule:evenodd;clip-rule:evenodd;fill:#C4AF4C;}
	.st99{filter:url(#Adobe_OpacityMaskFilter_15_);}
	.st100{fill:url(#SVGID_48_);}
	.st101{mask:url(#SVGID_47_);fill-rule:evenodd;clip-rule:evenodd;fill:#C4AF4C;}
	.st102{fill:none;stroke:#2BB797;stroke-width:1.16;stroke-linecap:round;stroke-linejoin:round;stroke-miterlimit:10;}
	.st103{fill-rule:evenodd;clip-rule:evenodd;fill:none;stroke:#C6C6C6;stroke-width:0.5;stroke-miterlimit:10;}
	.st104{fill-rule:evenodd;clip-rule:evenodd;fill:none;stroke:#C6C6C6;stroke-width:0.75;stroke-miterlimit:10;}
	.st105{fill:#2BB797;}
	.st106{fill:#2BB797;stroke:#2BB797;stroke-width:0.7684;stroke-miterlimit:10;}
	.st107{clip-path:url(#SVGID_50_);fill:#BBBBBB;}
	.st108{clip-path:url(#SVGID_50_);fill:#959595;}
	.st109{clip-path:url(#SVGID_50_);}
	.st110{fill:#959595;}
	.st111{fill:#BBBBBB;}
	.st112{fill:none;stroke:#C6C6C6;stroke-width:0.5;stroke-miterlimit:10;}
	.st113{clip-path:url(#SVGID_52_);}
	.st114{fill-rule:evenodd;clip-rule:evenodd;fill:none;stroke:#C9C9C9;stroke-width:0.5;stroke-miterlimit:10;}
	.st115{fill:#B2B1B2;}
	.st116{fill:#4D4D4D;}
	.st117{fill:#A5CFE3;}
	.st118{fill:url(#);}
	.st119{fill:#9F9F9F;}
	.st120{opacity:0.3;fill:url(#XMLID_64_);}
	.st121{fill:#35160D;}
	.st122{fill:#FCC082;}
	.st123{opacity:0.5;fill:#FCC082;}
	.st124{fill:#221001;}
	.st125{fill:url(#XMLID_65_);}
	.st126{enable-background:new    ;}
	.st127{fill:#1E1B1C;}
	.st128{fill:#0F0B0C;}
	.st129{fill:#4B4949;}
	.st130{opacity:0.3;fill:url(#XMLID_66_);}
	.st131{fill:url(#XMLID_67_);}
	.st132{fill-rule:evenodd;clip-rule:evenodd;fill:none;stroke:#CACACA;stroke-width:0.5;stroke-miterlimit:10;}
	.st133{fill:#249373;}
	.st134{fill:none;stroke:#249373;stroke-miterlimit:10;}
	.st135{fill:#E2CA49;}
	.st136{fill:none;stroke:#E2CA49;stroke-miterlimit:10;}
	.st137{fill:#3C3C3B;}
	.st138{fill:none;stroke:#000000;stroke-miterlimit:10;}
	.st139{fill:url(#SVGID_53_);}
	.st140{fill:url(#SVGID_54_);}
	.st141{fill:url(#SVGID_55_);}
	.st142{fill:url(#SVGID_56_);}
	.st143{fill:url(#SVGID_57_);}
	.st144{fill:url(#SVGID_58_);}
	.st145{fill:url(#SVGID_59_);}
	.st146{fill:url(#SVGID_60_);}
	.st147{fill:url(#SVGID_61_);}
	.st148{fill:url(#SVGID_62_);}
	.st149{fill:url(#SVGID_63_);}
	.st150{fill:url(#SVGID_64_);}
	.st151{fill:url(#SVGID_65_);}
	.st152{fill:url(#SVGID_66_);}
	.st153{fill:url(#SVGID_67_);}
	.st154{fill:#8E8E8E;}
	.st155{clip-path:url(#SVGID_69_);fill:#E2E4E6;}
	.st156{clip-path:url(#SVGID_71_);fill:#E2E4E6;}
	.st157{clip-path:url(#SVGID_73_);fill:#E2E4E6;}
</style>
<g id="Layer_1">
	<path class="st154" d="M3.87,59.95c-0.01,0.16-0.07,0.44-0.18,0.84s-0.27,0.85-0.45,1.34c-0.19,0.48-0.35,0.85-0.49,1.09
		c-0.14,0.25-0.3,0.43-0.47,0.56c-0.17,0.13-0.44,0.25-0.82,0.35c-0.38,0.11-0.68,0.18-0.91,0.22c-0.23,0.04-0.37,0.06-0.43,0.06
		C0.05,64.4,0.02,64.38,0,64.34s0.01-0.09,0.05-0.16c0.07-0.1,0.23-0.23,0.49-0.38c0.26-0.16,0.57-0.36,0.92-0.59
		c0.35-0.24,0.6-0.45,0.75-0.62s0.32-0.45,0.5-0.8c0.19-0.36,0.36-0.71,0.51-1.08c0.15-0.36,0.26-0.61,0.32-0.74
		c0.07-0.13,0.14-0.2,0.21-0.19C3.83,59.78,3.87,59.84,3.87,59.95z M6.94,62c-0.21,0.56-0.4,0.97-0.58,1.23
		c-0.18,0.26-0.32,0.43-0.42,0.49s-0.25,0.13-0.45,0.2c-0.2,0.07-0.51,0.17-0.92,0.3c-0.41,0.13-0.66,0.19-0.73,0.19
		c-0.05,0-0.07-0.01-0.07-0.03c-0.05-0.06,0.2-0.27,0.74-0.62c0.54-0.35,0.89-0.58,1.05-0.69c0.16-0.11,0.32-0.27,0.48-0.48
		c0.16-0.21,0.28-0.45,0.36-0.71c-0.08-0.01-0.17,0-0.25,0.05C6.05,61.97,5.96,62,5.88,62c-0.22-0.01-0.4-0.07-0.55-0.21
		c-0.15-0.13-0.21-0.28-0.19-0.44c0.02-0.1,0.06-0.21,0.1-0.34c0.04-0.13,0.14-0.33,0.28-0.62c0.14-0.28,0.29-0.51,0.43-0.7
		c0.15-0.18,0.29-0.28,0.43-0.28c0.24,0,0.45,0.1,0.61,0.3c0.16,0.2,0.24,0.44,0.24,0.72c0,0.14-0.01,0.29-0.03,0.43
		c-0.02,0.14-0.04,0.26-0.06,0.35c-0.02,0.09-0.05,0.22-0.09,0.36C7.03,61.73,6.98,61.87,6.94,62z M6.51,55.22
		c0-0.07,0.13-0.33,0.38-0.78c0.25-0.45,0.41-0.68,0.47-0.68c0.09,0,0.24,0.08,0.45,0.25c0.2,0.17,0.34,0.32,0.41,0.47
		c0.13-0.21,0.25-0.41,0.37-0.6c0.17-0.28,0.28-0.41,0.32-0.41c0.14,0,0.32,0.1,0.54,0.29c0.21,0.22,0.32,0.42,0.32,0.6
		c0,0.21-0.11,0.48-0.32,0.79c-0.22,0.3-0.38,0.46-0.47,0.46c-0.08,0-0.19-0.07-0.33-0.22c-0.2-0.2-0.36-0.35-0.49-0.44
		c-0.33,0.64-0.58,0.96-0.77,0.96c-0.04,0-0.2-0.11-0.48-0.32C6.65,55.38,6.51,55.26,6.51,55.22z M10.45,59.88
		c-0.08,0.08-0.17,0.15-0.25,0.21c-0.09,0.06-0.21,0.1-0.36,0.14c-0.34,0.25-0.57,0.39-0.7,0.42c-0.05,0.02-0.15,0.04-0.3,0.07
		c-0.15,0.03-0.21,0.04-0.19,0.04l-0.29,0.16l-0.19,0.05c-0.14,0.05-0.24,0.08-0.3,0.11c-0.12,0.05-0.29,0.13-0.48,0.22l-0.11,0.07
		c-0.11,0.06-0.19,0.1-0.24,0.1c-0.07-0.07-0.13-0.14-0.18-0.21c-0.05-0.07-0.08-0.14-0.1-0.22c-0.02-0.08-0.01-0.16,0.01-0.25
		c0.02-0.09,0.08-0.19,0.17-0.29c0.05-0.03,0.12-0.05,0.2-0.06c0.04,0,0.07,0,0.11,0c0.04,0,0.07,0,0.11,0
		c0.15,0,0.28-0.02,0.39-0.06S7.94,60.3,8,60.25c0.06-0.05,0.12-0.12,0.16-0.21c0.05-0.09,0.08-0.13,0.1-0.14
		c0.04-0.02,0.08-0.01,0.12,0.05c0.05,0.06,0.09,0.09,0.13,0.09c0.21,0.02,0.36-0.07,0.45-0.26s0.16-0.29,0.19-0.29
		c0.19,0.14,0.33,0.18,0.43,0.12c0.08-0.03,0.21-0.19,0.41-0.47c0.03,0,0.06,0.01,0.09,0.02c0.03,0.01,0.07,0.03,0.13,0.07
		c0.12-0.03,0.2-0.05,0.23-0.07c0.02,0.05,0.04,0.11,0.06,0.19c0.02,0.08,0.03,0.13,0.03,0.15c0,0.09-0.01,0.16-0.02,0.2
		C10.51,59.75,10.49,59.81,10.45,59.88z M7.32,53.08c0-0.06,0.11-0.31,0.33-0.76c0.22-0.45,0.37-0.68,0.43-0.68
		c0.17,0,0.35,0.1,0.55,0.29c0.2,0.22,0.3,0.43,0.3,0.63c0,0.19-0.09,0.45-0.28,0.78c-0.19,0.33-0.32,0.5-0.41,0.5
		c-0.05,0-0.17-0.08-0.36-0.24c-0.18-0.16-0.33-0.27-0.42-0.34C7.37,53.2,7.32,53.14,7.32,53.08z M10.45,59.15
		c0.05-0.03,0.12-0.09,0.21-0.2c0.08-0.12,0.15-0.24,0.2-0.34c0.12-0.26,0.19-0.64,0.19-1.13l-0.02-1.18c0-0.34,0.01-0.58,0.02-0.71
		c0.01-0.21,0.04-0.37,0.09-0.47l0.65-1.57c0.02-0.07,0.06-0.08,0.1-0.04c0.01,0.03,0.02,0.08,0.02,0.15c0-0.03-0.01,0.17-0.02,0.62
		c-0.04,0.3-0.07,0.66-0.07,1.06c0,0.18,0,0.35,0,0.52c0,0.17,0,0.33,0,0.48c0,0.26-0.04,0.64-0.13,1.14
		c-0.09,0.51-0.2,0.9-0.32,1.18c-0.12,0.29-0.27,0.54-0.45,0.75c-0.04,0.05-0.19,0.21-0.45,0.47c-0.06-0.12-0.09-0.24-0.08-0.36
		C10.38,59.39,10.4,59.27,10.45,59.15z M12.63,52.25c0.27-0.29,0.85-0.77,1.72-1.45c0.39-0.3,0.77-0.6,1.16-0.9
		c0.39-0.3,0.78-0.61,1.17-0.92c0.59-0.48,1.12-0.93,1.6-1.35c0.18-0.16,0.69-0.63,1.54-1.42c0.84-0.79,1.27-1.19,1.27-1.22
		c0,0.05-0.01,0.1-0.04,0.16c-0.04,0.14-0.15,0.39-0.35,0.74c-0.2,0.33-0.36,0.57-0.5,0.74c-0.15,0.2-0.36,0.45-0.62,0.73
		c-0.2,0.22-0.38,0.4-0.53,0.55c-0.16,0.16-0.47,0.43-0.93,0.84c-0.17,0.14-0.37,0.31-0.62,0.52c-0.25,0.21-0.53,0.45-0.86,0.71
		c-0.47,0.39-0.89,0.71-1.24,0.96c-0.24,0.19-0.49,0.37-0.73,0.55c-0.24,0.18-0.48,0.35-0.72,0.53l-1.26,0.96
		c-0.12,0.09-0.29,0.22-0.52,0.4c-0.17,0.13-0.26,0.17-0.29,0.13c0.08-0.21,0.19-0.44,0.33-0.71
		C12.34,52.57,12.48,52.39,12.63,52.25z M25.01,61.19c-0.04,0.14-0.07,0.28-0.11,0.44c-0.04,0.13-0.09,0.29-0.18,0.48
		c-0.08,0.18-0.17,0.3-0.27,0.38c-0.09,0.09-0.17,0.11-0.22,0.07c0.01-0.29,0.03-0.6,0.06-0.93c0.04-0.33,0.07-0.61,0.11-0.86
		c0-0.04-0.01-0.06-0.02-0.07c-0.02-0.01-0.05,0-0.07,0.03c-0.11,0.15-0.19,0.26-0.24,0.32c-0.19,0.26-0.36,0.48-0.5,0.67
		c-0.36,0.44-0.81,0.85-1.37,1.25c-0.55,0.39-1.13,0.7-1.74,0.92c-0.62,0.22-1.33,0.41-2.11,0.57c-0.77,0.16-1.58,0.24-2.44,0.24
		h-0.27c-0.49,0-0.91-0.03-1.28-0.09c-0.52-0.09-0.88-0.25-1.06-0.47c-0.19-0.22-0.29-0.55-0.3-0.99c0.01-0.38,0.03-0.78,0.08-1.21
		c0.05-0.42,0.13-0.61,0.25-0.56c0.04,0,0.06,0.11,0.08,0.34c0.02,0.23,0.11,0.43,0.27,0.61c0.33,0.35,1.13,0.53,2.39,0.53
		c0.68,0,1.23-0.02,1.65-0.05c1.98-0.16,3.61-0.63,4.88-1.4c0.59-0.33,1.05-0.74,1.4-1.21c0.24-0.34,0.44-0.77,0.6-1.3l0.25-1.01
		c0.03-0.12,0.17-0.42,0.42-0.9c0.07-0.16,0.13-0.28,0.19-0.39s0.09-0.18,0.12-0.22c0.03-0.07,0.07-0.11,0.12-0.12
		c0.05-0.01,0.07,0.04,0.06,0.15c-0.06,0.24-0.1,0.44-0.13,0.6c-0.34,1.68-0.52,2.75-0.55,3.23C25.03,60.66,25.01,60.98,25.01,61.19
		z M26.51,54.86c0.3-0.28,0.87-0.76,1.71-1.45c0.39-0.29,1.21-0.95,2.48-1.99s2.28-1.92,3.05-2.66c0.77-0.74,1.18-1.13,1.22-1.16
		c0.07-0.03,0.09,0.01,0.06,0.13c-0.12,0.2-0.26,0.46-0.44,0.77c-0.15,0.26-0.33,0.51-0.52,0.74c-0.21,0.26-0.42,0.51-0.63,0.73
		c-0.3,0.31-0.65,0.65-1.05,1.01c-0.41,0.36-1.21,1.02-2.42,1.98c-1.2,0.95-2.2,1.72-2.99,2.31c-0.79,0.59-1.2,0.87-1.22,0.83
		c-0.11-0.02-0.01-0.25,0.29-0.7C26.18,55.21,26.33,55.02,26.51,54.86z M24.05,70.44c0-0.07,0.12-0.33,0.37-0.78
		c0.24-0.44,0.39-0.66,0.44-0.66c0.1-0.04,0.25,0.03,0.44,0.21c0.19,0.18,0.34,0.34,0.44,0.48c0.12-0.19,0.25-0.4,0.4-0.64
		s0.24-0.35,0.29-0.35c0.15,0,0.32,0.11,0.53,0.31c0.2,0.21,0.31,0.41,0.32,0.59c0,0.22-0.11,0.48-0.33,0.78
		c-0.21,0.29-0.37,0.44-0.47,0.44c-0.07,0-0.18-0.08-0.36-0.25c-0.17-0.17-0.32-0.3-0.45-0.39c-0.32,0.63-0.58,0.94-0.77,0.94
		c-0.05,0-0.12-0.04-0.2-0.11c-0.08-0.07-0.21-0.17-0.39-0.31C24.14,70.56,24.05,70.47,24.05,70.44z M28.11,62.62
		c-0.18-0.03-0.31-0.03-0.4,0c-0.31,0.1-0.63,0.42-0.95,0.97c-0.35,0.55-0.74,0.83-1.17,0.83c-0.44-0.03-0.77-0.23-1-0.58
		s-0.34-0.78-0.35-1.29c0.1-0.33,0.21-0.62,0.34-0.87c0.12-0.24,0.27-0.41,0.44-0.5c0,0.57,0.15,0.99,0.44,1.25
		c0.22,0.19,0.47,0.28,0.77,0.28c0.4,0,0.74-0.17,1-0.52c0.2-0.25,0.36-0.43,0.5-0.54s0.27-0.16,0.4-0.16
		c0.01,0.02,0.03,0.11,0.06,0.25c0.03,0.14,0.04,0.27,0.04,0.37c0,0.11-0.01,0.21-0.04,0.28C28.16,62.46,28.14,62.54,28.11,62.62z
		 M28.11,61.49c0.32,0.13,0.53,0.14,0.63,0.02c0.01-0.01,0.13-0.18,0.35-0.5c0.06-0.09,0.1-0.14,0.12-0.14
		c0.04,0,0.06,0.02,0.06,0.06c0.01,0.05-0.01,0.12-0.03,0.23s-0.08,0.28-0.16,0.53c-0.08,0.24-0.2,0.47-0.37,0.68
		c-0.17,0.21-0.37,0.29-0.6,0.25c-0.08-0.2-0.11-0.39-0.11-0.58S28.04,61.67,28.11,61.49z M28.9,56.53c0-0.07,0.12-0.33,0.36-0.78
		c0.24-0.44,0.39-0.66,0.45-0.66c0.1-0.04,0.25,0.03,0.44,0.21c0.19,0.18,0.34,0.34,0.44,0.48c0.12-0.19,0.25-0.4,0.4-0.64
		c0.15-0.24,0.24-0.35,0.29-0.35c0.15,0,0.32,0.11,0.53,0.31c0.2,0.21,0.31,0.41,0.32,0.59c0,0.22-0.11,0.48-0.33,0.78
		c-0.21,0.29-0.37,0.44-0.47,0.44c-0.07,0-0.18-0.08-0.36-0.25c-0.17-0.17-0.32-0.3-0.45-0.39c-0.32,0.63-0.58,0.94-0.77,0.94
		c-0.05,0-0.12-0.04-0.2-0.11c-0.08-0.07-0.21-0.17-0.39-0.31C28.99,56.66,28.9,56.57,28.9,56.53z M31.63,61.17
		c-0.01,0.22-0.04,0.42-0.07,0.59c-0.04,0.17-0.08,0.32-0.14,0.45c-0.06,0.12-0.14,0.22-0.23,0.28c-0.09,0.06-0.2,0.08-0.33,0.06
		c0.01-0.45,0.05-1.07,0.15-1.87c0.09-0.8,0.23-1.69,0.41-2.66c0.09-0.28,0.29-0.78,0.58-1.49c0.03-0.07,0.06-0.1,0.09-0.09
		c0.03,0.01,0.05,0.04,0.05,0.09c-0.02,0.35-0.09,1.02-0.22,2.01c-0.13,0.99-0.21,1.66-0.24,2.03
		C31.65,60.93,31.63,61.13,31.63,61.17z M31.63,61.47c0,0.38,0.08,0.66,0.24,0.85c0.15,0.2,0.32,0.29,0.53,0.29
		c0.04-0.01,0.09-0.15,0.18-0.43c0.09-0.28,0.16-0.44,0.22-0.5c0.14-0.05,0.26,0.01,0.36,0.18c0.09,0.18,0.14,0.33,0.15,0.45
		c0,0.43-0.09,0.86-0.28,1.27c-0.27,0.55-0.63,0.83-1.08,0.83c-0.26,0-0.47-0.1-0.66-0.29c-0.18-0.2-0.3-0.41-0.35-0.65
		c-0.05-0.25-0.07-0.56-0.07-0.93c0-0.16,0.03-0.32,0.08-0.49c0.05-0.17,0.11-0.33,0.19-0.47c0.08-0.14,0.16-0.25,0.25-0.33
		c0.09-0.08,0.17-0.11,0.24-0.09V61.47z M37.09,59.95c-0.01,0.16-0.07,0.44-0.18,0.84c-0.12,0.41-0.27,0.85-0.45,1.34
		c-0.19,0.48-0.35,0.85-0.49,1.09c-0.14,0.25-0.3,0.43-0.47,0.56c-0.17,0.13-0.44,0.25-0.82,0.35c-0.38,0.11-0.68,0.18-0.91,0.22
		c-0.23,0.04-0.37,0.06-0.43,0.06c-0.06-0.01-0.09-0.03-0.11-0.07s0.01-0.09,0.05-0.16c0.07-0.1,0.23-0.23,0.49-0.38
		c0.26-0.16,0.57-0.36,0.92-0.59c0.35-0.24,0.6-0.45,0.75-0.62c0.15-0.18,0.32-0.45,0.5-0.8c0.19-0.36,0.36-0.71,0.51-1.08
		c0.15-0.36,0.26-0.61,0.32-0.74c0.07-0.13,0.14-0.2,0.21-0.19C37.05,59.78,37.09,59.84,37.09,59.95z M40.16,62
		c-0.21,0.56-0.4,0.97-0.58,1.23s-0.32,0.43-0.42,0.49c-0.1,0.06-0.25,0.13-0.45,0.2c-0.2,0.07-0.51,0.17-0.92,0.3
		c-0.41,0.13-0.66,0.19-0.73,0.19c-0.05,0-0.07-0.01-0.07-0.03c-0.05-0.06,0.2-0.27,0.74-0.62c0.54-0.35,0.89-0.58,1.05-0.69
		c0.16-0.11,0.32-0.27,0.48-0.48c0.16-0.21,0.28-0.45,0.36-0.71c-0.08-0.01-0.17,0-0.25,0.05C39.27,61.97,39.18,62,39.1,62
		c-0.22-0.01-0.4-0.07-0.55-0.21c-0.15-0.13-0.21-0.28-0.19-0.44c0.02-0.1,0.06-0.21,0.1-0.34c0.04-0.13,0.14-0.33,0.28-0.62
		c0.14-0.28,0.29-0.51,0.43-0.7s0.29-0.28,0.43-0.28c0.24,0,0.45,0.1,0.61,0.3c0.16,0.2,0.24,0.44,0.24,0.72
		c0,0.14-0.01,0.29-0.03,0.43c-0.02,0.14-0.04,0.26-0.06,0.35c-0.02,0.09-0.05,0.22-0.09,0.36C40.25,61.73,40.21,61.87,40.16,62z
		 M39.67,54.64c0-0.13,0.11-0.4,0.33-0.82c0.22-0.42,0.37-0.63,0.43-0.63c0.13-0.05,0.32,0.04,0.57,0.29
		c0.25,0.24,0.38,0.43,0.4,0.57c0,0.18-0.1,0.45-0.31,0.79c-0.21,0.34-0.36,0.52-0.45,0.52c-0.04-0.02-0.16-0.09-0.37-0.23
		c-0.21-0.14-0.37-0.24-0.47-0.31C39.71,54.76,39.67,54.7,39.67,54.64z M43.56,60.29c-0.17,0.14-0.37,0.25-0.61,0.33
		c-0.27,0.1-0.6,0.13-1.01,0.09c-0.08,0-0.47,0.16-1.15,0.49l-0.56,0.3c-0.08-0.04-0.15-0.08-0.2-0.13
		c-0.15-0.41-0.17-0.63-0.06-0.68c0.05-0.03,0.11-0.07,0.17-0.09c0.12-0.03,0.29-0.09,0.48-0.16c0.2-0.07,0.3-0.12,0.3-0.16
		c-0.04-0.06-0.05-0.13-0.05-0.22c0.01-0.07,0.04-0.17,0.09-0.28c0.08-0.21,0.23-0.51,0.45-0.9c0.14-0.25,0.31-0.48,0.52-0.67
		c0.21-0.19,0.39-0.28,0.52-0.28c0.21,0,0.38,0.08,0.51,0.25c0.12,0.16,0.18,0.37,0.18,0.64c0,0.24-0.03,0.45-0.1,0.63
		c-0.07,0.19-0.11,0.3-0.13,0.35l0.11-0.02c0.23-0.06,0.41-0.13,0.54-0.22c0.02,0.03,0.04,0.08,0.08,0.15
		c0.02,0.07,0.04,0.12,0.04,0.15c0,0.03-0.01,0.1-0.04,0.21c-0.02,0.04-0.03,0.08-0.04,0.12C43.58,60.22,43.57,60.26,43.56,60.29z
		 M42.7,59.37c0-0.1-0.06-0.19-0.18-0.28c-0.13-0.08-0.26-0.12-0.4-0.12c-0.13,0-0.27,0.07-0.42,0.22
		c-0.16,0.14-0.24,0.25-0.24,0.33c0,0.13,0.05,0.22,0.16,0.28c0.09,0.06,0.2,0.09,0.33,0.09c0.22,0,0.4-0.06,0.54-0.18
		C42.63,59.58,42.7,59.47,42.7,59.37z M43.56,59.57c0.14-0.1,0.26-0.22,0.37-0.36c0.11-0.14,0.16-0.29,0.16-0.43v-0.57
		c0-0.14,0.02-0.29,0.07-0.46c0.08-0.23,0.17-0.44,0.26-0.63l0.37-0.85c0.01-0.04,0.04-0.09,0.09-0.14c0.02,0,0.04,0.06,0.04,0.18
		l-0.02,0.61l-0.04,0.74c0,0.26-0.05,0.55-0.16,0.88c-0.1,0.33-0.23,0.62-0.39,0.87c-0.24,0.39-0.49,0.68-0.74,0.88
		c-0.03-0.13-0.05-0.25-0.06-0.37C43.48,59.8,43.5,59.68,43.56,59.57z M44.23,51.87c0-0.13,0.11-0.4,0.33-0.82
		c0.22-0.42,0.37-0.63,0.43-0.63c0.13-0.05,0.32,0.04,0.57,0.29c0.25,0.24,0.38,0.43,0.4,0.57c0,0.18-0.1,0.45-0.31,0.79
		s-0.36,0.52-0.45,0.52c-0.04-0.02-0.16-0.09-0.37-0.23c-0.21-0.14-0.37-0.24-0.47-0.31C44.28,52,44.23,51.94,44.23,51.87z
		 M47.06,59.57c-0.01,0.41-0.02,0.79-0.03,1.12c-0.01,0.33-0.02,0.61-0.05,0.84c-0.05,0.49-0.14,0.93-0.29,1.31
		c-0.15,0.38-0.27,0.64-0.35,0.76c-0.09,0.13-0.16,0.22-0.21,0.28c-0.07,0.06-0.12,0.08-0.15,0.06c-0.04-0.02-0.05-0.05-0.04-0.1
		c0-0.01,0.04-0.19,0.11-0.52c0.07-0.34,0.12-0.66,0.13-0.98c0.02-0.32,0.02-0.76,0.01-1.34c-0.01-0.58,0-1.02,0.04-1.32
		c0.02-0.18,0.06-0.36,0.12-0.55c0.06-0.19,0.12-0.38,0.19-0.56c0.07-0.18,0.15-0.36,0.23-0.52s0.15-0.31,0.22-0.43
		c0.05-0.08,0.1-0.11,0.14-0.09s0.06,0.05,0.05,0.09c-0.01,0.05-0.02,0.15-0.04,0.32c-0.02,0.17-0.03,0.36-0.04,0.57
		c-0.01,0.21-0.02,0.42-0.03,0.62C47.07,59.32,47.06,59.47,47.06,59.57z M54.22,63.23c0-0.1-0.21-0.24-0.64-0.43
		c-0.43-0.2-0.65-0.43-0.65-0.71c0-0.2,0.05-0.43,0.14-0.68c0.09-0.26,0.2-0.5,0.33-0.73c0.02-0.04,0.06-0.07,0.11-0.09
		c0.05-0.02,0.1-0.03,0.15-0.03c0.05,0,0.1,0.01,0.14,0.03c0.04,0.02,0.07,0.05,0.07,0.09c0,0.08,0.07,0.16,0.2,0.24
		c0.13,0.08,0.27,0.17,0.41,0.26c0.14,0.09,0.23,0.2,0.29,0.32c0.06,0.13,0.09,0.33,0.09,0.59c0,0.38-0.05,0.77-0.15,1.16
		c-0.1,0.39-0.29,0.86-0.56,1.43c-0.43,0.88-1.02,1.58-1.76,2.1c-0.27,0.17-0.54,0.29-0.8,0.38c-0.29,0.09-0.59,0.14-0.92,0.14
		c-0.76,0-1.35-0.28-1.76-0.83c-0.35-0.47-0.53-1.07-0.53-1.81c0-0.33,0.07-0.76,0.21-1.28c0.14-0.51,0.29-0.95,0.45-1.33
		c0.17-0.39,0.31-0.71,0.43-0.97c0.04-0.06,0.09-0.16,0.15-0.29s0.15-0.3,0.25-0.5c0.07-0.13,0.14-0.24,0.19-0.34
		c0.06-0.1,0.1-0.2,0.14-0.28c0.09-0.16,0.16-0.23,0.2-0.22c0.07,0.01,0.08,0.08,0.05,0.2c-0.03,0.14-0.07,0.27-0.12,0.37
		c-0.42,0.94-0.71,1.6-0.87,1.97c-0.28,0.68-0.42,1.21-0.42,1.58c0,0.71,0.23,1.21,0.68,1.52c0.33,0.21,0.76,0.32,1.29,0.32
		c0.95,0,1.74-0.26,2.39-0.78C53.95,64.18,54.22,63.72,54.22,63.23z M53.87,60.67c0,0.06-0.02,0.11-0.08,0.13
		c-0.05,0.02-0.1,0.03-0.16,0.03c-0.06-0.01-0.11-0.02-0.16-0.05c-0.05-0.03-0.08-0.06-0.08-0.11c0.23-0.33,0.39-0.61,0.49-0.83
		c0.14-0.25,0.2-0.54,0.2-0.88v-0.83c0-0.24,0-0.42,0.01-0.57c0.01-0.21,0.04-0.39,0.08-0.56c0.18-0.47,0.3-0.75,0.34-0.84
		c0.04-0.09,0.12-0.26,0.23-0.5c0.11-0.24,0.18-0.37,0.21-0.37c0.02,0,0.03,0.01,0.04,0.03c0.01,0.02,0.02,0.07,0.02,0.17l-0.07,1
		l-0.04,1.58c0,0.17-0.05,0.41-0.16,0.72c-0.12,0.36-0.33,0.83-0.63,1.42L53.87,60.67z M56.51,61.17c-0.01,0.22-0.04,0.42-0.07,0.59
		c-0.04,0.17-0.08,0.32-0.14,0.45c-0.06,0.12-0.14,0.22-0.23,0.28c-0.09,0.06-0.2,0.08-0.33,0.06c0.01-0.45,0.05-1.07,0.15-1.87
		s0.23-1.69,0.41-2.66c0.09-0.28,0.29-0.78,0.58-1.49c0.03-0.07,0.06-0.1,0.09-0.09c0.03,0.01,0.05,0.04,0.05,0.09
		c-0.02,0.35-0.09,1.02-0.22,2.01c-0.13,0.99-0.21,1.66-0.24,2.03C56.53,60.93,56.51,61.13,56.51,61.17z M57.24,64.42
		c-0.53,0-0.93-0.2-1.18-0.6c-0.21-0.33-0.31-0.75-0.31-1.27c0.02-0.12,0.05-0.26,0.09-0.4c0.04-0.15,0.09-0.29,0.15-0.43
		c0.06-0.14,0.14-0.26,0.22-0.36c0.09-0.1,0.19-0.16,0.31-0.19c0,0.44,0.05,0.77,0.16,1.01c0.08,0.16,0.21,0.27,0.39,0.34
		c0.18,0.07,0.37,0.09,0.57,0.07c0.08-0.21,0.16-0.42,0.24-0.62c0.01-0.02,0.11-0.25,0.3-0.69c0.15-0.3,0.31-0.56,0.5-0.76
		c0.28-0.29,0.59-0.44,0.93-0.44c0.16,0,0.29,0.03,0.4,0.08c0.11,0.05,0.18,0.14,0.22,0.27c0.01,0.12-0.02,0.22-0.1,0.29
		s-0.14,0.11-0.19,0.11c-0.01,0-0.08-0.02-0.22-0.05s-0.26-0.05-0.37-0.05c-0.25,0-0.48,0.11-0.67,0.33
		c-0.19,0.22-0.29,0.41-0.29,0.57c0,0.13,0.06,0.27,0.19,0.4c0.13,0.14,0.3,0.2,0.52,0.2c0.28-0.01,0.56-0.21,0.84-0.6
		c0.06-0.09,0.15-0.24,0.26-0.43c0.12-0.2,0.21-0.28,0.28-0.25c0.07,0.02,0.06,0.13,0,0.31c-0.07,0.19-0.18,0.43-0.33,0.74
		c-0.22,0.42-0.46,0.82-0.73,1.17C58.76,64,58.05,64.42,57.24,64.42z M70.01,57.42c-0.02,0.14-0.06,0.28-0.11,0.42
		c-0.05,0.14-0.13,0.32-0.25,0.56c-0.12,0.24-0.19,0.38-0.21,0.41c-0.09,0.14-0.18,0.22-0.25,0.22c-0.05-0.03-0.1-0.07-0.14-0.1
		s-0.08-0.05-0.12-0.05c-0.15,0-0.34,0.06-0.59,0.18s-0.51,0.31-0.8,0.56c-0.29,0.26-0.52,0.5-0.68,0.72
		c-0.16,0.22-0.24,0.38-0.24,0.47c0,0.13,0.04,0.22,0.12,0.29c0.07,0.05,0.2,0.11,0.38,0.18c0.18,0.07,0.3,0.13,0.36,0.17
		c0.2,0.13,0.29,0.39,0.29,0.78c0,0.53-0.1,1.14-0.31,1.83c-0.21,0.69-0.48,1.28-0.82,1.79c-0.17,0.24-0.37,0.47-0.61,0.71
		c-0.23,0.24-0.48,0.44-0.75,0.6c-0.51,0.33-1.1,0.49-1.76,0.49c-0.75-0.01-1.33-0.26-1.72-0.74c-0.18-0.25-0.3-0.51-0.37-0.78
		c-0.07-0.28-0.1-0.54-0.1-0.78c0-0.32,0.02-0.62,0.07-0.93c0.05-0.3,0.12-0.6,0.22-0.91c0.15-0.49,0.34-0.97,0.56-1.43
		s0.4-0.83,0.53-1.11l0.42-0.86c0.05-0.1,0.1-0.19,0.15-0.28c0.05-0.09,0.1-0.14,0.14-0.14c0.06,0,0.09,0.05,0.09,0.14
		c0,0.09-0.01,0.16-0.03,0.21c-0.07,0.17-0.12,0.31-0.17,0.42c-0.05,0.11-0.12,0.27-0.21,0.49c-0.09,0.21-0.2,0.44-0.31,0.69
		c-0.11,0.25-0.2,0.45-0.27,0.61c-0.35,0.9-0.53,1.57-0.53,2.02c0,0.47,0.17,0.84,0.52,1.12s0.83,0.41,1.46,0.41
		c0.52,0,1.03-0.12,1.51-0.35c0.36-0.18,0.66-0.39,0.91-0.65c0.24-0.25,0.43-0.49,0.56-0.71c0.13-0.22,0.19-0.42,0.19-0.6
		c0-0.11-0.09-0.19-0.25-0.24c-0.17-0.05-0.29-0.09-0.37-0.1c-0.07-0.02-0.16-0.05-0.25-0.09c-0.18-0.09-0.32-0.19-0.42-0.32
		c-0.09-0.13-0.14-0.31-0.14-0.53c0-0.34,0.11-0.77,0.34-1.29c0.23-0.52,0.55-1.04,0.97-1.54c0.34-0.41,0.65-0.75,0.93-1.01
		c0.15-0.13,0.34-0.28,0.57-0.45c0.23-0.17,0.46-0.31,0.68-0.43c0.27-0.15,0.48-0.24,0.63-0.26c0.06,0,0.11,0.03,0.13,0.08
		C70.01,57.33,70.02,57.38,70.01,57.42z M71.71,56.98c-0.01,0.41-0.02,0.79-0.03,1.12c-0.01,0.33-0.02,0.61-0.05,0.84
		c-0.05,0.49-0.14,0.93-0.29,1.31c-0.15,0.38-0.27,0.64-0.35,0.76c-0.09,0.13-0.16,0.22-0.21,0.28c-0.07,0.06-0.12,0.08-0.15,0.06
		c-0.04-0.02-0.05-0.05-0.04-0.1c0-0.01,0.04-0.19,0.11-0.52c0.07-0.34,0.12-0.66,0.13-0.98c0.02-0.32,0.02-0.76,0.01-1.34
		c-0.01-0.58,0-1.02,0.04-1.32c0.02-0.18,0.06-0.36,0.12-0.55c0.06-0.19,0.12-0.38,0.19-0.56c0.07-0.18,0.15-0.36,0.23-0.52
		c0.08-0.16,0.15-0.31,0.22-0.43c0.05-0.08,0.1-0.11,0.14-0.09s0.06,0.05,0.05,0.09c-0.01,0.05-0.02,0.15-0.04,0.32
		c-0.02,0.17-0.03,0.36-0.04,0.57c-0.01,0.21-0.02,0.42-0.03,0.62C71.71,56.74,71.71,56.89,71.71,56.98z M74.66,59.95
		c-0.01,0.16-0.07,0.44-0.18,0.84s-0.27,0.85-0.45,1.34c-0.19,0.48-0.35,0.85-0.49,1.09c-0.14,0.25-0.3,0.43-0.47,0.56
		c-0.17,0.13-0.44,0.25-0.82,0.35c-0.38,0.11-0.68,0.18-0.91,0.22c-0.23,0.04-0.37,0.06-0.43,0.06c-0.06-0.01-0.09-0.03-0.11-0.07
		c-0.01-0.04,0.01-0.09,0.05-0.16c0.07-0.1,0.23-0.23,0.49-0.38c0.26-0.16,0.57-0.36,0.92-0.59c0.35-0.24,0.6-0.45,0.75-0.62
		c0.15-0.18,0.32-0.45,0.5-0.8c0.19-0.36,0.36-0.71,0.51-1.08c0.15-0.36,0.26-0.61,0.32-0.74c0.07-0.13,0.14-0.2,0.21-0.19
		C74.63,59.78,74.66,59.84,74.66,59.95z M77.73,62c-0.21,0.56-0.4,0.97-0.58,1.23c-0.18,0.26-0.32,0.43-0.42,0.49
		c-0.1,0.06-0.25,0.13-0.45,0.2c-0.2,0.07-0.51,0.17-0.92,0.3c-0.41,0.13-0.66,0.19-0.73,0.19c-0.05,0-0.07-0.01-0.07-0.03
		c-0.05-0.06,0.2-0.27,0.74-0.62c0.54-0.35,0.89-0.58,1.05-0.69c0.16-0.11,0.32-0.27,0.48-0.48c0.16-0.21,0.28-0.45,0.36-0.71
		c-0.08-0.01-0.17,0-0.25,0.05C76.84,61.97,76.75,62,76.67,62c-0.22-0.01-0.4-0.07-0.55-0.21c-0.15-0.13-0.21-0.28-0.19-0.44
		c0.02-0.1,0.06-0.21,0.1-0.34c0.04-0.13,0.14-0.33,0.28-0.62c0.14-0.28,0.29-0.51,0.43-0.7c0.15-0.18,0.29-0.28,0.43-0.28
		c0.24,0,0.45,0.1,0.61,0.3c0.16,0.2,0.24,0.44,0.24,0.72c0,0.14-0.01,0.29-0.03,0.43c-0.02,0.14-0.04,0.26-0.06,0.35
		c-0.02,0.09-0.05,0.22-0.09,0.36C77.82,61.73,77.78,61.87,77.73,62z M77.5,61.12c0-0.13,0.02-0.25,0.04-0.35
		c0.02-0.11,0.12-0.2,0.29-0.28c0.04-0.01,0.14-0.06,0.3-0.16c0.06-0.03,0.18-0.11,0.36-0.24c0.26-0.2,0.43-0.39,0.5-0.57
		c0.05-0.13,0.11-0.2,0.17-0.22c0.02,0,0.07,0.02,0.14,0.05c0.05,0.04,0.13,0.05,0.24,0.03c0.16-0.04,0.29-0.14,0.38-0.28
		c0.1-0.17,0.19-0.33,0.26-0.49c0.01-0.01,0.06,0,0.16,0.03c0.08,0.03,0.15,0.02,0.21-0.03c0.05-0.05,0.09-0.11,0.12-0.16
		c0.01-0.02,0.06-0.15,0.14-0.37c0.06-0.2,0.13-0.3,0.21-0.3c0.05,0,0.07,0.06,0.07,0.18c0,0.28-0.06,0.58-0.19,0.9
		c-0.14,0.32-0.27,0.56-0.41,0.71c-0.15,0.16-0.29,0.27-0.42,0.35c-0.14,0.08-0.21,0.13-0.22,0.16c-0.14,0.18-0.3,0.33-0.47,0.44
		c-0.17,0.11-0.34,0.19-0.51,0.23c-0.13,0.14-0.32,0.29-0.58,0.47c-0.28,0.2-0.46,0.32-0.52,0.34c-0.08,0.03-0.16,0.09-0.25,0.16
		c-0.1,0.07-0.15,0.13-0.16,0.18L77.5,61.12z M78.45,54.27c0-0.07,0.13-0.33,0.38-0.78s0.41-0.68,0.47-0.68
		c0.1,0,0.25,0.08,0.45,0.25c0.21,0.17,0.34,0.32,0.41,0.47c0.13-0.21,0.25-0.41,0.37-0.6c0.17-0.28,0.28-0.41,0.32-0.41
		c0.14,0,0.32,0.1,0.54,0.29c0.21,0.22,0.32,0.42,0.32,0.6c0,0.21-0.11,0.48-0.32,0.79c-0.22,0.3-0.38,0.46-0.47,0.46
		c-0.08,0-0.19-0.07-0.33-0.22c-0.2-0.2-0.36-0.35-0.49-0.44c-0.33,0.64-0.58,0.96-0.77,0.96c-0.04,0-0.2-0.11-0.48-0.32
		C78.59,54.44,78.45,54.31,78.45,54.27z M79.26,52.13c0-0.06,0.11-0.31,0.33-0.76c0.22-0.45,0.37-0.68,0.43-0.68
		c0.17,0,0.35,0.1,0.55,0.29c0.2,0.22,0.3,0.43,0.3,0.63c0,0.19-0.09,0.45-0.28,0.78c-0.19,0.33-0.32,0.5-0.41,0.5
		c-0.05,0-0.17-0.08-0.36-0.24c-0.18-0.16-0.32-0.27-0.42-0.34C79.31,52.25,79.26,52.19,79.26,52.13z M41.15,3.76
		c2.31,1.34,2.18,3.51,2.19,5.8c0.04,6.83-0.54,22.63-0.54,22.63s1.22-0.93,1.78-1.48c6.71-6.61,8.14-15.38,3.94-23.99
		C48.36,6.41,48.19,6.11,48,5.74c2.27,0.6,4.72,5.78,5.42,9.72c0.69,3.89,0.49,7.69-1.3,11.28c-1.76,3.53-4.47,6.22-7.89,8.45
		c2.4,0.85,4.65,1.17,7.35,1.14c-2.68,1.1-5.12,1.23-7.5,0.82c-1.33-0.23-2.03,0.07-2.6,1.12c-0.49,0.91-0.88,0.72-1.31-0.05
		c-0.58-1.05-1.32-1.28-2.63-1.06c-2.36,0.41-4.78,0.2-7.5-0.79c2.72-0.05,4.98-0.31,7.37-1.17c-6.49-4.41-10.36-10.15-9.36-18.22
		c0.54-4.33,1.87-8.38,5.46-11.33c-2.57,5.43-3.68,10.99-1.7,16.83c1.32,3.89,3.74,7,7.04,9.76c0-2.19,0.1-4.15-0.02-6.1
		c-0.33-5.53-0.41-11.06-0.48-16.6c-0.03-2.29-0.11-4.45,2.19-5.79C40.78,3.67,40.92,3.64,41.15,3.76z M53.44,32.49
		c4.69-2.55,8.01-9.34,7.32-14.7c-0.84-6.48-5.04-11.56-10.94-13.01C57.97,13.14,59.63,22.27,53.44,32.49z M20.87,18.87
		c-0.1,5.45,3.75,12.57,7.06,13.11c-5.8-9.91-4.11-18.83,3.77-27.03C25.5,6.45,20.98,12.27,20.87,18.87z M41.52,3.38
		c1.31,0.66,2.57,0.66,3.71-0.34c0.94-0.83,1.15-1.84,0.65-3.04c-1.91,2.4-2.75,2.52-4.69,1.02c-0.56-0.43-0.75,0.13-1.04,0.36
		c-1.06,0.85-2.11,1.01-3.15,0.01c-0.43-0.41-0.8-0.87-1.23-1.35c-0.5,1.31-0.18,2.32,0.8,3.11c1.13,0.91,2.35,0.87,3.59,0.24
		C40.62,3.2,41.07,3.2,41.52,3.38z"/>
</g>
<g id="Layer_2">
</g>
<g id="Layer_3">
</g>
</svg>
