<?xml version="1.0" encoding="utf-8"?>
<!-- Generator: Adobe Illustrator 24.1.1, SVG Export Plug-In . SVG Version: 6.00 Build 0)  -->
<svg version="1.1" xmlns="http://www.w3.org/2000/svg" xmlns:xlink="http://www.w3.org/1999/xlink" x="0px" y="0px"
	 viewBox="0 0 252.69 293.2" style="enable-background:new 0 0 252.69 293.2;" xml:space="preserve">
<style type="text/css">
	.st0{fill:none;stroke:#F4F7F9;stroke-miterlimit:10;}
	.st1{fill:#F4F7F9;}
	.st2{fill:#315B51;}
	.st3{fill:#C8B34C;}
	.st4{fill:#B3B2B3;}
	.st5{fill:#2BB898;}
	.st6{fill:#D39241;}
	.st7{fill:#385BA6;}
	.st8{fill:#515151;}
	.st9{fill:#F4E8AA;}
	.st10{fill:#FAC86E;}
	.st11{fill:#F4F4F4;}
	.st12{fill:#AD9944;}
	.st13{fill:#00A99D;}
	.st14{fill:url(#SVGID_1_);}
	.st15{fill:#C4AF4C;}
	.st16{fill-rule:evenodd;clip-rule:evenodd;fill:#C4AF4C;}
	.st17{filter:url(#Adobe_OpacityMaskFilter);}
	.st18{fill:url(#SVGID_3_);}
	.st19{mask:url(#SVGID_2_);fill-rule:evenodd;clip-rule:evenodd;fill:#C4AF4C;}
	.st20{filter:url(#Adobe_OpacityMaskFilter_1_);}
	.st21{fill:url(#SVGID_5_);}
	.st22{mask:url(#SVGID_4_);fill-rule:evenodd;clip-rule:evenodd;fill:#F0E4A6;}
	.st23{filter:url(#Adobe_OpacityMaskFilter_2_);}
	.st24{fill:url(#SVGID_7_);}
	.st25{mask:url(#SVGID_6_);fill-rule:evenodd;clip-rule:evenodd;fill:#F0E4A6;}
	.st26{filter:url(#Adobe_OpacityMaskFilter_3_);}
	.st27{fill:url(#SVGID_9_);}
	.st28{mask:url(#SVGID_8_);fill-rule:evenodd;clip-rule:evenodd;fill:#F0E4A6;}
	.st29{filter:url(#Adobe_OpacityMaskFilter_4_);}
	.st30{fill:url(#SVGID_11_);}
	.st31{mask:url(#SVGID_10_);fill-rule:evenodd;clip-rule:evenodd;fill:#F0E4A6;}
	.st32{opacity:0.5;fill-rule:evenodd;clip-rule:evenodd;fill:#C4AF4C;}
	.st33{filter:url(#Adobe_OpacityMaskFilter_5_);}
	.st34{fill:url(#SVGID_13_);}
	.st35{mask:url(#SVGID_12_);fill-rule:evenodd;clip-rule:evenodd;fill:#C4AF4C;}
	.st36{filter:url(#Adobe_OpacityMaskFilter_6_);}
	.st37{fill:url(#SVGID_15_);}
	.st38{mask:url(#SVGID_14_);fill-rule:evenodd;clip-rule:evenodd;fill:#C4AF4C;}
	.st39{filter:url(#Adobe_OpacityMaskFilter_7_);}
	.st40{fill:url(#SVGID_17_);}
	.st41{mask:url(#SVGID_16_);fill-rule:evenodd;clip-rule:evenodd;fill:#F0E4A6;}
	.st42{fill-rule:evenodd;clip-rule:evenodd;fill:#315B51;}
	.st43{filter:url(#Adobe_OpacityMaskFilter_8_);}
	.st44{fill:url(#SVGID_19_);}
	.st45{mask:url(#SVGID_18_);fill-rule:evenodd;clip-rule:evenodd;fill:#2BB494;}
	.st46{fill:#AFAEAF;}
	.st47{fill:#FFFFFF;}
	.st48{fill:none;stroke:#FFFFFF;stroke-width:0.25;stroke-miterlimit:10;}
	.st49{fill:#333333;}
	.st50{fill:none;stroke:#CACACA;stroke-width:0.5;stroke-miterlimit:10;}
	.st51{opacity:0.3;}
	.st52{fill:url(#SVGID_20_);}
	.st53{fill:url(#SVGID_21_);}
	.st54{fill:url(#SVGID_22_);}
	.st55{fill:url(#SVGID_23_);}
	.st56{fill:url(#SVGID_24_);}
	.st57{fill:url(#SVGID_25_);}
	.st58{fill:#029385;}
	.st59{fill:#009183;}
	.st60{fill:#FCD1C5;}
	.st61{fill:url(#SVGID_26_);}
	.st62{fill:#F0F6FF;}
	.st63{fill:#AA8383;}
	.st64{fill:#C4CCD6;}
	.st65{fill:#E2B1A6;}
	.st66{fill:#1B2B3A;}
	.st67{fill:#936D6D;}
	.st68{fill:url(#SVGID_27_);}
	.st69{fill:url(#SVGID_28_);}
	.st70{fill:url(#SVGID_29_);}
	.st71{fill:url(#SVGID_30_);}
	.st72{fill:url(#SVGID_31_);}
	.st73{fill:#160A5B;}
	.st74{fill:url(#SVGID_32_);}
	.st75{fill:#722318;}
	.st76{fill:url(#SVGID_33_);}
	.st77{fill:#453C9E;}
	.st78{fill:url(#SVGID_34_);}
	.st79{fill:#DAE1E5;}
	.st80{fill:#E0E0E0;}
	.st81{filter:url(#Adobe_OpacityMaskFilter_9_);}
	.st82{fill:url(#SVGID_36_);}
	.st83{mask:url(#SVGID_35_);fill-rule:evenodd;clip-rule:evenodd;fill:#C4AF4C;}
	.st84{filter:url(#Adobe_OpacityMaskFilter_10_);}
	.st85{fill:url(#SVGID_38_);}
	.st86{mask:url(#SVGID_37_);fill-rule:evenodd;clip-rule:evenodd;fill:#F0E4A6;}
	.st87{filter:url(#Adobe_OpacityMaskFilter_11_);}
	.st88{fill:url(#SVGID_40_);}
	.st89{mask:url(#SVGID_39_);fill-rule:evenodd;clip-rule:evenodd;fill:#F0E4A6;}
	.st90{filter:url(#Adobe_OpacityMaskFilter_12_);}
	.st91{fill:url(#SVGID_42_);}
	.st92{mask:url(#SVGID_41_);fill-rule:evenodd;clip-rule:evenodd;fill:#F0E4A6;}
	.st93{filter:url(#Adobe_OpacityMaskFilter_13_);}
	.st94{fill:url(#SVGID_44_);}
	.st95{mask:url(#SVGID_43_);fill-rule:evenodd;clip-rule:evenodd;fill:#F0E4A6;}
	.st96{filter:url(#Adobe_OpacityMaskFilter_14_);}
	.st97{fill:url(#SVGID_46_);}
	.st98{mask:url(#SVGID_45_);fill-rule:evenodd;clip-rule:evenodd;fill:#C4AF4C;}
	.st99{filter:url(#Adobe_OpacityMaskFilter_15_);}
	.st100{fill:url(#SVGID_48_);}
	.st101{mask:url(#SVGID_47_);fill-rule:evenodd;clip-rule:evenodd;fill:#C4AF4C;}
	.st102{fill:none;stroke:#2BB797;stroke-width:1.16;stroke-linecap:round;stroke-linejoin:round;stroke-miterlimit:10;}
	.st103{fill-rule:evenodd;clip-rule:evenodd;fill:none;stroke:#C6C6C6;stroke-width:0.5;stroke-miterlimit:10;}
	.st104{fill-rule:evenodd;clip-rule:evenodd;fill:none;stroke:#C6C6C6;stroke-width:0.75;stroke-miterlimit:10;}
	.st105{fill:#2BB797;}
	.st106{fill:#2BB797;stroke:#2BB797;stroke-width:0.7684;stroke-miterlimit:10;}
	.st107{clip-path:url(#SVGID_50_);fill:#BBBBBB;}
	.st108{clip-path:url(#SVGID_50_);fill:#959595;}
	.st109{clip-path:url(#SVGID_50_);}
	.st110{fill:#959595;}
	.st111{fill:#BBBBBB;}
	.st112{fill:none;stroke:#C6C6C6;stroke-width:0.5;stroke-miterlimit:10;}
	.st113{clip-path:url(#SVGID_52_);}
	.st114{fill-rule:evenodd;clip-rule:evenodd;fill:none;stroke:#C9C9C9;stroke-width:0.5;stroke-miterlimit:10;}
	.st115{fill:#B2B1B2;}
	.st116{fill:#4D4D4D;}
	.st117{fill:#A5CFE3;}
	.st118{fill:url(#);}
	.st119{fill:#9F9F9F;}
	.st120{opacity:0.3;fill:url(#XMLID_64_);}
	.st121{fill:#35160D;}
	.st122{fill:#FCC082;}
	.st123{opacity:0.5;fill:#FCC082;}
	.st124{fill:#221001;}
	.st125{fill:url(#XMLID_65_);}
	.st126{enable-background:new    ;}
	.st127{fill:#1E1B1C;}
	.st128{fill:#0F0B0C;}
	.st129{fill:#4B4949;}
	.st130{opacity:0.3;fill:url(#XMLID_66_);}
	.st131{fill:url(#XMLID_67_);}
	.st132{fill-rule:evenodd;clip-rule:evenodd;fill:none;stroke:#CACACA;stroke-width:0.5;stroke-miterlimit:10;}
	.st133{fill:#249373;}
	.st134{fill:none;stroke:#249373;stroke-miterlimit:10;}
	.st135{fill:#E2CA49;}
	.st136{fill:none;stroke:#E2CA49;stroke-miterlimit:10;}
	.st137{fill:#3C3C3B;}
	.st138{fill:none;stroke:#000000;stroke-miterlimit:10;}
	.st139{fill:url(#SVGID_53_);}
	.st140{fill:url(#SVGID_54_);}
	.st141{fill:url(#SVGID_55_);}
	.st142{fill:url(#SVGID_56_);}
	.st143{fill:url(#SVGID_57_);}
	.st144{fill:url(#SVGID_58_);}
	.st145{fill:url(#SVGID_59_);}
	.st146{fill:url(#SVGID_60_);}
	.st147{fill:url(#SVGID_61_);}
	.st148{fill:url(#SVGID_62_);}
	.st149{fill:url(#SVGID_63_);}
	.st150{fill:url(#SVGID_64_);}
	.st151{fill:url(#SVGID_65_);}
	.st152{fill:url(#SVGID_66_);}
	.st153{fill:url(#SVGID_67_);}
	.st154{fill:#8E8E8E;}
	.st155{clip-path:url(#SVGID_69_);fill:#E2E4E6;}
	.st156{clip-path:url(#SVGID_71_);fill:#E2E4E6;}
	.st157{clip-path:url(#SVGID_73_);fill:#E2E4E6;}
</style>
<g id="Layer_1">
	<path class="st1" d="M1.32,196.46c0,69.59,93.93,104.94,154.52,70.7l95.07-53.73V0H1.32V196.46z"/>
	<g id="XMLID_1_">
		<g id="XMLID_41_">
			<g id="XMLID_42_">
				
					<linearGradient id="XMLID_64_" gradientUnits="userSpaceOnUse" x1="-2402.2678" y1="285.0187" x2="-2334.0793" y2="230.0549" gradientTransform="matrix(-1 0 0 1 -2195.8621 0)">
					<stop  offset="0" style="stop-color:#FFFFFF"/>
					<stop  offset="1" style="stop-color:#000000"/>
				</linearGradient>
				<path id="XMLID_62_" class="st120" d="M170.49,193.14c0,0,67.61,49.09,42.6,74.1c-39.19,39.19-125.65-0.67-150.63-41.6
					L170.49,193.14z"/>
				<g id="XMLID_43_">
					<path id="XMLID_61_" class="st121" d="M130.52,64.36c1.73,0.69,10.6,1.23,12.59,17.71h-5.45c0,0-1.54-12.85-8.94-15.21
						C128.72,66.86,127.71,64.36,130.52,64.36z"/>
					<g id="XMLID_54_">
						<path id="XMLID_60_" class="st13" d="M68.26,181.12c2.44-13.11,8.08-16.92,17.53-20.28c9.45-3.35,21.95-12.04,21.95-12.04
							l22.41-0.61c0.8-0.06,1.59-0.08,2.37-0.08l-0.08-0.22c0,0,19.52-7.17,29.58,9.3c5.28,8.63,8.33,18.19,10.04,25.33
							c4.97,11.8,6.88,22.09,6.88,22.09c-1.52,16.16-48.79,41.17-78.06,36.59c-29.27-4.57-38.42-15.55-38.42-15.55
							S65.82,194.23,68.26,181.12z"/>
						<path id="XMLID_59_" class="st122" d="M139.85,131.34c0,0-6.49,9.35-6.49,21.26c0,0,8.89,12.48,5.18,18.6
							c-3.7,6.12-26.68-5.02-32.47-19.52c0,0,2.03-11.66-3.79-31.52L139.85,131.34z"/>
						<path id="XMLID_58_" class="st123" d="M105.72,134.47c-0.06-3.79-1.02-8.39-2.12-13.5l36.25,10.37c0,0-5.27,7.62-6.3,17.86
							C127.93,149.05,115.83,144.53,105.72,134.47z"/>
						<path id="XMLID_57_" class="st122" d="M142.17,90.77c0,0,5.14,10.52,5.14,28.12c0,17.6-9,22.11-15.06,22.11
							c-6.06,0-22.38-4.16-33.94-18.98l-3.44-16.68l9.29-14.59H142.17z"/>
						<path id="XMLID_56_" class="st123" d="M139.31,114.49c0.52-5.33,4.84-8.45,6.86-9.63c0.66,3.95,1.15,8.66,1.15,14.02
							c0,11.13-3.6,17.02-7.77,19.85v-10.3l2.99-2.69c0.76-0.69,0.77-1.88,0.01-2.57C140.98,121.76,138.86,118.98,139.31,114.49z"/>
						<path id="XMLID_55_" class="st124" d="M82.88,95.28c0.85-3.71,3.34-7.87,7.53-8.04c-3.1-2.5-3.16-7.09-1.14-10.37
							c2.02-3.28,5.62-5.49,9.23-7.34c6.57-3.36,13.79-5.96,21.32-6.28c7.54-0.32,14.45,2.87,20.56,6.87
							c13.76,9.01,8.74,23.28,1.86,27.11c-6.88,3.83-14.79,2.22-14.79,2.22c-5.75-0.39-11.05-2.82-16.16-5.22
							c3.55,1.71,3.78,6.32,2.4,9.74c-0.41,1.01-0.92,2-1.44,2.99c0.39,2.78,1.03,6.43,1.94,8.46l-4.76,1.2c0,0,0.16-1.08,0.12-2.7
							c-0.01,0.08-0.03,0.15-0.04,0.22c0.01-0.1,0.02-0.2,0.03-0.29c-0.03-1.3-0.19-2.92-0.66-4.64c-0.18-0.37-0.39-0.74-0.65-1.08
							c-1.31-1.72-3.77-2.8-6-2.24c-3.09,0.77-4.45,4.5-3.07,7.12c1.38,2.62,2.33,5.84,2.33,5.84c0.88,4.12,1.33,7.79,1.5,11.05
							c-7.05-2.69-13.05-7.56-16.71-13.64C82.48,109.91,81.25,102.34,82.88,95.28z"/>
					</g>
					<g id="XMLID_44_">
						<g id="XMLID_49_">
							<path id="XMLID_53_" class="st121" d="M84.16,119.86c0.93,8.17,6.59,14.24,12.63,13.55c6.04-0.69,10.18-7.88,9.25-16.05
								c-0.93-8.18-6.59-14.24-12.63-13.55C87.36,104.49,83.23,111.68,84.16,119.86z"/>
							<path id="XMLID_52_" class="st3" d="M81.42,120.17c0.93,8.18,6.59,14.24,12.63,13.55c6.04-0.69,10.18-7.88,9.25-16.05
								c-0.93-8.18-6.59-14.24-12.63-13.55C84.63,104.81,80.49,111.99,81.42,120.17z"/>
							<path id="XMLID_51_" class="st121" d="M80.42,119.85c0.7,6.09,4.9,10.6,9.4,10.09c4.5-0.51,7.58-5.86,6.88-11.95
								c-0.7-6.09-4.9-10.6-9.4-10.09C82.8,108.41,79.72,113.76,80.42,119.85z"/>
							<path id="XMLID_50_" class="st47" d="M81.21,119.76c0.4,3.53,2.42,6.2,4.51,5.96c2.09-0.24,3.45-3.29,3.05-6.82
								c-0.4-3.53-2.42-6.2-4.51-5.96C82.17,113.17,80.81,116.23,81.21,119.76z"/>
						</g>
						<path id="XMLID_48_" class="st3" d="M83.69,119.63c0.7,0.36,1.54-0.05,1.68-0.83c1.06-5.95,8.76-24.77,12.73-35.6
							c4.62-12.64,31.65-15.57,40.44-14.03c0,0-3.08-4.37-10.02-5.29c-6.94-0.93-22.56-0.1-33.2,10.69
							c-5.21,9.86-11.81,38.57-12.27,43.93C83.01,118.97,83.26,119.42,83.69,119.63L83.69,119.63z"/>
						<path id="XMLID_47_" class="st12" d="M98.1,83.2c-3.96,10.83-11.66,29.65-12.73,35.6c-0.14,0.77-0.98,1.18-1.68,0.83
							c-0.42-0.22-0.67-0.66-0.63-1.14c0.46-5.36,7.06-34.07,12.27-43.93c0.02-0.02,0.05-0.04,0.07-0.06
							c1.7,1.13,3.31,4.03,4.21,5.89C98.98,81.28,98.46,82.21,98.1,83.2z"/>
						<path id="XMLID_46_" class="st121" d="M104.47,126.26c0,0,6.89,8.32,25.38,11.82v1.34c0,0-10.17,0.72-27.13-10.17
							L104.47,126.26z"/>
						<path id="XMLID_45_" class="st121" d="M128.52,139.16c0,1.39,1.7,2.52,3.8,2.52c2.1,0,3.8-1.13,3.8-2.52
							c0-1.39-1.7-2.52-3.8-2.52C130.22,136.64,128.52,137.77,128.52,139.16z"/>
					</g>
				</g>
			</g>
		</g>
		<g id="XMLID_3_">
			
				<linearGradient id="XMLID_65_" gradientUnits="userSpaceOnUse" x1="-2405.7256" y1="226.3625" x2="-2267.0735" y2="132.3725" gradientTransform="matrix(-1 0 0 1 -2195.8621 0)">
				<stop  offset="0" style="stop-color:#FFFBCA"/>
				<stop  offset="9.593010e-03" style="stop-color:#FFFBCB;stop-opacity:0.9904"/>
				<stop  offset="0.4045" style="stop-color:#FFFDE7;stop-opacity:0.5955"/>
				<stop  offset="0.7481" style="stop-color:#FFFFF9;stop-opacity:0.2519"/>
				<stop  offset="1" style="stop-color:#FFFFFF;stop-opacity:0"/>
			</linearGradient>
			<path id="XMLID_40_" class="st125" d="M239.53,126.26l-113.8-76.34c0,0-32.98,34.08-45.41,99.7
				c-12.43,65.62,4.67,112.3,4.67,112.3l34.41,21.37L239.53,126.26z"/>
			<g id="XMLID_34_" class="st126">
				<path id="XMLID_39_" class="st127" d="M150.66,262.72c0.01,0.23,0.03,0.45,0.05,0.68c0.02,0.2,0.05,0.4,0.07,0.59
					c0.03,0.22,0.06,0.45,0.11,0.67c0.04,0.2,0.08,0.4,0.12,0.6c0.05,0.22,0.1,0.44,0.16,0.66c0.05,0.2,0.11,0.39,0.17,0.59
					c0.07,0.22,0.14,0.44,0.22,0.65c0.07,0.19,0.14,0.39,0.22,0.58c0.09,0.23,0.19,0.45,0.29,0.68c0.09,0.19,0.17,0.38,0.27,0.57
					c0.11,0.22,0.23,0.45,0.35,0.67c0.1,0.18,0.2,0.37,0.3,0.55c0.15,0.27,0.32,0.53,0.49,0.79c0.1,0.16,0.21,0.32,0.32,0.49
					c0.2,0.29,0.41,0.58,0.63,0.87c0.1,0.13,0.19,0.25,0.29,0.38c0.36,0.46,0.75,0.91,1.17,1.36c0.11,0.12,0.22,0.23,0.33,0.34
					c0.33,0.34,0.66,0.68,1.02,1.01c0.16,0.15,0.32,0.31,0.49,0.46c0.21,0.19,0.43,0.38,0.65,0.56c0.2,0.17,0.41,0.35,0.62,0.52
					c0.23,0.18,0.46,0.37,0.7,0.55c0.22,0.17,0.44,0.34,0.67,0.5c0.25,0.18,0.5,0.36,0.76,0.53c0.24,0.16,0.47,0.33,0.72,0.49
					c0.27,0.17,0.54,0.35,0.82,0.52c0.34,0.21,0.68,0.43,1.04,0.64l11.98,6.96l0.01,4.35l-11.98-6.96
					c-0.18-0.11-0.37-0.22-0.55-0.32c-0.17-0.1-0.33-0.21-0.49-0.31c-0.28-0.17-0.55-0.34-0.81-0.51c-0.24-0.16-0.48-0.32-0.72-0.49
					c-0.26-0.18-0.51-0.36-0.76-0.54c-0.23-0.17-0.45-0.33-0.67-0.5c-0.24-0.18-0.47-0.37-0.7-0.55c-0.21-0.17-0.42-0.34-0.62-0.52
					c-0.22-0.19-0.44-0.38-0.65-0.57c-0.09-0.08-0.18-0.15-0.27-0.23c-0.08-0.07-0.15-0.15-0.22-0.22
					c-0.35-0.33-0.69-0.67-1.02-1.02c-0.11-0.11-0.22-0.23-0.33-0.34c-0.41-0.45-0.8-0.9-1.17-1.36c-0.02-0.02-0.03-0.04-0.05-0.06
					c-0.08-0.11-0.15-0.22-0.24-0.32c-0.22-0.29-0.43-0.58-0.63-0.87c-0.11-0.16-0.21-0.32-0.31-0.48c-0.17-0.27-0.34-0.53-0.49-0.8
					c-0.04-0.07-0.09-0.14-0.13-0.22c-0.06-0.11-0.11-0.22-0.17-0.33c-0.12-0.22-0.24-0.45-0.35-0.68
					c-0.09-0.19-0.18-0.38-0.27-0.57c-0.1-0.23-0.2-0.45-0.29-0.68c-0.04-0.1-0.09-0.2-0.13-0.3c-0.03-0.09-0.06-0.18-0.09-0.27
					c-0.08-0.22-0.15-0.44-0.22-0.65c-0.06-0.2-0.12-0.39-0.17-0.59c-0.06-0.22-0.11-0.44-0.16-0.66c-0.03-0.12-0.06-0.23-0.09-0.35
					c-0.02-0.08-0.02-0.16-0.04-0.24c-0.04-0.22-0.08-0.45-0.11-0.68c-0.03-0.2-0.06-0.39-0.07-0.59c-0.02-0.23-0.04-0.45-0.05-0.68
					c-0.01-0.13-0.02-0.27-0.03-0.4c0-0.13-0.01-0.26-0.01-0.4l-0.01-4.35C150.62,262.19,150.64,262.45,150.66,262.72z"/>
				<g id="XMLID_37_">
					<polygon id="XMLID_38_" class="st128" points="175.68,287.19 175.69,291.53 239.53,254.68 239.52,250.33 					"/>
				</g>
				<g id="XMLID_35_">
					<path id="XMLID_36_" class="st129" d="M163.9,243.37c-17.63,10.18-17.72,26.68-0.21,36.86l11.98,6.96l63.84-36.86l-11.98-6.96
						C210.02,233.19,181.53,233.19,163.9,243.37z"/>
				</g>
			</g>
			<g id="XMLID_4_">
				<g id="XMLID_26_">
					<g id="XMLID_27_" class="st126">
						<g id="XMLID_32_">
							<polygon id="XMLID_33_" class="st127" points="122.4,188.38 116.18,184.76 116.46,284.12 122.68,287.73 							"/>
						</g>
						<g id="XMLID_30_">
							<polygon id="XMLID_31_" class="st129" points="250.39,114.48 244.17,110.87 116.18,184.76 122.4,188.38 							"/>
						</g>
						<g id="XMLID_28_">
							<polygon id="XMLID_29_" class="st128" points="122.4,188.58 122.68,287.93 250.67,214.04 250.39,114.68 							"/>
						</g>
					</g>
				</g>
				<g id="XMLID_18_">
					<g id="XMLID_19_" class="st126">
						<g id="XMLID_24_">
							<polygon id="XMLID_25_" class="st127" points="160.13,197.16 156.85,195.26 157,247.55 160.27,249.45 							"/>
						</g>
						<g id="XMLID_22_">
							<polygon id="XMLID_23_" class="st129" points="227.49,158.27 224.22,156.36 156.85,195.26 160.13,197.16 							"/>
						</g>
						<g id="XMLID_20_">
							<polygon id="XMLID_21_" class="st128" points="160.13,197.16 160.27,249.45 227.64,210.56 227.49,158.27 							"/>
						</g>
					</g>
				</g>
				<g id="XMLID_5_">
					<g id="XMLID_6_" class="st126">
						<g id="XMLID_16_">
							<polygon id="XMLID_17_" class="st127" points="186.05,212.92 184.12,211.8 184.28,269.3 186.21,270.43 							"/>
						</g>
						<g id="XMLID_14_">
							<polygon id="XMLID_15_" class="st129" points="207.43,200.58 205.5,199.45 184.12,211.8 186.05,212.92 							"/>
						</g>
						<g id="XMLID_7_">
							<polygon id="XMLID_13_" class="st128" points="186.05,212.92 186.21,270.43 207.59,258.08 207.43,200.58 							"/>
						</g>
					</g>
				</g>
			</g>
		</g>
	</g>
</g>
<g id="Layer_2">
</g>
<g id="Layer_3">
</g>
</svg>
