<?xml version="1.0" encoding="utf-8"?>
<!-- Generator: Adobe Illustrator 24.1.1, SVG Export Plug-In . SVG Version: 6.00 Build 0)  -->
<svg version="1.1" xmlns="http://www.w3.org/2000/svg" xmlns:xlink="http://www.w3.org/1999/xlink" x="0px" y="0px"
	 viewBox="0 0 49.85 48.66" style="enable-background:new 0 0 49.85 48.66;" xml:space="preserve">
<style type="text/css">
	.st0{fill:none;stroke:#F4F7F9;stroke-miterlimit:10;}
	.st1{fill:#F4F7F9;}
	.st2{fill:#315B51;}
	.st3{fill:#C8B34C;}
	.st4{fill:#B3B2B3;}
	.st5{fill:#2BB898;}
	.st6{fill:#D39241;}
	.st7{fill:#385BA6;}
	.st8{fill:#515151;}
	.st9{fill:#F4E8AA;}
	.st10{fill:#FAC86E;}
	.st11{fill:#F4F4F4;}
	.st12{fill:#AD9944;}
	.st13{fill:#00A99D;}
	.st14{fill:url(#SVGID_1_);}
	.st15{fill:#C4AF4C;}
	.st16{fill-rule:evenodd;clip-rule:evenodd;fill:#C4AF4C;}
	.st17{filter:url(#Adobe_OpacityMaskFilter);}
	.st18{fill:url(#SVGID_3_);}
	.st19{mask:url(#SVGID_2_);fill-rule:evenodd;clip-rule:evenodd;fill:#C4AF4C;}
	.st20{filter:url(#Adobe_OpacityMaskFilter_1_);}
	.st21{fill:url(#SVGID_5_);}
	.st22{mask:url(#SVGID_4_);fill-rule:evenodd;clip-rule:evenodd;fill:#F0E4A6;}
	.st23{filter:url(#Adobe_OpacityMaskFilter_2_);}
	.st24{fill:url(#SVGID_7_);}
	.st25{mask:url(#SVGID_6_);fill-rule:evenodd;clip-rule:evenodd;fill:#F0E4A6;}
	.st26{filter:url(#Adobe_OpacityMaskFilter_3_);}
	.st27{fill:url(#SVGID_9_);}
	.st28{mask:url(#SVGID_8_);fill-rule:evenodd;clip-rule:evenodd;fill:#F0E4A6;}
	.st29{filter:url(#Adobe_OpacityMaskFilter_4_);}
	.st30{fill:url(#SVGID_11_);}
	.st31{mask:url(#SVGID_10_);fill-rule:evenodd;clip-rule:evenodd;fill:#F0E4A6;}
	.st32{opacity:0.5;fill-rule:evenodd;clip-rule:evenodd;fill:#C4AF4C;}
	.st33{filter:url(#Adobe_OpacityMaskFilter_5_);}
	.st34{fill:url(#SVGID_13_);}
	.st35{mask:url(#SVGID_12_);fill-rule:evenodd;clip-rule:evenodd;fill:#C4AF4C;}
	.st36{filter:url(#Adobe_OpacityMaskFilter_6_);}
	.st37{fill:url(#SVGID_15_);}
	.st38{mask:url(#SVGID_14_);fill-rule:evenodd;clip-rule:evenodd;fill:#C4AF4C;}
	.st39{filter:url(#Adobe_OpacityMaskFilter_7_);}
	.st40{fill:url(#SVGID_17_);}
	.st41{mask:url(#SVGID_16_);fill-rule:evenodd;clip-rule:evenodd;fill:#F0E4A6;}
	.st42{fill-rule:evenodd;clip-rule:evenodd;fill:#315B51;}
	.st43{filter:url(#Adobe_OpacityMaskFilter_8_);}
	.st44{fill:url(#SVGID_19_);}
	.st45{mask:url(#SVGID_18_);fill-rule:evenodd;clip-rule:evenodd;fill:#2BB494;}
	.st46{fill:#AFAEAF;}
	.st47{fill:#FFFFFF;}
	.st48{fill:none;stroke:#FFFFFF;stroke-width:0.25;stroke-miterlimit:10;}
	.st49{fill:#333333;}
	.st50{fill:none;stroke:#CACACA;stroke-width:0.5;stroke-miterlimit:10;}
	.st51{opacity:0.3;}
	.st52{fill:url(#SVGID_20_);}
	.st53{fill:url(#SVGID_21_);}
	.st54{fill:url(#SVGID_22_);}
	.st55{fill:url(#SVGID_23_);}
	.st56{fill:url(#SVGID_24_);}
	.st57{fill:url(#SVGID_25_);}
	.st58{fill:#029385;}
	.st59{fill:#009183;}
	.st60{fill:#FCD1C5;}
	.st61{fill:url(#SVGID_26_);}
	.st62{fill:#F0F6FF;}
	.st63{fill:#AA8383;}
	.st64{fill:#C4CCD6;}
	.st65{fill:#E2B1A6;}
	.st66{fill:#1B2B3A;}
	.st67{fill:#936D6D;}
	.st68{fill:url(#SVGID_27_);}
	.st69{fill:url(#SVGID_28_);}
	.st70{fill:url(#SVGID_29_);}
	.st71{fill:url(#SVGID_30_);}
	.st72{fill:url(#SVGID_31_);}
	.st73{fill:#160A5B;}
	.st74{fill:url(#SVGID_32_);}
	.st75{fill:#722318;}
	.st76{fill:url(#SVGID_33_);}
	.st77{fill:#453C9E;}
	.st78{fill:url(#SVGID_34_);}
	.st79{fill:#DAE1E5;}
	.st80{fill:#E0E0E0;}
	.st81{filter:url(#Adobe_OpacityMaskFilter_9_);}
	.st82{fill:url(#SVGID_36_);}
	.st83{mask:url(#SVGID_35_);fill-rule:evenodd;clip-rule:evenodd;fill:#C4AF4C;}
	.st84{filter:url(#Adobe_OpacityMaskFilter_10_);}
	.st85{fill:url(#SVGID_38_);}
	.st86{mask:url(#SVGID_37_);fill-rule:evenodd;clip-rule:evenodd;fill:#F0E4A6;}
	.st87{filter:url(#Adobe_OpacityMaskFilter_11_);}
	.st88{fill:url(#SVGID_40_);}
	.st89{mask:url(#SVGID_39_);fill-rule:evenodd;clip-rule:evenodd;fill:#F0E4A6;}
	.st90{filter:url(#Adobe_OpacityMaskFilter_12_);}
	.st91{fill:url(#SVGID_42_);}
	.st92{mask:url(#SVGID_41_);fill-rule:evenodd;clip-rule:evenodd;fill:#F0E4A6;}
	.st93{filter:url(#Adobe_OpacityMaskFilter_13_);}
	.st94{fill:url(#SVGID_44_);}
	.st95{mask:url(#SVGID_43_);fill-rule:evenodd;clip-rule:evenodd;fill:#F0E4A6;}
	.st96{filter:url(#Adobe_OpacityMaskFilter_14_);}
	.st97{fill:url(#SVGID_46_);}
	.st98{mask:url(#SVGID_45_);fill-rule:evenodd;clip-rule:evenodd;fill:#C4AF4C;}
	.st99{filter:url(#Adobe_OpacityMaskFilter_15_);}
	.st100{fill:url(#SVGID_48_);}
	.st101{mask:url(#SVGID_47_);fill-rule:evenodd;clip-rule:evenodd;fill:#C4AF4C;}
	.st102{fill:none;stroke:#2BB797;stroke-width:1.16;stroke-linecap:round;stroke-linejoin:round;stroke-miterlimit:10;}
	.st103{fill-rule:evenodd;clip-rule:evenodd;fill:none;stroke:#C6C6C6;stroke-width:0.5;stroke-miterlimit:10;}
	.st104{fill-rule:evenodd;clip-rule:evenodd;fill:none;stroke:#C6C6C6;stroke-width:0.75;stroke-miterlimit:10;}
	.st105{fill:#2BB797;}
	.st106{fill:#2BB797;stroke:#2BB797;stroke-width:0.7684;stroke-miterlimit:10;}
	.st107{clip-path:url(#SVGID_50_);fill:#BBBBBB;}
	.st108{clip-path:url(#SVGID_50_);fill:#959595;}
	.st109{clip-path:url(#SVGID_50_);}
	.st110{fill:#959595;}
	.st111{fill:#BBBBBB;}
	.st112{fill:none;stroke:#C6C6C6;stroke-width:0.5;stroke-miterlimit:10;}
	.st113{clip-path:url(#SVGID_52_);}
	.st114{fill-rule:evenodd;clip-rule:evenodd;fill:none;stroke:#C9C9C9;stroke-width:0.5;stroke-miterlimit:10;}
	.st115{fill:#B2B1B2;}
	.st116{fill:#4D4D4D;}
	.st117{fill:#A5CFE3;}
	.st118{fill:url(#);}
	.st119{fill:#9F9F9F;}
	.st120{opacity:0.3;fill:url(#XMLID_64_);}
	.st121{fill:#35160D;}
	.st122{fill:#FCC082;}
	.st123{opacity:0.5;fill:#FCC082;}
	.st124{fill:#221001;}
	.st125{fill:url(#XMLID_65_);}
	.st126{enable-background:new    ;}
	.st127{fill:#1E1B1C;}
	.st128{fill:#0F0B0C;}
	.st129{fill:#4B4949;}
	.st130{opacity:0.3;fill:url(#XMLID_66_);}
	.st131{fill:url(#XMLID_67_);}
	.st132{fill-rule:evenodd;clip-rule:evenodd;fill:none;stroke:#CACACA;stroke-width:0.5;stroke-miterlimit:10;}
	.st133{fill:#249373;}
	.st134{fill:none;stroke:#249373;stroke-miterlimit:10;}
	.st135{fill:#E2CA49;}
	.st136{fill:none;stroke:#E2CA49;stroke-miterlimit:10;}
	.st137{fill:#3C3C3B;}
	.st138{fill:none;stroke:#000000;stroke-miterlimit:10;}
	.st139{fill:url(#SVGID_53_);}
	.st140{fill:url(#SVGID_54_);}
	.st141{fill:url(#SVGID_55_);}
	.st142{fill:url(#SVGID_56_);}
	.st143{fill:url(#SVGID_57_);}
	.st144{fill:url(#SVGID_58_);}
	.st145{fill:url(#SVGID_59_);}
	.st146{fill:url(#SVGID_60_);}
	.st147{fill:url(#SVGID_61_);}
	.st148{fill:url(#SVGID_62_);}
	.st149{fill:url(#SVGID_63_);}
	.st150{fill:url(#SVGID_64_);}
	.st151{fill:url(#SVGID_65_);}
	.st152{fill:url(#SVGID_66_);}
	.st153{fill:url(#SVGID_67_);}
	.st154{fill:#8E8E8E;}
	.st155{clip-path:url(#SVGID_69_);fill:#E2E4E6;}
	.st156{clip-path:url(#SVGID_71_);fill:#E2E4E6;}
	.st157{clip-path:url(#SVGID_73_);fill:#E2E4E6;}
</style>
<g id="Layer_1">
	<g>
		<path class="st3" d="M9.43,32.05l-2.36,2.33c-0.95,0.93-2.48,0.92-3.41-0.03l0,0c-0.93-0.95-0.92-2.48,0.03-3.41l2.36-2.33
			c0.95-0.93,2.48-0.92,3.41,0.03l0,0C10.38,29.58,10.37,31.12,9.43,32.05z"/>
		<g>
			<g>
				<path class="st3" d="M17.86,28.87c-0.53-0.85-0.57-1.91-0.26-2.86c0.93-2.85,3.64-10.29,6.83-10.98
					c3.96-0.85,6.04-0.49,6.79-0.62c0.74-0.13,13.64-13.22,13.64-13.22l4.98,18.69l-6.79,6.55c0,0,1.15,4.57-0.31,5.12
					c-1.41,0.52-5.23-2.94-5.23-2.94l-5.08-5.97c0,0-1.07-1.49-3.3-0.5c-2.23,0.99-5.74,7.1-7.08,7.56
					C21,30.07,18.94,30.61,17.86,28.87z"/>
				<path class="st3" d="M16.01,38.7l-1.89,1.87c-0.76,0.75-1.99,0.74-2.74-0.02l0,0c-0.75-0.76-0.74-1.99,0.02-2.74l1.89-1.87
					c0.76-0.75,1.99-0.74,2.74,0.02l0,0C16.78,36.72,16.77,37.95,16.01,38.7z"/>
				<path class="st3" d="M19.53,42.61l-1.89,1.87c-0.76,0.75-1.99,0.74-2.74-0.02h0c-0.75-0.76-0.74-1.99,0.02-2.74l1.89-1.87
					c0.76-0.75,1.99-0.74,2.74,0.02l0,0C20.29,40.63,20.28,41.86,19.53,42.61z"/>
				<path class="st3" d="M22.87,46l-1.89,1.87c-0.76,0.75-1.99,0.74-2.74-0.02h0c-0.75-0.76-0.74-1.99,0.02-2.74l1.89-1.87
					c0.76-0.75,1.99-0.74,2.74,0.02l0,0C23.64,44.03,23.63,45.26,22.87,46z"/>
				<path class="st8" d="M48.21,19.03c-0.37-0.37-0.96-0.38-1.34-0.01L40,25.8c-0.18,0.18-0.28,0.42-0.28,0.67l-0.03,3.58
					c0,0.41-0.04,0.81-0.11,1.21l-6.81-6.91l-1.53-1.56c-0.97-0.99-2.33-1.53-3.72-1.47c-1.39,0.05-2.7,0.69-3.59,1.75l-4.74,5.61
					c-0.57,0.68-1.54,0.84-2.3,0.38c-0.77-0.47-1.08-1.44-0.71-2.26l3.62-8.19c0.84-1.9,2.73-3.12,4.81-3.11l4.32,0.03
					c0.25,0,0.49-0.1,0.67-0.27L43.05,2.01c0.37-0.37,0.38-0.96,0.01-1.34C42.7,0.3,42.1,0.3,41.73,0.66L28.56,13.63l-3.93-0.03
					c-0.74-0.01-1.47,0.11-2.16,0.32c-1.34-1.16-3.04-1.81-4.84-1.82l-0.53,0L5.59,0.39C5.22,0.02,4.62,0.01,4.25,0.38
					C3.88,0.75,3.87,1.34,4.24,1.72l11.8,11.98c0.18,0.18,0.42,0.28,0.67,0.28l0.92,0.01c1.06,0.01,2.07,0.31,2.94,0.86
					c-1.07,0.73-1.94,1.75-2.48,2.99l-3.62,8.19c-0.75,1.69-0.12,3.69,1.47,4.64c0.59,0.35,1.24,0.53,1.88,0.53
					c1.06,0.01,2.11-0.45,2.84-1.31l4.74-5.61c0.56-0.67,1.35-1.05,2.22-1.08c0.87-0.03,1.69,0.29,2.3,0.91l0.65,0.66
					c0,0,0,0,0,0.01l0.86,0.88l0.02,0.02l0,0l7.83,7.95c0.6,0.61,0.6,1.6-0.02,2.2c-0.3,0.29-0.69,0.45-1.11,0.45
					s-0.81-0.17-1.1-0.47l-3.82-3.88l-2.3-2.33c-0.37-0.37-0.96-0.38-1.34-0.01c-0.37,0.37-0.38,0.96-0.01,1.34l2.3,2.33
					c0,0,0,0,0,0l3.82,3.88c0.6,0.61,0.6,1.6-0.02,2.2c-0.3,0.29-0.69,0.45-1.11,0.45s-0.81-0.17-1.1-0.46l-3.82-3.88l-2.3-2.33
					c-0.37-0.37-0.96-0.38-1.34-0.01c-0.37,0.37-0.38,0.96-0.01,1.34l2.3,2.33c0,0,0,0,0,0l3.82,3.88c0.6,0.61,0.6,1.6-0.02,2.2
					c-0.3,0.29-0.69,0.45-1.11,0.45c-0.3,0-0.58-0.09-0.82-0.24c-0.07-0.09-0.15-0.18-0.23-0.26l-1.79-1.82
					c-0.08-0.08-0.17-0.14-0.27-0.19l-4.1-4.16c-0.37-0.37-0.96-0.38-1.34-0.01c-0.37,0.37-0.38,0.96-0.01,1.34l6.12,6.22
					c0.08,0.08,0.17,0.16,0.26,0.24c0.15,0.25,0.23,0.53,0.23,0.83c0,0.42-0.17,0.81-0.47,1.1c-0.61,0.6-1.6,0.6-2.2-0.02
					l-0.96-0.98c0.98-1.34,0.88-3.24-0.32-4.46c-0.65-0.66-1.51-1.02-2.43-1.03c-0.03,0-0.06,0-0.1,0c0.03-0.91-0.3-1.84-0.99-2.54
					c-0.65-0.66-1.51-1.02-2.43-1.03c-0.03,0-0.06,0-0.1,0c0.03-0.91-0.3-1.84-0.99-2.54c-0.65-0.66-1.51-1.02-2.43-1.03
					c-0.03,0-0.06,0-0.1,0c0.03-0.91-0.3-1.84-0.99-2.54c-0.65-0.66-1.51-1.02-2.43-1.03c-0.92-0.01-1.79,0.35-2.45,0.99l-0.72,0.71
					c-1.48-1.71-2.31-3.85-2.38-6.12l4.64-4.57c0.37-0.37,0.38-0.96,0.01-1.34c-0.37-0.37-0.96-0.38-1.34-0.01L5.63,23l-3.92-3.98
					C1.34,18.64,0.74,18.64,0.37,19C0,19.37-0.01,19.97,0.36,20.34l4.32,4.38c0.07,2.81,1.13,5.46,3.01,7.55
					c-0.29,0.51-0.45,1.08-0.45,1.69c-0.01,0.92,0.35,1.79,0.99,2.45h0c0.67,0.68,1.55,1.02,2.43,1.03c0.03,0,0.06,0,0.09,0
					c0,0.03,0,0.06,0,0.1c-0.01,0.92,0.35,1.79,0.99,2.45h0c0.67,0.68,1.55,1.02,2.43,1.03c0.03,0,0.06,0,0.09,0
					c0,0.03,0,0.06,0,0.1c-0.01,0.92,0.35,1.79,0.99,2.45h0c0.67,0.68,1.55,1.02,2.43,1.03c0.03,0,0.06,0,0.09,0
					c0,0.03,0,0.06,0,0.1c-0.01,0.92,0.35,1.79,0.99,2.45h0c0.67,0.68,1.55,1.02,2.43,1.03c0.88,0.01,1.77-0.32,2.45-0.99l0.46-0.45
					l0.93,0.94c0.67,0.68,1.55,1.02,2.43,1.03c0.88,0.01,1.77-0.32,2.45-0.99c0.66-0.65,1.02-1.51,1.03-2.43c0-0.02,0-0.03,0-0.05
					c0.02,0,0.03,0,0.05,0c0.92,0.01,1.79-0.35,2.45-0.99c0.7-0.69,1.04-1.61,1.03-2.53c0.03,0,0.06,0,0.1,0
					c0.92,0.01,1.79-0.35,2.45-0.99c0.7-0.69,1.04-1.61,1.03-2.53c0.03,0,0.06,0,0.1,0c0.92,0.01,1.79-0.35,2.45-0.99
					c1.16-1.14,1.34-2.9,0.53-4.24c0.31-0.93,0.47-1.89,0.47-2.87l0.02-3.19h0l6.6-6.5C48.58,20,48.58,19.41,48.21,19.03z
					 M9.57,35.07c-0.6-0.61-0.6-1.6,0.02-2.2L11,31.48c0.3-0.29,0.69-0.45,1.11-0.45c0.42,0,0.81,0.17,1.1,0.47
					c0.6,0.61,0.6,1.6-0.02,2.2l-1.41,1.39C11.16,35.69,10.17,35.69,9.57,35.07z M13.08,38.64c-0.6-0.61-0.6-1.6,0.02-2.2l1.41-1.39
					c0.3-0.29,0.69-0.45,1.11-0.45c0.42,0,0.81,0.17,1.1,0.47c0.6,0.61,0.6,1.6-0.02,2.2l-1.41,1.39
					C14.67,39.26,13.69,39.25,13.08,38.64z M18.8,42.23c-0.61,0.6-1.6,0.6-2.2-0.02c-0.6-0.61-0.6-1.6,0.02-2.2l1.41-1.39
					c0.3-0.29,0.69-0.45,1.11-0.45c0.42,0,0.81,0.17,1.1,0.47c0.6,0.61,0.6,1.6-0.02,2.2L18.8,42.23z M23.73,44.41l-1.41,1.39
					c-0.61,0.6-1.6,0.6-2.2-0.02h0c-0.6-0.61-0.6-1.6,0.02-2.2l1.41-1.39c0.3-0.29,0.69-0.45,1.11-0.45c0.42,0,0.81,0.17,1.1,0.47
					C24.35,42.81,24.34,43.8,23.73,44.41z"/>
				<path class="st8" d="M24.41,3.49c-0.52,0-0.95,0.42-0.95,0.94l-0.03,4.36c0,0.52,0.42,0.95,0.94,0.95
					c0.52,0,0.95-0.42,0.95-0.94l0.03-4.36C25.35,3.92,24.93,3.49,24.41,3.49z"/>
				<path class="st8" d="M25.1,0.53c-0.17-0.18-0.42-0.28-0.67-0.28c-0.25,0-0.49,0.1-0.67,0.27c-0.18,0.17-0.28,0.42-0.28,0.67
					s0.1,0.49,0.27,0.67c0.17,0.18,0.42,0.28,0.67,0.28s0.49-0.1,0.67-0.27c0.18-0.17,0.28-0.42,0.28-0.67S25.28,0.7,25.1,0.53z"/>
				<path class="st8" d="M31.08,6.59c-0.37-0.37-0.96-0.38-1.34-0.01l-1.81,1.79c-0.37,0.37-0.38,0.96-0.01,1.34
					c0.18,0.19,0.42,0.28,0.67,0.28c0.24,0,0.48-0.09,0.67-0.27l1.81-1.79C31.44,7.56,31.45,6.97,31.08,6.59z"/>
				<path class="st8" d="M20.73,8.23l-1.7-1.72c-0.37-0.37-0.96-0.38-1.34-0.01c-0.37,0.37-0.38,0.96-0.01,1.34l1.7,1.72
					c0.18,0.19,0.42,0.28,0.67,0.28s0.48-0.09,0.67-0.27C21.09,9.2,21.1,8.6,20.73,8.23z"/>
			</g>
		</g>
	</g>
</g>
<g id="Layer_2">
</g>
<g id="Layer_3">
</g>
</svg>
