<?xml version="1.0" encoding="utf-8"?>
<!-- Generator: Adobe Illustrator 24.1.1, SVG Export Plug-In . SVG Version: 6.00 Build 0)  -->
<svg version="1.1" xmlns="http://www.w3.org/2000/svg" xmlns:xlink="http://www.w3.org/1999/xlink" x="0px" y="0px"
	 viewBox="0 0 71.75 59.65" style="enable-background:new 0 0 71.75 59.65;" xml:space="preserve">
<style type="text/css">
	.st0{fill:none;stroke:#F4F7F9;stroke-miterlimit:10;}
	.st1{fill:#F4F7F9;}
	.st2{fill:#315B51;}
	.st3{fill:#C8B34C;}
	.st4{fill:#B3B2B3;}
	.st5{fill:#2BB898;}
	.st6{fill:#D39241;}
	.st7{fill:#385BA6;}
	.st8{fill:#515151;}
	.st9{fill:#F4E8AA;}
	.st10{fill:#FAC86E;}
	.st11{fill:#F4F4F4;}
	.st12{fill:#AD9944;}
	.st13{fill:#00A99D;}
	.st14{fill:url(#SVGID_1_);}
	.st15{fill:#C4AF4C;}
	.st16{fill-rule:evenodd;clip-rule:evenodd;fill:#C4AF4C;}
	.st17{filter:url(#Adobe_OpacityMaskFilter);}
	.st18{fill:url(#SVGID_3_);}
	.st19{mask:url(#SVGID_2_);fill-rule:evenodd;clip-rule:evenodd;fill:#C4AF4C;}
	.st20{filter:url(#Adobe_OpacityMaskFilter_1_);}
	.st21{fill:url(#SVGID_5_);}
	.st22{mask:url(#SVGID_4_);fill-rule:evenodd;clip-rule:evenodd;fill:#F0E4A6;}
	.st23{filter:url(#Adobe_OpacityMaskFilter_2_);}
	.st24{fill:url(#SVGID_7_);}
	.st25{mask:url(#SVGID_6_);fill-rule:evenodd;clip-rule:evenodd;fill:#F0E4A6;}
	.st26{filter:url(#Adobe_OpacityMaskFilter_3_);}
	.st27{fill:url(#SVGID_9_);}
	.st28{mask:url(#SVGID_8_);fill-rule:evenodd;clip-rule:evenodd;fill:#F0E4A6;}
	.st29{filter:url(#Adobe_OpacityMaskFilter_4_);}
	.st30{fill:url(#SVGID_11_);}
	.st31{mask:url(#SVGID_10_);fill-rule:evenodd;clip-rule:evenodd;fill:#F0E4A6;}
	.st32{opacity:0.5;fill-rule:evenodd;clip-rule:evenodd;fill:#C4AF4C;}
	.st33{filter:url(#Adobe_OpacityMaskFilter_5_);}
	.st34{fill:url(#SVGID_13_);}
	.st35{mask:url(#SVGID_12_);fill-rule:evenodd;clip-rule:evenodd;fill:#C4AF4C;}
	.st36{filter:url(#Adobe_OpacityMaskFilter_6_);}
	.st37{fill:url(#SVGID_15_);}
	.st38{mask:url(#SVGID_14_);fill-rule:evenodd;clip-rule:evenodd;fill:#C4AF4C;}
	.st39{filter:url(#Adobe_OpacityMaskFilter_7_);}
	.st40{fill:url(#SVGID_17_);}
	.st41{mask:url(#SVGID_16_);fill-rule:evenodd;clip-rule:evenodd;fill:#F0E4A6;}
	.st42{fill-rule:evenodd;clip-rule:evenodd;fill:#315B51;}
	.st43{filter:url(#Adobe_OpacityMaskFilter_8_);}
	.st44{fill:url(#SVGID_19_);}
	.st45{mask:url(#SVGID_18_);fill-rule:evenodd;clip-rule:evenodd;fill:#2BB494;}
	.st46{fill:#AFAEAF;}
	.st47{fill:#FFFFFF;}
	.st48{fill:none;stroke:#FFFFFF;stroke-width:0.25;stroke-miterlimit:10;}
	.st49{fill:#333333;}
	.st50{fill:none;stroke:#CACACA;stroke-width:0.5;stroke-miterlimit:10;}
	.st51{opacity:0.3;}
	.st52{fill:url(#SVGID_20_);}
	.st53{fill:url(#SVGID_21_);}
	.st54{fill:url(#SVGID_22_);}
	.st55{fill:url(#SVGID_23_);}
	.st56{fill:url(#SVGID_24_);}
	.st57{fill:url(#SVGID_25_);}
	.st58{fill:#029385;}
	.st59{fill:#009183;}
	.st60{fill:#FCD1C5;}
	.st61{fill:url(#SVGID_26_);}
	.st62{fill:#F0F6FF;}
	.st63{fill:#AA8383;}
	.st64{fill:#C4CCD6;}
	.st65{fill:#E2B1A6;}
	.st66{fill:#1B2B3A;}
	.st67{fill:#936D6D;}
	.st68{fill:url(#SVGID_27_);}
	.st69{fill:url(#SVGID_28_);}
	.st70{fill:url(#SVGID_29_);}
	.st71{fill:url(#SVGID_30_);}
	.st72{fill:url(#SVGID_31_);}
	.st73{fill:#160A5B;}
	.st74{fill:url(#SVGID_32_);}
	.st75{fill:#722318;}
	.st76{fill:url(#SVGID_33_);}
	.st77{fill:#453C9E;}
	.st78{fill:url(#SVGID_34_);}
	.st79{fill:#DAE1E5;}
	.st80{fill:#E0E0E0;}
	.st81{filter:url(#Adobe_OpacityMaskFilter_9_);}
	.st82{fill:url(#SVGID_36_);}
	.st83{mask:url(#SVGID_35_);fill-rule:evenodd;clip-rule:evenodd;fill:#C4AF4C;}
	.st84{filter:url(#Adobe_OpacityMaskFilter_10_);}
	.st85{fill:url(#SVGID_38_);}
	.st86{mask:url(#SVGID_37_);fill-rule:evenodd;clip-rule:evenodd;fill:#F0E4A6;}
	.st87{filter:url(#Adobe_OpacityMaskFilter_11_);}
	.st88{fill:url(#SVGID_40_);}
	.st89{mask:url(#SVGID_39_);fill-rule:evenodd;clip-rule:evenodd;fill:#F0E4A6;}
	.st90{filter:url(#Adobe_OpacityMaskFilter_12_);}
	.st91{fill:url(#SVGID_42_);}
	.st92{mask:url(#SVGID_41_);fill-rule:evenodd;clip-rule:evenodd;fill:#F0E4A6;}
	.st93{filter:url(#Adobe_OpacityMaskFilter_13_);}
	.st94{fill:url(#SVGID_44_);}
	.st95{mask:url(#SVGID_43_);fill-rule:evenodd;clip-rule:evenodd;fill:#F0E4A6;}
	.st96{filter:url(#Adobe_OpacityMaskFilter_14_);}
	.st97{fill:url(#SVGID_46_);}
	.st98{mask:url(#SVGID_45_);fill-rule:evenodd;clip-rule:evenodd;fill:#C4AF4C;}
	.st99{filter:url(#Adobe_OpacityMaskFilter_15_);}
	.st100{fill:url(#SVGID_48_);}
	.st101{mask:url(#SVGID_47_);fill-rule:evenodd;clip-rule:evenodd;fill:#C4AF4C;}
	.st102{fill:none;stroke:#2BB797;stroke-width:1.16;stroke-linecap:round;stroke-linejoin:round;stroke-miterlimit:10;}
	.st103{fill-rule:evenodd;clip-rule:evenodd;fill:none;stroke:#C6C6C6;stroke-width:0.5;stroke-miterlimit:10;}
	.st104{fill-rule:evenodd;clip-rule:evenodd;fill:none;stroke:#C6C6C6;stroke-width:0.75;stroke-miterlimit:10;}
	.st105{fill:#2BB797;}
	.st106{fill:#2BB797;stroke:#2BB797;stroke-width:0.7684;stroke-miterlimit:10;}
	.st107{clip-path:url(#SVGID_50_);fill:#BBBBBB;}
	.st108{clip-path:url(#SVGID_50_);fill:#959595;}
	.st109{clip-path:url(#SVGID_50_);}
	.st110{fill:#959595;}
	.st111{fill:#BBBBBB;}
	.st112{fill:none;stroke:#C6C6C6;stroke-width:0.5;stroke-miterlimit:10;}
	.st113{clip-path:url(#SVGID_52_);}
	.st114{fill-rule:evenodd;clip-rule:evenodd;fill:none;stroke:#C9C9C9;stroke-width:0.5;stroke-miterlimit:10;}
	.st115{fill:#B2B1B2;}
	.st116{fill:#4D4D4D;}
	.st117{fill:#A5CFE3;}
	.st118{fill:url(#);}
	.st119{fill:#9F9F9F;}
	.st120{opacity:0.3;fill:url(#XMLID_64_);}
	.st121{fill:#35160D;}
	.st122{fill:#FCC082;}
	.st123{opacity:0.5;fill:#FCC082;}
	.st124{fill:#221001;}
	.st125{fill:url(#XMLID_65_);}
	.st126{enable-background:new    ;}
	.st127{fill:#1E1B1C;}
	.st128{fill:#0F0B0C;}
	.st129{fill:#4B4949;}
	.st130{opacity:0.3;fill:url(#XMLID_66_);}
	.st131{fill:url(#XMLID_67_);}
	.st132{fill-rule:evenodd;clip-rule:evenodd;fill:none;stroke:#CACACA;stroke-width:0.5;stroke-miterlimit:10;}
	.st133{fill:#249373;}
	.st134{fill:none;stroke:#249373;stroke-miterlimit:10;}
	.st135{fill:#E2CA49;}
	.st136{fill:none;stroke:#E2CA49;stroke-miterlimit:10;}
	.st137{fill:#3C3C3B;}
	.st138{fill:none;stroke:#000000;stroke-miterlimit:10;}
	.st139{fill:url(#SVGID_53_);}
	.st140{fill:url(#SVGID_54_);}
	.st141{fill:url(#SVGID_55_);}
	.st142{fill:url(#SVGID_56_);}
	.st143{fill:url(#SVGID_57_);}
	.st144{fill:url(#SVGID_58_);}
	.st145{fill:url(#SVGID_59_);}
	.st146{fill:url(#SVGID_60_);}
	.st147{fill:url(#SVGID_61_);}
	.st148{fill:url(#SVGID_62_);}
	.st149{fill:url(#SVGID_63_);}
	.st150{fill:url(#SVGID_64_);}
	.st151{fill:url(#SVGID_65_);}
	.st152{fill:url(#SVGID_66_);}
	.st153{fill:url(#SVGID_67_);}
	.st154{fill:#8E8E8E;}
	.st155{clip-path:url(#SVGID_69_);fill:#E2E4E6;}
	.st156{clip-path:url(#SVGID_71_);fill:#E2E4E6;}
	.st157{clip-path:url(#SVGID_73_);fill:#E2E4E6;}
</style>
<g id="Layer_1">
	<path class="st154" d="M71.26,25.4c-0.73-3.41-2.66-5.84-5.77-7.35c-4.45-2.16-9.04-2.25-13.69-0.78c-3.41,1.08-5.8,3.29-7.08,6.64
		c-0.74,1.94-0.78,4.01-0.91,6.2c0.04,0.62,0.06,1.39,0.14,2.16c0.42,3.92,2.08,7.12,5.64,9.06c4.22,2.3,8.67,2.61,13.29,1.39
		c4.85-1.28,7.69-4.35,8.56-9.28C71.91,30.75,71.83,28.08,71.26,25.4z M62.3,30.03c0.01,1.1-0.01,2.19-0.11,3.29
		c-0.25,2.7-1.74,3.6-4.52,3.66c-0.41,0.01-0.83-0.08-1.24-0.15c-1.96-0.34-2.61-1.76-2.87-3.49c-0.38-2.46-0.27-4.92,0.04-7.37
		c0.29-2.26,1.55-3.33,4.58-3.28c2.72,0.05,3.89,1.45,4.11,4.66C62.35,28.24,62.3,29.13,62.3,30.03z M15.69,42.82
		c-2.38-0.02-4.75-0.01-7.13-0.01c-2.53,0-5.05-0.02-7.58,0.01c-0.72,0.01-1-0.19-0.97-0.95c0.05-1.51,0.03-3.03,0.01-4.55
		C0,36.77,0.15,36.52,0.76,36.56c0.8,0.05,1.6,0,2.41,0.02c0.45,0.01,0.64-0.14,0.64-0.61c-0.01-4.16-0.01-8.32,0-12.48
		c0-0.52-0.24-0.68-0.7-0.66c-0.77,0.02-1.54,0.02-2.32,0.06c-0.56,0.03-0.8-0.15-0.79-0.75c0.04-1.6,0.04-3.21,0.01-4.81
		C0,16.71,0.24,16.57,0.8,16.57c2.5,0.02,4.99,0.01,7.49,0.01c2.5,0,4.99,0.02,7.49-0.01c0.6-0.01,0.84,0.14,0.83,0.78
		c-0.04,1.6-0.03,3.21,0,4.81c0.01,0.56-0.2,0.73-0.73,0.71c-0.8-0.03-1.6,0.01-2.41-0.01c-0.49-0.01-0.68,0.17-0.68,0.67
		c0.01,4.13,0.01,8.26,0,12.39c0,0.53,0.22,0.65,0.7,0.64c0.83-0.02,1.66,0.02,2.5-0.01c0.47-0.02,0.62,0.16,0.62,0.62
		c-0.02,1.6-0.04,3.21,0.01,4.81C16.62,42.71,16.29,42.83,15.69,42.82z M23.98,41.73c0.12,0.98-0.38,1.14-1.21,1.1
		c-1.07-0.05-2.14-0.01-3.21-0.01c-1.2,0-1.2,0-1.2-1.25c0-1.19,0-2.38,0-3.57c0-1.31,0.01-2.62-0.01-3.92
		c-0.01-0.52,0.16-0.75,0.72-0.74c1.28,0.03,2.56,0.02,3.83,0c0.41-0.01,0.67,0.13,0.87,0.47c1.76,2.89,6.52,4.29,9.94,3.36
		c0.23-0.06,0.46-0.14,0.67-0.25c0.71-0.36,0.77-0.99,0.14-1.47c-0.5-0.38-1.12-0.53-1.72-0.71c-2.78-0.84-5.57-1.68-8.35-2.53
		c-2.05-0.62-3.77-1.76-5.03-3.5c-2.44-3.36-1.5-8.31,1.96-10.6c2.69-1.78,5.69-1.93,8.75-1.67c1.97,0.17,3.85,0.65,5.55,1.76
		c0.77,0.5,0.93,0.41,0.93-0.47c0-0.59,0.21-0.78,0.78-0.77c1.34,0.03,2.68,0.02,4.01,0c0.49-0.01,0.68,0.17,0.67,0.68
		c-0.02,2.5-0.02,4.99,0.01,7.49c0.01,0.58-0.24,0.7-0.74,0.69c-1.34-0.02-2.68-0.02-4.01,0c-0.39,0-0.65-0.13-0.91-0.43
		c-2.37-2.71-5.48-3.49-8.93-3.31c-0.39,0.02-0.76,0.16-1.06,0.41c-0.61,0.51-0.59,1.18,0.07,1.63c0.47,0.32,1.03,0.46,1.57,0.62
		c2.73,0.8,5.5,1.51,8.2,2.39c3.16,1.03,5.6,2.91,6.42,6.32c0.88,3.63-0.84,7.17-4.23,8.72c-4.5,2.06-8.91,1.41-13.24-0.6
		c-0.19-0.09-0.37-0.19-0.55-0.29C24.16,40.99,23.92,41.21,23.98,41.73z M49.09,3.64c-5.53-2.96-11.43-4.17-17.64-3.43
		c-5.88,0.7-11.19,2.92-15.76,6.73c-2.06,1.72-3.89,3.67-5.37,5.93c0,0,0,0.01-0.01,0.01l0.6,0.48c0.01-0.01,0.02-0.01,0.03-0.02
		c0.1-0.11,0.18-0.24,0.27-0.36c1.32-1.77,2.81-3.38,4.46-4.85c1.14-1.02,1.14-1.02,2.49-0.24c0.44,0.25,0.87,0.52,1.33,0.73
		c0.58,0.27,0.55,0.57,0.17,1.01c-0.91,1.06-1.78,2.15-2.44,3.39c-0.01,0.02-0.03,0.05-0.05,0.07l0.56,0.45c0,0,0,0,0,0
		c0.18-0.14,0.33-0.34,0.46-0.53c0.69-1.04,1.49-2,2.29-2.96c0.39-0.47,0.76-0.54,1.31-0.32c0.93,0.38,1.9,0.7,2.85,1.04
		c1.57,0.56,1.57,0.56,0.91,2.12c-0.02,0.06-0.06,0.12-0.09,0.18l0.7,0.41c0.07-0.05,0.12-0.12,0.17-0.21
		c0.2-0.37,0.4-0.73,0.55-1.12c0.19-0.48,0.49-0.6,0.97-0.49c1.83,0.42,3.7,0.55,5.57,0.66c0.56,0.03,1.01,0.1,1.02,0.8
		c0,0.03,0.01,0.05,0.02,0.08l0.84-0.04c0-0.03,0.01-0.05,0.01-0.07c-0.02-0.62,0.36-0.7,0.87-0.73c1.51-0.11,3.02-0.21,4.52-0.48
		c1.6-0.29,1.6-0.27,2.45,1.17c0.02,0.04,0.04,0.07,0.06,0.11l0.76-0.44l0.03,0.06c-0.09-0.25-0.21-0.5-0.33-0.74
		c-0.29-0.56-0.12-0.85,0.48-1.05c1.24-0.4,2.48-0.82,3.7-1.3c0.64-0.26,1.03-0.1,1.46,0.4c0.8,0.96,1.6,1.92,2.27,2.97
		c0.03,0.05,0.07,0.09,0.11,0.13l0.64-0.51c-0.61-1.05-1.34-2-2.11-2.92c-0.65-0.78-0.64-0.86,0.26-1.37
		c0.46-0.27,0.96-0.49,1.38-0.81c0.61-0.46,1.08-0.39,1.65,0.09c1.84,1.57,3.53,3.28,4.92,5.26c0.02,0.03,0.04,0.04,0.05,0.07
		l0.65-0.52C56.44,8.79,53.12,5.8,49.09,3.64z M21.24,7.9c-0.12,0.12-0.28,0.22-0.44,0.27c-0.25,0.07-2.67-1.28-2.76-1.51
		c-0.11-0.28,0.05-0.47,0.25-0.6c2.53-1.67,5.18-3.09,8.14-3.86c0.09-0.02,0.17-0.04,0.28-0.06c0.36,0.04,0.7,0.18,0.85,0.53
		c0.16,0.38-0.19,0.52-0.43,0.67C25,4.64,23.04,6.17,21.24,7.9z M27.03,9.92c-0.15,0.29-0.35,0.48-0.73,0.46
		c-1.34-0.48-2.68-0.93-4.01-1.44c-0.45-0.17-0.31-0.51-0.03-0.77c1.86-1.76,3.89-3.3,6.12-4.55c0.43-0.24,1.75,0.1,2.04,0.49
		c0.19,0.25,0.03,0.44-0.11,0.64C29.14,6.42,27.98,8.11,27.03,9.92z M34.38,10.71c0.01,0.53-0.24,0.73-0.76,0.73
		c-1.76,0-3.49-0.24-5.21-0.57c-0.56-0.11-0.7-0.4-0.44-0.88c0.97-1.81,2.17-3.47,3.4-5.1c0.34-0.46,0.78-0.32,1.21-0.25
		c1.81,0.29,1.81,0.29,1.82,2.16c0,0.44,0,0.89,0,1.33c-0.01,0-0.02,0-0.03,0C34.38,8.99,34.37,9.85,34.38,10.71z M34.71,4.05
		C30.54,4.2,28,1.79,28,1.79s1.26-1.03,6.71-1.03c5.09-0.01,6.71,1.02,6.71,1.02S39.11,3.89,34.71,4.05z M41.07,10.85
		c-1.66,0.35-3.33,0.54-5.02,0.6c-0.56,0.02-0.74-0.2-0.73-0.72c0.02-0.86,0-1.72,0-2.58c0,0-0.01,0-0.01,0
		c0-0.86,0.02-1.72-0.01-2.58c-0.02-0.52,0.22-0.76,0.71-0.81c0.38-0.04,0.77-0.06,1.14-0.16c0.51-0.13,0.84,0.05,1.14,0.45
		c1.17,1.53,2.24,3.13,3.19,4.81C41.8,10.42,41.73,10.71,41.07,10.85z M47.36,8.85c-1.34,0.63-2.76,1.06-4.08,1.42
		c-0.39,0.07-0.56-0.08-0.68-0.31c-1.01-1.85-2.22-3.57-3.39-5.32c-0.14-0.21-0.25-0.39-0.03-0.62c0.49-0.5,1.66-0.7,2.3-0.34
		c2.13,1.19,4.08,2.63,5.84,4.33C47.59,8.29,47.88,8.61,47.36,8.85z M51.4,6.72c-0.09,0.08-0.2,0.13-0.3,0.19
		c-2.18,1.35-2.17,1.35-4.09-0.36c-1.36-1.21-2.8-2.3-4.37-3.22c-0.29-0.17-0.75-0.33-0.52-0.78c0.2-0.41,0.58-0.49,1.06-0.37
		c2.94,0.7,5.51,2.17,8.01,3.79c0.33,0.21,0.38,0.33,0.38,0.52C51.54,6.54,51.48,6.65,51.4,6.72z M20.03,56.01
		c5.53,2.96,11.43,4.17,17.64,3.43c5.88-0.7,11.19-2.92,15.76-6.73c2.06-1.72,3.89-3.67,5.37-5.93c0,0,0-0.01,0.01-0.01l-0.6-0.48
		c-0.01,0.01-0.02,0.01-0.03,0.02c-0.1,0.11-0.18,0.24-0.27,0.36c-1.32,1.77-2.81,3.38-4.46,4.85c-1.14,1.02-1.14,1.02-2.49,0.24
		c-0.44-0.25-0.87-0.52-1.33-0.73c-0.58-0.27-0.55-0.57-0.17-1.01c0.91-1.06,1.78-2.15,2.44-3.39c0.01-0.02,0.03-0.05,0.05-0.07
		l-0.56-0.45c0,0,0,0,0,0c-0.18,0.14-0.33,0.34-0.46,0.53c-0.69,1.04-1.49,2-2.29,2.96c-0.39,0.47-0.76,0.54-1.31,0.32
		c-0.93-0.38-1.9-0.7-2.85-1.04c-1.57-0.56-1.57-0.56-0.91-2.12c0.02-0.06,0.06-0.12,0.09-0.18l-0.7-0.41
		c-0.07,0.05-0.12,0.12-0.17,0.21c-0.2,0.37-0.4,0.73-0.55,1.12c-0.19,0.48-0.49,0.6-0.97,0.49c-1.83-0.42-3.7-0.55-5.57-0.66
		c-0.56-0.03-1.01-0.1-1.02-0.8c0-0.03-0.01-0.05-0.02-0.08l-0.84,0.04c0,0.03-0.01,0.05-0.01,0.07c0.02,0.62-0.36,0.7-0.87,0.73
		c-1.51,0.11-3.02,0.21-4.52,0.48c-1.6,0.29-1.6,0.27-2.45-1.17c-0.02-0.04-0.04-0.07-0.06-0.11l-0.76,0.44l-0.03-0.06
		c0.09,0.25,0.21,0.5,0.33,0.74c0.29,0.56,0.12,0.85-0.48,1.05c-1.24,0.4-2.48,0.82-3.7,1.3c-0.64,0.26-1.03,0.1-1.46-0.4
		c-0.8-0.96-1.6-1.92-2.27-2.97c-0.03-0.05-0.07-0.09-0.11-0.13l-0.64,0.51c0.61,1.05,1.34,2,2.11,2.92
		c0.65,0.78,0.64,0.86-0.26,1.37c-0.46,0.27-0.96,0.49-1.38,0.81c-0.61,0.46-1.08,0.39-1.65-0.09c-1.84-1.57-3.53-3.28-4.92-5.26
		c-0.02-0.03-0.04-0.04-0.05-0.07L10,47.18C12.69,50.87,16,53.85,20.03,56.01z M47.88,51.76c0.12-0.12,0.28-0.22,0.44-0.27
		c0.25-0.07,2.67,1.28,2.76,1.51c0.11,0.28-0.05,0.47-0.25,0.6c-2.53,1.67-5.18,3.09-8.14,3.86c-0.09,0.02-0.17,0.04-0.28,0.06
		c-0.36-0.04-0.7-0.18-0.85-0.53c-0.16-0.38,0.19-0.52,0.43-0.67C44.12,55.02,46.08,53.49,47.88,51.76z M42.09,49.73
		c0.15-0.29,0.35-0.48,0.73-0.46c1.34,0.48,2.68,0.93,4.01,1.44c0.45,0.17,0.31,0.51,0.03,0.77c-1.86,1.76-3.89,3.3-6.12,4.55
		c-0.43,0.24-1.75-0.1-2.04-0.49c-0.19-0.25-0.03-0.44,0.11-0.64C39.98,53.23,41.14,51.55,42.09,49.73z M34.74,48.95
		c-0.01-0.53,0.24-0.73,0.76-0.73c1.76,0,3.49,0.24,5.21,0.57c0.56,0.11,0.7,0.4,0.44,0.88c-0.97,1.81-2.17,3.47-3.4,5.1
		c-0.34,0.46-0.78,0.32-1.21,0.25c-1.81-0.29-1.81-0.29-1.82-2.16c0-0.44,0-0.89,0-1.33c0.01,0,0.02,0,0.03,0
		C34.74,50.67,34.75,49.81,34.74,48.95z M34.41,55.61c4.17-0.15,6.71,2.26,6.71,2.26s-1.26,1.03-6.71,1.03
		c-5.09,0.01-6.71-1.02-6.71-1.02S30.01,55.77,34.41,55.61z M28.05,48.81c1.66-0.35,3.33-0.54,5.02-0.6
		c0.56-0.02,0.74,0.2,0.73,0.72c-0.02,0.86,0,1.72,0,2.58c0,0,0.01,0,0.01,0c0,0.86-0.02,1.72,0.01,2.58
		c0.02,0.52-0.22,0.76-0.71,0.81c-0.38,0.04-0.77,0.06-1.14,0.16c-0.51,0.13-0.84-0.05-1.14-0.45c-1.17-1.53-2.24-3.13-3.19-4.81
		C27.32,49.24,27.39,48.95,28.05,48.81z M21.76,50.8c1.34-0.63,2.76-1.06,4.08-1.42c0.39-0.07,0.56,0.08,0.68,0.31
		c1.01,1.85,2.22,3.57,3.39,5.32c0.14,0.21,0.25,0.39,0.03,0.62c-0.49,0.5-1.66,0.7-2.3,0.34c-2.13-1.19-4.08-2.63-5.84-4.33
		C21.53,51.37,21.24,51.05,21.76,50.8z M17.72,52.93c0.09-0.08,0.2-0.13,0.3-0.19c2.18-1.35,2.17-1.35,4.09,0.36
		c1.36,1.21,2.8,2.3,4.37,3.22c0.29,0.17,0.75,0.33,0.52,0.78c-0.2,0.41-0.58,0.49-1.06,0.37c-2.94-0.7-5.51-2.17-8.01-3.79
		c-0.33-0.21-0.38-0.33-0.38-0.52C17.58,53.11,17.64,53.01,17.72,52.93z"/>
</g>
<g id="Layer_2">
</g>
<g id="Layer_3">
</g>
</svg>
