<?xml version="1.0" encoding="utf-8"?>
<!-- Generator: Adobe Illustrator 24.1.1, SVG Export Plug-In . SVG Version: 6.00 Build 0)  -->
<svg version="1.1" xmlns="http://www.w3.org/2000/svg" xmlns:xlink="http://www.w3.org/1999/xlink" x="0px" y="0px"
	 viewBox="0 0 64.27 78.83" style="enable-background:new 0 0 64.27 78.83;" xml:space="preserve">
<style type="text/css">
	.st0{fill:none;stroke:#F4F7F9;stroke-miterlimit:10;}
	.st1{fill:#F4F7F9;}
	.st2{fill:#315B51;}
	.st3{fill:#C8B34C;}
	.st4{fill:#B3B2B3;}
	.st5{fill:#2BB898;}
	.st6{fill:#D39241;}
	.st7{fill:#385BA6;}
	.st8{fill:#515151;}
	.st9{fill:#F4E8AA;}
	.st10{fill:#FAC86E;}
	.st11{fill:#F4F4F4;}
	.st12{fill:#AD9944;}
	.st13{fill:#00A99D;}
	.st14{fill:url(#SVGID_1_);}
	.st15{fill:#C4AF4C;}
	.st16{fill-rule:evenodd;clip-rule:evenodd;fill:#C4AF4C;}
	.st17{filter:url(#Adobe_OpacityMaskFilter);}
	.st18{fill:url(#SVGID_3_);}
	.st19{mask:url(#SVGID_2_);fill-rule:evenodd;clip-rule:evenodd;fill:#C4AF4C;}
	.st20{filter:url(#Adobe_OpacityMaskFilter_1_);}
	.st21{fill:url(#SVGID_5_);}
	.st22{mask:url(#SVGID_4_);fill-rule:evenodd;clip-rule:evenodd;fill:#F0E4A6;}
	.st23{filter:url(#Adobe_OpacityMaskFilter_2_);}
	.st24{fill:url(#SVGID_7_);}
	.st25{mask:url(#SVGID_6_);fill-rule:evenodd;clip-rule:evenodd;fill:#F0E4A6;}
	.st26{filter:url(#Adobe_OpacityMaskFilter_3_);}
	.st27{fill:url(#SVGID_9_);}
	.st28{mask:url(#SVGID_8_);fill-rule:evenodd;clip-rule:evenodd;fill:#F0E4A6;}
	.st29{filter:url(#Adobe_OpacityMaskFilter_4_);}
	.st30{fill:url(#SVGID_11_);}
	.st31{mask:url(#SVGID_10_);fill-rule:evenodd;clip-rule:evenodd;fill:#F0E4A6;}
	.st32{opacity:0.5;fill-rule:evenodd;clip-rule:evenodd;fill:#C4AF4C;}
	.st33{filter:url(#Adobe_OpacityMaskFilter_5_);}
	.st34{fill:url(#SVGID_13_);}
	.st35{mask:url(#SVGID_12_);fill-rule:evenodd;clip-rule:evenodd;fill:#C4AF4C;}
	.st36{filter:url(#Adobe_OpacityMaskFilter_6_);}
	.st37{fill:url(#SVGID_15_);}
	.st38{mask:url(#SVGID_14_);fill-rule:evenodd;clip-rule:evenodd;fill:#C4AF4C;}
	.st39{filter:url(#Adobe_OpacityMaskFilter_7_);}
	.st40{fill:url(#SVGID_17_);}
	.st41{mask:url(#SVGID_16_);fill-rule:evenodd;clip-rule:evenodd;fill:#F0E4A6;}
	.st42{fill-rule:evenodd;clip-rule:evenodd;fill:#315B51;}
	.st43{filter:url(#Adobe_OpacityMaskFilter_8_);}
	.st44{fill:url(#SVGID_19_);}
	.st45{mask:url(#SVGID_18_);fill-rule:evenodd;clip-rule:evenodd;fill:#2BB494;}
	.st46{fill:#AFAEAF;}
	.st47{fill:#FFFFFF;}
	.st48{fill:none;stroke:#FFFFFF;stroke-width:0.25;stroke-miterlimit:10;}
	.st49{fill:#333333;}
	.st50{fill:none;stroke:#CACACA;stroke-width:0.5;stroke-miterlimit:10;}
	.st51{opacity:0.3;}
	.st52{fill:url(#SVGID_20_);}
	.st53{fill:url(#SVGID_21_);}
	.st54{fill:url(#SVGID_22_);}
	.st55{fill:url(#SVGID_23_);}
	.st56{fill:url(#SVGID_24_);}
	.st57{fill:url(#SVGID_25_);}
	.st58{fill:#029385;}
	.st59{fill:#009183;}
	.st60{fill:#FCD1C5;}
	.st61{fill:url(#SVGID_26_);}
	.st62{fill:#F0F6FF;}
	.st63{fill:#AA8383;}
	.st64{fill:#C4CCD6;}
	.st65{fill:#E2B1A6;}
	.st66{fill:#1B2B3A;}
	.st67{fill:#936D6D;}
	.st68{fill:url(#SVGID_27_);}
	.st69{fill:url(#SVGID_28_);}
	.st70{fill:url(#SVGID_29_);}
	.st71{fill:url(#SVGID_30_);}
	.st72{fill:url(#SVGID_31_);}
	.st73{fill:#160A5B;}
	.st74{fill:url(#SVGID_32_);}
	.st75{fill:#722318;}
	.st76{fill:url(#SVGID_33_);}
	.st77{fill:#453C9E;}
	.st78{fill:url(#SVGID_34_);}
	.st79{fill:#DAE1E5;}
	.st80{fill:#E0E0E0;}
	.st81{filter:url(#Adobe_OpacityMaskFilter_9_);}
	.st82{fill:url(#SVGID_36_);}
	.st83{mask:url(#SVGID_35_);fill-rule:evenodd;clip-rule:evenodd;fill:#C4AF4C;}
	.st84{filter:url(#Adobe_OpacityMaskFilter_10_);}
	.st85{fill:url(#SVGID_38_);}
	.st86{mask:url(#SVGID_37_);fill-rule:evenodd;clip-rule:evenodd;fill:#F0E4A6;}
	.st87{filter:url(#Adobe_OpacityMaskFilter_11_);}
	.st88{fill:url(#SVGID_40_);}
	.st89{mask:url(#SVGID_39_);fill-rule:evenodd;clip-rule:evenodd;fill:#F0E4A6;}
	.st90{filter:url(#Adobe_OpacityMaskFilter_12_);}
	.st91{fill:url(#SVGID_42_);}
	.st92{mask:url(#SVGID_41_);fill-rule:evenodd;clip-rule:evenodd;fill:#F0E4A6;}
	.st93{filter:url(#Adobe_OpacityMaskFilter_13_);}
	.st94{fill:url(#SVGID_44_);}
	.st95{mask:url(#SVGID_43_);fill-rule:evenodd;clip-rule:evenodd;fill:#F0E4A6;}
	.st96{filter:url(#Adobe_OpacityMaskFilter_14_);}
	.st97{fill:url(#SVGID_46_);}
	.st98{mask:url(#SVGID_45_);fill-rule:evenodd;clip-rule:evenodd;fill:#C4AF4C;}
	.st99{filter:url(#Adobe_OpacityMaskFilter_15_);}
	.st100{fill:url(#SVGID_48_);}
	.st101{mask:url(#SVGID_47_);fill-rule:evenodd;clip-rule:evenodd;fill:#C4AF4C;}
	.st102{fill:none;stroke:#2BB797;stroke-width:1.16;stroke-linecap:round;stroke-linejoin:round;stroke-miterlimit:10;}
	.st103{fill-rule:evenodd;clip-rule:evenodd;fill:none;stroke:#C6C6C6;stroke-width:0.5;stroke-miterlimit:10;}
	.st104{fill-rule:evenodd;clip-rule:evenodd;fill:none;stroke:#C6C6C6;stroke-width:0.75;stroke-miterlimit:10;}
	.st105{fill:#2BB797;}
	.st106{fill:#2BB797;stroke:#2BB797;stroke-width:0.7684;stroke-miterlimit:10;}
	.st107{clip-path:url(#SVGID_50_);fill:#BBBBBB;}
	.st108{clip-path:url(#SVGID_50_);fill:#959595;}
	.st109{clip-path:url(#SVGID_50_);}
	.st110{fill:#959595;}
	.st111{fill:#BBBBBB;}
	.st112{fill:none;stroke:#C6C6C6;stroke-width:0.5;stroke-miterlimit:10;}
	.st113{clip-path:url(#SVGID_52_);}
	.st114{fill-rule:evenodd;clip-rule:evenodd;fill:none;stroke:#C9C9C9;stroke-width:0.5;stroke-miterlimit:10;}
	.st115{fill:#B2B1B2;}
	.st116{fill:#4D4D4D;}
	.st117{fill:#A5CFE3;}
	.st118{fill:url(#);}
	.st119{fill:#9F9F9F;}
	.st120{opacity:0.3;fill:url(#XMLID_64_);}
	.st121{fill:#35160D;}
	.st122{fill:#FCC082;}
	.st123{opacity:0.5;fill:#FCC082;}
	.st124{fill:#221001;}
	.st125{fill:url(#XMLID_65_);}
	.st126{enable-background:new    ;}
	.st127{fill:#1E1B1C;}
	.st128{fill:#0F0B0C;}
	.st129{fill:#4B4949;}
	.st130{opacity:0.3;fill:url(#XMLID_66_);}
	.st131{fill:url(#XMLID_67_);}
	.st132{fill-rule:evenodd;clip-rule:evenodd;fill:none;stroke:#CACACA;stroke-width:0.5;stroke-miterlimit:10;}
	.st133{fill:#249373;}
	.st134{fill:none;stroke:#249373;stroke-miterlimit:10;}
	.st135{fill:#E2CA49;}
	.st136{fill:none;stroke:#E2CA49;stroke-miterlimit:10;}
	.st137{fill:#3C3C3B;}
	.st138{fill:none;stroke:#000000;stroke-miterlimit:10;}
	.st139{fill:url(#SVGID_53_);}
	.st140{fill:url(#SVGID_54_);}
	.st141{fill:url(#SVGID_55_);}
	.st142{fill:url(#SVGID_56_);}
	.st143{fill:url(#SVGID_57_);}
	.st144{fill:url(#SVGID_58_);}
	.st145{fill:url(#SVGID_59_);}
	.st146{fill:url(#SVGID_60_);}
	.st147{fill:url(#SVGID_61_);}
	.st148{fill:url(#SVGID_62_);}
	.st149{fill:url(#SVGID_63_);}
	.st150{fill:url(#SVGID_64_);}
	.st151{fill:url(#SVGID_65_);}
	.st152{fill:url(#SVGID_66_);}
	.st153{fill:url(#SVGID_67_);}
	.st154{fill:#8E8E8E;}
	.st155{clip-path:url(#SVGID_69_);fill:#E2E4E6;}
	.st156{clip-path:url(#SVGID_71_);fill:#E2E4E6;}
	.st157{clip-path:url(#SVGID_73_);fill:#E2E4E6;}
</style>
<g id="Layer_1">
	<path class="st154" d="M32.2,3.76c2.31,1.34,2.18,3.51,2.19,5.8c0.04,6.83-0.54,22.63-0.54,22.63s1.22-0.93,1.78-1.48
		c6.71-6.61,8.14-15.38,3.94-23.99c-0.15-0.31-0.32-0.61-0.51-0.98c2.27,0.6,4.72,5.78,5.42,9.72c0.69,3.89,0.49,7.69-1.3,11.28
		c-1.76,3.53-4.47,6.22-7.89,8.45c2.4,0.85,4.65,1.17,7.35,1.14c-2.68,1.1-5.12,1.23-7.5,0.82c-1.33-0.23-2.03,0.07-2.6,1.12
		c-0.49,0.91-0.88,0.72-1.31-0.05c-0.58-1.05-1.32-1.28-2.63-1.06c-2.36,0.41-4.78,0.2-7.5-0.79c2.72-0.05,4.98-0.31,7.37-1.17
		c-6.49-4.41-10.36-10.15-9.36-18.22c0.54-4.33,1.87-8.38,5.46-11.33c-2.57,5.43-3.68,10.99-1.7,16.83c1.32,3.89,3.74,7,7.04,9.76
		c0-2.19,0.1-4.15-0.02-6.1c-0.33-5.53-0.41-11.06-0.48-16.6C29.38,7.26,29.3,5.1,31.6,3.76C31.83,3.67,31.98,3.64,32.2,3.76z
		 M44.5,32.49c4.69-2.55,8.01-9.34,7.32-14.7c-0.84-6.48-5.04-11.56-10.94-13.01C49.03,13.14,50.69,22.27,44.5,32.49z M11.92,18.87
		c-0.1,5.45,3.75,12.57,7.06,13.11c-5.8-9.91-4.11-18.83,3.77-27.03C16.55,6.45,12.04,12.27,11.92,18.87z M32.58,3.38
		c1.31,0.66,2.57,0.66,3.71-0.34c0.94-0.83,1.15-1.84,0.65-3.04c-1.91,2.4-2.75,2.52-4.69,1.02c-0.56-0.43-0.75,0.13-1.04,0.36
		c-1.06,0.85-2.11,1.01-3.15,0.01c-0.43-0.41-0.8-0.87-1.23-1.35c-0.5,1.31-0.18,2.32,0.8,3.11c1.13,0.91,2.35,0.87,3.59,0.24
		C31.68,3.2,32.13,3.2,32.58,3.38z M51.26,60.83c-0.55-0.04-0.61-0.83-1.2-0.81c-0.91,1.3-0.87,1.26-0.49,1.7
		c0.7,0.79,0.92-0.24,1.38-0.32C51.27,61.32,51.41,61.15,51.26,60.83z M52.46,61.37c0.22-0.42,0.3-0.96-0.22-1.27
		c-0.87-0.52-0.65,0.49-0.98,0.73c-0.1,0.19-0.2,0.38-0.3,0.57C51.47,61.89,52.02,62.21,52.46,61.37z M43.61,53.31
		c0.03-0.01,0.06-0.04,0.09-0.11s0.05-0.14,0.06-0.22s0-0.16-0.02-0.24c-0.02-0.08-0.06-0.13-0.13-0.17
		c-0.11,0.02-0.19,0.03-0.27,0.02c0.03-0.28-0.01-0.4-0.12-0.36c-0.12,0.13-0.38,0.31-0.79,0.56c-0.41,0.25-0.86,0.45-1.35,0.6
		c-0.49,0.15-0.97,0.27-1.42,0.34c-0.49,0.09-0.98,0.15-1.48,0.18c-0.5,0.03-0.95,0.05-1.34,0.05c-0.48,0-1.08-0.03-1.78-0.08
		c-0.71-0.05-1.23-0.15-1.58-0.29c-0.34-0.14-0.55-0.42-0.61-0.82c-0.02-0.26-0.07-0.4-0.13-0.4c-0.08,0-0.15,0.22-0.21,0.65
		c-0.06,0.45-0.1,0.84-0.1,1.17c0,0.6,0.18,1.01,0.55,1.23c0.21,0.14,0.56,0.23,1.06,0.28c0.5,0.05,0.95,0.07,1.34,0.07
		c0.62,0,1.29-0.03,1.99-0.1s1.33-0.17,1.89-0.32c0.56-0.14,1.05-0.31,1.49-0.49c0.44-0.18,0.9-0.45,1.37-0.8
		c0.3-0.21,0.61-0.53,0.91-0.94L43.61,53.31z M36.08,50.64c0.17,0.14,0.3,0.24,0.38,0.31c0.09,0.07,0.16,0.11,0.2,0.11
		c0.19,0,0.44-0.31,0.75-0.94c0.13,0.09,0.28,0.22,0.44,0.39c0.17,0.17,0.29,0.25,0.35,0.25c0.1,0,0.25-0.15,0.46-0.44
		c0.22-0.3,0.32-0.56,0.32-0.78c-0.01-0.18-0.12-0.38-0.32-0.59c-0.2-0.21-0.37-0.31-0.52-0.31c-0.05,0-0.14,0.12-0.28,0.35
		c-0.14,0.24-0.27,0.45-0.39,0.64c-0.1-0.14-0.24-0.3-0.43-0.48c-0.19-0.18-0.33-0.25-0.43-0.21c-0.05,0-0.2,0.22-0.44,0.66
		c-0.24,0.44-0.36,0.7-0.36,0.78C35.82,50.41,35.91,50.5,36.08,50.64z M47.9,49.81c-0.09,0.14-0.17,0.21-0.23,0.24
		c-0.02,0.01-0.06,0.01-0.11,0c-0.05-0.01-0.09,0-0.12,0.02c-0.05,0.03-0.1,0.09-0.15,0.2c-0.15,0.32-0.36,0.48-0.63,0.5
		c-0.29-0.01-0.52,0.09-0.7,0.28c-0.33,0.37-0.68,0.69-1.04,0.98c-0.36,0.28-0.8,0.47-1.32,0.55c-0.08,0.18-0.11,0.32-0.1,0.43
		c0.01,0.11,0.04,0.21,0.1,0.31c0.18,0.06,0.36,0.12,0.56,0.16c0.2,0.05,0.41-0.03,0.63-0.24c0.25-0.26,0.51-0.56,0.78-0.89
		c0.04-0.05,0.11-0.13,0.22-0.23c0.1-0.1,0.23-0.15,0.37-0.15c0.24-0.01,0.44-0.08,0.58-0.23c0.15-0.15,0.28-0.31,0.39-0.48
		c0.1-0.02,0.2-0.07,0.32-0.16c0.11-0.09,0.2-0.18,0.26-0.27c0.33-0.42,0.56-0.89,0.68-1.4c0.04-0.18,0.03-0.26-0.04-0.25
		c-0.07,0.01-0.13,0.07-0.2,0.19C48.07,49.53,47.99,49.68,47.9,49.81z M50.27,51.95c0.03-0.37,0.11-1.04,0.24-2.03
		s0.2-1.66,0.22-2.01c0-0.05-0.02-0.07-0.05-0.09c-0.03-0.01-0.06,0.02-0.09,0.09c-0.29,0.71-0.48,1.21-0.57,1.49
		c-0.18,0.97-0.32,1.86-0.41,2.66c-0.09,0.8-0.14,1.43-0.14,1.87c0.13,0.02,0.24,0,0.33-0.06c0.09-0.06,0.16-0.15,0.22-0.28
		s0.11-0.27,0.14-0.45s0.06-0.37,0.07-0.59C50.23,52.52,50.24,52.32,50.27,51.95z M49.44,62.03c0.17,0.14,0.3,0.24,0.38,0.31
		c0.09,0.07,0.15,0.11,0.2,0.11c0.19,0,0.44-0.31,0.75-0.94c0.13,0.09,0.28,0.22,0.45,0.39c0.17,0.17,0.28,0.25,0.35,0.25
		c0.1,0,0.25-0.15,0.46-0.44c0.22-0.3,0.32-0.56,0.32-0.78c-0.01-0.18-0.12-0.38-0.32-0.59c-0.2-0.21-0.38-0.31-0.52-0.31
		c-0.05,0-0.14,0.12-0.28,0.35c-0.14,0.24-0.27,0.45-0.39,0.64c-0.1-0.14-0.24-0.3-0.43-0.48c-0.19-0.18-0.33-0.25-0.43-0.21
		c-0.05,0-0.2,0.22-0.44,0.66c-0.24,0.44-0.36,0.7-0.36,0.78C49.19,61.81,49.27,61.89,49.44,62.03z M49.47,53.99
		c-0.01,0.53,0.06,0.96,0.22,1.29c0.18,0.34,0.42,0.51,0.73,0.53c0.31-0.02,0.57-0.17,0.79-0.47c0.22-0.3,0.38-0.68,0.51-1.15
		c0.13-0.47,0.19-0.8,0.2-1.01C51.92,53.06,51.9,53,51.83,53c-0.05,0-0.11,0.08-0.17,0.25c-0.06,0.17-0.13,0.32-0.21,0.44
		c-0.08,0.13-0.2,0.21-0.36,0.24c-0.16,0.03-0.32,0-0.47-0.1c-0.26-0.19-0.39-0.53-0.39-1.01v-0.38c-0.09,0.02-0.21,0.15-0.36,0.39
		c-0.15,0.24-0.28,0.6-0.4,1.09V53.99z M55.61,51.16c-0.08-0.01-0.15,0.06-0.21,0.19c-0.06,0.13-0.17,0.38-0.32,0.74
		c-0.15,0.36-0.32,0.72-0.5,1.08c-0.18,0.36-0.35,0.62-0.49,0.8c-0.15,0.18-0.39,0.39-0.73,0.62c-0.34,0.24-0.65,0.44-0.9,0.59
		s-0.42,0.29-0.48,0.38c-0.05,0.06-0.07,0.11-0.05,0.16c0.01,0.04,0.05,0.06,0.11,0.07c0.06,0,0.2-0.02,0.42-0.06
		c0.22-0.04,0.52-0.11,0.89-0.22c0.37-0.11,0.64-0.22,0.8-0.35c0.17-0.13,0.32-0.32,0.46-0.56c0.14-0.25,0.3-0.61,0.48-1.09
		c0.18-0.48,0.33-0.93,0.44-1.34c0.11-0.41,0.17-0.69,0.18-0.84C55.7,51.23,55.67,51.17,55.61,51.16z M16.39,49.19
		c-0.02-0.05-0.07-0.08-0.13-0.08c-0.15,0.02-0.36,0.11-0.62,0.26c-0.22,0.12-0.44,0.27-0.66,0.43s-0.41,0.32-0.56,0.45
		c-0.27,0.26-0.58,0.59-0.91,1.01c-0.41,0.51-0.72,1.02-0.95,1.54c-0.22,0.52-0.34,0.95-0.34,1.29c0,0.22,0.05,0.4,0.14,0.53
		s0.23,0.24,0.41,0.32c0.09,0.05,0.18,0.08,0.25,0.09c0.07,0.02,0.19,0.05,0.36,0.1c0.17,0.05,0.25,0.13,0.25,0.24
		c0,0.18-0.06,0.38-0.19,0.6c-0.12,0.22-0.31,0.46-0.55,0.71c-0.24,0.25-0.54,0.47-0.89,0.65c-0.48,0.24-0.97,0.35-1.48,0.35
		c-0.62,0-1.1-0.14-1.44-0.41c-0.34-0.28-0.51-0.65-0.51-1.12c0-0.45,0.17-1.12,0.52-2.02c0.07-0.16,0.16-0.36,0.27-0.61
		c0.11-0.25,0.21-0.48,0.3-0.69c0.09-0.21,0.16-0.37,0.21-0.49s0.1-0.25,0.17-0.42c0.02-0.05,0.03-0.11,0.03-0.21
		c0-0.09-0.03-0.14-0.09-0.14c-0.04,0-0.09,0.05-0.14,0.14s-0.1,0.19-0.15,0.28l-0.41,0.86C9.14,53.17,8.96,53.54,8.75,54
		c-0.22,0.46-0.4,0.94-0.55,1.43c-0.1,0.3-0.17,0.61-0.22,0.91c-0.05,0.3-0.07,0.61-0.07,0.93c0,0.25,0.03,0.51,0.1,0.78
		c0.07,0.28,0.19,0.54,0.36,0.78c0.38,0.48,0.95,0.73,1.69,0.74c0.65,0,1.23-0.16,1.73-0.49c0.26-0.17,0.51-0.37,0.73-0.6
		c0.23-0.24,0.43-0.47,0.59-0.71c0.33-0.51,0.6-1.1,0.8-1.79c0.2-0.69,0.3-1.3,0.3-1.83c0-0.39-0.1-0.64-0.29-0.78
		c-0.06-0.05-0.18-0.1-0.36-0.17c-0.18-0.07-0.31-0.13-0.38-0.18c-0.08-0.07-0.12-0.17-0.12-0.29c0-0.09,0.08-0.24,0.24-0.47
		c0.16-0.22,0.38-0.47,0.67-0.72c0.29-0.26,0.55-0.45,0.79-0.56c0.24-0.12,0.43-0.18,0.58-0.18c0.03,0,0.07,0.02,0.11,0.05
		c0.04,0.03,0.09,0.06,0.14,0.1c0.07,0,0.15-0.07,0.24-0.22c0.02-0.03,0.09-0.17,0.2-0.41c0.11-0.24,0.19-0.43,0.24-0.56
		c0.05-0.14,0.09-0.27,0.11-0.42C16.42,49.29,16.41,49.24,16.39,49.19z M19.24,51.69c-0.08-0.01-0.15,0.06-0.21,0.19
		s-0.17,0.38-0.32,0.74c-0.15,0.36-0.32,0.72-0.5,1.08c-0.18,0.36-0.35,0.62-0.49,0.8c-0.15,0.18-0.39,0.39-0.73,0.62
		c-0.34,0.24-0.65,0.44-0.9,0.59c-0.26,0.16-0.42,0.29-0.48,0.38c-0.05,0.06-0.07,0.11-0.05,0.16c0.01,0.04,0.05,0.06,0.11,0.07
		c0.06,0,0.2-0.02,0.42-0.06c0.22-0.04,0.52-0.11,0.89-0.22c0.37-0.11,0.64-0.22,0.8-0.35c0.17-0.13,0.32-0.32,0.46-0.56
		c0.14-0.25,0.3-0.61,0.48-1.09c0.18-0.48,0.33-0.93,0.44-1.34c0.11-0.41,0.17-0.69,0.18-0.84C19.33,51.76,19.3,51.7,19.24,51.69z
		 M22.47,53.5c0.04-0.15,0.07-0.27,0.09-0.36c0.02-0.09,0.04-0.21,0.06-0.35c0.02-0.14,0.03-0.28,0.03-0.43
		c0-0.28-0.08-0.52-0.24-0.72s-0.36-0.3-0.6-0.3c-0.14,0-0.28,0.09-0.42,0.28c-0.14,0.18-0.28,0.42-0.42,0.7
		c-0.14,0.28-0.23,0.49-0.28,0.62c-0.04,0.13-0.08,0.24-0.1,0.34c-0.02,0.16,0.04,0.31,0.18,0.44c0.15,0.13,0.33,0.2,0.54,0.21
		c0.08,0,0.17-0.02,0.25-0.06c0.08-0.04,0.17-0.06,0.25-0.05c-0.08,0.26-0.19,0.5-0.35,0.71s-0.32,0.37-0.47,0.48
		c-0.15,0.11-0.5,0.34-1.02,0.69c-0.53,0.35-0.77,0.56-0.73,0.62c0,0.02,0.02,0.03,0.07,0.03c0.08,0,0.32-0.06,0.72-0.19
		s0.7-0.23,0.9-0.3c0.2-0.07,0.35-0.14,0.45-0.2c0.1-0.06,0.24-0.23,0.41-0.49c0.18-0.26,0.36-0.67,0.57-1.23
		C22.39,53.78,22.43,53.65,22.47,53.5z M25.46,51.93c0.01-0.03,0.01-0.06,0.01-0.09c0-0.03,0-0.1,0-0.19c0-0.04-0.01-0.09-0.04-0.15
		c-0.03-0.06-0.08-0.13-0.12-0.21c-0.05-0.08-0.12-0.19-0.21-0.33c-0.16-0.19-0.35-0.28-0.58-0.28c-0.26,0-0.5,0.13-0.73,0.39
		c-0.09,0.12-0.18,0.24-0.27,0.36c-0.09,0.12-0.18,0.23-0.27,0.35c-0.11,0.13-0.23,0.24-0.36,0.33c-0.12,0.09-0.22,0.14-0.32,0.15
		c-0.1,0.01-0.18,0.01-0.24,0c-0.1,0.21-0.16,0.43-0.18,0.64c-0.02,0.22-0.02,0.43,0.01,0.65l0.38-0.3
		c0.33-0.29,0.62-0.61,0.86-0.96c0.2-0.27,0.4-0.42,0.59-0.44c0.24,0,0.42,0.07,0.55,0.22c0.12,0.15,0.18,0.33,0.18,0.55
		c0,0.05-0.01,0.16-0.04,0.33c-0.02,0.09-0.03,0.18-0.05,0.27c-0.02,0.09-0.04,0.2-0.06,0.31c-0.02,0.14-0.01,0.21,0.03,0.22
		c0.08,0.02,0.14-0.02,0.18-0.11c0.03-0.06,0.07-0.14,0.11-0.26l0.32-0.88l0.22-0.47C25.45,51.99,25.46,51.96,25.46,51.93z
		 M26.74,49.27c-0.09,0.11-0.17,0.27-0.23,0.47c-0.02,0.04-0.06,0.1-0.12,0.19c-0.11,0.14-0.24,0.29-0.39,0.47
		c-0.15,0.17-0.29,0.36-0.44,0.55c-0.14,0.2-0.35,0.55-0.62,1.07c0.04,0.05,0.09,0.07,0.14,0.08s0.1,0.01,0.15,0
		s0.09-0.02,0.13-0.04c0.04-0.02,0.07-0.03,0.08-0.04c0.14-0.31,0.35-0.57,0.62-0.78c0.25-0.2,0.49-0.3,0.72-0.3
		c0.07,0,0.19,0.02,0.35,0.06c0.2,0.04,0.31,0.06,0.31,0.06c0.21,0,0.4-0.12,0.57-0.35c0.08-0.11,0.13-0.21,0.17-0.3
		c0.03-0.09,0.05-0.19,0.05-0.3c0-0.13-0.07-0.28-0.21-0.45c-0.14-0.17-0.34-0.38-0.61-0.64c-0.05-0.03-0.12-0.06-0.21-0.06
		c-0.09-0.01-0.18,0.01-0.25,0.06C26.9,49.06,26.83,49.15,26.74,49.27z M26.61,58.74c0,0.06,0.04,0.12,0.13,0.18
		c0.1,0.07,0.25,0.17,0.46,0.31c0.21,0.14,0.33,0.21,0.36,0.23c0.09,0,0.24-0.17,0.44-0.52c0.2-0.34,0.31-0.61,0.31-0.79
		c-0.02-0.14-0.15-0.33-0.39-0.57c-0.24-0.24-0.43-0.34-0.56-0.29c-0.06,0-0.2,0.21-0.42,0.63C26.72,58.34,26.61,58.61,26.61,58.74z
		 M27.41,49c-0.11,0.03-0.2,0.05-0.28,0.04c-0.08-0.01-0.14-0.02-0.18-0.04c0.06-0.09,0.16-0.2,0.3-0.35s0.34-0.31,0.6-0.49
		c0.27-0.18,0.54-0.33,0.8-0.46c0.52-0.25,0.79-0.38,0.79-0.39c0-0.05-0.15-0.1-0.44-0.17c-0.29-0.07-0.56-0.1-0.81-0.1
		c-0.23,0-0.4,0.03-0.5,0.09c-0.03,0.02-0.12,0.11-0.27,0.28c-0.12,0.17-0.22,0.23-0.29,0.2c-0.04-0.01-0.04-0.07-0.01-0.16
		c0.05-0.13,0.15-0.32,0.3-0.55c0.15-0.24,0.3-0.41,0.47-0.52c0.16-0.11,0.34-0.17,0.56-0.19c0.22-0.01,0.49,0.01,0.82,0.07
		c0.33,0.06,0.58,0.12,0.76,0.16c0.17,0.05,0.33,0.1,0.46,0.16c0.12,0.07,0.18,0.17,0.18,0.29c0,0.29-0.24,0.59-0.72,0.88
		c-0.15,0.09-0.4,0.2-0.75,0.33c-0.35,0.13-0.7,0.29-1.05,0.46C27.81,48.73,27.56,48.88,27.41,49z M8.4,68.45
		c-0.02-0.05-0.07-0.08-0.13-0.08c-0.15,0.02-0.35,0.11-0.61,0.26C7.44,68.75,7.22,68.9,7,69.07c-0.22,0.17-0.41,0.32-0.55,0.45
		c-0.27,0.26-0.57,0.59-0.9,1.01c-0.4,0.51-0.72,1.02-0.94,1.54c-0.22,0.52-0.33,0.95-0.33,1.29c0,0.22,0.05,0.4,0.14,0.53
		c0.09,0.13,0.23,0.24,0.41,0.32c0.09,0.05,0.17,0.08,0.25,0.09c0.07,0.02,0.19,0.05,0.35,0.1c0.16,0.05,0.25,0.13,0.25,0.24
		c0,0.18-0.06,0.38-0.19,0.6c-0.12,0.22-0.3,0.46-0.54,0.71c-0.24,0.25-0.53,0.47-0.88,0.65c-0.47,0.24-0.96,0.35-1.47,0.35
		c-0.61,0-1.09-0.14-1.42-0.41s-0.51-0.65-0.51-1.12c0-0.45,0.17-1.12,0.51-2.02c0.07-0.16,0.16-0.36,0.26-0.61
		c0.11-0.25,0.21-0.48,0.3-0.69c0.09-0.21,0.16-0.37,0.21-0.49c0.05-0.11,0.1-0.25,0.16-0.42c0.02-0.05,0.03-0.11,0.03-0.21
		c0-0.09-0.03-0.14-0.09-0.14C2,70.86,1.96,70.91,1.9,71s-0.1,0.19-0.15,0.28l-0.41,0.86c-0.13,0.28-0.31,0.65-0.52,1.11
		c-0.21,0.46-0.39,0.94-0.54,1.43c-0.1,0.3-0.17,0.61-0.22,0.91C0.02,75.9,0,76.21,0,76.52c0,0.25,0.03,0.51,0.1,0.78
		c0.07,0.28,0.19,0.54,0.36,0.78c0.38,0.48,0.94,0.73,1.67,0.74c0.65,0,1.22-0.16,1.71-0.49c0.26-0.17,0.5-0.37,0.73-0.6
		c0.22-0.24,0.42-0.47,0.59-0.71c0.33-0.51,0.59-1.1,0.8-1.79c0.2-0.69,0.3-1.3,0.3-1.83c0-0.39-0.1-0.64-0.29-0.78
		c-0.06-0.05-0.18-0.1-0.35-0.17c-0.18-0.07-0.3-0.13-0.37-0.18c-0.08-0.07-0.12-0.17-0.12-0.29c0-0.09,0.08-0.24,0.24-0.47
		s0.38-0.47,0.66-0.72c0.28-0.26,0.54-0.45,0.78-0.56c0.24-0.12,0.43-0.18,0.57-0.18c0.03,0,0.07,0.02,0.11,0.05
		c0.04,0.03,0.09,0.06,0.14,0.1c0.07,0,0.15-0.07,0.24-0.22c0.02-0.03,0.09-0.17,0.2-0.41c0.11-0.24,0.19-0.43,0.24-0.56
		c0.05-0.14,0.08-0.27,0.11-0.42C8.43,68.55,8.42,68.5,8.4,68.45z M11.22,70.95c-0.07-0.01-0.14,0.06-0.21,0.19
		c-0.06,0.13-0.17,0.38-0.32,0.74c-0.15,0.36-0.31,0.72-0.49,1.08c-0.18,0.36-0.34,0.62-0.49,0.8c-0.14,0.18-0.39,0.39-0.73,0.62
		c-0.34,0.24-0.64,0.44-0.9,0.59c-0.26,0.16-0.42,0.29-0.48,0.38c-0.05,0.06-0.06,0.11-0.05,0.16c0.01,0.04,0.05,0.06,0.1,0.07
		c0.06,0,0.2-0.02,0.42-0.06c0.22-0.04,0.52-0.11,0.88-0.22c0.37-0.11,0.63-0.22,0.8-0.35c0.16-0.13,0.32-0.32,0.45-0.56
		s0.3-0.61,0.48-1.09c0.18-0.48,0.33-0.93,0.44-1.34c0.11-0.41,0.17-0.69,0.18-0.84C11.32,71.02,11.29,70.96,11.22,70.95z
		 M14.53,72.76c0.04-0.15,0.07-0.27,0.09-0.36c0.02-0.09,0.04-0.21,0.06-0.35c0.02-0.14,0.03-0.28,0.03-0.43
		c0-0.28-0.08-0.52-0.24-0.72c-0.16-0.2-0.36-0.3-0.59-0.3c-0.14,0-0.28,0.09-0.42,0.28c-0.14,0.18-0.28,0.42-0.42,0.7
		s-0.23,0.49-0.27,0.62c-0.04,0.13-0.08,0.24-0.1,0.34c-0.02,0.16,0.04,0.31,0.18,0.44c0.14,0.13,0.32,0.2,0.54,0.21
		c0.08,0,0.16-0.02,0.25-0.06c0.08-0.04,0.17-0.06,0.25-0.05c-0.07,0.26-0.19,0.5-0.35,0.71c-0.16,0.21-0.32,0.37-0.47,0.48
		c-0.15,0.11-0.49,0.34-1.02,0.69c-0.53,0.35-0.76,0.56-0.72,0.62c0,0.02,0.02,0.03,0.07,0.03c0.07,0,0.31-0.06,0.71-0.19
		c0.4-0.13,0.7-0.23,0.9-0.3c0.2-0.07,0.34-0.14,0.44-0.2s0.23-0.23,0.41-0.49s0.36-0.67,0.56-1.23
		C14.45,73.04,14.49,72.91,14.53,72.76z M16.12,71.74c0.03-0.37,0.11-1.04,0.23-2.03c0.13-0.99,0.2-1.66,0.22-2.01
		c0-0.05-0.02-0.07-0.05-0.09c-0.03-0.01-0.06,0.02-0.09,0.09c-0.28,0.71-0.47,1.21-0.56,1.49c-0.18,0.97-0.31,1.86-0.4,2.66
		s-0.14,1.43-0.14,1.87c0.13,0.02,0.24,0,0.32-0.06c0.09-0.06,0.16-0.15,0.22-0.28c0.06-0.12,0.1-0.27,0.14-0.45
		c0.03-0.17,0.06-0.37,0.07-0.59C16.08,72.31,16.09,72.11,16.12,71.74z M19.16,73.57c0.02-0.07,0.03-0.17,0.03-0.28
		c0-0.11-0.01-0.23-0.04-0.37c-0.03-0.14-0.05-0.22-0.06-0.25c-0.12,0-0.25,0.05-0.39,0.16c-0.14,0.11-0.3,0.29-0.49,0.54
		c-0.25,0.34-0.58,0.52-0.97,0.52c-0.28,0-0.53-0.09-0.74-0.28c-0.28-0.26-0.42-0.67-0.42-1.25c-0.16,0.09-0.3,0.26-0.42,0.5
		c-0.12,0.24-0.23,0.53-0.33,0.87c0.01,0.51,0.12,0.94,0.34,1.29c0.22,0.35,0.54,0.54,0.97,0.58c0.42,0,0.8-0.28,1.14-0.83
		c0.32-0.55,0.63-0.88,0.93-0.97c0.09-0.03,0.22-0.03,0.39,0C19.12,73.71,19.14,73.64,19.16,73.57z M17.33,68.99
		c0.1,0.07,0.25,0.17,0.45,0.31s0.32,0.21,0.36,0.23c0.09,0,0.24-0.17,0.44-0.52c0.2-0.34,0.3-0.61,0.3-0.79
		c-0.02-0.14-0.15-0.33-0.39-0.57c-0.24-0.24-0.43-0.34-0.55-0.29c-0.06,0-0.2,0.21-0.42,0.63c-0.22,0.42-0.32,0.7-0.32,0.82
		C17.2,68.88,17.24,68.94,17.33,68.99z M18.96,73.16c0.01,0.19,0.05,0.4,0.13,0.63l0.22,0.03c0.15,0,0.33-0.11,0.53-0.34
		c0.2-0.24,0.39-0.53,0.57-0.87c0.12-0.24,0.21-0.5,0.27-0.77c0.06-0.24,0.09-0.47,0.09-0.7c0-0.47-0.16-0.86-0.48-1.16
		c-0.24-0.25-0.49-0.37-0.74-0.37c-0.09,0-0.19,0.09-0.3,0.27c-0.12,0.18-0.23,0.39-0.33,0.61c-0.15,0.3-0.26,0.54-0.32,0.71
		c-0.06,0.15-0.09,0.28-0.09,0.39c0,0.15,0.08,0.26,0.23,0.33c0.17,0.06,0.34,0.09,0.51,0.09c0.14,0,0.23-0.01,0.27-0.03l0.14-0.07
		c0.09,0,0.17,0.05,0.25,0.15c0.08,0.11,0.12,0.21,0.12,0.31c0,0.14-0.04,0.24-0.13,0.3s-0.18,0.09-0.29,0.1
		c-0.11,0.01-0.28-0.02-0.51-0.1C18.99,72.81,18.95,72.97,18.96,73.16z M20.18,64.58c0.1,0.07,0.25,0.17,0.45,0.31
		s0.32,0.21,0.36,0.23c0.09,0,0.24-0.17,0.44-0.52c0.2-0.34,0.3-0.61,0.3-0.79c-0.02-0.14-0.15-0.33-0.39-0.57
		c-0.24-0.24-0.43-0.34-0.55-0.29c-0.06,0-0.2,0.21-0.42,0.63c-0.22,0.42-0.32,0.7-0.32,0.82C20.05,64.47,20.09,64.53,20.18,64.58z
		 M24.91,72.76c0.04-0.15,0.07-0.27,0.09-0.36c0.02-0.09,0.04-0.21,0.06-0.35c0.02-0.14,0.03-0.28,0.03-0.43
		c0-0.28-0.08-0.52-0.24-0.72c-0.16-0.2-0.36-0.3-0.59-0.3c-0.14,0-0.28,0.09-0.42,0.28s-0.28,0.42-0.42,0.7
		c-0.14,0.28-0.23,0.49-0.27,0.62c-0.04,0.13-0.08,0.24-0.1,0.34c-0.02,0.16,0.04,0.31,0.18,0.44c0.14,0.13,0.32,0.2,0.54,0.21
		c0.08,0,0.16-0.02,0.25-0.06c0.08-0.04,0.17-0.06,0.25-0.05c-0.07,0.26-0.19,0.5-0.35,0.71c-0.16,0.21-0.32,0.37-0.47,0.48
		c-0.15,0.11-0.49,0.34-1.02,0.69c-0.53,0.35-0.76,0.56-0.72,0.62c0,0.02,0.02,0.03,0.07,0.03c0.07,0,0.31-0.06,0.71-0.19
		c0.4-0.13,0.7-0.23,0.9-0.3c0.2-0.07,0.34-0.14,0.44-0.2s0.23-0.23,0.41-0.49s0.36-0.67,0.56-1.23
		C24.84,73.04,24.88,72.91,24.91,72.76z M30.65,75.8c-0.62,0.52-1.4,0.78-2.32,0.78c-0.51,0-0.93-0.11-1.25-0.32
		c-0.44-0.3-0.66-0.81-0.66-1.52c0-0.37,0.14-0.9,0.41-1.58c0.16-0.37,0.44-1.03,0.85-1.97c0.05-0.1,0.08-0.23,0.11-0.37
		c0.03-0.12,0.01-0.19-0.05-0.2c-0.05-0.01-0.11,0.07-0.2,0.22c-0.03,0.08-0.08,0.17-0.13,0.28c-0.06,0.1-0.12,0.22-0.19,0.34
		c-0.1,0.21-0.18,0.37-0.24,0.5c-0.06,0.13-0.11,0.23-0.15,0.29c-0.12,0.26-0.25,0.59-0.42,0.97c-0.15,0.37-0.29,0.82-0.43,1.33
		c-0.14,0.53-0.21,0.96-0.21,1.28c0,0.73,0.17,1.34,0.51,1.81c0.4,0.55,0.97,0.83,1.71,0.83c0.32,0,0.61-0.05,0.89-0.14
		c0.25-0.09,0.51-0.21,0.78-0.38c0.72-0.52,1.29-1.22,1.71-2.1c0.27-0.57,0.45-1.04,0.55-1.43c0.1-0.4,0.15-0.78,0.15-1.16
		c0-0.26-0.03-0.45-0.09-0.59c-0.06-0.12-0.15-0.23-0.29-0.32c-0.13-0.09-0.26-0.18-0.39-0.26c-0.13-0.08-0.19-0.16-0.19-0.24
		c-0.01-0.04-0.03-0.07-0.07-0.09c-0.04-0.02-0.09-0.03-0.13-0.03c-0.05,0-0.1,0.01-0.15,0.03c-0.05,0.02-0.09,0.05-0.11,0.09
		c-0.13,0.23-0.24,0.47-0.32,0.73c-0.09,0.26-0.13,0.48-0.13,0.68c0,0.28,0.21,0.52,0.63,0.71c0.42,0.19,0.62,0.33,0.62,0.43
		C31.44,74.89,31.18,75.36,30.65,75.8z M30.88,71.9c0.07-0.01,0.15-0.03,0.23-0.06c0.01-0.09,0.08-0.2,0.21-0.33
		c0.14-0.14,0.29-0.25,0.43-0.33c0.13-0.06,0.26-0.12,0.4-0.16c0.14-0.03,0.28-0.04,0.42-0.04c0.16,0,0.33,0.05,0.54,0.16
		c0.09,0.05,0.15,0.07,0.19,0.07c0.14,0,0.3-0.1,0.48-0.31c0.18-0.2,0.28-0.38,0.28-0.56c0-0.09-0.02-0.16-0.07-0.22
		c-0.06-0.06-0.15-0.16-0.27-0.28c-0.07-0.09-0.12-0.15-0.16-0.19c-0.07-0.08-0.11-0.16-0.11-0.23c-0.03-0.02-0.06-0.03-0.09-0.03
		c-0.03-0.01-0.08-0.01-0.13,0c-0.05,0.01-0.13,0.02-0.24,0.03c-0.09,0.15-0.19,0.28-0.28,0.4c-0.07,0.11-0.14,0.17-0.21,0.2
		c-0.12,0.06-0.29,0.17-0.51,0.33c-0.24,0.18-0.46,0.38-0.68,0.59c-0.26,0.29-0.48,0.6-0.67,0.91C30.73,71.89,30.8,71.91,30.88,71.9
		z M34.55,65.86c0.03-0.33,0.09-0.83,0.18-1.49c0.09-0.67,0.13-1.05,0.13-1.13c0-0.07-0.01-0.11-0.03-0.11
		c-0.02,0-0.05,0.03-0.09,0.08c-0.2,0.4-0.35,0.71-0.43,0.93c-0.1,0.25-0.17,0.47-0.21,0.65c-0.04,0.13-0.09,0.47-0.16,1.03
		c-0.07,0.56-0.12,1.04-0.14,1.43c-0.03,0.47-0.1,0.85-0.2,1.15l-0.61,1.04c0.01,0.02,0.02,0.03,0.06,0.05
		c0.03,0.01,0.07,0.02,0.11,0.03c0.04,0,0.09,0,0.14-0.01c0.05-0.01,0.1-0.03,0.15-0.06l0.66-1.04c0.08,0,0.16-0.19,0.23-0.58
		l0.04-0.28c0.02-0.11,0.04-0.25,0.07-0.4L34.55,65.86z M37.35,67.78c0.26-0.36,0.5-0.75,0.71-1.17c0.15-0.3,0.26-0.55,0.32-0.74
		c0.07-0.19,0.07-0.29,0-0.31c-0.07-0.03-0.16,0.05-0.27,0.25c-0.11,0.2-0.2,0.34-0.26,0.43c-0.27,0.39-0.54,0.59-0.81,0.6
		c-0.21,0-0.38-0.07-0.51-0.2c-0.12-0.14-0.19-0.27-0.19-0.4c0-0.16,0.09-0.35,0.28-0.57c0.19-0.22,0.4-0.33,0.65-0.33
		c0.11,0,0.23,0.02,0.36,0.05c0.13,0.03,0.2,0.05,0.21,0.05c0.05,0,0.11-0.04,0.19-0.11c0.08-0.07,0.11-0.17,0.1-0.29
		c-0.03-0.13-0.11-0.22-0.21-0.27c-0.11-0.05-0.24-0.08-0.39-0.08c-0.33,0-0.63,0.15-0.9,0.44c-0.18,0.2-0.34,0.45-0.48,0.76
		c-0.18,0.44-0.28,0.67-0.29,0.69c-0.07,0.2-0.15,0.41-0.23,0.62c-0.19,0.02-0.37,0-0.55-0.07c-0.18-0.07-0.3-0.18-0.38-0.34
		c-0.1-0.24-0.16-0.57-0.16-1.01c-0.12,0.02-0.21,0.08-0.3,0.19c-0.08,0.1-0.16,0.22-0.22,0.36c-0.06,0.14-0.11,0.28-0.15,0.43
		c-0.04,0.15-0.07,0.28-0.08,0.4c0,0.52,0.1,0.94,0.3,1.27c0.25,0.4,0.63,0.6,1.15,0.6C36.04,69.03,36.74,68.61,37.35,67.78z
		 M51.25,71.96c0.03-0.26-0.05-0.45-0.24-0.58c-0.28,0.06-0.5,0.18-0.68,0.37c-0.09,0.09-0.2,0.22-0.34,0.41
		c-0.14,0.19-0.22,0.29-0.23,0.3c-0.16,0.16-0.37,0.31-0.64,0.45s-0.61,0.27-1.02,0.39c-0.62,0.19-1.15,0.31-1.58,0.37
		s-0.99,0.1-1.68,0.13c-0.69,0.03-1.31,0.04-1.86,0.03c-0.68-0.01-1.19-0.05-1.55-0.15c-0.35-0.09-0.61-0.21-0.77-0.36
		c-0.16-0.15-0.25-0.36-0.28-0.62c-0.04-0.26-0.08-0.4-0.13-0.4c-0.07,0-0.14,0.22-0.2,0.65c-0.06,0.4-0.09,0.79-0.09,1.17
		c0,0.6,0.18,1.01,0.55,1.23c0.22,0.15,0.57,0.24,1.05,0.28c0.42,0.05,0.86,0.07,1.32,0.07c1.26,0,2.4-0.11,3.42-0.34
		c1.03-0.22,1.82-0.54,2.37-0.95c0.23-0.15,0.42-0.33,0.58-0.55c0.07-0.1,0.14-0.2,0.21-0.31c0.07-0.1,0.14-0.2,0.21-0.31
		c0.14-0.21,0.29-0.37,0.42-0.48c0.14-0.13,0.28-0.2,0.42-0.23c0.14-0.03,0.31-0.04,0.51-0.04C51.1,72.39,51.18,72.2,51.25,71.96z
		 M43.34,70.84c0.17,0.14,0.3,0.24,0.38,0.31c0.09,0.07,0.15,0.11,0.2,0.11c0.18,0,0.43-0.31,0.74-0.94
		c0.13,0.09,0.27,0.22,0.44,0.39c0.17,0.17,0.28,0.25,0.35,0.25c0.1,0,0.25-0.15,0.46-0.44c0.21-0.3,0.32-0.56,0.32-0.78
		c-0.01-0.18-0.12-0.38-0.32-0.59c-0.2-0.21-0.37-0.31-0.52-0.31c-0.05,0-0.14,0.12-0.28,0.35s-0.27,0.45-0.39,0.64
		c-0.1-0.14-0.24-0.3-0.43-0.48c-0.19-0.18-0.33-0.25-0.43-0.21c-0.05,0-0.2,0.22-0.43,0.66s-0.35,0.7-0.35,0.78
		C43.09,70.62,43.17,70.71,43.34,70.84z M50.9,71.93c-0.01,0.18,0.03,0.38,0.1,0.58c0.22,0.04,0.42-0.04,0.58-0.25
		c0.16-0.21,0.29-0.44,0.36-0.68c0.08-0.24,0.13-0.42,0.16-0.53c0.03-0.11,0.04-0.18,0.03-0.23c0-0.04-0.02-0.06-0.06-0.06
		c-0.02,0-0.06,0.05-0.12,0.14c-0.21,0.32-0.33,0.49-0.34,0.5c-0.1,0.12-0.3,0.11-0.61-0.02C50.94,71.56,50.91,71.75,50.9,71.93z
		 M51.98,66.5c0.1,0.07,0.25,0.17,0.45,0.31c0.2,0.14,0.32,0.21,0.36,0.23c0.09,0,0.24-0.17,0.44-0.52c0.2-0.34,0.3-0.61,0.3-0.79
		c-0.02-0.14-0.15-0.33-0.39-0.57c-0.24-0.24-0.43-0.34-0.55-0.29c-0.06,0-0.2,0.21-0.42,0.63c-0.22,0.42-0.32,0.7-0.32,0.82
		C51.85,66.38,51.9,66.44,51.98,66.5z M55.98,72.76c0.04-0.15,0.07-0.27,0.09-0.36c0.02-0.09,0.04-0.21,0.06-0.35
		c0.02-0.14,0.03-0.28,0.03-0.43c0-0.28-0.08-0.52-0.24-0.72c-0.16-0.2-0.36-0.3-0.59-0.3c-0.14,0-0.28,0.09-0.42,0.28
		s-0.28,0.42-0.42,0.7c-0.14,0.28-0.23,0.49-0.27,0.62c-0.04,0.13-0.08,0.24-0.1,0.34c-0.02,0.16,0.04,0.31,0.18,0.44
		c0.14,0.13,0.32,0.2,0.54,0.21c0.08,0,0.16-0.02,0.25-0.06c0.08-0.04,0.17-0.06,0.25-0.05c-0.07,0.26-0.19,0.5-0.35,0.71
		c-0.16,0.21-0.32,0.37-0.47,0.48c-0.15,0.11-0.49,0.34-1.02,0.69c-0.53,0.35-0.76,0.56-0.72,0.62c0,0.02,0.02,0.03,0.07,0.03
		c0.07,0,0.31-0.06,0.71-0.19c0.4-0.13,0.7-0.23,0.9-0.3c0.2-0.07,0.34-0.14,0.44-0.2c0.1-0.06,0.23-0.23,0.41-0.49
		c0.17-0.26,0.36-0.67,0.56-1.23C55.9,73.04,55.94,72.91,55.98,72.76z M57.56,71.74c0.03-0.37,0.11-1.04,0.23-2.03
		c0.13-0.99,0.2-1.66,0.22-2.01c0-0.05-0.02-0.07-0.05-0.09c-0.03-0.01-0.06,0.02-0.09,0.09c-0.28,0.71-0.47,1.21-0.56,1.49
		c-0.18,0.97-0.31,1.86-0.4,2.66c-0.09,0.8-0.14,1.43-0.14,1.87c0.13,0.02,0.24,0,0.32-0.06c0.09-0.06,0.16-0.15,0.22-0.28
		c0.06-0.12,0.1-0.27,0.14-0.45c0.03-0.17,0.06-0.37,0.07-0.59C57.52,72.31,57.54,72.11,57.56,71.74z M61.48,73.81
		c0.01-0.06,0.02-0.11,0.02-0.16c0-0.07-0.01-0.14-0.02-0.21c-0.01-0.06-0.03-0.12-0.05-0.18c-0.09,0.07-0.17,0.12-0.25,0.15
		c-0.08,0.03-0.18,0.04-0.3,0.04c-0.05,0-0.12-0.01-0.22-0.02c0.19-0.31,0.3-0.51,0.34-0.61c0.03-0.1,0.06-0.2,0.06-0.32
		c-0.01-0.21-0.1-0.37-0.27-0.47c-0.18-0.1-0.4-0.14-0.69-0.12c-0.28,0.02-0.58,0.12-0.9,0.3c-0.32,0.18-0.55,0.44-0.68,0.77
		c-0.01,0.07,0.05,0.09,0.19,0.05c0.29-0.05,0.49,0,0.59,0.12c0.11,0.13,0.15,0.23,0.14,0.31c0,0.14-0.07,0.25-0.22,0.31
		c-0.15,0.06-0.32,0.09-0.52,0.09c-0.37,0-0.66-0.12-0.86-0.37c-0.2-0.25-0.3-0.63-0.3-1.16c-0.2,0.17-0.33,0.32-0.42,0.47
		c-0.22,0.53-0.33,0.83-0.33,0.91c0,0.53,0.12,0.97,0.36,1.33s0.58,0.54,1.02,0.54c0.34,0,0.67-0.12,0.99-0.35
		c0.32-0.24,0.63-0.54,0.92-0.91c0.04-0.03,0.13-0.03,0.27-0.01c0.15,0.02,0.25,0.03,0.31,0.03c0.16,0,0.28-0.02,0.39-0.06
		c0.1-0.04,0.23-0.14,0.39-0.29C61.45,73.93,61.46,73.87,61.48,73.81z M61.36,73.64c0.02,0.12,0.04,0.23,0.07,0.35l0.55-0.62
		c0.18-0.26,0.31-0.43,0.37-0.49c0.18-0.21,0.35-0.32,0.53-0.32c0.07,0,0.18,0.01,0.32,0.04c0.14,0.03,0.23,0.04,0.25,0.04
		c0.22,0,0.41-0.11,0.58-0.34c0.17-0.22,0.25-0.47,0.25-0.72c0-0.14-0.09-0.33-0.27-0.58c-0.14-0.18-0.29-0.35-0.44-0.51
		c-0.07,0.11-0.12,0.2-0.16,0.26c-0.13,0.18-0.22,0.31-0.27,0.37c-0.03,0.03-0.07,0.06-0.11,0.09c-0.04,0.03-0.08,0.07-0.13,0.11
		c-0.1,0.09-0.18,0.17-0.25,0.25c-0.14,0.16-0.26,0.34-0.35,0.53c-0.06,0.09-0.12,0.19-0.17,0.3c-0.13,0.2-0.22,0.34-0.29,0.42
		c-0.14,0.18-0.27,0.32-0.41,0.42C61.36,73.4,61.34,73.52,61.36,73.64z"/>
</g>
<g id="Layer_2">
</g>
<g id="Layer_3">
</g>
</svg>
