<?xml version="1.0" encoding="utf-8"?>
<!-- Generator: Adobe Illustrator 24.1.1, SVG Export Plug-In . SVG Version: 6.00 Build 0)  -->
<svg version="1.1" xmlns="http://www.w3.org/2000/svg" xmlns:xlink="http://www.w3.org/1999/xlink" x="0px" y="0px"
	 viewBox="0 0 85.86 77.73" style="enable-background:new 0 0 85.86 77.73;" xml:space="preserve">
<style type="text/css">
	.st0{fill:none;stroke:#F4F7F9;stroke-miterlimit:10;}
	.st1{fill:#F4F7F9;}
	.st2{fill:#315B51;}
	.st3{fill:#C8B34C;}
	.st4{fill:#B3B2B3;}
	.st5{fill:#2BB898;}
	.st6{fill:#D39241;}
	.st7{fill:#385BA6;}
	.st8{fill:#515151;}
	.st9{fill:#F4E8AA;}
	.st10{fill:#FAC86E;}
	.st11{fill:#F4F4F4;}
	.st12{fill:#AD9944;}
	.st13{fill:#00A99D;}
	.st14{fill:url(#SVGID_1_);}
	.st15{fill:#C4AF4C;}
	.st16{fill-rule:evenodd;clip-rule:evenodd;fill:#C4AF4C;}
	.st17{filter:url(#Adobe_OpacityMaskFilter);}
	.st18{fill:url(#SVGID_3_);}
	.st19{mask:url(#SVGID_2_);fill-rule:evenodd;clip-rule:evenodd;fill:#C4AF4C;}
	.st20{filter:url(#Adobe_OpacityMaskFilter_1_);}
	.st21{fill:url(#SVGID_5_);}
	.st22{mask:url(#SVGID_4_);fill-rule:evenodd;clip-rule:evenodd;fill:#F0E4A6;}
	.st23{filter:url(#Adobe_OpacityMaskFilter_2_);}
	.st24{fill:url(#SVGID_7_);}
	.st25{mask:url(#SVGID_6_);fill-rule:evenodd;clip-rule:evenodd;fill:#F0E4A6;}
	.st26{filter:url(#Adobe_OpacityMaskFilter_3_);}
	.st27{fill:url(#SVGID_9_);}
	.st28{mask:url(#SVGID_8_);fill-rule:evenodd;clip-rule:evenodd;fill:#F0E4A6;}
	.st29{filter:url(#Adobe_OpacityMaskFilter_4_);}
	.st30{fill:url(#SVGID_11_);}
	.st31{mask:url(#SVGID_10_);fill-rule:evenodd;clip-rule:evenodd;fill:#F0E4A6;}
	.st32{opacity:0.5;fill-rule:evenodd;clip-rule:evenodd;fill:#C4AF4C;}
	.st33{filter:url(#Adobe_OpacityMaskFilter_5_);}
	.st34{fill:url(#SVGID_13_);}
	.st35{mask:url(#SVGID_12_);fill-rule:evenodd;clip-rule:evenodd;fill:#C4AF4C;}
	.st36{filter:url(#Adobe_OpacityMaskFilter_6_);}
	.st37{fill:url(#SVGID_15_);}
	.st38{mask:url(#SVGID_14_);fill-rule:evenodd;clip-rule:evenodd;fill:#C4AF4C;}
	.st39{filter:url(#Adobe_OpacityMaskFilter_7_);}
	.st40{fill:url(#SVGID_17_);}
	.st41{mask:url(#SVGID_16_);fill-rule:evenodd;clip-rule:evenodd;fill:#F0E4A6;}
	.st42{fill-rule:evenodd;clip-rule:evenodd;fill:#315B51;}
	.st43{filter:url(#Adobe_OpacityMaskFilter_8_);}
	.st44{fill:url(#SVGID_19_);}
	.st45{mask:url(#SVGID_18_);fill-rule:evenodd;clip-rule:evenodd;fill:#2BB494;}
	.st46{fill:#AFAEAF;}
	.st47{fill:#FFFFFF;}
	.st48{fill:none;stroke:#FFFFFF;stroke-width:0.25;stroke-miterlimit:10;}
	.st49{fill:#333333;}
	.st50{fill:none;stroke:#CACACA;stroke-width:0.5;stroke-miterlimit:10;}
	.st51{opacity:0.3;}
	.st52{fill:url(#SVGID_20_);}
	.st53{fill:url(#SVGID_21_);}
	.st54{fill:url(#SVGID_22_);}
	.st55{fill:url(#SVGID_23_);}
	.st56{fill:url(#SVGID_24_);}
	.st57{fill:url(#SVGID_25_);}
	.st58{fill:#029385;}
	.st59{fill:#009183;}
	.st60{fill:#FCD1C5;}
	.st61{fill:url(#SVGID_26_);}
	.st62{fill:#F0F6FF;}
	.st63{fill:#AA8383;}
	.st64{fill:#C4CCD6;}
	.st65{fill:#E2B1A6;}
	.st66{fill:#1B2B3A;}
	.st67{fill:#936D6D;}
	.st68{fill:url(#SVGID_27_);}
	.st69{fill:url(#SVGID_28_);}
	.st70{fill:url(#SVGID_29_);}
	.st71{fill:url(#SVGID_30_);}
	.st72{fill:url(#SVGID_31_);}
	.st73{fill:#160A5B;}
	.st74{fill:url(#SVGID_32_);}
	.st75{fill:#722318;}
	.st76{fill:url(#SVGID_33_);}
	.st77{fill:#453C9E;}
	.st78{fill:url(#SVGID_34_);}
	.st79{fill:#DAE1E5;}
	.st80{fill:#E0E0E0;}
	.st81{filter:url(#Adobe_OpacityMaskFilter_9_);}
	.st82{fill:url(#SVGID_36_);}
	.st83{mask:url(#SVGID_35_);fill-rule:evenodd;clip-rule:evenodd;fill:#C4AF4C;}
	.st84{filter:url(#Adobe_OpacityMaskFilter_10_);}
	.st85{fill:url(#SVGID_38_);}
	.st86{mask:url(#SVGID_37_);fill-rule:evenodd;clip-rule:evenodd;fill:#F0E4A6;}
	.st87{filter:url(#Adobe_OpacityMaskFilter_11_);}
	.st88{fill:url(#SVGID_40_);}
	.st89{mask:url(#SVGID_39_);fill-rule:evenodd;clip-rule:evenodd;fill:#F0E4A6;}
	.st90{filter:url(#Adobe_OpacityMaskFilter_12_);}
	.st91{fill:url(#SVGID_42_);}
	.st92{mask:url(#SVGID_41_);fill-rule:evenodd;clip-rule:evenodd;fill:#F0E4A6;}
	.st93{filter:url(#Adobe_OpacityMaskFilter_13_);}
	.st94{fill:url(#SVGID_44_);}
	.st95{mask:url(#SVGID_43_);fill-rule:evenodd;clip-rule:evenodd;fill:#F0E4A6;}
	.st96{filter:url(#Adobe_OpacityMaskFilter_14_);}
	.st97{fill:url(#SVGID_46_);}
	.st98{mask:url(#SVGID_45_);fill-rule:evenodd;clip-rule:evenodd;fill:#C4AF4C;}
	.st99{filter:url(#Adobe_OpacityMaskFilter_15_);}
	.st100{fill:url(#SVGID_48_);}
	.st101{mask:url(#SVGID_47_);fill-rule:evenodd;clip-rule:evenodd;fill:#C4AF4C;}
	.st102{fill:none;stroke:#2BB797;stroke-width:1.16;stroke-linecap:round;stroke-linejoin:round;stroke-miterlimit:10;}
	.st103{fill-rule:evenodd;clip-rule:evenodd;fill:none;stroke:#C6C6C6;stroke-width:0.5;stroke-miterlimit:10;}
	.st104{fill-rule:evenodd;clip-rule:evenodd;fill:none;stroke:#C6C6C6;stroke-width:0.75;stroke-miterlimit:10;}
	.st105{fill:#2BB797;}
	.st106{fill:#2BB797;stroke:#2BB797;stroke-width:0.7684;stroke-miterlimit:10;}
	.st107{clip-path:url(#SVGID_50_);fill:#BBBBBB;}
	.st108{clip-path:url(#SVGID_50_);fill:#959595;}
	.st109{clip-path:url(#SVGID_50_);}
	.st110{fill:#959595;}
	.st111{fill:#BBBBBB;}
	.st112{fill:none;stroke:#C6C6C6;stroke-width:0.5;stroke-miterlimit:10;}
	.st113{clip-path:url(#SVGID_52_);}
	.st114{fill-rule:evenodd;clip-rule:evenodd;fill:none;stroke:#C9C9C9;stroke-width:0.5;stroke-miterlimit:10;}
	.st115{fill:#B2B1B2;}
	.st116{fill:#4D4D4D;}
	.st117{fill:#A5CFE3;}
	.st118{fill:url(#);}
	.st119{fill:#9F9F9F;}
	.st120{opacity:0.3;fill:url(#XMLID_64_);}
	.st121{fill:#35160D;}
	.st122{fill:#FCC082;}
	.st123{opacity:0.5;fill:#FCC082;}
	.st124{fill:#221001;}
	.st125{fill:url(#XMLID_65_);}
	.st126{enable-background:new    ;}
	.st127{fill:#1E1B1C;}
	.st128{fill:#0F0B0C;}
	.st129{fill:#4B4949;}
	.st130{opacity:0.3;fill:url(#XMLID_66_);}
	.st131{fill:url(#XMLID_67_);}
	.st132{fill-rule:evenodd;clip-rule:evenodd;fill:none;stroke:#CACACA;stroke-width:0.5;stroke-miterlimit:10;}
	.st133{fill:#249373;}
	.st134{fill:none;stroke:#249373;stroke-miterlimit:10;}
	.st135{fill:#E2CA49;}
	.st136{fill:none;stroke:#E2CA49;stroke-miterlimit:10;}
	.st137{fill:#3C3C3B;}
	.st138{fill:none;stroke:#000000;stroke-miterlimit:10;}
	.st139{fill:url(#SVGID_53_);}
	.st140{fill:url(#SVGID_54_);}
	.st141{fill:url(#SVGID_55_);}
	.st142{fill:url(#SVGID_56_);}
	.st143{fill:url(#SVGID_57_);}
	.st144{fill:url(#SVGID_58_);}
	.st145{fill:url(#SVGID_59_);}
	.st146{fill:url(#SVGID_60_);}
	.st147{fill:url(#SVGID_61_);}
	.st148{fill:url(#SVGID_62_);}
	.st149{fill:url(#SVGID_63_);}
	.st150{fill:url(#SVGID_64_);}
	.st151{fill:url(#SVGID_65_);}
	.st152{fill:url(#SVGID_66_);}
	.st153{fill:url(#SVGID_67_);}
	.st154{fill:#8E8E8E;}
	.st155{clip-path:url(#SVGID_69_);fill:#E2E4E6;}
	.st156{clip-path:url(#SVGID_71_);fill:#E2E4E6;}
	.st157{clip-path:url(#SVGID_73_);fill:#E2E4E6;}
</style>
<g id="Layer_1">
	<path class="st154" d="M37.43,44.66c-2.41-0.28-4.86-0.37-7.22-0.89c-4.04-0.89-5.84-3.77-4.91-7.83
		c2.08-9.05,4.28-18.06,6.42-27.07c3.47,0,6.88,0,10.45,0c-1.64,6.8-3.22,13.38-4.8,19.97c-0.74,3.09-1.59,6.16-2.16,9.28
		C34.77,40.53,34.45,43.1,37.43,44.66z M64.41,9.25c-2.21,9.14-4.39,18.28-6.62,27.4c-0.86,3.5-1.84,6.96-6.22,7.84
		c2.36,0.1,4.63,0.08,6.89-0.12c5.44-0.47,8.56-3.68,9.86-8.76c1.16-4.52,2.13-9.09,3.19-13.64c0.98-4.17,1.97-8.34,3.01-12.72
		C71.1,9.25,67.87,9.25,64.41,9.25z M59.31,9.62c-0.35,0.16-0.68,0.31-1.02,0.46c0,0,0,0,0,0l-5.37,2.43
		c0.13,0.28,0.22,0.42,0.38,0.73c2.27,4.09,3.03,8.3,2.83,12.76c-0.17,3.77-1.33,7.18-3.05,10.4c-3.26,5.03-8.17,8.1-8.17,8.1
		s-2.04-2.75-3.18-7.08c0.01,0.02,0.01,0.03,0.02,0.05c-1.83-11.46,1.8-19.52,9.92-25.01l0,0c2.64-2.02,7.53-3.89,7.53-3.89l0,0
		c0,0,0,0,0,0C57.95,5.74,56.7,2.9,55.43,0C44.8,6.07,39.81,16.88,39.72,26.77c-0.15,10.49,5.18,17.78,5.18,17.78
		s3.33-1.96,6.73-5.66c0,0,0,0,0,0c0,0,0,0,0.01-0.01c0.85-0.92,1.69-1.94,2.5-3.07c0.06-0.08,0.12-0.16,0.17-0.24
		c0.08-0.11,0.16-0.23,0.24-0.35C59.74,27.77,61.29,19.31,59.31,9.62z M52.12,66.99c0.31-0.29,0.6-0.5,0.88-0.63
		c0.28-0.12,0.56-0.22,0.82-0.28c0.26-0.06,0.5-0.13,0.71-0.2c0.21-0.07,0.38-0.14,0.5-0.21c0.12-0.07,0.25-0.18,0.38-0.33
		c0.13-0.15,0.25-0.32,0.34-0.5c0.09-0.19,0.15-0.33,0.18-0.44c0.03-0.11,0.04-0.23,0.04-0.38c0-0.21-0.12-0.36-0.35-0.43
		c-0.23-0.08-0.4-0.13-0.51-0.15c-0.11-0.02-0.26-0.06-0.47-0.1c-0.16-0.02-0.25-0.02-0.28,0c-0.08,0.06-0.18,0.21-0.29,0.44
		l-0.51,1.04c-0.05,0.04-0.14,0.09-0.27,0.16c-0.13,0.07-0.29,0.17-0.46,0.29c-0.17,0.12-0.36,0.28-0.57,0.49
		c-0.21,0.21-0.39,0.4-0.54,0.59c-0.3,0.39-0.56,0.83-0.78,1.3c-0.11,0.25-0.2,0.5-0.29,0.74c-0.29,0.92-0.47,1.99-0.55,3.21
		c-0.08,1.22-0.12,2.37-0.14,3.46c-0.02,1.09-0.02,1.92-0.02,2.5c0,0.17,0.03,0.29,0.09,0.35c0.08,0.11,0.14-0.16,0.16-0.79
		c0.02-0.64,0.05-1.39,0.08-2.26c0.03-0.87,0.09-1.8,0.19-2.8c0.09-0.99,0.22-1.84,0.37-2.53s0.33-1.22,0.53-1.58
		C51.56,67.6,51.81,67.28,52.12,66.99z M57.55,64.56c0.03-0.39,0.11-1.1,0.24-2.14c0.13-1.04,0.2-1.74,0.22-2.11
		c0-0.05-0.02-0.08-0.05-0.09s-0.06,0.02-0.09,0.09c-0.29,0.75-0.48,1.27-0.58,1.57c-0.18,1.02-0.32,1.95-0.41,2.8
		c-0.09,0.84-0.14,1.5-0.15,1.97c0.13,0.02,0.24,0,0.33-0.07c0.09-0.06,0.17-0.16,0.23-0.29c0.06-0.13,0.11-0.29,0.14-0.47
		c0.04-0.18,0.06-0.39,0.07-0.62C57.5,65.16,57.52,64.95,57.55,64.56z M57.5,65.2c-0.19,0.07-0.35,0.23-0.48,0.47
		c-0.13,0.24-0.23,0.57-0.3,1c0.01,0.51,0.13,0.94,0.37,1.29c0.3,0.43,0.77,0.65,1.41,0.65c0.97,0,1.87-0.54,2.68-1.61
		c0.67-0.89,1-1.62,1-2.2c0-0.22-0.08-0.4-0.25-0.52c-0.16-0.13-0.34-0.19-0.53-0.19c-0.32,0-0.68,0.22-1.07,0.65
		c-0.21,0.24-0.38,0.44-0.52,0.63c0.03-0.08,0.09-0.26,0.18-0.56c0.09-0.29,0.16-0.6,0.22-0.91c0.06-0.31,0.09-0.65,0.11-1.02
		c0.01-0.37,0.02-0.67,0.01-0.9c0-0.23,0.01-0.48,0.03-0.73c0.02-0.26,0.07-0.59,0.13-0.99c0.01-0.07,0.01-0.11-0.02-0.14
		c-0.02-0.03-0.05-0.02-0.08,0.03c-0.02,0.05-0.06,0.11-0.09,0.19c-0.04,0.08-0.14,0.35-0.32,0.83c-0.17,0.48-0.29,0.87-0.35,1.17
		c-0.05,0.33-0.08,0.83-0.09,1.5c-0.01,0.67-0.02,1.11-0.05,1.31c-0.07,0.36-0.14,0.62-0.23,0.77l-0.53,0.8
		c-0.27-0.02-0.51-0.08-0.72-0.19c-0.21-0.11-0.36-0.28-0.43-0.53c-0.06-0.2-0.09-0.42-0.09-0.64V65.2z M61.2,66.08
		c-0.22,0.19-0.49,0.34-0.81,0.45c-0.32,0.12-0.73,0.18-1.23,0.21c0.34-0.42,0.57-0.7,0.68-0.83c0.4-0.46,0.75-0.69,1.03-0.68
		c0.15,0,0.31,0.05,0.46,0.14c0.14,0.09,0.21,0.17,0.21,0.25C61.54,65.74,61.43,65.9,61.2,66.08z M61.26,59.91
		c0.1,0.07,0.26,0.18,0.47,0.32c0.21,0.14,0.33,0.22,0.37,0.24c0.09,0,0.25-0.18,0.45-0.54s0.31-0.64,0.31-0.83
		c-0.02-0.14-0.15-0.35-0.4-0.6c-0.25-0.26-0.44-0.36-0.57-0.3c-0.07,0-0.21,0.22-0.43,0.67c-0.22,0.44-0.33,0.73-0.33,0.87
		C61.13,59.78,61.17,59.85,61.26,59.91z M61.89,67.64c0.23-0.08,0.46-0.2,0.69-0.35c0.09-0.04,0.19-0.11,0.29-0.21
		c0.07-0.06,0.16-0.16,0.28-0.29c0.19-0.21,0.35-0.43,0.49-0.67c0.17-0.31,0.31-0.58,0.42-0.83c0.16-0.42,0.27-0.91,0.33-1.47
		c0-0.16,0.01-0.39,0.04-0.68c0.02-0.36,0.05-0.62,0.09-0.79c0.02-0.09,0.02-0.17,0.02-0.24c-0.01-0.05-0.03-0.07-0.05-0.07
		c-0.03,0-0.07,0.03-0.12,0.1c-0.18,0.42-0.35,0.83-0.51,1.25c-0.17,0.4-0.26,0.68-0.26,0.84v0.8c0,0.13-0.05,0.29-0.14,0.49
		c-0.09,0.18-0.26,0.4-0.52,0.66l-0.35,0.29c-0.25,0.19-0.56,0.36-0.92,0.49c-0.42,0.17-0.81,0.35-1.15,0.54
		c-0.33,0.18-0.54,0.33-0.63,0.46c-0.05,0.07-0.07,0.12-0.07,0.15c0,0.1,0.07,0.14,0.2,0.11l1.03-0.3
		C61.51,67.79,61.79,67.69,61.89,67.64z M63.38,58.63c0.1,0.07,0.26,0.18,0.47,0.32c0.21,0.14,0.33,0.22,0.37,0.24
		c0.09,0,0.25-0.18,0.45-0.54s0.31-0.64,0.31-0.83c-0.02-0.15-0.15-0.35-0.4-0.6c-0.25-0.26-0.44-0.36-0.57-0.3
		c-0.06,0-0.21,0.22-0.43,0.67c-0.22,0.44-0.33,0.73-0.33,0.87C63.25,58.5,63.29,58.57,63.38,58.63z M72.33,63.39
		c0.01-0.27,0.02-0.45,0.03-0.54c0.01-0.09-0.01-0.14-0.05-0.14c-0.06,0-0.13,0.09-0.22,0.27c-0.09,0.18-0.19,0.47-0.32,0.87
		c-0.13,0.4-0.21,0.77-0.23,1.1c0,0.11,0,0.31,0,0.58c0,0.27,0,0.49,0,0.67c0,0.46-0.05,0.83-0.16,1.11
		c-0.28,0.8-0.77,1.44-1.47,1.91c-0.71,0.42-1.45,0.63-2.22,0.63c-0.63-0.02-1.13-0.19-1.51-0.49c-0.38-0.3-0.59-0.74-0.61-1.32
		c0.01-0.77,0.28-1.69,0.81-2.76c0.04-0.11,0.04-0.22,0.01-0.32c-0.03-0.11-0.12-0.01-0.28,0.28c-0.8,1.44-1.2,2.78-1.19,4.02
		c0.02,0.78,0.24,1.39,0.65,1.83c0.41,0.44,0.96,0.67,1.66,0.7c1.34-0.01,2.5-0.68,3.46-2c0.97-1.37,1.51-3,1.62-4.9
		C72.3,64.15,72.31,63.66,72.33,63.39z M69.44,65.38c-0.09-0.11-0.21-0.23-0.36-0.35c-0.16-0.12-0.29-0.23-0.4-0.32
		c-0.18,0.31-0.32,0.54-0.4,0.7c-0.09,0.16-0.19,0.37-0.31,0.64c-0.04,0.09-0.09,0.21-0.17,0.37c0,0.05,0.04,0.11,0.11,0.18
		c0.07,0.07,0.16,0.15,0.27,0.24c0.1,0.09,0.22,0.18,0.35,0.29c0.13,0.11,0.21,0.16,0.24,0.16c0.06,0,0.14-0.05,0.24-0.14
		c0.15-0.15,0.28-0.32,0.37-0.49c0.09-0.18,0.16-0.34,0.2-0.49c0.04-0.14,0.05-0.28,0.03-0.4C69.58,65.62,69.53,65.48,69.44,65.38z
		 M73.89,64.56c0.03-0.39,0.11-1.1,0.24-2.14c0.13-1.04,0.2-1.74,0.22-2.11c0-0.05-0.02-0.08-0.05-0.09
		c-0.03-0.01-0.06,0.02-0.09,0.09c-0.29,0.75-0.48,1.27-0.58,1.57c-0.18,1.02-0.32,1.95-0.41,2.8c-0.09,0.84-0.14,1.5-0.15,1.97
		c0.13,0.02,0.24,0,0.33-0.07c0.09-0.06,0.17-0.16,0.23-0.29c0.06-0.13,0.11-0.29,0.14-0.47s0.06-0.39,0.07-0.62
		C73.84,65.16,73.86,64.95,73.89,64.56z M73.84,65.2c-0.07-0.02-0.15,0.01-0.24,0.09c-0.09,0.09-0.18,0.2-0.25,0.34
		c-0.08,0.15-0.14,0.31-0.19,0.49s-0.08,0.35-0.08,0.52c0,0.39,0.02,0.72,0.07,0.98c0.05,0.25,0.16,0.47,0.35,0.68
		c0.18,0.21,0.4,0.31,0.66,0.31c0.45,0,0.81-0.29,1.07-0.87c0.19-0.44,0.28-0.89,0.28-1.34c-0.01-0.12-0.06-0.28-0.15-0.47
		c-0.09-0.18-0.21-0.25-0.36-0.19c-0.06,0.06-0.13,0.24-0.22,0.53c-0.08,0.3-0.14,0.45-0.18,0.45c-0.2,0-0.38-0.1-0.52-0.31
		c-0.16-0.2-0.24-0.5-0.24-0.9V65.2z M79.18,63.73c-0.08-0.01-0.15,0.06-0.21,0.2c-0.07,0.14-0.17,0.4-0.32,0.78
		c-0.15,0.38-0.32,0.76-0.51,1.13c-0.19,0.38-0.35,0.66-0.5,0.84c-0.15,0.19-0.4,0.41-0.75,0.66c-0.35,0.25-0.66,0.46-0.92,0.63
		c-0.26,0.17-0.43,0.3-0.49,0.4c-0.05,0.07-0.06,0.12-0.05,0.16c0.01,0.04,0.05,0.07,0.11,0.07c0.06,0,0.2-0.02,0.43-0.06
		c0.23-0.04,0.53-0.12,0.91-0.23c0.38-0.11,0.65-0.24,0.82-0.37c0.17-0.14,0.32-0.33,0.47-0.59c0.14-0.26,0.31-0.64,0.49-1.15
		c0.19-0.51,0.34-0.98,0.45-1.41s0.18-0.73,0.18-0.89C79.28,63.8,79.25,63.74,79.18,63.73z M78.67,60.24
		c0.1,0.07,0.26,0.18,0.47,0.32c0.21,0.14,0.33,0.22,0.37,0.24c0.09,0,0.25-0.18,0.45-0.54c0.21-0.36,0.31-0.64,0.31-0.84
		c-0.02-0.14-0.15-0.35-0.4-0.6c-0.25-0.26-0.44-0.36-0.57-0.3c-0.07,0-0.21,0.22-0.43,0.67c-0.22,0.44-0.33,0.73-0.33,0.87
		C78.53,60.12,78.58,60.18,78.67,60.24z M81.17,64.56c0.03-0.39,0.11-1.1,0.24-2.14c0.13-1.04,0.2-1.74,0.22-2.11
		c0-0.05-0.02-0.08-0.05-0.09c-0.03-0.01-0.06,0.02-0.09,0.09c-0.29,0.75-0.48,1.27-0.58,1.57c-0.18,1.02-0.32,1.95-0.41,2.8
		c-0.09,0.84-0.14,1.5-0.15,1.97c0.13,0.02,0.24,0,0.33-0.07c0.09-0.06,0.17-0.16,0.23-0.29c0.06-0.13,0.11-0.29,0.14-0.47
		s0.06-0.39,0.07-0.62C81.12,65.16,81.14,64.95,81.17,64.56z M81.03,65.13c-0.11,0-0.22,0.15-0.34,0.44
		c-0.12,0.28-0.23,0.64-0.33,1.09c0,0.55,0.09,1.01,0.28,1.39c0.2,0.38,0.5,0.57,0.92,0.57c0.39,0,0.74-0.22,1.08-0.66
		c0.33-0.45,0.56-0.7,0.67-0.74c0.1-0.05,0.19-0.07,0.28-0.07s0.19,0.01,0.32,0.04c0.13,0,0.28-0.09,0.44-0.28
		c0.02-0.02,0.12-0.15,0.28-0.39c0.25,0,0.49-0.19,0.74-0.58c0.23-0.39,0.35-0.79,0.35-1.2c0-0.11-0.02-0.16-0.07-0.16
		c-0.04,0-0.08,0.09-0.14,0.26c-0.07,0.21-0.12,0.33-0.15,0.38c-0.08,0.14-0.17,0.21-0.27,0.21c-0.05,0-0.15-0.02-0.28-0.07
		c-0.05-0.01-0.09-0.01-0.12,0.01s-0.1,0.16-0.2,0.4c-0.09,0.25-0.2,0.37-0.3,0.37c-0.09,0.01-0.18,0-0.27-0.02
		c-0.09-0.02-0.16-0.01-0.23,0.02c-0.1,0.04-0.29,0.2-0.58,0.47c-0.21,0.21-0.5,0.31-0.87,0.31c-0.27,0-0.48-0.06-0.64-0.18
		c-0.17-0.12-0.28-0.28-0.35-0.46c-0.07-0.24-0.1-0.43-0.1-0.58c-0.01-0.1-0.01-0.26-0.01-0.48C81.08,65.16,81.05,65.13,81.03,65.13
		z M3.76,65.84c-0.08-0.01-0.15,0.06-0.21,0.2c-0.06,0.14-0.17,0.4-0.32,0.78c-0.15,0.38-0.32,0.76-0.51,1.13
		c-0.19,0.38-0.35,0.66-0.5,0.84c-0.15,0.19-0.4,0.41-0.75,0.66c-0.35,0.25-0.66,0.46-0.92,0.63c-0.26,0.17-0.43,0.3-0.49,0.4
		C0.01,70.55-0.01,70.6,0,70.64c0.01,0.04,0.05,0.07,0.11,0.07c0.06,0,0.2-0.02,0.43-0.06c0.23-0.04,0.53-0.12,0.91-0.23
		c0.38-0.11,0.65-0.24,0.82-0.37c0.17-0.14,0.32-0.33,0.47-0.59c0.14-0.26,0.31-0.64,0.49-1.15c0.19-0.51,0.34-0.98,0.45-1.41
		c0.12-0.43,0.18-0.73,0.18-0.89C3.86,65.91,3.83,65.85,3.76,65.84z M6.96,67.75c0.04-0.15,0.07-0.28,0.09-0.38
		c0.02-0.1,0.04-0.22,0.06-0.37c0.02-0.15,0.03-0.3,0.03-0.45c0-0.3-0.08-0.55-0.24-0.76c-0.16-0.21-0.37-0.32-0.61-0.32
		c-0.14,0-0.29,0.1-0.43,0.29c-0.14,0.19-0.29,0.44-0.43,0.73c-0.14,0.3-0.23,0.51-0.28,0.65c-0.04,0.14-0.08,0.26-0.1,0.36
		c-0.02,0.17,0.04,0.32,0.19,0.46s0.33,0.21,0.55,0.22c0.08,0,0.17-0.02,0.25-0.07c0.09-0.05,0.17-0.06,0.25-0.05
		c-0.08,0.28-0.2,0.53-0.36,0.75c-0.16,0.22-0.32,0.39-0.48,0.5c-0.16,0.12-0.51,0.36-1.04,0.73c-0.54,0.37-0.78,0.59-0.74,0.65
		c0,0.02,0.02,0.04,0.07,0.04c0.08,0,0.32-0.07,0.73-0.2c0.41-0.14,0.72-0.24,0.92-0.32c0.2-0.08,0.35-0.15,0.45-0.21
		c0.1-0.07,0.24-0.24,0.42-0.52c0.18-0.28,0.37-0.71,0.58-1.3C6.88,68.04,6.92,67.9,6.96,67.75z M6.82,61.44
		c0.28,0.22,0.43,0.34,0.48,0.34c0.18,0,0.44-0.34,0.76-1.02c0.13,0.1,0.29,0.25,0.49,0.46c0.14,0.15,0.25,0.23,0.33,0.23
		c0.09,0,0.25-0.16,0.47-0.48c0.21-0.33,0.32-0.61,0.32-0.83c0-0.19-0.11-0.4-0.32-0.64c-0.22-0.21-0.4-0.31-0.54-0.31
		c-0.04,0-0.15,0.14-0.32,0.44c-0.12,0.21-0.24,0.42-0.37,0.63c-0.07-0.16-0.21-0.32-0.41-0.5c-0.2-0.18-0.35-0.26-0.45-0.26
		c-0.06,0-0.21,0.24-0.47,0.72c-0.25,0.48-0.38,0.75-0.38,0.83C6.41,61.08,6.54,61.21,6.82,61.44z M10.41,65.75
		c0.01-0.04,0.02-0.11,0.02-0.21c0-0.02-0.01-0.07-0.03-0.15c-0.02-0.08-0.04-0.14-0.06-0.2c-0.03,0.02-0.11,0.04-0.23,0.07
		c-0.06-0.04-0.1-0.06-0.13-0.07c-0.03-0.01-0.06-0.02-0.09-0.02c-0.2,0.3-0.33,0.46-0.41,0.5c-0.09,0.06-0.24,0.02-0.43-0.13
		c-0.03,0-0.09,0.1-0.19,0.3c-0.09,0.2-0.25,0.29-0.45,0.28c-0.04,0-0.09-0.03-0.13-0.09c-0.05-0.06-0.09-0.08-0.12-0.05
		c-0.02,0.01-0.05,0.05-0.1,0.14c-0.05,0.09-0.1,0.16-0.16,0.22c-0.06,0.06-0.15,0.1-0.26,0.14c-0.11,0.04-0.24,0.06-0.39,0.06
		c-0.04,0-0.07,0-0.11,0c-0.04,0-0.07,0-0.11,0c-0.08,0.01-0.15,0.03-0.2,0.06c-0.09,0.11-0.14,0.21-0.17,0.31
		c-0.02,0.1-0.03,0.19-0.01,0.27c0.02,0.08,0.05,0.16,0.1,0.23c0.05,0.07,0.11,0.14,0.18,0.22c0.05-0.01,0.13-0.04,0.24-0.11
		l0.11-0.07c0.2-0.1,0.36-0.18,0.48-0.24c0.06-0.03,0.16-0.07,0.3-0.12l0.19-0.05l0.28-0.17c-0.02,0.01,0.04-0.01,0.19-0.04
		c0.15-0.03,0.25-0.06,0.3-0.08c0.13-0.03,0.36-0.18,0.7-0.44c0.15-0.04,0.27-0.09,0.36-0.14c0.09-0.06,0.17-0.13,0.25-0.22
		C10.38,65.88,10.4,65.81,10.41,65.75z M7.36,58.99c0.1,0.07,0.24,0.19,0.42,0.36c0.18,0.17,0.3,0.25,0.36,0.25
		c0.09,0,0.23-0.17,0.41-0.53c0.19-0.35,0.28-0.63,0.28-0.83c0-0.21-0.1-0.43-0.3-0.66c-0.2-0.2-0.38-0.31-0.55-0.31
		c-0.06,0-0.21,0.24-0.43,0.71c-0.22,0.47-0.33,0.74-0.33,0.8C7.21,58.85,7.26,58.92,7.36,58.99z M10.26,65.56
		c-0.01,0.13,0.02,0.25,0.08,0.38c0.26-0.28,0.41-0.44,0.45-0.5c0.18-0.22,0.33-0.49,0.45-0.79c0.12-0.3,0.23-0.71,0.32-1.24
		c0.09-0.53,0.13-0.92,0.13-1.2c0-0.16,0-0.33,0-0.51c0-0.17,0-0.36,0-0.54c0.01-0.42,0.03-0.79,0.07-1.12
		c0.01-0.47,0.02-0.69,0.02-0.65c0-0.07-0.01-0.12-0.02-0.15c-0.04-0.04-0.07-0.03-0.1,0.05l-0.65,1.65
		c-0.05,0.1-0.08,0.27-0.09,0.49c-0.01,0.14-0.02,0.4-0.02,0.75l0.02,1.24c0,0.51-0.06,0.91-0.19,1.19
		c-0.05,0.12-0.12,0.24-0.2,0.36c-0.09,0.11-0.16,0.18-0.21,0.21C10.29,65.31,10.27,65.44,10.26,65.56z M12.1,58.48
		c-0.14,0.28-0.25,0.53-0.33,0.74c0.02,0.04,0.12,0,0.28-0.14c0.23-0.18,0.4-0.32,0.52-0.42l1.26-1.01
		c0.24-0.18,0.48-0.37,0.72-0.55c0.24-0.19,0.49-0.38,0.73-0.58c0.35-0.27,0.76-0.61,1.23-1.02c0.33-0.28,0.61-0.53,0.86-0.75
		c0.25-0.22,0.45-0.4,0.62-0.54c0.46-0.42,0.77-0.72,0.93-0.88c0.15-0.16,0.33-0.35,0.53-0.58c0.26-0.3,0.47-0.56,0.62-0.77
		c0.14-0.18,0.3-0.44,0.5-0.78c0.2-0.37,0.31-0.63,0.35-0.78c0.02-0.06,0.04-0.12,0.04-0.16c0,0.03-0.42,0.46-1.27,1.29
		c-0.84,0.83-1.36,1.33-1.53,1.5c-0.48,0.45-1.01,0.92-1.6,1.42c-0.39,0.33-0.78,0.65-1.17,0.97c-0.39,0.32-0.77,0.63-1.16,0.95
		c-0.87,0.71-1.44,1.22-1.71,1.52C12.37,58.06,12.23,58.25,12.1,58.48z M21.2,63.21c-0.02-0.05-0.07-0.08-0.13-0.08
		c-0.15,0.02-0.36,0.12-0.63,0.27c-0.22,0.13-0.44,0.28-0.68,0.46c-0.23,0.18-0.42,0.34-0.57,0.48c-0.28,0.27-0.59,0.63-0.92,1.06
		c-0.41,0.53-0.74,1.07-0.96,1.62c-0.23,0.55-0.34,1-0.34,1.36c0,0.24,0.05,0.42,0.14,0.56s0.23,0.25,0.42,0.34
		c0.09,0.05,0.18,0.08,0.25,0.1c0.07,0.02,0.2,0.05,0.36,0.11c0.17,0.05,0.25,0.14,0.25,0.25c0,0.19-0.06,0.4-0.19,0.63
		c-0.13,0.23-0.31,0.48-0.56,0.75c-0.24,0.27-0.55,0.49-0.91,0.68c-0.49,0.25-0.99,0.37-1.51,0.37c-0.63,0-1.12-0.14-1.46-0.43
		c-0.35-0.29-0.52-0.68-0.52-1.18c0-0.47,0.17-1.18,0.52-2.12c0.07-0.17,0.16-0.38,0.27-0.64c0.11-0.26,0.21-0.5,0.31-0.73
		c0.09-0.22,0.17-0.39,0.21-0.51c0.05-0.12,0.1-0.26,0.17-0.44c0.02-0.05,0.03-0.12,0.03-0.22c0-0.1-0.03-0.14-0.09-0.14
		c-0.04,0-0.09,0.05-0.14,0.14c-0.05,0.1-0.1,0.2-0.15,0.3l-0.42,0.91c-0.14,0.3-0.31,0.69-0.53,1.17c-0.22,0.48-0.41,0.98-0.56,1.5
		c-0.1,0.32-0.17,0.64-0.22,0.96c-0.05,0.32-0.07,0.64-0.07,0.97c0,0.26,0.03,0.54,0.1,0.83c0.07,0.29,0.19,0.57,0.37,0.83
		c0.39,0.51,0.96,0.77,1.71,0.78c0.66,0,1.25-0.17,1.76-0.52c0.27-0.18,0.52-0.39,0.75-0.64c0.23-0.25,0.43-0.5,0.6-0.74
		c0.34-0.53,0.61-1.16,0.82-1.88c0.21-0.72,0.31-1.37,0.31-1.93c0-0.4-0.1-0.68-0.29-0.82c-0.06-0.05-0.18-0.11-0.36-0.18
		c-0.18-0.07-0.31-0.14-0.38-0.19c-0.08-0.07-0.12-0.17-0.12-0.31c0-0.09,0.08-0.25,0.24-0.49s0.39-0.49,0.68-0.76
		c0.29-0.27,0.56-0.47,0.8-0.59c0.24-0.12,0.44-0.19,0.59-0.19c0.03,0,0.07,0.02,0.12,0.05s0.09,0.07,0.14,0.1
		c0.07,0,0.15-0.08,0.25-0.23c0.02-0.04,0.09-0.18,0.21-0.44c0.12-0.25,0.2-0.45,0.25-0.59c0.05-0.14,0.09-0.29,0.11-0.44
		C21.23,63.31,21.22,63.26,21.2,63.21z M22.84,65.15c0.01-0.21,0.02-0.43,0.03-0.65c0.01-0.22,0.03-0.42,0.04-0.6
		c0.02-0.18,0.03-0.29,0.04-0.34c0.01-0.05-0.01-0.08-0.05-0.1c-0.04-0.02-0.09,0.02-0.14,0.1c-0.06,0.13-0.14,0.29-0.22,0.46
		c-0.08,0.17-0.16,0.35-0.23,0.55s-0.13,0.39-0.19,0.59c-0.06,0.2-0.1,0.39-0.12,0.58c-0.04,0.32-0.06,0.78-0.04,1.39
		c0.01,0.61,0.01,1.08-0.01,1.41c-0.02,0.33-0.06,0.68-0.13,1.03c-0.07,0.35-0.11,0.54-0.11,0.55c-0.01,0.05,0,0.08,0.04,0.1
		c0.04,0.02,0.09,0,0.15-0.06c0.05-0.06,0.12-0.16,0.21-0.29c0.09-0.13,0.2-0.4,0.35-0.8c0.15-0.4,0.25-0.86,0.29-1.38
		c0.03-0.24,0.05-0.54,0.05-0.89c0.01-0.35,0.02-0.74,0.03-1.18C22.82,65.52,22.83,65.36,22.84,65.15z M24.67,69.71
		c-0.15,0.19-0.31,0.41-0.48,0.66c-0.12,0.2-0.21,0.38-0.28,0.55c-0.07,0.19-0.07,0.29-0.01,0.32c0.05,0.01,0.12-0.01,0.2-0.08
		c0.12-0.1,0.21-0.17,0.26-0.22c0.24-0.21,0.48-0.31,0.74-0.31c0.08,0,0.19,0.01,0.33,0.04c0.19,0.02,0.3,0.04,0.34,0.04
		c0.17,0,0.3-0.02,0.38-0.06c0.31-0.11,0.59-0.31,0.84-0.6c0.17-0.2,0.32-0.45,0.46-0.76c0.27-0.53,0.4-0.9,0.4-1.13
		c0-0.1-0.03-0.14-0.08-0.14c-0.04,0-0.09,0.04-0.16,0.13c-0.06,0.09-0.11,0.16-0.15,0.22c-0.04,0.06-0.08,0.11-0.11,0.17
		c-0.08,0.14-0.19,0.25-0.33,0.31c-0.14,0.07-0.31,0.1-0.5,0.09c-0.15,0-0.34-0.02-0.57-0.06c-0.14-0.01-0.28,0.03-0.42,0.1
		c-0.17,0.08-0.31,0.17-0.42,0.27C24.96,69.37,24.81,69.53,24.67,69.71z M26.09,64.82c0.1,0.07,0.26,0.18,0.47,0.32
		c0.21,0.14,0.33,0.22,0.37,0.24c0.09,0,0.25-0.18,0.45-0.54c0.21-0.36,0.31-0.64,0.31-0.83c-0.02-0.14-0.15-0.35-0.4-0.6
		c-0.25-0.26-0.44-0.36-0.57-0.3c-0.07,0-0.21,0.22-0.43,0.67c-0.22,0.44-0.33,0.73-0.33,0.87C25.95,64.7,26,64.76,26.09,64.82z
		 M29.23,66.67c0.03-0.39,0.11-1.1,0.24-2.14c0.13-1.04,0.2-1.74,0.22-2.11c0-0.05-0.02-0.08-0.05-0.09s-0.06,0.02-0.09,0.09
		c-0.29,0.75-0.48,1.27-0.58,1.57c-0.18,1.02-0.32,1.95-0.41,2.8c-0.09,0.84-0.14,1.5-0.15,1.97c0.13,0.02,0.24,0,0.33-0.07
		c0.09-0.06,0.17-0.16,0.23-0.29c0.06-0.13,0.11-0.29,0.14-0.47c0.04-0.18,0.06-0.39,0.07-0.62C29.18,67.27,29.2,67.06,29.23,66.67z
		 M28.39,77.28c0.17,0.15,0.3,0.25,0.39,0.33c0.09,0.08,0.16,0.12,0.2,0.12c0.19,0,0.44-0.33,0.76-0.99
		c0.13,0.1,0.28,0.23,0.45,0.41c0.17,0.18,0.29,0.26,0.36,0.26c0.1,0,0.26-0.15,0.47-0.46c0.22-0.31,0.33-0.59,0.33-0.82
		c-0.01-0.19-0.12-0.4-0.32-0.62c-0.2-0.22-0.38-0.33-0.53-0.33c-0.05,0-0.14,0.12-0.29,0.37s-0.28,0.47-0.4,0.67
		c-0.1-0.14-0.25-0.31-0.44-0.5c-0.19-0.19-0.34-0.26-0.44-0.22c-0.05,0-0.2,0.23-0.44,0.7c-0.24,0.47-0.36,0.74-0.36,0.82
		C28.13,77.05,28.22,77.14,28.39,77.28z M28.41,68.81c-0.01,0.56,0.06,1.01,0.22,1.36c0.18,0.36,0.43,0.54,0.75,0.55
		c0.31-0.02,0.58-0.18,0.8-0.5c0.22-0.31,0.39-0.72,0.52-1.21s0.19-0.84,0.2-1.06c0.01-0.13-0.01-0.19-0.08-0.19
		c-0.05,0-0.11,0.09-0.17,0.27c-0.06,0.18-0.13,0.33-0.22,0.47c-0.09,0.13-0.21,0.22-0.37,0.25c-0.16,0.04-0.32,0-0.48-0.11
		c-0.27-0.2-0.4-0.55-0.4-1.06v-0.4c-0.09,0.02-0.22,0.16-0.37,0.41c-0.15,0.25-0.29,0.63-0.4,1.15V68.81z M32.95,62.43
		c0.01-0.21,0.02-0.43,0.03-0.65c0.01-0.22,0.03-0.42,0.04-0.6c0.02-0.18,0.03-0.29,0.04-0.34c0.01-0.05-0.01-0.08-0.05-0.1
		c-0.04-0.02-0.09,0.02-0.14,0.1c-0.06,0.13-0.14,0.29-0.22,0.46c-0.08,0.17-0.16,0.35-0.23,0.55c-0.07,0.19-0.13,0.39-0.19,0.59
		c-0.06,0.2-0.1,0.39-0.12,0.58c-0.04,0.32-0.06,0.78-0.04,1.39c0.01,0.61,0.01,1.08-0.01,1.41c-0.02,0.33-0.06,0.68-0.13,1.03
		c-0.07,0.35-0.11,0.54-0.11,0.55c-0.01,0.05,0,0.08,0.04,0.1c0.04,0.02,0.09,0,0.15-0.06c0.05-0.06,0.12-0.16,0.21-0.29
		c0.09-0.13,0.2-0.4,0.35-0.8c0.15-0.4,0.25-0.86,0.29-1.38c0.03-0.24,0.05-0.54,0.05-0.89c0.01-0.35,0.02-0.74,0.03-1.18
		C32.94,62.79,32.95,62.64,32.95,62.43z M35.7,65.84c-0.08-0.01-0.15,0.06-0.21,0.2c-0.06,0.14-0.17,0.4-0.32,0.78
		c-0.15,0.38-0.32,0.76-0.51,1.13c-0.19,0.38-0.35,0.66-0.5,0.84c-0.15,0.19-0.4,0.41-0.75,0.66c-0.35,0.25-0.66,0.46-0.92,0.63
		c-0.26,0.17-0.43,0.3-0.49,0.4c-0.05,0.07-0.06,0.12-0.05,0.16c0.01,0.04,0.05,0.07,0.11,0.07c0.06,0,0.2-0.02,0.43-0.06
		c0.23-0.04,0.53-0.12,0.91-0.23c0.38-0.11,0.65-0.24,0.82-0.37c0.17-0.14,0.32-0.33,0.47-0.59c0.14-0.26,0.31-0.64,0.49-1.15
		c0.19-0.51,0.34-0.98,0.45-1.41c0.12-0.43,0.18-0.73,0.18-0.89C35.8,65.91,35.77,65.85,35.7,65.84z M41.18,70.94
		c-0.64,0.54-1.43,0.82-2.38,0.82c-0.53,0-0.96-0.11-1.29-0.34c-0.45-0.32-0.67-0.85-0.67-1.6c0-0.39,0.14-0.95,0.42-1.67
		c0.16-0.39,0.45-1.09,0.87-2.08c0.05-0.11,0.09-0.24,0.12-0.39c0.03-0.13,0.01-0.2-0.05-0.21c-0.05-0.01-0.12,0.07-0.2,0.24
		c-0.04,0.09-0.08,0.18-0.14,0.29c-0.06,0.11-0.12,0.23-0.19,0.36c-0.1,0.22-0.18,0.4-0.25,0.53c-0.07,0.14-0.12,0.24-0.15,0.3
		c-0.12,0.28-0.26,0.62-0.43,1.02c-0.15,0.39-0.3,0.86-0.44,1.4c-0.14,0.56-0.21,1.01-0.21,1.35c0,0.77,0.17,1.41,0.52,1.9
		c0.41,0.58,1,0.87,1.76,0.87c0.33,0,0.63-0.05,0.92-0.14c0.26-0.09,0.53-0.22,0.8-0.4c0.74-0.55,1.33-1.29,1.76-2.21
		c0.27-0.6,0.46-1.1,0.56-1.51c0.1-0.42,0.15-0.83,0.15-1.22c0-0.27-0.03-0.48-0.09-0.62c-0.06-0.13-0.16-0.24-0.29-0.34
		c-0.14-0.1-0.27-0.19-0.4-0.28c-0.13-0.09-0.2-0.17-0.2-0.25c-0.01-0.04-0.03-0.07-0.07-0.09c-0.04-0.02-0.09-0.03-0.14-0.03
		s-0.1,0.01-0.15,0.03c-0.05,0.02-0.09,0.05-0.11,0.09c-0.13,0.24-0.24,0.5-0.33,0.77c-0.09,0.27-0.14,0.51-0.14,0.72
		c0,0.3,0.22,0.55,0.65,0.75c0.43,0.2,0.64,0.35,0.64,0.45C42,69.99,41.73,70.48,41.18,70.94z M45.79,64.94
		c0.01-0.07,0.02-0.14,0.02-0.2c0-0.02-0.01-0.07-0.02-0.15c-0.02-0.06-0.04-0.13-0.08-0.24c-0.21,0.11-0.35,0.17-0.41,0.19
		s-0.14,0.02-0.24,0.02c-0.01-0.04,0.04-0.2,0.15-0.48c0.04-0.13,0.06-0.28,0.06-0.46c0-0.25-0.06-0.46-0.18-0.63
		c-0.13-0.16-0.28-0.24-0.45-0.24c-0.14,0-0.3,0.05-0.46,0.16c-0.18,0.11-0.37,0.31-0.58,0.59c-0.21,0.28-0.38,0.55-0.49,0.8
		c-0.13,0.28-0.2,0.46-0.2,0.54c0,0.05,0,0.09,0,0.12c0,0.03,0,0.06,0,0.07c0.01,0.04-0.12,0.14-0.37,0.29
		c-0.26,0.15-0.5,0.36-0.75,0.63c-0.24,0.27-0.45,0.54-0.61,0.83c0.08,0.07,0.16,0.1,0.23,0.09c0.07-0.01,0.15-0.04,0.24-0.09
		c0.02-0.12,0.11-0.24,0.28-0.36c0.17-0.13,0.3-0.22,0.41-0.27c0.17-0.08,0.34-0.16,0.52-0.24c0.23-0.1,0.5-0.18,0.84-0.24
		c0.33-0.07,0.54-0.11,0.64-0.11c0.16,0,0.3-0.01,0.43-0.02c0.18-0.01,0.36-0.05,0.52-0.13c0.15-0.07,0.29-0.17,0.43-0.3
		C45.74,65.04,45.77,64.99,45.79,64.94z M42.32,59.07c0.1,0.07,0.26,0.18,0.47,0.32c0.21,0.14,0.33,0.22,0.37,0.24
		c0.09,0,0.25-0.18,0.45-0.54s0.31-0.64,0.31-0.83c-0.02-0.14-0.15-0.35-0.4-0.6c-0.25-0.26-0.44-0.36-0.57-0.3
		c-0.06,0-0.21,0.22-0.43,0.67c-0.22,0.44-0.33,0.73-0.33,0.87C42.19,58.95,42.23,59.01,42.32,59.07z M44.56,64.49
		c-0.12,0.09-0.27,0.14-0.45,0.14c-0.14,0-0.28-0.03-0.41-0.1c-0.14-0.07-0.2-0.17-0.2-0.29c0-0.08,0.06-0.19,0.19-0.33
		c0.13-0.13,0.27-0.19,0.43-0.19c0.13,0,0.27,0.05,0.41,0.15c0.14,0.11,0.21,0.23,0.21,0.36C44.73,64.32,44.67,64.41,44.56,64.49z
		 M45.39,58.09c0.1,0.07,0.26,0.18,0.47,0.32c0.21,0.14,0.33,0.22,0.37,0.24c0.09,0,0.25-0.18,0.45-0.54s0.31-0.64,0.31-0.83
		c-0.02-0.14-0.15-0.35-0.4-0.6c-0.25-0.26-0.44-0.36-0.57-0.3c-0.07,0-0.21,0.22-0.43,0.67c-0.22,0.44-0.33,0.73-0.33,0.87
		C45.25,57.97,45.3,58.03,45.39,58.09z M46.8,64.13c-0.04-0.09-0.09-0.16-0.14-0.22c-0.05-0.04-0.11-0.07-0.16-0.08
		c-0.04-0.01-0.1-0.02-0.17-0.04l-0.09,0.09c-0.08,0.08-0.16,0.16-0.23,0.23c-0.09,0.09-0.2,0.17-0.3,0.24
		c-0.06,0.13-0.09,0.25-0.08,0.38c0.01,0.13,0.04,0.25,0.08,0.38l0.64-0.57c0.2-0.18,0.36-0.26,0.51-0.26L46.8,64.13z M46.85,64.28
		c0.08,0,0.18,0.03,0.3,0.08c0.12,0.05,0.2,0.08,0.22,0.08c0.17,0,0.35-0.09,0.52-0.28c0.09-0.08,0.19-0.19,0.29-0.33
		c0.03-0.04,0.07-0.09,0.12-0.16c0.05-0.07,0.12-0.15,0.2-0.25c0-0.01,0.02-0.05,0.07-0.12c0.04,0.1,0.13,0.21,0.28,0.33
		c0.15,0.12,0.32,0.21,0.51,0.26c0.15,0.04,0.36,0.06,0.62,0.06c0.31,0,0.61-0.06,0.89-0.17c0.29-0.12,0.57-0.3,0.85-0.53
		c0.28-0.23,0.52-0.48,0.69-0.74c0.15-0.22,0.3-0.49,0.46-0.8c0.12-0.25,0.21-0.48,0.28-0.69c0.04-0.17,0.06-0.36,0.09-0.58
		c0-0.24-0.06-0.42-0.17-0.55c-0.11-0.13-0.29-0.2-0.56-0.2c-0.3,0-0.58,0.11-0.84,0.32c-0.27,0.21-0.5,0.44-0.69,0.68
		c-0.14,0.19-0.27,0.38-0.4,0.56c-0.13,0.19-0.26,0.37-0.38,0.55c-0.2,0.28-0.32,0.43-0.35,0.43c-0.09,0-0.25-0.03-0.46-0.1
		c-0.22-0.06-0.34-0.09-0.37-0.09c-0.14,0-0.28,0.09-0.43,0.28c-0.11,0.12-0.23,0.29-0.36,0.52c-0.23,0.34-0.38,0.5-0.43,0.49
		c-0.08-0.04-0.17-0.09-0.26-0.14c-0.14-0.07-0.24-0.11-0.32-0.11c-0.14,0-0.31,0.09-0.52,0.28c-0.14,0.12-0.27,0.26-0.4,0.43
		C46.49,64.05,46.66,64.21,46.85,64.28z M52.25,61.58c-0.19,0.15-0.41,0.28-0.67,0.39c-0.25,0.11-0.49,0.18-0.73,0.22
		c-0.24,0.04-0.39,0.06-0.47,0.06c0.05-0.11,0.13-0.24,0.26-0.41c0.05-0.07,0.14-0.18,0.29-0.35c0.14-0.17,0.32-0.32,0.51-0.46
		c0.18-0.13,0.38-0.19,0.6-0.19c0.08,0,0.2,0.03,0.36,0.1c0.16,0.07,0.24,0.12,0.24,0.16C52.63,61.25,52.5,61.41,52.25,61.58z"/>
</g>
<g id="Layer_2">
</g>
<g id="Layer_3">
</g>
</svg>
