<?xml version="1.0" encoding="utf-8"?>
<!-- Generator: Adobe Illustrator 24.1.1, SVG Export Plug-In . SVG Version: 6.00 Build 0)  -->
<svg version="1.1" xmlns="http://www.w3.org/2000/svg" xmlns:xlink="http://www.w3.org/1999/xlink" x="0px" y="0px"
	 viewBox="0 0 52.51 52.12" style="enable-background:new 0 0 52.51 52.12;" xml:space="preserve">
<style type="text/css">
	.st0{fill:none;stroke:#F4F7F9;stroke-miterlimit:10;}
	.st1{fill:#F4F7F9;}
	.st2{fill:#315B51;}
	.st3{fill:#C8B34C;}
	.st4{fill:#B3B2B3;}
	.st5{fill:#2BB898;}
	.st6{fill:#D39241;}
	.st7{fill:#385BA6;}
	.st8{fill:#515151;}
	.st9{fill:#F4E8AA;}
	.st10{fill:#FAC86E;}
	.st11{fill:#F4F4F4;}
	.st12{fill:#AD9944;}
	.st13{fill:#00A99D;}
	.st14{fill:url(#SVGID_1_);}
	.st15{fill:#C4AF4C;}
	.st16{fill-rule:evenodd;clip-rule:evenodd;fill:#C4AF4C;}
	.st17{filter:url(#Adobe_OpacityMaskFilter);}
	.st18{fill:url(#SVGID_3_);}
	.st19{mask:url(#SVGID_2_);fill-rule:evenodd;clip-rule:evenodd;fill:#C4AF4C;}
	.st20{filter:url(#Adobe_OpacityMaskFilter_1_);}
	.st21{fill:url(#SVGID_5_);}
	.st22{mask:url(#SVGID_4_);fill-rule:evenodd;clip-rule:evenodd;fill:#F0E4A6;}
	.st23{filter:url(#Adobe_OpacityMaskFilter_2_);}
	.st24{fill:url(#SVGID_7_);}
	.st25{mask:url(#SVGID_6_);fill-rule:evenodd;clip-rule:evenodd;fill:#F0E4A6;}
	.st26{filter:url(#Adobe_OpacityMaskFilter_3_);}
	.st27{fill:url(#SVGID_9_);}
	.st28{mask:url(#SVGID_8_);fill-rule:evenodd;clip-rule:evenodd;fill:#F0E4A6;}
	.st29{filter:url(#Adobe_OpacityMaskFilter_4_);}
	.st30{fill:url(#SVGID_11_);}
	.st31{mask:url(#SVGID_10_);fill-rule:evenodd;clip-rule:evenodd;fill:#F0E4A6;}
	.st32{opacity:0.5;fill-rule:evenodd;clip-rule:evenodd;fill:#C4AF4C;}
	.st33{filter:url(#Adobe_OpacityMaskFilter_5_);}
	.st34{fill:url(#SVGID_13_);}
	.st35{mask:url(#SVGID_12_);fill-rule:evenodd;clip-rule:evenodd;fill:#C4AF4C;}
	.st36{filter:url(#Adobe_OpacityMaskFilter_6_);}
	.st37{fill:url(#SVGID_15_);}
	.st38{mask:url(#SVGID_14_);fill-rule:evenodd;clip-rule:evenodd;fill:#C4AF4C;}
	.st39{filter:url(#Adobe_OpacityMaskFilter_7_);}
	.st40{fill:url(#SVGID_17_);}
	.st41{mask:url(#SVGID_16_);fill-rule:evenodd;clip-rule:evenodd;fill:#F0E4A6;}
	.st42{fill-rule:evenodd;clip-rule:evenodd;fill:#315B51;}
	.st43{filter:url(#Adobe_OpacityMaskFilter_8_);}
	.st44{fill:url(#SVGID_19_);}
	.st45{mask:url(#SVGID_18_);fill-rule:evenodd;clip-rule:evenodd;fill:#2BB494;}
	.st46{fill:#AFAEAF;}
	.st47{fill:#FFFFFF;}
	.st48{fill:none;stroke:#FFFFFF;stroke-width:0.25;stroke-miterlimit:10;}
	.st49{fill:#333333;}
	.st50{fill:none;stroke:#CACACA;stroke-width:0.5;stroke-miterlimit:10;}
	.st51{opacity:0.3;}
	.st52{fill:url(#SVGID_20_);}
	.st53{fill:url(#SVGID_21_);}
	.st54{fill:url(#SVGID_22_);}
	.st55{fill:url(#SVGID_23_);}
	.st56{fill:url(#SVGID_24_);}
	.st57{fill:url(#SVGID_25_);}
	.st58{fill:#029385;}
	.st59{fill:#009183;}
	.st60{fill:#FCD1C5;}
	.st61{fill:url(#SVGID_26_);}
	.st62{fill:#F0F6FF;}
	.st63{fill:#AA8383;}
	.st64{fill:#C4CCD6;}
	.st65{fill:#E2B1A6;}
	.st66{fill:#1B2B3A;}
	.st67{fill:#936D6D;}
	.st68{fill:url(#SVGID_27_);}
	.st69{fill:url(#SVGID_28_);}
	.st70{fill:url(#SVGID_29_);}
	.st71{fill:url(#SVGID_30_);}
	.st72{fill:url(#SVGID_31_);}
	.st73{fill:#160A5B;}
	.st74{fill:url(#SVGID_32_);}
	.st75{fill:#722318;}
	.st76{fill:url(#SVGID_33_);}
	.st77{fill:#453C9E;}
	.st78{fill:url(#SVGID_34_);}
	.st79{fill:#DAE1E5;}
	.st80{fill:#E0E0E0;}
	.st81{filter:url(#Adobe_OpacityMaskFilter_9_);}
	.st82{fill:url(#SVGID_36_);}
	.st83{mask:url(#SVGID_35_);fill-rule:evenodd;clip-rule:evenodd;fill:#C4AF4C;}
	.st84{filter:url(#Adobe_OpacityMaskFilter_10_);}
	.st85{fill:url(#SVGID_38_);}
	.st86{mask:url(#SVGID_37_);fill-rule:evenodd;clip-rule:evenodd;fill:#F0E4A6;}
	.st87{filter:url(#Adobe_OpacityMaskFilter_11_);}
	.st88{fill:url(#SVGID_40_);}
	.st89{mask:url(#SVGID_39_);fill-rule:evenodd;clip-rule:evenodd;fill:#F0E4A6;}
	.st90{filter:url(#Adobe_OpacityMaskFilter_12_);}
	.st91{fill:url(#SVGID_42_);}
	.st92{mask:url(#SVGID_41_);fill-rule:evenodd;clip-rule:evenodd;fill:#F0E4A6;}
	.st93{filter:url(#Adobe_OpacityMaskFilter_13_);}
	.st94{fill:url(#SVGID_44_);}
	.st95{mask:url(#SVGID_43_);fill-rule:evenodd;clip-rule:evenodd;fill:#F0E4A6;}
	.st96{filter:url(#Adobe_OpacityMaskFilter_14_);}
	.st97{fill:url(#SVGID_46_);}
	.st98{mask:url(#SVGID_45_);fill-rule:evenodd;clip-rule:evenodd;fill:#C4AF4C;}
	.st99{filter:url(#Adobe_OpacityMaskFilter_15_);}
	.st100{fill:url(#SVGID_48_);}
	.st101{mask:url(#SVGID_47_);fill-rule:evenodd;clip-rule:evenodd;fill:#C4AF4C;}
	.st102{fill:none;stroke:#2BB797;stroke-width:1.16;stroke-linecap:round;stroke-linejoin:round;stroke-miterlimit:10;}
	.st103{fill-rule:evenodd;clip-rule:evenodd;fill:none;stroke:#C6C6C6;stroke-width:0.5;stroke-miterlimit:10;}
	.st104{fill-rule:evenodd;clip-rule:evenodd;fill:none;stroke:#C6C6C6;stroke-width:0.75;stroke-miterlimit:10;}
	.st105{fill:#2BB797;}
	.st106{fill:#2BB797;stroke:#2BB797;stroke-width:0.7684;stroke-miterlimit:10;}
	.st107{clip-path:url(#SVGID_50_);fill:#BBBBBB;}
	.st108{clip-path:url(#SVGID_50_);fill:#959595;}
	.st109{clip-path:url(#SVGID_50_);}
	.st110{fill:#959595;}
	.st111{fill:#BBBBBB;}
	.st112{fill:none;stroke:#C6C6C6;stroke-width:0.5;stroke-miterlimit:10;}
	.st113{clip-path:url(#SVGID_52_);}
	.st114{fill-rule:evenodd;clip-rule:evenodd;fill:none;stroke:#C9C9C9;stroke-width:0.5;stroke-miterlimit:10;}
	.st115{fill:#B2B1B2;}
	.st116{fill:#4D4D4D;}
	.st117{fill:#A5CFE3;}
	.st118{fill:url(#);}
	.st119{fill:#9F9F9F;}
	.st120{opacity:0.3;fill:url(#XMLID_64_);}
	.st121{fill:#35160D;}
	.st122{fill:#FCC082;}
	.st123{opacity:0.5;fill:#FCC082;}
	.st124{fill:#221001;}
	.st125{fill:url(#XMLID_65_);}
	.st126{enable-background:new    ;}
	.st127{fill:#1E1B1C;}
	.st128{fill:#0F0B0C;}
	.st129{fill:#4B4949;}
	.st130{opacity:0.3;fill:url(#XMLID_66_);}
	.st131{fill:url(#XMLID_67_);}
	.st132{fill-rule:evenodd;clip-rule:evenodd;fill:none;stroke:#CACACA;stroke-width:0.5;stroke-miterlimit:10;}
	.st133{fill:#249373;}
	.st134{fill:none;stroke:#249373;stroke-miterlimit:10;}
	.st135{fill:#E2CA49;}
	.st136{fill:none;stroke:#E2CA49;stroke-miterlimit:10;}
	.st137{fill:#3C3C3B;}
	.st138{fill:none;stroke:#000000;stroke-miterlimit:10;}
	.st139{fill:url(#SVGID_53_);}
	.st140{fill:url(#SVGID_54_);}
	.st141{fill:url(#SVGID_55_);}
	.st142{fill:url(#SVGID_56_);}
	.st143{fill:url(#SVGID_57_);}
	.st144{fill:url(#SVGID_58_);}
	.st145{fill:url(#SVGID_59_);}
	.st146{fill:url(#SVGID_60_);}
	.st147{fill:url(#SVGID_61_);}
	.st148{fill:url(#SVGID_62_);}
	.st149{fill:url(#SVGID_63_);}
	.st150{fill:url(#SVGID_64_);}
	.st151{fill:url(#SVGID_65_);}
	.st152{fill:url(#SVGID_66_);}
	.st153{fill:url(#SVGID_67_);}
	.st154{fill:#8E8E8E;}
	.st155{clip-path:url(#SVGID_69_);fill:#E2E4E6;}
	.st156{clip-path:url(#SVGID_71_);fill:#E2E4E6;}
	.st157{clip-path:url(#SVGID_73_);fill:#E2E4E6;}
</style>
<g id="Layer_1">
	<g>
		
			<rect x="3.95" y="38.8" transform="matrix(1 7.657106e-03 -7.657106e-03 1 0.3066 -0.0384)" class="st3" width="2.44" height="2.44"/>
		
			<rect x="7.32" y="38.82" transform="matrix(1 7.657106e-03 -7.657106e-03 1 0.3069 -0.0642)" class="st3" width="2.44" height="2.44"/>
		
			<rect x="3.93" y="42.17" transform="matrix(1 7.657106e-03 -7.657106e-03 1 0.3324 -0.0381)" class="st3" width="2.44" height="2.44"/>
		
			<rect x="7.29" y="42.19" transform="matrix(1 7.657106e-03 -7.657106e-03 1 0.3327 -0.0639)" class="st3" width="2.44" height="2.44"/>
		
			<rect x="3.9" y="45.54" transform="matrix(1 7.657106e-03 -7.657106e-03 1 0.3582 -0.0378)" class="st3" width="2.44" height="2.44"/>
		
			<rect x="7.27" y="45.56" transform="matrix(1 7.657106e-03 -7.657106e-03 1 0.3585 -0.0636)" class="st3" width="2.44" height="2.44"/>
		<polygon class="st3" points="51.97,47.02 41.67,47.12 41.73,40.01 50.56,37.4 		"/>
		
			<rect x="22.26" y="2.74" transform="matrix(1 7.657106e-03 -7.657106e-03 1 0.0368 -0.2543)" class="st3" width="21.95" height="3.86"/>
		<circle class="st3" cx="8.24" cy="19.39" r="8.24"/>
		
			<rect x="10.69" y="38.25" transform="matrix(1 7.657106e-03 -7.657106e-03 1 0.3026 -0.0901)" class="st3" width="2.44" height="2.44"/>
		<path class="st8" d="M47,24.9l-0.14-0.27l4.51-4.44c0.73-0.72,1.13-1.67,1.14-2.69c0.02-2.11-1.68-3.83-3.79-3.85
			c-0.43,0-0.84,0.08-1.23,0.21l0.09-11.17c0.01-1.39-1.11-2.54-2.51-2.55l-26.25-0.2c-0.67-0.01-1.31,0.25-1.79,0.73L9.53,8.05
			C9.04,8.52,8.78,9.15,8.77,9.83L8.76,11.7c-4.72,0.39-8.46,4.33-8.49,9.16L0.06,47.8c-0.02,2.32,1.86,4.23,4.18,4.24l10.11,0.08
			c2.32,0.02,4.23-1.86,4.24-4.18l0.01-0.84l20.21,0.15l0.84,0.01l11.94,0.09l-1.75-11.05C49.85,32.34,48.87,28.4,47,24.9z
			 M48.14,35.74l-8.23,2.18l-1.97-1.6c-1-0.81-1.56-2.01-1.55-3.3l0.05-6.83l0.01-0.84c0.93,0.01,1.68,0.77,1.67,1.7l-0.05,5.89
			l1.68,0.01l0.01-1.34l5.83-5.74C47.2,28.91,48.06,32.31,48.14,35.74z M36.46,23.66c-0.93-0.01-1.69,0.74-1.7,1.67l-0.01,0.84
			c0,0.46-0.38,0.84-0.85,0.84s-0.84-0.38-0.84-0.85l0.01-0.84c0.01-1.86,1.54-3.36,3.39-3.34l2.18,0.02l-1.74,1.72
			C36.76,23.69,36.61,23.66,36.46,23.66L36.46,23.66z M27.13,37.97l1.13-2.76l2.39,2.42l-2.78,1.09c-0.36,0.14-0.78-0.15-0.78-0.54
			C27.08,38.1,27.1,38.03,27.13,37.97z M32.15,36.75l-3-3.04l5.13-5.05c0.16-0.02,0.31-0.06,0.45-0.11l-0.03,4.46
			c0,0.38,0.04,0.76,0.11,1.12L32.15,36.75z M31.53,26.99l-9.42-0.07l0.03-3.37l9.56,0.07c-0.19,0.53-0.3,1.09-0.31,1.68l-0.01,0.84
			C31.38,26.44,31.44,26.73,31.53,26.99z M22.1,28.6l9.76,0.07l-3.39,3.34l-6.39-0.05L22.1,28.6z M22.06,33.66l4.99,0.04l-1.37,3.36
			l-3.64-0.03L22.06,33.66z M22.03,38.71l3.45,0.03c0.25,0.97,1.11,1.69,2.16,1.7c0.29,0,0.57-0.05,0.84-0.15l1.97-0.77l-0.02,2.63
			L22,42.08L22.03,38.71z M32.13,38.85l0.47-0.19l2.83-2.78c0.03,0.05,0.06,0.11,0.09,0.16l-0.05,6.13l-3.37-0.03L32.13,38.85z
			 M37.19,37.88l1.67,1.36l-0.02,2.96l-1.68-0.01L37.19,37.88z M50.82,17.48c0,0.57-0.23,1.1-0.64,1.51l-10.4,10.24l0.02-2.18
			c0.01-1.05-0.48-1.99-1.24-2.61l8.63-8.49c0.41-0.4,0.94-0.62,1.51-0.61C49.88,15.34,50.83,16.31,50.82,17.48L50.82,17.48z
			 M17.25,2.81l-0.04,4.7c0,0.46-0.38,0.84-0.85,0.84l-4.7-0.04L17.25,2.81z M9.59,13.35c4.18,0.03,7.55,3.46,7.52,7.64
			s-3.46,7.55-7.64,7.52s-7.55-3.46-7.52-7.64S5.41,13.32,9.59,13.35L9.59,13.35z M5.25,29.14c1.26,0.66,2.69,1.04,4.2,1.05
			s2.95-0.35,4.22-0.99l-0.03,4.39l-8.42-0.06L5.25,29.14z M14.36,50.44L4.25,50.36c-1.39-0.01-2.52-1.15-2.51-2.55l0.17-21.64
			c0.47,0.69,1.03,1.31,1.67,1.84l-0.04,5.49c-0.01,0.93,0.74,1.69,1.67,1.7l8.42,0.06c0.93,0.01,1.69-0.74,1.7-1.67l0.04-5.49
			c0.64-0.53,1.21-1.14,1.7-1.82L16.9,47.93C16.89,49.33,15.75,50.45,14.36,50.44z M18.61,45.42L18.79,21
			c0.04-4.82-3.64-8.82-8.35-9.29l0.01-1.73l5.89,0.05c1.39,0.01,2.54-1.11,2.55-2.51l0.05-5.89l26.11,0.2
			c0.46,0,0.84,0.38,0.84,0.85l-0.09,12.28l-5.44,5.36l-3.86-0.03c-1.49-0.01-2.83,0.63-3.77,1.66l-12.24-0.09l-0.17,21.9
			l18.53,0.14l-0.01,1.68L18.61,45.42z M40.5,45.59l0.05-6.09l7.76-2.05l1.3,8.22L40.5,45.59z"/>
		<path class="st8" d="M8.66,25.01l-0.01,1.81l1.68,0.01l0.01-1.81c0.98-0.3,1.69-1.2,1.7-2.27c0.01-0.92-0.5-1.74-1.31-2.16
			l-1.64-0.83c-0.24-0.12-0.39-0.37-0.39-0.65c0-0.4,0.33-0.72,0.72-0.71l0.25,0c0.4,0,0.72,0.33,0.71,0.72l-0.01,0.97l1.68,0.01
			l0.01-0.97c0.01-1.07-0.7-1.98-1.67-2.29l0.01-1.81l-1.68-0.01l-0.01,1.81c-0.98,0.3-1.69,1.2-1.7,2.27
			c-0.01,0.92,0.5,1.74,1.31,2.16l1.64,0.83c0.24,0.12,0.39,0.37,0.39,0.65c0,0.4-0.33,0.72-0.72,0.71l-0.25,0
			c-0.4,0-0.72-0.33-0.71-0.72l0.01-0.97L7,21.75l-0.01,0.97C6.98,23.79,7.69,24.69,8.66,25.01z"/>
		<path class="st8" d="M13.62,36.96L5.2,36.89c-0.93-0.01-1.69,0.74-1.7,1.67l-0.06,8.42c-0.01,0.93,0.74,1.69,1.67,1.7l8.42,0.06
			c0.93,0.01,1.69-0.74,1.7-1.67l0.06-8.42C15.3,37.73,14.55,36.97,13.62,36.96z M13.59,40.33l-1.68-0.01l0.01-1.68l1.68,0.01
			L13.59,40.33z M10.17,47.04l-1.68-0.01l0.01-1.68l1.68,0.01L10.17,47.04z M10.2,43.67l-1.68-0.01l0.01-1.68l1.68,0.01L10.2,43.67z
			 M6.83,43.64l-1.68-0.01l0.01-1.68l1.68,0.01L6.83,43.64z M8.54,40.29l0.01-1.68l1.68,0.01l-0.01,1.68L8.54,40.29z M6.87,38.59
			l-0.01,1.68l-1.68-0.01l0.01-1.68L6.87,38.59z M5.13,45.32l1.68,0.01L6.8,47.01L5.12,47L5.13,45.32z M11.86,47.05L11.89,42
			l1.69,0.01l-0.04,5.05L11.86,47.05z"/>
		<path class="st8" d="M44.19,3.51L20.61,3.33l-0.04,5.05l23.58,0.18L44.19,3.51z M42.48,6.86L22.27,6.71l0.01-1.68l20.21,0.15
			L42.48,6.86z"/>
		<path class="st8" d="M20.56,10.06l23.58,0.18l-0.01,1.68l-23.58-0.18L20.56,10.06z"/>
		<path class="st8" d="M20.53,13.43l23.58,0.18L44.1,15.3l-23.58-0.18L20.53,13.43z"/>
		<path class="st8" d="M20.51,16.8l13.47,0.1l-0.01,1.68l-13.47-0.1L20.51,16.8z"/>
	</g>
</g>
<g id="Layer_2">
</g>
<g id="Layer_3">
</g>
</svg>
