<?xml version="1.0" encoding="utf-8"?>
<!-- Generator: Adobe Illustrator 24.1.1, SVG Export Plug-In . SVG Version: 6.00 Build 0)  -->
<svg version="1.1" xmlns="http://www.w3.org/2000/svg" xmlns:xlink="http://www.w3.org/1999/xlink" x="0px" y="0px"
	 viewBox="0 0 62.81 56.23" style="enable-background:new 0 0 62.81 56.23;" xml:space="preserve">
<style type="text/css">
	.st0{fill:none;stroke:#F4F7F9;stroke-miterlimit:10;}
	.st1{fill:#F4F7F9;}
	.st2{fill:#315B51;}
	.st3{fill:#C8B34C;}
	.st4{fill:#B3B2B3;}
	.st5{fill:#2BB898;}
	.st6{fill:#D39241;}
	.st7{fill:#385BA6;}
	.st8{fill:#515151;}
	.st9{fill:#F4E8AA;}
	.st10{fill:#FAC86E;}
	.st11{fill:#F4F4F4;}
	.st12{fill:#AD9944;}
	.st13{fill:#00A99D;}
	.st14{fill:url(#SVGID_1_);}
	.st15{fill:#C4AF4C;}
	.st16{fill-rule:evenodd;clip-rule:evenodd;fill:#C4AF4C;}
	.st17{filter:url(#Adobe_OpacityMaskFilter);}
	.st18{fill:url(#SVGID_3_);}
	.st19{mask:url(#SVGID_2_);fill-rule:evenodd;clip-rule:evenodd;fill:#C4AF4C;}
	.st20{filter:url(#Adobe_OpacityMaskFilter_1_);}
	.st21{fill:url(#SVGID_5_);}
	.st22{mask:url(#SVGID_4_);fill-rule:evenodd;clip-rule:evenodd;fill:#F0E4A6;}
	.st23{filter:url(#Adobe_OpacityMaskFilter_2_);}
	.st24{fill:url(#SVGID_7_);}
	.st25{mask:url(#SVGID_6_);fill-rule:evenodd;clip-rule:evenodd;fill:#F0E4A6;}
	.st26{filter:url(#Adobe_OpacityMaskFilter_3_);}
	.st27{fill:url(#SVGID_9_);}
	.st28{mask:url(#SVGID_8_);fill-rule:evenodd;clip-rule:evenodd;fill:#F0E4A6;}
	.st29{filter:url(#Adobe_OpacityMaskFilter_4_);}
	.st30{fill:url(#SVGID_11_);}
	.st31{mask:url(#SVGID_10_);fill-rule:evenodd;clip-rule:evenodd;fill:#F0E4A6;}
	.st32{opacity:0.5;fill-rule:evenodd;clip-rule:evenodd;fill:#C4AF4C;}
	.st33{filter:url(#Adobe_OpacityMaskFilter_5_);}
	.st34{fill:url(#SVGID_13_);}
	.st35{mask:url(#SVGID_12_);fill-rule:evenodd;clip-rule:evenodd;fill:#C4AF4C;}
	.st36{filter:url(#Adobe_OpacityMaskFilter_6_);}
	.st37{fill:url(#SVGID_15_);}
	.st38{mask:url(#SVGID_14_);fill-rule:evenodd;clip-rule:evenodd;fill:#C4AF4C;}
	.st39{filter:url(#Adobe_OpacityMaskFilter_7_);}
	.st40{fill:url(#SVGID_17_);}
	.st41{mask:url(#SVGID_16_);fill-rule:evenodd;clip-rule:evenodd;fill:#F0E4A6;}
	.st42{fill-rule:evenodd;clip-rule:evenodd;fill:#315B51;}
	.st43{filter:url(#Adobe_OpacityMaskFilter_8_);}
	.st44{fill:url(#SVGID_19_);}
	.st45{mask:url(#SVGID_18_);fill-rule:evenodd;clip-rule:evenodd;fill:#2BB494;}
	.st46{fill:#AFAEAF;}
	.st47{fill:#FFFFFF;}
	.st48{fill:none;stroke:#FFFFFF;stroke-width:0.25;stroke-miterlimit:10;}
	.st49{fill:#333333;}
	.st50{fill:none;stroke:#CACACA;stroke-width:0.5;stroke-miterlimit:10;}
	.st51{opacity:0.3;}
	.st52{fill:url(#SVGID_20_);}
	.st53{fill:url(#SVGID_21_);}
	.st54{fill:url(#SVGID_22_);}
	.st55{fill:url(#SVGID_23_);}
	.st56{fill:url(#SVGID_24_);}
	.st57{fill:url(#SVGID_25_);}
	.st58{fill:#029385;}
	.st59{fill:#009183;}
	.st60{fill:#FCD1C5;}
	.st61{fill:url(#SVGID_26_);}
	.st62{fill:#F0F6FF;}
	.st63{fill:#AA8383;}
	.st64{fill:#C4CCD6;}
	.st65{fill:#E2B1A6;}
	.st66{fill:#1B2B3A;}
	.st67{fill:#936D6D;}
	.st68{fill:url(#SVGID_27_);}
	.st69{fill:url(#SVGID_28_);}
	.st70{fill:url(#SVGID_29_);}
	.st71{fill:url(#SVGID_30_);}
	.st72{fill:url(#SVGID_31_);}
	.st73{fill:#160A5B;}
	.st74{fill:url(#SVGID_32_);}
	.st75{fill:#722318;}
	.st76{fill:url(#SVGID_33_);}
	.st77{fill:#453C9E;}
	.st78{fill:url(#SVGID_34_);}
	.st79{fill:#DAE1E5;}
	.st80{fill:#E0E0E0;}
	.st81{filter:url(#Adobe_OpacityMaskFilter_9_);}
	.st82{fill:url(#SVGID_36_);}
	.st83{mask:url(#SVGID_35_);fill-rule:evenodd;clip-rule:evenodd;fill:#C4AF4C;}
	.st84{filter:url(#Adobe_OpacityMaskFilter_10_);}
	.st85{fill:url(#SVGID_38_);}
	.st86{mask:url(#SVGID_37_);fill-rule:evenodd;clip-rule:evenodd;fill:#F0E4A6;}
	.st87{filter:url(#Adobe_OpacityMaskFilter_11_);}
	.st88{fill:url(#SVGID_40_);}
	.st89{mask:url(#SVGID_39_);fill-rule:evenodd;clip-rule:evenodd;fill:#F0E4A6;}
	.st90{filter:url(#Adobe_OpacityMaskFilter_12_);}
	.st91{fill:url(#SVGID_42_);}
	.st92{mask:url(#SVGID_41_);fill-rule:evenodd;clip-rule:evenodd;fill:#F0E4A6;}
	.st93{filter:url(#Adobe_OpacityMaskFilter_13_);}
	.st94{fill:url(#SVGID_44_);}
	.st95{mask:url(#SVGID_43_);fill-rule:evenodd;clip-rule:evenodd;fill:#F0E4A6;}
	.st96{filter:url(#Adobe_OpacityMaskFilter_14_);}
	.st97{fill:url(#SVGID_46_);}
	.st98{mask:url(#SVGID_45_);fill-rule:evenodd;clip-rule:evenodd;fill:#C4AF4C;}
	.st99{filter:url(#Adobe_OpacityMaskFilter_15_);}
	.st100{fill:url(#SVGID_48_);}
	.st101{mask:url(#SVGID_47_);fill-rule:evenodd;clip-rule:evenodd;fill:#C4AF4C;}
	.st102{fill:none;stroke:#2BB797;stroke-width:1.16;stroke-linecap:round;stroke-linejoin:round;stroke-miterlimit:10;}
	.st103{fill-rule:evenodd;clip-rule:evenodd;fill:none;stroke:#C6C6C6;stroke-width:0.5;stroke-miterlimit:10;}
	.st104{fill-rule:evenodd;clip-rule:evenodd;fill:none;stroke:#C6C6C6;stroke-width:0.75;stroke-miterlimit:10;}
	.st105{fill:#2BB797;}
	.st106{fill:#2BB797;stroke:#2BB797;stroke-width:0.7684;stroke-miterlimit:10;}
	.st107{clip-path:url(#SVGID_50_);fill:#BBBBBB;}
	.st108{clip-path:url(#SVGID_50_);fill:#959595;}
	.st109{clip-path:url(#SVGID_50_);}
	.st110{fill:#959595;}
	.st111{fill:#BBBBBB;}
	.st112{fill:none;stroke:#C6C6C6;stroke-width:0.5;stroke-miterlimit:10;}
	.st113{clip-path:url(#SVGID_52_);}
	.st114{fill-rule:evenodd;clip-rule:evenodd;fill:none;stroke:#C9C9C9;stroke-width:0.5;stroke-miterlimit:10;}
	.st115{fill:#B2B1B2;}
	.st116{fill:#4D4D4D;}
	.st117{fill:#A5CFE3;}
	.st118{fill:url(#);}
	.st119{fill:#9F9F9F;}
	.st120{opacity:0.3;fill:url(#XMLID_64_);}
	.st121{fill:#35160D;}
	.st122{fill:#FCC082;}
	.st123{opacity:0.5;fill:#FCC082;}
	.st124{fill:#221001;}
	.st125{fill:url(#XMLID_65_);}
	.st126{enable-background:new    ;}
	.st127{fill:#1E1B1C;}
	.st128{fill:#0F0B0C;}
	.st129{fill:#4B4949;}
	.st130{opacity:0.3;fill:url(#XMLID_66_);}
	.st131{fill:url(#XMLID_67_);}
	.st132{fill-rule:evenodd;clip-rule:evenodd;fill:none;stroke:#CACACA;stroke-width:0.5;stroke-miterlimit:10;}
	.st133{fill:#249373;}
	.st134{fill:none;stroke:#249373;stroke-miterlimit:10;}
	.st135{fill:#E2CA49;}
	.st136{fill:none;stroke:#E2CA49;stroke-miterlimit:10;}
	.st137{fill:#3C3C3B;}
	.st138{fill:none;stroke:#000000;stroke-miterlimit:10;}
	.st139{fill:url(#SVGID_53_);}
	.st140{fill:url(#SVGID_54_);}
	.st141{fill:url(#SVGID_55_);}
	.st142{fill:url(#SVGID_56_);}
	.st143{fill:url(#SVGID_57_);}
	.st144{fill:url(#SVGID_58_);}
	.st145{fill:url(#SVGID_59_);}
	.st146{fill:url(#SVGID_60_);}
	.st147{fill:url(#SVGID_61_);}
	.st148{fill:url(#SVGID_62_);}
	.st149{fill:url(#SVGID_63_);}
	.st150{fill:url(#SVGID_64_);}
	.st151{fill:url(#SVGID_65_);}
	.st152{fill:url(#SVGID_66_);}
	.st153{fill:url(#SVGID_67_);}
	.st154{fill:#8E8E8E;}
	.st155{clip-path:url(#SVGID_69_);fill:#E2E4E6;}
	.st156{clip-path:url(#SVGID_71_);fill:#E2E4E6;}
	.st157{clip-path:url(#SVGID_73_);fill:#E2E4E6;}
</style>
<g id="Layer_1">
	<g>
		<g>
			<circle class="st3" cx="35.42" cy="7.84" r="2.12"/>
			<circle class="st3" cx="42.1" cy="12.14" r="2.12"/>
			<circle class="st3" cx="46.25" cy="24.04" r="2.12"/>
			<path class="st3" d="M38.3,51.93l-16.38-0.13c-0.93-0.01-1.69-0.78-1.68-1.71v0c0.01-0.93,0.78-1.69,1.71-1.68l16.38,0.13
				c0.93,0.01,1.69,0.78,1.68,1.71v0C40,51.18,39.23,51.94,38.3,51.93z"/>
			<path class="st3" d="M38.28,55.32L21.9,55.19c-0.93-0.01-1.69-0.78-1.68-1.71v0c0.01-0.93,0.78-1.69,1.71-1.68l16.38,0.13
				c0.93,0.01,1.69,0.78,1.68,1.71l0,0C39.98,54.57,39.21,55.33,38.28,55.32z"/>
			<path class="st3" d="M37.7,28.21l-7.63-0.06l0.1-13.2l7.63,0.06c0.67,0.01,1.22,0.56,1.21,1.23L38.93,27
				C38.92,27.67,38.37,28.21,37.7,28.21z"/>
			
				<rect x="59.08" y="25.56" transform="matrix(7.657106e-03 -1 1 7.657106e-03 33.056 86.2994)" class="st8" width="1.87" height="1.87"/>
			
				<rect x="59.05" y="29.3" transform="matrix(7.657106e-03 -1 1 7.657106e-03 29.2905 89.9794)" class="st8" width="1.87" height="1.87"/>
			
				<rect x="60.93" y="27.44" transform="matrix(7.657106e-03 -1 1 7.657106e-03 33.0132 90.0221)" class="st8" width="1.87" height="1.87"/>
			
				<rect x="57.19" y="27.41" transform="matrix(7.657106e-03 -1 1 7.657106e-03 29.3333 86.2566)" class="st8" width="1.87" height="1.87"/>
			<g>
				<path class="st8" d="M48.65,24.51c-0.39-1.12-1.44-1.87-2.63-1.88c-1.18-0.01-2.24,0.73-2.65,1.85l-5.78-0.04l0.03-3.74
					l3.74,0.03c0.52,0,0.94-0.41,0.94-0.93c0,0,0,0,0,0l0.03-3.91c1.46-0.5,2.24-2.1,1.74-3.56c-0.5-1.46-2.1-2.24-3.56-1.74
					c-1.46,0.5-2.24,2.1-1.74,3.56c0.28,0.8,0.9,1.43,1.7,1.72l-0.02,2.98l-2.8-0.02l0.01-1.87c0-0.52-0.41-0.94-0.93-0.94
					c0,0,0,0,0,0l-1.87-0.01l0.04-4.84c1.46-0.5,2.24-2.1,1.74-3.56c-0.5-1.46-2.1-2.24-3.56-1.74c-1.46,0.5-2.24,2.1-1.74,3.56
					c0.28,0.8,0.9,1.43,1.7,1.72l-0.04,4.84l-3.74-0.03l0.06-8.18l0.05-6.74c0-0.52-0.41-0.94-0.93-0.94c0,0,0,0,0,0
					C16.92,0.02,7.82,8.29,7.74,18.95c-0.04,5.06,1.92,11.78,5.11,17.52c0.57,1.03,1.32,2.12,2.12,3.27
					c1.68,2.43,3.54,5.16,3.73,7.53c-0.72,0.5-1.15,1.33-1.14,2.21c0,0.63,0.21,1.25,0.61,1.74c-0.56,0.54-0.87,1.28-0.87,2.06
					c-0.01,1.55,1.23,2.81,2.78,2.82l15.88,0.12c1.56,0,2.82-1.26,2.82-2.82c0-0.01,0-0.02,0-0.03c0.01-0.76-0.3-1.49-0.84-2.02
					c0.41-0.51,0.63-1.14,0.63-1.79c0.01-1.48-1.18-2.69-2.66-2.69c-0.04,0-0.08,0-0.12,0l-6.77-0.05l0.14-17.78l1.87,0.01L31,31.86
					c0,0.52,0.41,0.94,0.93,0.94c0,0,0,0,0,0l2.8,0.02l-0.01,1.11c-1.46,0.5-2.24,2.1-1.74,3.56c0.5,1.46,2.1,2.24,3.56,1.74
					c1.46-0.5,2.24-2.1,1.74-3.56c-0.28-0.8-0.9-1.43-1.7-1.72l0.02-2.04c0-0.52-0.41-0.94-0.93-0.94c0,0,0,0,0,0l-2.8-0.02
					l0.01-1.87l3.74,0.03c0.52,0,0.94-0.41,0.94-0.93c0,0,0,0,0,0l0.01-1.87l5.78,0.04c0.51,1.46,2.1,2.23,3.56,1.72
					C48.38,27.57,49.16,25.97,48.65,24.51z M41.43,12.32c0.52,0,0.93,0.43,0.93,0.94c0,0.52-0.43,0.93-0.94,0.93
					c-0.52,0-0.93-0.43-0.93-0.94C40.49,12.73,40.91,12.32,41.43,12.32z M27.23,36.47l-0.08,10.35l-6.62-0.05
					c-0.36-2.76-2.29-5.57-4.02-8.09c-0.77-1.11-1.49-2.16-2.02-3.11c-3-5.4-4.91-11.92-4.87-16.6C9.68,9.64,17.46,2.34,27.49,1.99
					l-0.04,5.79c0,0,0,5.07-0.01,6.44C27.44,14.22,27.13,35.54,27.23,36.47z M27.27,30.84c0,0,0.4,1.47,1.2,6.28l0.42-1.23
					c0.12-0.36,0.01-0.76-0.28-1.01c-0.71-0.61-0.68-3.03-0.99-4.18 M27.39,16.03l-0.1,12.93 M36.91,53.43
					c0,0.52-0.43,0.93-0.94,0.93l-15.88-0.12c-0.53-0.01-0.94-0.45-0.93-0.97c0-0.01,0-0.02,0-0.03c0-0.52,0.43-0.93,0.94-0.93
					l15.88,0.12c0.53,0.01,0.94,0.45,0.93,0.97C36.91,53.41,36.91,53.42,36.91,53.43z M35.77,48.75c0.47-0.04,0.89,0.31,0.92,0.78
					c0,0.03,0,0.06,0,0.09c0,0.52-0.43,0.93-0.94,0.93l-15.4-0.12c-0.53-0.01-0.94-0.45-0.93-0.97c0-0.01,0-0.02,0-0.03
					c0.02-0.47,0.42-0.82,0.89-0.8c0.02,0,0.04,0,0.05,0L35.77,48.75L35.77,48.75z M35.65,35.64c0.52,0,0.93,0.43,0.93,0.94
					s-0.43,0.93-0.94,0.93c-0.52,0-0.93-0.43-0.93-0.94C34.71,36.05,35.13,35.63,35.65,35.64z M33.99,7.59
					c0.52,0,0.93,0.43,0.93,0.94c0,0.52-0.43,0.93-0.94,0.93s-0.93-0.43-0.93-0.94C33.05,8,33.48,7.59,33.99,7.59z M35.71,27.23
					l-6.54-0.05l0.07-9.34l6.54,0.05L35.71,27.23z M45.99,26.37c-0.52,0-0.93-0.43-0.93-0.94c0-0.52,0.43-0.93,0.94-0.93
					s0.93,0.43,0.93,0.94C46.93,25.96,46.51,26.37,45.99,26.37z M27.27,30.84c0,0,0.22,1.13,1.2,6.28"/>
			</g>
			<g>
				<path class="st8" d="M37.13,42.88c-0.33,0.59-0.63,1.19-0.89,1.82l1.73,0.7c0.23-0.55,0.49-1.09,0.78-1.6L37.13,42.88z"/>
			</g>
			<g>
				<path class="st8" d="M39.25,39.61c-0.37,0.52-0.74,1.06-1.1,1.6l1.56,1.03c0.34-0.52,0.7-1.04,1.06-1.54L39.25,39.61z"/>
			</g>
			<g>
				<path class="st8" d="M41.4,36.52c-0.32,0.5-0.67,1.01-1.05,1.54l1.53,1.08c0.39-0.55,0.76-1.09,1.09-1.61L41.4,36.52z"/>
			</g>
			<g>
				<path class="st8" d="M43.18,33.27c-0.27,0.56-0.56,1.11-0.85,1.66l1.64,0.89c0.31-0.57,0.61-1.15,0.89-1.73L43.18,33.27z"/>
			</g>
			<g>
				<path class="st8" d="M44.67,29.86c-0.22,0.58-0.46,1.15-0.71,1.72l1.71,0.74c0.26-0.6,0.5-1.2,0.74-1.8L44.67,29.86z"/>
			</g>
			<g>
				<path class="st8" d="M48.85,19.08l-1.87,0l0,0.17c0,0.52-0.03,1.07-0.09,1.64l1.86,0.17c0.06-0.62,0.09-1.23,0.09-1.8
					L48.85,19.08z"/>
			</g>
			<g>
				<path class="st8" d="M48.41,15.1l-1.82,0.41c0.13,0.59,0.23,1.18,0.3,1.77l1.86-0.21C48.67,16.41,48.56,15.75,48.41,15.1z"/>
			</g>
			<g>
				<path class="st8" d="M47.09,11.31l-1.69,0.8c0.26,0.54,0.49,1.1,0.68,1.66l1.76-0.61C47.64,12.53,47.38,11.91,47.09,11.31z"/>
			</g>
			<g>
				<path class="st8" d="M44.98,7.91l-1.47,1.15c0.37,0.47,0.72,0.97,1.03,1.48l1.59-0.99C45.78,8.98,45.39,8.44,44.98,7.91z"/>
			</g>
			<g>
				<path class="st8" d="M42.2,5.04L41,6.47c0.46,0.39,0.9,0.8,1.32,1.23l1.34-1.3C43.2,5.92,42.71,5.47,42.2,5.04z"/>
			</g>
			<g>
				<path class="st8" d="M38.92,2.78l-0.9,1.64c0.53,0.29,1.05,0.61,1.55,0.95l1.05-1.54C40.07,3.46,39.5,3.11,38.92,2.78z"/>
			</g>
			<g>
				<path class="st8" d="M35.26,1.21l-0.58,1.78c0.58,0.19,1.15,0.4,1.7,0.64l0.74-1.71C36.53,1.65,35.9,1.41,35.26,1.21z"/>
			</g>
			<g>
				<path class="st8" d="M31.4,0.32l-0.25,1.85c0.6,0.08,1.2,0.19,1.79,0.33l0.42-1.82C32.71,0.53,32.05,0.41,31.4,0.32z"/>
			</g>
			<g>
				
					<rect x="1.89" y="50.33" transform="matrix(7.657106e-03 -1 1 7.657106e-03 -48.4635 53.6995)" class="st8" width="1.87" height="1.87"/>
			</g>
			<g>
				
					<rect x="1.86" y="54.07" transform="matrix(7.657106e-03 -1 1 7.657106e-03 -52.229 57.3794)" class="st8" width="1.87" height="1.87"/>
			</g>
			<g>
				
					<rect x="3.74" y="52.22" transform="matrix(7.657106e-03 -1 1 7.657106e-03 -48.5063 57.4222)" class="st8" width="1.87" height="1.87"/>
			</g>
			<g>
				
					<rect x="0.01" y="52.19" transform="matrix(7.657106e-03 -1 1 7.657106e-03 -52.1862 53.6567)" class="st8" width="1.87" height="1.87"/>
			</g>
			<g>
				
					<rect x="53.66" y="0.27" transform="matrix(7.657106e-03 -1 1 7.657106e-03 52.9696 55.7953)" class="st8" width="1.87" height="1.87"/>
			</g>
			<g>
				
					<rect x="53.63" y="4.01" transform="matrix(7.657106e-03 -1 1 7.657106e-03 49.2041 59.4753)" class="st8" width="1.87" height="1.87"/>
			</g>
			<g>
				
					<rect x="55.52" y="2.16" transform="matrix(7.657106e-03 -1 1 7.657106e-03 52.9268 59.5181)" class="st8" width="1.87" height="1.87"/>
			</g>
			<g>
				
					<rect x="51.78" y="2.13" transform="matrix(7.657106e-03 -1 1 7.657106e-03 49.2469 55.7526)" class="st8" width="1.87" height="1.87"/>
			</g>
			<line class="st8" x1="27.45" y1="7.78" x2="29.32" y2="7.79"/>
		</g>
	</g>
</g>
<g id="Layer_2">
</g>
<g id="Layer_3">
</g>
</svg>
