<?xml version="1.0" encoding="utf-8"?>
<!-- Generator: Adobe Illustrator 24.1.1, SVG Export Plug-In . SVG Version: 6.00 Build 0)  -->
<svg version="1.1" xmlns="http://www.w3.org/2000/svg" xmlns:xlink="http://www.w3.org/1999/xlink" x="0px" y="0px"
	 viewBox="0 0 54.42 53.53" style="enable-background:new 0 0 54.42 53.53;" xml:space="preserve">
<style type="text/css">
	.st0{fill:none;stroke:#F4F7F9;stroke-miterlimit:10;}
	.st1{fill:#F4F7F9;}
	.st2{fill:#315B51;}
	.st3{fill:#C8B34C;}
	.st4{fill:#B3B2B3;}
	.st5{fill:#2BB898;}
	.st6{fill:#D39241;}
	.st7{fill:#385BA6;}
	.st8{fill:#515151;}
	.st9{fill:#F4E8AA;}
	.st10{fill:#FAC86E;}
	.st11{fill:#F4F4F4;}
	.st12{fill:#AD9944;}
	.st13{fill:#00A99D;}
	.st14{fill:url(#SVGID_1_);}
	.st15{fill:#C4AF4C;}
	.st16{fill-rule:evenodd;clip-rule:evenodd;fill:#C4AF4C;}
	.st17{filter:url(#Adobe_OpacityMaskFilter);}
	.st18{fill:url(#SVGID_3_);}
	.st19{mask:url(#SVGID_2_);fill-rule:evenodd;clip-rule:evenodd;fill:#C4AF4C;}
	.st20{filter:url(#Adobe_OpacityMaskFilter_1_);}
	.st21{fill:url(#SVGID_5_);}
	.st22{mask:url(#SVGID_4_);fill-rule:evenodd;clip-rule:evenodd;fill:#F0E4A6;}
	.st23{filter:url(#Adobe_OpacityMaskFilter_2_);}
	.st24{fill:url(#SVGID_7_);}
	.st25{mask:url(#SVGID_6_);fill-rule:evenodd;clip-rule:evenodd;fill:#F0E4A6;}
	.st26{filter:url(#Adobe_OpacityMaskFilter_3_);}
	.st27{fill:url(#SVGID_9_);}
	.st28{mask:url(#SVGID_8_);fill-rule:evenodd;clip-rule:evenodd;fill:#F0E4A6;}
	.st29{filter:url(#Adobe_OpacityMaskFilter_4_);}
	.st30{fill:url(#SVGID_11_);}
	.st31{mask:url(#SVGID_10_);fill-rule:evenodd;clip-rule:evenodd;fill:#F0E4A6;}
	.st32{opacity:0.5;fill-rule:evenodd;clip-rule:evenodd;fill:#C4AF4C;}
	.st33{filter:url(#Adobe_OpacityMaskFilter_5_);}
	.st34{fill:url(#SVGID_13_);}
	.st35{mask:url(#SVGID_12_);fill-rule:evenodd;clip-rule:evenodd;fill:#C4AF4C;}
	.st36{filter:url(#Adobe_OpacityMaskFilter_6_);}
	.st37{fill:url(#SVGID_15_);}
	.st38{mask:url(#SVGID_14_);fill-rule:evenodd;clip-rule:evenodd;fill:#C4AF4C;}
	.st39{filter:url(#Adobe_OpacityMaskFilter_7_);}
	.st40{fill:url(#SVGID_17_);}
	.st41{mask:url(#SVGID_16_);fill-rule:evenodd;clip-rule:evenodd;fill:#F0E4A6;}
	.st42{fill-rule:evenodd;clip-rule:evenodd;fill:#315B51;}
	.st43{filter:url(#Adobe_OpacityMaskFilter_8_);}
	.st44{fill:url(#SVGID_19_);}
	.st45{mask:url(#SVGID_18_);fill-rule:evenodd;clip-rule:evenodd;fill:#2BB494;}
	.st46{fill:#AFAEAF;}
	.st47{fill:#FFFFFF;}
	.st48{fill:none;stroke:#FFFFFF;stroke-width:0.25;stroke-miterlimit:10;}
	.st49{fill:#333333;}
	.st50{fill:none;stroke:#CACACA;stroke-width:0.5;stroke-miterlimit:10;}
	.st51{opacity:0.3;}
	.st52{fill:url(#SVGID_20_);}
	.st53{fill:url(#SVGID_21_);}
	.st54{fill:url(#SVGID_22_);}
	.st55{fill:url(#SVGID_23_);}
	.st56{fill:url(#SVGID_24_);}
	.st57{fill:url(#SVGID_25_);}
	.st58{fill:#029385;}
	.st59{fill:#009183;}
	.st60{fill:#FCD1C5;}
	.st61{fill:url(#SVGID_26_);}
	.st62{fill:#F0F6FF;}
	.st63{fill:#AA8383;}
	.st64{fill:#C4CCD6;}
	.st65{fill:#E2B1A6;}
	.st66{fill:#1B2B3A;}
	.st67{fill:#936D6D;}
	.st68{fill:url(#SVGID_27_);}
	.st69{fill:url(#SVGID_28_);}
	.st70{fill:url(#SVGID_29_);}
	.st71{fill:url(#SVGID_30_);}
	.st72{fill:url(#SVGID_31_);}
	.st73{fill:#160A5B;}
	.st74{fill:url(#SVGID_32_);}
	.st75{fill:#722318;}
	.st76{fill:url(#SVGID_33_);}
	.st77{fill:#453C9E;}
	.st78{fill:url(#SVGID_34_);}
	.st79{fill:#DAE1E5;}
	.st80{fill:#E0E0E0;}
	.st81{filter:url(#Adobe_OpacityMaskFilter_9_);}
	.st82{fill:url(#SVGID_36_);}
	.st83{mask:url(#SVGID_35_);fill-rule:evenodd;clip-rule:evenodd;fill:#C4AF4C;}
	.st84{filter:url(#Adobe_OpacityMaskFilter_10_);}
	.st85{fill:url(#SVGID_38_);}
	.st86{mask:url(#SVGID_37_);fill-rule:evenodd;clip-rule:evenodd;fill:#F0E4A6;}
	.st87{filter:url(#Adobe_OpacityMaskFilter_11_);}
	.st88{fill:url(#SVGID_40_);}
	.st89{mask:url(#SVGID_39_);fill-rule:evenodd;clip-rule:evenodd;fill:#F0E4A6;}
	.st90{filter:url(#Adobe_OpacityMaskFilter_12_);}
	.st91{fill:url(#SVGID_42_);}
	.st92{mask:url(#SVGID_41_);fill-rule:evenodd;clip-rule:evenodd;fill:#F0E4A6;}
	.st93{filter:url(#Adobe_OpacityMaskFilter_13_);}
	.st94{fill:url(#SVGID_44_);}
	.st95{mask:url(#SVGID_43_);fill-rule:evenodd;clip-rule:evenodd;fill:#F0E4A6;}
	.st96{filter:url(#Adobe_OpacityMaskFilter_14_);}
	.st97{fill:url(#SVGID_46_);}
	.st98{mask:url(#SVGID_45_);fill-rule:evenodd;clip-rule:evenodd;fill:#C4AF4C;}
	.st99{filter:url(#Adobe_OpacityMaskFilter_15_);}
	.st100{fill:url(#SVGID_48_);}
	.st101{mask:url(#SVGID_47_);fill-rule:evenodd;clip-rule:evenodd;fill:#C4AF4C;}
	.st102{fill:none;stroke:#2BB797;stroke-width:1.16;stroke-linecap:round;stroke-linejoin:round;stroke-miterlimit:10;}
	.st103{fill-rule:evenodd;clip-rule:evenodd;fill:none;stroke:#C6C6C6;stroke-width:0.5;stroke-miterlimit:10;}
	.st104{fill-rule:evenodd;clip-rule:evenodd;fill:none;stroke:#C6C6C6;stroke-width:0.75;stroke-miterlimit:10;}
	.st105{fill:#2BB797;}
	.st106{fill:#2BB797;stroke:#2BB797;stroke-width:0.7684;stroke-miterlimit:10;}
	.st107{clip-path:url(#SVGID_50_);fill:#BBBBBB;}
	.st108{clip-path:url(#SVGID_50_);fill:#959595;}
	.st109{clip-path:url(#SVGID_50_);}
	.st110{fill:#959595;}
	.st111{fill:#BBBBBB;}
	.st112{fill:none;stroke:#C6C6C6;stroke-width:0.5;stroke-miterlimit:10;}
	.st113{clip-path:url(#SVGID_52_);}
	.st114{fill-rule:evenodd;clip-rule:evenodd;fill:none;stroke:#C9C9C9;stroke-width:0.5;stroke-miterlimit:10;}
	.st115{fill:#B2B1B2;}
	.st116{fill:#4D4D4D;}
	.st117{fill:#A5CFE3;}
	.st118{fill:url(#);}
	.st119{fill:#9F9F9F;}
	.st120{opacity:0.3;fill:url(#XMLID_64_);}
	.st121{fill:#35160D;}
	.st122{fill:#FCC082;}
	.st123{opacity:0.5;fill:#FCC082;}
	.st124{fill:#221001;}
	.st125{fill:url(#XMLID_65_);}
	.st126{enable-background:new    ;}
	.st127{fill:#1E1B1C;}
	.st128{fill:#0F0B0C;}
	.st129{fill:#4B4949;}
	.st130{opacity:0.3;fill:url(#XMLID_66_);}
	.st131{fill:url(#XMLID_67_);}
	.st132{fill-rule:evenodd;clip-rule:evenodd;fill:none;stroke:#CACACA;stroke-width:0.5;stroke-miterlimit:10;}
	.st133{fill:#249373;}
	.st134{fill:none;stroke:#249373;stroke-miterlimit:10;}
	.st135{fill:#E2CA49;}
	.st136{fill:none;stroke:#E2CA49;stroke-miterlimit:10;}
	.st137{fill:#3C3C3B;}
	.st138{fill:none;stroke:#000000;stroke-miterlimit:10;}
	.st139{fill:url(#SVGID_53_);}
	.st140{fill:url(#SVGID_54_);}
	.st141{fill:url(#SVGID_55_);}
	.st142{fill:url(#SVGID_56_);}
	.st143{fill:url(#SVGID_57_);}
	.st144{fill:url(#SVGID_58_);}
	.st145{fill:url(#SVGID_59_);}
	.st146{fill:url(#SVGID_60_);}
	.st147{fill:url(#SVGID_61_);}
	.st148{fill:url(#SVGID_62_);}
	.st149{fill:url(#SVGID_63_);}
	.st150{fill:url(#SVGID_64_);}
	.st151{fill:url(#SVGID_65_);}
	.st152{fill:url(#SVGID_66_);}
	.st153{fill:url(#SVGID_67_);}
	.st154{fill:#8E8E8E;}
	.st155{clip-path:url(#SVGID_69_);fill:#E2E4E6;}
	.st156{clip-path:url(#SVGID_71_);fill:#E2E4E6;}
	.st157{clip-path:url(#SVGID_73_);fill:#E2E4E6;}
</style>
<g id="Layer_1">
	<g>
		<path class="st3" d="M4.19,53.17l48.67,0.37c0.62,0,1.12-0.49,1.13-1.11L54,50.57L3.02,50.18l-0.01,1.79
			C3,52.63,3.53,53.17,4.19,53.17z"/>
		<path class="st3" d="M14.1,39c0,0-0.5-4.89,1.11-6.1c1.61-1.21,8.5-4.14,8.51-6.22s-2.56-6.2-2.6-8.17
			c-0.04-1.97,0.25-11.45,0.52-11.87c0.27-0.42,0.61-3.24,6.87-3.04c2.57,0.09,4.19,0.8,5.22,1.61c1.07,0.85,1.68,2.16,1.74,3.53
			c0.12,2.66,0.4,9.81,0.13,10.41c-0.33,0.74-2.75,4.34-2.7,5.09s-0.21,2.5,0.84,3.47c1.05,0.97,7.2,4,7.88,5.97
			s0.76,5.53,0.76,5.53L14.1,39z"/>
		<path class="st8" d="M53.35,49.07c0-0.1-0.02-0.21-0.06-0.3c-0.01-0.02-0.02-0.03-0.02-0.04c-0.03-0.06-0.06-0.12-0.09-0.17
			l-5.98-7.81l0.2-25.48c0.01-1.47-1.17-2.67-2.65-2.69l-6.22-0.05l0.01-0.89c0.16-6.26-4.78-11.47-11.04-11.64L26.63,0
			c-6.26,0.08-11.28,5.21-11.22,11.47l-0.01,0.89l-6.22-0.05c-1.47-0.01-2.67,1.17-2.69,2.65L6.3,40.44l-6.1,7.71
			c-0.04,0.05-0.07,0.11-0.1,0.17c-0.01,0.01-0.02,0.03-0.02,0.04c-0.04,0.1-0.06,0.2-0.06,0.3c0,0.01-0.01,0.02-0.01,0.03L0,50.47
			c-0.01,1.47,1.17,2.67,2.65,2.69l48.01,0.37c1.47,0.01,2.67-1.17,2.69-2.65l0.01-1.78C53.36,49.09,53.35,49.08,53.35,49.07z
			 M38.49,16.98l0.02-2.67l6.22,0.05c0.49,0,0.89,0.4,0.88,0.9l-0.19,24.89l-3.56-0.03l0.02-2.92c0.04-2.33-1.22-4.48-3.27-5.58
			l-5.55-3.24c-0.51-0.28-0.82-0.81-0.8-1.39l0.01-1.54c1.21-1.62,2.09-3.46,2.61-5.42c0.02-0.06,0.02-0.13,0.02-0.19l0.01-1.11
			l1.78,0.01C37.68,18.75,38.48,17.96,38.49,16.98z M22.93,24.39c-0.3-0.42-0.58-0.86-0.84-1.31l1.28,0.01
			c0.2,1.04,1.11,1.79,2.16,1.79l1.78,0.01c1.23,0.01,2.23-0.98,2.24-2.21l0.01-0.89c0.01-1.23-0.98-2.23-2.21-2.24l-1.78-0.01
			c-1.06-0.01-1.97,0.73-2.19,1.76l-2.17-0.02c-0.22-0.54-0.4-1.09-0.53-1.66l0.07-9.23c0-0.04,0-0.08-0.01-0.11
			c-0.08-1.17,0.3-2.33,1.06-3.23c1.04-1.16,2.79-1.74,5.21-1.72c2.41,0.02,4.15,0.62,5.17,1.79c0.75,0.91,1.11,2.08,1.02,3.26
			c0,0.04-0.01,0.08-0.01,0.11l-0.07,9.23c-0.47,1.71-1.26,3.31-2.32,4.72c-0.2,0.27-0.31,0.59-0.31,0.92l-0.01,1.6
			c-0.02,1.23,0.64,2.37,1.72,2.96l5.55,3.24c1.47,0.8,2.37,2.35,2.35,4.02l-0.02,2.92l-26.67-0.2l0.02-3.05
			c0-1.62,0.87-3.11,2.28-3.9l5.79-3.2c1.05-0.58,1.71-1.69,1.71-2.9l0.01-1.54C23.23,24.99,23.13,24.66,22.93,24.39z M25.11,22.66
			l0.01-0.89c0-0.25,0.2-0.44,0.45-0.44l1.78,0.01c0.25,0,0.44,0.2,0.44,0.45l-0.01,0.89c0,0.25-0.2,0.44-0.45,0.44l-1.78-0.01
			C25.3,23.11,25.11,22.91,25.11,22.66z M36.71,16.97l-1.78-0.01l0.03-4.45l1.78,0.01L36.71,16.97L36.71,16.97z M26.62,1.78
			l0.85,0.01c4.94,0.14,8.95,4.03,9.24,8.96l-1.74-0.01l0-0.18c0.14-1.66-0.37-3.3-1.43-4.58c-1.37-1.58-3.56-2.39-6.52-2.42
			c-2.95-0.02-5.16,0.76-6.55,2.32c-1.08,1.26-1.62,2.9-1.5,4.56l0,0.18l-1.74-0.01C17.61,5.67,21.68,1.85,26.62,1.78z M17.18,12.37
			l1.78,0.01l-0.03,4.45l-1.78-0.01L17.18,12.37z M17.13,19.93l0.01-1.33l1.78,0.01l-0.01,1.11c0,0.07,0.01,0.13,0.02,0.19
			c0.1,0.46,0.23,0.92,0.39,1.37l-1.04-0.01C17.6,21.22,17.08,20.62,17.13,19.93z M8.27,14.97c0-0.49,0.4-0.89,0.9-0.88l6.22,0.05
			l-0.04,5.78c-0.06,1.67,1.25,3.07,2.92,3.13l1.8,0.01c0.4,0.8,0.86,1.58,1.38,2.31l-0.01,1.47c0,0.56-0.3,1.08-0.79,1.35
			l-5.79,3.2c-1.97,1.1-3.2,3.19-3.2,5.45l-0.02,3.05l-3.56-0.03L8.27,14.97z M7.62,41.64l38.25,0.29l4.79,6.26L2.73,47.83
			L7.62,41.64z M51.56,50.87c0,0.49-0.4,0.89-0.9,0.88L2.66,51.38c-0.49,0-0.89-0.4-0.88-0.9l0.01-0.89l49.79,0.38L51.56,50.87
			L51.56,50.87z"/>
		<path class="st8" d="M40.94,44.56l-28.45-0.22c-0.49,0-0.89,0.39-0.9,0.88c0,0.49,0.39,0.89,0.88,0.9l28.45,0.22
			c0.49,0,0.89-0.39,0.9-0.88S41.43,44.57,40.94,44.56z"/>
		<path class="st8" d="M8.94,44.32l-0.89-0.01c-0.49,0-0.89,0.39-0.9,0.88c0,0.49,0.39,0.89,0.88,0.9l0.89,0.01
			c0.49,0,0.89-0.39,0.9-0.88C9.82,44.72,9.43,44.32,8.94,44.32z"/>
		<path class="st8" d="M45.39,44.6l-0.89-0.01c-0.49,0-0.89,0.39-0.9,0.88c0,0.49,0.39,0.89,0.88,0.9l0.89,0.01
			c0.49,0,0.89-0.39,0.9-0.88S45.88,44.6,45.39,44.6z"/>
	</g>
</g>
<g id="Layer_2">
</g>
<g id="Layer_3">
</g>
</svg>
