<?xml version="1.0" encoding="utf-8"?>
<!-- Generator: Adobe Illustrator 24.1.1, SVG Export Plug-In . SVG Version: 6.00 Build 0)  -->
<svg version="1.1" xmlns="http://www.w3.org/2000/svg" xmlns:xlink="http://www.w3.org/1999/xlink" x="0px" y="0px"
	 viewBox="0 0 10.61 7.11" style="enable-background:new 0 0 10.61 7.11;" xml:space="preserve">
<style type="text/css">
	.st58{fill:#2BB898;}
</style>
<g id="Layer_1">
	<g>
		<g>
			<path class="st58" d="M2.65,1.53l1.1-1.1c0.09-0.09,0.09-0.22,0-0.31C3.71,0.09,3.65,0.07,3.6,0.07S3.49,0.09,3.44,0.13l-1.1,1.1
				L2.65,1.53z"/>
			<path class="st58" d="M1.34,2.23L0.17,3.4c-0.09,0.09-0.09,0.22,0,0.31l3.27,3.27c0.09,0.09,0.22,0.09,0.31,0
				c0.09-0.09,0.09-0.22,0-0.31l-2.9-2.9h9.51c0.12,0,0.22-0.1,0.22-0.22s-0.1-0.22-0.22-0.22H0.85l0.8-0.8L1.34,2.23z"/>
		</g>
	</g>
</g>
</svg>
