<?xml version="1.0" encoding="utf-8"?>
<!-- Generator: Adobe Illustrator 24.1.1, SVG Export Plug-In . SVG Version: 6.00 Build 0)  -->
<svg version="1.1" xmlns="http://www.w3.org/2000/svg" xmlns:xlink="http://www.w3.org/1999/xlink" x="0px" y="0px"
	 viewBox="0 0 45.62 206.74" style="enable-background:new 0 0 45.62 206.74;" xml:space="preserve">
<style type="text/css">
	.st0{fill:url(#SVGID_1_);}
	.st1{opacity:0.51;fill:url(#SVGID_2_);}
	.st2{opacity:0.4;fill:url(#SVGID_3_);}
	.st3{opacity:0.3;fill:url(#SVGID_4_);}
	.st4{display:none;opacity:0.58;}
	.st5{display:inline;opacity:0.8;}
	.st6{fill:url(#SVGID_5_);}
	.st7{fill:url(#SVGID_6_);}
	.st8{fill:url(#SVGID_7_);}
	.st9{opacity:0.35;fill:url(#SVGID_8_);}
	.st10{opacity:0.35;fill:url(#SVGID_9_);}
	.st11{opacity:0.35;fill:url(#SVGID_10_);}
	.st12{fill:url(#SVGID_11_);}
	.st13{fill:url(#SVGID_12_);}
	.st14{fill:url(#SVGID_13_);}
	.st15{fill:url(#SVGID_14_);}
	.st16{fill:url(#SVGID_15_);}
	.st17{fill:url(#SVGID_16_);}
	.st18{fill:#C3AE4C;}
	.st19{fill-rule:evenodd;clip-rule:evenodd;fill:#C3AE4C;}
	.st20{filter:url(#Adobe_OpacityMaskFilter);}
	.st21{fill:url(#SVGID_18_);}
	.st22{mask:url(#SVGID_17_);fill-rule:evenodd;clip-rule:evenodd;fill:#C3AE4C;}
	.st23{filter:url(#Adobe_OpacityMaskFilter_1_);}
	.st24{fill:url(#SVGID_20_);}
	.st25{mask:url(#SVGID_19_);fill-rule:evenodd;clip-rule:evenodd;fill:#EFE3A5;}
	.st26{filter:url(#Adobe_OpacityMaskFilter_2_);}
	.st27{fill:url(#SVGID_22_);}
	.st28{mask:url(#SVGID_21_);fill-rule:evenodd;clip-rule:evenodd;fill:#EFE3A5;}
	.st29{filter:url(#Adobe_OpacityMaskFilter_3_);}
	.st30{fill:url(#SVGID_24_);}
	.st31{mask:url(#SVGID_23_);fill-rule:evenodd;clip-rule:evenodd;fill:#EFE3A5;}
	.st32{filter:url(#Adobe_OpacityMaskFilter_4_);}
	.st33{fill:url(#SVGID_26_);}
	.st34{mask:url(#SVGID_25_);fill-rule:evenodd;clip-rule:evenodd;fill:#EFE3A5;}
	.st35{opacity:0.5;fill-rule:evenodd;clip-rule:evenodd;fill:#C3AE4C;}
	.st36{filter:url(#Adobe_OpacityMaskFilter_5_);}
	.st37{fill:url(#SVGID_28_);}
	.st38{mask:url(#SVGID_27_);fill-rule:evenodd;clip-rule:evenodd;fill:#C3AE4C;}
	.st39{filter:url(#Adobe_OpacityMaskFilter_6_);}
	.st40{fill:url(#SVGID_30_);}
	.st41{mask:url(#SVGID_29_);fill-rule:evenodd;clip-rule:evenodd;fill:#C3AE4C;}
	.st42{filter:url(#Adobe_OpacityMaskFilter_7_);}
	.st43{fill:url(#SVGID_32_);}
	.st44{mask:url(#SVGID_31_);fill-rule:evenodd;clip-rule:evenodd;fill:#EFE3A5;}
	.st45{fill-rule:evenodd;clip-rule:evenodd;fill:#315B51;}
	.st46{filter:url(#Adobe_OpacityMaskFilter_8_);}
	.st47{fill:url(#SVGID_34_);}
	.st48{mask:url(#SVGID_33_);fill-rule:evenodd;clip-rule:evenodd;fill:#2BB393;}
	.st49{fill:#AEADAE;}
	.st50{fill:#FFFFFF;}
	.st51{fill:none;stroke:#FFFFFF;stroke-width:0.25;stroke-miterlimit:10;}
	.st52{fill:none;stroke:#2BB898;stroke-width:0.75;stroke-miterlimit:10;}
	.st53{fill:#C8B34C;}
	.st54{fill:#213E3D;}
	.st55{fill:none;stroke:#FFFFFF;stroke-width:0.3125;stroke-miterlimit:10;}
	.st56{fill:none;stroke:#5980CC;stroke-width:0.5;stroke-miterlimit:10;}
	.st57{fill:#248C75;}
	.st58{fill:#2BB898;}
	.st59{fill:#FFE700;}
	.st60{fill:#F3AC33;}
	.st61{fill:#ED8C00;}
	.st62{fill:#FAC86E;}
	.st63{fill:#335387;}
	.st64{fill:#385BA6;}
	.st65{fill:none;stroke:#2BB898;stroke-width:0.5;stroke-miterlimit:10;}
	.st66{fill:none;stroke:#FAC86E;stroke-width:0.5;stroke-miterlimit:10;}
	.st67{fill:none;stroke:#C7C7C7;stroke-width:0.1782;stroke-miterlimit:10;}
	.st68{fill:none;stroke:#666666;stroke-width:0.2017;stroke-miterlimit:10;}
	.st69{fill:none;stroke:#666666;stroke-width:0.3203;stroke-linecap:round;stroke-miterlimit:10;}
	.st70{fill:none;stroke:#666666;stroke-width:0.25;stroke-miterlimit:10;}
	.st71{fill:none;stroke:#666666;stroke-width:0.2826;stroke-miterlimit:10;}
	.st72{fill:#FF1D25;}
	.st73{fill:#6FBEA8;}
	.st74{fill:#C1C1C1;}
	.st75{fill:#97C9BB;}
	.st76{fill:#D5D5D5;}
	.st77{fill:#A7C9BF;}
	.st78{fill:#ECECEC;}
	.st79{fill:#A8C1BA;}
	.st80{fill:#A1B7B1;}
	.st81{fill:#ACB9B6;}
	.st82{fill:#5BAF98;}
	.st83{enable-background:new    ;}
	.st84{fill:#D5BC55;}
	.st85{fill:#AF9A46;}
	.st86{fill:url(#SVGID_35_);}
	.st87{opacity:0.51;}
	.st88{fill:url(#SVGID_36_);}
	.st89{fill:#5A9AD1;}
	.st90{fill:#345878;}
	.st91{fill:#4A7EAB;}
	.st92{opacity:0.51;fill:url(#SVGID_37_);}
	.st93{opacity:0.51;fill:url(#SVGID_38_);}
	.st94{fill:#1C9678;}
	.st95{fill:url(#SVGID_39_);}
	.st96{opacity:0.51;fill:url(#SVGID_40_);}
	.st97{opacity:0.51;fill:url(#SVGID_41_);}
	.st98{fill:#52C9A9;}
	.st99{fill:url(#SVGID_42_);}
	.st100{fill:url(#SVGID_43_);}
	.st101{opacity:0.51;fill:url(#SVGID_44_);}
	.st102{fill:url(#SVGID_45_);}
	.st103{fill:url(#SVGID_46_);}
	.st104{opacity:0.51;fill:url(#SVGID_47_);}
	.st105{fill:none;stroke:#C7C7C7;stroke-width:0.25;stroke-miterlimit:10;}
	.st106{fill:#E1E1E1;}
	.st107{fill:#C5B04C;}
	.st108{fill-rule:evenodd;clip-rule:evenodd;fill:#C5B04C;}
	.st109{filter:url(#Adobe_OpacityMaskFilter_9_);}
	.st110{fill:url(#SVGID_51_);}
	.st111{mask:url(#SVGID_50_);fill-rule:evenodd;clip-rule:evenodd;fill:#C5B04C;}
	.st112{filter:url(#Adobe_OpacityMaskFilter_10_);}
	.st113{fill:url(#SVGID_53_);}
	.st114{mask:url(#SVGID_52_);fill-rule:evenodd;clip-rule:evenodd;fill:#F1E5A7;}
	.st115{filter:url(#Adobe_OpacityMaskFilter_11_);}
	.st116{fill:url(#SVGID_55_);}
	.st117{mask:url(#SVGID_54_);fill-rule:evenodd;clip-rule:evenodd;fill:#F1E5A7;}
	.st118{filter:url(#Adobe_OpacityMaskFilter_12_);}
	.st119{fill:url(#SVGID_57_);}
	.st120{mask:url(#SVGID_56_);fill-rule:evenodd;clip-rule:evenodd;fill:#F1E5A7;}
	.st121{filter:url(#Adobe_OpacityMaskFilter_13_);}
	.st122{fill:url(#SVGID_59_);}
	.st123{mask:url(#SVGID_58_);fill-rule:evenodd;clip-rule:evenodd;fill:#F1E5A7;}
	.st124{opacity:0.5;fill-rule:evenodd;clip-rule:evenodd;fill:#C5B04C;}
	.st125{filter:url(#Adobe_OpacityMaskFilter_14_);}
	.st126{fill:url(#SVGID_61_);}
	.st127{mask:url(#SVGID_60_);fill-rule:evenodd;clip-rule:evenodd;fill:#C5B04C;}
	.st128{filter:url(#Adobe_OpacityMaskFilter_15_);}
	.st129{fill:url(#SVGID_63_);}
	.st130{mask:url(#SVGID_62_);fill-rule:evenodd;clip-rule:evenodd;fill:#C5B04C;}
	.st131{fill:none;stroke:#2BB898;stroke-width:1.16;stroke-linecap:round;stroke-linejoin:round;stroke-miterlimit:10;}
	.st132{fill-rule:evenodd;clip-rule:evenodd;fill:none;stroke:#C7C7C7;stroke-width:0.5;stroke-miterlimit:10;}
	.st133{fill:none;stroke:#C7C7C7;stroke-width:0.5;stroke-miterlimit:10;}
	.st134{fill-rule:evenodd;clip-rule:evenodd;fill:none;stroke:#C7C7C7;stroke-width:0.75;stroke-miterlimit:10;}
	.st135{fill:#2BB898;stroke:#2BB898;stroke-width:0.7684;stroke-miterlimit:10;}
	.st136{fill:#4D4D4D;}
	.st137{fill:#515151;}
	.st138{clip-path:url(#SVGID_65_);fill:#BCBCBC;}
	.st139{clip-path:url(#SVGID_65_);fill:#969696;}
	.st140{clip-path:url(#SVGID_65_);}
	.st141{fill:#969696;}
	.st142{fill:#BCBCBC;}
	.st143{opacity:0.28;clip-path:url(#SVGID_67_);fill:#B3B2B3;}
	.st144{opacity:0.28;clip-path:url(#SVGID_69_);fill:#B3B2B3;}
	.st145{clip-path:url(#SVGID_71_);}
	.st146{fill:#DDDDDD;}
	.st147{fill:#C4C4C4;}
	.st148{fill:#A6A6A6;}
	.st149{fill:url(#SVGID_74_);}
	.st150{fill:#4576CB;}
	.st151{fill:none;stroke:#FFFFFF;stroke-width:0.5206;stroke-miterlimit:10;}
	.st152{fill:url(#SVGID_77_);}
	.st153{fill:#989898;}
	.st154{fill:url(#SVGID_80_);}
	.st155{fill:none;stroke:#FFFFFF;stroke-width:0.5208;stroke-miterlimit:10;}
	.st156{fill:url(#SVGID_83_);}
	.st157{fill:#1F7760;}
	.st158{opacity:0.28;clip-path:url(#SVGID_93_);fill:#666666;}
	.st159{opacity:0.28;clip-path:url(#SVGID_95_);fill:#666666;}
	.st160{fill-rule:evenodd;clip-rule:evenodd;fill:none;stroke:#CACACA;stroke-width:0.5;stroke-miterlimit:10;}
	.st161{fill:#B3B2B3;}
	.st162{fill:#EAEAEA;}
	.st163{fill:url(#SVGID_96_);}
	.st164{fill:url(#SVGID_97_);}
	.st165{opacity:0.4;fill:#06033E;}
	.st166{fill:url(#SVGID_98_);}
	.st167{fill:url(#SVGID_99_);}
	.st168{fill:url(#SVGID_100_);}
	.st169{fill:url(#SVGID_101_);}
	.st170{clip-path:url(#SVGID_103_);fill:#112564;}
	.st171{clip-path:url(#SVGID_103_);fill:#112665;}
	.st172{clip-path:url(#SVGID_103_);fill:#112766;}
	.st173{clip-path:url(#SVGID_103_);fill:#112867;}
	.st174{clip-path:url(#SVGID_103_);fill:#112968;}
	.st175{clip-path:url(#SVGID_103_);fill:#112A69;}
	.st176{clip-path:url(#SVGID_103_);fill:#112B6A;}
	.st177{clip-path:url(#SVGID_103_);fill:#112C6B;}
	.st178{clip-path:url(#SVGID_103_);fill:#112D6D;}
	.st179{clip-path:url(#SVGID_103_);fill:#112E6E;}
	.st180{clip-path:url(#SVGID_103_);fill:#112F6F;}
	.st181{clip-path:url(#SVGID_103_);fill:#113070;}
	.st182{clip-path:url(#SVGID_103_);fill:#113171;}
	.st183{clip-path:url(#SVGID_103_);fill:#113272;}
	.st184{clip-path:url(#SVGID_103_);fill:#113373;}
	.st185{clip-path:url(#SVGID_103_);fill:#113474;}
	.st186{clip-path:url(#SVGID_103_);fill:#113575;}
	.st187{clip-path:url(#SVGID_103_);fill:#113676;}
	.st188{clip-path:url(#SVGID_103_);fill:#113777;}
	.st189{clip-path:url(#SVGID_103_);fill:#113878;}
	.st190{clip-path:url(#SVGID_103_);fill:#113979;}
	.st191{clip-path:url(#SVGID_103_);fill:#113A7A;}
	.st192{clip-path:url(#SVGID_103_);fill:#113B7B;}
	.st193{clip-path:url(#SVGID_103_);fill:#113C7C;}
	.st194{clip-path:url(#SVGID_103_);fill:#113D7D;}
	.st195{clip-path:url(#SVGID_103_);fill:#113E7E;}
	.st196{clip-path:url(#SVGID_103_);fill:#113F7F;}
	.st197{clip-path:url(#SVGID_103_);fill:#114080;}
	.st198{clip-path:url(#SVGID_103_);fill:#114181;}
	.st199{clip-path:url(#SVGID_103_);fill:#114282;}
	.st200{clip-path:url(#SVGID_103_);fill:#114383;}
	.st201{clip-path:url(#SVGID_103_);fill:#114484;}
	.st202{clip-path:url(#SVGID_103_);fill:#114585;}
	.st203{clip-path:url(#SVGID_103_);fill:#114686;}
	.st204{clip-path:url(#SVGID_103_);fill:#114787;}
	.st205{clip-path:url(#SVGID_103_);fill:#114888;}
	.st206{clip-path:url(#SVGID_103_);fill:#114989;}
	.st207{clip-path:url(#SVGID_103_);fill:#114A8A;}
	.st208{clip-path:url(#SVGID_103_);fill:#114B8B;}
	.st209{clip-path:url(#SVGID_103_);fill:#114C8C;}
	.st210{clip-path:url(#SVGID_103_);fill:#114D8D;}
	.st211{clip-path:url(#SVGID_103_);fill:#114E8E;}
	.st212{clip-path:url(#SVGID_103_);fill:#114F8F;}
	.st213{clip-path:url(#SVGID_103_);fill:#115090;}
	.st214{clip-path:url(#SVGID_103_);fill:#115191;}
	.st215{clip-path:url(#SVGID_103_);fill:#115292;}
	.st216{clip-path:url(#SVGID_103_);fill:#115393;}
	.st217{clip-path:url(#SVGID_103_);fill:#115494;}
	.st218{clip-path:url(#SVGID_103_);fill:#115595;}
	.st219{clip-path:url(#SVGID_103_);fill:#115696;}
	.st220{clip-path:url(#SVGID_103_);fill:#115797;}
	.st221{clip-path:url(#SVGID_103_);fill:#115899;}
	.st222{clip-path:url(#SVGID_103_);fill:#11599A;}
	.st223{clip-path:url(#SVGID_103_);fill:#115A9B;}
	.st224{clip-path:url(#SVGID_103_);fill:#115B9C;}
	.st225{clip-path:url(#SVGID_103_);fill:#115C9D;}
	.st226{clip-path:url(#SVGID_103_);fill:#115D9E;}
	.st227{clip-path:url(#SVGID_103_);fill:#115E9F;}
	.st228{clip-path:url(#SVGID_103_);fill:#115FA0;}
	.st229{clip-path:url(#SVGID_103_);fill:#1160A1;}
	.st230{clip-path:url(#SVGID_103_);fill:#1161A2;}
	.st231{clip-path:url(#SVGID_103_);fill:#1162A3;}
	.st232{clip-path:url(#SVGID_103_);fill:#1163A4;}
	.st233{clip-path:url(#SVGID_103_);fill:#1164A5;}
	.st234{clip-path:url(#SVGID_103_);fill:#1165A6;}
	.st235{clip-path:url(#SVGID_103_);fill:#1166A7;}
	.st236{clip-path:url(#SVGID_103_);fill:#1167A8;}
	.st237{clip-path:url(#SVGID_103_);fill:#1168A9;}
	.st238{clip-path:url(#SVGID_103_);fill:#1169AA;}
	.st239{clip-path:url(#SVGID_103_);fill:#116AAB;}
	.st240{clip-path:url(#SVGID_103_);fill:#116BAC;}
	.st241{clip-path:url(#SVGID_103_);fill:#116CAD;}
	.st242{clip-path:url(#SVGID_103_);fill:#116DAE;}
	.st243{clip-path:url(#SVGID_103_);fill:#116EAF;}
	.st244{clip-path:url(#SVGID_103_);fill:#116FB0;}
	.st245{clip-path:url(#SVGID_103_);fill:#1170B1;}
	.st246{clip-path:url(#SVGID_103_);fill:#1171B2;}
	.st247{clip-path:url(#SVGID_103_);fill:#1172B3;}
	.st248{clip-path:url(#SVGID_103_);fill:#1173B4;}
	.st249{clip-path:url(#SVGID_103_);fill:#1174B5;}
	.st250{clip-path:url(#SVGID_103_);fill:#1175B6;}
	.st251{clip-path:url(#SVGID_103_);fill:#1176B7;}
	.st252{clip-path:url(#SVGID_103_);fill:#1177B8;}
	.st253{clip-path:url(#SVGID_103_);fill:#1178B9;}
	.st254{clip-path:url(#SVGID_103_);fill:#107ABA;}
	.st255{clip-path:url(#SVGID_103_);fill:#107BBB;}
	.st256{clip-path:url(#SVGID_103_);fill:#107CBC;}
	.st257{clip-path:url(#SVGID_103_);fill:#107EBD;}
	.st258{clip-path:url(#SVGID_103_);fill:#0F7FBD;}
	.st259{clip-path:url(#SVGID_103_);fill:#0F80BE;}
	.st260{clip-path:url(#SVGID_103_);fill:#0F82BF;}
	.st261{clip-path:url(#SVGID_103_);fill:#0F83C0;}
	.st262{clip-path:url(#SVGID_103_);fill:#0E84C1;}
	.st263{clip-path:url(#SVGID_103_);fill:#0E85C2;}
	.st264{clip-path:url(#SVGID_103_);fill:#0E87C3;}
	.st265{clip-path:url(#SVGID_103_);fill:#0E88C4;}
	.st266{clip-path:url(#SVGID_103_);fill:#0D89C4;}
	.st267{clip-path:url(#SVGID_103_);fill:#0D8BC5;}
	.st268{clip-path:url(#SVGID_103_);fill:#0D8CC6;}
	.st269{clip-path:url(#SVGID_103_);fill:#0D8DC7;}
	.st270{clip-path:url(#SVGID_103_);fill:#0C8EC8;}
	.st271{clip-path:url(#SVGID_103_);fill:#0C90C9;}
	.st272{clip-path:url(#SVGID_103_);fill:#0C91CA;}
	.st273{clip-path:url(#SVGID_103_);fill:#0C92CA;}
	.st274{clip-path:url(#SVGID_103_);fill:#0B93CB;}
	.st275{clip-path:url(#SVGID_103_);fill:#0B94CC;}
	.st276{clip-path:url(#SVGID_103_);fill:#0B96CD;}
	.st277{clip-path:url(#SVGID_103_);fill:#0B97CE;}
	.st278{clip-path:url(#SVGID_103_);fill:#0A98CE;}
	.st279{clip-path:url(#SVGID_103_);fill:#0A99CF;}
	.st280{clip-path:url(#SVGID_103_);fill:#0A9AD0;}
	.st281{clip-path:url(#SVGID_103_);fill:#0A9CD1;}
	.st282{clip-path:url(#SVGID_103_);fill:#0A9DD2;}
	.st283{clip-path:url(#SVGID_103_);fill:#099ED2;}
	.st284{clip-path:url(#SVGID_103_);fill:#099FD3;}
	.st285{clip-path:url(#SVGID_103_);fill:#09A0D4;}
	.st286{clip-path:url(#SVGID_103_);fill:#09A1D5;}
	.st287{clip-path:url(#SVGID_103_);fill:#08A2D5;}
	.st288{clip-path:url(#SVGID_103_);fill:#08A3D6;}
	.st289{clip-path:url(#SVGID_103_);fill:#08A5D7;}
	.st290{clip-path:url(#SVGID_103_);fill:#08A6D8;}
	.st291{clip-path:url(#SVGID_103_);fill:#08A7D8;}
	.st292{clip-path:url(#SVGID_103_);fill:#07A8D9;}
	.st293{clip-path:url(#SVGID_103_);fill:#07A9DA;}
	.st294{clip-path:url(#SVGID_103_);fill:#07AADB;}
	.st295{clip-path:url(#SVGID_103_);fill:#07ABDB;}
	.st296{clip-path:url(#SVGID_103_);fill:#07ACDC;}
	.st297{clip-path:url(#SVGID_103_);fill:#06ADDD;}
	.st298{clip-path:url(#SVGID_103_);fill:#06AEDD;}
	.st299{clip-path:url(#SVGID_103_);fill:#06AFDE;}
	.st300{clip-path:url(#SVGID_103_);fill:#06B0DF;}
	.st301{clip-path:url(#SVGID_103_);fill:#06B1DF;}
	.st302{clip-path:url(#SVGID_103_);fill:#05B2E0;}
	.st303{clip-path:url(#SVGID_103_);fill:#05B3E1;}
	.st304{clip-path:url(#SVGID_103_);fill:#05B4E1;}
	.st305{clip-path:url(#SVGID_103_);fill:#05B5E2;}
	.st306{clip-path:url(#SVGID_103_);fill:#05B6E3;}
	.st307{clip-path:url(#SVGID_103_);fill:#04B7E3;}
	.st308{clip-path:url(#SVGID_103_);fill:#04B8E4;}
	.st309{clip-path:url(#SVGID_103_);fill:#04B9E5;}
	.st310{clip-path:url(#SVGID_103_);fill:#04BAE6;}
	.st311{clip-path:url(#SVGID_103_);fill:#04BBE6;}
	.st312{clip-path:url(#SVGID_103_);fill:#03BCE7;}
	.st313{clip-path:url(#SVGID_103_);fill:#03BDE7;}
	.st314{clip-path:url(#SVGID_103_);fill:#03BEE8;}
	.st315{clip-path:url(#SVGID_103_);fill:#03BFE9;}
	.st316{clip-path:url(#SVGID_103_);fill:#03C0EA;}
	.st317{clip-path:url(#SVGID_103_);fill:#02C1EA;}
	.st318{clip-path:url(#SVGID_103_);fill:#02C2EB;}
	.st319{clip-path:url(#SVGID_103_);fill:#02C3EC;}
	.st320{clip-path:url(#SVGID_103_);fill:#02C4EC;}
	.st321{clip-path:url(#SVGID_103_);fill:#02C5ED;}
	.st322{clip-path:url(#SVGID_103_);fill:#01C6EE;}
	.st323{clip-path:url(#SVGID_103_);fill:#01C7EE;}
	.st324{clip-path:url(#SVGID_103_);fill:#01C7EF;}
	.st325{clip-path:url(#SVGID_103_);fill:#01C8EF;}
	.st326{fill:url(#SVGID_104_);}
	.st327{fill:url(#SVGID_105_);}
	.st328{fill:url(#SVGID_106_);}
	.st329{fill:url(#SVGID_107_);}
	.st330{fill:#07AADB;}
	.st331{fill:#0D121E;}
	.st332{fill:url(#SVGID_108_);}
	.st333{fill:url(#SVGID_109_);}
	.st334{fill:url(#SVGID_110_);}
	.st335{fill:url(#SVGID_111_);}
	.st336{opacity:0.25;}
	.st337{fill:url(#SVGID_113_);}
	.st338{fill:#03184C;}
	.st339{opacity:0.5;}
	.st340{fill:#29A6DD;}
	.st341{fill:#C7C7C7;}
	.st342{fill:#3B3735;}
	.st343{fill:#00A470;}
	.st344{fill:none;stroke:#808080;stroke-width:0.25;stroke-miterlimit:10;}
	.st345{fill:none;stroke:#C8B34C;stroke-width:0.5;stroke-miterlimit:10;}
	.st346{fill:none;stroke:#000000;stroke-miterlimit:10;}
	.st347{fill:url(#SVGID_114_);}
	.st348{opacity:0.28;fill:#666666;}
	.st349{opacity:0.8;fill:#E1E1E1;}
	.st350{fill:#CCC4A3;}
	.st351{display:none;}
	.st352{display:inline;}
	.st353{opacity:0.8;}
	.st354{fill-rule:evenodd;clip-rule:evenodd;fill:#020202;}
	
		.st355{fill-rule:evenodd;clip-rule:evenodd;fill:none;stroke:#BDBDBD;stroke-width:0.3727;stroke-linecap:square;stroke-miterlimit:10;}
	.st356{fill-rule:evenodd;clip-rule:evenodd;fill:#2BB898;}
	.st357{fill-rule:evenodd;clip-rule:evenodd;fill:#D39241;}
	.st358{fill-rule:evenodd;clip-rule:evenodd;fill:#385BA6;}
	.st359{display:inline;fill-rule:evenodd;clip-rule:evenodd;fill:#606060;}
	.st360{display:inline;fill:none;stroke:#C7C7C7;stroke-width:0.25;stroke-miterlimit:10;}
	.st361{display:inline;fill:none;stroke:#C8B34C;stroke-miterlimit:10;}
</style>
<g id="Layer_1">
	<g>
		<defs>
			<rect id="SVGID_94_" x="-12.81" y="-7.76" width="62.24" height="220.38"/>
		</defs>
		<clipPath id="SVGID_1_">
			<use xlink:href="#SVGID_94_"  style="overflow:visible;"/>
		</clipPath>
		<path style="opacity:0.28;clip-path:url(#SVGID_1_);fill:#666666;" d="M142.13,10.83h-2.48c-0.6,0-1.08-0.49-1.08-1.08V7.27
			c0-0.6,0.49-1.08,1.08-1.08h2.48c0.59,0,1.08-0.49,1.08-1.08V1.25c0-0.59,0.48-1.08,1.08-1.08h3.87c0.6,0,1.08,0.49,1.08,1.08
			v3.87c0,0.59-0.49,1.08-1.08,1.08h-3.87c-0.6,0-1.08,0.49-1.08,1.08v2.48C143.21,10.34,142.72,10.83,142.13,10.83z M124.82,10.83
			h-2.48c-0.6,0-1.08-0.49-1.08-1.08V7.27c0-0.6,0.49-1.08,1.08-1.08h2.48c0.59,0,1.08-0.49,1.08-1.08V1.25
			c0-0.59,0.48-1.08,1.08-1.08h3.87c0.6,0,1.08,0.49,1.08,1.08v3.87c0,0.59-0.49,1.08-1.08,1.08h-3.87c-0.6,0-1.08,0.49-1.08,1.08
			v2.48C125.9,10.34,125.42,10.83,124.82,10.83z M107.52,10.83h-2.48c-0.6,0-1.08-0.49-1.08-1.08V7.27c0-0.6,0.49-1.08,1.08-1.08
			h2.48c0.59,0,1.08-0.49,1.08-1.08V1.25c0-0.59,0.48-1.08,1.08-1.08h3.87c0.6,0,1.08,0.49,1.08,1.08v3.87
			c0,0.59-0.49,1.08-1.08,1.08h-3.87c-0.6,0-1.08,0.49-1.08,1.08v2.48C108.6,10.34,108.12,10.83,107.52,10.83z M90.22,10.83h-2.48
			c-0.6,0-1.08-0.49-1.08-1.08V7.27c0-0.6,0.49-1.08,1.08-1.08h2.48c0.59,0,1.08-0.49,1.08-1.08V1.25c0-0.59,0.48-1.08,1.08-1.08
			h3.87c0.6,0,1.08,0.49,1.08,1.08v3.87c0,0.59-0.49,1.08-1.08,1.08h-3.87c-0.6,0-1.08,0.49-1.08,1.08v2.48
			C91.3,10.34,90.81,10.83,90.22,10.83z M72.92,10.83h-2.48c-0.6,0-1.08-0.49-1.08-1.08V7.27c0-0.6,0.49-1.08,1.08-1.08h2.48
			c0.59,0,1.08-0.49,1.08-1.08V1.25c0-0.59,0.48-1.08,1.08-1.08h3.87c0.6,0,1.08,0.49,1.08,1.08v3.87c0,0.59-0.49,1.08-1.08,1.08
			h-3.87c-0.6,0-1.08,0.49-1.08,1.08v2.48C74,10.34,73.51,10.83,72.92,10.83z M55.61,10.83h-2.48c-0.6,0-1.08-0.49-1.08-1.08V7.27
			c0-0.6,0.49-1.08,1.08-1.08h2.48c0.59,0,1.08-0.49,1.08-1.08V1.25c0-0.59,0.48-1.08,1.08-1.08h3.87c0.6,0,1.08,0.49,1.08,1.08
			v3.87c0,0.59-0.49,1.08-1.08,1.08h-3.87c-0.6,0-1.08,0.49-1.08,1.08v2.48C56.69,10.34,56.21,10.83,55.61,10.83z M38.31,10.83
			h-2.48c-0.6,0-1.08-0.49-1.08-1.08V7.27c0-0.6,0.49-1.08,1.08-1.08h2.48c0.59,0,1.08-0.49,1.08-1.08V1.25
			c0-0.59,0.48-1.08,1.08-1.08h3.87c0.6,0,1.08,0.49,1.08,1.08v3.87c0,0.59-0.49,1.08-1.08,1.08h-3.87c-0.6,0-1.08,0.49-1.08,1.08
			v2.48C39.39,10.34,38.91,10.83,38.31,10.83z M21.01,10.83h-2.48c-0.6,0-1.08-0.49-1.08-1.08V7.27c0-0.6,0.49-1.08,1.08-1.08h2.48
			c0.59,0,1.08-0.49,1.08-1.08V1.25c0-0.59,0.48-1.08,1.08-1.08h3.87c0.6,0,1.08,0.49,1.08,1.08v3.87c0,0.59-0.49,1.08-1.08,1.08
			h-3.87c-0.6,0-1.08,0.49-1.08,1.08v2.48C22.09,10.34,21.6,10.83,21.01,10.83z M3.71,10.83H1.23c-0.6,0-1.08-0.49-1.08-1.08V7.27
			c0-0.6,0.49-1.08,1.08-1.08h2.48c0.59,0,1.08-0.49,1.08-1.08V1.25c0-0.59,0.48-1.08,1.08-1.08h3.87c0.6,0,1.08,0.49,1.08,1.08
			v3.87c0,0.59-0.49,1.08-1.08,1.08H5.87c-0.6,0-1.08,0.49-1.08,1.08v2.48C4.79,10.34,4.3,10.83,3.71,10.83z M142.13,28.62h-2.48
			c-0.6,0-1.08-0.49-1.08-1.08v-2.48c0-0.6,0.49-1.08,1.08-1.08h2.48c0.59,0,1.08-0.49,1.08-1.08v-3.87c0-0.59,0.48-1.08,1.08-1.08
			h3.87c0.6,0,1.08,0.49,1.08,1.08v3.87c0,0.59-0.49,1.08-1.08,1.08h-3.87c-0.6,0-1.08,0.49-1.08,1.08v2.48
			C143.21,28.14,142.72,28.62,142.13,28.62z M124.82,28.62h-2.48c-0.6,0-1.08-0.49-1.08-1.08v-2.48c0-0.6,0.49-1.08,1.08-1.08h2.48
			c0.59,0,1.08-0.49,1.08-1.08v-3.87c0-0.59,0.48-1.08,1.08-1.08h3.87c0.6,0,1.08,0.49,1.08,1.08v3.87c0,0.59-0.49,1.08-1.08,1.08
			h-3.87c-0.6,0-1.08,0.49-1.08,1.08v2.48C125.9,28.14,125.42,28.62,124.82,28.62z M107.52,28.62h-2.48c-0.6,0-1.08-0.49-1.08-1.08
			v-2.48c0-0.6,0.49-1.08,1.08-1.08h2.48c0.59,0,1.08-0.49,1.08-1.08v-3.87c0-0.59,0.48-1.08,1.08-1.08h3.87
			c0.6,0,1.08,0.49,1.08,1.08v3.87c0,0.59-0.49,1.08-1.08,1.08h-3.87c-0.6,0-1.08,0.49-1.08,1.08v2.48
			C108.6,28.14,108.12,28.62,107.52,28.62z M90.22,28.62h-2.48c-0.6,0-1.08-0.49-1.08-1.08v-2.48c0-0.6,0.49-1.08,1.08-1.08h2.48
			c0.59,0,1.08-0.49,1.08-1.08v-3.87c0-0.59,0.48-1.08,1.08-1.08h3.87c0.6,0,1.08,0.49,1.08,1.08v3.87c0,0.59-0.49,1.08-1.08,1.08
			h-3.87c-0.6,0-1.08,0.49-1.08,1.08v2.48C91.3,28.14,90.81,28.62,90.22,28.62z M72.92,28.62h-2.48c-0.6,0-1.08-0.49-1.08-1.08
			v-2.48c0-0.6,0.49-1.08,1.08-1.08h2.48c0.59,0,1.08-0.49,1.08-1.08v-3.87c0-0.59,0.48-1.08,1.08-1.08h3.87
			c0.6,0,1.08,0.49,1.08,1.08v3.87c0,0.59-0.49,1.08-1.08,1.08h-3.87c-0.6,0-1.08,0.49-1.08,1.08v2.48
			C74,28.14,73.51,28.62,72.92,28.62z M55.61,28.62h-2.48c-0.6,0-1.08-0.49-1.08-1.08v-2.48c0-0.6,0.49-1.08,1.08-1.08h2.48
			c0.59,0,1.08-0.49,1.08-1.08v-3.87c0-0.59,0.48-1.08,1.08-1.08h3.87c0.6,0,1.08,0.49,1.08,1.08v3.87c0,0.59-0.49,1.08-1.08,1.08
			h-3.87c-0.6,0-1.08,0.49-1.08,1.08v2.48C56.69,28.14,56.21,28.62,55.61,28.62z M38.31,28.62h-2.48c-0.6,0-1.08-0.49-1.08-1.08
			v-2.48c0-0.6,0.49-1.08,1.08-1.08h2.48c0.59,0,1.08-0.49,1.08-1.08v-3.87c0-0.59,0.48-1.08,1.08-1.08h3.87
			c0.6,0,1.08,0.49,1.08,1.08v3.87c0,0.59-0.49,1.08-1.08,1.08h-3.87c-0.6,0-1.08,0.49-1.08,1.08v2.48
			C39.39,28.14,38.91,28.62,38.31,28.62z M21.01,28.62h-2.48c-0.6,0-1.08-0.49-1.08-1.08v-2.48c0-0.6,0.49-1.08,1.08-1.08h2.48
			c0.59,0,1.08-0.49,1.08-1.08v-3.87c0-0.59,0.48-1.08,1.08-1.08h3.87c0.6,0,1.08,0.49,1.08,1.08v3.87c0,0.59-0.49,1.08-1.08,1.08
			h-3.87c-0.6,0-1.08,0.49-1.08,1.08v2.48C22.09,28.14,21.6,28.62,21.01,28.62z M3.71,28.62H1.23c-0.6,0-1.08-0.49-1.08-1.08v-2.48
			c0-0.6,0.49-1.08,1.08-1.08h2.48c0.59,0,1.08-0.49,1.08-1.08v-3.87c0-0.59,0.48-1.08,1.08-1.08h3.87c0.6,0,1.08,0.49,1.08,1.08
			v3.87c0,0.59-0.49,1.08-1.08,1.08H5.87c-0.6,0-1.08,0.49-1.08,1.08v2.48C4.79,28.14,4.3,28.62,3.71,28.62z M142.13,46.41h-2.48
			c-0.6,0-1.08-0.49-1.08-1.08v-2.48c0-0.6,0.49-1.08,1.08-1.08h2.48c0.59,0,1.08-0.49,1.08-1.08v-3.87c0-0.59,0.48-1.08,1.08-1.08
			h3.87c0.6,0,1.08,0.49,1.08,1.08v3.87c0,0.59-0.49,1.08-1.08,1.08h-3.87c-0.6,0-1.08,0.49-1.08,1.08v2.48
			C143.21,45.93,142.72,46.41,142.13,46.41z M124.82,46.41h-2.48c-0.6,0-1.08-0.49-1.08-1.08v-2.48c0-0.6,0.49-1.08,1.08-1.08h2.48
			c0.59,0,1.08-0.49,1.08-1.08v-3.87c0-0.59,0.48-1.08,1.08-1.08h3.87c0.6,0,1.08,0.49,1.08,1.08v3.87c0,0.59-0.49,1.08-1.08,1.08
			h-3.87c-0.6,0-1.08,0.49-1.08,1.08v2.48C125.9,45.93,125.42,46.41,124.82,46.41z M107.52,46.41h-2.48c-0.6,0-1.08-0.49-1.08-1.08
			v-2.48c0-0.6,0.49-1.08,1.08-1.08h2.48c0.59,0,1.08-0.49,1.08-1.08v-3.87c0-0.59,0.48-1.08,1.08-1.08h3.87
			c0.6,0,1.08,0.49,1.08,1.08v3.87c0,0.59-0.49,1.08-1.08,1.08h-3.87c-0.6,0-1.08,0.49-1.08,1.08v2.48
			C108.6,45.93,108.12,46.41,107.52,46.41z M90.22,46.41h-2.48c-0.6,0-1.08-0.49-1.08-1.08v-2.48c0-0.6,0.49-1.08,1.08-1.08h2.48
			c0.59,0,1.08-0.49,1.08-1.08v-3.87c0-0.59,0.48-1.08,1.08-1.08h3.87c0.6,0,1.08,0.49,1.08,1.08v3.87c0,0.59-0.49,1.08-1.08,1.08
			h-3.87c-0.6,0-1.08,0.49-1.08,1.08v2.48C91.3,45.93,90.81,46.41,90.22,46.41z M72.92,46.41h-2.48c-0.6,0-1.08-0.49-1.08-1.08
			v-2.48c0-0.6,0.49-1.08,1.08-1.08h2.48c0.59,0,1.08-0.49,1.08-1.08v-3.87c0-0.59,0.48-1.08,1.08-1.08h3.87
			c0.6,0,1.08,0.49,1.08,1.08v3.87c0,0.59-0.49,1.08-1.08,1.08h-3.87c-0.6,0-1.08,0.49-1.08,1.08v2.48
			C74,45.93,73.51,46.41,72.92,46.41z M55.61,46.41h-2.48c-0.6,0-1.08-0.49-1.08-1.08v-2.48c0-0.6,0.49-1.08,1.08-1.08h2.48
			c0.59,0,1.08-0.49,1.08-1.08v-3.87c0-0.59,0.48-1.08,1.08-1.08h3.87c0.6,0,1.08,0.49,1.08,1.08v3.87c0,0.59-0.49,1.08-1.08,1.08
			h-3.87c-0.6,0-1.08,0.49-1.08,1.08v2.48C56.69,45.93,56.21,46.41,55.61,46.41z M38.31,46.41h-2.48c-0.6,0-1.08-0.49-1.08-1.08
			v-2.48c0-0.6,0.49-1.08,1.08-1.08h2.48c0.59,0,1.08-0.49,1.08-1.08v-3.87c0-0.59,0.48-1.08,1.08-1.08h3.87
			c0.6,0,1.08,0.49,1.08,1.08v3.87c0,0.59-0.49,1.08-1.08,1.08h-3.87c-0.6,0-1.08,0.49-1.08,1.08v2.48
			C39.39,45.93,38.91,46.41,38.31,46.41z M21.01,46.41h-2.48c-0.6,0-1.08-0.49-1.08-1.08v-2.48c0-0.6,0.49-1.08,1.08-1.08h2.48
			c0.59,0,1.08-0.49,1.08-1.08v-3.87c0-0.59,0.48-1.08,1.08-1.08h3.87c0.6,0,1.08,0.49,1.08,1.08v3.87c0,0.59-0.49,1.08-1.08,1.08
			h-3.87c-0.6,0-1.08,0.49-1.08,1.08v2.48C22.09,45.93,21.6,46.41,21.01,46.41z M3.71,46.41H1.23c-0.6,0-1.08-0.49-1.08-1.08v-2.48
			c0-0.6,0.49-1.08,1.08-1.08h2.48c0.59,0,1.08-0.49,1.08-1.08v-3.87c0-0.59,0.48-1.08,1.08-1.08h3.87c0.6,0,1.08,0.49,1.08,1.08
			v3.87c0,0.59-0.49,1.08-1.08,1.08H5.87c-0.6,0-1.08,0.49-1.08,1.08v2.48C4.79,45.93,4.3,46.41,3.71,46.41z M142.13,64.2h-2.48
			c-0.6,0-1.08-0.49-1.08-1.08v-2.48c0-0.6,0.49-1.08,1.08-1.08h2.48c0.59,0,1.08-0.49,1.08-1.08v-3.87c0-0.59,0.48-1.08,1.08-1.08
			h3.87c0.6,0,1.08,0.49,1.08,1.08v3.87c0,0.59-0.49,1.08-1.08,1.08h-3.87c-0.6,0-1.08,0.49-1.08,1.08v2.48
			C143.21,63.72,142.72,64.2,142.13,64.2z M124.82,64.2h-2.48c-0.6,0-1.08-0.49-1.08-1.08v-2.48c0-0.6,0.49-1.08,1.08-1.08h2.48
			c0.59,0,1.08-0.49,1.08-1.08v-3.87c0-0.59,0.48-1.08,1.08-1.08h3.87c0.6,0,1.08,0.49,1.08,1.08v3.87c0,0.59-0.49,1.08-1.08,1.08
			h-3.87c-0.6,0-1.08,0.49-1.08,1.08v2.48C125.9,63.72,125.42,64.2,124.82,64.2z M107.52,64.2h-2.48c-0.6,0-1.08-0.49-1.08-1.08
			v-2.48c0-0.6,0.49-1.08,1.08-1.08h2.48c0.59,0,1.08-0.49,1.08-1.08v-3.87c0-0.59,0.48-1.08,1.08-1.08h3.87
			c0.6,0,1.08,0.49,1.08,1.08v3.87c0,0.59-0.49,1.08-1.08,1.08h-3.87c-0.6,0-1.08,0.49-1.08,1.08v2.48
			C108.6,63.72,108.12,64.2,107.52,64.2z M90.22,64.2h-2.48c-0.6,0-1.08-0.49-1.08-1.08v-2.48c0-0.6,0.49-1.08,1.08-1.08h2.48
			c0.59,0,1.08-0.49,1.08-1.08v-3.87c0-0.59,0.48-1.08,1.08-1.08h3.87c0.6,0,1.08,0.49,1.08,1.08v3.87c0,0.59-0.49,1.08-1.08,1.08
			h-3.87c-0.6,0-1.08,0.49-1.08,1.08v2.48C91.3,63.72,90.81,64.2,90.22,64.2z M72.92,64.2h-2.48c-0.6,0-1.08-0.49-1.08-1.08v-2.48
			c0-0.6,0.49-1.08,1.08-1.08h2.48c0.59,0,1.08-0.49,1.08-1.08v-3.87c0-0.59,0.48-1.08,1.08-1.08h3.87c0.6,0,1.08,0.49,1.08,1.08
			v3.87c0,0.59-0.49,1.08-1.08,1.08h-3.87c-0.6,0-1.08,0.49-1.08,1.08v2.48C74,63.72,73.51,64.2,72.92,64.2z M55.61,64.2h-2.48
			c-0.6,0-1.08-0.49-1.08-1.08v-2.48c0-0.6,0.49-1.08,1.08-1.08h2.48c0.59,0,1.08-0.49,1.08-1.08v-3.87c0-0.59,0.48-1.08,1.08-1.08
			h3.87c0.6,0,1.08,0.49,1.08,1.08v3.87c0,0.59-0.49,1.08-1.08,1.08h-3.87c-0.6,0-1.08,0.49-1.08,1.08v2.48
			C56.69,63.72,56.21,64.2,55.61,64.2z M38.31,64.2h-2.48c-0.6,0-1.08-0.49-1.08-1.08v-2.48c0-0.6,0.49-1.08,1.08-1.08h2.48
			c0.59,0,1.08-0.49,1.08-1.08v-3.87c0-0.59,0.48-1.08,1.08-1.08h3.87c0.6,0,1.08,0.49,1.08,1.08v3.87c0,0.59-0.49,1.08-1.08,1.08
			h-3.87c-0.6,0-1.08,0.49-1.08,1.08v2.48C39.39,63.72,38.91,64.2,38.31,64.2z M21.01,64.2h-2.48c-0.6,0-1.08-0.49-1.08-1.08v-2.48
			c0-0.6,0.49-1.08,1.08-1.08h2.48c0.59,0,1.08-0.49,1.08-1.08v-3.87c0-0.59,0.48-1.08,1.08-1.08h3.87c0.6,0,1.08,0.49,1.08,1.08
			v3.87c0,0.59-0.49,1.08-1.08,1.08h-3.87c-0.6,0-1.08,0.49-1.08,1.08v2.48C22.09,63.72,21.6,64.2,21.01,64.2z M3.71,64.2H1.23
			c-0.6,0-1.08-0.49-1.08-1.08v-2.48c0-0.6,0.49-1.08,1.08-1.08h2.48c0.59,0,1.08-0.49,1.08-1.08v-3.87c0-0.59,0.48-1.08,1.08-1.08
			h3.87c0.6,0,1.08,0.49,1.08,1.08v3.87c0,0.59-0.49,1.08-1.08,1.08H5.87c-0.6,0-1.08,0.49-1.08,1.08v2.48
			C4.79,63.72,4.3,64.2,3.71,64.2z M142.13,81.99h-2.48c-0.6,0-1.08-0.49-1.08-1.08v-2.48c0-0.6,0.49-1.08,1.08-1.08h2.48
			c0.59,0,1.08-0.49,1.08-1.08v-3.87c0-0.59,0.48-1.08,1.08-1.08h3.87c0.6,0,1.08,0.49,1.08,1.08v3.87c0,0.59-0.49,1.08-1.08,1.08
			h-3.87c-0.6,0-1.08,0.49-1.08,1.08v2.48C143.21,81.51,142.72,81.99,142.13,81.99z M124.82,81.99h-2.48c-0.6,0-1.08-0.49-1.08-1.08
			v-2.48c0-0.6,0.49-1.08,1.08-1.08h2.48c0.59,0,1.08-0.49,1.08-1.08v-3.87c0-0.59,0.48-1.08,1.08-1.08h3.87
			c0.6,0,1.08,0.49,1.08,1.08v3.87c0,0.59-0.49,1.08-1.08,1.08h-3.87c-0.6,0-1.08,0.49-1.08,1.08v2.48
			C125.9,81.51,125.42,81.99,124.82,81.99z M107.52,81.99h-2.48c-0.6,0-1.08-0.49-1.08-1.08v-2.48c0-0.6,0.49-1.08,1.08-1.08h2.48
			c0.59,0,1.08-0.49,1.08-1.08v-3.87c0-0.59,0.48-1.08,1.08-1.08h3.87c0.6,0,1.08,0.49,1.08,1.08v3.87c0,0.59-0.49,1.08-1.08,1.08
			h-3.87c-0.6,0-1.08,0.49-1.08,1.08v2.48C108.6,81.51,108.12,81.99,107.52,81.99z M90.22,81.99h-2.48c-0.6,0-1.08-0.49-1.08-1.08
			v-2.48c0-0.6,0.49-1.08,1.08-1.08h2.48c0.59,0,1.08-0.49,1.08-1.08v-3.87c0-0.59,0.48-1.08,1.08-1.08h3.87
			c0.6,0,1.08,0.49,1.08,1.08v3.87c0,0.59-0.49,1.08-1.08,1.08h-3.87c-0.6,0-1.08,0.49-1.08,1.08v2.48
			C91.3,81.51,90.81,81.99,90.22,81.99z M72.92,81.99h-2.48c-0.6,0-1.08-0.49-1.08-1.08v-2.48c0-0.6,0.49-1.08,1.08-1.08h2.48
			c0.59,0,1.08-0.49,1.08-1.08v-3.87c0-0.59,0.48-1.08,1.08-1.08h3.87c0.6,0,1.08,0.49,1.08,1.08v3.87c0,0.59-0.49,1.08-1.08,1.08
			h-3.87c-0.6,0-1.08,0.49-1.08,1.08v2.48C74,81.51,73.51,81.99,72.92,81.99z M55.61,81.99h-2.48c-0.6,0-1.08-0.49-1.08-1.08v-2.48
			c0-0.6,0.49-1.08,1.08-1.08h2.48c0.59,0,1.08-0.49,1.08-1.08v-3.87c0-0.59,0.48-1.08,1.08-1.08h3.87c0.6,0,1.08,0.49,1.08,1.08
			v3.87c0,0.59-0.49,1.08-1.08,1.08h-3.87c-0.6,0-1.08,0.49-1.08,1.08v2.48C56.69,81.51,56.21,81.99,55.61,81.99z M38.31,81.99
			h-2.48c-0.6,0-1.08-0.49-1.08-1.08v-2.48c0-0.6,0.49-1.08,1.08-1.08h2.48c0.59,0,1.08-0.49,1.08-1.08v-3.87
			c0-0.59,0.48-1.08,1.08-1.08h3.87c0.6,0,1.08,0.49,1.08,1.08v3.87c0,0.59-0.49,1.08-1.08,1.08h-3.87c-0.6,0-1.08,0.49-1.08,1.08
			v2.48C39.39,81.51,38.91,81.99,38.31,81.99z M21.01,81.99h-2.48c-0.6,0-1.08-0.49-1.08-1.08v-2.48c0-0.6,0.49-1.08,1.08-1.08h2.48
			c0.59,0,1.08-0.49,1.08-1.08v-3.87c0-0.59,0.48-1.08,1.08-1.08h3.87c0.6,0,1.08,0.49,1.08,1.08v3.87c0,0.59-0.49,1.08-1.08,1.08
			h-3.87c-0.6,0-1.08,0.49-1.08,1.08v2.48C22.09,81.51,21.6,81.99,21.01,81.99z M3.71,81.99H1.23c-0.6,0-1.08-0.49-1.08-1.08v-2.48
			c0-0.6,0.49-1.08,1.08-1.08h2.48c0.59,0,1.08-0.49,1.08-1.08v-3.87c0-0.59,0.48-1.08,1.08-1.08h3.87c0.6,0,1.08,0.49,1.08,1.08
			v3.87c0,0.59-0.49,1.08-1.08,1.08H5.87c-0.6,0-1.08,0.49-1.08,1.08v2.48C4.79,81.51,4.3,81.99,3.71,81.99z M142.13,99.78h-2.48
			c-0.6,0-1.08-0.49-1.08-1.08v-2.48c0-0.6,0.49-1.08,1.08-1.08h2.48c0.59,0,1.08-0.49,1.08-1.08V90.2c0-0.59,0.48-1.08,1.08-1.08
			h3.87c0.6,0,1.08,0.49,1.08,1.08v3.87c0,0.59-0.49,1.08-1.08,1.08h-3.87c-0.6,0-1.08,0.49-1.08,1.08v2.48
			C143.21,99.3,142.72,99.78,142.13,99.78z M124.82,99.78h-2.48c-0.6,0-1.08-0.49-1.08-1.08v-2.48c0-0.6,0.49-1.08,1.08-1.08h2.48
			c0.59,0,1.08-0.49,1.08-1.08V90.2c0-0.59,0.48-1.08,1.08-1.08h3.87c0.6,0,1.08,0.49,1.08,1.08v3.87c0,0.59-0.49,1.08-1.08,1.08
			h-3.87c-0.6,0-1.08,0.49-1.08,1.08v2.48C125.9,99.3,125.42,99.78,124.82,99.78z M107.52,99.78h-2.48c-0.6,0-1.08-0.49-1.08-1.08
			v-2.48c0-0.6,0.49-1.08,1.08-1.08h2.48c0.59,0,1.08-0.49,1.08-1.08V90.2c0-0.59,0.48-1.08,1.08-1.08h3.87
			c0.6,0,1.08,0.49,1.08,1.08v3.87c0,0.59-0.49,1.08-1.08,1.08h-3.87c-0.6,0-1.08,0.49-1.08,1.08v2.48
			C108.6,99.3,108.12,99.78,107.52,99.78z M90.22,99.78h-2.48c-0.6,0-1.08-0.49-1.08-1.08v-2.48c0-0.6,0.49-1.08,1.08-1.08h2.48
			c0.59,0,1.08-0.49,1.08-1.08V90.2c0-0.59,0.48-1.08,1.08-1.08h3.87c0.6,0,1.08,0.49,1.08,1.08v3.87c0,0.59-0.49,1.08-1.08,1.08
			h-3.87c-0.6,0-1.08,0.49-1.08,1.08v2.48C91.3,99.3,90.81,99.78,90.22,99.78z M72.92,99.78h-2.48c-0.6,0-1.08-0.49-1.08-1.08v-2.48
			c0-0.6,0.49-1.08,1.08-1.08h2.48c0.59,0,1.08-0.49,1.08-1.08V90.2c0-0.59,0.48-1.08,1.08-1.08h3.87c0.6,0,1.08,0.49,1.08,1.08
			v3.87c0,0.59-0.49,1.08-1.08,1.08h-3.87c-0.6,0-1.08,0.49-1.08,1.08v2.48C74,99.3,73.51,99.78,72.92,99.78z M55.61,99.78h-2.48
			c-0.6,0-1.08-0.49-1.08-1.08v-2.48c0-0.6,0.49-1.08,1.08-1.08h2.48c0.59,0,1.08-0.49,1.08-1.08V90.2c0-0.59,0.48-1.08,1.08-1.08
			h3.87c0.6,0,1.08,0.49,1.08,1.08v3.87c0,0.59-0.49,1.08-1.08,1.08h-3.87c-0.6,0-1.08,0.49-1.08,1.08v2.48
			C56.69,99.3,56.21,99.78,55.61,99.78z M38.31,99.78h-2.48c-0.6,0-1.08-0.49-1.08-1.08v-2.48c0-0.6,0.49-1.08,1.08-1.08h2.48
			c0.59,0,1.08-0.49,1.08-1.08V90.2c0-0.59,0.48-1.08,1.08-1.08h3.87c0.6,0,1.08,0.49,1.08,1.08v3.87c0,0.59-0.49,1.08-1.08,1.08
			h-3.87c-0.6,0-1.08,0.49-1.08,1.08v2.48C39.39,99.3,38.91,99.78,38.31,99.78z M21.01,99.78h-2.48c-0.6,0-1.08-0.49-1.08-1.08
			v-2.48c0-0.6,0.49-1.08,1.08-1.08h2.48c0.59,0,1.08-0.49,1.08-1.08V90.2c0-0.59,0.48-1.08,1.08-1.08h3.87
			c0.6,0,1.08,0.49,1.08,1.08v3.87c0,0.59-0.49,1.08-1.08,1.08h-3.87c-0.6,0-1.08,0.49-1.08,1.08v2.48
			C22.09,99.3,21.6,99.78,21.01,99.78z M3.71,99.78H1.23c-0.6,0-1.08-0.49-1.08-1.08v-2.48c0-0.6,0.49-1.08,1.08-1.08h2.48
			c0.59,0,1.08-0.49,1.08-1.08V90.2c0-0.59,0.48-1.08,1.08-1.08h3.87c0.6,0,1.08,0.49,1.08,1.08v3.87c0,0.59-0.49,1.08-1.08,1.08
			H5.87c-0.6,0-1.08,0.49-1.08,1.08v2.48C4.79,99.3,4.3,99.78,3.71,99.78z M142.13,117.57h-2.48c-0.6,0-1.08-0.49-1.08-1.08v-2.48
			c0-0.6,0.49-1.08,1.08-1.08h2.48c0.59,0,1.08-0.49,1.08-1.08v-3.87c0-0.59,0.48-1.08,1.08-1.08h3.87c0.6,0,1.08,0.49,1.08,1.08
			v3.87c0,0.59-0.49,1.08-1.08,1.08h-3.87c-0.6,0-1.08,0.49-1.08,1.08v2.48C143.21,117.09,142.72,117.57,142.13,117.57z
			 M124.82,117.57h-2.48c-0.6,0-1.08-0.49-1.08-1.08v-2.48c0-0.6,0.49-1.08,1.08-1.08h2.48c0.59,0,1.08-0.49,1.08-1.08v-3.87
			c0-0.59,0.48-1.08,1.08-1.08h3.87c0.6,0,1.08,0.49,1.08,1.08v3.87c0,0.59-0.49,1.08-1.08,1.08h-3.87c-0.6,0-1.08,0.49-1.08,1.08
			v2.48C125.9,117.09,125.42,117.57,124.82,117.57z M107.52,117.57h-2.48c-0.6,0-1.08-0.49-1.08-1.08v-2.48
			c0-0.6,0.49-1.08,1.08-1.08h2.48c0.59,0,1.08-0.49,1.08-1.08v-3.87c0-0.59,0.48-1.08,1.08-1.08h3.87c0.6,0,1.08,0.49,1.08,1.08
			v3.87c0,0.59-0.49,1.08-1.08,1.08h-3.87c-0.6,0-1.08,0.49-1.08,1.08v2.48C108.6,117.09,108.12,117.57,107.52,117.57z
			 M90.22,117.57h-2.48c-0.6,0-1.08-0.49-1.08-1.08v-2.48c0-0.6,0.49-1.08,1.08-1.08h2.48c0.59,0,1.08-0.49,1.08-1.08v-3.87
			c0-0.59,0.48-1.08,1.08-1.08h3.87c0.6,0,1.08,0.49,1.08,1.08v3.87c0,0.59-0.49,1.08-1.08,1.08h-3.87c-0.6,0-1.08,0.49-1.08,1.08
			v2.48C91.3,117.09,90.81,117.57,90.22,117.57z M72.92,117.57h-2.48c-0.6,0-1.08-0.49-1.08-1.08v-2.48c0-0.6,0.49-1.08,1.08-1.08
			h2.48c0.59,0,1.08-0.49,1.08-1.08v-3.87c0-0.59,0.48-1.08,1.08-1.08h3.87c0.6,0,1.08,0.49,1.08,1.08v3.87
			c0,0.59-0.49,1.08-1.08,1.08h-3.87c-0.6,0-1.08,0.49-1.08,1.08v2.48C74,117.09,73.51,117.57,72.92,117.57z M55.61,117.57h-2.48
			c-0.6,0-1.08-0.49-1.08-1.08v-2.48c0-0.6,0.49-1.08,1.08-1.08h2.48c0.59,0,1.08-0.49,1.08-1.08v-3.87c0-0.59,0.48-1.08,1.08-1.08
			h3.87c0.6,0,1.08,0.49,1.08,1.08v3.87c0,0.59-0.49,1.08-1.08,1.08h-3.87c-0.6,0-1.08,0.49-1.08,1.08v2.48
			C56.69,117.09,56.21,117.57,55.61,117.57z M38.31,117.57h-2.48c-0.6,0-1.08-0.49-1.08-1.08v-2.48c0-0.6,0.49-1.08,1.08-1.08h2.48
			c0.59,0,1.08-0.49,1.08-1.08v-3.87c0-0.59,0.48-1.08,1.08-1.08h3.87c0.6,0,1.08,0.49,1.08,1.08v3.87c0,0.59-0.49,1.08-1.08,1.08
			h-3.87c-0.6,0-1.08,0.49-1.08,1.08v2.48C39.39,117.09,38.91,117.57,38.31,117.57z M21.01,117.57h-2.48c-0.6,0-1.08-0.49-1.08-1.08
			v-2.48c0-0.6,0.49-1.08,1.08-1.08h2.48c0.59,0,1.08-0.49,1.08-1.08v-3.87c0-0.59,0.48-1.08,1.08-1.08h3.87
			c0.6,0,1.08,0.49,1.08,1.08v3.87c0,0.59-0.49,1.08-1.08,1.08h-3.87c-0.6,0-1.08,0.49-1.08,1.08v2.48
			C22.09,117.09,21.6,117.57,21.01,117.57z M3.71,117.57H1.23c-0.6,0-1.08-0.49-1.08-1.08v-2.48c0-0.6,0.49-1.08,1.08-1.08h2.48
			c0.59,0,1.08-0.49,1.08-1.08v-3.87c0-0.59,0.48-1.08,1.08-1.08h3.87c0.6,0,1.08,0.49,1.08,1.08v3.87c0,0.59-0.49,1.08-1.08,1.08
			H5.87c-0.6,0-1.08,0.49-1.08,1.08v2.48C4.79,117.09,4.3,117.57,3.71,117.57z M142.13,135.36h-2.48c-0.6,0-1.08-0.49-1.08-1.08
			v-2.48c0-0.6,0.49-1.08,1.08-1.08h2.48c0.59,0,1.08-0.49,1.08-1.08v-3.87c0-0.59,0.48-1.08,1.08-1.08h3.87
			c0.6,0,1.08,0.49,1.08,1.08v3.87c0,0.59-0.49,1.08-1.08,1.08h-3.87c-0.6,0-1.08,0.49-1.08,1.08v2.48
			C143.21,134.88,142.72,135.36,142.13,135.36z M124.82,135.36h-2.48c-0.6,0-1.08-0.49-1.08-1.08v-2.48c0-0.6,0.49-1.08,1.08-1.08
			h2.48c0.59,0,1.08-0.49,1.08-1.08v-3.87c0-0.59,0.48-1.08,1.08-1.08h3.87c0.6,0,1.08,0.49,1.08,1.08v3.87
			c0,0.59-0.49,1.08-1.08,1.08h-3.87c-0.6,0-1.08,0.49-1.08,1.08v2.48C125.9,134.88,125.42,135.36,124.82,135.36z M107.52,135.36
			h-2.48c-0.6,0-1.08-0.49-1.08-1.08v-2.48c0-0.6,0.49-1.08,1.08-1.08h2.48c0.59,0,1.08-0.49,1.08-1.08v-3.87
			c0-0.59,0.48-1.08,1.08-1.08h3.87c0.6,0,1.08,0.49,1.08,1.08v3.87c0,0.59-0.49,1.08-1.08,1.08h-3.87c-0.6,0-1.08,0.49-1.08,1.08
			v2.48C108.6,134.88,108.12,135.36,107.52,135.36z M90.22,135.36h-2.48c-0.6,0-1.08-0.49-1.08-1.08v-2.48
			c0-0.6,0.49-1.08,1.08-1.08h2.48c0.59,0,1.08-0.49,1.08-1.08v-3.87c0-0.59,0.48-1.08,1.08-1.08h3.87c0.6,0,1.08,0.49,1.08,1.08
			v3.87c0,0.59-0.49,1.08-1.08,1.08h-3.87c-0.6,0-1.08,0.49-1.08,1.08v2.48C91.3,134.88,90.81,135.36,90.22,135.36z M72.92,135.36
			h-2.48c-0.6,0-1.08-0.49-1.08-1.08v-2.48c0-0.6,0.49-1.08,1.08-1.08h2.48c0.59,0,1.08-0.49,1.08-1.08v-3.87
			c0-0.59,0.48-1.08,1.08-1.08h3.87c0.6,0,1.08,0.49,1.08,1.08v3.87c0,0.59-0.49,1.08-1.08,1.08h-3.87c-0.6,0-1.08,0.49-1.08,1.08
			v2.48C74,134.88,73.51,135.36,72.92,135.36z M55.61,135.36h-2.48c-0.6,0-1.08-0.49-1.08-1.08v-2.48c0-0.6,0.49-1.08,1.08-1.08
			h2.48c0.59,0,1.08-0.49,1.08-1.08v-3.87c0-0.59,0.48-1.08,1.08-1.08h3.87c0.6,0,1.08,0.49,1.08,1.08v3.87
			c0,0.59-0.49,1.08-1.08,1.08h-3.87c-0.6,0-1.08,0.49-1.08,1.08v2.48C56.69,134.88,56.21,135.36,55.61,135.36z M38.31,135.36h-2.48
			c-0.6,0-1.08-0.49-1.08-1.08v-2.48c0-0.6,0.49-1.08,1.08-1.08h2.48c0.59,0,1.08-0.49,1.08-1.08v-3.87c0-0.59,0.48-1.08,1.08-1.08
			h3.87c0.6,0,1.08,0.49,1.08,1.08v3.87c0,0.59-0.49,1.08-1.08,1.08h-3.87c-0.6,0-1.08,0.49-1.08,1.08v2.48
			C39.39,134.88,38.91,135.36,38.31,135.36z M21.01,135.36h-2.48c-0.6,0-1.08-0.49-1.08-1.08v-2.48c0-0.6,0.49-1.08,1.08-1.08h2.48
			c0.59,0,1.08-0.49,1.08-1.08v-3.87c0-0.59,0.48-1.08,1.08-1.08h3.87c0.6,0,1.08,0.49,1.08,1.08v3.87c0,0.59-0.49,1.08-1.08,1.08
			h-3.87c-0.6,0-1.08,0.49-1.08,1.08v2.48C22.09,134.88,21.6,135.36,21.01,135.36z M3.71,135.36H1.23c-0.6,0-1.08-0.49-1.08-1.08
			v-2.48c0-0.6,0.49-1.08,1.08-1.08h2.48c0.59,0,1.08-0.49,1.08-1.08v-3.87c0-0.59,0.48-1.08,1.08-1.08h3.87
			c0.6,0,1.08,0.49,1.08,1.08v3.87c0,0.59-0.49,1.08-1.08,1.08H5.87c-0.6,0-1.08,0.49-1.08,1.08v2.48
			C4.79,134.88,4.3,135.36,3.71,135.36z M142.13,153.16h-2.48c-0.6,0-1.08-0.49-1.08-1.08v-2.48c0-0.6,0.49-1.08,1.08-1.08h2.48
			c0.59,0,1.08-0.49,1.08-1.08v-3.87c0-0.59,0.48-1.08,1.08-1.08h3.87c0.6,0,1.08,0.49,1.08,1.08v3.87c0,0.59-0.49,1.08-1.08,1.08
			h-3.87c-0.6,0-1.08,0.49-1.08,1.08v2.48C143.21,152.67,142.72,153.16,142.13,153.16z M124.82,153.16h-2.48
			c-0.6,0-1.08-0.49-1.08-1.08v-2.48c0-0.6,0.49-1.08,1.08-1.08h2.48c0.59,0,1.08-0.49,1.08-1.08v-3.87c0-0.59,0.48-1.08,1.08-1.08
			h3.87c0.6,0,1.08,0.49,1.08,1.08v3.87c0,0.59-0.49,1.08-1.08,1.08h-3.87c-0.6,0-1.08,0.49-1.08,1.08v2.48
			C125.9,152.67,125.42,153.16,124.82,153.16z M107.52,153.16h-2.48c-0.6,0-1.08-0.49-1.08-1.08v-2.48c0-0.6,0.49-1.08,1.08-1.08
			h2.48c0.59,0,1.08-0.49,1.08-1.08v-3.87c0-0.59,0.48-1.08,1.08-1.08h3.87c0.6,0,1.08,0.49,1.08,1.08v3.87
			c0,0.59-0.49,1.08-1.08,1.08h-3.87c-0.6,0-1.08,0.49-1.08,1.08v2.48C108.6,152.67,108.12,153.16,107.52,153.16z M90.22,153.16
			h-2.48c-0.6,0-1.08-0.49-1.08-1.08v-2.48c0-0.6,0.49-1.08,1.08-1.08h2.48c0.59,0,1.08-0.49,1.08-1.08v-3.87
			c0-0.59,0.48-1.08,1.08-1.08h3.87c0.6,0,1.08,0.49,1.08,1.08v3.87c0,0.59-0.49,1.08-1.08,1.08h-3.87c-0.6,0-1.08,0.49-1.08,1.08
			v2.48C91.3,152.67,90.81,153.16,90.22,153.16z M72.92,153.16h-2.48c-0.6,0-1.08-0.49-1.08-1.08v-2.48c0-0.6,0.49-1.08,1.08-1.08
			h2.48c0.59,0,1.08-0.49,1.08-1.08v-3.87c0-0.59,0.48-1.08,1.08-1.08h3.87c0.6,0,1.08,0.49,1.08,1.08v3.87
			c0,0.59-0.49,1.08-1.08,1.08h-3.87c-0.6,0-1.08,0.49-1.08,1.08v2.48C74,152.67,73.51,153.16,72.92,153.16z M55.61,153.16h-2.48
			c-0.6,0-1.08-0.49-1.08-1.08v-2.48c0-0.6,0.49-1.08,1.08-1.08h2.48c0.59,0,1.08-0.49,1.08-1.08v-3.87c0-0.59,0.48-1.08,1.08-1.08
			h3.87c0.6,0,1.08,0.49,1.08,1.08v3.87c0,0.59-0.49,1.08-1.08,1.08h-3.87c-0.6,0-1.08,0.49-1.08,1.08v2.48
			C56.69,152.67,56.21,153.16,55.61,153.16z M38.31,153.16h-2.48c-0.6,0-1.08-0.49-1.08-1.08v-2.48c0-0.6,0.49-1.08,1.08-1.08h2.48
			c0.59,0,1.08-0.49,1.08-1.08v-3.87c0-0.59,0.48-1.08,1.08-1.08h3.87c0.6,0,1.08,0.49,1.08,1.08v3.87c0,0.59-0.49,1.08-1.08,1.08
			h-3.87c-0.6,0-1.08,0.49-1.08,1.08v2.48C39.39,152.67,38.91,153.16,38.31,153.16z M21.01,153.16h-2.48c-0.6,0-1.08-0.49-1.08-1.08
			v-2.48c0-0.6,0.49-1.08,1.08-1.08h2.48c0.59,0,1.08-0.49,1.08-1.08v-3.87c0-0.59,0.48-1.08,1.08-1.08h3.87
			c0.6,0,1.08,0.49,1.08,1.08v3.87c0,0.59-0.49,1.08-1.08,1.08h-3.87c-0.6,0-1.08,0.49-1.08,1.08v2.48
			C22.09,152.67,21.6,153.16,21.01,153.16z M3.71,153.16H1.23c-0.6,0-1.08-0.49-1.08-1.08v-2.48c0-0.6,0.49-1.08,1.08-1.08h2.48
			c0.59,0,1.08-0.49,1.08-1.08v-3.87c0-0.59,0.48-1.08,1.08-1.08h3.87c0.6,0,1.08,0.49,1.08,1.08v3.87c0,0.59-0.49,1.08-1.08,1.08
			H5.87c-0.6,0-1.08,0.49-1.08,1.08v2.48C4.79,152.67,4.3,153.16,3.71,153.16z M142.13,170.95h-2.48c-0.6,0-1.08-0.49-1.08-1.08
			v-2.48c0-0.6,0.49-1.08,1.08-1.08h2.48c0.59,0,1.08-0.49,1.08-1.08v-3.87c0-0.59,0.48-1.08,1.08-1.08h3.87
			c0.6,0,1.08,0.49,1.08,1.08v3.87c0,0.59-0.49,1.08-1.08,1.08h-3.87c-0.6,0-1.08,0.49-1.08,1.08v2.48
			C143.21,170.46,142.72,170.95,142.13,170.95z M124.82,170.95h-2.48c-0.6,0-1.08-0.49-1.08-1.08v-2.48c0-0.6,0.49-1.08,1.08-1.08
			h2.48c0.59,0,1.08-0.49,1.08-1.08v-3.87c0-0.59,0.48-1.08,1.08-1.08h3.87c0.6,0,1.08,0.49,1.08,1.08v3.87
			c0,0.59-0.49,1.08-1.08,1.08h-3.87c-0.6,0-1.08,0.49-1.08,1.08v2.48C125.9,170.46,125.42,170.95,124.82,170.95z M107.52,170.95
			h-2.48c-0.6,0-1.08-0.49-1.08-1.08v-2.48c0-0.6,0.49-1.08,1.08-1.08h2.48c0.59,0,1.08-0.49,1.08-1.08v-3.87
			c0-0.59,0.48-1.08,1.08-1.08h3.87c0.6,0,1.08,0.49,1.08,1.08v3.87c0,0.59-0.49,1.08-1.08,1.08h-3.87c-0.6,0-1.08,0.49-1.08,1.08
			v2.48C108.6,170.46,108.12,170.95,107.52,170.95z M90.22,170.95h-2.48c-0.6,0-1.08-0.49-1.08-1.08v-2.48
			c0-0.6,0.49-1.08,1.08-1.08h2.48c0.59,0,1.08-0.49,1.08-1.08v-3.87c0-0.59,0.48-1.08,1.08-1.08h3.87c0.6,0,1.08,0.49,1.08,1.08
			v3.87c0,0.59-0.49,1.08-1.08,1.08h-3.87c-0.6,0-1.08,0.49-1.08,1.08v2.48C91.3,170.46,90.81,170.95,90.22,170.95z M72.92,170.95
			h-2.48c-0.6,0-1.08-0.49-1.08-1.08v-2.48c0-0.6,0.49-1.08,1.08-1.08h2.48c0.59,0,1.08-0.49,1.08-1.08v-3.87
			c0-0.59,0.48-1.08,1.08-1.08h3.87c0.6,0,1.08,0.49,1.08,1.08v3.87c0,0.59-0.49,1.08-1.08,1.08h-3.87c-0.6,0-1.08,0.49-1.08,1.08
			v2.48C74,170.46,73.51,170.95,72.92,170.95z M55.61,170.95h-2.48c-0.6,0-1.08-0.49-1.08-1.08v-2.48c0-0.6,0.49-1.08,1.08-1.08
			h2.48c0.59,0,1.08-0.49,1.08-1.08v-3.87c0-0.59,0.48-1.08,1.08-1.08h3.87c0.6,0,1.08,0.49,1.08,1.08v3.87
			c0,0.59-0.49,1.08-1.08,1.08h-3.87c-0.6,0-1.08,0.49-1.08,1.08v2.48C56.69,170.46,56.21,170.95,55.61,170.95z M38.31,170.95h-2.48
			c-0.6,0-1.08-0.49-1.08-1.08v-2.48c0-0.6,0.49-1.08,1.08-1.08h2.48c0.59,0,1.08-0.49,1.08-1.08v-3.87c0-0.59,0.48-1.08,1.08-1.08
			h3.87c0.6,0,1.08,0.49,1.08,1.08v3.87c0,0.59-0.49,1.08-1.08,1.08h-3.87c-0.6,0-1.08,0.49-1.08,1.08v2.48
			C39.39,170.46,38.91,170.95,38.31,170.95z M21.01,170.95h-2.48c-0.6,0-1.08-0.49-1.08-1.08v-2.48c0-0.6,0.49-1.08,1.08-1.08h2.48
			c0.59,0,1.08-0.49,1.08-1.08v-3.87c0-0.59,0.48-1.08,1.08-1.08h3.87c0.6,0,1.08,0.49,1.08,1.08v3.87c0,0.59-0.49,1.08-1.08,1.08
			h-3.87c-0.6,0-1.08,0.49-1.08,1.08v2.48C22.09,170.46,21.6,170.95,21.01,170.95z M3.71,170.95H1.23c-0.6,0-1.08-0.49-1.08-1.08
			v-2.48c0-0.6,0.49-1.08,1.08-1.08h2.48c0.59,0,1.08-0.49,1.08-1.08v-3.87c0-0.59,0.48-1.08,1.08-1.08h3.87
			c0.6,0,1.08,0.49,1.08,1.08v3.87c0,0.59-0.49,1.08-1.08,1.08H5.87c-0.6,0-1.08,0.49-1.08,1.08v2.48
			C4.79,170.46,4.3,170.95,3.71,170.95z M142.13,188.74h-2.48c-0.6,0-1.08-0.49-1.08-1.08v-2.48c0-0.6,0.49-1.08,1.08-1.08h2.48
			c0.59,0,1.08-0.49,1.08-1.08v-3.87c0-0.59,0.48-1.08,1.08-1.08h3.87c0.6,0,1.08,0.49,1.08,1.08v3.87c0,0.59-0.49,1.08-1.08,1.08
			h-3.87c-0.6,0-1.08,0.49-1.08,1.08v2.48C143.21,188.25,142.72,188.74,142.13,188.74z M124.82,188.74h-2.48
			c-0.6,0-1.08-0.49-1.08-1.08v-2.48c0-0.6,0.49-1.08,1.08-1.08h2.48c0.59,0,1.08-0.49,1.08-1.08v-3.87c0-0.59,0.48-1.08,1.08-1.08
			h3.87c0.6,0,1.08,0.49,1.08,1.08v3.87c0,0.59-0.49,1.08-1.08,1.08h-3.87c-0.6,0-1.08,0.49-1.08,1.08v2.48
			C125.9,188.25,125.42,188.74,124.82,188.74z M107.52,188.74h-2.48c-0.6,0-1.08-0.49-1.08-1.08v-2.48c0-0.6,0.49-1.08,1.08-1.08
			h2.48c0.59,0,1.08-0.49,1.08-1.08v-3.87c0-0.59,0.48-1.08,1.08-1.08h3.87c0.6,0,1.08,0.49,1.08,1.08v3.87
			c0,0.59-0.49,1.08-1.08,1.08h-3.87c-0.6,0-1.08,0.49-1.08,1.08v2.48C108.6,188.25,108.12,188.74,107.52,188.74z M90.22,188.74
			h-2.48c-0.6,0-1.08-0.49-1.08-1.08v-2.48c0-0.6,0.49-1.08,1.08-1.08h2.48c0.59,0,1.08-0.49,1.08-1.08v-3.87
			c0-0.59,0.48-1.08,1.08-1.08h3.87c0.6,0,1.08,0.49,1.08,1.08v3.87c0,0.59-0.49,1.08-1.08,1.08h-3.87c-0.6,0-1.08,0.49-1.08,1.08
			v2.48C91.3,188.25,90.81,188.74,90.22,188.74z M72.92,188.74h-2.48c-0.6,0-1.08-0.49-1.08-1.08v-2.48c0-0.6,0.49-1.08,1.08-1.08
			h2.48c0.59,0,1.08-0.49,1.08-1.08v-3.87c0-0.59,0.48-1.08,1.08-1.08h3.87c0.6,0,1.08,0.49,1.08,1.08v3.87
			c0,0.59-0.49,1.08-1.08,1.08h-3.87c-0.6,0-1.08,0.49-1.08,1.08v2.48C74,188.25,73.51,188.74,72.92,188.74z M55.61,188.74h-2.48
			c-0.6,0-1.08-0.49-1.08-1.08v-2.48c0-0.6,0.49-1.08,1.08-1.08h2.48c0.59,0,1.08-0.49,1.08-1.08v-3.87c0-0.59,0.48-1.08,1.08-1.08
			h3.87c0.6,0,1.08,0.49,1.08,1.08v3.87c0,0.59-0.49,1.08-1.08,1.08h-3.87c-0.6,0-1.08,0.49-1.08,1.08v2.48
			C56.69,188.25,56.21,188.74,55.61,188.74z M38.31,188.74h-2.48c-0.6,0-1.08-0.49-1.08-1.08v-2.48c0-0.6,0.49-1.08,1.08-1.08h2.48
			c0.59,0,1.08-0.49,1.08-1.08v-3.87c0-0.59,0.48-1.08,1.08-1.08h3.87c0.6,0,1.08,0.49,1.08,1.08v3.87c0,0.59-0.49,1.08-1.08,1.08
			h-3.87c-0.6,0-1.08,0.49-1.08,1.08v2.48C39.39,188.25,38.91,188.74,38.31,188.74z M21.01,188.74h-2.48c-0.6,0-1.08-0.49-1.08-1.08
			v-2.48c0-0.6,0.49-1.08,1.08-1.08h2.48c0.59,0,1.08-0.49,1.08-1.08v-3.87c0-0.59,0.48-1.08,1.08-1.08h3.87
			c0.6,0,1.08,0.49,1.08,1.08v3.87c0,0.59-0.49,1.08-1.08,1.08h-3.87c-0.6,0-1.08,0.49-1.08,1.08v2.48
			C22.09,188.25,21.6,188.74,21.01,188.74z M3.71,188.74H1.23c-0.6,0-1.08-0.49-1.08-1.08v-2.48c0-0.6,0.49-1.08,1.08-1.08h2.48
			c0.59,0,1.08-0.49,1.08-1.08v-3.87c0-0.59,0.48-1.08,1.08-1.08h3.87c0.6,0,1.08,0.49,1.08,1.08v3.87c0,0.59-0.49,1.08-1.08,1.08
			H5.87c-0.6,0-1.08,0.49-1.08,1.08v2.48C4.79,188.25,4.3,188.74,3.71,188.74z M142.13,206.53h-2.48c-0.6,0-1.08-0.49-1.08-1.08
			v-2.48c0-0.6,0.49-1.08,1.08-1.08h2.48c0.59,0,1.08-0.49,1.08-1.08v-3.87c0-0.59,0.48-1.08,1.08-1.08h3.87
			c0.6,0,1.08,0.49,1.08,1.08v3.87c0,0.59-0.49,1.08-1.08,1.08h-3.87c-0.6,0-1.08,0.49-1.08,1.08v2.48
			C143.21,206.04,142.72,206.53,142.13,206.53z M124.82,206.53h-2.48c-0.6,0-1.08-0.49-1.08-1.08v-2.48c0-0.6,0.49-1.08,1.08-1.08
			h2.48c0.59,0,1.08-0.49,1.08-1.08v-3.87c0-0.59,0.48-1.08,1.08-1.08h3.87c0.6,0,1.08,0.49,1.08,1.08v3.87
			c0,0.59-0.49,1.08-1.08,1.08h-3.87c-0.6,0-1.08,0.49-1.08,1.08v2.48C125.9,206.04,125.42,206.53,124.82,206.53z M107.52,206.53
			h-2.48c-0.6,0-1.08-0.49-1.08-1.08v-2.48c0-0.6,0.49-1.08,1.08-1.08h2.48c0.59,0,1.08-0.49,1.08-1.08v-3.87
			c0-0.59,0.48-1.08,1.08-1.08h3.87c0.6,0,1.08,0.49,1.08,1.08v3.87c0,0.59-0.49,1.08-1.08,1.08h-3.87c-0.6,0-1.08,0.49-1.08,1.08
			v2.48C108.6,206.04,108.12,206.53,107.52,206.53z M90.22,206.53h-2.48c-0.6,0-1.08-0.49-1.08-1.08v-2.48
			c0-0.6,0.49-1.08,1.08-1.08h2.48c0.59,0,1.08-0.49,1.08-1.08v-3.87c0-0.59,0.48-1.08,1.08-1.08h3.87c0.6,0,1.08,0.49,1.08,1.08
			v3.87c0,0.59-0.49,1.08-1.08,1.08h-3.87c-0.6,0-1.08,0.49-1.08,1.08v2.48C91.3,206.04,90.81,206.53,90.22,206.53z M72.92,206.53
			h-2.48c-0.6,0-1.08-0.49-1.08-1.08v-2.48c0-0.6,0.49-1.08,1.08-1.08h2.48c0.59,0,1.08-0.49,1.08-1.08v-3.87
			c0-0.59,0.48-1.08,1.08-1.08h3.87c0.6,0,1.08,0.49,1.08,1.08v3.87c0,0.59-0.49,1.08-1.08,1.08h-3.87c-0.6,0-1.08,0.49-1.08,1.08
			v2.48C74,206.04,73.51,206.53,72.92,206.53z M55.61,206.53h-2.48c-0.6,0-1.08-0.49-1.08-1.08v-2.48c0-0.6,0.49-1.08,1.08-1.08
			h2.48c0.59,0,1.08-0.49,1.08-1.08v-3.87c0-0.59,0.48-1.08,1.08-1.08h3.87c0.6,0,1.08,0.49,1.08,1.08v3.87
			c0,0.59-0.49,1.08-1.08,1.08h-3.87c-0.6,0-1.08,0.49-1.08,1.08v2.48C56.69,206.04,56.21,206.53,55.61,206.53z M38.31,206.53h-2.48
			c-0.6,0-1.08-0.49-1.08-1.08v-2.48c0-0.6,0.49-1.08,1.08-1.08h2.48c0.59,0,1.08-0.49,1.08-1.08v-3.87c0-0.59,0.48-1.08,1.08-1.08
			h3.87c0.6,0,1.08,0.49,1.08,1.08v3.87c0,0.59-0.49,1.08-1.08,1.08h-3.87c-0.6,0-1.08,0.49-1.08,1.08v2.48
			C39.39,206.04,38.91,206.53,38.31,206.53z M21.01,206.53h-2.48c-0.6,0-1.08-0.49-1.08-1.08v-2.48c0-0.6,0.49-1.08,1.08-1.08h2.48
			c0.59,0,1.08-0.49,1.08-1.08v-3.87c0-0.59,0.48-1.08,1.08-1.08h3.87c0.6,0,1.08,0.49,1.08,1.08v3.87c0,0.59-0.49,1.08-1.08,1.08
			h-3.87c-0.6,0-1.08,0.49-1.08,1.08v2.48C22.09,206.04,21.6,206.53,21.01,206.53z M3.71,206.53H1.23c-0.6,0-1.08-0.49-1.08-1.08
			v-2.48c0-0.6,0.49-1.08,1.08-1.08h2.48c0.59,0,1.08-0.49,1.08-1.08v-3.87c0-0.59,0.48-1.08,1.08-1.08h3.87
			c0.6,0,1.08,0.49,1.08,1.08v3.87c0,0.59-0.49,1.08-1.08,1.08H5.87c-0.6,0-1.08,0.49-1.08,1.08v2.48
			C4.79,206.04,4.3,206.53,3.71,206.53z"/>
	</g>
</g>
<g id="Layer_2" class="st351">
</g>
<g id="Layer_3">
</g>
<g id="Layer_4">
</g>
</svg>
