<svg id="Layer_1" data-name="Layer 1" xmlns="http://www.w3.org/2000/svg" viewBox="0 0 25.73 27.37"><defs><style>.cls-1{fill:#70bfa9;}.cls-2{fill:#c2c1c1;}.cls-3{fill:#98c9bb;}.cls-4{fill:#d6d5d5;}.cls-5{fill:#a7c9bf;}.cls-6{fill:#ececec;}.cls-7{fill:#a9c1ba;}.cls-8{fill:#a1b7b2;}.cls-9{fill:#2cb897;}.cls-10{fill:#adb9b6;}.cls-11{fill:#5baf98;}</style></defs><circle class="cls-1" cx="13.69" cy="1.32" r="1.32"/><circle class="cls-2" cx="13.69" cy="26.05" r="1.32"/><circle class="cls-3" cx="7.5" cy="2.96" r="1.32"/><path class="cls-4" d="M21,23.75a1.35,1.35,0,0,1-.48,1.81,1.32,1.32,0,0,1-1.33-2.29A1.34,1.34,0,0,1,21,23.75Z"/><path class="cls-5" d="M3.62,6.36A1.32,1.32,0,1,1,2.3,8.65a1.34,1.34,0,0,1-.49-1.81A1.31,1.31,0,0,1,3.62,6.36Z"/><path class="cls-6" d="M25.08,18.72a1.35,1.35,0,0,1,.48,1.81,1.32,1.32,0,1,1-.48-1.81Z"/><circle class="cls-7" cx="1.32" cy="13.69" r="1.32"/><path class="cls-8" d="M2.3,18.72a1.36,1.36,0,0,1,1.81.48A1.36,1.36,0,0,1,3.62,21a1.35,1.35,0,0,1-1.81-.48A1.32,1.32,0,0,1,2.3,18.72Z"/><path class="cls-9" d="M23.75,6.36a1.35,1.35,0,0,1,1.81.48,1.37,1.37,0,0,1-.48,1.81,1.32,1.32,0,1,1-1.33-2.29Z"/><path class="cls-10" d="M6.36,23.75a1.32,1.32,0,1,1,2.29,1.33,1.32,1.32,0,0,1-2.29-1.33Z"/><path class="cls-11" d="M18.72,2.3A1.32,1.32,0,1,1,21,3.62,1.32,1.32,0,1,1,18.72,2.3Z"/></svg>