<?xml version="1.0" encoding="utf-8"?>
<!-- Generator: Adobe Illustrator 24.1.1, SVG Export Plug-In . SVG Version: 6.00 Build 0)  -->
<svg version="1.1" id="Layer_1" xmlns="http://www.w3.org/2000/svg" xmlns:xlink="http://www.w3.org/1999/xlink" x="0px" y="0px"
	 viewBox="0 0 15.7 15.7" style="enable-background:new 0 0 15.7 15.7;" xml:space="preserve">
<style type="text/css">
	.st0{fill:#808080;}
</style>
<path class="st0" d="M3.87,10.4c0,0-2.36,2.36-3.58,3.58c-0.39,0.39-0.39,1.03,0,1.42l0,0c0.39,0.39,1.03,0.39,1.42,0l3.58-3.58
	c1.2,0.88,2.7,1.37,4.33,1.25c3.2-0.23,5.81-2.81,6.06-6.02c0.31-4.01-3.03-7.35-7.04-7.04c-3.2,0.25-5.79,2.85-6.01,6.06
	C2.51,7.7,2.99,9.2,3.87,10.4L3.87,10.4z M9.15,11.08c-2.5,0-4.53-2.03-4.53-4.53s2.03-4.53,4.53-4.53s4.53,2.03,4.53,4.53
	S11.65,11.08,9.15,11.08L9.15,11.08z"/>
</svg>
