<?xml version="1.0" encoding="utf-8"?>
<!-- Generator: Adobe Illustrator 24.1.1, SVG Export Plug-In . SVG Version: 6.00 Build 0)  -->
<svg version="1.1" xmlns="http://www.w3.org/2000/svg" xmlns:xlink="http://www.w3.org/1999/xlink" x="0px" y="0px"
	 viewBox="0 0 38.83 37.66" style="enable-background:new 0 0 38.83 37.66;" xml:space="preserve">
<style type="text/css">
	.st0{fill:url(#SVGID_1_);}
	.st1{opacity:0.51;fill:url(#SVGID_2_);}
	.st2{opacity:0.4;fill:url(#SVGID_3_);}
	.st3{opacity:0.3;fill:url(#SVGID_4_);}
	.st4{display:none;opacity:0.58;}
	.st5{display:inline;opacity:0.8;}
	.st6{fill:url(#SVGID_5_);}
	.st7{fill:url(#SVGID_6_);}
	.st8{fill:url(#SVGID_7_);}
	.st9{opacity:0.35;fill:url(#SVGID_8_);}
	.st10{opacity:0.35;fill:url(#SVGID_9_);}
	.st11{opacity:0.35;fill:url(#SVGID_10_);}
	.st12{fill:url(#SVGID_11_);}
	.st13{fill:url(#SVGID_12_);}
	.st14{fill:url(#SVGID_13_);}
	.st15{fill:url(#SVGID_14_);}
	.st16{fill:url(#SVGID_15_);}
	.st17{fill:url(#SVGID_16_);}
	.st18{fill:#C3AE4C;}
	.st19{fill-rule:evenodd;clip-rule:evenodd;fill:#C3AE4C;}
	.st20{filter:url(#Adobe_OpacityMaskFilter);}
	.st21{fill:url(#SVGID_18_);}
	.st22{mask:url(#SVGID_17_);fill-rule:evenodd;clip-rule:evenodd;fill:#C3AE4C;}
	.st23{filter:url(#Adobe_OpacityMaskFilter_1_);}
	.st24{fill:url(#SVGID_20_);}
	.st25{mask:url(#SVGID_19_);fill-rule:evenodd;clip-rule:evenodd;fill:#EFE3A5;}
	.st26{filter:url(#Adobe_OpacityMaskFilter_2_);}
	.st27{fill:url(#SVGID_22_);}
	.st28{mask:url(#SVGID_21_);fill-rule:evenodd;clip-rule:evenodd;fill:#EFE3A5;}
	.st29{filter:url(#Adobe_OpacityMaskFilter_3_);}
	.st30{fill:url(#SVGID_24_);}
	.st31{mask:url(#SVGID_23_);fill-rule:evenodd;clip-rule:evenodd;fill:#EFE3A5;}
	.st32{filter:url(#Adobe_OpacityMaskFilter_4_);}
	.st33{fill:url(#SVGID_26_);}
	.st34{mask:url(#SVGID_25_);fill-rule:evenodd;clip-rule:evenodd;fill:#EFE3A5;}
	.st35{opacity:0.5;fill-rule:evenodd;clip-rule:evenodd;fill:#C3AE4C;}
	.st36{filter:url(#Adobe_OpacityMaskFilter_5_);}
	.st37{fill:url(#SVGID_28_);}
	.st38{mask:url(#SVGID_27_);fill-rule:evenodd;clip-rule:evenodd;fill:#C3AE4C;}
	.st39{filter:url(#Adobe_OpacityMaskFilter_6_);}
	.st40{fill:url(#SVGID_30_);}
	.st41{mask:url(#SVGID_29_);fill-rule:evenodd;clip-rule:evenodd;fill:#C3AE4C;}
	.st42{filter:url(#Adobe_OpacityMaskFilter_7_);}
	.st43{fill:url(#SVGID_32_);}
	.st44{mask:url(#SVGID_31_);fill-rule:evenodd;clip-rule:evenodd;fill:#EFE3A5;}
	.st45{fill-rule:evenodd;clip-rule:evenodd;fill:#315B51;}
	.st46{filter:url(#Adobe_OpacityMaskFilter_8_);}
	.st47{fill:url(#SVGID_34_);}
	.st48{mask:url(#SVGID_33_);fill-rule:evenodd;clip-rule:evenodd;fill:#2BB393;}
	.st49{fill:#AEADAE;}
	.st50{fill:#FFFFFF;}
	.st51{fill:none;stroke:#FFFFFF;stroke-width:0.25;stroke-miterlimit:10;}
	.st52{fill:none;stroke:#2BB898;stroke-width:0.75;stroke-miterlimit:10;}
	.st53{fill:#C8B34C;}
	.st54{fill:#213E3D;}
	.st55{fill:none;stroke:#FFFFFF;stroke-width:0.3125;stroke-miterlimit:10;}
	.st56{fill:none;stroke:#5980CC;stroke-width:0.5;stroke-miterlimit:10;}
	.st57{fill:#248C75;}
	.st58{fill:#2BB898;}
	.st59{fill:#FFE700;}
	.st60{fill:#F3AC33;}
	.st61{fill:#ED8C00;}
	.st62{fill:#FAC86E;}
	.st63{fill:#335387;}
	.st64{fill:#385BA6;}
	.st65{fill:none;stroke:#2BB898;stroke-width:0.5;stroke-miterlimit:10;}
	.st66{fill:none;stroke:#FAC86E;stroke-width:0.5;stroke-miterlimit:10;}
	.st67{fill:none;stroke:#C7C7C7;stroke-width:0.1782;stroke-miterlimit:10;}
	.st68{fill:none;stroke:#666666;stroke-width:0.2017;stroke-miterlimit:10;}
	.st69{fill:none;stroke:#666666;stroke-width:0.3203;stroke-linecap:round;stroke-miterlimit:10;}
	.st70{fill:none;stroke:#666666;stroke-width:0.25;stroke-miterlimit:10;}
	.st71{fill:none;stroke:#666666;stroke-width:0.2826;stroke-miterlimit:10;}
	.st72{fill:#FF1D25;}
	.st73{fill:#6FBEA8;}
	.st74{fill:#C1C1C1;}
	.st75{fill:#97C9BB;}
	.st76{fill:#D5D5D5;}
	.st77{fill:#A7C9BF;}
	.st78{fill:#ECECEC;}
	.st79{fill:#A8C1BA;}
	.st80{fill:#A1B7B1;}
	.st81{fill:#ACB9B6;}
	.st82{fill:#5BAF98;}
	.st83{enable-background:new    ;}
	.st84{fill:#D5BC55;}
	.st85{fill:#AF9A46;}
	.st86{fill:url(#SVGID_35_);}
	.st87{opacity:0.51;}
	.st88{fill:url(#SVGID_36_);}
	.st89{fill:#5A9AD1;}
	.st90{fill:#345878;}
	.st91{fill:#4A7EAB;}
	.st92{opacity:0.51;fill:url(#SVGID_37_);}
	.st93{opacity:0.51;fill:url(#SVGID_38_);}
	.st94{fill:#1C9678;}
	.st95{fill:url(#SVGID_39_);}
	.st96{opacity:0.51;fill:url(#SVGID_40_);}
	.st97{opacity:0.51;fill:url(#SVGID_41_);}
	.st98{fill:#52C9A9;}
	.st99{fill:url(#SVGID_42_);}
	.st100{fill:url(#SVGID_43_);}
	.st101{opacity:0.51;fill:url(#SVGID_44_);}
	.st102{fill:url(#SVGID_45_);}
	.st103{fill:url(#SVGID_46_);}
	.st104{opacity:0.51;fill:url(#SVGID_47_);}
	.st105{fill:none;stroke:#C7C7C7;stroke-width:0.25;stroke-miterlimit:10;}
	.st106{fill:#E1E1E1;}
	.st107{fill:#C5B04C;}
	.st108{fill-rule:evenodd;clip-rule:evenodd;fill:#C5B04C;}
	.st109{filter:url(#Adobe_OpacityMaskFilter_9_);}
	.st110{fill:url(#SVGID_51_);}
	.st111{mask:url(#SVGID_50_);fill-rule:evenodd;clip-rule:evenodd;fill:#C5B04C;}
	.st112{filter:url(#Adobe_OpacityMaskFilter_10_);}
	.st113{fill:url(#SVGID_53_);}
	.st114{mask:url(#SVGID_52_);fill-rule:evenodd;clip-rule:evenodd;fill:#F1E5A7;}
	.st115{filter:url(#Adobe_OpacityMaskFilter_11_);}
	.st116{fill:url(#SVGID_55_);}
	.st117{mask:url(#SVGID_54_);fill-rule:evenodd;clip-rule:evenodd;fill:#F1E5A7;}
	.st118{filter:url(#Adobe_OpacityMaskFilter_12_);}
	.st119{fill:url(#SVGID_57_);}
	.st120{mask:url(#SVGID_56_);fill-rule:evenodd;clip-rule:evenodd;fill:#F1E5A7;}
	.st121{filter:url(#Adobe_OpacityMaskFilter_13_);}
	.st122{fill:url(#SVGID_59_);}
	.st123{mask:url(#SVGID_58_);fill-rule:evenodd;clip-rule:evenodd;fill:#F1E5A7;}
	.st124{opacity:0.5;fill-rule:evenodd;clip-rule:evenodd;fill:#C5B04C;}
	.st125{filter:url(#Adobe_OpacityMaskFilter_14_);}
	.st126{fill:url(#SVGID_61_);}
	.st127{mask:url(#SVGID_60_);fill-rule:evenodd;clip-rule:evenodd;fill:#C5B04C;}
	.st128{filter:url(#Adobe_OpacityMaskFilter_15_);}
	.st129{fill:url(#SVGID_63_);}
	.st130{mask:url(#SVGID_62_);fill-rule:evenodd;clip-rule:evenodd;fill:#C5B04C;}
	.st131{fill:none;stroke:#2BB898;stroke-width:1.16;stroke-linecap:round;stroke-linejoin:round;stroke-miterlimit:10;}
	.st132{fill-rule:evenodd;clip-rule:evenodd;fill:none;stroke:#C7C7C7;stroke-width:0.5;stroke-miterlimit:10;}
	.st133{fill:none;stroke:#C7C7C7;stroke-width:0.5;stroke-miterlimit:10;}
	.st134{fill-rule:evenodd;clip-rule:evenodd;fill:none;stroke:#C7C7C7;stroke-width:0.75;stroke-miterlimit:10;}
	.st135{fill:#2BB898;stroke:#2BB898;stroke-width:0.7684;stroke-miterlimit:10;}
	.st136{fill:#4D4D4D;}
	.st137{fill:#515151;}
	.st138{clip-path:url(#SVGID_65_);fill:#BCBCBC;}
	.st139{clip-path:url(#SVGID_65_);fill:#969696;}
	.st140{clip-path:url(#SVGID_65_);}
	.st141{fill:#969696;}
	.st142{fill:#BCBCBC;}
	.st143{opacity:0.28;clip-path:url(#SVGID_67_);fill:#B3B2B3;}
	.st144{opacity:0.28;clip-path:url(#SVGID_69_);fill:#B3B2B3;}
	.st145{clip-path:url(#SVGID_71_);}
	.st146{fill:#DDDDDD;}
	.st147{fill:#C4C4C4;}
	.st148{fill:#A6A6A6;}
	.st149{fill:url(#SVGID_74_);}
	.st150{fill:#4576CB;}
	.st151{fill:none;stroke:#FFFFFF;stroke-width:0.5206;stroke-miterlimit:10;}
	.st152{fill:url(#SVGID_77_);}
	.st153{fill:#989898;}
	.st154{fill:url(#SVGID_80_);}
	.st155{fill:none;stroke:#FFFFFF;stroke-width:0.5208;stroke-miterlimit:10;}
	.st156{fill:url(#SVGID_83_);}
	.st157{fill:#1F7760;}
	.st158{opacity:0.28;clip-path:url(#SVGID_93_);fill:#666666;}
	.st159{fill-rule:evenodd;clip-rule:evenodd;fill:none;stroke:#CACACA;stroke-width:0.5;stroke-miterlimit:10;}
	.st160{fill:#B3B2B3;}
	.st161{fill:#EAEAEA;}
	.st162{fill:url(#SVGID_94_);}
	.st163{fill:url(#SVGID_95_);}
	.st164{opacity:0.4;fill:#06033E;}
	.st165{fill:url(#SVGID_96_);}
	.st166{fill:url(#SVGID_97_);}
	.st167{fill:url(#SVGID_98_);}
	.st168{fill:url(#SVGID_99_);}
	.st169{clip-path:url(#SVGID_101_);fill:#112564;}
	.st170{clip-path:url(#SVGID_101_);fill:#112665;}
	.st171{clip-path:url(#SVGID_101_);fill:#112766;}
	.st172{clip-path:url(#SVGID_101_);fill:#112867;}
	.st173{clip-path:url(#SVGID_101_);fill:#112968;}
	.st174{clip-path:url(#SVGID_101_);fill:#112A69;}
	.st175{clip-path:url(#SVGID_101_);fill:#112B6A;}
	.st176{clip-path:url(#SVGID_101_);fill:#112C6B;}
	.st177{clip-path:url(#SVGID_101_);fill:#112D6D;}
	.st178{clip-path:url(#SVGID_101_);fill:#112E6E;}
	.st179{clip-path:url(#SVGID_101_);fill:#112F6F;}
	.st180{clip-path:url(#SVGID_101_);fill:#113070;}
	.st181{clip-path:url(#SVGID_101_);fill:#113171;}
	.st182{clip-path:url(#SVGID_101_);fill:#113272;}
	.st183{clip-path:url(#SVGID_101_);fill:#113373;}
	.st184{clip-path:url(#SVGID_101_);fill:#113474;}
	.st185{clip-path:url(#SVGID_101_);fill:#113575;}
	.st186{clip-path:url(#SVGID_101_);fill:#113676;}
	.st187{clip-path:url(#SVGID_101_);fill:#113777;}
	.st188{clip-path:url(#SVGID_101_);fill:#113878;}
	.st189{clip-path:url(#SVGID_101_);fill:#113979;}
	.st190{clip-path:url(#SVGID_101_);fill:#113A7A;}
	.st191{clip-path:url(#SVGID_101_);fill:#113B7B;}
	.st192{clip-path:url(#SVGID_101_);fill:#113C7C;}
	.st193{clip-path:url(#SVGID_101_);fill:#113D7D;}
	.st194{clip-path:url(#SVGID_101_);fill:#113E7E;}
	.st195{clip-path:url(#SVGID_101_);fill:#113F7F;}
	.st196{clip-path:url(#SVGID_101_);fill:#114080;}
	.st197{clip-path:url(#SVGID_101_);fill:#114181;}
	.st198{clip-path:url(#SVGID_101_);fill:#114282;}
	.st199{clip-path:url(#SVGID_101_);fill:#114383;}
	.st200{clip-path:url(#SVGID_101_);fill:#114484;}
	.st201{clip-path:url(#SVGID_101_);fill:#114585;}
	.st202{clip-path:url(#SVGID_101_);fill:#114686;}
	.st203{clip-path:url(#SVGID_101_);fill:#114787;}
	.st204{clip-path:url(#SVGID_101_);fill:#114888;}
	.st205{clip-path:url(#SVGID_101_);fill:#114989;}
	.st206{clip-path:url(#SVGID_101_);fill:#114A8A;}
	.st207{clip-path:url(#SVGID_101_);fill:#114B8B;}
	.st208{clip-path:url(#SVGID_101_);fill:#114C8C;}
	.st209{clip-path:url(#SVGID_101_);fill:#114D8D;}
	.st210{clip-path:url(#SVGID_101_);fill:#114E8E;}
	.st211{clip-path:url(#SVGID_101_);fill:#114F8F;}
	.st212{clip-path:url(#SVGID_101_);fill:#115090;}
	.st213{clip-path:url(#SVGID_101_);fill:#115191;}
	.st214{clip-path:url(#SVGID_101_);fill:#115292;}
	.st215{clip-path:url(#SVGID_101_);fill:#115393;}
	.st216{clip-path:url(#SVGID_101_);fill:#115494;}
	.st217{clip-path:url(#SVGID_101_);fill:#115595;}
	.st218{clip-path:url(#SVGID_101_);fill:#115696;}
	.st219{clip-path:url(#SVGID_101_);fill:#115797;}
	.st220{clip-path:url(#SVGID_101_);fill:#115899;}
	.st221{clip-path:url(#SVGID_101_);fill:#11599A;}
	.st222{clip-path:url(#SVGID_101_);fill:#115A9B;}
	.st223{clip-path:url(#SVGID_101_);fill:#115B9C;}
	.st224{clip-path:url(#SVGID_101_);fill:#115C9D;}
	.st225{clip-path:url(#SVGID_101_);fill:#115D9E;}
	.st226{clip-path:url(#SVGID_101_);fill:#115E9F;}
	.st227{clip-path:url(#SVGID_101_);fill:#115FA0;}
	.st228{clip-path:url(#SVGID_101_);fill:#1160A1;}
	.st229{clip-path:url(#SVGID_101_);fill:#1161A2;}
	.st230{clip-path:url(#SVGID_101_);fill:#1162A3;}
	.st231{clip-path:url(#SVGID_101_);fill:#1163A4;}
	.st232{clip-path:url(#SVGID_101_);fill:#1164A5;}
	.st233{clip-path:url(#SVGID_101_);fill:#1165A6;}
	.st234{clip-path:url(#SVGID_101_);fill:#1166A7;}
	.st235{clip-path:url(#SVGID_101_);fill:#1167A8;}
	.st236{clip-path:url(#SVGID_101_);fill:#1168A9;}
	.st237{clip-path:url(#SVGID_101_);fill:#1169AA;}
	.st238{clip-path:url(#SVGID_101_);fill:#116AAB;}
	.st239{clip-path:url(#SVGID_101_);fill:#116BAC;}
	.st240{clip-path:url(#SVGID_101_);fill:#116CAD;}
	.st241{clip-path:url(#SVGID_101_);fill:#116DAE;}
	.st242{clip-path:url(#SVGID_101_);fill:#116EAF;}
	.st243{clip-path:url(#SVGID_101_);fill:#116FB0;}
	.st244{clip-path:url(#SVGID_101_);fill:#1170B1;}
	.st245{clip-path:url(#SVGID_101_);fill:#1171B2;}
	.st246{clip-path:url(#SVGID_101_);fill:#1172B3;}
	.st247{clip-path:url(#SVGID_101_);fill:#1173B4;}
	.st248{clip-path:url(#SVGID_101_);fill:#1174B5;}
	.st249{clip-path:url(#SVGID_101_);fill:#1175B6;}
	.st250{clip-path:url(#SVGID_101_);fill:#1176B7;}
	.st251{clip-path:url(#SVGID_101_);fill:#1177B8;}
	.st252{clip-path:url(#SVGID_101_);fill:#1178B9;}
	.st253{clip-path:url(#SVGID_101_);fill:#107ABA;}
	.st254{clip-path:url(#SVGID_101_);fill:#107BBB;}
	.st255{clip-path:url(#SVGID_101_);fill:#107CBC;}
	.st256{clip-path:url(#SVGID_101_);fill:#107EBD;}
	.st257{clip-path:url(#SVGID_101_);fill:#0F7FBD;}
	.st258{clip-path:url(#SVGID_101_);fill:#0F80BE;}
	.st259{clip-path:url(#SVGID_101_);fill:#0F82BF;}
	.st260{clip-path:url(#SVGID_101_);fill:#0F83C0;}
	.st261{clip-path:url(#SVGID_101_);fill:#0E84C1;}
	.st262{clip-path:url(#SVGID_101_);fill:#0E85C2;}
	.st263{clip-path:url(#SVGID_101_);fill:#0E87C3;}
	.st264{clip-path:url(#SVGID_101_);fill:#0E88C4;}
	.st265{clip-path:url(#SVGID_101_);fill:#0D89C4;}
	.st266{clip-path:url(#SVGID_101_);fill:#0D8BC5;}
	.st267{clip-path:url(#SVGID_101_);fill:#0D8CC6;}
	.st268{clip-path:url(#SVGID_101_);fill:#0D8DC7;}
	.st269{clip-path:url(#SVGID_101_);fill:#0C8EC8;}
	.st270{clip-path:url(#SVGID_101_);fill:#0C90C9;}
	.st271{clip-path:url(#SVGID_101_);fill:#0C91CA;}
	.st272{clip-path:url(#SVGID_101_);fill:#0C92CA;}
	.st273{clip-path:url(#SVGID_101_);fill:#0B93CB;}
	.st274{clip-path:url(#SVGID_101_);fill:#0B94CC;}
	.st275{clip-path:url(#SVGID_101_);fill:#0B96CD;}
	.st276{clip-path:url(#SVGID_101_);fill:#0B97CE;}
	.st277{clip-path:url(#SVGID_101_);fill:#0A98CE;}
	.st278{clip-path:url(#SVGID_101_);fill:#0A99CF;}
	.st279{clip-path:url(#SVGID_101_);fill:#0A9AD0;}
	.st280{clip-path:url(#SVGID_101_);fill:#0A9CD1;}
	.st281{clip-path:url(#SVGID_101_);fill:#0A9DD2;}
	.st282{clip-path:url(#SVGID_101_);fill:#099ED2;}
	.st283{clip-path:url(#SVGID_101_);fill:#099FD3;}
	.st284{clip-path:url(#SVGID_101_);fill:#09A0D4;}
	.st285{clip-path:url(#SVGID_101_);fill:#09A1D5;}
	.st286{clip-path:url(#SVGID_101_);fill:#08A2D5;}
	.st287{clip-path:url(#SVGID_101_);fill:#08A3D6;}
	.st288{clip-path:url(#SVGID_101_);fill:#08A5D7;}
	.st289{clip-path:url(#SVGID_101_);fill:#08A6D8;}
	.st290{clip-path:url(#SVGID_101_);fill:#08A7D8;}
	.st291{clip-path:url(#SVGID_101_);fill:#07A8D9;}
	.st292{clip-path:url(#SVGID_101_);fill:#07A9DA;}
	.st293{clip-path:url(#SVGID_101_);fill:#07AADB;}
	.st294{clip-path:url(#SVGID_101_);fill:#07ABDB;}
	.st295{clip-path:url(#SVGID_101_);fill:#07ACDC;}
	.st296{clip-path:url(#SVGID_101_);fill:#06ADDD;}
	.st297{clip-path:url(#SVGID_101_);fill:#06AEDD;}
	.st298{clip-path:url(#SVGID_101_);fill:#06AFDE;}
	.st299{clip-path:url(#SVGID_101_);fill:#06B0DF;}
	.st300{clip-path:url(#SVGID_101_);fill:#06B1DF;}
	.st301{clip-path:url(#SVGID_101_);fill:#05B2E0;}
	.st302{clip-path:url(#SVGID_101_);fill:#05B3E1;}
	.st303{clip-path:url(#SVGID_101_);fill:#05B4E1;}
	.st304{clip-path:url(#SVGID_101_);fill:#05B5E2;}
	.st305{clip-path:url(#SVGID_101_);fill:#05B6E3;}
	.st306{clip-path:url(#SVGID_101_);fill:#04B7E3;}
	.st307{clip-path:url(#SVGID_101_);fill:#04B8E4;}
	.st308{clip-path:url(#SVGID_101_);fill:#04B9E5;}
	.st309{clip-path:url(#SVGID_101_);fill:#04BAE6;}
	.st310{clip-path:url(#SVGID_101_);fill:#04BBE6;}
	.st311{clip-path:url(#SVGID_101_);fill:#03BCE7;}
	.st312{clip-path:url(#SVGID_101_);fill:#03BDE7;}
	.st313{clip-path:url(#SVGID_101_);fill:#03BEE8;}
	.st314{clip-path:url(#SVGID_101_);fill:#03BFE9;}
	.st315{clip-path:url(#SVGID_101_);fill:#03C0EA;}
	.st316{clip-path:url(#SVGID_101_);fill:#02C1EA;}
	.st317{clip-path:url(#SVGID_101_);fill:#02C2EB;}
	.st318{clip-path:url(#SVGID_101_);fill:#02C3EC;}
	.st319{clip-path:url(#SVGID_101_);fill:#02C4EC;}
	.st320{clip-path:url(#SVGID_101_);fill:#02C5ED;}
	.st321{clip-path:url(#SVGID_101_);fill:#01C6EE;}
	.st322{clip-path:url(#SVGID_101_);fill:#01C7EE;}
	.st323{clip-path:url(#SVGID_101_);fill:#01C7EF;}
	.st324{clip-path:url(#SVGID_101_);fill:#01C8EF;}
	.st325{fill:url(#SVGID_102_);}
	.st326{fill:url(#SVGID_103_);}
	.st327{fill:url(#SVGID_104_);}
	.st328{fill:url(#SVGID_105_);}
	.st329{fill:#07AADB;}
	.st330{fill:#0D121E;}
	.st331{fill:url(#SVGID_106_);}
	.st332{fill:url(#SVGID_107_);}
	.st333{fill:url(#SVGID_108_);}
	.st334{fill:url(#SVGID_109_);}
	.st335{opacity:0.25;}
	.st336{fill:url(#SVGID_110_);}
	.st337{fill:#03184C;}
	.st338{opacity:0.5;}
	.st339{fill:#29A6DD;}
	.st340{fill:#C7C7C7;}
	.st341{fill:#3B3735;}
	.st342{fill:#00A470;}
	.st343{fill:none;stroke:#808080;stroke-width:0.25;stroke-miterlimit:10;}
	.st344{fill:none;stroke:#C8B34C;stroke-width:0.5;stroke-miterlimit:10;}
	.st345{fill:none;stroke:#000000;stroke-miterlimit:10;}
	.st346{fill:url(#SVGID_111_);}
	.st347{opacity:0.28;fill:#666666;}
	.st348{opacity:0.8;fill:#E1E1E1;}
	.st349{fill:#CCC4A3;}
	.st350{filter:url(#Adobe_OpacityMaskFilter_16_);}
	.st351{fill:url(#SVGID_114_);}
	.st352{mask:url(#SVGID_113_);fill-rule:evenodd;clip-rule:evenodd;fill:#C5B04C;}
	.st353{filter:url(#Adobe_OpacityMaskFilter_17_);}
	.st354{fill:url(#SVGID_116_);}
	.st355{mask:url(#SVGID_115_);fill-rule:evenodd;clip-rule:evenodd;fill:#F1E5A7;}
	.st356{filter:url(#Adobe_OpacityMaskFilter_18_);}
	.st357{fill:url(#SVGID_118_);}
	.st358{mask:url(#SVGID_117_);fill-rule:evenodd;clip-rule:evenodd;fill:#F1E5A7;}
	.st359{filter:url(#Adobe_OpacityMaskFilter_19_);}
	.st360{fill:url(#SVGID_120_);}
	.st361{mask:url(#SVGID_119_);fill-rule:evenodd;clip-rule:evenodd;fill:#F1E5A7;}
	.st362{filter:url(#Adobe_OpacityMaskFilter_20_);}
	.st363{fill:url(#SVGID_122_);}
	.st364{mask:url(#SVGID_121_);fill-rule:evenodd;clip-rule:evenodd;fill:#F1E5A7;}
	.st365{filter:url(#Adobe_OpacityMaskFilter_21_);}
	.st366{fill:url(#SVGID_124_);}
	.st367{mask:url(#SVGID_123_);fill-rule:evenodd;clip-rule:evenodd;fill:#C5B04C;}
	.st368{filter:url(#Adobe_OpacityMaskFilter_22_);}
	.st369{fill:url(#SVGID_126_);}
	.st370{mask:url(#SVGID_125_);fill-rule:evenodd;clip-rule:evenodd;fill:#C5B04C;}
	.st371{display:none;}
	.st372{display:inline;}
	.st373{opacity:0.8;}
	.st374{fill-rule:evenodd;clip-rule:evenodd;fill:#020202;}
	
		.st375{fill-rule:evenodd;clip-rule:evenodd;fill:none;stroke:#BDBDBD;stroke-width:0.3727;stroke-linecap:square;stroke-miterlimit:10;}
	.st376{fill-rule:evenodd;clip-rule:evenodd;fill:#2BB898;}
	.st377{fill-rule:evenodd;clip-rule:evenodd;fill:#D39241;}
	.st378{fill-rule:evenodd;clip-rule:evenodd;fill:#385BA6;}
	.st379{display:inline;fill-rule:evenodd;clip-rule:evenodd;fill:#606060;}
	.st380{display:inline;fill:none;stroke:#C7C7C7;stroke-width:0.25;stroke-miterlimit:10;}
	.st381{display:inline;fill:none;stroke:#C8B34C;stroke-miterlimit:10;}
</style>
<g id="Layer_1">
	<g>
		<path class="st107" d="M25.76,35.86c3.7-1.26,6.79-3.63,8.96-6.66c2.17-3.03,3.41-6.72,3.41-10.64c0-5.05-2.05-9.62-5.35-12.92
			c-3.45-3.2-7.68-4.97-12.59-5.08c-3.34,0-6.55,0.91-9.32,2.56C9.78,3.87,8.48,4.77,7.29,5.81c7.14-7.15,18.27-7.49,25.77-0.45
			c3.38,3.38,5.47,8.05,5.47,13.2c0,3.99-1.27,7.77-3.49,10.86c-2.22,3.1-5.38,5.52-9.16,6.81L25.76,35.86z"/>
		<path class="st108" d="M22.6,28c3.29,2.81,8.17,3.26,11.98,0.78c0.68-0.44,1.29-0.96,1.83-1.52c0.76-1.45,1.33-3.03,1.69-4.71
			c0.9-4.25,0.25-8.47-1.57-12.06c0.63,1.82,0.79,3.83,0.36,5.86c-0.63,2.97-2.4,5.41-4.77,6.94c-2.36,1.54-5.31,2.17-8.28,1.54
			c-2.6-0.55-4.79-1.98-6.32-3.9C18.99,23.56,20.63,26.13,22.6,28"/>
		<defs>
			<filter id="Adobe_OpacityMaskFilter" filterUnits="userSpaceOnUse" x="17.51" y="10.49" width="20.98" height="19.91">
				<feColorMatrix  type="matrix" values="1 0 0 0 0  0 1 0 0 0  0 0 1 0 0  0 0 0 1 0"/>
			</filter>
		</defs>
		<mask maskUnits="userSpaceOnUse" x="17.51" y="10.49" width="20.98" height="19.91" id="SVGID_1_">
			<g class="st20">
				
					<linearGradient id="SVGID_2_" gradientUnits="userSpaceOnUse" x1="-455.1256" y1="285.4244" x2="-457.0125" y2="280.1135" gradientTransform="matrix(1 0 0 1 486.0986 -256.6284)">
					<stop  offset="0" style="stop-color:#FFFFFF"/>
					<stop  offset="1" style="stop-color:#000000"/>
				</linearGradient>
				<rect x="17.51" y="10.49" style="fill:url(#SVGID_2_);" width="20.98" height="19.91"/>
			</g>
		</mask>
		<path style="mask:url(#SVGID_1_);fill-rule:evenodd;clip-rule:evenodd;fill:#C5B04C;" d="M22.6,28c3.29,2.81,8.17,3.26,11.98,0.78
			c0.68-0.44,1.29-0.96,1.83-1.52c0.76-1.45,1.33-3.03,1.69-4.71c0.9-4.25,0.25-8.47-1.57-12.06c0.63,1.82,0.79,3.83,0.36,5.86
			c-0.63,2.97-2.4,5.41-4.77,6.94c-2.36,1.54-5.31,2.17-8.28,1.54c-2.6-0.55-4.79-1.98-6.32-3.9C18.99,23.56,20.63,26.13,22.6,28"/>
		<path class="st108" d="M5.26,29.79h0.31l-0.01-0.01h3.25c0.24,0,0.43-0.19,0.43-0.43v-3.66c0-0.24-0.19-0.43-0.43-0.43H5.23
			c-0.24,0-0.43-0.19-0.43-0.43v-1.94c0-0.24,0.19-0.43,0.43-0.43h1.62c0.24,0,0.43-0.19,0.43-0.43V20.4c0-0.24-0.19-0.43-0.43-0.43
			H5.23C5,19.97,4.8,20.17,4.8,20.4v1.62c0,0.24-0.19,0.43-0.43,0.43H3.2c-0.04-1.41,0.11-2.91,0.49-4.49
			c0.86-3.59,1.91-6.47-1.18-8.09c3.68-1.89,6.35-1.28,8.45,0.48c2.74,2.29,5.1,8.62,8.41,13.65c0.05,0.07,0.1,0.15,0.15,0.22
			c0.86,1.23,1.78,2.36,2.78,3.32l0,0c1.7,1.45,3.82,2.29,6,2.43c5.62,0.12,8.77-2.81,9.83-8c0.18-0.83,0.29-1.67,0.36-2.49
			c-0.04,1.02-0.17,2.04-0.39,3.07c-1.15,5.42-4.53,9.98-9.46,12.56c-4.72,2.47-10.13,2.67-14.85,0.9c0.02-0.05,0.02-0.09,0.02-0.14
			v-5.59c0-0.24-0.19-0.43-0.43-0.43h-3.8c-0.24,0-0.43,0.19-0.43,0.43v3.18l-0.02-0.01v0.24c0,0.24-0.19,0.43-0.43,0.43H5.26
			c-0.24,0-0.43-0.19-0.43-0.43v-3.45c0-0.24-0.19-0.43-0.43-0.43H0.74c-0.24,0-0.43-0.19-0.43-0.43V25.7
			c0-0.24,0.19-0.43,0.43-0.43h1.49c0.05,0.02,0.11,0.03,0.16,0.03h1.18h0.73c0.24,0,0.43,0.19,0.43,0.43v2.67v0.95
			c0,0.24,0.19,0.43,0.43,0.43C5.18,29.79,5.22,29.79,5.26,29.79 M12.08,20.91h0.98c0.24,0,0.43,0.19,0.43,0.43v0.98
			c0,0.24-0.19,0.43-0.43,0.43h-0.98c-0.24,0-0.43,0.19-0.43,0.43v1.54c0,0.24-0.19,0.43-0.43,0.43H9.68
			c-0.24,0-0.43-0.19-0.43-0.43v-1.54c0-0.24,0.19-0.43,0.43-0.43h1.54c0.24,0,0.43-0.19,0.43-0.43v-0.98
			C11.65,21.1,11.84,20.91,12.08,20.91z"/>
		<defs>
			<filter id="Adobe_OpacityMaskFilter_1_" filterUnits="userSpaceOnUse" x="5.76" y="20.59" width="27.22" height="16.58">
				<feColorMatrix  type="matrix" values="1 0 0 0 0  0 1 0 0 0  0 0 1 0 0  0 0 0 1 0"/>
			</filter>
		</defs>
		<mask maskUnits="userSpaceOnUse" x="5.76" y="20.59" width="27.22" height="16.58" id="SVGID_3_">
			<g class="st23">
				
					<linearGradient id="SVGID_4_" gradientUnits="userSpaceOnUse" x1="-417.8701" y1="259.858" x2="-429.9895" y2="262.8189" gradientTransform="matrix(1 0 0 1 444.7514 -232.8151)">
					<stop  offset="0" style="stop-color:#FFFFFF"/>
					<stop  offset="1" style="stop-color:#000000"/>
				</linearGradient>
				<rect x="5.76" y="20.59" style="fill:url(#SVGID_4_);" width="27.22" height="16.58"/>
			</g>
		</mask>
		<path style="mask:url(#SVGID_3_);fill-rule:evenodd;clip-rule:evenodd;fill:#F1E5A7;" d="M12.18,29.84
			c-1.16-1.35-2.02-2.93-2.45-4.69H9.68H9.25v-0.43v-0.91c-0.32-1.06-0.53-2.15-0.67-3.22c-0.67,0.92-1.29,1.87-1.29,1.87
			s-0.39,1.28-0.78,2.8h2.3h0.43v0.43v3.66v0.43H8.81H5.76c0,0,0,0.01,0,0.01h3.37v3.64c0.01,0,0.01,0.01,0.02,0.01v-3.18v-0.43
			h0.43h2.42H12.18z M32.98,31.91c-5.28,4.71-13.95,3.84-19.17-0.48v4.43c0,0.05-0.01,0.1-0.03,0.14c0.86,0.32,1.75,0.58,2.65,0.77
			c4.55,0.96,9.47,0.18,13.68-2.56c1.05-0.68,2.01-1.46,2.87-2.31H32.98z"/>
		<defs>
			<filter id="Adobe_OpacityMaskFilter_2_" filterUnits="userSpaceOnUse" x="2.52" y="8.71" width="35.96" height="28.46">
				<feColorMatrix  type="matrix" values="1 0 0 0 0  0 1 0 0 0  0 0 1 0 0  0 0 0 1 0"/>
			</filter>
		</defs>
		<mask maskUnits="userSpaceOnUse" x="2.52" y="8.71" width="35.96" height="28.46" id="SVGID_5_">
			<g class="st26">
				
					<linearGradient id="SVGID_6_" gradientUnits="userSpaceOnUse" x1="-403.5987" y1="261.7644" x2="-412.4076" y2="256.0215" gradientTransform="matrix(1 0 0 1 433.3487 -232.7936)">
					<stop  offset="0" style="stop-color:#FFFFFF"/>
					<stop  offset="1" style="stop-color:#000000"/>
				</linearGradient>
				<rect x="2.52" y="8.71" class="st7" width="35.96" height="28.46"/>
			</g>
		</mask>
		<path style="mask:url(#SVGID_5_);fill-rule:evenodd;clip-rule:evenodd;fill:#F1E5A7;" d="M11.65,22.32v-0.98v-0.43h0.43h0.98h0.43
			v0.43v0.98v0.43h-0.43h-0.98c-0.24,0-0.43,0.19-0.43,0.43v1.54v0.43h-0.43H9.73c0,0.01,0.01,0.02,0.01,0.03
			c0.53,1.28,2.21,2.02,3.22,3.12c0.24,0.24,0.49,0.48,0.77,0.71c1.74,1.46,3.24,3.07,5.35,4.09c3.54,1.71,7.57,2.05,11.12,0.55
			c0.84-0.36,1.64-0.82,2.37-1.39c0.14-0.11,0.27-0.22,0.41-0.33l0.01,0c-0.86,0.85-1.82,1.62-2.87,2.31
			c-4.21,2.74-9.13,3.51-13.68,2.56c4.03,0.85,8.34,0.35,12.2-1.67c4.69-2.45,7.97-6.7,9.27-11.76c-0.01,0.04-0.02,0.07-0.03,0.1
			c0.08-0.3,0.15-0.6,0.21-0.9c0.22-1.03,0.34-2.05,0.39-3.07c-0.06,0.83-0.18,1.66-0.36,2.49c-0.37,1.76-0.96,3.28-1.79,4.51
			c-3.5,4.28-9.9,4.59-14.04,1.06l0,0c-1-0.96-1.92-2.09-2.78-3.32c-0.05-0.07-0.1-0.15-0.15-0.22c-0.65-0.99-1.26-2.03-1.85-3.07
			c-2.4-4.29-4.36-8.74-6.56-10.58C8.85,8.59,6.2,7.98,2.52,9.86c6.13-0.55,5.26,4.93,6.06,10.72c0.15,1.08,0.35,2.16,0.67,3.22
			v-0.63v-0.43h0.43h1.54C11.46,22.75,11.65,22.56,11.65,22.32"/>
		<defs>
			<filter id="Adobe_OpacityMaskFilter_3_" filterUnits="userSpaceOnUse" x="2.52" y="8.71" width="35.96" height="28.46">
				<feColorMatrix  type="matrix" values="1 0 0 0 0  0 1 0 0 0  0 0 1 0 0  0 0 0 1 0"/>
			</filter>
		</defs>
		<mask maskUnits="userSpaceOnUse" x="2.52" y="8.71" width="35.96" height="28.46" id="SVGID_7_">
			<g class="st29">
				
					<linearGradient id="SVGID_8_" gradientUnits="userSpaceOnUse" x1="-424.8758" y1="238.2042" x2="-415.5923" y2="251.7331" gradientTransform="matrix(1 0 0 1 433.3487 -232.7936)">
					<stop  offset="0" style="stop-color:#FFFFFF"/>
					<stop  offset="1" style="stop-color:#000000"/>
				</linearGradient>
				<rect x="2.52" y="8.71" style="fill:url(#SVGID_8_);" width="35.96" height="28.46"/>
			</g>
		</mask>
		<path style="mask:url(#SVGID_7_);fill-rule:evenodd;clip-rule:evenodd;fill:#F1E5A7;" d="M11.65,22.32v-0.98
			c0-0.24,0.19-0.43,0.43-0.43h0.98h0.43v0.43v0.98v0.43h-0.43h-0.98c-0.24,0-0.43,0.19-0.43,0.43v1.54c0,0.24-0.19,0.43-0.43,0.43
			h-0.76c-0.17,0-0.31,0.09-0.38,0.24c-0.07,0.15-0.06,0.32,0.04,0.45c0.66,0.88,1.72,1.48,2.54,2.37c0.24,0.24,0.49,0.48,0.77,0.71
			c0.15,0.12,0.3,0.24,0.45,0.36l0.5,0.54c4.3,4.07,10.53,6.35,15.82,3.82c0.84-0.36,1.64-0.82,2.37-1.39
			c0.14-0.11,0.27-0.22,0.41-0.33l0.01,0c-0.86,0.85-1.82,1.62-2.87,2.31c-4.21,2.74-9.13,3.51-13.68,2.56
			c4.03,0.85,8.34,0.35,12.2-1.67c4.69-2.45,7.97-6.7,9.27-11.76c-0.01,0.04-0.02,0.07-0.03,0.1c0.08-0.3,0.15-0.6,0.21-0.9
			c0.22-1.03,0.34-2.05,0.39-3.07c-0.06,0.83-0.18,1.66-0.36,2.49c-0.37,1.76-0.96,3.28-1.79,4.51c-1.66,2.45-4.27,3.73-8.04,3.49
			c-2.18-0.14-4.29-0.97-6-2.43l0,0c-1-0.96-1.92-2.09-2.78-3.32c-0.05-0.07-0.1-0.15-0.15-0.22c-0.65-0.99-1.26-2.03-1.85-3.07
			c-2.4-4.29-4.36-8.74-6.56-10.58C8.85,8.59,6.2,7.98,2.52,9.86c6.13-0.55,5.26,4.93,6.06,10.72c0.15,1.08,0.35,2.16,0.67,3.22
			v-0.63c0-0.24,0.19-0.43,0.43-0.43h1.54C11.46,22.75,11.65,22.56,11.65,22.32"/>
		<defs>
			<filter id="Adobe_OpacityMaskFilter_4_" filterUnits="userSpaceOnUse" x="2.52" y="8.71" width="35.96" height="28.46">
				<feColorMatrix  type="matrix" values="1 0 0 0 0  0 1 0 0 0  0 0 1 0 0  0 0 0 1 0"/>
			</filter>
		</defs>
		<mask maskUnits="userSpaceOnUse" x="2.52" y="8.71" width="35.96" height="28.46" id="SVGID_9_">
			<g class="st32">
				
					<linearGradient id="SVGID_10_" gradientUnits="userSpaceOnUse" x1="-420.1208" y1="237.1954" x2="-415.4834" y2="249.0136" gradientTransform="matrix(1 0 0 1 433.3487 -232.7936)">
					<stop  offset="0" style="stop-color:#FFFFFF"/>
					<stop  offset="1" style="stop-color:#000000"/>
				</linearGradient>
				<rect x="2.52" y="8.71" style="fill:url(#SVGID_10_);" width="35.96" height="28.46"/>
			</g>
		</mask>
		<path style="mask:url(#SVGID_9_);fill-rule:evenodd;clip-rule:evenodd;fill:#F1E5A7;" d="M11.65,22.32v-0.98
			c0-0.24,0.19-0.43,0.43-0.43h0.98h0.43v0.43v0.98v0.43h-0.43h-0.98c-0.24,0-0.43,0.19-0.43,0.43v1.54c0,0.24-0.19,0.43-0.43,0.43
			h-0.76c-0.17,0-0.31,0.09-0.38,0.24c-0.07,0.15-0.06,0.32,0.04,0.45c0.66,0.88,1.72,1.48,2.54,2.37c0.24,0.24,0.49,0.48,0.77,0.71
			c0.15,0.12,0.3,0.24,0.45,0.36l0.5,0.54c4.3,4.07,10.53,6.35,15.82,3.82c0.84-0.36,1.64-0.82,2.37-1.39
			c0.14-0.11,0.27-0.22,0.41-0.33l0.01,0c-0.86,0.85-1.82,1.62-2.87,2.31c-4.21,2.74-9.13,3.51-13.68,2.56
			c4.03,0.85,8.34,0.35,12.2-1.67c4.69-2.45,7.97-6.7,9.27-11.76c-0.01,0.04-0.02,0.07-0.03,0.1c0.08-0.3,0.15-0.6,0.21-0.9
			c0.22-1.03,0.34-2.05,0.39-3.07c-0.06,0.83-0.18,1.66-0.36,2.49c-0.37,1.76-0.96,3.28-1.79,4.51c-1.66,2.45-4.27,3.73-8.04,3.49
			c-2.18-0.14-4.29-0.97-6-2.43l0,0c-1-0.96-1.92-2.09-2.78-3.32c-0.05-0.07-0.1-0.15-0.15-0.22c-0.65-0.99-1.26-2.03-1.85-3.07
			c-2.4-4.29-4.36-8.74-6.56-10.58C8.85,8.59,6.2,7.98,2.52,9.86c6.13-0.55,5.26,4.93,6.06,10.72c0.15,1.08,0.35,2.16,0.67,3.22
			v-0.63c0-0.24,0.19-0.43,0.43-0.43h1.54C11.46,22.75,11.65,22.56,11.65,22.32"/>
		<path class="st124" d="M7.73,13.5c-0.89-1.81-2.6-1.85-3.39-1.67c-0.57-1.37-1.82-1.97-1.82-1.97S6.84,9.1,7.73,13.5"/>
		<defs>
			<filter id="Adobe_OpacityMaskFilter_5_" filterUnits="userSpaceOnUse" x="19.02" y="23.48" width="14.87" height="6.51">
				<feColorMatrix  type="matrix" values="1 0 0 0 0  0 1 0 0 0  0 0 1 0 0  0 0 0 1 0"/>
			</filter>
		</defs>
		<mask maskUnits="userSpaceOnUse" x="19.02" y="23.48" width="14.87" height="6.51" id="SVGID_11_">
			<g class="st36">
				
					<linearGradient id="SVGID_12_" gradientUnits="userSpaceOnUse" x1="-470.4812" y1="286.9497" x2="-458.8306" y2="282.4514" gradientTransform="matrix(1 0 0 1 491.4079 -258.0809)">
					<stop  offset="0" style="stop-color:#FFFFFF"/>
					<stop  offset="1" style="stop-color:#000000"/>
				</linearGradient>
				<rect x="19.02" y="23.48" class="st13" width="14.87" height="6.51"/>
			</g>
		</mask>
		<path style="mask:url(#SVGID_11_);fill-rule:evenodd;clip-rule:evenodd;fill:#C5B04C;" d="M19.03,23.48
			c0.11,0.18,0.22,0.35,0.34,0.52c0.86,1.26,1.82,2.48,2.93,3.54l0,0c1.7,1.45,3.82,2.29,6,2.43c2.14,0.14,3.91-0.45,5.34-1.23
			c0.24-0.14,0.67-1.93-0.67-2.03C28.23,30.21,22.31,27.84,19.03,23.48L19.03,23.48z"/>
		<defs>
			<filter id="Adobe_OpacityMaskFilter_6_" filterUnits="userSpaceOnUse" x="9.73" y="25.15" width="23.25" height="9.93">
				<feColorMatrix  type="matrix" values="1 0 0 0 0  0 1 0 0 0  0 0 1 0 0  0 0 0 1 0"/>
			</filter>
		</defs>
		<mask maskUnits="userSpaceOnUse" x="9.73" y="25.15" width="23.25" height="9.93" id="SVGID_13_">
			<g class="st39">
				
					<linearGradient id="SVGID_14_" gradientUnits="userSpaceOnUse" x1="-431.3471" y1="277.1437" x2="-436.8939" y2="270.8098" gradientTransform="matrix(1 0 0 1 458.7004 -240.1804)">
					<stop  offset="0" style="stop-color:#FFFFFF"/>
					<stop  offset="1" style="stop-color:#000000"/>
				</linearGradient>
				<rect x="9.73" y="25.15" class="st15" width="23.25" height="9.93"/>
			</g>
		</mask>
		<path style="mask:url(#SVGID_13_);fill-rule:evenodd;clip-rule:evenodd;fill:#C5B04C;" d="M13.81,31.43
			c4.22,3.49,10.7,4.72,15.82,2.57c1.01-0.42,1.97-0.98,2.84-1.68c0.17-0.14,0.34-0.28,0.5-0.42c-0.13,0.12-0.27,0.23-0.41,0.33
			c-0.74,0.58-1.53,1.04-2.37,1.39c-5.29,2.52-11.52,0.24-15.82-3.82l-0.5-0.54c-0.15-0.12-0.3-0.24-0.45-0.36
			c-0.27-0.23-0.53-0.46-0.77-0.71c-0.82-0.9-1.89-1.49-2.54-2.37c-0.02-0.03-0.04-0.06-0.06-0.1c-0.13-0.18-0.24-0.36-0.32-0.56
			c0-0.01-0.01-0.02-0.01-0.03c0.43,1.76,1.29,3.34,2.45,4.69h1.2l0.01,0l0.01,0l0.01,0l0.01,0l0.01,0l0.01,0l0.01,0v0l0.01,0
			l0.01,0l0.01,0l0.01,0l0.01,0l0.01,0l0.01,0l0.01,0l0.01,0l0.01,0l0.01,0l0.01,0l0.01,0l0.01,0.01l0.01,0.01v0l0.01,0.01
			l0.01,0.01v0l0.01,0.01v0l0.01,0.01l0.01,0.01l0.01,0.01l0.01,0.01v0l0.01,0.01v0l0.01,0.01l0.01,0.01l0.01,0.01l0.01,0.01v0
			l0.01,0.01l0.01,0.01L13.72,30l0.01,0.01v0l0.01,0.01l0.01,0.01v0l0.01,0.01l0.01,0.01l0.01,0.01v0l0.01,0.01l0,0.01l0,0.01
			l0,0.01l0,0.01l0,0.01l0,0.01v0l0,0.01v0l0,0.01l0,0.01l0,0.01l0,0.01l0,0.01l0,0.01v0l0,0.01l0,0.01l0,0.01l0,0.01l0,0.01l0,0.01
			l0,0.01V31.43z"/>
	</g>
</g>
<g id="Layer_2" class="st371">
</g>
<g id="Layer_3">
</g>
<g id="Layer_4">
</g>
</svg>
