<?xml version="1.0" encoding="utf-8"?>
<!-- Generator: Adobe Illustrator 24.1.1, SVG Export Plug-In . SVG Version: 6.00 Build 0)  -->
<svg version="1.1" id="Layer_1" xmlns="http://www.w3.org/2000/svg" xmlns:xlink="http://www.w3.org/1999/xlink" x="0px" y="0px"
	 viewBox="0 0 39.79 40.66" style="enable-background:new 0 0 39.79 40.66;" xml:space="preserve">
<style type="text/css">
	.st0{fill:#A0A0A0;}
	.st1{fill:#E1E1E1;}
</style>
<g>
	<path class="st0" d="M11.87,31.17c-0.01-0.07-0.02-0.15-0.04-0.22c-0.01-0.07-0.03-0.14-0.04-0.2c-0.01-0.06-0.02-0.11-0.03-0.15
		s-0.02-0.07-0.02-0.07l-0.42,0.13c0.01,0.02,0.01,0.05,0.02,0.1c0.01,0.04,0.02,0.09,0.03,0.15c0.01,0.05,0.02,0.11,0.03,0.17
		c0.01,0.06,0.02,0.12,0.03,0.18c0.01,0.06,0.02,0.12,0.02,0.17c0.01,0.05,0.01,0.1,0.01,0.13c0,0.1-0.01,0.18-0.05,0.23
		c-0.03,0.06-0.07,0.1-0.11,0.13c-0.04,0.03-0.08,0.05-0.13,0.06c-0.04,0.01-0.08,0.02-0.1,0.02c-0.16,0-0.28-0.04-0.36-0.11
		c-0.07-0.07-0.11-0.19-0.11-0.34v-0.71h-0.44v0.71c0,0.1-0.02,0.18-0.05,0.24c-0.03,0.06-0.07,0.1-0.11,0.13
		c-0.04,0.03-0.09,0.05-0.13,0.06C9.83,32,9.8,32.01,9.78,32.01c-0.16,0-0.28-0.04-0.35-0.11c-0.07-0.07-0.11-0.18-0.11-0.34v-0.71
		H8.87v0.71v0.01c0,0.1-0.02,0.18-0.05,0.24c-0.03,0.06-0.07,0.1-0.11,0.13C8.67,31.97,8.62,31.99,8.58,32
		c-0.04,0.01-0.08,0.01-0.1,0.01H7.99H7.96H7.02H6.98H6.15c0,0-0.01,0-0.02-0.01S6.12,32,6.1,31.99c-0.02-0.01-0.04-0.02-0.06-0.03
		c-0.03-0.01-0.05-0.03-0.09-0.06c0.05-0.05,0.1-0.09,0.15-0.15c0.06-0.05,0.11-0.11,0.16-0.16c0.05-0.06,0.1-0.12,0.15-0.18
		c0.05-0.06,0.08-0.13,0.11-0.19c0.03-0.07,0.04-0.14,0.04-0.21c0-0.07-0.02-0.14-0.05-0.21c-0.05-0.11-0.13-0.2-0.23-0.26
		c-0.11-0.06-0.22-0.1-0.35-0.1H5.14c-0.26,0-0.45,0.07-0.57,0.2c-0.03,0.04-0.06,0.07-0.08,0.11c-0.02,0.04-0.03,0.08-0.04,0.11
		c-0.01,0.04-0.02,0.07-0.02,0.11c0,0.04,0,0.07,0,0.1v0.09c0.02,0.02,0.05,0.05,0.1,0.1c0.05,0.05,0.11,0.1,0.18,0.17
		c0.07,0.07,0.14,0.14,0.22,0.21c0.08,0.07,0.16,0.15,0.24,0.22c-0.12,0.05-0.28,0.09-0.46,0.11C4.53,32,4.33,32.01,4.1,32.01H4.03
		H3.97H3.1H3.04c-0.06,0-0.12-0.01-0.2-0.02c-0.07-0.01-0.15-0.04-0.22-0.08c-0.07-0.04-0.14-0.09-0.2-0.17
		c-0.06-0.07-0.11-0.17-0.14-0.28c-0.01-0.04-0.02-0.08-0.04-0.14c-0.01-0.06-0.03-0.11-0.05-0.18c-0.02-0.06-0.03-0.13-0.05-0.19
		c-0.02-0.07-0.03-0.13-0.04-0.19c-0.01-0.06-0.03-0.11-0.04-0.15c-0.01-0.04-0.02-0.08-0.02-0.09C2.02,30.43,2,30.32,1.97,30.2
		c-0.03-0.12-0.06-0.26-0.1-0.42l-0.43,0.09l0.05,0.26c-0.39,0.12-0.7,0.29-0.91,0.51c-0.12,0.13-0.21,0.27-0.26,0.42
		c-0.05,0.15-0.06,0.31-0.03,0.48c0.02,0.13,0.07,0.25,0.14,0.35c0.07,0.1,0.16,0.18,0.27,0.24c0.07,0.04,0.15,0.07,0.23,0.09
		c0.08,0.02,0.15,0.03,0.23,0.03s0.14-0.01,0.21-0.02c0.07-0.01,0.12-0.03,0.17-0.05c0.09-0.04,0.17-0.08,0.24-0.14
		c0.07-0.05,0.13-0.11,0.18-0.18c0.1,0.19,0.25,0.34,0.43,0.45c0.18,0.1,0.39,0.16,0.64,0.16c0,0,0,0,0,0h0.02H3.1h0.87h0.06H4.1
		c0.3,0,0.57-0.02,0.82-0.07c0.24-0.05,0.46-0.12,0.64-0.22c0.08,0.06,0.15,0.11,0.21,0.15c0.06,0.04,0.12,0.07,0.16,0.09
		c0.05,0.02,0.09,0.03,0.12,0.04c0.03,0.01,0.07,0.01,0.09,0.01h0.82h0.04h0.94h0.03h0.49c0.11,0,0.22-0.02,0.33-0.06
		c0.11-0.04,0.2-0.11,0.29-0.19c0.08,0.08,0.18,0.14,0.29,0.19c0.12,0.04,0.25,0.06,0.39,0.06c0.11,0,0.22-0.02,0.32-0.06
		c0.11-0.04,0.2-0.11,0.28-0.19c0.08,0.09,0.18,0.15,0.29,0.19c0.12,0.04,0.25,0.07,0.4,0.07c0.1,0,0.2-0.02,0.3-0.06
		c0.1-0.04,0.19-0.09,0.27-0.17c0.08-0.07,0.14-0.17,0.19-0.28c0.05-0.11,0.07-0.24,0.07-0.39c0-0.05,0-0.11-0.01-0.18
		C11.89,31.32,11.88,31.25,11.87,31.17z M1.7,31.3c-0.03,0.22-0.15,0.36-0.35,0.45c-0.03,0.01-0.06,0.02-0.1,0.03
		c-0.04,0.01-0.08,0.01-0.12,0.01c-0.04,0-0.08-0.01-0.12-0.01c-0.04-0.01-0.08-0.02-0.11-0.04c-0.05-0.03-0.09-0.06-0.13-0.11
		c-0.04-0.04-0.06-0.1-0.07-0.17c-0.02-0.1-0.01-0.19,0.02-0.28c0.03-0.09,0.09-0.17,0.17-0.25c0.08-0.08,0.18-0.15,0.3-0.21
		s0.26-0.12,0.41-0.16l0.09,0.41c0,0.02,0.01,0.06,0.02,0.13C1.71,31.15,1.71,31.22,1.7,31.3z M5.83,31.41
		c-0.08,0.08-0.16,0.15-0.24,0.21c-0.06-0.05-0.12-0.1-0.19-0.16c-0.07-0.06-0.14-0.12-0.2-0.18c-0.07-0.06-0.13-0.12-0.19-0.17
		c-0.06-0.05-0.1-0.09-0.13-0.12c0-0.01,0.01-0.02,0.01-0.03c0-0.01,0.01-0.01,0.01-0.02c0,0,0.01-0.01,0.02-0.02
		c0.01-0.01,0.02-0.01,0.04-0.02C4.97,30.9,5,30.89,5.03,30.89c0.03,0,0.07-0.01,0.11-0.01h0.78c0.05,0,0.09,0.01,0.12,0.03
		c0.03,0.02,0.05,0.04,0.06,0.07c0.02,0.03,0.02,0.06,0.01,0.09c-0.01,0.03-0.03,0.05-0.04,0.08C5.98,31.25,5.91,31.33,5.83,31.41z"
		/>
	<polygon class="st0" points="17.49,29.65 17.1,29.27 16.73,29.65 17.11,30.03 	"/>
	<path class="st0" d="M17.35,31.18c-0.01-0.07-0.02-0.15-0.04-0.22c-0.01-0.07-0.03-0.14-0.04-0.2c-0.01-0.06-0.02-0.11-0.03-0.15
		c-0.01-0.04-0.02-0.07-0.02-0.08l-0.42,0.13c0.01,0.02,0.01,0.06,0.02,0.1c0.01,0.04,0.02,0.09,0.03,0.15
		c0.01,0.06,0.02,0.12,0.03,0.18c0.01,0.06,0.02,0.13,0.03,0.19c0.01,0.06,0.02,0.12,0.02,0.17c0.01,0.05,0.01,0.1,0.01,0.13
		c0,0.1-0.02,0.18-0.05,0.24c-0.03,0.06-0.07,0.1-0.11,0.13c-0.04,0.03-0.09,0.05-0.13,0.05c-0.04,0.01-0.08,0.01-0.1,0.01h-0.92
		h-0.06h-0.91h-0.04h-0.32v-0.45c0-0.42-0.11-0.73-0.32-0.93c-0.08-0.07-0.16-0.12-0.26-0.16c-0.1-0.03-0.2-0.05-0.31-0.05
		c-0.13,0-0.25,0.02-0.36,0.07s-0.21,0.11-0.3,0.2c-0.03,0.03-0.06,0.08-0.1,0.13c-0.03,0.05-0.06,0.11-0.09,0.17
		c-0.03,0.07-0.05,0.14-0.07,0.23c-0.02,0.08-0.03,0.18-0.03,0.28c0,0.18,0.03,0.33,0.09,0.45c0.06,0.12,0.13,0.22,0.23,0.3
		c0.09,0.08,0.19,0.13,0.31,0.16c0.11,0.03,0.23,0.05,0.34,0.05h0.43c0,0.15-0.02,0.28-0.06,0.38c-0.04,0.1-0.1,0.19-0.18,0.25
		c-0.09,0.08-0.22,0.13-0.39,0.17c-0.16,0.04-0.36,0.05-0.6,0.05v0.45c0.29,0,0.54-0.03,0.75-0.08c0.21-0.05,0.38-0.13,0.52-0.24
		c0.14-0.11,0.24-0.24,0.3-0.41c0.07-0.16,0.1-0.35,0.1-0.58h0.32h0.04h0.91h0.06h0.92c0.1,0,0.2-0.02,0.3-0.05
		c0.1-0.03,0.19-0.09,0.27-0.16c0.08-0.07,0.14-0.16,0.19-0.27c0.05-0.11,0.07-0.24,0.07-0.39c0-0.05,0-0.11-0.01-0.18
		C17.37,31.33,17.36,31.26,17.35,31.18z M13.86,32.01h-0.43c-0.02,0-0.04,0-0.06,0c-0.02,0-0.05-0.01-0.08-0.01
		c-0.03-0.01-0.06-0.01-0.09-0.03c-0.03-0.01-0.06-0.03-0.09-0.05c-0.12-0.08-0.18-0.22-0.18-0.42c0-0.2,0.04-0.36,0.13-0.47
		c0.09-0.11,0.21-0.17,0.36-0.17c0.02,0,0.04,0,0.07,0c0.03,0,0.06,0.01,0.09,0.02c0.03,0.01,0.07,0.03,0.1,0.06
		c0.03,0.03,0.06,0.07,0.09,0.12c0.03,0.05,0.05,0.12,0.07,0.2c0.02,0.08,0.03,0.18,0.03,0.29V32.01z"/>
	<polygon class="st0" points="16.58,29.65 16.2,29.27 15.83,29.65 16.2,30.03 	"/>
	<polygon class="st0" points="21.86,29.55 21.48,29.16 21.11,29.55 21.48,29.92 	"/>
	<polygon class="st0" points="22.77,29.55 22.38,29.17 22.01,29.55 22.39,29.93 	"/>
	<path class="st0" d="M22.31,30.47c-0.1-0.03-0.2-0.05-0.31-0.05c-0.13,0-0.25,0.02-0.36,0.07c-0.11,0.05-0.21,0.11-0.3,0.2
		c-0.03,0.03-0.06,0.08-0.1,0.13c-0.03,0.05-0.06,0.11-0.09,0.17c-0.03,0.07-0.05,0.14-0.07,0.23c-0.02,0.08-0.03,0.18-0.03,0.28
		c0,0.18,0.03,0.33,0.09,0.45c0.06,0.12,0.13,0.22,0.23,0.3c0.09,0.08,0.19,0.13,0.31,0.16c0.11,0.03,0.22,0.05,0.34,0.05h0.43
		c0,0.15-0.02,0.28-0.06,0.38c-0.04,0.1-0.1,0.19-0.18,0.25c-0.09,0.08-0.22,0.13-0.39,0.17c-0.16,0.04-0.36,0.05-0.6,0.05v0h-0.21
		c-0.17,0-0.32-0.04-0.45-0.11c-0.13-0.07-0.24-0.17-0.32-0.3c-0.06-0.1-0.11-0.21-0.13-0.34c-0.03-0.13-0.03-0.27-0.02-0.42
		c0.01-0.15,0.04-0.31,0.1-0.48c0.05-0.17,0.12-0.34,0.21-0.53l-0.4-0.19c-0.11,0.22-0.19,0.43-0.25,0.63
		c-0.06,0.2-0.09,0.4-0.1,0.58c-0.01,0.19,0,0.36,0.04,0.52c0.04,0.16,0.1,0.31,0.18,0.45c0.06,0.1,0.13,0.18,0.21,0.26
		c0.08,0.08,0.17,0.14,0.27,0.19c0.1,0.05,0.2,0.09,0.32,0.12c0.11,0.03,0.23,0.04,0.35,0.04h0.24v0c0.29,0,0.54-0.03,0.74-0.08
		c0.2-0.05,0.37-0.13,0.51-0.24c0.14-0.11,0.24-0.24,0.3-0.41c0.07-0.16,0.1-0.35,0.1-0.58v-0.89c0-0.42-0.11-0.73-0.32-0.93
		C22.49,30.56,22.4,30.51,22.31,30.47z M22.44,32.01h-0.43c-0.02,0-0.04,0-0.06,0c-0.02,0-0.05-0.01-0.08-0.01s-0.06-0.01-0.09-0.03
		c-0.03-0.01-0.06-0.03-0.09-0.05c-0.12-0.08-0.18-0.22-0.18-0.42c0-0.2,0.04-0.36,0.13-0.47c0.09-0.11,0.21-0.17,0.36-0.17
		c0.02,0,0.04,0,0.07,0c0.03,0,0.06,0.01,0.09,0.02c0.03,0.01,0.07,0.03,0.1,0.06c0.03,0.03,0.06,0.07,0.09,0.12
		c0.03,0.05,0.05,0.12,0.07,0.2c0.02,0.08,0.03,0.18,0.03,0.29V32.01z"/>
	<path class="st0" d="M25.29,33.03c0.07-0.16,0.1-0.35,0.1-0.58v-0.45v-0.45c0-0.42-0.11-0.73-0.32-0.93
		c-0.08-0.07-0.16-0.12-0.26-0.16c-0.1-0.03-0.2-0.05-0.31-0.05c-0.13,0-0.25,0.02-0.36,0.07c-0.11,0.05-0.21,0.11-0.3,0.2
		c-0.03,0.03-0.06,0.08-0.1,0.13c-0.03,0.05-0.06,0.11-0.09,0.17c-0.03,0.07-0.05,0.14-0.07,0.23c-0.02,0.08-0.03,0.18-0.03,0.28
		c0,0.18,0.03,0.33,0.09,0.45c0.06,0.12,0.13,0.22,0.23,0.3c0.09,0.08,0.2,0.13,0.31,0.16c0.11,0.03,0.23,0.05,0.34,0.05h0.43
		c0,0.15-0.02,0.28-0.06,0.38c-0.04,0.1-0.1,0.19-0.18,0.25c-0.09,0.08-0.22,0.13-0.39,0.17s-0.36,0.05-0.6,0.05v0.45
		c0.29,0,0.54-0.03,0.75-0.08c0.21-0.05,0.38-0.13,0.52-0.24C25.12,33.33,25.22,33.2,25.29,33.03z M24.94,32.01h-0.43
		c-0.02,0-0.04,0-0.06,0c-0.02,0-0.05-0.01-0.08-0.01c-0.03-0.01-0.06-0.01-0.09-0.03c-0.03-0.01-0.06-0.03-0.09-0.05
		C24.06,31.84,24,31.7,24,31.5c0-0.2,0.04-0.36,0.13-0.47c0.09-0.11,0.21-0.17,0.36-0.17c0.02,0,0.04,0,0.07,0
		c0.03,0,0.06,0.01,0.09,0.02c0.03,0.01,0.07,0.03,0.1,0.06c0.03,0.03,0.06,0.07,0.09,0.12c0.03,0.05,0.05,0.12,0.07,0.2
		c0.02,0.08,0.03,0.18,0.03,0.29V32.01z"/>
	<path class="st0" d="M31.34,32.46h0.13h0.05h0.93h0.03h0.95h0.03h0.95h0.03h0.94h0.04h0.37c0.16,0,0.3-0.02,0.41-0.06
		c0.12-0.04,0.22-0.1,0.3-0.18c0.02,0.02,0.04,0.03,0.05,0.05c0.08,0.06,0.17,0.11,0.27,0.15c0.1,0.03,0.21,0.05,0.32,0.05h1.35
		c0.11,0,0.22-0.02,0.34-0.05c0.11-0.03,0.22-0.09,0.31-0.16c0.09-0.08,0.17-0.17,0.22-0.3c0.06-0.12,0.09-0.27,0.09-0.44
		c0-0.19-0.03-0.35-0.08-0.48s-0.12-0.25-0.21-0.33c-0.09-0.09-0.19-0.15-0.3-0.19c-0.11-0.04-0.22-0.06-0.34-0.06
		c-0.12,0-0.22,0.02-0.33,0.06c-0.1,0.04-0.2,0.09-0.29,0.16c-0.09,0.07-0.18,0.14-0.26,0.23c-0.08,0.09-0.16,0.18-0.23,0.28
		c-0.07,0.1-0.14,0.2-0.21,0.31c-0.07,0.1-0.13,0.21-0.19,0.31c-0.02,0.03-0.04,0.06-0.06,0.09c-0.02,0.03-0.04,0.06-0.06,0.09
		c-0.05-0.02-0.09-0.06-0.13-0.11c-0.04-0.05-0.06-0.12-0.06-0.21v-0.78h-0.44v0.8c0,0.04-0.01,0.08-0.02,0.12
		c-0.01,0.04-0.03,0.08-0.07,0.11c-0.03,0.03-0.09,0.06-0.15,0.08c-0.07,0.02-0.15,0.03-0.26,0.03h-0.35h-0.04h-0.94h-0.03h-0.95
		h-0.03h-0.95h-0.03h-0.93h-0.05h-0.13c-0.01,0-0.03,0-0.06,0c-0.03,0-0.05-0.01-0.09-0.01c-0.03-0.01-0.06-0.02-0.1-0.04
		c-0.03-0.02-0.06-0.04-0.09-0.06c-0.03-0.03-0.05-0.06-0.07-0.1c-0.02-0.04-0.03-0.09-0.03-0.15v-0.78h-0.44v0.8
		c0,0.04-0.01,0.08-0.02,0.12c-0.01,0.04-0.03,0.08-0.07,0.11c-0.03,0.03-0.08,0.06-0.15,0.09c-0.07,0.02-0.16,0.03-0.27,0.03h-0.36
		h-0.09h-0.85H28.6h-0.01c-0.07,0-0.14-0.02-0.19-0.06c-0.06-0.04-0.12-0.09-0.17-0.15c-0.05-0.06-0.1-0.12-0.15-0.2
		c-0.05-0.07-0.1-0.14-0.14-0.21L27.01,30l-0.38,0.25l0.89,1.35c0.04,0.06,0.06,0.11,0.08,0.16c0.01,0.05,0.01,0.09-0.01,0.11
		c-0.02,0.03-0.05,0.06-0.11,0.09c-0.06,0.03-0.13,0.05-0.23,0.06c-0.08,0.01-0.16,0.02-0.26,0.02s-0.18,0-0.27-0.01
		c-0.09-0.01-0.17-0.02-0.25-0.04c-0.08-0.02-0.15-0.05-0.2-0.08l-0.2-0.11l-0.22,0.39l0.19,0.11c0.06,0.03,0.12,0.06,0.2,0.09
		c0.07,0.02,0.15,0.04,0.23,0.06c0.08,0.01,0.16,0.03,0.24,0.03c0.08,0.01,0.16,0.01,0.24,0.01c0.07,0,0.13,0,0.19-0.01
		c0.06,0,0.12-0.01,0.17-0.02c0.3-0.04,0.5-0.14,0.62-0.3c0.2,0.2,0.41,0.29,0.65,0.29h0.01h0.07h0.85h0.09h0.36
		c0.32,0,0.56-0.08,0.73-0.25c0.07,0.08,0.15,0.14,0.26,0.18C31.07,32.44,31.2,32.46,31.34,32.46z M37.63,31.62
		c0.09-0.13,0.18-0.26,0.27-0.37c0.1-0.11,0.19-0.2,0.3-0.27c0.1-0.07,0.21-0.11,0.32-0.11c0.15,0,0.27,0.05,0.35,0.16
		C38.96,31.15,39,31.3,39,31.5c0,0.08-0.01,0.16-0.04,0.22c-0.02,0.06-0.06,0.12-0.1,0.16c-0.04,0.04-0.1,0.07-0.16,0.1
		s-0.13,0.03-0.21,0.03h-1.11C37.46,31.88,37.54,31.75,37.63,31.62z"/>
	
		<rect x="30.27" y="29.48" transform="matrix(0.7071 -0.7071 0.7071 0.7071 -12.102 30.3281)" class="st0" width="0.57" height="0.58"/>
	
		<rect x="1.8" y="37.17" transform="matrix(0.7029 -0.7113 0.7113 0.7029 -26.0232 12.6147)" class="st0" width="0.57" height="0.58"/>
	<path class="st0" d="M6.5,39.02c0.08-0.07,0.14-0.16,0.19-0.27c0.05-0.11,0.07-0.24,0.07-0.39c0-0.05,0-0.11-0.01-0.18
		c-0.01-0.07-0.02-0.14-0.03-0.22c-0.01-0.07-0.02-0.15-0.04-0.22s-0.03-0.14-0.04-0.2c-0.01-0.06-0.02-0.11-0.03-0.15
		c-0.01-0.04-0.02-0.07-0.02-0.08l-0.42,0.13c0.01,0.02,0.01,0.06,0.02,0.1c0.01,0.04,0.02,0.09,0.03,0.15
		c0.01,0.06,0.02,0.12,0.03,0.18c0.01,0.06,0.02,0.13,0.03,0.19c0.01,0.06,0.02,0.12,0.02,0.17c0.01,0.05,0.01,0.1,0.01,0.13
		c0,0.1-0.02,0.18-0.05,0.24c-0.03,0.06-0.07,0.1-0.11,0.13c-0.04,0.03-0.09,0.05-0.13,0.05c-0.04,0.01-0.08,0.01-0.1,0.01H5.01
		H4.95H4.06H4H3.97c-0.06,0-0.12-0.01-0.17-0.03c-0.05-0.02-0.09-0.05-0.13-0.08c-0.04-0.04-0.07-0.08-0.09-0.13
		c-0.02-0.05-0.03-0.11-0.03-0.17v-0.73H3.1v0.72v0.02v0.93c0,0.12-0.01,0.23-0.03,0.33c-0.02,0.1-0.07,0.18-0.13,0.25
		C2.87,39.94,2.78,40,2.67,40.04c-0.11,0.04-0.26,0.06-0.44,0.06H1.67c-0.17,0-0.32-0.04-0.45-0.11c-0.13-0.07-0.24-0.17-0.32-0.3
		c-0.06-0.1-0.11-0.21-0.13-0.34c-0.03-0.13-0.03-0.27-0.02-0.42c0.01-0.15,0.04-0.31,0.1-0.48c0.05-0.17,0.12-0.34,0.21-0.53
		l-0.4-0.19c-0.1,0.22-0.19,0.43-0.24,0.63c-0.06,0.2-0.09,0.4-0.1,0.58c-0.01,0.19,0,0.36,0.04,0.52c0.04,0.16,0.1,0.31,0.18,0.45
		c0.12,0.2,0.28,0.35,0.48,0.45c0.2,0.11,0.42,0.16,0.66,0.16h0.56c0.44,0,0.77-0.1,0.99-0.31c0.22-0.21,0.33-0.52,0.33-0.93v-0.17
		c0.13,0.07,0.27,0.1,0.42,0.1H4h0.06h0.89h0.06h0.92c0.1,0,0.2-0.02,0.3-0.05C6.33,39.15,6.42,39.09,6.5,39.02z"/>
	<polygon class="st0" points="5.12,40.14 5.49,40.52 5.87,40.14 5.49,39.76 	"/>
	<polygon class="st0" points="6.02,40.13 6.39,40.52 6.77,40.13 6.4,39.75 	"/>
	<path class="st0" d="M11.01,37.96c-0.01-0.07-0.02-0.15-0.04-0.22s-0.03-0.14-0.04-0.2c-0.01-0.06-0.02-0.11-0.03-0.15
		c-0.01-0.04-0.02-0.07-0.02-0.08l-0.42,0.13c0.01,0.02,0.01,0.06,0.02,0.1c0.01,0.04,0.02,0.09,0.03,0.15
		c0.01,0.06,0.02,0.12,0.03,0.18c0.01,0.06,0.02,0.13,0.03,0.19c0.01,0.06,0.02,0.12,0.02,0.17c0.01,0.05,0.01,0.1,0.01,0.13
		c0,0.1-0.02,0.18-0.05,0.24c-0.03,0.06-0.07,0.1-0.11,0.13c-0.04,0.03-0.09,0.05-0.13,0.05c-0.04,0.01-0.08,0.01-0.1,0.01H9.67
		H9.62h-0.3v-0.45c0-0.42-0.11-0.73-0.32-0.93c-0.08-0.07-0.16-0.12-0.26-0.16c-0.1-0.03-0.2-0.05-0.31-0.05
		c-0.13,0-0.25,0.02-0.36,0.07c-0.11,0.05-0.21,0.11-0.3,0.2c-0.03,0.03-0.06,0.08-0.1,0.13c-0.03,0.05-0.06,0.11-0.09,0.17
		c-0.03,0.07-0.05,0.14-0.07,0.23c-0.02,0.08-0.03,0.18-0.03,0.28c0,0.18,0.03,0.33,0.09,0.45c0.06,0.12,0.13,0.22,0.23,0.3
		c0.09,0.08,0.19,0.13,0.31,0.16c0.11,0.03,0.23,0.05,0.34,0.05h0.43c0,0.15-0.02,0.28-0.06,0.38c-0.04,0.1-0.1,0.19-0.18,0.25
		C8.53,39.94,8.41,40,8.24,40.04c-0.16,0.04-0.36,0.05-0.6,0.05v0.45c0.29,0,0.54-0.03,0.75-0.08c0.21-0.05,0.38-0.13,0.52-0.24
		c0.14-0.11,0.24-0.24,0.3-0.41c0.07-0.16,0.1-0.35,0.1-0.58h0.3h0.05h0.55c0.1,0,0.2-0.02,0.3-0.05c0.1-0.03,0.19-0.09,0.27-0.16
		c0.08-0.07,0.14-0.16,0.19-0.27c0.05-0.11,0.07-0.24,0.07-0.39c0-0.05,0-0.11-0.01-0.18C11.03,38.11,11.03,38.03,11.01,37.96z
		 M8.87,38.79H8.43c-0.02,0-0.04,0-0.06,0c-0.02,0-0.05-0.01-0.08-0.01c-0.03-0.01-0.06-0.01-0.09-0.03
		c-0.03-0.01-0.06-0.03-0.09-0.05c-0.12-0.08-0.18-0.22-0.18-0.42c0-0.2,0.04-0.36,0.13-0.47c0.09-0.11,0.21-0.17,0.36-0.17
		c0.02,0,0.04,0,0.07,0c0.03,0,0.06,0.01,0.09,0.02c0.03,0.01,0.07,0.03,0.1,0.06c0.03,0.03,0.06,0.07,0.09,0.12
		c0.03,0.05,0.05,0.12,0.07,0.2c0.02,0.08,0.03,0.18,0.03,0.29V38.79z"/>
	
		<rect x="10.21" y="36.05" transform="matrix(0.707 -0.7072 0.7072 0.707 -22.6214 18.0736)" class="st0" width="0.57" height="0.58"/>
	<path class="st0" d="M15.51,37.31c-0.15,0.07-0.29,0.17-0.41,0.28c-0.12,0.12-0.21,0.25-0.27,0.4c-0.06,0.15-0.1,0.31-0.1,0.48
		c0,0.17,0.03,0.35,0.1,0.53c0.05,0.01,0.11,0.03,0.18,0.04c0.06,0.02,0.13,0.03,0.2,0.05c0.07,0.02,0.13,0.04,0.2,0.05
		c0.07,0.02,0.13,0.04,0.19,0.05c0.14,0.04,0.29,0.08,0.44,0.12c0,0.14-0.02,0.25-0.05,0.35c-0.04,0.1-0.09,0.17-0.17,0.23
		c-0.08,0.06-0.17,0.1-0.29,0.13c-0.12,0.03-0.25,0.04-0.41,0.04H14.6c-0.16,0-0.31-0.04-0.45-0.11c-0.14-0.07-0.25-0.17-0.33-0.3
		c-0.05-0.09-0.09-0.18-0.12-0.29c-0.03-0.11-0.04-0.22-0.04-0.33c0-0.33,0.1-0.71,0.31-1.16c-0.07-0.03-0.13-0.06-0.19-0.1
		c-0.06-0.03-0.13-0.06-0.2-0.1c-0.12,0.25-0.21,0.49-0.27,0.72c-0.06,0.23-0.09,0.44-0.09,0.64c0,0.16,0.02,0.31,0.06,0.45
		c0.04,0.14,0.09,0.27,0.17,0.39c0.06,0.09,0.14,0.17,0.22,0.25s0.17,0.14,0.27,0.19c0.1,0.05,0.2,0.1,0.32,0.13
		c0.11,0.03,0.23,0.04,0.35,0.04h0.52c0.24,0,0.45-0.03,0.62-0.08c0.17-0.05,0.31-0.13,0.41-0.23c0.11-0.1,0.19-0.23,0.23-0.39
		c0.05-0.16,0.07-0.34,0.07-0.54c0-0.11-0.03-0.21-0.09-0.29c-0.06-0.08-0.16-0.14-0.28-0.17l-0.9-0.22
		c-0.02-0.12-0.01-0.23,0.02-0.33c0.03-0.1,0.07-0.19,0.13-0.27c0.06-0.08,0.13-0.15,0.22-0.21c0.09-0.06,0.18-0.1,0.28-0.13
		c0.1-0.03,0.21-0.05,0.32-0.05c0.11,0,0.22,0.02,0.33,0.05l0.11-0.43c-0.2-0.06-0.38-0.08-0.57-0.06
		C15.83,37.2,15.66,37.24,15.51,37.31z"/>
	<path class="st0" d="M22.67,38.15c-0.03-0.06-0.06-0.13-0.11-0.2c-0.02-0.03-0.05-0.07-0.09-0.12c-0.04-0.05-0.09-0.11-0.14-0.17
		c-0.05-0.06-0.11-0.13-0.18-0.2c-0.06-0.07-0.13-0.14-0.19-0.2c-0.15-0.16-0.31-0.33-0.48-0.51l-0.32,0.31
		c0.1,0.1,0.19,0.2,0.3,0.3c0.1,0.1,0.2,0.2,0.29,0.3c0.09,0.1,0.18,0.2,0.26,0.29c0.08,0.1,0.14,0.19,0.19,0.28
		c0.05,0.09,0.08,0.17,0.1,0.25c0.02,0.08,0.01,0.15-0.02,0.21c-0.03,0.05-0.06,0.09-0.09,0.13c-0.03,0.03-0.07,0.06-0.11,0.08
		c-0.04,0.02-0.09,0.03-0.13,0.04c-0.05,0.01-0.09,0.01-0.14,0.01c-0.07,0-0.15-0.01-0.22-0.03c-0.07-0.02-0.15-0.04-0.21-0.07
		c0.12-0.1,0.21-0.21,0.27-0.34c0.06-0.13,0.09-0.28,0.09-0.44c0-0.06-0.01-0.12-0.02-0.18c-0.02-0.07-0.04-0.13-0.07-0.19
		c-0.03-0.06-0.07-0.13-0.12-0.18c-0.05-0.06-0.1-0.11-0.17-0.16c-0.06-0.04-0.14-0.08-0.22-0.11c-0.08-0.03-0.17-0.04-0.26-0.04
		c-0.13,0-0.24,0.02-0.35,0.06c-0.11,0.04-0.2,0.1-0.28,0.17c-0.08,0.07-0.14,0.16-0.18,0.26c-0.04,0.1-0.07,0.21-0.07,0.33
		c0,0.15,0.03,0.29,0.08,0.41c0.05,0.12,0.13,0.23,0.25,0.33c-0.09,0.01-0.18,0.02-0.29,0.02c-0.11,0-0.22,0-0.32,0h-0.28h-0.07
		h-0.9c-0.13,0-0.24-0.01-0.31-0.03c-0.07-0.02-0.13-0.05-0.17-0.09c-0.04-0.05-0.06-0.11-0.07-0.2c-0.01-0.09-0.01-0.2-0.01-0.33
		v-2.27h-0.45v2.27c0,0.12,0,0.23,0.01,0.34c0.01,0.1,0.02,0.19,0.05,0.27c0.03,0.08,0.06,0.15,0.11,0.21
		c0.05,0.06,0.1,0.11,0.18,0.15c0.07,0.04,0.17,0.07,0.27,0.09c0.1,0.02,0.21,0.03,0.34,0.03c0,0,0,0,0,0h0.94h0.07h0.28
		c0.23,0,0.44-0.01,0.64-0.03c0.2-0.02,0.37-0.06,0.52-0.1c0.02,0.01,0.04,0.02,0.07,0.03c0.03,0.01,0.05,0.03,0.08,0.04
		c0.03,0.01,0.06,0.03,0.1,0.04c0.12,0.06,0.24,0.1,0.36,0.13s0.23,0.04,0.33,0.04c0.11,0,0.22-0.01,0.32-0.04
		c0.1-0.03,0.18-0.07,0.26-0.12c0.08-0.05,0.14-0.12,0.2-0.19c0.05-0.07,0.09-0.16,0.12-0.25c0.02-0.08,0.04-0.15,0.04-0.22
		c0.01-0.07,0-0.14-0.01-0.2C22.72,38.28,22.7,38.21,22.67,38.15z M21.26,38.24c-0.02,0.06-0.05,0.11-0.09,0.16
		c-0.04,0.05-0.08,0.09-0.13,0.13c-0.05,0.04-0.1,0.07-0.16,0.09c-0.09-0.04-0.16-0.09-0.22-0.13c-0.06-0.04-0.11-0.09-0.15-0.13
		c-0.04-0.05-0.07-0.1-0.09-0.15c-0.02-0.05-0.03-0.12-0.03-0.18c0-0.06,0.01-0.11,0.03-0.16s0.05-0.09,0.09-0.13
		c0.04-0.03,0.09-0.06,0.14-0.08c0.05-0.02,0.11-0.03,0.18-0.03c0.03,0,0.08,0.01,0.13,0.02c0.05,0.01,0.1,0.04,0.14,0.07
		c0.05,0.03,0.09,0.08,0.12,0.13c0.03,0.05,0.05,0.12,0.05,0.2C21.29,38.12,21.28,38.19,21.26,38.24z"/>
	<path class="st0" d="M27.17,37.31c-0.15,0.07-0.29,0.17-0.41,0.28c-0.12,0.12-0.21,0.25-0.27,0.4c-0.06,0.15-0.1,0.31-0.1,0.48
		s0.03,0.35,0.1,0.53c0.05,0.01,0.11,0.03,0.18,0.04c0.06,0.02,0.13,0.03,0.2,0.05c0.07,0.02,0.13,0.04,0.2,0.05
		c0.07,0.02,0.13,0.04,0.19,0.05c0.14,0.04,0.29,0.08,0.44,0.12c0,0.14-0.02,0.25-0.05,0.35s-0.09,0.17-0.17,0.23
		c-0.08,0.06-0.17,0.1-0.29,0.13c-0.12,0.03-0.25,0.04-0.41,0.04h-0.52c-0.16,0-0.31-0.04-0.45-0.11c-0.14-0.07-0.25-0.17-0.33-0.3
		c-0.05-0.09-0.09-0.18-0.12-0.29c-0.03-0.11-0.04-0.22-0.04-0.33c0-0.33,0.1-0.71,0.31-1.16c-0.07-0.03-0.13-0.06-0.19-0.1
		c-0.06-0.03-0.13-0.06-0.2-0.1c-0.12,0.25-0.21,0.49-0.27,0.72c-0.06,0.23-0.09,0.44-0.09,0.64c0,0.16,0.02,0.31,0.06,0.45
		c0.04,0.14,0.09,0.27,0.17,0.39c0.06,0.09,0.14,0.17,0.22,0.25s0.17,0.14,0.27,0.19c0.1,0.05,0.2,0.1,0.32,0.13
		c0.11,0.03,0.23,0.04,0.35,0.04h0.52c0.24,0,0.45-0.03,0.62-0.08c0.17-0.05,0.31-0.13,0.41-0.23c0.11-0.1,0.19-0.23,0.23-0.39
		c0.05-0.16,0.07-0.34,0.07-0.54c0-0.11-0.03-0.21-0.09-0.29c-0.06-0.08-0.16-0.14-0.28-0.17l-0.9-0.22
		c-0.02-0.12-0.01-0.23,0.02-0.33c0.03-0.1,0.07-0.19,0.13-0.27c0.06-0.08,0.13-0.15,0.22-0.21c0.09-0.06,0.18-0.1,0.28-0.13
		c0.1-0.03,0.21-0.05,0.32-0.05c0.11,0,0.22,0.02,0.33,0.05l0.11-0.43c-0.2-0.06-0.38-0.08-0.57-0.06
		C27.49,37.2,27.32,37.24,27.17,37.31z"/>
	<path class="st0" d="M29.62,39.11c0,0.17-0.02,0.32-0.06,0.44c-0.04,0.12-0.09,0.23-0.17,0.31c-0.08,0.08-0.18,0.14-0.3,0.18
		c-0.12,0.04-0.26,0.06-0.42,0.06h-0.33v0.45h0.33c0.23,0,0.43-0.03,0.6-0.1c0.17-0.07,0.32-0.16,0.44-0.28
		c0.12-0.12,0.2-0.27,0.26-0.45c0.06-0.18,0.09-0.38,0.09-0.6v-1.47h-0.45V39.11z"/>
	<path class="st0" d="M31.96,37.25c-0.1-0.03-0.2-0.05-0.31-0.05c-0.13,0-0.25,0.02-0.36,0.07c-0.11,0.05-0.21,0.11-0.3,0.2
		c-0.03,0.03-0.06,0.08-0.1,0.13c-0.03,0.05-0.06,0.11-0.09,0.17s-0.05,0.14-0.07,0.23c-0.02,0.08-0.03,0.18-0.03,0.28
		c0,0.18,0.03,0.33,0.09,0.45c0.06,0.12,0.13,0.22,0.23,0.3c0.09,0.08,0.2,0.13,0.31,0.16c0.11,0.03,0.23,0.05,0.34,0.05h0.43
		c0,0.15-0.02,0.28-0.06,0.38c-0.04,0.1-0.1,0.19-0.18,0.25c-0.09,0.08-0.22,0.13-0.39,0.17c-0.16,0.04-0.36,0.05-0.6,0.05v0.45
		c0.29,0,0.54-0.03,0.75-0.08c0.21-0.05,0.38-0.13,0.52-0.24c0.14-0.11,0.24-0.24,0.3-0.41c0.07-0.16,0.1-0.35,0.1-0.58v-0.45v-0.45
		c0-0.42-0.11-0.73-0.32-0.93C32.14,37.34,32.06,37.28,31.96,37.25z M32.1,38.79h-0.43c-0.02,0-0.04,0-0.06,0
		c-0.02,0-0.05-0.01-0.08-0.01c-0.03-0.01-0.06-0.01-0.09-0.03c-0.03-0.01-0.06-0.03-0.09-0.05c-0.12-0.08-0.18-0.22-0.18-0.42
		c0-0.2,0.04-0.36,0.13-0.47c0.09-0.11,0.21-0.17,0.36-0.17c0.02,0,0.04,0,0.07,0c0.03,0,0.06,0.01,0.09,0.02
		c0.03,0.01,0.07,0.03,0.1,0.06c0.03,0.03,0.06,0.07,0.09,0.12c0.03,0.05,0.05,0.12,0.07,0.2c0.02,0.08,0.03,0.18,0.03,0.29V38.79z"
		/>
	
		<rect x="36.01" y="36.26" transform="matrix(0.7112 -0.703 0.703 0.7112 -15.2108 36.0704)" class="st0" width="0.57" height="0.58"/>
	
		<rect x="38.14" y="35.43" transform="matrix(0.7112 -0.703 0.703 0.7112 -14.0125 37.3289)" class="st0" width="0.57" height="0.58"/>
	<path class="st0" d="M39.15,37c-0.08-0.11-0.18-0.19-0.29-0.25c-0.12-0.06-0.24-0.09-0.38-0.09c-0.12,0-0.23,0.02-0.34,0.06
		c-0.11,0.04-0.2,0.1-0.28,0.19c-0.08,0.08-0.14,0.18-0.19,0.29s-0.07,0.24-0.07,0.36c0,0.1,0.01,0.19,0.03,0.27s0.05,0.14,0.09,0.2
		c0.04,0.06,0.08,0.1,0.12,0.14c0.04,0.04,0.09,0.07,0.13,0.09c0.05,0.03,0.11,0.05,0.16,0.07c0.06,0.02,0.11,0.03,0.16,0.04
		c0.05,0.01,0.11,0.01,0.16,0.02c0.05,0,0.1,0,0.14,0h0.36c0,0.04-0.02,0.08-0.04,0.13s-0.06,0.09-0.12,0.12
		c-0.06,0.04-0.14,0.07-0.25,0.09c-0.11,0.03-0.25,0.04-0.43,0.04h-0.85h-0.06h-0.13c-0.01,0-0.03,0-0.06,0
		c-0.03,0-0.05-0.01-0.09-0.01c-0.03-0.01-0.06-0.02-0.1-0.04c-0.03-0.02-0.06-0.04-0.09-0.06c-0.03-0.03-0.05-0.06-0.07-0.1
		c-0.02-0.04-0.03-0.09-0.03-0.15v-0.78h-0.44v0.8c0,0.04-0.01,0.08-0.02,0.12c-0.01,0.04-0.03,0.08-0.07,0.11
		c-0.03,0.03-0.08,0.06-0.15,0.09c-0.07,0.02-0.16,0.03-0.27,0.03h-0.36h-0.09h-0.88c-0.13,0-0.24-0.01-0.31-0.03
		c-0.07-0.02-0.13-0.05-0.17-0.09c-0.04-0.05-0.06-0.11-0.07-0.2c-0.01-0.09-0.01-0.2-0.01-0.33v-2.27h-0.45v2.27
		c0,0.12,0,0.23,0.01,0.34c0.01,0.1,0.02,0.19,0.05,0.27c0.03,0.08,0.06,0.15,0.11,0.21c0.05,0.06,0.1,0.11,0.18,0.15
		c0.07,0.04,0.17,0.07,0.27,0.09c0.1,0.02,0.21,0.03,0.34,0.03c0,0,0,0,0,0h0.92h0.09h0.36c0.32,0,0.56-0.08,0.73-0.25
		c0.07,0.08,0.15,0.14,0.26,0.18c0.11,0.04,0.24,0.06,0.38,0.06h0.13h0.06h0.85c0.4,0,0.7-0.07,0.91-0.2
		c0.13-0.08,0.22-0.17,0.28-0.3c0.06-0.12,0.09-0.26,0.09-0.42v-0.33c0-0.22-0.02-0.41-0.06-0.57C39.29,37.25,39.23,37.11,39.15,37z
		 M38.59,37.95c-0.09,0-0.17-0.01-0.23-0.02c-0.07-0.01-0.12-0.03-0.17-0.06c-0.02-0.01-0.04-0.02-0.05-0.04
		c-0.02-0.01-0.04-0.03-0.05-0.06c-0.02-0.02-0.03-0.05-0.04-0.09c-0.01-0.04-0.02-0.08-0.02-0.13c0-0.08,0.01-0.15,0.04-0.21
		c0.03-0.06,0.06-0.11,0.11-0.14c0.04-0.04,0.09-0.06,0.15-0.08c0.05-0.02,0.11-0.03,0.16-0.03c0.13,0,0.24,0.05,0.31,0.15
		c0.05,0.07,0.09,0.17,0.12,0.29c0.03,0.12,0.05,0.25,0.05,0.41H38.59z"/>
</g>
<g>
	<path class="st0" d="M24.51,5.68h-9.33C15.19,5.68,19.38,2.34,24.51,5.68z"/>
	<polygon class="st0" points="26.56,7.77 27.36,9.07 8.11,9.07 8.6,7.77 	"/>
	<polygon class="st0" points="28.01,11.22 28.11,12.46 7.61,12.46 7.71,11.22 	"/>
	<path class="st0" d="M27.96,14.61c0,0-0.1,0.5-0.45,1.3H7.96l-0.2-1.3H27.96z"/>
	<polygon class="st0" points="32.1,12.86 32,14.16 11.65,14.16 11.55,12.86 	"/>
	<polygon class="st0" points="31.6,16.3 31.15,17.6 12.99,17.6 12.34,16.3 	"/>
	<polygon class="st0" points="12.2,9.47 11.8,10.77 31.95,10.77 31.7,9.47 	"/>
	<path class="st0" d="M24.51,19.69h-9.28C15.24,19.69,19.33,23.19,24.51,19.69z"/>
	<path class="st0" d="M14.29,19.34h10.67L26.31,18H8.65c0,0,3.09,7.33,10.92,7.33S30.8,18.9,30.9,18c0,0-2.64,4.94-8.23,4.94
		S15.24,20.44,14.29,19.34z"/>
	<path class="st0" d="M14.69,6.03c0,0-1.05,0.95-1.3,1.35H30.9c0,0-2.89-7.28-10.87-7.28S9.15,6.63,8.8,7.37
		c0,0,2.94-4.99,8.48-4.99s8.18,3.69,8.18,3.69L14.69,6.03z"/>
</g>
</svg>
