<?xml version="1.0" encoding="utf-8"?>
<!-- Generator: Adobe Illustrator 24.1.1, SVG Export Plug-In . SVG Version: 6.00 Build 0)  -->
<svg version="1.1" id="Layer_1" xmlns="http://www.w3.org/2000/svg" xmlns:xlink="http://www.w3.org/1999/xlink" x="0px" y="0px"
	 viewBox="0 0 28.89 29.08" style="enable-background:new 0 0 28.89 29.08;" xml:space="preserve">
<style type="text/css">
	.st0{fill:#A0A0A0;}
	.st1{fill:#E1E1E1;}
</style>
<g>
	<g>
		<g>
			<path class="st0" d="M10.18,10.41c-0.06-0.09-0.13-0.17-0.2-0.26c-0.03-0.04-0.06-0.07-0.09-0.11C9.14,9.23,8.05,8.72,6.84,8.72
				c-2.28,0-4.12,1.81-4.12,4.04c0,0.77,0.22,1.48,0.6,2.09c0.1,0.17,0.22,0.33,0.34,0.48c0.37,0.46,0.84,0.87,1.4,1.21
				c0.89,0.54,1.94,0.76,2.97,0.74h4.28c0-0.24-0.22-4.2-2.04-6.75C10.25,10.49,10.22,10.45,10.18,10.41z"/>
			<path class="st0" d="M22.08,8.69c-1.21,0-2.3,0.51-3.05,1.32c-0.03,0.03-0.06,0.07-0.09,0.11c-0.07,0.08-0.14,0.17-0.2,0.26
				c-0.03,0.04-0.06,0.08-0.09,0.13c-1.82,2.55-2.04,6.51-2.04,6.75h4.28c1.02,0.01,2.07-0.21,2.97-0.74
				c0.56-0.34,1.03-0.75,1.4-1.21c0.13-0.15,0.24-0.31,0.34-0.48c0.38-0.61,0.6-1.32,0.6-2.09C26.2,10.5,24.36,8.69,22.08,8.69z"/>
			<path class="st0" d="M20.31,5.08c0-2.76-2.66-5-5.95-5c-3.28,0-5.95,2.24-5.95,5c0,2.22,1.73,4.11,4.11,4.76
				c0.17,0.05,0.35,0.03,0.49-0.06c0.18-0.1,0.3-0.3,0.26-0.65c-0.02-0.13-0.06-0.26-0.13-0.38c-0.06-0.12-0.15-0.3-0.18-0.43
				c-0.03-0.12-0.04-0.25-0.04-0.38c0-0.94,0.76-1.68,1.65-1.58C15.26,6.43,15.81,7,15.9,7.71c0.05,0.4-0.04,0.77-0.22,1.08
				c-0.11,0.18-0.18,0.39-0.15,0.61c0,0,0,0.01,0,0.01c0.04,0.32,0.34,0.52,0.63,0.44C18.56,9.21,20.31,7.31,20.31,5.08z"/>
		</g>
		<g>
			<path class="st0" d="M10.18,10.45c-0.06-0.09-0.13-0.17-0.2-0.26c-0.03-0.04-0.06-0.07-0.09-0.11C9.14,9.28,8.05,8.76,6.84,8.76
				c-2.28,0-4.12,1.81-4.12,4.04c0,0.77,0.22,1.48,0.6,2.09c0.1,0.17,0.22,0.33,0.34,0.48c0.37,0.46,0.84,0.87,1.4,1.21
				c0.89,0.54,1.94,0.76,2.97,0.74h4.28c0-0.24-0.22-4.2-2.04-6.75C10.25,10.53,10.22,10.49,10.18,10.45z"/>
			<path class="st0" d="M22.08,8.73c-1.21,0-2.3,0.51-3.05,1.32c-0.03,0.03-0.06,0.07-0.09,0.11c-0.07,0.08-0.14,0.17-0.2,0.26
				c-0.03,0.04-0.06,0.08-0.09,0.13c-1.82,2.55-2.04,6.51-2.04,6.75h4.28c1.02,0.01,2.07-0.21,2.97-0.74
				c0.56-0.34,1.03-0.75,1.4-1.21c0.13-0.15,0.24-0.31,0.34-0.48c0.38-0.61,0.6-1.32,0.6-2.09C26.2,10.54,24.36,8.73,22.08,8.73z"/>
			<path class="st0" d="M20.31,5.12c0-2.76-2.66-5-5.95-5c-3.28,0-5.95,2.24-5.95,5c0,2.22,1.73,4.11,4.11,4.76
				c0.17,0.05,0.35,0.03,0.49-0.06c0.18-0.1,0.3-0.3,0.26-0.65c-0.02-0.13-0.06-0.26-0.13-0.38c-0.06-0.12-0.15-0.3-0.18-0.43
				c-0.03-0.12-0.04-0.25-0.04-0.38c0-0.94,0.76-1.68,1.65-1.58c0.67,0.08,1.22,0.65,1.31,1.36c0.05,0.4-0.04,0.77-0.22,1.08
				c-0.11,0.18-0.18,0.39-0.15,0.61c0,0,0,0.01,0,0.01c0.04,0.32,0.34,0.52,0.63,0.44C18.56,9.25,20.31,7.36,20.31,5.12z"/>
		</g>
	</g>
	<g>
		<g>
			<path class="st0" d="M0.69,20.7c0.01,0,0.01,0.01,0.02,0.02c0,0.01,0,0.03,0,0.04c0,0.06,0,0.14,0,0.22c0,0.08,0,0.17,0,0.26
				s0,0.17,0,0.26c0,0.08,0,0.16,0,0.22c0,0.07,0,0.16,0,0.25s0,0.19,0,0.3c0,0.1,0,0.21-0.01,0.32s-0.01,0.22-0.01,0.33
				c0,0.11-0.01,0.21-0.01,0.31c0,0.1-0.01,0.19-0.02,0.27l-0.01,0.02c-0.01,0.02-0.02,0.04-0.04,0.06
				c-0.02,0.03-0.04,0.05-0.06,0.08c-0.02,0.03-0.04,0.06-0.06,0.09c-0.02,0.03-0.04,0.05-0.06,0.08s-0.03,0.04-0.04,0.04h0
				c0,0,0,0,0,0s0-0.01,0-0.01c0-0.19-0.01-0.37-0.01-0.56c0-0.19-0.01-0.37-0.01-0.54s-0.01-0.34-0.02-0.49
				c-0.01-0.15-0.01-0.28-0.02-0.4c0-0.03,0-0.07-0.01-0.12c0-0.05-0.01-0.1-0.01-0.17s-0.01-0.15-0.01-0.24
				c0-0.09-0.01-0.21-0.02-0.33c0.01-0.01,0.03-0.02,0.05-0.04c0.02-0.02,0.05-0.04,0.08-0.06c0.03-0.02,0.06-0.05,0.09-0.07
				c0.03-0.02,0.06-0.04,0.09-0.06c0.03-0.02,0.05-0.04,0.08-0.05C0.67,20.7,0.68,20.7,0.69,20.7z"/>
			<path class="st0" d="M1.62,21.81c0,0,0.03,0.02,0.06,0.05c0.04,0.03,0.08,0.07,0.14,0.13c0.06,0.05,0.12,0.11,0.18,0.19
				c0.07,0.07,0.13,0.15,0.19,0.23c0.06,0.08,0.12,0.17,0.17,0.26c0.05,0.09,0.08,0.18,0.11,0.27c0.01,0.05,0.02,0.1,0.02,0.14
				c0,0.04,0,0.06,0,0.08c0,0.06,0,0.12-0.01,0.18c-0.01,0.06-0.02,0.12-0.03,0.18c-0.01,0.06-0.03,0.11-0.05,0.14
				c-0.01,0.01-0.02,0.03-0.05,0.05c-0.03,0.02-0.07,0.04-0.12,0.06c-0.05,0.02-0.12,0.04-0.2,0.06c-0.08,0.02-0.18,0.02-0.29,0.02
				c-0.09,0-0.18,0-0.26-0.01s-0.15-0.02-0.22-0.03s-0.11-0.02-0.15-0.04c-0.04-0.01-0.06-0.02-0.06-0.03
				c-0.01-0.02-0.02-0.04-0.03-0.08s-0.02-0.07-0.02-0.11C1,23.48,1,23.45,0.99,23.42c0-0.03,0-0.06,0-0.08v-0.02
				c0-0.01,0-0.03,0-0.05c0-0.02,0-0.03,0.01-0.03h0c0.02,0.01,0.04,0.02,0.08,0.04c0.04,0.01,0.08,0.03,0.14,0.04
				c0.06,0.01,0.13,0.03,0.21,0.03c0.08,0.01,0.17,0.01,0.28,0.01c0.05,0,0.1,0,0.15,0c0.06,0,0.11-0.01,0.16-0.02
				c0.05-0.01,0.11-0.03,0.16-0.05s0.09-0.05,0.13-0.09c-0.02-0.06-0.05-0.13-0.1-0.19c-0.04-0.06-0.09-0.13-0.15-0.19
				s-0.11-0.12-0.18-0.18s-0.13-0.12-0.19-0.17c-0.06-0.05-0.12-0.1-0.18-0.15c-0.06-0.05-0.11-0.09-0.16-0.13
				c0.02-0.03,0.04-0.06,0.05-0.09c0.02-0.03,0.04-0.06,0.05-0.08c0.01-0.02,0.03-0.04,0.04-0.07c0.02-0.03,0.03-0.05,0.05-0.07
				s0.03-0.04,0.04-0.06C1.61,21.82,1.62,21.81,1.62,21.81z"/>
			<path class="st0" d="M0.76,24.99C0.76,24.99,0.76,24.99,0.76,24.99L0.76,24.99z M3.23,22.64C3.23,22.64,3.24,22.64,3.23,22.64
				c0.03,0.05,0.05,0.09,0.07,0.14c0.02,0.05,0.05,0.1,0.08,0.15c0.03,0.05,0.06,0.1,0.09,0.15s0.07,0.09,0.1,0.13
				c0.04,0.04,0.07,0.07,0.11,0.09c0.04,0.02,0.08,0.04,0.12,0.04h0.02v0.47H3.81c-0.04,0-0.08-0.01-0.14-0.02s-0.11-0.04-0.17-0.08
				c0,0.03,0,0.07,0,0.1c0,0.1-0.02,0.2-0.05,0.3s-0.08,0.2-0.13,0.29s-0.13,0.18-0.21,0.25c-0.08,0.07-0.15,0.13-0.22,0.18
				c-0.07,0.05-0.14,0.09-0.2,0.11c-0.06,0.02-0.1,0.04-0.13,0.04c-0.01,0-0.01,0-0.01,0c-0.03-0.01-0.07-0.03-0.11-0.05
				s-0.09-0.05-0.14-0.07c-0.01-0.01-0.03-0.02-0.06-0.03c-0.02-0.01-0.05-0.03-0.08-0.04c-0.03-0.01-0.05-0.03-0.08-0.04
				c-0.02-0.01-0.04-0.02-0.06-0.03c-0.01-0.01-0.02-0.02-0.02-0.02c0,0,0,0,0.01-0.01c0,0,0.01-0.01,0.01-0.01
				c0.18-0.05,0.34-0.11,0.49-0.18c0.15-0.07,0.28-0.14,0.38-0.22C3.02,24.19,3.1,24.1,3.16,24s0.09-0.2,0.1-0.32
				c-0.03-0.06-0.05-0.11-0.07-0.15c-0.02-0.04-0.04-0.09-0.07-0.13s-0.05-0.09-0.07-0.15s-0.06-0.13-0.09-0.21
				c0.01-0.01,0.02-0.03,0.03-0.05C3,22.96,3.02,22.93,3.04,22.9c0.02-0.03,0.04-0.06,0.06-0.09c0.02-0.03,0.04-0.06,0.06-0.09
				c0.02-0.03,0.04-0.05,0.05-0.06C3.22,22.65,3.23,22.64,3.23,22.64z"/>
			<path class="st0" d="M5.12,23.35v0.47H3.75v-0.47H5.12z"/>
			<path class="st0" d="M5.95,21.85c0.07,0,0.13,0.01,0.19,0.04c0.06,0.03,0.11,0.07,0.16,0.12c0.05,0.05,0.09,0.11,0.12,0.17
				c0.03,0.06,0.06,0.13,0.09,0.2c0.02,0.07,0.04,0.14,0.06,0.21c0.02,0.07,0.03,0.14,0.04,0.2c0.01,0.08,0.02,0.16,0.02,0.24
				c0,0.05,0,0.12-0.01,0.19c-0.01,0.08-0.04,0.15-0.08,0.23c-0.05,0.07-0.11,0.14-0.19,0.18c-0.08,0.05-0.17,0.08-0.28,0.11
				c-0.11,0.03-0.23,0.04-0.37,0.05s-0.29,0.01-0.46,0.01H5.05v-0.47h0.18c0.08,0,0.17,0,0.26,0c0.09,0,0.18,0,0.27-0.01
				c0.09-0.01,0.17-0.01,0.25-0.02c0.08-0.01,0.15-0.02,0.21-0.04c0.06-0.02,0.11-0.04,0.14-0.07c0.03-0.03,0.05-0.06,0.05-0.09
				v-0.01c-0.02,0.01-0.05,0.01-0.08,0.02c-0.03,0-0.06,0.01-0.09,0.01c-0.04,0-0.08,0-0.13,0c-0.03,0-0.05,0-0.08,0
				c-0.03,0-0.06,0-0.09-0.01c-0.1-0.01-0.19-0.03-0.27-0.06C5.59,23.04,5.52,23,5.48,22.95c-0.05-0.05-0.08-0.1-0.1-0.15
				c-0.02-0.05-0.03-0.1-0.03-0.15c0-0.03,0-0.05,0.01-0.08c0-0.02,0.01-0.05,0.01-0.09s0.02-0.09,0.04-0.14s0.04-0.11,0.07-0.17
				c0.03-0.06,0.06-0.11,0.11-0.16c0.04-0.05,0.09-0.09,0.16-0.12C5.8,21.87,5.87,21.85,5.95,21.85z M6.11,22.72
				c0.04,0,0.08,0,0.11,0s0.06,0,0.08-0.01c0.02,0,0.05-0.01,0.06-0.01c0-0.01-0.01-0.04-0.02-0.06c-0.01-0.03-0.02-0.06-0.04-0.09
				c-0.02-0.03-0.04-0.07-0.06-0.1c-0.02-0.04-0.05-0.07-0.08-0.09c-0.03-0.03-0.07-0.05-0.11-0.07s-0.09-0.03-0.14-0.03
				c-0.08,0-0.15,0.01-0.2,0.04c-0.05,0.03-0.09,0.06-0.12,0.1c-0.03,0.04-0.05,0.08-0.06,0.11c-0.01,0.04-0.02,0.06-0.02,0.08
				c0.01,0.02,0.04,0.04,0.07,0.05c0.03,0.01,0.08,0.03,0.14,0.04s0.14,0.02,0.25,0.03C6.01,22.72,6.07,22.72,6.11,22.72z
				 M5.91,21.59l-0.33-0.33l0.33-0.33l0.33,0.33L5.91,21.59z"/>
			<path class="st0" d="M9.37,22.7c0,0,0.01,0.01,0.01,0.02c0.06,0.12,0.11,0.23,0.16,0.31c0.04,0.08,0.09,0.15,0.13,0.2
				c0.04,0.05,0.08,0.08,0.13,0.1c0.04,0.02,0.1,0.03,0.16,0.03c0.03,0,0.07,0,0.1-0.01c0.04-0.01,0.07-0.02,0.1-0.03
				c0.03-0.01,0.06-0.03,0.09-0.05c0.03-0.02,0.05-0.05,0.07-0.07c0.02-0.04,0.04-0.07,0.05-0.1c0.01-0.03,0.03-0.06,0.04-0.09
				c0.01-0.03,0.02-0.06,0.04-0.09c0.01-0.03,0.02-0.07,0.04-0.12l0.25-0.08c-0.01,0.06-0.03,0.13-0.04,0.2
				c-0.02,0.07-0.04,0.15-0.06,0.24c0.01,0.04,0.03,0.07,0.05,0.1c0.02,0.03,0.05,0.05,0.08,0.06c0.03,0.01,0.06,0.03,0.1,0.03
				c0.03,0,0.07,0.01,0.1,0.01c0.08,0,0.15-0.01,0.2-0.04c0.05-0.03,0.09-0.07,0.12-0.12c0.03-0.05,0.05-0.11,0.07-0.18
				c0.01-0.07,0.03-0.14,0.04-0.23l0.23-0.08c0,0.06-0.01,0.11-0.01,0.17c-0.01,0.05-0.01,0.09-0.02,0.15
				c-0.01,0.05-0.01,0.1-0.03,0.13c0.02,0.05,0.04,0.08,0.08,0.11c0.03,0.03,0.07,0.05,0.12,0.06s0.09,0.02,0.14,0.02
				c0.05,0,0.1,0,0.15,0v0.47c-0.09,0-0.17-0.01-0.24-0.03c-0.07-0.02-0.13-0.05-0.18-0.08c-0.05-0.03-0.09-0.08-0.12-0.12
				c-0.03-0.05-0.05-0.1-0.06-0.15c-0.06,0.13-0.13,0.22-0.21,0.28s-0.18,0.1-0.29,0.1c-0.06,0-0.12-0.01-0.16-0.03
				s-0.09-0.04-0.12-0.08c-0.03-0.03-0.06-0.07-0.09-0.12c-0.03-0.05-0.05-0.1-0.07-0.16c-0.03,0.05-0.06,0.1-0.09,0.15
				c-0.03,0.05-0.07,0.09-0.11,0.12s-0.09,0.06-0.15,0.08c-0.06,0.02-0.12,0.03-0.2,0.03c-0.04,0-0.09,0-0.13-0.01
				c-0.04-0.01-0.07-0.02-0.1-0.03c-0.03-0.01-0.05-0.02-0.07-0.03c-0.02-0.01-0.03-0.02-0.03-0.02c0,0.19-0.03,0.36-0.08,0.52
				c-0.06,0.16-0.14,0.29-0.25,0.4c-0.11,0.11-0.25,0.2-0.41,0.26s-0.35,0.09-0.56,0.09c-0.15,0-0.29-0.02-0.42-0.06
				c-0.13-0.04-0.24-0.09-0.33-0.17c-0.09-0.08-0.17-0.17-0.22-0.29c-0.05-0.12-0.08-0.22-0.09-0.3c0-0.09-0.01-0.14-0.01-0.16
				c0-0.14,0.02-0.3,0.06-0.49c0.04-0.19,0.12-0.4,0.22-0.64l0.17,0.09c-0.03,0.08-0.05,0.16-0.08,0.25
				c-0.03,0.09-0.05,0.17-0.07,0.26S7.51,23.64,7.5,23.7s-0.01,0.11-0.01,0.14c0,0.04,0,0.1,0.01,0.15
				c0.01,0.06,0.03,0.12,0.06,0.18c0.03,0.06,0.08,0.12,0.14,0.17c0.06,0.05,0.14,0.08,0.23,0.11c0.09,0.03,0.21,0.04,0.34,0.04
				c0.16,0,0.3-0.01,0.42-0.04c0.12-0.02,0.22-0.06,0.31-0.11c0.09-0.05,0.16-0.12,0.22-0.19c0.06-0.08,0.1-0.17,0.13-0.28
				c-0.04-0.14-0.09-0.27-0.14-0.4s-0.1-0.25-0.14-0.37c0.02-0.03,0.04-0.07,0.07-0.11c0.02-0.04,0.05-0.07,0.06-0.1
				c0.03-0.04,0.05-0.08,0.08-0.12s0.04-0.05,0.05-0.06C9.36,22.7,9.36,22.7,9.37,22.7z M10.24,22.26l-0.29-0.29l0.29-0.29
				l0.29,0.29L10.24,22.26z M10.58,21.73l-0.29-0.29l0.29-0.29l0.29,0.29L10.58,21.73z M10.91,22.26l-0.29-0.29l0.29-0.29l0.29,0.29
				L10.91,22.26z"/>
			<path class="st0" d="M13.32,23.35v0.47h-1.37v-0.47H13.32z"/>
			<path class="st0" d="M14.62,22.38c0.05,0,0.1,0.01,0.15,0.04c0.05,0.03,0.1,0.07,0.15,0.12c0.05,0.05,0.09,0.11,0.13,0.18
				c0.04,0.07,0.08,0.15,0.1,0.23c0.03,0.08,0.05,0.16,0.06,0.24s0.01,0.14,0.01,0.19c0,0.04,0,0.09-0.01,0.13l-0.29,0.32
				c-0.01,0.01-0.03,0.01-0.06,0.01c-0.03,0-0.08,0-0.13-0.02c-0.05-0.01-0.11-0.02-0.17-0.04s-0.12-0.04-0.19-0.06
				c-0.06-0.02-0.13-0.05-0.19-0.08c-0.06-0.03-0.11-0.06-0.16-0.09c-0.05-0.03-0.09-0.06-0.11-0.09c-0.04,0.08-0.09,0.14-0.14,0.18
				s-0.11,0.08-0.17,0.1s-0.12,0.04-0.18,0.04s-0.12,0.01-0.18,0.01h-0.03v-0.47h0.21c0.05,0,0.1-0.01,0.15-0.04
				c0.05-0.03,0.09-0.06,0.14-0.11c0.04-0.04,0.09-0.1,0.13-0.15s0.09-0.12,0.13-0.18c0.04-0.06,0.09-0.12,0.13-0.18
				c0.05-0.06,0.09-0.11,0.14-0.15c0.05-0.05,0.1-0.08,0.16-0.11C14.49,22.4,14.55,22.38,14.62,22.38z M15.01,23.4
				c0.02,0,0.03,0,0.04-0.01c0-0.09-0.02-0.18-0.05-0.26c-0.03-0.08-0.07-0.15-0.11-0.21c-0.04-0.06-0.09-0.11-0.14-0.14
				s-0.09-0.05-0.13-0.05c-0.04,0-0.08,0.01-0.12,0.02c-0.03,0.01-0.07,0.04-0.1,0.07c-0.03,0.03-0.07,0.07-0.1,0.12
				c-0.03,0.05-0.07,0.11-0.12,0.17c0.03,0.02,0.07,0.05,0.11,0.07c0.05,0.02,0.1,0.04,0.15,0.07c0.05,0.02,0.11,0.04,0.17,0.06
				c0.06,0.02,0.11,0.03,0.16,0.05s0.1,0.02,0.14,0.03S14.98,23.4,15.01,23.4z"/>
			<path class="st0" d="M15.88,20.7c0.01,0,0.01,0.01,0.02,0.02c0,0.01,0,0.03,0,0.04c0,0.06,0,0.14,0,0.22c0,0.08,0,0.17,0,0.26
				s0,0.17,0,0.26c0,0.08,0,0.16,0,0.22c0,0.07,0,0.16,0,0.25s0,0.19,0,0.3c0,0.1,0,0.21-0.01,0.32s-0.01,0.22-0.01,0.33
				c0,0.11-0.01,0.21-0.01,0.31c0,0.1-0.01,0.19-0.02,0.27l-0.01,0.02c-0.01,0.02-0.02,0.04-0.04,0.06
				c-0.02,0.03-0.04,0.05-0.06,0.08c-0.02,0.03-0.04,0.06-0.06,0.09c-0.02,0.03-0.04,0.05-0.06,0.08s-0.03,0.04-0.04,0.04h0
				c0,0,0,0,0,0s0-0.01,0-0.01c0-0.19-0.01-0.37-0.01-0.56c0-0.19-0.01-0.37-0.01-0.54s-0.01-0.34-0.02-0.49
				c-0.01-0.15-0.01-0.28-0.02-0.4c0-0.03,0-0.07-0.01-0.12c0-0.05-0.01-0.1-0.01-0.17s-0.01-0.15-0.01-0.24
				c0-0.09-0.01-0.21-0.02-0.33c0.01-0.01,0.03-0.02,0.05-0.04c0.02-0.02,0.05-0.04,0.08-0.06c0.03-0.02,0.06-0.05,0.09-0.07
				c0.03-0.02,0.06-0.04,0.09-0.06c0.03-0.02,0.05-0.04,0.08-0.05C15.86,20.7,15.88,20.7,15.88,20.7z"/>
			<path class="st0" d="M16.71,22.64c0.01,0.01,0.03,0.03,0.05,0.07c0.02,0.04,0.04,0.09,0.06,0.15c0.02,0.06,0.05,0.13,0.07,0.2
				c0.02,0.07,0.05,0.15,0.07,0.22c0.02,0.07,0.04,0.15,0.05,0.22s0.02,0.13,0.02,0.19c0,0.02,0,0.04,0,0.06
				c0,0.12-0.02,0.24-0.05,0.35c-0.04,0.11-0.09,0.22-0.15,0.31c-0.06,0.1-0.13,0.18-0.21,0.25c-0.08,0.07-0.15,0.13-0.23,0.18
				s-0.14,0.08-0.19,0.1c-0.06,0.02-0.09,0.04-0.11,0.04c-0.01-0.01-0.03-0.02-0.06-0.03c-0.03-0.01-0.06-0.03-0.1-0.05
				c-0.04-0.02-0.09-0.05-0.16-0.08c-0.06-0.03-0.13-0.07-0.22-0.12c-0.01-0.01-0.02-0.01-0.02-0.02c0,0,0-0.01,0.01-0.01
				c0,0,0.01-0.01,0.01-0.01c0.09-0.03,0.19-0.06,0.28-0.09c0.1-0.04,0.19-0.08,0.28-0.12c0.09-0.05,0.17-0.1,0.25-0.15
				c0.08-0.05,0.15-0.11,0.21-0.18s0.11-0.13,0.14-0.21s0.06-0.15,0.06-0.24c-0.03-0.06-0.05-0.11-0.08-0.15
				c-0.03-0.05-0.05-0.09-0.08-0.14c-0.03-0.04-0.06-0.09-0.09-0.14c-0.03-0.05-0.07-0.11-0.11-0.18c0.02-0.04,0.04-0.08,0.07-0.13
				c0.03-0.05,0.06-0.1,0.09-0.14s0.06-0.08,0.08-0.11S16.7,22.64,16.71,22.64L16.71,22.64z"/>
			<path class="st0" d="M18.28,20.41c-0.02,0.03-0.04,0.06-0.07,0.1c-0.03,0.04-0.06,0.08-0.1,0.11c-0.04,0.04-0.08,0.07-0.13,0.1
				c-0.05,0.03-0.1,0.05-0.16,0.05c-0.02,0-0.05,0-0.07,0.01c-0.02,0-0.05,0-0.07,0c-0.09,0-0.18-0.01-0.26-0.02
				c-0.08-0.01-0.15-0.02-0.21-0.03c-0.04,0.01-0.08,0.03-0.11,0.06c-0.03,0.03-0.06,0.06-0.09,0.09l-0.05-0.03
				c0.01-0.04,0.02-0.08,0.03-0.13c0.02-0.05,0.04-0.09,0.06-0.14s0.05-0.09,0.08-0.12c0.03-0.04,0.06-0.06,0.1-0.08
				c0.05,0.01,0.1,0.02,0.14,0.02c0.04,0.01,0.09,0.02,0.14,0.02c0.05,0.01,0.11,0.01,0.17,0.02c0.06,0,0.13,0.01,0.22,0.01
				c0.04,0,0.08,0,0.12-0.01c0.04-0.01,0.07-0.01,0.1-0.02c0.03-0.01,0.06-0.02,0.08-0.03c0.02-0.01,0.04-0.02,0.06-0.03
				L18.28,20.41z M17.76,20.9c0.01,0,0.01,0.01,0.01,0.02c0,0.01,0,0.03,0,0.04c0.01,0.21,0.01,0.42,0.01,0.63s0,0.41-0.01,0.62
				s-0.01,0.42-0.02,0.63c-0.01,0.21-0.02,0.43-0.04,0.65l-0.02,0.02c-0.01,0.02-0.02,0.04-0.04,0.06
				c-0.02,0.03-0.04,0.05-0.06,0.08c-0.02,0.03-0.04,0.06-0.06,0.09c-0.02,0.03-0.04,0.05-0.06,0.08s-0.03,0.04-0.04,0.04h0
				c0,0,0,0,0,0c0,0,0-0.01,0-0.01c0-0.16,0-0.31-0.01-0.44c0-0.13,0-0.25-0.01-0.36c0-0.11-0.01-0.21-0.01-0.31
				c0-0.09-0.01-0.19-0.01-0.28c0-0.09-0.01-0.18-0.01-0.27c0-0.09-0.01-0.18-0.02-0.28c-0.01-0.1-0.01-0.21-0.02-0.33
				s-0.01-0.25-0.02-0.39c0.01-0.01,0.03-0.02,0.05-0.04s0.05-0.04,0.08-0.06s0.06-0.05,0.09-0.07s0.06-0.04,0.09-0.06
				s0.05-0.04,0.07-0.05S17.75,20.9,17.76,20.9z"/>
			<path class="st0" d="M21.1,22.23c0.09,0,0.19,0.01,0.28,0.03l-0.15,0.45c-0.05-0.01-0.11-0.01-0.16-0.01
				c-0.11,0-0.21,0.02-0.3,0.05s-0.17,0.08-0.25,0.13c-0.08,0.06-0.14,0.12-0.2,0.2s-0.12,0.15-0.17,0.24
				c0.05,0.03,0.1,0.06,0.17,0.08s0.14,0.04,0.22,0.07c0.08,0.02,0.15,0.04,0.23,0.06c0.08,0.02,0.15,0.04,0.21,0.06
				c0.06,0.02,0.12,0.05,0.16,0.07c0.04,0.03,0.07,0.06,0.08,0.09c0.02,0.05,0.02,0.1,0.03,0.13s0,0.06,0,0.08
				c0,0.03,0,0.07-0.01,0.11c0,0.04-0.01,0.08-0.02,0.13c-0.01,0.04-0.03,0.08-0.04,0.12c-0.05,0.08-0.11,0.16-0.2,0.23
				c-0.08,0.07-0.18,0.14-0.29,0.2s-0.24,0.11-0.39,0.15s-0.3,0.07-0.47,0.08c-0.05,0-0.1,0.01-0.15,0.01
				c-0.13,0-0.26-0.01-0.38-0.03c-0.12-0.02-0.23-0.06-0.33-0.11s-0.19-0.13-0.26-0.21c-0.07-0.09-0.12-0.19-0.14-0.29
				c-0.02-0.11-0.04-0.21-0.04-0.31c0-0.06,0.01-0.15,0.02-0.28c0.01-0.12,0.06-0.3,0.14-0.54c0.01-0.02,0.02-0.05,0.03-0.09
				c0.01-0.04,0.03-0.08,0.04-0.12c0.02-0.04,0.03-0.09,0.05-0.13c0.02-0.04,0.03-0.08,0.05-0.11l0.17,0.09
				c-0.02,0.05-0.03,0.1-0.06,0.17c-0.02,0.07-0.04,0.13-0.06,0.21c-0.02,0.08-0.04,0.17-0.07,0.26c-0.02,0.1-0.03,0.17-0.04,0.23
				c0,0.06-0.01,0.1-0.01,0.12c0,0.07,0.01,0.15,0.03,0.23c0.02,0.08,0.06,0.15,0.12,0.22c0.06,0.07,0.14,0.12,0.25,0.17
				s0.25,0.06,0.42,0.06c0.03,0,0.07,0,0.1,0s0.07,0,0.11-0.01c0.18-0.01,0.33-0.04,0.46-0.06c0.13-0.03,0.23-0.06,0.32-0.09
				s0.16-0.08,0.22-0.12c0.06-0.04,0.11-0.09,0.16-0.14c-0.05-0.02-0.11-0.05-0.18-0.07c-0.07-0.02-0.15-0.04-0.23-0.06
				c-0.08-0.02-0.16-0.05-0.24-0.07s-0.15-0.05-0.22-0.09c-0.06-0.03-0.12-0.07-0.15-0.11c-0.04-0.04-0.05-0.09-0.05-0.14v-0.01
				c0.01-0.19,0.05-0.37,0.12-0.52c0.07-0.16,0.15-0.29,0.26-0.41s0.23-0.2,0.37-0.27C20.8,22.26,20.95,22.23,21.1,22.23z"/>
			<path class="st0" d="M22.1,20.69c0.01,0,0.01,0.01,0.01,0.02s0,0.03,0,0.04c0.01,0.21,0.02,0.39,0.03,0.56
				c0,0.17,0.01,0.33,0.01,0.47s0,0.28,0,0.4s0,0.25,0,0.36c0,0.12,0,0.24,0,0.35c0,0.12,0.01,0.24,0.02,0.37
				c0.05,0.03,0.1,0.05,0.14,0.06c0.05,0.01,0.1,0.02,0.16,0.02h0.11v0.47h-0.1c-0.12,0-0.22-0.01-0.3-0.04
				c-0.08-0.03-0.15-0.07-0.21-0.12c-0.05-0.05-0.1-0.12-0.12-0.19c-0.03-0.07-0.04-0.16-0.04-0.25c0-0.1-0.01-0.21-0.01-0.32
				c0-0.11-0.01-0.23-0.02-0.35c-0.01-0.12-0.01-0.24-0.02-0.36c-0.01-0.12-0.02-0.24-0.03-0.36c-0.01-0.14-0.02-0.28-0.04-0.42
				c-0.01-0.14-0.03-0.28-0.04-0.42c0.01-0.01,0.03-0.02,0.05-0.04c0.02-0.02,0.05-0.04,0.08-0.06c0.03-0.02,0.06-0.04,0.09-0.07
				c0.03-0.02,0.06-0.04,0.09-0.06c0.03-0.02,0.05-0.03,0.07-0.04C22.08,20.69,22.09,20.69,22.1,20.69z"/>
			<path class="st0" d="M23.48,22.17c0.06,0,0.12,0.01,0.17,0.04c0.05,0.03,0.09,0.06,0.13,0.1s0.07,0.09,0.1,0.15
				c0.03,0.06,0.05,0.11,0.07,0.17c0.02,0.06,0.03,0.12,0.04,0.18c0.01,0.06,0.02,0.11,0.02,0.17c-0.01,0.04-0.01,0.08-0.02,0.11
				c0,0.03-0.01,0.06-0.02,0.09c-0.01,0.03-0.02,0.05-0.03,0.08c-0.01,0.02-0.03,0.05-0.05,0.09c0,0,0.01,0,0.02,0
				c0.01,0,0.03,0,0.05,0c0.02,0,0.04,0,0.06,0c0.02,0,0.04,0,0.06,0c0.05,0,0.1,0,0.16,0h0.16v0.47h-0.18
				c-0.14,0-0.26-0.01-0.36-0.02c-0.1-0.01-0.17-0.03-0.24-0.04c-0.07-0.02-0.13-0.04-0.17-0.06c-0.05,0.02-0.12,0.04-0.19,0.06
				c-0.06,0.01-0.14,0.03-0.22,0.04c-0.09,0.01-0.19,0.02-0.3,0.02h-0.23v-0.47h0.22c0.03,0,0.06,0,0.1,0c0.03,0,0.06,0,0.09,0
				c0.03,0,0.06,0,0.09-0.01c-0.02-0.02-0.04-0.05-0.05-0.09c-0.01-0.03-0.03-0.06-0.04-0.1s-0.03-0.08-0.03-0.13
				c0-0.05,0.01-0.1,0.02-0.17c0.01-0.06,0.03-0.12,0.05-0.19c0.02-0.06,0.05-0.12,0.08-0.18c0.03-0.06,0.07-0.11,0.12-0.16
				c0.04-0.05,0.1-0.08,0.15-0.11C23.36,22.18,23.42,22.17,23.48,22.17z M23.47,23.25c0.02-0.01,0.05-0.02,0.09-0.03
				c0.04-0.01,0.07-0.03,0.11-0.06c0.04-0.02,0.07-0.05,0.1-0.08c0.03-0.03,0.05-0.07,0.06-0.12c-0.02-0.04-0.04-0.08-0.06-0.12
				c-0.03-0.04-0.06-0.08-0.09-0.11c-0.04-0.03-0.08-0.06-0.12-0.08c-0.05-0.02-0.09-0.03-0.15-0.03c-0.05,0-0.1,0.01-0.14,0.03
				c-0.04,0.02-0.08,0.04-0.11,0.07c-0.03,0.03-0.06,0.07-0.08,0.11s-0.04,0.09-0.04,0.15c0.01,0.03,0.04,0.06,0.07,0.08
				c0.03,0.03,0.07,0.05,0.11,0.08c0.04,0.02,0.08,0.04,0.13,0.06C23.39,23.23,23.43,23.24,23.47,23.25z M23.48,21.86l-0.33-0.33
				l0.33-0.33l0.33,0.33L23.48,21.86z"/>
			<path class="st0" d="M25.7,23.35v0.47h-1.37v-0.47H25.7z"/>
			<path class="st0" d="M28.16,22.28c0.08,0,0.15,0.01,0.21,0.03c0.06,0.02,0.11,0.05,0.16,0.08c0.04,0.03,0.08,0.07,0.11,0.11
				c0.03,0.04,0.05,0.08,0.07,0.13c0.05,0.11,0.07,0.23,0.07,0.38c-0.03,0.08-0.05,0.17-0.09,0.26s-0.07,0.17-0.11,0.24
				c-0.06,0.06-0.13,0.12-0.22,0.16c-0.09,0.04-0.18,0.08-0.29,0.11c-0.1,0.03-0.21,0.05-0.32,0.06s-0.22,0.02-0.33,0.02
				c-0.09,0-0.18,0-0.26-0.01s-0.16-0.02-0.23-0.03c-0.07-0.01-0.13-0.03-0.18-0.05c-0.05-0.02-0.09-0.04-0.11-0.06
				c-0.06-0.05-0.11-0.12-0.15-0.18c-0.04-0.07-0.06-0.14-0.07-0.21c-0.04,0.09-0.08,0.16-0.13,0.23c-0.05,0.06-0.11,0.12-0.17,0.16
				c-0.06,0.04-0.13,0.07-0.21,0.09s-0.17,0.03-0.26,0.03h-0.04v-0.47h0.04c0.13,0,0.24-0.02,0.33-0.06
				c0.09-0.04,0.16-0.09,0.21-0.15s0.1-0.13,0.14-0.21s0.07-0.15,0.1-0.23l0.24-0.08c-0.03,0.06-0.04,0.12-0.05,0.18
				c-0.01,0.06-0.01,0.1-0.01,0.14c0,0.03,0,0.06,0.01,0.11s0.02,0.09,0.05,0.14s0.07,0.08,0.12,0.1c0.03-0.04,0.07-0.1,0.12-0.17
				c0.05-0.07,0.11-0.14,0.18-0.21c0.07-0.07,0.14-0.15,0.22-0.22c0.08-0.08,0.17-0.14,0.26-0.21s0.19-0.11,0.29-0.15
				S28.06,22.28,28.16,22.28z M27.48,23.42c0.08,0,0.17,0,0.27-0.01c0.09-0.01,0.19-0.03,0.29-0.05c0.1-0.02,0.19-0.06,0.28-0.1
				c0.09-0.04,0.18-0.09,0.26-0.16c0-0.02,0-0.03,0-0.04c0-0.04-0.01-0.08-0.02-0.13c-0.02-0.04-0.04-0.08-0.08-0.11
				c-0.04-0.03-0.09-0.05-0.15-0.07c-0.06-0.02-0.12-0.02-0.2-0.02c-0.08,0-0.16,0.01-0.24,0.03c-0.08,0.02-0.16,0.05-0.23,0.08
				c-0.08,0.03-0.15,0.07-0.22,0.11c-0.07,0.04-0.13,0.09-0.19,0.13c-0.06,0.05-0.11,0.09-0.16,0.14c-0.05,0.05-0.08,0.09-0.11,0.13
				c0.02,0,0.04,0.01,0.07,0.01c0.03,0.01,0.07,0.01,0.11,0.02s0.09,0.01,0.15,0.01S27.42,23.42,27.48,23.42z"/>
		</g>
		<g>
			<path class="st0" d="M0.79,27.07c0.04,0,0.08,0.02,0.11,0.04c0.03,0.02,0.06,0.05,0.08,0.09c0.02,0.04,0.04,0.08,0.05,0.12
				c0.01,0.04,0.03,0.09,0.03,0.14c0.01,0.04,0.01,0.09,0.02,0.13c0,0.04,0.01,0.08,0.01,0.11c0.01,0.07,0.02,0.14,0.03,0.2
				c0.01,0.06,0.03,0.11,0.05,0.15c0.02,0.04,0.04,0.08,0.06,0.11c0.02,0.03,0.04,0.06,0.06,0.08L1.2,28.47
				c-0.04-0.04-0.07-0.08-0.1-0.14c-0.03-0.06-0.05-0.12-0.06-0.18C1.02,28.09,1.01,28.02,1,27.96c-0.01-0.06-0.01-0.12-0.01-0.18
				c-0.01,0-0.03,0.01-0.05,0.01c-0.02,0-0.04,0.01-0.06,0.01c-0.03,0-0.05,0-0.09,0c-0.04,0-0.08-0.01-0.11-0.02
				s-0.07-0.03-0.1-0.06c-0.03-0.03-0.05-0.06-0.06-0.1C0.5,27.59,0.5,27.55,0.5,27.51c0-0.01,0-0.02,0-0.03
				c0-0.02,0-0.04,0.01-0.07c0-0.03,0.01-0.06,0.02-0.09c0.01-0.03,0.02-0.06,0.04-0.09c0.02-0.03,0.04-0.06,0.06-0.08
				c0.02-0.02,0.05-0.04,0.07-0.06S0.76,27.07,0.79,27.07z M0.8,27.57c0.03,0,0.05,0,0.07,0c0.02,0,0.04,0,0.06-0.01
				c0.02,0,0.04-0.01,0.05-0.01c0-0.01,0-0.02-0.01-0.04c0-0.02-0.01-0.04-0.02-0.05s-0.02-0.04-0.03-0.06s-0.03-0.04-0.04-0.05
				c-0.02-0.02-0.04-0.03-0.06-0.04s-0.05-0.01-0.08-0.01c-0.02,0-0.04,0-0.06,0.01s-0.04,0.02-0.05,0.03s-0.03,0.03-0.04,0.04
				c-0.01,0.02-0.02,0.03-0.03,0.05c-0.01,0.02-0.01,0.03-0.02,0.04c0,0.01-0.01,0.02-0.01,0.03c0,0.01,0.01,0.03,0.03,0.04
				c0.01,0.01,0.03,0.02,0.05,0.02c0.02,0.01,0.05,0.01,0.08,0.01C0.74,27.57,0.77,27.57,0.8,27.57z"/>
			<path class="st0" d="M2.05,27.09c0.01,0.11,0.02,0.21,0.05,0.31c0.02,0.1,0.05,0.19,0.08,0.27c0.03,0.08,0.07,0.16,0.11,0.23
				c0.04,0.07,0.07,0.13,0.11,0.18c0.04,0.05,0.07,0.09,0.09,0.13c0.03,0.03,0.05,0.06,0.06,0.07l-0.15,0.2
				c-0.05-0.06-0.11-0.14-0.16-0.22c-0.02-0.04-0.04-0.08-0.07-0.13c-0.02-0.05-0.04-0.1-0.07-0.15c-0.02-0.05-0.04-0.12-0.06-0.18
				C2.03,27.73,2.01,27.66,2,27.59c-0.02,0.07-0.03,0.14-0.05,0.21c-0.02,0.06-0.04,0.12-0.06,0.18s-0.04,0.11-0.07,0.15
				c-0.02,0.05-0.04,0.09-0.07,0.13c-0.05,0.09-0.1,0.16-0.16,0.22l-0.15-0.2c0.01-0.01,0.03-0.04,0.06-0.07s0.06-0.08,0.09-0.13
				c0.04-0.05,0.07-0.11,0.11-0.18c0.04-0.07,0.07-0.14,0.11-0.23c0.03-0.08,0.06-0.17,0.08-0.27c0.02-0.1,0.04-0.2,0.05-0.31H2.05z
				"/>
			<path class="st0" d="M2.91,27.11c0,0,0.01,0.01,0.02,0.04s0.03,0.06,0.04,0.11c0.02,0.04,0.03,0.08,0.04,0.1
				c0.01,0.03,0.03,0.05,0.04,0.06c0.01,0.02,0.03,0.03,0.05,0.03c0.02,0.01,0.05,0.01,0.08,0.01c0.04,0,0.08-0.01,0.1-0.02
				s0.05-0.04,0.06-0.06s0.02-0.06,0.03-0.1c0-0.04,0.01-0.08,0.01-0.12l0.09-0.03c0,0.03,0,0.06,0,0.1c0,0.01,0,0.04,0,0.07
				c0,0.03-0.01,0.07-0.02,0.11c0.01,0.02,0.03,0.04,0.05,0.05c0.02,0.01,0.05,0.01,0.08,0.01c0.03,0,0.06-0.01,0.08-0.02
				c0.02-0.02,0.04-0.04,0.05-0.06s0.02-0.06,0.03-0.1c0-0.04,0.01-0.08,0.01-0.12l0.09-0.03c0,0.04,0.01,0.08,0.01,0.12
				c0,0,0,0.02,0,0.04c0,0.02,0,0.06-0.01,0.1c-0.01,0.04-0.01,0.08-0.03,0.12s-0.03,0.07-0.05,0.1c-0.02,0.03-0.04,0.05-0.07,0.07
				c-0.03,0.02-0.06,0.02-0.1,0.02c-0.03,0-0.06-0.01-0.08-0.02c-0.02-0.01-0.04-0.03-0.05-0.04s-0.03-0.03-0.03-0.05
				c-0.01-0.01-0.01-0.02-0.01-0.03c-0.02,0.04-0.05,0.07-0.09,0.1c-0.04,0.02-0.08,0.04-0.14,0.04c-0.03,0-0.05,0-0.07-0.01
				c-0.02,0-0.03-0.01-0.03-0.01c0.01,0.06,0.02,0.12,0.02,0.18s0.01,0.11,0.01,0.15c0,0.04,0,0.06,0,0.07c0,0.06,0,0.11-0.01,0.18
				c0,0.06-0.02,0.13-0.03,0.19l-0.09,0.02c0-0.02,0-0.05,0-0.07c0-0.09,0-0.17-0.01-0.26s-0.02-0.17-0.04-0.26
				c-0.02-0.08-0.04-0.16-0.06-0.22c-0.02-0.07-0.04-0.13-0.06-0.18c-0.02-0.05-0.04-0.09-0.06-0.13s-0.03-0.06-0.04-0.08
				L2.91,27.11z"/>
			<path class="st0" d="M4.57,27.47c0,0,0.01,0.02,0.01,0.04c0.01,0.03,0.02,0.07,0.03,0.11c0.01,0.05,0.03,0.1,0.05,0.17
				c0.02,0.06,0.04,0.13,0.07,0.2c0.01,0.03,0.02,0.06,0.04,0.08s0.03,0.05,0.04,0.07c0.02,0.02,0.03,0.04,0.05,0.05
				s0.04,0.02,0.07,0.02h0.02v0.23H4.93c-0.03,0-0.05,0-0.07-0.01s-0.04-0.02-0.06-0.03s-0.04-0.03-0.05-0.04
				c-0.02-0.02-0.03-0.03-0.04-0.05c-0.01,0.01-0.02,0.02-0.03,0.04c-0.01,0.02-0.03,0.03-0.05,0.05s-0.05,0.03-0.09,0.04
				c-0.04,0.01-0.08,0.02-0.13,0.02c-0.04,0-0.08,0-0.12-0.01c-0.04,0-0.07-0.01-0.1-0.02c-0.03-0.01-0.05-0.01-0.07-0.02
				C4.1,28.4,4.09,28.4,4.09,28.4c-0.01-0.01-0.01-0.03-0.01-0.04c0-0.02-0.01-0.04-0.01-0.06c0-0.02,0-0.04-0.01-0.06
				c0-0.02,0-0.04,0-0.05c0-0.02,0-0.04,0.01-0.04c0,0,0,0,0,0c0.03,0.03,0.08,0.04,0.13,0.06c0.05,0.01,0.12,0.02,0.19,0.02
				c0.02,0,0.04,0,0.06,0c0.02,0,0.04,0,0.06-0.01c0.02,0,0.04-0.01,0.06-0.02c0.02-0.01,0.04-0.02,0.06-0.04
				c-0.02-0.04-0.03-0.08-0.05-0.11c-0.01-0.03-0.03-0.07-0.04-0.1c-0.01-0.03-0.03-0.07-0.05-0.11c-0.02-0.04-0.04-0.09-0.06-0.14
				c0-0.01,0.01-0.02,0.02-0.03c0.01-0.01,0.01-0.02,0.02-0.03c0.01-0.01,0.01-0.02,0.02-0.03c0.01-0.01,0.01-0.02,0.01-0.03
				c0.01-0.01,0.02-0.02,0.02-0.03c0.01-0.01,0.01-0.02,0.02-0.03C4.55,27.49,4.55,27.49,4.57,27.47
				C4.56,27.48,4.57,27.47,4.57,27.47z"/>
			<path class="st0" d="M5.58,28.22v0.23H4.92v-0.23H5.58z"/>
			<path class="st0" d="M6.53,27.15l-0.67,0.3c0.03,0.03,0.06,0.07,0.1,0.1c0.03,0.04,0.06,0.07,0.09,0.11s0.06,0.08,0.08,0.13
				s0.04,0.09,0.06,0.14c0.01,0.05,0.02,0.09,0.02,0.12c0,0.03,0,0.05,0,0.06c0,0.05-0.01,0.1-0.02,0.15
				c-0.07,0.06-0.15,0.11-0.25,0.14c-0.1,0.03-0.22,0.04-0.36,0.05H5.54v-0.23h0.05c0.06,0,0.12,0,0.18,0
				c0.06,0,0.11-0.01,0.16-0.02c0.05-0.01,0.09-0.02,0.12-0.04c0.04-0.02,0.06-0.04,0.08-0.08c-0.03-0.06-0.06-0.12-0.1-0.17
				s-0.09-0.1-0.14-0.15c-0.05-0.04-0.1-0.09-0.15-0.12c-0.05-0.04-0.09-0.07-0.14-0.11l0.05-0.21c0.04-0.02,0.08-0.04,0.14-0.06
				c0.05-0.02,0.11-0.05,0.17-0.07c0.06-0.03,0.12-0.05,0.18-0.08s0.12-0.05,0.18-0.07c0.05-0.02,0.1-0.04,0.15-0.06
				c0.04-0.02,0.08-0.03,0.1-0.04L6.53,27.15z"/>
			<path class="st0" d="M8.57,27.68c0.04,0,0.09,0,0.13,0.02l-0.07,0.22c-0.03,0-0.05-0.01-0.07-0.01c-0.05,0-0.1,0.01-0.14,0.02
				c-0.04,0.02-0.08,0.04-0.12,0.06c-0.04,0.03-0.07,0.06-0.1,0.09c-0.03,0.04-0.06,0.07-0.08,0.11c0.02,0.01,0.05,0.03,0.08,0.04
				c0.03,0.01,0.07,0.02,0.1,0.03s0.07,0.02,0.11,0.03c0.04,0.01,0.07,0.02,0.1,0.03c0.03,0.01,0.06,0.02,0.08,0.04
				c0.02,0.01,0.03,0.03,0.04,0.05c0.01,0.03,0.01,0.05,0.01,0.06c0,0.02,0,0.03,0,0.04c0,0.02,0,0.03,0,0.05
				c0,0.02-0.01,0.04-0.01,0.06c-0.01,0.02-0.01,0.04-0.02,0.06c-0.02,0.04-0.06,0.08-0.09,0.11c-0.04,0.04-0.09,0.07-0.14,0.09
				s-0.12,0.05-0.19,0.07C8.12,28.98,8.05,28.99,7.96,29c-0.02,0-0.05,0-0.07,0C7.83,29,7.77,29,7.71,28.99s-0.11-0.03-0.16-0.05
				c-0.05-0.03-0.09-0.06-0.12-0.1c-0.03-0.04-0.06-0.09-0.07-0.14c-0.01-0.05-0.02-0.1-0.02-0.15c0-0.03,0-0.07,0.01-0.13
				c0.01-0.06,0.03-0.15,0.07-0.26c0-0.01,0.01-0.03,0.01-0.04c0.01-0.02,0.01-0.04,0.02-0.06S7.46,28,7.47,27.98
				c0.01-0.02,0.02-0.04,0.02-0.05l0.08,0.04c-0.01,0.02-0.02,0.05-0.03,0.08s-0.02,0.06-0.03,0.1c-0.01,0.04-0.02,0.08-0.03,0.13
				c-0.01,0.05-0.02,0.08-0.02,0.11c0,0.03,0,0.05,0,0.06c0,0.03,0,0.07,0.01,0.11c0.01,0.04,0.03,0.07,0.05,0.11
				c0.03,0.03,0.07,0.06,0.12,0.08c0.05,0.02,0.12,0.03,0.2,0.03c0.02,0,0.03,0,0.05,0c0.02,0,0.03,0,0.05,0
				c0.09-0.01,0.16-0.02,0.22-0.03s0.11-0.03,0.16-0.04c0.04-0.02,0.08-0.04,0.11-0.06c0.03-0.02,0.05-0.04,0.08-0.07
				c-0.02-0.01-0.05-0.02-0.09-0.03s-0.07-0.02-0.11-0.03c-0.04-0.01-0.08-0.02-0.12-0.03c-0.04-0.01-0.07-0.03-0.1-0.04
				c-0.03-0.02-0.06-0.03-0.07-0.05S8,28.33,8,28.31V28.3c0.01-0.09,0.02-0.17,0.06-0.25s0.07-0.14,0.12-0.2s0.11-0.1,0.18-0.13
				S8.5,27.68,8.57,27.68z"/>
			<path class="st0" d="M8.18,29C8.18,29,8.18,29,8.18,29L8.18,29z M9.37,27.87C9.37,27.87,9.37,27.88,9.37,27.87
				c0.01,0.02,0.02,0.04,0.04,0.07c0.01,0.02,0.02,0.05,0.04,0.07c0.01,0.03,0.03,0.05,0.04,0.07c0.02,0.02,0.03,0.04,0.05,0.06
				c0.02,0.02,0.04,0.03,0.05,0.04c0.02,0.01,0.04,0.02,0.06,0.02h0.01v0.23H9.64c-0.02,0-0.04,0-0.07-0.01s-0.05-0.02-0.08-0.04
				c0,0.02,0,0.03,0,0.05c0,0.05-0.01,0.09-0.02,0.14s-0.04,0.09-0.06,0.14c-0.03,0.04-0.06,0.08-0.1,0.12
				c-0.04,0.04-0.07,0.06-0.11,0.09c-0.03,0.02-0.07,0.04-0.09,0.05C9.08,28.99,9.06,29,9.05,29c0,0-0.01,0-0.01,0
				c-0.01,0-0.03-0.01-0.05-0.03c-0.02-0.01-0.04-0.02-0.07-0.04c-0.01,0-0.02-0.01-0.03-0.01c-0.01-0.01-0.02-0.01-0.04-0.02
				c-0.01-0.01-0.03-0.01-0.04-0.02c-0.01-0.01-0.02-0.01-0.03-0.02c0,0-0.01-0.01-0.01-0.01c0,0,0,0,0,0c0,0,0,0,0.01,0
				c0.08-0.03,0.16-0.05,0.23-0.08c0.07-0.03,0.13-0.07,0.18-0.11c0.05-0.04,0.09-0.08,0.12-0.13c0.03-0.05,0.04-0.1,0.05-0.15
				c-0.01-0.03-0.03-0.05-0.04-0.07c-0.01-0.02-0.02-0.04-0.03-0.06c-0.01-0.02-0.02-0.04-0.04-0.07c-0.01-0.03-0.03-0.06-0.04-0.1
				c0-0.01,0.01-0.01,0.02-0.03c0.01-0.01,0.01-0.02,0.02-0.04c0.01-0.01,0.02-0.03,0.03-0.04c0.01-0.01,0.02-0.03,0.03-0.04
				s0.02-0.02,0.02-0.03S9.36,27.87,9.37,27.87z M9.33,27.65L9.17,27.5l0.16-0.16l0.16,0.16L9.33,27.65z"/>
			<path class="st0" d="M10.28,28.22v0.23H9.62v-0.23H10.28z"/>
			<path class="st0" d="M11.23,27.15l-0.67,0.3c0.03,0.03,0.06,0.07,0.1,0.1c0.03,0.04,0.06,0.07,0.09,0.11s0.06,0.08,0.08,0.13
				s0.04,0.09,0.06,0.14c0.01,0.05,0.02,0.09,0.02,0.12c0,0.03,0,0.05,0,0.06c0,0.05-0.01,0.1-0.02,0.15
				c-0.07,0.06-0.15,0.11-0.25,0.14c-0.1,0.03-0.22,0.04-0.36,0.05h-0.05v-0.23h0.05c0.06,0,0.12,0,0.18,0
				c0.06,0,0.11-0.01,0.16-0.02c0.05-0.01,0.09-0.02,0.12-0.04c0.04-0.02,0.06-0.04,0.08-0.08c-0.03-0.06-0.06-0.12-0.1-0.17
				s-0.09-0.1-0.14-0.15c-0.05-0.04-0.1-0.09-0.15-0.12c-0.05-0.04-0.09-0.07-0.14-0.11l0.05-0.21c0.04-0.02,0.08-0.04,0.14-0.06
				c0.05-0.02,0.11-0.05,0.17-0.07c0.06-0.03,0.12-0.05,0.18-0.08s0.12-0.05,0.18-0.07c0.05-0.02,0.1-0.04,0.15-0.06
				c0.04-0.02,0.08-0.03,0.1-0.04L11.23,27.15z"/>
			<path class="st0" d="M10.35,29C10.35,29,10.35,29,10.35,29L10.35,29z M11.53,27.87C11.54,27.87,11.54,27.88,11.53,27.87
				c0.01,0.02,0.02,0.04,0.04,0.07c0.01,0.02,0.02,0.05,0.04,0.07c0.01,0.03,0.03,0.05,0.04,0.07c0.02,0.02,0.03,0.04,0.05,0.06
				c0.02,0.02,0.04,0.03,0.05,0.04c0.02,0.01,0.04,0.02,0.06,0.02h0.01v0.23h-0.01c-0.02,0-0.04,0-0.07-0.01s-0.05-0.02-0.08-0.04
				c0,0.02,0,0.03,0,0.05c0,0.05-0.01,0.09-0.02,0.14s-0.04,0.09-0.06,0.14c-0.03,0.04-0.06,0.08-0.1,0.12
				c-0.04,0.04-0.07,0.06-0.11,0.09c-0.03,0.02-0.07,0.04-0.09,0.05C11.25,28.99,11.23,29,11.22,29c0,0-0.01,0-0.01,0
				c-0.01,0-0.03-0.01-0.05-0.03c-0.02-0.01-0.04-0.02-0.07-0.04c-0.01,0-0.02-0.01-0.03-0.01c-0.01-0.01-0.02-0.01-0.04-0.02
				c-0.01-0.01-0.03-0.01-0.04-0.02c-0.01-0.01-0.02-0.01-0.03-0.02c0,0-0.01-0.01-0.01-0.01c0,0,0,0,0,0c0,0,0,0,0.01,0
				c0.08-0.03,0.16-0.05,0.23-0.08c0.07-0.03,0.13-0.07,0.18-0.11c0.05-0.04,0.09-0.08,0.12-0.13c0.03-0.05,0.04-0.1,0.05-0.15
				c-0.01-0.03-0.03-0.05-0.04-0.07c-0.01-0.02-0.02-0.04-0.03-0.06s-0.02-0.04-0.04-0.07c-0.01-0.03-0.03-0.06-0.04-0.1
				c0-0.01,0.01-0.01,0.02-0.03c0.01-0.01,0.01-0.02,0.02-0.04c0.01-0.01,0.02-0.03,0.03-0.04c0.01-0.01,0.02-0.03,0.03-0.04
				s0.02-0.02,0.02-0.03S11.53,27.87,11.53,27.87z"/>
			<path class="st0" d="M12.44,28.22v0.23h-0.66v-0.23H12.44z"/>
			<path class="st0" d="M13.07,27.75c0.02,0,0.05,0.01,0.07,0.02c0.03,0.01,0.05,0.03,0.07,0.06s0.04,0.05,0.06,0.09
				c0.02,0.03,0.04,0.07,0.05,0.11c0.01,0.04,0.02,0.08,0.03,0.11c0,0.04,0.01,0.07,0.01,0.09c0,0.02,0,0.04,0,0.06l-0.14,0.16
				c0,0-0.01,0.01-0.03,0.01c-0.02,0-0.04,0-0.06-0.01s-0.05-0.01-0.08-0.02c-0.03-0.01-0.06-0.02-0.09-0.03s-0.06-0.02-0.09-0.04
				c-0.03-0.01-0.05-0.03-0.08-0.04c-0.02-0.01-0.04-0.03-0.05-0.04c-0.02,0.04-0.04,0.07-0.07,0.09s-0.05,0.04-0.08,0.05
				c-0.03,0.01-0.06,0.02-0.08,0.02c-0.03,0-0.06,0-0.08,0h-0.01v-0.23h0.1c0.02,0,0.05-0.01,0.07-0.02s0.04-0.03,0.07-0.05
				s0.04-0.05,0.06-0.07c0.02-0.03,0.04-0.06,0.06-0.08c0.02-0.03,0.04-0.06,0.07-0.08c0.02-0.03,0.04-0.05,0.07-0.07
				c0.02-0.02,0.05-0.04,0.08-0.05C13.01,27.76,13.04,27.75,13.07,27.75z M13.25,28.24c0.01,0,0.02,0,0.02,0
				c0-0.04-0.01-0.08-0.02-0.12c-0.01-0.04-0.03-0.07-0.05-0.1c-0.02-0.03-0.04-0.05-0.07-0.07c-0.02-0.02-0.04-0.02-0.06-0.02
				c-0.02,0-0.04,0-0.06,0.01c-0.02,0.01-0.03,0.02-0.05,0.03s-0.03,0.03-0.05,0.06c-0.02,0.02-0.04,0.05-0.06,0.08
				c0.01,0.01,0.03,0.02,0.05,0.03c0.02,0.01,0.05,0.02,0.07,0.03c0.03,0.01,0.05,0.02,0.08,0.03s0.05,0.02,0.08,0.02
				c0.03,0.01,0.05,0.01,0.07,0.02C13.23,28.24,13.24,28.24,13.25,28.24z"/>
			<path class="st0" d="M14.83,27.77c0,0.04,0.01,0.09,0.01,0.13s0.01,0.08,0.01,0.11c0,0.03,0.01,0.06,0.01,0.08
				c0,0.02,0.01,0.04,0.01,0.04c0,0.01,0.01,0.02,0.01,0.03c0.01,0.01,0.02,0.02,0.03,0.03s0.03,0.01,0.05,0.02
				c0.02,0.01,0.04,0.01,0.07,0.01h0.02v0.23h-0.04c-0.05,0-0.09-0.01-0.13-0.02c-0.03-0.02-0.06-0.04-0.08-0.06
				c-0.02-0.02-0.04-0.05-0.05-0.08c-0.01-0.03-0.02-0.06-0.03-0.08l-0.11,0.11c0,0,0,0,0,0s0,0-0.01,0c-0.01,0-0.03,0-0.06,0
				c-0.03,0-0.05-0.01-0.09-0.01c-0.03,0-0.06-0.01-0.1-0.02c-0.04-0.01-0.07-0.02-0.1-0.03c-0.01-0.01-0.01-0.02-0.02-0.04
				c-0.01-0.02-0.01-0.04-0.02-0.06s-0.01-0.04-0.01-0.07c0-0.02,0-0.04-0.01-0.05c0-0.01,0-0.02,0-0.02c0-0.02,0-0.03,0-0.05
				c0-0.01,0.01-0.03,0.01-0.03c0.02-0.02,0.04-0.04,0.07-0.07c0.03-0.02,0.07-0.05,0.11-0.07s0.08-0.05,0.11-0.07
				s0.07-0.04,0.1-0.06l-0.01-0.07l0.18-0.16L14.83,27.77z M14.65,27.79c-0.04,0.02-0.08,0.04-0.12,0.06s-0.07,0.04-0.11,0.05
				c-0.03,0.02-0.06,0.03-0.09,0.05c-0.02,0.02-0.04,0.03-0.06,0.04c0,0.02,0.01,0.03,0.03,0.04c0.02,0.01,0.05,0.02,0.09,0.03
				c0.04,0.01,0.08,0.01,0.13,0.02c0.05,0,0.11,0.01,0.17,0.01L14.65,27.79z"/>
			<path class="st0" d="M15.69,28.22v0.23h-0.66v-0.23H15.69z"/>
			<path class="st0" d="M16.32,27.75c0.02,0,0.05,0.01,0.07,0.02c0.02,0.01,0.05,0.04,0.07,0.06c0.02,0.03,0.04,0.06,0.07,0.09
				c0.02,0.04,0.04,0.08,0.06,0.12c0.01,0.03,0.03,0.06,0.05,0.08c0.02,0.02,0.04,0.04,0.06,0.05s0.05,0.02,0.07,0.02
				c0.03,0,0.05,0.01,0.08,0.01h0.02v0.23h-0.02c-0.04,0-0.07,0-0.1-0.02c-0.03-0.01-0.06-0.02-0.08-0.04
				c-0.02-0.01-0.04-0.03-0.06-0.05c-0.02-0.02-0.03-0.03-0.03-0.04l-0.11,0.15c-0.01,0-0.02,0-0.03,0s-0.04,0-0.06-0.01
				c-0.02,0-0.05-0.01-0.08-0.02s-0.06-0.02-0.09-0.03c-0.03-0.01-0.06-0.02-0.09-0.04c-0.03-0.01-0.05-0.03-0.07-0.04
				c-0.02-0.01-0.04-0.03-0.05-0.04c-0.02,0.04-0.04,0.07-0.07,0.09c-0.02,0.02-0.05,0.04-0.07,0.05c-0.03,0.01-0.05,0.02-0.08,0.02
				c-0.03,0-0.05,0-0.08,0.01h-0.03v-0.23h0.08c0.01,0,0.03,0,0.04,0c0.01,0,0.02,0,0.03,0c0.02,0,0.04-0.01,0.05-0.03
				c0.02-0.02,0.04-0.03,0.05-0.06c0.02-0.02,0.04-0.05,0.06-0.07s0.04-0.05,0.06-0.08c0.02-0.03,0.04-0.05,0.06-0.08
				s0.04-0.05,0.07-0.07s0.05-0.04,0.07-0.05S16.29,27.75,16.32,27.75z M16.5,28.24c0.01,0,0.02,0,0.02-0.01
				c-0.01-0.04-0.03-0.08-0.05-0.12c-0.02-0.04-0.04-0.07-0.06-0.1c-0.02-0.03-0.04-0.05-0.06-0.07c-0.02-0.02-0.04-0.03-0.06-0.03
				c-0.03,0-0.05,0-0.06,0.01c-0.02,0.01-0.03,0.02-0.05,0.04c-0.01,0.02-0.03,0.04-0.04,0.06s-0.03,0.05-0.05,0.07
				c0.01,0.01,0.02,0.02,0.04,0.03c0.02,0.01,0.04,0.02,0.07,0.03s0.05,0.02,0.08,0.03c0.03,0.01,0.05,0.02,0.08,0.02
				c0.03,0.01,0.05,0.01,0.07,0.02C16.47,28.23,16.49,28.24,16.5,28.24z"/>
			<path class="st0" d="M17.49,28.22v0.23h-0.66v-0.23H17.49z"/>
			<path class="st0" d="M17.97,27.81l0,0.02c0,0.01,0,0.02,0.01,0.04s0.01,0.04,0.01,0.06c0,0.02,0.01,0.05,0.01,0.07
				c0,0.03,0,0.05,0.01,0.07c0,0.02,0,0.04,0,0.06v0.02c0.01,0.01,0.03,0.02,0.05,0.03s0.05,0.01,0.08,0.02
				c0.03,0,0.06,0.01,0.09,0.01c0.03,0,0.06,0,0.08,0h0.02v0.23H18.3c-0.03,0-0.06,0-0.1-0.01c-0.04-0.01-0.07-0.02-0.1-0.03
				c-0.03-0.01-0.06-0.03-0.09-0.05s-0.05-0.04-0.06-0.06c-0.01,0.01-0.03,0.03-0.05,0.04s-0.04,0.02-0.07,0.04
				s-0.05,0.02-0.08,0.03s-0.06,0.02-0.08,0.02c-0.03,0.01-0.06,0.01-0.09,0.01c-0.03,0-0.05,0.01-0.08,0.01h-0.05v-0.23h0.02
				c0.02,0,0.05,0,0.07,0s0.06,0,0.08,0c0.03,0,0.06,0,0.08-0.01c0.03,0,0.05-0.01,0.08-0.01c0.02-0.01,0.04-0.01,0.06-0.02
				c0.02-0.01,0.03-0.02,0.03-0.03c-0.01-0.04-0.02-0.07-0.03-0.1c-0.01-0.03-0.02-0.06-0.03-0.09L17.97,27.81z M17.64,28.91
				l-0.15-0.15l0.15-0.15l0.15,0.15L17.64,28.91z M17.97,28.91l-0.15-0.15l0.15-0.15l0.15,0.15L17.97,28.91z"/>
			<path class="st0" d="M18.94,28.22v0.23h-0.66v-0.23H18.94z"/>
			<path class="st0" d="M19.32,27.64c0,0,0.01,0.01,0.02,0.03c0.01,0.02,0.02,0.04,0.03,0.08s0.02,0.07,0.03,0.12
				c0.01,0.04,0.02,0.08,0.02,0.12s0,0.07,0,0.1c0,0.03,0,0.06,0,0.11c0,0.04-0.01,0.1-0.03,0.15c-0.02,0.02-0.04,0.03-0.08,0.04
				c-0.03,0.01-0.07,0.02-0.11,0.03c-0.04,0.01-0.08,0.01-0.12,0.02s-0.08,0.01-0.13,0.01h-0.06v-0.23h0.05c0.05,0,0.09,0,0.14,0
				s0.08-0.01,0.12-0.01c0.03,0,0.06-0.01,0.08-0.01c0.02-0.01,0.03-0.01,0.04-0.01c0-0.02-0.01-0.04-0.02-0.07
				c-0.01-0.03-0.03-0.06-0.04-0.09c-0.02-0.03-0.03-0.06-0.05-0.09s-0.03-0.05-0.04-0.07L19.32,27.64z M19.21,28.93l-0.16-0.16
				l0.16-0.16l0.16,0.16L19.21,28.93z"/>
			<path class="st0" d="M21.51,27.68c0.04,0,0.09,0,0.13,0.02l-0.07,0.22c-0.03,0-0.05-0.01-0.07-0.01c-0.05,0-0.1,0.01-0.14,0.02
				c-0.04,0.02-0.08,0.04-0.12,0.06c-0.04,0.03-0.07,0.06-0.1,0.09c-0.03,0.04-0.06,0.07-0.08,0.11c0.02,0.01,0.05,0.03,0.08,0.04
				c0.03,0.01,0.07,0.02,0.1,0.03s0.07,0.02,0.11,0.03c0.04,0.01,0.07,0.02,0.1,0.03c0.03,0.01,0.06,0.02,0.08,0.04
				c0.02,0.01,0.03,0.03,0.04,0.05c0.01,0.03,0.01,0.05,0.01,0.06c0,0.02,0,0.03,0,0.04c0,0.02,0,0.03,0,0.05
				c0,0.02-0.01,0.04-0.01,0.06c-0.01,0.02-0.01,0.04-0.02,0.06c-0.02,0.04-0.06,0.08-0.09,0.11c-0.04,0.04-0.09,0.07-0.14,0.09
				s-0.12,0.05-0.19,0.07c-0.07,0.02-0.14,0.03-0.23,0.04c-0.02,0-0.05,0-0.07,0c-0.06,0-0.13-0.01-0.18-0.02s-0.11-0.03-0.16-0.05
				c-0.05-0.03-0.09-0.06-0.12-0.1c-0.03-0.04-0.06-0.09-0.07-0.14c-0.01-0.05-0.02-0.1-0.02-0.15c0-0.03,0-0.07,0.01-0.13
				c0.01-0.06,0.03-0.15,0.07-0.26c0-0.01,0.01-0.03,0.01-0.04c0.01-0.02,0.01-0.04,0.02-0.06s0.02-0.04,0.02-0.06
				c0.01-0.02,0.02-0.04,0.02-0.05l0.08,0.04c-0.01,0.02-0.02,0.05-0.03,0.08s-0.02,0.06-0.03,0.1c-0.01,0.04-0.02,0.08-0.03,0.13
				c-0.01,0.05-0.02,0.08-0.02,0.11c0,0.03,0,0.05,0,0.06c0,0.03,0,0.07,0.01,0.11c0.01,0.04,0.03,0.07,0.05,0.11
				c0.03,0.03,0.07,0.06,0.12,0.08c0.05,0.02,0.12,0.03,0.2,0.03c0.02,0,0.03,0,0.05,0c0.02,0,0.03,0,0.05,0
				c0.09-0.01,0.16-0.02,0.22-0.03s0.11-0.03,0.16-0.04c0.04-0.02,0.08-0.04,0.11-0.06c0.03-0.02,0.05-0.04,0.08-0.07
				c-0.02-0.01-0.05-0.02-0.09-0.03s-0.07-0.02-0.11-0.03c-0.04-0.01-0.08-0.02-0.12-0.03c-0.04-0.01-0.07-0.03-0.1-0.04
				c-0.03-0.02-0.06-0.03-0.07-0.05s-0.03-0.04-0.03-0.07V28.3c0.01-0.09,0.02-0.17,0.06-0.25s0.07-0.14,0.12-0.2
				s0.11-0.1,0.18-0.13S21.44,27.68,21.51,27.68z"/>
			<path class="st0" d="M22.29,27.87c0,0,0.01,0.02,0.02,0.03c0.01,0.02,0.02,0.04,0.03,0.07c0.01,0.03,0.02,0.06,0.03,0.1
				c0.01,0.03,0.02,0.07,0.03,0.11c0.01,0.04,0.02,0.07,0.02,0.11c0.01,0.03,0.01,0.07,0.01,0.09c0,0.01,0,0.02,0,0.03
				c0,0.06-0.01,0.11-0.03,0.17c-0.02,0.05-0.04,0.1-0.07,0.15s-0.07,0.09-0.1,0.12c-0.04,0.03-0.07,0.06-0.11,0.08
				s-0.07,0.04-0.09,0.05C22.02,29,22,29,21.99,29c-0.01,0-0.02-0.01-0.03-0.01c-0.01-0.01-0.03-0.02-0.05-0.03
				s-0.04-0.02-0.07-0.04s-0.06-0.03-0.1-0.06c0,0-0.01-0.01-0.01-0.01c0,0,0,0,0,0s0,0,0.01,0c0.04-0.01,0.09-0.03,0.14-0.04
				c0.04-0.02,0.09-0.04,0.13-0.06c0.04-0.02,0.08-0.05,0.12-0.07c0.04-0.03,0.07-0.05,0.1-0.09c0.03-0.03,0.05-0.06,0.07-0.1
				c0.02-0.04,0.03-0.07,0.03-0.11c-0.01-0.03-0.03-0.05-0.04-0.07s-0.03-0.04-0.04-0.07c-0.01-0.02-0.03-0.04-0.04-0.07
				s-0.03-0.05-0.05-0.09c0.01-0.02,0.02-0.04,0.04-0.06c0.01-0.02,0.03-0.05,0.04-0.07s0.03-0.04,0.04-0.05
				C22.28,27.88,22.28,27.87,22.29,27.87L22.29,27.87z"/>
			<path class="st0" d="M22.86,26.94c0,0,0.01,0,0.01,0.01c0,0.01,0,0.01,0,0.02c0,0.03,0,0.07,0,0.1c0,0.04,0,0.08,0,0.12
				s0,0.08,0,0.12s0,0.08,0,0.11c0,0.04,0,0.08,0,0.12c0,0.04,0,0.09,0,0.14s0,0.1,0,0.15c0,0.05,0,0.1-0.01,0.16
				c0,0.05,0,0.1-0.01,0.15c0,0.05,0,0.09-0.01,0.13l-0.01,0.01c0,0.01-0.01,0.02-0.02,0.03c-0.01,0.01-0.02,0.03-0.03,0.04
				c-0.01,0.02-0.02,0.03-0.03,0.04c-0.01,0.01-0.02,0.03-0.03,0.04c-0.01,0.01-0.01,0.02-0.02,0.02h0c0,0,0,0,0,0s0,0,0-0.01
				c0-0.09,0-0.18,0-0.27c0-0.09,0-0.18-0.01-0.26c0-0.08,0-0.16-0.01-0.23c0-0.07-0.01-0.14-0.01-0.19c0-0.01,0-0.03,0-0.06
				s0-0.05,0-0.08c0-0.03,0-0.07-0.01-0.12c0-0.04-0.01-0.1-0.01-0.16c0,0,0.01-0.01,0.02-0.02c0.01-0.01,0.02-0.02,0.04-0.03
				s0.03-0.02,0.05-0.03c0.02-0.01,0.03-0.02,0.04-0.03c0.01-0.01,0.03-0.02,0.04-0.02S22.86,26.94,22.86,26.94z"/>
			<path class="st0" d="M22.19,29C22.19,29,22.19,29,22.19,29L22.19,29z M23.37,27.87C23.37,27.87,23.37,27.88,23.37,27.87
				c0.01,0.02,0.02,0.04,0.04,0.07c0.01,0.02,0.02,0.05,0.04,0.07c0.01,0.03,0.03,0.05,0.04,0.07c0.02,0.02,0.03,0.04,0.05,0.06
				c0.02,0.02,0.04,0.03,0.05,0.04c0.02,0.01,0.04,0.02,0.06,0.02h0.01v0.23h-0.01c-0.02,0-0.04,0-0.07-0.01s-0.05-0.02-0.08-0.04
				c0,0.02,0,0.03,0,0.05c0,0.05-0.01,0.09-0.02,0.14s-0.04,0.09-0.06,0.14c-0.03,0.04-0.06,0.08-0.1,0.12
				c-0.04,0.04-0.07,0.06-0.11,0.09c-0.03,0.02-0.07,0.04-0.09,0.05C23.09,28.99,23.07,29,23.06,29c0,0-0.01,0-0.01,0
				c-0.01,0-0.03-0.01-0.05-0.03c-0.02-0.01-0.04-0.02-0.07-0.04c-0.01,0-0.02-0.01-0.03-0.01c-0.01-0.01-0.02-0.01-0.04-0.02
				c-0.01-0.01-0.03-0.01-0.04-0.02c-0.01-0.01-0.02-0.01-0.03-0.02c0,0-0.01-0.01-0.01-0.01c0,0,0,0,0,0c0,0,0,0,0.01,0
				c0.08-0.03,0.16-0.05,0.23-0.08c0.07-0.03,0.13-0.07,0.18-0.11c0.05-0.04,0.09-0.08,0.12-0.13c0.03-0.05,0.04-0.1,0.05-0.15
				c-0.01-0.03-0.03-0.05-0.04-0.07c-0.01-0.02-0.02-0.04-0.03-0.06s-0.02-0.04-0.04-0.07c-0.01-0.03-0.03-0.06-0.04-0.1
				c0-0.01,0.01-0.01,0.02-0.03c0.01-0.01,0.01-0.02,0.02-0.04c0.01-0.01,0.02-0.03,0.03-0.04c0.01-0.01,0.02-0.03,0.03-0.04
				s0.02-0.02,0.02-0.03S23.37,27.87,23.37,27.87z M23.33,27.65l-0.16-0.16l0.16-0.16l0.16,0.16L23.33,27.65z"/>
			<path class="st0" d="M24.28,28.22v0.23h-0.66v-0.23H24.28z"/>
			<path class="st0" d="M25.23,27.15l-0.67,0.3c0.03,0.03,0.06,0.07,0.1,0.1c0.03,0.04,0.06,0.07,0.09,0.11s0.06,0.08,0.08,0.13
				s0.04,0.09,0.06,0.14c0.01,0.05,0.02,0.09,0.02,0.12c0,0.03,0,0.05,0,0.06c0,0.05-0.01,0.1-0.02,0.15
				c-0.07,0.06-0.15,0.11-0.25,0.14c-0.1,0.03-0.22,0.04-0.36,0.05h-0.05v-0.23h0.05c0.06,0,0.12,0,0.18,0
				c0.06,0,0.11-0.01,0.16-0.02c0.05-0.01,0.09-0.02,0.12-0.04c0.04-0.02,0.06-0.04,0.08-0.08c-0.03-0.06-0.06-0.12-0.1-0.17
				s-0.09-0.1-0.14-0.15c-0.05-0.04-0.1-0.09-0.15-0.12c-0.05-0.04-0.09-0.07-0.14-0.11l0.05-0.21c0.04-0.02,0.08-0.04,0.14-0.06
				c0.05-0.02,0.11-0.05,0.17-0.07c0.06-0.03,0.12-0.05,0.18-0.08s0.12-0.05,0.18-0.07c0.05-0.02,0.1-0.04,0.15-0.06
				c0.04-0.02,0.08-0.03,0.1-0.04L25.23,27.15z M25.19,26.8l-0.79,0.33l0.04-0.15l0.78-0.33L25.19,26.8z"/>
			<path class="st0" d="M25.52,27.87c0,0,0.01,0.02,0.02,0.03c0.01,0.02,0.02,0.04,0.03,0.07c0.01,0.03,0.02,0.06,0.03,0.1
				c0.01,0.03,0.02,0.07,0.03,0.11c0.01,0.04,0.02,0.07,0.02,0.11s0.01,0.07,0.01,0.09c0,0.01,0,0.02,0,0.03
				c0,0.06-0.01,0.11-0.03,0.17c-0.02,0.05-0.04,0.1-0.07,0.15s-0.07,0.09-0.1,0.12c-0.04,0.03-0.07,0.06-0.11,0.08
				s-0.07,0.04-0.09,0.05C25.25,29,25.23,29,25.22,29c-0.01,0-0.02-0.01-0.03-0.01c-0.01-0.01-0.03-0.02-0.05-0.03
				s-0.04-0.02-0.07-0.04s-0.06-0.03-0.1-0.06c0,0-0.01-0.01-0.01-0.01c0,0,0,0,0,0s0,0,0.01,0c0.04-0.01,0.09-0.03,0.14-0.04
				c0.04-0.02,0.09-0.04,0.13-0.06c0.04-0.02,0.08-0.05,0.12-0.07c0.04-0.03,0.07-0.05,0.1-0.09c0.03-0.03,0.05-0.06,0.07-0.1
				c0.02-0.04,0.03-0.07,0.03-0.11c-0.01-0.03-0.03-0.05-0.04-0.07s-0.03-0.04-0.04-0.07c-0.01-0.02-0.03-0.04-0.04-0.07
				s-0.03-0.05-0.05-0.09c0.01-0.02,0.02-0.04,0.04-0.06c0.01-0.02,0.03-0.05,0.04-0.07s0.03-0.04,0.04-0.05
				C25.51,27.88,25.52,27.87,25.52,27.87L25.52,27.87z"/>
			<path class="st0" d="M26.1,26.94c0,0,0.01,0,0.01,0.01c0,0.01,0,0.01,0,0.02c0.01,0.1,0.01,0.19,0.01,0.27c0,0.08,0,0.16,0,0.22
				c0,0.07,0,0.13,0,0.19c0,0.06,0,0.12,0,0.18c0,0.06,0,0.11,0,0.17s0,0.12,0.01,0.18c0.02,0.01,0.05,0.02,0.07,0.03
				s0.05,0.01,0.08,0.01h0.05v0.23h-0.05c-0.06,0-0.1-0.01-0.14-0.02c-0.04-0.01-0.07-0.03-0.1-0.06c-0.03-0.02-0.05-0.06-0.06-0.09
				c-0.01-0.04-0.02-0.08-0.02-0.12c0-0.05,0-0.1-0.01-0.15c0-0.05,0-0.11-0.01-0.17s-0.01-0.12-0.01-0.17
				c0-0.06-0.01-0.12-0.01-0.17c-0.01-0.07-0.01-0.13-0.02-0.2c-0.01-0.07-0.01-0.13-0.02-0.2c0,0,0.01-0.01,0.02-0.02
				c0.01-0.01,0.02-0.02,0.04-0.03S25.99,27.01,26,27s0.03-0.02,0.04-0.03s0.03-0.02,0.04-0.02S26.1,26.94,26.1,26.94z"/>
			<path class="st0" d="M26.96,28.22v0.23H26.3v-0.23H26.96z"/>
			<path class="st0" d="M27.58,28.22v0.23h-0.66v-0.23H27.58z"/>
			<path class="st0" d="M28.54,27.15l-0.67,0.3c0.03,0.03,0.06,0.07,0.1,0.1c0.03,0.04,0.06,0.07,0.09,0.11s0.06,0.08,0.08,0.13
				s0.04,0.09,0.06,0.14c0.01,0.05,0.02,0.09,0.02,0.12c0,0.03,0,0.05,0,0.06c0,0.05-0.01,0.1-0.02,0.15
				c-0.07,0.06-0.15,0.11-0.25,0.14c-0.1,0.03-0.22,0.04-0.36,0.05h-0.05v-0.23h0.05c0.06,0,0.12,0,0.18,0
				c0.06,0,0.11-0.01,0.16-0.02c0.05-0.01,0.09-0.02,0.12-0.04c0.04-0.02,0.06-0.04,0.08-0.08c-0.03-0.06-0.06-0.12-0.1-0.17
				s-0.09-0.1-0.14-0.15c-0.05-0.04-0.1-0.09-0.15-0.12c-0.05-0.04-0.09-0.07-0.14-0.11l0.05-0.21c0.04-0.02,0.08-0.04,0.14-0.06
				c0.05-0.02,0.11-0.05,0.17-0.07c0.06-0.03,0.12-0.05,0.18-0.08s0.12-0.05,0.18-0.07c0.05-0.02,0.1-0.04,0.15-0.06
				c0.04-0.02,0.08-0.03,0.1-0.04L28.54,27.15z"/>
		</g>
	</g>
</g>
</svg>
