<?xml version="1.0" encoding="utf-8"?>
<!-- Generator: Adobe Illustrator 24.1.1, SVG Export Plug-In . SVG Version: 6.00 Build 0)  -->
<svg version="1.1" id="Layer_1" xmlns="http://www.w3.org/2000/svg" xmlns:xlink="http://www.w3.org/1999/xlink" x="0px" y="0px"
	 viewBox="0 0 30.28 27.74" style="enable-background:new 0 0 30.28 27.74;" xml:space="preserve">
<style type="text/css">
	.st0{fill:#A0A0A0;}
	.st1{fill:#E1E1E1;}
</style>
<g>
	<g>
		<path class="st0" d="M15.14,0.35c-5.82,0-10.54,4.72-10.54,10.54c0,5.82,4.72,10.54,10.54,10.54s10.54-4.72,10.54-10.54
			C25.68,5.06,20.97,0.35,15.14,0.35z M19.14,20.37c5.18-2.88,5.69-10.39,0.61-13.82l-0.04-0.03L18.7,8.27
			c-0.02,0.02-0.04,0.04-0.06,0.07l0.02,0.01v0l0.15,0.11l0,0c6.53,4.85,1.81,11.59-0.86,12.19c3.75-1.85,4.46-8.44-0.4-10.37
			l-1.11,1.92c4.86,1.5,4.2,8.34-0.67,9c-3.72,0.27-4.79-2.61-5.05-3.34C5.14,15.1,3.56,5.21,11.36,1.37
			c-5.15,2.86-5.68,10.31-0.69,13.77l0.11,0.08l0.38,0.26l1.05-1.81l-0.34-0.25l0,0c-0.03-0.02-0.07-0.05-0.1-0.07l-0.11-0.08
			C5.18,8.42,9.9,1.7,12.56,1.1c-3.86,1.91-4.5,8.81,0.83,10.52l1.13-1.95c-5.34-1.21-4.78-8.44,0.23-9.12
			c3.72-0.27,4.79,2.61,5.05,3.34C25.36,6.65,26.94,16.54,19.14,20.37z"/>
	</g>
	<g>
		<path class="st0" d="M1.93,25.67c0,0,0.01,0,0.01,0.01c0.05,0.1,0.09,0.18,0.12,0.25c0.03,0.07,0.07,0.13,0.11,0.17
			c0.04,0.04,0.08,0.08,0.14,0.1c0.05,0.02,0.12,0.03,0.2,0.03h0.04v0.38H2.51c-0.05,0-0.09,0-0.14-0.01
			c-0.04-0.01-0.08-0.02-0.11-0.03c-0.03-0.01-0.06-0.03-0.09-0.04c-0.02-0.02-0.04-0.03-0.06-0.05c0,0.02,0,0.03,0,0.05
			c0,0.02,0,0.03,0,0.05c0,0.15-0.02,0.29-0.06,0.41c-0.04,0.12-0.11,0.22-0.19,0.31c-0.09,0.08-0.19,0.15-0.32,0.19
			s-0.27,0.07-0.44,0.07c-0.12,0-0.24-0.02-0.34-0.05s-0.19-0.08-0.26-0.14c-0.07-0.06-0.13-0.15-0.17-0.24
			c-0.04-0.1-0.06-0.21-0.06-0.35c0-0.12,0.02-0.26,0.05-0.4c0.04-0.15,0.09-0.31,0.17-0.49l0.14,0.07
			C0.61,26,0.59,26.05,0.57,26.11c-0.02,0.06-0.04,0.12-0.05,0.18c-0.02,0.06-0.03,0.12-0.04,0.18c-0.01,0.06-0.01,0.12-0.01,0.17
			c0,0.07,0.01,0.14,0.03,0.2C0.52,26.9,0.55,26.95,0.6,27c0.05,0.05,0.11,0.08,0.19,0.11c0.08,0.03,0.18,0.04,0.3,0.04
			c0.12,0,0.23-0.01,0.33-0.03s0.18-0.05,0.24-0.09c0.07-0.04,0.13-0.09,0.17-0.15c0.04-0.06,0.08-0.14,0.1-0.22
			c-0.04-0.11-0.07-0.23-0.11-0.34s-0.07-0.22-0.11-0.32c0.01-0.02,0.03-0.05,0.05-0.08c0.02-0.03,0.04-0.06,0.06-0.09
			c0.02-0.03,0.04-0.06,0.06-0.08c0.02-0.03,0.03-0.05,0.04-0.06C1.92,25.68,1.93,25.67,1.93,25.67z M1.23,25.98l-0.26-0.26
			l0.26-0.26l0.26,0.26L1.23,25.98z"/>
		<path class="st0" d="M3.56,26.24v0.38H2.49v-0.38H3.56z"/>
		<path class="st0" d="M4.33,25.29c0.01,0,0.02,0.02,0.03,0.05c0.02,0.03,0.03,0.07,0.05,0.13c0.02,0.05,0.04,0.12,0.05,0.19
			s0.03,0.14,0.03,0.21c0.01,0.06,0.01,0.12,0.01,0.16c0,0.05,0,0.11-0.01,0.18c-0.01,0.07-0.02,0.16-0.06,0.26
			c-0.02,0.02-0.05,0.03-0.09,0.05c-0.04,0.02-0.08,0.03-0.13,0.04c-0.05,0.01-0.1,0.02-0.16,0.03c-0.06,0.01-0.11,0.02-0.17,0.02
			c-0.06,0.01-0.11,0.01-0.17,0.01c-0.05,0-0.1,0-0.15,0H3.5v-0.38h0.09c0.05,0,0.11,0,0.16,0c0.06,0,0.11-0.01,0.17-0.01
			c0.05,0,0.11-0.01,0.16-0.01c0.05-0.01,0.1-0.01,0.13-0.02c0.04-0.01,0.07-0.01,0.09-0.02c0.02-0.01,0.04-0.01,0.04-0.02
			c-0.01-0.03-0.02-0.07-0.04-0.12C4.28,26,4.26,25.95,4.24,25.9c-0.03-0.05-0.05-0.1-0.08-0.14c-0.03-0.05-0.05-0.08-0.06-0.11
			L4.33,25.29z M3.76,27.4l-0.24-0.24l0.24-0.24L4,27.16L3.76,27.4z M4.3,27.4l-0.24-0.24l0.24-0.24l0.24,0.24L4.3,27.4z"/>
		<path class="st0" d="M5.39,25.47c0.06,0,0.11,0.02,0.15,0.04c0.05,0.02,0.09,0.05,0.12,0.09c0.04,0.04,0.07,0.08,0.1,0.13
			c0.03,0.05,0.05,0.1,0.07,0.16c0.02,0.06,0.04,0.11,0.05,0.17c0.01,0.06,0.02,0.12,0.03,0.17H6.1v0.38H5.92
			c-0.01,0.11-0.03,0.2-0.07,0.29c-0.04,0.09-0.08,0.17-0.14,0.23c-0.05,0.07-0.11,0.13-0.17,0.18c-0.06,0.05-0.12,0.09-0.18,0.13
			s-0.11,0.06-0.15,0.08c-0.05,0.02-0.08,0.02-0.1,0.02H5.11c-0.01,0-0.01,0-0.01,0c-0.01-0.01-0.03-0.02-0.06-0.03
			s-0.05-0.03-0.08-0.04c-0.03-0.02-0.06-0.03-0.09-0.05c-0.03-0.02-0.06-0.03-0.08-0.05c-0.03-0.01-0.05-0.03-0.06-0.04
			c-0.02-0.01-0.03-0.02-0.03-0.02c-0.01,0-0.01-0.01-0.01-0.01c0,0,0,0,0.01-0.01c0,0,0.01,0,0.01-0.01
			c0.15-0.04,0.29-0.09,0.4-0.14c0.12-0.05,0.21-0.1,0.29-0.16c0.08-0.06,0.15-0.12,0.2-0.18c0.05-0.06,0.09-0.13,0.11-0.19H5.56
			c-0.09,0-0.17-0.01-0.25-0.02c-0.08-0.01-0.15-0.04-0.21-0.08C5.04,26.48,5,26.42,4.96,26.36c-0.03-0.07-0.05-0.15-0.05-0.25
			c0-0.04,0-0.08,0.01-0.13c0.01-0.05,0.02-0.09,0.04-0.14c0.02-0.05,0.04-0.09,0.07-0.14c0.03-0.04,0.06-0.08,0.09-0.12
			c0.04-0.03,0.08-0.06,0.12-0.08C5.29,25.48,5.34,25.47,5.39,25.47z M5.71,26.24c0-0.02-0.01-0.04-0.02-0.06
			c-0.01-0.03-0.02-0.05-0.03-0.08C5.65,26.06,5.63,26.03,5.61,26c-0.02-0.03-0.04-0.06-0.07-0.08c-0.03-0.03-0.05-0.05-0.09-0.06
			c-0.03-0.02-0.07-0.03-0.11-0.03c-0.01,0-0.01,0-0.02,0c-0.01,0-0.01,0-0.02,0c-0.06,0-0.11,0.01-0.14,0.04
			c-0.04,0.03-0.07,0.05-0.09,0.09c-0.02,0.03-0.04,0.06-0.04,0.09c-0.01,0.03-0.01,0.05-0.01,0.06c0.01,0.05,0.06,0.08,0.12,0.11
			c0.07,0.02,0.17,0.04,0.3,0.04H5.71z"/>
		<path class="st0" d="M6.71,25.29c0.01,0,0.02,0.02,0.03,0.05c0.02,0.03,0.03,0.07,0.05,0.13c0.02,0.05,0.04,0.12,0.05,0.19
			c0.02,0.07,0.03,0.14,0.03,0.21c0.01,0.06,0.01,0.12,0.01,0.16c0,0.05,0,0.11-0.01,0.18c-0.01,0.07-0.02,0.16-0.06,0.26
			c-0.03,0.03-0.07,0.05-0.12,0.07c-0.05,0.02-0.11,0.04-0.17,0.05c-0.06,0.01-0.13,0.02-0.2,0.03c-0.07,0.01-0.14,0.01-0.21,0.01
			H6.03v-0.38h0.09c0.08,0,0.15,0,0.22-0.01c0.07-0.01,0.14-0.01,0.19-0.02c0.06-0.01,0.1-0.02,0.14-0.02
			c0.04-0.01,0.05-0.02,0.06-0.02c-0.01-0.03-0.02-0.07-0.04-0.12s-0.04-0.1-0.07-0.15c-0.03-0.05-0.05-0.1-0.08-0.14
			c-0.03-0.05-0.05-0.08-0.06-0.11L6.71,25.29z M6.57,25.03l-0.26-0.26l0.26-0.26l0.26,0.26L6.57,25.03z"/>
		<path class="st0" d="M9.79,25.67c0,0,0.01,0,0.01,0.01c0.02,0.06,0.05,0.12,0.06,0.18c0.02,0.06,0.03,0.12,0.05,0.18
			c0.01,0.06,0.02,0.12,0.03,0.18c0.01,0.06,0.02,0.11,0.02,0.15s0.01,0.09,0.01,0.12c0,0.03,0,0.06,0,0.07
			c0,0.15-0.02,0.29-0.06,0.41c-0.04,0.12-0.11,0.22-0.19,0.31c-0.09,0.08-0.19,0.15-0.32,0.19c-0.13,0.05-0.27,0.07-0.44,0.07
			c-0.12,0-0.24-0.02-0.34-0.05s-0.19-0.08-0.26-0.14c-0.07-0.06-0.13-0.15-0.17-0.24c-0.04-0.1-0.06-0.21-0.06-0.35
			c0-0.12,0.02-0.26,0.05-0.4c0.04-0.15,0.09-0.31,0.17-0.49l0.14,0.07C8.47,26,8.45,26.05,8.43,26.11
			c-0.02,0.06-0.04,0.12-0.05,0.18c-0.02,0.06-0.03,0.12-0.04,0.18c-0.01,0.06-0.01,0.12-0.01,0.17c0,0.07,0.01,0.14,0.03,0.2
			c0.02,0.06,0.05,0.12,0.1,0.16c0.05,0.05,0.11,0.08,0.19,0.11c0.08,0.03,0.18,0.04,0.3,0.04c0.12,0,0.23-0.01,0.33-0.03
			c0.09-0.02,0.18-0.05,0.24-0.09c0.07-0.04,0.13-0.09,0.17-0.15c0.04-0.06,0.08-0.14,0.1-0.22c-0.02-0.06-0.04-0.11-0.06-0.17
			c-0.02-0.06-0.04-0.11-0.06-0.17c-0.02-0.06-0.04-0.11-0.06-0.16c-0.02-0.05-0.04-0.11-0.06-0.16c0.02-0.03,0.04-0.06,0.06-0.09
			c0.02-0.03,0.04-0.06,0.06-0.09c0.02-0.03,0.04-0.05,0.06-0.08c0.02-0.02,0.03-0.04,0.04-0.05C9.79,25.68,9.79,25.67,9.79,25.67z
			 M9.08,25.98l-0.26-0.26l0.26-0.26l0.26,0.26L9.08,25.98z"/>
		<path class="st0" d="M10.62,24.12c0.01,0,0.01,0.01,0.01,0.02c0,0.01,0,0.02,0,0.03c0.01,0.16,0.02,0.31,0.02,0.45
			c0,0.13,0.01,0.26,0.01,0.37c0,0.11,0,0.22,0,0.32c0,0.1,0,0.2,0,0.29c0,0.09,0,0.19,0,0.28c0,0.09,0.01,0.19,0.01,0.29
			c0.04,0.02,0.07,0.04,0.11,0.05c0.04,0.01,0.08,0.02,0.13,0.02H11v0.38h-0.08c-0.09,0-0.17-0.01-0.23-0.03
			c-0.06-0.02-0.12-0.05-0.16-0.1s-0.07-0.09-0.1-0.15c-0.02-0.06-0.03-0.13-0.03-0.2c0-0.08-0.01-0.16-0.01-0.25
			c0-0.09-0.01-0.18-0.01-0.28c-0.01-0.1-0.01-0.19-0.02-0.29c-0.01-0.1-0.01-0.19-0.02-0.29c-0.01-0.11-0.02-0.22-0.03-0.33
			s-0.02-0.22-0.03-0.34c0.01-0.01,0.02-0.02,0.04-0.03c0.02-0.01,0.04-0.03,0.06-0.05c0.02-0.02,0.05-0.04,0.07-0.05
			c0.03-0.02,0.05-0.03,0.07-0.05c0.02-0.01,0.04-0.03,0.06-0.04S10.61,24.12,10.62,24.12z"/>
		<path class="st0" d="M12.02,26.24v0.38h-1.07v-0.38H12.02z"/>
		<path class="st0" d="M12.72,25.73c-0.01,0.04-0.02,0.08-0.03,0.12c-0.01,0.04-0.02,0.08-0.03,0.13c-0.01,0.03-0.01,0.06-0.01,0.08
			c0,0.01,0,0.03,0.01,0.05c0,0.02,0.01,0.04,0.03,0.07c0.02,0.02,0.04,0.04,0.07,0.05c0.03,0.01,0.06,0.02,0.1,0.02
			c0.05,0,0.1-0.01,0.14-0.03c0.04-0.02,0.08-0.05,0.11-0.1c0.02-0.03,0.03-0.05,0.04-0.08c0.01-0.02,0.02-0.05,0.03-0.07
			c0.01-0.02,0.02-0.05,0.03-0.07c0.01-0.03,0.02-0.06,0.03-0.09l0.19-0.06c-0.01,0.05-0.02,0.11-0.03,0.16
			c-0.01,0.06-0.03,0.12-0.05,0.19c0.01,0.03,0.02,0.06,0.04,0.08c0.02,0.02,0.04,0.04,0.06,0.05c0.02,0.01,0.05,0.02,0.07,0.03
			c0.03,0.01,0.05,0.01,0.08,0.01c0.06,0,0.11-0.01,0.15-0.03c0.04-0.02,0.07-0.05,0.09-0.09c0.02-0.04,0.04-0.09,0.05-0.14
			c0.01-0.05,0.02-0.12,0.03-0.18l0.18-0.06c0,0.05-0.01,0.09-0.01,0.13c0,0.04-0.01,0.08-0.01,0.12c-0.01,0.04-0.01,0.08-0.02,0.11
			c0.01,0.04,0.03,0.07,0.06,0.09c0.03,0.02,0.06,0.04,0.09,0.05s0.07,0.02,0.11,0.02c0.04,0,0.08,0,0.12,0v0.38
			c-0.07,0-0.13-0.01-0.18-0.03c-0.05-0.02-0.1-0.04-0.14-0.06c-0.04-0.03-0.07-0.06-0.09-0.1c-0.02-0.04-0.04-0.08-0.05-0.12
			c-0.09,0.2-0.22,0.3-0.39,0.3c-0.06,0-0.1-0.01-0.14-0.02c-0.04-0.01-0.07-0.03-0.1-0.06c-0.03-0.03-0.05-0.06-0.07-0.09
			c-0.02-0.04-0.03-0.08-0.05-0.12c-0.02,0.04-0.05,0.08-0.07,0.12c-0.03,0.04-0.06,0.07-0.1,0.1c-0.04,0.03-0.07,0.05-0.12,0.06
			c-0.04,0.02-0.09,0.02-0.14,0.02h-0.01c-0.05,0-0.09-0.01-0.12-0.03c-0.04-0.02-0.06-0.04-0.09-0.07
			c-0.02-0.03-0.04-0.06-0.06-0.1c-0.01-0.04-0.02-0.08-0.02-0.12c-0.03,0.08-0.07,0.14-0.11,0.18c-0.04,0.04-0.09,0.07-0.13,0.09
			c-0.05,0.02-0.09,0.03-0.14,0.03c-0.05,0-0.1,0-0.15,0l0-0.38h0.08c0.07,0,0.13-0.01,0.18-0.03c0.05-0.02,0.1-0.04,0.14-0.08
			c0.04-0.04,0.07-0.08,0.1-0.14c0.03-0.06,0.05-0.12,0.07-0.2L12.72,25.73z"/>
		<path class="st0" d="M15.19,25.29c0.01,0,0.02,0.02,0.03,0.05c0.02,0.03,0.03,0.07,0.05,0.13c0.02,0.05,0.04,0.12,0.05,0.19
			c0.02,0.07,0.03,0.14,0.03,0.21c0.01,0.06,0.01,0.12,0.01,0.16c0,0.05,0,0.11-0.01,0.18c-0.01,0.07-0.02,0.16-0.06,0.26
			c-0.02,0.02-0.05,0.03-0.09,0.05c-0.04,0.02-0.08,0.03-0.13,0.04c-0.05,0.01-0.1,0.02-0.16,0.03c-0.06,0.01-0.11,0.02-0.17,0.02
			c-0.06,0.01-0.11,0.01-0.17,0.01c-0.05,0-0.1,0-0.15,0h-0.09v-0.38h0.09c0.05,0,0.11,0,0.16,0c0.06,0,0.11-0.01,0.17-0.01
			c0.05,0,0.11-0.01,0.16-0.01s0.1-0.01,0.13-0.02c0.04-0.01,0.07-0.01,0.09-0.02c0.02-0.01,0.04-0.01,0.04-0.02
			c-0.01-0.03-0.02-0.07-0.04-0.12c-0.02-0.05-0.04-0.1-0.07-0.15c-0.03-0.05-0.05-0.1-0.08-0.14c-0.03-0.05-0.05-0.08-0.06-0.11
			L15.19,25.29z M14.62,27.4l-0.24-0.24l0.24-0.24l0.24,0.24L14.62,27.4z M15.17,27.4l-0.24-0.24l0.24-0.24l0.24,0.24L15.17,27.4z"
			/>
		<path class="st0" d="M16.17,25.01c0,0,0.02,0.01,0.05,0.04c0.03,0.02,0.07,0.06,0.11,0.1c0.04,0.04,0.09,0.09,0.14,0.15
			s0.1,0.12,0.15,0.18c0.05,0.07,0.09,0.13,0.13,0.21c0.04,0.07,0.07,0.14,0.08,0.21c0.01,0.04,0.01,0.08,0.01,0.11
			c0,0.03,0,0.05,0,0.06c0,0.05,0,0.09-0.01,0.14c0,0.05-0.01,0.1-0.02,0.14c-0.01,0.05-0.02,0.08-0.04,0.11
			c-0.01,0.01-0.02,0.02-0.04,0.04s-0.05,0.03-0.09,0.05c-0.04,0.02-0.09,0.03-0.16,0.04c-0.06,0.01-0.14,0.02-0.23,0.02
			c-0.07,0-0.14,0-0.2-0.01C16,26.6,15.95,26.6,15.9,26.58c-0.05-0.01-0.09-0.02-0.12-0.03c-0.03-0.01-0.04-0.02-0.05-0.02
			c-0.01-0.01-0.02-0.04-0.02-0.06c-0.01-0.03-0.01-0.06-0.02-0.09c-0.01-0.03-0.01-0.06-0.01-0.09c0-0.03,0-0.05,0-0.06v-0.02
			c0-0.01,0-0.02,0-0.04c0-0.01,0-0.02,0.01-0.02h0c0.01,0.01,0.03,0.02,0.06,0.03c0.03,0.01,0.06,0.02,0.11,0.03
			c0.04,0.01,0.1,0.02,0.16,0.03c0.06,0.01,0.14,0.01,0.22,0.01c0.04,0,0.08,0,0.12,0c0.04,0,0.09-0.01,0.13-0.01
			c0.04-0.01,0.08-0.02,0.12-0.04c0.04-0.02,0.07-0.04,0.1-0.07c-0.02-0.05-0.04-0.1-0.08-0.15c-0.03-0.05-0.07-0.1-0.11-0.15
			c-0.04-0.05-0.09-0.1-0.14-0.15c-0.05-0.05-0.1-0.09-0.15-0.14c-0.05-0.04-0.1-0.08-0.14-0.12c-0.05-0.04-0.09-0.07-0.12-0.1
			c0.01-0.02,0.03-0.05,0.04-0.07c0.01-0.02,0.03-0.05,0.04-0.07c0.01-0.02,0.02-0.03,0.03-0.05c0.01-0.02,0.02-0.04,0.04-0.06
			c0.01-0.02,0.02-0.03,0.03-0.04C16.16,25.02,16.17,25.01,16.17,25.01z"/>
		<path class="st0" d="M15.63,27.55C15.63,27.55,15.63,27.55,15.63,27.55L15.63,27.55z M17.56,25.67
			C17.56,25.67,17.56,25.67,17.56,25.67c0.02,0.04,0.04,0.07,0.06,0.11s0.04,0.08,0.06,0.12c0.02,0.04,0.05,0.08,0.07,0.12
			c0.03,0.04,0.05,0.08,0.08,0.11c0.03,0.03,0.06,0.06,0.09,0.07c0.03,0.02,0.06,0.03,0.09,0.03h0.02v0.38h-0.02
			c-0.03,0-0.06-0.01-0.11-0.02c-0.04-0.01-0.09-0.03-0.13-0.07c0,0.03,0,0.05,0,0.08c0,0.08-0.01,0.16-0.04,0.24
			c-0.02,0.08-0.06,0.16-0.11,0.23c-0.05,0.07-0.1,0.14-0.16,0.2c-0.06,0.06-0.12,0.11-0.17,0.14c-0.06,0.04-0.11,0.07-0.15,0.09
			c-0.05,0.02-0.08,0.03-0.1,0.03c-0.01,0-0.01,0-0.01,0c-0.02-0.01-0.05-0.02-0.09-0.04c-0.04-0.02-0.07-0.04-0.11-0.06
			c-0.01-0.01-0.03-0.01-0.04-0.02c-0.02-0.01-0.04-0.02-0.06-0.03c-0.02-0.01-0.04-0.02-0.06-0.03s-0.03-0.02-0.05-0.03
			c-0.01-0.01-0.01-0.01-0.01-0.02c0,0,0,0,0-0.01s0.01,0,0.01-0.01c0.14-0.04,0.27-0.09,0.38-0.14c0.12-0.05,0.22-0.11,0.3-0.18
			s0.15-0.14,0.2-0.21c0.05-0.08,0.07-0.16,0.08-0.25c-0.02-0.05-0.04-0.09-0.06-0.12c-0.02-0.03-0.03-0.07-0.05-0.11
			c-0.02-0.04-0.04-0.08-0.06-0.12c-0.02-0.04-0.05-0.1-0.07-0.17c0.01-0.01,0.01-0.02,0.02-0.04c0.01-0.02,0.02-0.04,0.04-0.06
			c0.01-0.02,0.03-0.05,0.05-0.07c0.02-0.03,0.03-0.05,0.05-0.07c0.01-0.02,0.03-0.04,0.04-0.05
			C17.55,25.68,17.56,25.67,17.56,25.67z"/>
		<path class="st0" d="M19.04,26.24v0.38h-1.07v-0.38H19.04z"/>
		<path class="st0" d="M19.8,25.29c0,0,0.02,0.02,0.03,0.05c0.02,0.03,0.03,0.07,0.05,0.13c0.02,0.05,0.04,0.12,0.05,0.19
			c0.02,0.07,0.03,0.14,0.03,0.21c0.01,0.06,0.01,0.12,0.01,0.16c0,0.05,0,0.11-0.01,0.18c-0.01,0.07-0.02,0.16-0.06,0.26
			c-0.02,0.02-0.05,0.03-0.09,0.05c-0.04,0.02-0.08,0.03-0.13,0.04c-0.05,0.01-0.1,0.02-0.16,0.03c-0.06,0.01-0.11,0.02-0.17,0.02
			c-0.06,0.01-0.11,0.01-0.17,0.01c-0.05,0-0.1,0-0.15,0h-0.09v-0.38h0.09c0.05,0,0.11,0,0.16,0c0.06,0,0.11-0.01,0.17-0.01
			c0.05,0,0.11-0.01,0.16-0.01c0.05-0.01,0.1-0.01,0.13-0.02c0.04-0.01,0.07-0.01,0.09-0.02c0.02-0.01,0.04-0.01,0.04-0.02
			c-0.01-0.03-0.02-0.07-0.04-0.12c-0.02-0.05-0.04-0.1-0.07-0.15c-0.03-0.05-0.05-0.1-0.08-0.14c-0.03-0.05-0.05-0.08-0.06-0.11
			L19.8,25.29z M19.49,27.08l-0.23,0.23l-0.23-0.23l0.23-0.23L19.49,27.08z M19.75,27.51l-0.23,0.23l-0.23-0.23l0.23-0.23
			L19.75,27.51z M20.02,27.08l-0.23,0.23l-0.23-0.23l0.23-0.23L20.02,27.08z"/>
		<path class="st0" d="M21.64,25.82c-0.01,0.04-0.03,0.08-0.04,0.13c-0.02,0.05-0.03,0.1-0.05,0.16c-0.01,0.05-0.03,0.1-0.04,0.16
			c-0.01,0.06-0.02,0.11-0.02,0.15c-0.01,0.05-0.01,0.09-0.01,0.13c0,0.02,0,0.05,0,0.09c0,0.04,0.01,0.08,0.03,0.13
			c0.02,0.05,0.04,0.1,0.07,0.14s0.07,0.08,0.13,0.12c0.05,0.03,0.12,0.06,0.19,0.08c0.08,0.02,0.16,0.03,0.27,0.03
			c0.04,0,0.09,0,0.13,0c0.1-0.01,0.18-0.02,0.26-0.03c0.07-0.01,0.14-0.02,0.2-0.03c0.06-0.01,0.11-0.03,0.15-0.04
			c0.04-0.01,0.08-0.03,0.1-0.04c0.07-0.03,0.11-0.06,0.13-0.1c-0.02-0.02-0.05-0.04-0.1-0.07c-0.05-0.03-0.11-0.06-0.18-0.1
			c-0.07-0.04-0.14-0.08-0.22-0.12c-0.08-0.04-0.16-0.08-0.24-0.11c0.01-0.02,0.01-0.03,0.02-0.05c0.01-0.02,0.02-0.03,0.03-0.06
			c0.01-0.02,0.02-0.04,0.04-0.07c0.01-0.02,0.02-0.04,0.03-0.06c0.01-0.02,0.02-0.03,0.03-0.05c0.01-0.02,0.02-0.03,0.03-0.04
			c0.08,0.01,0.16,0.03,0.23,0.03s0.14,0.01,0.21,0.02c0.07,0,0.13,0.01,0.2,0.01c0.06,0,0.13,0,0.2,0h0.08v0.38h-0.08
			c-0.06,0-0.12,0-0.19-0.01c-0.07-0.01-0.14-0.02-0.22-0.04c0.08,0.04,0.15,0.08,0.19,0.11c0.04,0.03,0.07,0.06,0.09,0.08
			l-0.02,0.25c-0.02,0.04-0.05,0.09-0.1,0.15c-0.05,0.06-0.12,0.11-0.2,0.16c-0.08,0.05-0.18,0.1-0.29,0.13
			c-0.11,0.04-0.23,0.06-0.36,0.07c-0.02,0-0.04,0-0.06,0c-0.02,0-0.04,0-0.06,0c-0.1,0-0.21-0.01-0.3-0.03
			c-0.1-0.02-0.19-0.05-0.27-0.09c-0.08-0.04-0.15-0.1-0.21-0.17c-0.06-0.07-0.1-0.15-0.12-0.24s-0.03-0.18-0.03-0.26
			c0-0.04,0-0.11,0.01-0.21c0.01-0.1,0.04-0.24,0.11-0.43c0.01-0.02,0.01-0.04,0.02-0.07c0.01-0.03,0.02-0.06,0.03-0.09
			c0.01-0.03,0.02-0.07,0.04-0.1s0.02-0.06,0.04-0.09L21.64,25.82z"/>
		<path class="st0" d="M24.14,25.04c0.05,0,0.1,0.01,0.15,0.04c0.05,0.02,0.09,0.06,0.12,0.1c0.04,0.04,0.07,0.09,0.09,0.14
			c0.03,0.05,0.05,0.11,0.07,0.16c0.02,0.06,0.04,0.11,0.05,0.17c0.01,0.06,0.02,0.11,0.03,0.16c0.01,0.07,0.01,0.13,0.01,0.19
			c0,0.04,0,0.09-0.01,0.15c-0.01,0.06-0.03,0.12-0.07,0.18c-0.04,0.06-0.08,0.11-0.15,0.15c-0.06,0.04-0.13,0.07-0.22,0.09
			c-0.08,0.02-0.18,0.03-0.29,0.04c-0.11,0.01-0.23,0.01-0.36,0.01h-0.13v-0.38h0.14c0.06,0,0.13,0,0.2,0c0.07,0,0.14,0,0.21-0.01
			c0.07,0,0.13-0.01,0.2-0.02c0.06-0.01,0.12-0.02,0.17-0.03c0.05-0.01,0.08-0.03,0.11-0.05c0.02-0.02,0.04-0.04,0.04-0.07v-0.01
			c-0.02,0.01-0.04,0.01-0.06,0.01c-0.02,0-0.04,0.01-0.07,0.01c-0.03,0-0.06,0-0.1,0c-0.02,0-0.04,0-0.06,0
			c-0.02,0-0.05,0-0.07-0.01c-0.08-0.01-0.15-0.02-0.21-0.05c-0.06-0.02-0.11-0.05-0.15-0.09c-0.04-0.04-0.06-0.08-0.08-0.12
			c-0.01-0.04-0.02-0.08-0.02-0.12c0-0.02,0-0.04,0-0.06c0-0.01,0-0.04,0.01-0.07c0.01-0.03,0.02-0.07,0.03-0.11
			c0.01-0.04,0.03-0.09,0.05-0.13c0.02-0.05,0.05-0.09,0.08-0.13c0.03-0.04,0.07-0.07,0.12-0.1C24.02,25.06,24.08,25.05,24.14,25.04
			z M24.27,25.74c0.03,0,0.06,0,0.09,0c0.02,0,0.05,0,0.06-0.01c0.02,0,0.04-0.01,0.05-0.01c0-0.01-0.01-0.03-0.02-0.05
			c-0.01-0.02-0.02-0.05-0.03-0.07c-0.01-0.03-0.03-0.05-0.05-0.08c-0.02-0.03-0.04-0.05-0.07-0.08c-0.03-0.02-0.06-0.04-0.09-0.06
			c-0.03-0.01-0.07-0.02-0.11-0.02c-0.07,0-0.12,0.01-0.16,0.04c-0.04,0.02-0.07,0.05-0.1,0.08c-0.02,0.03-0.04,0.06-0.05,0.09
			c-0.01,0.03-0.01,0.05-0.01,0.06c0.01,0.02,0.03,0.03,0.06,0.04c0.02,0.01,0.06,0.02,0.11,0.03c0.05,0.01,0.11,0.02,0.19,0.03
			C24.19,25.74,24.23,25.74,24.27,25.74z M24.11,24.83l-0.26-0.26l0.26-0.26l0.26,0.26L24.11,24.83z"/>
		<path class="st0" d="M25.32,24.13c0.01,0,0.01,0.01,0.01,0.02c0,0.01,0,0.02,0,0.03c0,0.05,0,0.11,0,0.17c0,0.07,0,0.13,0,0.2
			c0,0.07,0,0.14,0,0.21c0,0.07,0,0.13,0,0.18c0,0.06,0,0.13,0,0.2c0,0.07,0,0.15,0,0.24c0,0.08,0,0.17-0.01,0.26
			c0,0.09,0,0.17-0.01,0.26c0,0.09-0.01,0.17-0.01,0.25c0,0.08-0.01,0.15-0.01,0.22l-0.01,0.02c-0.01,0.01-0.02,0.03-0.03,0.05
			c-0.01,0.02-0.03,0.04-0.05,0.07c-0.02,0.03-0.03,0.05-0.05,0.07c-0.02,0.02-0.03,0.04-0.04,0.06c-0.01,0.02-0.02,0.03-0.03,0.03
			h0c0,0,0,0,0,0s0,0,0-0.01c0-0.15,0-0.3-0.01-0.45c0-0.15-0.01-0.29-0.01-0.43c0-0.14-0.01-0.27-0.01-0.39s-0.01-0.23-0.02-0.32
			c0-0.03,0-0.06-0.01-0.09c0-0.04,0-0.08-0.01-0.14c0-0.05-0.01-0.12-0.01-0.19c0-0.07-0.01-0.16-0.02-0.26
			c0.01-0.01,0.02-0.02,0.04-0.03c0.02-0.01,0.04-0.03,0.06-0.05c0.02-0.02,0.05-0.04,0.07-0.06c0.03-0.02,0.05-0.04,0.07-0.05
			c0.02-0.02,0.04-0.03,0.06-0.04C25.31,24.13,25.32,24.13,25.32,24.13z"/>
		<path class="st0" d="M24.2,27.55C24.2,27.55,24.2,27.55,24.2,27.55L24.2,27.55z M26.13,25.67C26.13,25.67,26.13,25.67,26.13,25.67
			c0.02,0.04,0.04,0.07,0.06,0.11c0.02,0.04,0.04,0.08,0.06,0.12c0.02,0.04,0.05,0.08,0.07,0.12c0.03,0.04,0.05,0.08,0.08,0.11
			c0.03,0.03,0.06,0.06,0.09,0.07c0.03,0.02,0.06,0.03,0.09,0.03h0.02v0.38h-0.02c-0.03,0-0.06-0.01-0.11-0.02
			c-0.04-0.01-0.09-0.03-0.13-0.07c0,0.03,0,0.05,0,0.08c0,0.08-0.01,0.16-0.04,0.24c-0.02,0.08-0.06,0.16-0.11,0.23
			c-0.05,0.07-0.1,0.14-0.16,0.2c-0.06,0.06-0.12,0.11-0.17,0.14c-0.06,0.04-0.11,0.07-0.15,0.09c-0.05,0.02-0.08,0.03-0.1,0.03
			c-0.01,0-0.01,0-0.01,0c-0.02-0.01-0.05-0.02-0.09-0.04c-0.04-0.02-0.07-0.04-0.11-0.06c-0.01-0.01-0.03-0.01-0.04-0.02
			c-0.02-0.01-0.04-0.02-0.06-0.03c-0.02-0.01-0.04-0.02-0.06-0.03s-0.03-0.02-0.05-0.03c-0.01-0.01-0.01-0.01-0.01-0.02
			c0,0,0,0,0-0.01c0,0,0.01,0,0.01-0.01c0.14-0.04,0.27-0.09,0.38-0.14c0.12-0.05,0.22-0.11,0.3-0.18c0.08-0.06,0.15-0.14,0.2-0.21
			c0.05-0.08,0.07-0.16,0.08-0.25c-0.02-0.05-0.04-0.09-0.06-0.12c-0.02-0.03-0.03-0.07-0.05-0.11c-0.02-0.04-0.04-0.08-0.06-0.12
			c-0.02-0.04-0.04-0.1-0.07-0.17c0.01-0.01,0.01-0.02,0.02-0.04s0.02-0.04,0.04-0.06c0.01-0.02,0.03-0.05,0.05-0.07
			c0.02-0.03,0.03-0.05,0.05-0.07c0.01-0.02,0.03-0.04,0.04-0.05C26.12,25.68,26.12,25.67,26.13,25.67z"/>
		<path class="st0" d="M27.61,26.24v0.38h-1.07v-0.38H27.61z"/>
		<path class="st0" d="M29.54,25.39c0.06,0,0.12,0.01,0.16,0.02c0.05,0.02,0.09,0.04,0.12,0.06c0.03,0.03,0.06,0.06,0.09,0.09
			s0.04,0.07,0.06,0.1c0.04,0.09,0.06,0.19,0.06,0.3c-0.02,0.07-0.04,0.14-0.07,0.21c-0.03,0.07-0.05,0.14-0.08,0.19
			c-0.05,0.05-0.1,0.09-0.17,0.13c-0.07,0.04-0.14,0.06-0.22,0.09c-0.08,0.02-0.17,0.04-0.25,0.05c-0.09,0.01-0.18,0.02-0.26,0.02
			c-0.07,0-0.14,0-0.2-0.01c-0.06-0.01-0.12-0.01-0.18-0.02c-0.05-0.01-0.1-0.02-0.14-0.04c-0.04-0.02-0.07-0.03-0.09-0.05
			c-0.05-0.04-0.08-0.09-0.11-0.15c-0.03-0.06-0.05-0.11-0.06-0.17c-0.03,0.07-0.06,0.13-0.1,0.18c-0.04,0.05-0.08,0.09-0.13,0.12
			c-0.05,0.03-0.1,0.06-0.17,0.07c-0.06,0.02-0.13,0.02-0.21,0.02h-0.03v-0.38h0.03c0.1,0,0.19-0.02,0.26-0.05
			c0.07-0.03,0.12-0.07,0.17-0.12c0.04-0.05,0.08-0.11,0.11-0.17c0.03-0.06,0.05-0.12,0.08-0.18l0.18-0.06
			c-0.02,0.05-0.03,0.1-0.04,0.14c-0.01,0.04-0.01,0.08-0.01,0.11c0,0.02,0,0.05,0.01,0.09c0,0.04,0.02,0.07,0.04,0.11
			c0.02,0.04,0.05,0.06,0.1,0.08c0.02-0.03,0.05-0.08,0.09-0.13c0.04-0.05,0.09-0.11,0.14-0.17c0.05-0.06,0.11-0.12,0.18-0.18
			c0.06-0.06,0.13-0.11,0.2-0.16c0.07-0.05,0.15-0.09,0.23-0.12C29.37,25.4,29.45,25.39,29.54,25.39z M29,26.29
			c0.07,0,0.14,0,0.21-0.01c0.07-0.01,0.15-0.02,0.22-0.04c0.07-0.02,0.15-0.05,0.22-0.08c0.07-0.03,0.14-0.07,0.2-0.12
			c0-0.01,0-0.03,0-0.04c0-0.03-0.01-0.07-0.02-0.1c-0.01-0.03-0.03-0.06-0.07-0.08c-0.03-0.02-0.07-0.04-0.12-0.05
			c-0.05-0.01-0.1-0.02-0.15-0.02c-0.06,0-0.12,0.01-0.19,0.02c-0.06,0.02-0.12,0.04-0.18,0.06c-0.06,0.03-0.12,0.06-0.17,0.09
			c-0.05,0.03-0.1,0.07-0.15,0.11c-0.05,0.04-0.09,0.08-0.12,0.11c-0.04,0.04-0.06,0.07-0.09,0.11c0.01,0,0.03,0.01,0.05,0.01
			s0.05,0.01,0.09,0.01c0.03,0,0.07,0.01,0.12,0.01C28.91,26.29,28.96,26.29,29,26.29z"/>
	</g>
</g>
</svg>
