<?xml version="1.0" encoding="utf-8"?>
<!-- Generator: Adobe Illustrator 24.1.1, SVG Export Plug-In . SVG Version: 6.00 Build 0)  -->
<svg version="1.1" id="Layer_1" xmlns="http://www.w3.org/2000/svg" xmlns:xlink="http://www.w3.org/1999/xlink" x="0px" y="0px"
	 viewBox="0 0 23.45 33.05" style="enable-background:new 0 0 23.45 33.05;" xml:space="preserve">
<style type="text/css">
	.st0{fill:#A0A0A0;}
	.st1{fill:#E1E1E1;}
</style>
<g>
	<g>
		<path class="st0" d="M7.42,14.47L7.42,14.47c0.26-6.39,2.89-9.01,9.42-8.76l0,0L7.42,14.47z"/>
		<path class="st0" d="M17.67,5.46L17.67,5.46c-0.29,7.17-3.25,10.11-10.56,9.82l0,0L17.67,5.46z"/>
		<g>
			<path class="st0" d="M15.92,20.67H3.11c-0.28,0-0.42-0.33-0.23-0.53l2.93-3.03c0.06-0.06,0.14-0.1,0.23-0.1h9.75
				c0.32,0,0.62-0.05,0.91-0.15c2.54-0.17,4.23-0.85,5.53-1.82C21.86,18.21,19.18,20.67,15.92,20.67z"/>
			<path class="st0" d="M18.61,14.19v-9.6c0-0.08,0.03-0.16,0.09-0.22l3.03-3.13c0.2-0.2,0.54-0.06,0.54,0.22v12.87
				c0,0.24-0.01,0.48-0.04,0.72c-1.3,0.97-3,1.65-5.53,1.82C17.8,16.49,18.61,15.43,18.61,14.19z"/>
		</g>
		<path class="st0" d="M15.92,20.67H3.11c-0.28,0-0.42-0.33-0.23-0.53l2.93-3.03c0.06-0.06,0.14-0.1,0.23-0.1h9.75
			c0.32,0,0.62-0.05,0.91-0.15c2.54-0.17,4.23-0.85,5.53-1.82C21.86,18.21,19.18,20.67,15.92,20.67z"/>
		<path class="st0" d="M18.61,14.19v-9.6c0-0.08,0.03-0.16,0.09-0.22l3.03-3.13c0.2-0.2,0.54-0.06,0.54,0.22v12.87
			c0,0.24-0.01,0.48-0.04,0.72c-1.3,0.97-3,1.65-5.53,1.82C17.8,16.49,18.61,15.43,18.61,14.19z"/>
		<g>
			<g>
				<path class="st0" d="M8.33,0.42h12.81c0.28,0,0.42,0.33,0.23,0.53l-2.93,3.03c-0.06,0.06-0.14,0.1-0.23,0.1H8.47
					c-0.32,0-0.62,0.05-0.91,0.15C5.02,4.39,3.33,5.08,2.03,6.05C2.38,2.88,5.07,0.42,8.33,0.42z"/>
				<path class="st0" d="M5.64,6.9v9.6c0,0.08-0.03,0.16-0.09,0.22l-3.03,3.13c-0.2,0.2-0.54,0.06-0.54-0.22V6.76
					c0-0.24,0.01-0.48,0.04-0.72c1.3-0.97,3-1.65,5.53-1.82C6.44,4.6,5.64,5.66,5.64,6.9z"/>
			</g>
			<path class="st0" d="M8.33,0.42h12.81c0.28,0,0.42,0.33,0.23,0.53l-2.93,3.03c-0.06,0.06-0.14,0.1-0.23,0.1H8.47
				c-0.32,0-0.62,0.05-0.91,0.15C5.02,4.39,3.33,5.08,2.03,6.05C2.38,2.88,5.07,0.42,8.33,0.42z"/>
			<path class="st0" d="M5.64,6.9v9.6c0,0.08-0.03,0.16-0.09,0.22l-3.03,3.13c-0.2,0.2-0.54,0.06-0.54-0.22V6.76
				c0-0.24,0.01-0.48,0.04-0.72c1.3-0.97,3-1.65,5.53-1.82C6.44,4.6,5.64,5.66,5.64,6.9z"/>
		</g>
	</g>
	<g>
		
			<rect x="1.55" y="25.75" transform="matrix(0.7149 -0.6993 0.6993 0.7149 -17.6538 8.6321)" class="st0" width="0.42" height="0.43"/>
		<path class="st0" d="M0.63,27.65c0.04,0.07,0.1,0.13,0.16,0.19c0.06,0.06,0.13,0.1,0.2,0.14c0.07,0.04,0.15,0.07,0.23,0.09
			c0.08,0.02,0.16,0.03,0.25,0.03l0.33,0c0.32,0,0.57-0.07,0.73-0.22c0.16-0.15,0.25-0.38,0.25-0.68l0.01-1.11l-0.41,0l-0.01,1.1
			c0,0.08-0.01,0.14-0.03,0.21c-0.02,0.06-0.04,0.12-0.08,0.16c-0.04,0.04-0.1,0.08-0.17,0.1c-0.07,0.02-0.17,0.03-0.28,0.03
			l-0.33,0c-0.1,0-0.2-0.03-0.28-0.07c-0.09-0.05-0.15-0.11-0.21-0.19c-0.03-0.06-0.06-0.12-0.08-0.19
			c-0.02-0.07-0.03-0.14-0.03-0.21c0-0.06,0-0.11,0.01-0.16c0.01-0.05,0.02-0.11,0.04-0.16c0.02-0.06,0.04-0.12,0.07-0.18
			c0.03-0.06,0.06-0.13,0.1-0.21l-0.37-0.18c-0.05,0.09-0.09,0.18-0.12,0.25c-0.03,0.08-0.06,0.15-0.08,0.22
			c-0.02,0.07-0.03,0.14-0.04,0.21c-0.01,0.07-0.01,0.14-0.02,0.21c0,0.11,0.01,0.22,0.04,0.33C0.54,27.46,0.58,27.56,0.63,27.65z"
			/>
		
			<rect x="2.16" y="25.86" transform="matrix(0.0102 -0.9999 0.9999 0.0102 -22.7497 29.1366)" class="st0" width="2.37" height="0.41"/>
		<path class="st0" d="M3.29,27.72l0,0.41l0.2,0c0.15,0,0.29-0.02,0.42-0.06c0.12-0.04,0.23-0.11,0.32-0.19
			c0.09-0.08,0.16-0.19,0.21-0.31c0.05-0.12,0.08-0.26,0.09-0.41l0.01-1.03l-0.41-0.01l-0.01,1c0,0.11-0.01,0.2-0.04,0.28
			C4.04,27.48,4,27.54,3.95,27.59c-0.05,0.05-0.11,0.08-0.19,0.1c-0.08,0.02-0.17,0.03-0.27,0.03L3.29,27.72z"/>
		
			<rect x="4.11" y="25.2" transform="matrix(0.7149 -0.6993 0.6993 0.7149 -16.5367 10.2664)" class="st0" width="0.42" height="0.43"/>
		<path class="st0" d="M5,26.91c0.02,0.06,0.04,0.11,0.08,0.16c0.04,0.05,0.08,0.08,0.14,0.11c0.06,0.03,0.13,0.05,0.22,0.07
			c0.07,0.01,0.15,0.02,0.24,0.02h0c0.01,0,0.01,0,0.02,0h0.03l0.02,0l0.59,0.01v0l0.37,0c0.08,0,0.15-0.01,0.23-0.04
			c0.07-0.02,0.14-0.06,0.2-0.12c0.12,0.11,0.27,0.16,0.47,0.16c0.08,0,0.15-0.01,0.22-0.03c0.07-0.02,0.14-0.06,0.2-0.12
			c0.12,0.11,0.28,0.16,0.48,0.17c0.08,0,0.15-0.01,0.23-0.04c0.08-0.03,0.14-0.07,0.2-0.12c0.06-0.05,0.11-0.12,0.15-0.21
			c0.04-0.08,0.06-0.18,0.06-0.29c0-0.04,0-0.08-0.01-0.13c-0.01-0.05-0.01-0.1-0.02-0.15c-0.01-0.05-0.02-0.1-0.03-0.15
			c-0.01-0.05-0.02-0.09-0.03-0.14c-0.01-0.04-0.02-0.07-0.02-0.1c-0.01-0.03-0.01-0.05-0.01-0.05l-0.39,0.12
			c0,0.02,0.01,0.04,0.02,0.07c0.01,0.03,0.01,0.06,0.02,0.1c0.01,0.04,0.01,0.07,0.02,0.11c0.01,0.04,0.01,0.08,0.02,0.12
			c0.01,0.04,0.01,0.07,0.01,0.11c0,0.03,0.01,0.06,0.01,0.09c0,0.06-0.01,0.1-0.03,0.14c-0.02,0.03-0.04,0.06-0.06,0.08
			c-0.02,0.02-0.05,0.03-0.07,0.04c-0.03,0.01-0.04,0.01-0.06,0.01c-0.1,0-0.17-0.02-0.21-0.07c-0.04-0.04-0.06-0.11-0.06-0.2
			l0.01-0.47l-0.41,0l-0.01,0.47c0,0.06-0.01,0.1-0.03,0.14c-0.02,0.03-0.04,0.06-0.07,0.08c-0.03,0.02-0.05,0.03-0.07,0.03
			c-0.02,0.01-0.04,0.01-0.06,0.01c-0.1,0-0.17-0.02-0.21-0.06c-0.04-0.04-0.06-0.11-0.06-0.2l0.01-0.47l-0.41-0.01l-0.01,0.47v0.01
			c0,0.06-0.01,0.11-0.03,0.14c-0.02,0.03-0.04,0.06-0.07,0.07c-0.02,0.02-0.05,0.03-0.07,0.03c-0.02,0-0.04,0.01-0.06,0.01l-0.32,0
			l-0.05,0l-0.59-0.01l-0.05,0c-0.07,0-0.13-0.01-0.17-0.02c-0.05-0.01-0.09-0.03-0.12-0.06c-0.03-0.03-0.04-0.07-0.05-0.12
			c-0.01-0.05-0.01-0.12-0.01-0.21l0.02-1.56l-0.41,0l-0.02,1.55c0,0.09,0,0.18,0.01,0.25C4.97,26.78,4.98,26.85,5,26.91z"/>
		
			<rect x="13.17" y="25.25" transform="matrix(0.7149 -0.6993 0.6993 0.7149 -13.9926 16.6192)" class="st0" width="0.42" height="0.43"/>
		
			<rect x="17.65" y="25.16" transform="matrix(0.7149 -0.6992 0.6992 0.7149 -12.6481 19.7223)" class="st0" width="0.42" height="0.43"/>
		
			<rect x="17.7" y="26.03" transform="matrix(0.0122 -0.9999 0.9999 0.0122 -7.5857 44.7921)" class="st0" width="2.37" height="0.41"/>
		
			<rect x="22.55" y="25.29" transform="matrix(0.7144 -0.6998 0.6998 0.7144 -11.3366 23.1927)" class="st0" width="0.39" height="0.4"/>
		<polygon class="st0" points="22.33,25.48 22.05,25.2 21.78,25.48 22.05,25.76 		"/>
		<path class="st0" d="M22.98,26.53c-0.01-0.05-0.02-0.1-0.02-0.15c-0.01-0.05-0.02-0.1-0.03-0.14c-0.01-0.04-0.02-0.08-0.02-0.1
			c-0.01-0.03-0.01-0.05-0.01-0.05l-0.39,0.11c0,0.02,0.01,0.04,0.02,0.07c0.01,0.03,0.01,0.06,0.02,0.1
			c0.01,0.04,0.02,0.08,0.02,0.12c0.01,0.04,0.02,0.08,0.02,0.12c0.01,0.04,0.01,0.08,0.01,0.11c0,0.04,0.01,0.06,0.01,0.09
			c0,0.06-0.01,0.1-0.03,0.14c-0.02,0.03-0.04,0.06-0.07,0.07c-0.03,0.02-0.05,0.03-0.07,0.03c-0.03,0-0.04,0.01-0.06,0.01
			l-0.68-0.01l-0.04,0l-0.6-0.01l-0.06,0H21l-0.21,0l0-0.22v-0.03v-0.01l0.01-0.63c0-0.09-0.07-0.16-0.15-0.16l-0.48-0.01
			c-0.43-0.01-0.79,0.34-0.79,0.78l-0.01,0.51c0,0.09,0.07,0.16,0.16,0.16l0.59,0.01c0.01,0,0.01,0,0.02,0l0.2,0h0.01l0.04,0
			c-0.01,0.08-0.02,0.15-0.04,0.2c-0.02,0.05-0.06,0.09-0.11,0.13c-0.03,0.03-0.06,0.05-0.11,0.06c-0.04,0.02-0.09,0.03-0.14,0.04
			c-0.05,0.01-0.11,0.02-0.18,0.02c-0.07,0.01-0.15,0.01-0.23,0.01l0,0.41c0.11,0,0.22,0,0.31-0.01c0.09-0.01,0.17-0.02,0.25-0.04
			c0.07-0.02,0.14-0.04,0.2-0.07c0.06-0.03,0.12-0.06,0.17-0.1c0.1-0.08,0.17-0.16,0.22-0.27c0.05-0.1,0.08-0.23,0.08-0.38l0.21,0
			c0,0,0,0,0.01,0l0.69,0.01h0.01l0.67,0.01c0.08,0,0.15-0.01,0.23-0.04c0.08-0.03,0.14-0.06,0.2-0.12c0.06-0.05,0.11-0.12,0.15-0.2
			c0.04-0.08,0.06-0.18,0.06-0.29c0-0.04,0-0.08-0.01-0.13C23,26.64,22.99,26.59,22.98,26.53z M20.09,27.02L20.09,27.02l-0.3,0
			l0-0.29c0-0.07,0.02-0.13,0.06-0.18c0.06-0.08,0.15-0.14,0.26-0.14l0.1,0h0l0.17,0l-0.01,0.6c0,0,0,0,0,0L20.09,27.02z"/>
		<polygon class="st0" points="1.41,30.48 1.7,30.78 2,30.49 1.71,30.18 		"/>
		<path class="st0" d="M5.73,30.85c-0.01-0.05-0.02-0.1-0.02-0.15c-0.01-0.05-0.02-0.1-0.03-0.14c-0.01-0.04-0.02-0.08-0.02-0.1
			c-0.01-0.03-0.01-0.05-0.01-0.06l-0.39,0.11c0,0.02,0.01,0.04,0.02,0.07c0.01,0.03,0.01,0.06,0.02,0.1
			c0.01,0.04,0.02,0.08,0.02,0.12c0.01,0.04,0.01,0.08,0.02,0.12c0.01,0.04,0.01,0.08,0.01,0.11c0,0.03,0.01,0.06,0.01,0.09
			c0,0.06-0.01,0.1-0.03,0.14c-0.02,0.03-0.04,0.06-0.07,0.07c-0.03,0.02-0.05,0.03-0.07,0.03c-0.03,0-0.04,0.01-0.06,0.01
			l-0.72-0.01v0l-0.66-0.01c0,0-0.01,0-0.01,0H3.74l-0.63-0.01l-0.04,0H3.07l-0.09,0c-0.07,0-0.13-0.02-0.18-0.06
			c-0.05-0.04-0.07-0.09-0.07-0.16l0.01-0.51l-0.41,0l-0.01,1.1c0,0.08-0.01,0.14-0.02,0.21c-0.02,0.06-0.04,0.12-0.09,0.16
			c-0.04,0.04-0.1,0.08-0.17,0.1c-0.07,0.02-0.17,0.03-0.28,0.03l-0.33,0c-0.1,0-0.2-0.03-0.28-0.07c-0.09-0.05-0.15-0.11-0.21-0.19
			c-0.03-0.06-0.06-0.12-0.08-0.19c-0.02-0.07-0.03-0.14-0.03-0.21c0-0.06,0.01-0.11,0.01-0.16c0.01-0.05,0.02-0.11,0.04-0.16
			c0.02-0.06,0.04-0.12,0.07-0.18c0.03-0.06,0.06-0.13,0.1-0.21l-0.37-0.18c-0.05,0.09-0.09,0.18-0.12,0.25
			c-0.03,0.08-0.06,0.15-0.08,0.22c-0.02,0.07-0.03,0.14-0.04,0.21c-0.01,0.07-0.01,0.14-0.02,0.21c0,0.11,0.01,0.22,0.04,0.33
			c0.03,0.1,0.07,0.2,0.12,0.29c0.04,0.07,0.1,0.13,0.16,0.19c0.06,0.06,0.13,0.1,0.2,0.14c0.07,0.04,0.15,0.07,0.23,0.09
			c0.08,0.02,0.16,0.03,0.25,0.03l0.33,0c0.32,0,0.56-0.07,0.73-0.22c0.16-0.15,0.25-0.38,0.25-0.68v-0.01
			c0.04,0.02,0.08,0.03,0.12,0.03c0.04,0.01,0.09,0.01,0.13,0.01l0.09,0h0.04l0.64,0.01c0,0,0,0,0,0h0.01l0.67,0.01
			c0,0,0.01,0,0.01,0l0.67,0.01c0.08,0,0.15-0.01,0.23-0.04c0.08-0.03,0.14-0.07,0.2-0.12c0.06-0.05,0.11-0.12,0.15-0.2
			c0.04-0.08,0.06-0.18,0.06-0.29c0-0.04,0-0.08-0.01-0.13C5.75,30.96,5.74,30.91,5.73,30.85z"/>
		<polygon class="st0" points="5.15,32.39 5.42,32.68 5.7,32.4 5.42,32.11 		"/>
		<polygon class="st0" points="4.46,32.39 4.73,32.67 5.01,32.39 4.74,32.11 		"/>
		
			<rect x="9.28" y="29.58" transform="matrix(0.7149 -0.6992 0.6992 0.7149 -18.1252 15.131)" class="st0" width="0.42" height="0.43"/>
		<path class="st0" d="M9.97,30.9c-0.01-0.05-0.02-0.1-0.02-0.15c-0.01-0.05-0.02-0.1-0.03-0.14c-0.01-0.04-0.02-0.08-0.02-0.1
			c-0.01-0.03-0.01-0.05-0.01-0.05L9.5,30.57c0,0.02,0.01,0.04,0.02,0.07c0.01,0.03,0.01,0.06,0.02,0.1
			c0.01,0.04,0.02,0.08,0.02,0.12c0.01,0.04,0.02,0.08,0.02,0.12c0.01,0.04,0.01,0.08,0.01,0.11c0,0.04,0.01,0.06,0.01,0.09
			c0,0.06-0.01,0.1-0.03,0.14c-0.02,0.03-0.04,0.06-0.07,0.07c-0.03,0.02-0.05,0.03-0.07,0.03c-0.03,0-0.04,0.01-0.06,0.01
			l-0.4-0.01l-0.05,0l-0.63-0.01H8.28L7.66,31.4v0l-0.28,0l0-0.22v-0.03v-0.01l0.01-0.63c0-0.09-0.07-0.16-0.16-0.16l-0.48-0.01
			c-0.05,0-0.09,0-0.13,0.01c-0.02,0-0.05,0.01-0.07,0.01c-0.04,0.01-0.07,0.02-0.11,0.03c-0.04,0.02-0.07,0.03-0.1,0.06
			c-0.01,0-0.01,0.01-0.02,0.01c-0.21,0.14-0.36,0.38-0.36,0.65l-0.01,0.51c0,0.09,0.07,0.16,0.16,0.16l0.8,0.01
			c0.02,0,0.03,0,0.05,0c-0.01,0.08-0.02,0.15-0.04,0.2c-0.02,0.05-0.06,0.09-0.11,0.13c-0.03,0.03-0.06,0.05-0.1,0.06
			c-0.04,0.02-0.09,0.03-0.14,0.04c-0.05,0.01-0.11,0.02-0.18,0.02c-0.07,0.01-0.15,0.01-0.23,0.01l-0.01,0.41
			c0.11,0,0.22,0,0.31-0.01c0.09-0.01,0.17-0.02,0.25-0.04c0.07-0.02,0.14-0.04,0.2-0.07c0.06-0.03,0.11-0.06,0.17-0.1
			c0.1-0.08,0.17-0.16,0.22-0.27c0.05-0.1,0.08-0.23,0.08-0.38l0.22,0l0.06,0l0.62,0.01h0.01l0.63,0.01l0.05,0l0.39,0
			c0.08,0,0.15-0.01,0.23-0.04c0.08-0.03,0.14-0.06,0.2-0.12c0.06-0.05,0.11-0.12,0.15-0.2c0.04-0.08,0.06-0.18,0.06-0.29
			c0-0.04,0-0.08-0.01-0.13C9.98,31,9.98,30.95,9.97,30.9z M6.71,30.79l0.11,0h0l0.16,0l0,0.38l0,0.22v0c0,0,0,0,0,0l-0.59-0.01
			l0-0.29c0-0.07,0.02-0.13,0.06-0.18c0,0,0,0,0,0C6.51,30.84,6.61,30.78,6.71,30.79z"/>
		<path class="st0" d="M12.38,31.52l-0.58-0.15c0-0.01,0-0.01,0-0.02v-0.02c0-0.08,0.02-0.16,0.05-0.22
			c0.03-0.06,0.07-0.12,0.13-0.16c0.05-0.04,0.11-0.08,0.18-0.1c0.07-0.02,0.15-0.03,0.23-0.03c0.04,0,0.08,0.01,0.12,0.01
			c0.04,0.01,0.08,0.02,0.13,0.04l0.11-0.39c-0.07-0.02-0.13-0.03-0.18-0.04c-0.05-0.01-0.11-0.02-0.16-0.02
			c-0.15,0-0.29,0.02-0.42,0.07c-0.12,0.05-0.23,0.11-0.31,0.19c-0.09,0.08-0.15,0.18-0.2,0.29c-0.05,0.11-0.07,0.23-0.07,0.35
			c0,0.07,0.01,0.13,0.02,0.2c0.01,0.07,0.03,0.14,0.06,0.21c0.05,0.01,0.09,0.02,0.15,0.04c0.05,0.01,0.11,0.03,0.16,0.04
			c0.05,0.02,0.11,0.03,0.16,0.05c0.05,0.02,0.1,0.03,0.15,0.04s0.08,0.02,0.12,0.03c0.03,0.01,0.06,0.02,0.07,0.02
			c0,0.08-0.02,0.15-0.04,0.2c-0.02,0.05-0.06,0.09-0.11,0.12c-0.05,0.03-0.11,0.05-0.18,0.06c-0.07,0.01-0.16,0.02-0.26,0.02
			l-0.35,0c-0.11,0-0.2-0.02-0.29-0.07c-0.09-0.05-0.16-0.11-0.2-0.19c-0.07-0.11-0.1-0.25-0.1-0.4c0-0.06,0.01-0.11,0.01-0.17
			c0.01-0.06,0.02-0.11,0.04-0.17c0.02-0.06,0.04-0.12,0.07-0.19c0.03-0.07,0.06-0.14,0.1-0.22l-0.36-0.18
			c-0.05,0.1-0.09,0.18-0.12,0.26c-0.03,0.08-0.06,0.16-0.08,0.24c-0.02,0.07-0.04,0.15-0.05,0.22c-0.01,0.07-0.02,0.14-0.02,0.22
			c0,0.24,0.05,0.44,0.16,0.62c0.05,0.07,0.1,0.13,0.16,0.19c0.06,0.06,0.13,0.1,0.2,0.14c0.07,0.04,0.15,0.07,0.23,0.09
			c0.08,0.02,0.17,0.03,0.26,0.03l0.35,0c0.18,0,0.33-0.01,0.45-0.05c0.12-0.03,0.22-0.09,0.3-0.16c0.08-0.07,0.14-0.16,0.17-0.27
			c0.04-0.11,0.06-0.24,0.06-0.39c0-0.09-0.02-0.17-0.07-0.24C12.56,31.6,12.48,31.55,12.38,31.52z"/>
		<path class="st0" d="M13.55,31.74c0,0.11-0.01,0.2-0.04,0.28c-0.03,0.08-0.06,0.14-0.11,0.19c-0.05,0.05-0.11,0.08-0.19,0.1
			c-0.08,0.02-0.17,0.03-0.27,0.03l-0.2,0l0,0.41l0.2,0c0.15,0,0.29-0.02,0.42-0.06c0.12-0.04,0.23-0.11,0.32-0.19
			c0.09-0.08,0.16-0.19,0.21-0.31c0.05-0.12,0.08-0.26,0.09-0.41l0.01-1.04l-0.41,0L13.55,31.74z"/>
		
			<rect x="18.57" y="29.83" transform="matrix(0.7149 -0.6993 0.6993 0.7149 -15.6538 21.6992)" class="st0" width="0.42" height="0.43"/>
		
			<rect x="22.07" y="29.29" transform="matrix(0.7111 -0.7031 0.7031 0.7111 -14.3099 24.1919)" class="st0" width="0.42" height="0.43"/>
		<path class="st0" d="M16.21,27.39c0.05,0,0.1-0.03,0.13-0.07c0.03,0.01,0.06,0.03,0.09,0.04c0.06,0.02,0.13,0.03,0.2,0.04
			c0.01,0,0.01,0,0.02,0h0l0.05,0l0.6,0.01l0.05,0l0.39,0c0.08,0,0.15-0.01,0.23-0.04c0.08-0.03,0.14-0.06,0.2-0.12
			c0.06-0.05,0.11-0.12,0.15-0.2c0.04-0.08,0.06-0.18,0.06-0.29c0-0.04,0-0.08-0.01-0.13c-0.01-0.05-0.01-0.1-0.02-0.15
			c-0.01-0.05-0.02-0.1-0.03-0.15c-0.01-0.05-0.02-0.1-0.03-0.14c-0.01-0.04-0.02-0.08-0.02-0.1c-0.01-0.03-0.01-0.05-0.01-0.05
			l-0.39,0.11c0,0.02,0.01,0.04,0.02,0.07c0.01,0.03,0.01,0.06,0.02,0.1c0.01,0.04,0.02,0.08,0.02,0.12
			c0.01,0.04,0.01,0.08,0.02,0.12c0.01,0.04,0.01,0.08,0.01,0.11c0,0.04,0.01,0.06,0.01,0.09c0,0.06-0.01,0.1-0.03,0.14
			c-0.02,0.03-0.04,0.06-0.07,0.07c-0.03,0.02-0.05,0.03-0.07,0.03C17.77,27,17.75,27,17.74,27l-0.4,0l-0.05,0l-0.6-0.01v0l-0.05,0
			c-0.01,0-0.03,0-0.06-0.01c-0.03,0-0.06-0.01-0.09-0.03c-0.03-0.02-0.06-0.04-0.08-0.08c-0.02-0.04-0.04-0.08-0.04-0.14
			c0-0.01,0-0.01,0-0.02l0.01-0.61c0-0.09-0.07-0.16-0.16-0.16l-0.48-0.01c-0.43,0-0.79,0.34-0.79,0.78l0,0.13
			c-0.01,0.02-0.02,0.04-0.03,0.05c-0.02,0.03-0.03,0.05-0.05,0.06c-0.02,0.01-0.04,0.02-0.06,0.02l-0.21,0v0l-0.6-0.01h-0.03
			l-0.08,0c-0.01,0-0.03,0-0.06,0c-0.03,0-0.05-0.01-0.08-0.03c-0.03-0.01-0.05-0.04-0.07-0.06c-0.02-0.03-0.03-0.07-0.03-0.12
			l0.01-0.52l-0.41-0.01l-0.01,0.53c0,0.02,0,0.04-0.01,0.07c-0.01,0.02-0.02,0.04-0.04,0.06c-0.02,0.02-0.05,0.03-0.09,0.05
			c-0.04,0.01-0.09,0.02-0.16,0.02l-0.24,0l-0.05,0l-0.64-0.01h-0.01l-0.62-0.01v0l-0.13,0c-0.03,0-0.06-0.02-0.09-0.04
			c-0.03-0.03-0.07-0.06-0.1-0.11c-0.04-0.04-0.07-0.09-0.1-0.14c-0.04-0.05-0.07-0.1-0.1-0.15l-0.58-0.89l-0.35,0.22l0.57,0.83
			c0.02,0.03,0.04,0.06,0.05,0.08c0.01,0.02,0.02,0.04,0.03,0.05c0.01,0.01,0.01,0.03,0.01,0.04c0,0.01,0,0.02-0.01,0.04
			c-0.01,0.03-0.04,0.05-0.07,0.07c-0.04,0.02-0.08,0.03-0.13,0.04c-0.05,0.01-0.11,0.01-0.17,0c-0.06-0.01-0.13-0.01-0.2-0.03
			c-0.07-0.01-0.14-0.03-0.21-0.05c-0.07-0.02-0.14-0.05-0.21-0.07l-0.12,0.39c0.1,0.03,0.18,0.06,0.25,0.08
			c0.07,0.02,0.13,0.04,0.19,0.05c0.05,0.01,0.1,0.02,0.15,0.03c0.04,0.01,0.08,0.01,0.13,0.01c0.05,0,0.11,0,0.17-0.01
			c0.06-0.01,0.12-0.02,0.17-0.03c0.06-0.02,0.11-0.04,0.16-0.06c0.05-0.03,0.09-0.06,0.13-0.11c0.13,0.13,0.27,0.2,0.41,0.2l0.08,0
			l0.05,0l0.63,0.01h0.01l0.68,0.01h0.01l0.25,0c0.11,0,0.2-0.01,0.29-0.03c0.08-0.02,0.16-0.06,0.22-0.11
			c0.05,0.05,0.12,0.09,0.19,0.11c0.08,0.03,0.16,0.04,0.25,0.04l0.1,0v0l0.38,0.01l0.28,0c0.01,0,0.01,0,0.01,0l0.13,0
			c0.08,0,0.14-0.01,0.2-0.03c0.02-0.01,0.04-0.02,0.06-0.03c0.05,0.04,0.11,0.06,0.18,0.07h0.01l0.21,0h0l0.45,0.01h0.01l0.2,0
			L16.21,27.39z M15.38,26.97l0-0.08l0-0.11v0l0-0.1c0-0.18,0.15-0.32,0.32-0.32l0.27,0l0,0.17v0l-0.01,0.43c0,0,0,0,0,0l-0.44-0.01
			L15.38,26.97z"/>
		<path class="st0" d="M15.44,30.45l-0.48-0.01c-0.05,0-0.11,0-0.16,0.01c0,0-0.01,0-0.01,0c-0.05,0.01-0.1,0.02-0.14,0.04
			c-0.04,0.02-0.07,0.03-0.11,0.06c-0.02,0.01-0.05,0.03-0.07,0.05c-0.19,0.14-0.31,0.36-0.31,0.62l-0.01,0.51
			c0,0.09,0.07,0.16,0.16,0.16l0.8,0.01c0.02,0,0.03,0,0.05,0c-0.01,0.08-0.02,0.15-0.04,0.2c-0.02,0.05-0.06,0.09-0.11,0.13
			c-0.03,0.03-0.07,0.05-0.11,0.06c-0.04,0.02-0.09,0.03-0.14,0.04c-0.05,0.01-0.11,0.02-0.18,0.02c-0.07,0.01-0.15,0.01-0.23,0.01
			l0,0.41c0.11,0,0.22,0,0.31-0.01c0.09-0.01,0.17-0.02,0.25-0.04c0.07-0.02,0.14-0.04,0.2-0.07c0.06-0.03,0.12-0.06,0.17-0.1
			c0.1-0.08,0.18-0.17,0.23-0.28c0.05-0.11,0.08-0.25,0.08-0.41l0.01-0.58v-0.02l0.01-0.64C15.59,30.52,15.52,30.45,15.44,30.45z
			 M14.91,30.88l0.11,0h0l0.17,0l-0.01,0.6c0,0,0,0,0,0l-0.59-0.01l0-0.29c0-0.06,0.02-0.12,0.05-0.17c0,0,0,0,0,0
			C14.7,30.93,14.8,30.88,14.91,30.88z"/>
		<path class="st0" d="M22.84,29.96l-0.48-0.01c-0.43-0.01-0.79,0.34-0.79,0.78l-0.01,0.51c0,0.09,0.07,0.16,0.16,0.16l0.5,0.01h0
			c0.08,0.01,0.16,0.01,0.25,0h0l0.05,0c0.01,0,0.03,0,0.04,0c-0.01,0.02-0.02,0.04-0.04,0.05c-0.02,0.02-0.05,0.04-0.09,0.05
			s-0.09,0.03-0.15,0.04c-0.06,0.01-0.14,0.01-0.23,0.01l-0.61-0.01h0c0,0-0.01,0-0.01,0l-0.68-0.01h-0.01l-0.67-0.01h-0.01
			l-0.68-0.01h-0.01l-0.07,0c-0.01,0-0.03,0-0.06,0c-0.03,0-0.06-0.01-0.08-0.03c-0.03-0.01-0.05-0.04-0.07-0.06
			c-0.02-0.03-0.03-0.07-0.03-0.12l0.01-0.52l-0.41-0.01l-0.01,0.53c0,0.02,0,0.04-0.01,0.07c-0.01,0.02-0.02,0.04-0.04,0.06
			c-0.02,0.02-0.05,0.03-0.09,0.05c-0.04,0.01-0.09,0.02-0.16,0.02l-0.29,0v0l-0.64-0.01h-0.01l-0.63-0.01l-0.05,0
			c-0.07,0-0.13-0.01-0.17-0.02c-0.05-0.01-0.09-0.03-0.12-0.06c-0.03-0.03-0.04-0.07-0.05-0.12c-0.01-0.05-0.01-0.12-0.01-0.21
			l0.02-1.56l-0.41,0l-0.02,1.55c0,0.09,0,0.18,0.01,0.25c0.01,0.08,0.02,0.15,0.04,0.21c0.02,0.06,0.04,0.11,0.08,0.16
			c0.04,0.05,0.08,0.08,0.14,0.11c0.06,0.03,0.13,0.05,0.22,0.07c0.07,0.01,0.15,0.02,0.24,0.02h0c0.01,0,0.01,0,0.02,0h0.03l0.02,0
			l0.64,0.01c0,0,0.01,0,0.01,0h0l0.63,0.01l0.04,0h0.01l0.25,0c0.11,0,0.2-0.01,0.29-0.03c0.08-0.02,0.16-0.06,0.22-0.11
			c0.05,0.05,0.12,0.09,0.19,0.11c0.08,0.03,0.16,0.04,0.25,0.04l0.1,0v0l0.65,0.01c0,0,0,0,0,0h0.01l0.67,0.01h0.01l0.63,0.01
			l0.05,0l0.62,0.01c0.12,0,0.23-0.01,0.34-0.03c0.11-0.02,0.2-0.06,0.29-0.12c0.08-0.06,0.15-0.13,0.21-0.23
			c0.05-0.1,0.09-0.22,0.1-0.38l0.01-0.12c0-0.03,0-0.06,0-0.09c0,0,0,0,0,0c0-0.02,0-0.03,0-0.05L23,30.11
			C23,30.03,22.93,29.96,22.84,29.96z M22,30.7c0-0.18,0.15-0.32,0.32-0.31l0.27,0l-0.01,0.53l0,0.08c0,0,0,0,0,0l-0.45-0.01
			l-0.14,0L22,30.7z"/>
	</g>
</g>
</svg>
