<?xml version="1.0" encoding="utf-8"?>
<!-- Generator: Adobe Illustrator 24.1.1, SVG Export Plug-In . SVG Version: 6.00 Build 0)  -->
<svg version="1.1" xmlns="http://www.w3.org/2000/svg" xmlns:xlink="http://www.w3.org/1999/xlink" x="0px" y="0px"
	 viewBox="0 0 83.79 83.79" style="enable-background:new 0 0 83.79 83.79;" xml:space="preserve">
<style type="text/css">
	.st0{fill:#00A99D;}
	.st1{fill:url(#SVGID_1_);}
	.st2{fill:#C5B04C;}
	.st3{fill-rule:evenodd;clip-rule:evenodd;fill:#C5B04C;}
	.st4{filter:url(#Adobe_OpacityMaskFilter);}
	.st5{fill:url(#SVGID_3_);}
	.st6{mask:url(#SVGID_2_);fill-rule:evenodd;clip-rule:evenodd;fill:#C5B04C;}
	.st7{filter:url(#Adobe_OpacityMaskFilter_1_);}
	.st8{fill:url(#SVGID_5_);}
	.st9{mask:url(#SVGID_4_);fill-rule:evenodd;clip-rule:evenodd;fill:#F1E5A7;}
	.st10{filter:url(#Adobe_OpacityMaskFilter_2_);}
	.st11{fill:url(#SVGID_7_);}
	.st12{mask:url(#SVGID_6_);fill-rule:evenodd;clip-rule:evenodd;fill:#F1E5A7;}
	.st13{filter:url(#Adobe_OpacityMaskFilter_3_);}
	.st14{fill:url(#SVGID_9_);}
	.st15{mask:url(#SVGID_8_);fill-rule:evenodd;clip-rule:evenodd;fill:#F1E5A7;}
	.st16{filter:url(#Adobe_OpacityMaskFilter_4_);}
	.st17{fill:url(#SVGID_11_);}
	.st18{mask:url(#SVGID_10_);fill-rule:evenodd;clip-rule:evenodd;fill:#F1E5A7;}
	.st19{opacity:0.5;fill-rule:evenodd;clip-rule:evenodd;fill:#C5B04C;}
	.st20{filter:url(#Adobe_OpacityMaskFilter_5_);}
	.st21{fill:url(#SVGID_13_);}
	.st22{mask:url(#SVGID_12_);fill-rule:evenodd;clip-rule:evenodd;fill:#C5B04C;}
	.st23{filter:url(#Adobe_OpacityMaskFilter_6_);}
	.st24{fill:url(#SVGID_15_);}
	.st25{mask:url(#SVGID_14_);fill-rule:evenodd;clip-rule:evenodd;fill:#C5B04C;}
	.st26{filter:url(#Adobe_OpacityMaskFilter_7_);}
	.st27{fill:url(#SVGID_17_);}
	.st28{mask:url(#SVGID_16_);fill-rule:evenodd;clip-rule:evenodd;fill:#F1E5A7;}
	.st29{fill-rule:evenodd;clip-rule:evenodd;fill:#315B51;}
	.st30{filter:url(#Adobe_OpacityMaskFilter_8_);}
	.st31{fill:url(#SVGID_19_);}
	.st32{mask:url(#SVGID_18_);fill-rule:evenodd;clip-rule:evenodd;fill:#2BB595;}
	.st33{fill:#B0AFB0;}
	.st34{fill:#FFFFFF;}
	.st35{fill:none;stroke:#FFFFFF;stroke-width:0.25;stroke-miterlimit:10;}
	.st36{fill:#B3B2B3;}
	.st37{fill:#D39241;}
	.st38{fill:#315B51;}
	.st39{fill:#C8B34C;}
	.st40{fill:#2BB898;}
	.st41{fill:#385BA6;}
	.st42{fill:#515151;}
	.st43{fill:#F4E8AA;}
	.st44{fill:#FAC86E;}
	.st45{fill:#F4F4F4;}
	.st46{fill:#AD9944;}
	.st47{fill:none;stroke:#FFFFFF;stroke-width:0.5;stroke-miterlimit:10;}
	.st48{fill:none;stroke:#CACACA;stroke-width:0.5;stroke-miterlimit:10;}
	.st49{fill:none;stroke:#B3B3B3;stroke-width:0.5;stroke-miterlimit:10;}
	.st50{fill-rule:evenodd;clip-rule:evenodd;fill:none;stroke:#CACACA;stroke-width:0.5;stroke-miterlimit:10;}
	.st51{fill:#FAFAFA;}
	.st52{fill:#EDF1F4;stroke:#00A99D;stroke-miterlimit:10;}
	.st53{fill:#E1E1E1;}
	.st54{filter:url(#Adobe_OpacityMaskFilter_9_);}
	.st55{fill:url(#SVGID_21_);}
	.st56{mask:url(#SVGID_20_);fill-rule:evenodd;clip-rule:evenodd;fill:#C5B04C;}
	.st57{filter:url(#Adobe_OpacityMaskFilter_10_);}
	.st58{fill:url(#SVGID_23_);}
	.st59{mask:url(#SVGID_22_);fill-rule:evenodd;clip-rule:evenodd;fill:#F1E5A7;}
	.st60{filter:url(#Adobe_OpacityMaskFilter_11_);}
	.st61{fill:url(#SVGID_25_);}
	.st62{mask:url(#SVGID_24_);fill-rule:evenodd;clip-rule:evenodd;fill:#F1E5A7;}
	.st63{filter:url(#Adobe_OpacityMaskFilter_12_);}
	.st64{fill:url(#SVGID_27_);}
	.st65{mask:url(#SVGID_26_);fill-rule:evenodd;clip-rule:evenodd;fill:#F1E5A7;}
	.st66{filter:url(#Adobe_OpacityMaskFilter_13_);}
	.st67{fill:url(#SVGID_29_);}
	.st68{mask:url(#SVGID_28_);fill-rule:evenodd;clip-rule:evenodd;fill:#F1E5A7;}
	.st69{filter:url(#Adobe_OpacityMaskFilter_14_);}
	.st70{fill:url(#SVGID_31_);}
	.st71{mask:url(#SVGID_30_);fill-rule:evenodd;clip-rule:evenodd;fill:#C5B04C;}
	.st72{filter:url(#Adobe_OpacityMaskFilter_15_);}
	.st73{fill:url(#SVGID_33_);}
	.st74{mask:url(#SVGID_32_);fill-rule:evenodd;clip-rule:evenodd;fill:#C5B04C;}
	.st75{fill:none;stroke:#2BB898;stroke-width:1.16;stroke-linecap:round;stroke-linejoin:round;stroke-miterlimit:10;}
	.st76{fill-rule:evenodd;clip-rule:evenodd;fill:none;stroke:#C7C7C7;stroke-width:0.5;stroke-miterlimit:10;}
	.st77{fill-rule:evenodd;clip-rule:evenodd;fill:none;stroke:#C7C7C7;stroke-width:0.75;stroke-miterlimit:10;}
	.st78{fill:#2BB898;stroke:#2BB898;stroke-width:0.7684;stroke-miterlimit:10;}
	.st79{clip-path:url(#SVGID_35_);fill:#BCBCBC;}
	.st80{clip-path:url(#SVGID_35_);fill:#969696;}
	.st81{clip-path:url(#SVGID_35_);}
	.st82{fill:#969696;}
	.st83{fill:#BCBCBC;}
	.st84{fill:none;stroke:#C7C7C7;stroke-width:0.5;stroke-miterlimit:10;}
	.st85{clip-path:url(#SVGID_37_);}
	.st86{fill:#4D4D4D;}
	.st87{fill:#A6D0E4;}
	.st88{fill:url(#);}
	.st89{fill:#A0A0A0;}
	.st90{fill:#E7ECF2;stroke:#00A99D;stroke-miterlimit:10;}
	.st91{opacity:0.24;}
	.st92{fill:#B4E0E0;}
	.st93{fill:#52C5BD;}
	.st94{opacity:0.95;fill:#315B51;stroke:#00A99D;stroke-miterlimit:10;}
</style>
<g id="Layer_1">
	<g>
		<path class="st92" d="M83.79,0H16.22v13.51c-5.22,0-9.46,4.24-9.46,9.46c0,3.02,1.43,5.71,3.64,7.44C4.38,32.32,0,37.96,0,44.6
			v9.46c0,2.98,2.42,5.41,5.41,5.41h1.35v18.92c0,2.98,2.42,5.41,5.41,5.41c1.62,0,3.06-0.73,4.05-1.87
			c0.99,1.14,2.43,1.87,4.05,1.87c2.98,0,5.41-2.42,5.41-5.41V54.06h6.76v20.27c0,2.24,1.82,4.05,4.05,4.05h32.43
			c2.24,0,4.05-1.82,4.05-4.05V54.06h10.81V0z M18.92,10.81V2.7h62.16v8.11 M9.46,22.97c0-3.73,3.03-6.76,6.76-6.76
			s6.76,3.03,6.76,6.76s-3.03,6.76-6.76,6.76S9.46,26.7,9.46,22.97z M21.1,34.96l-1.73-2.52h4.01c1.75,0,3.46-0.49,4.96-1.4
			l14.85-9.14c0.29-0.18,0.61-0.27,0.95-0.27c1,0,1.81,0.81,1.81,1.81v0.53c0,0.62-0.31,1.18-0.83,1.52L27.3,37.01
			c-2.71,1.75-4.32,4.72-4.32,7.94v33.43c0,1.49-1.21,2.7-2.7,2.7c-1.49,0-2.7-1.21-2.7-2.7V54.06h-2.7v24.33
			c0,1.49-1.21,2.7-2.7,2.7s-2.7-1.21-2.7-2.7V41.89h-2.7v14.87H5.41c-1.49,0-2.7-1.21-2.7-2.7V44.6c0-6.09,4.5-11.13,10.34-12.01
			l-0.15,2.37 M70.27,74.33c0,0.74-0.61,1.35-1.35,1.35H36.49c-0.74,0-1.35-0.61-1.35-1.35V50c0-0.74,0.61-1.35,1.35-1.35h32.43
			c0.74,0,1.35,0.61,1.35,1.35V74.33z M72.98,51.35V50c0-2.24-1.82-4.05-4.05-4.05H36.49c-2.24,0-4.05,1.82-4.05,4.05v1.35h-6.76
			v-6.4c0-2.3,1.15-4.42,3.09-5.67l17.83-11.53c0.66-0.43,1.18-1.01,1.53-1.67l2.46,2.95c-0.36,0.61-0.58,1.3-0.58,2.06
			c0,2.24,1.82,4.05,4.05,4.05c0.98,0,1.86-0.36,2.56-0.94l6.98,4.19c-0.05,0.26-0.08,0.53-0.08,0.81c0,2.24,1.82,4.05,4.05,4.05
			s4.05-1.82,4.05-4.05c0-1.26-0.59-2.38-1.5-3.12l4.19-11.74c0,0,0.01,0,0.01,0c2.24,0,4.05-1.82,4.05-4.05s-1.82-4.05-4.05-4.05
			s-4.05,1.82-4.05,4.05c0,1.26,0.59,2.38,1.5,3.12l-4.19,11.74c0,0-0.01,0-0.01,0c-0.98,0-1.86,0.36-2.56,0.94l-6.98-4.19
			c0.05-0.26,0.08-0.53,0.08-0.81c0-2.24-1.82-4.05-4.05-4.05c-0.49,0-0.96,0.1-1.4,0.26l-4.17-5.01c-0.51-1.93-2.26-3.37-4.34-3.37
			c-0.84,0-1.65,0.23-2.36,0.67l-14.85,9.14c-1.07,0.66-2.29,1-3.54,1h-0.56c1.76-1.72,2.85-4.11,2.85-6.76
			c0-4.28-2.85-7.89-6.76-9.06v-0.4h62.16v37.84H72.98z M54.06,29.73c0.74,0,1.35,0.61,1.35,1.35s-0.61,1.35-1.35,1.35
			s-1.35-0.61-1.35-1.35S53.31,29.73,54.06,29.73z M67.57,37.84c0.74,0,1.35,0.61,1.35,1.35c0,0.74-0.61,1.35-1.35,1.35
			c-0.74,0-1.35-0.61-1.35-1.35C66.22,38.45,66.83,37.84,67.57,37.84z M72.98,20.27c0-0.74,0.61-1.35,1.35-1.35
			c0.74,0,1.35,0.61,1.35,1.35s-0.61,1.35-1.35,1.35C73.58,21.62,72.98,21.02,72.98,20.27z"/>
		<path class="st92" d="M21.62,5.41h2.7v2.7h-2.7V5.41z"/>
		<path class="st92" d="M27.03,5.41h2.7v2.7h-2.7V5.41z"/>
		<path class="st92" d="M32.43,5.41h2.7v2.7h-2.7V5.41z"/>
		<path class="st92" d="M59.46,70.27h-2.7V59.46h-8.11v10.81h-2.7V56.76h-8.11v16.22h29.73V51.35h-8.11V70.27z M43.24,70.27h-2.7
			V59.46h2.7V70.27z M51.35,62.16h2.7v8.11h-2.7V62.16z M62.16,54.06h2.7v16.22h-2.7V54.06z"/>
		<path class="st92" d="M75.68,45.95h2.7v2.7h-2.7V45.95z"/>
		<path class="st92" d="M75.68,40.54h2.7v2.7h-2.7V40.54z"/>
		<path class="st92" d="M75.68,35.14h2.7v2.7h-2.7V35.14z"/>
	</g>
</g>
<g id="Layer_2">
</g>
</svg>
