<?xml version="1.0" encoding="utf-8"?>
<!-- Generator: Adobe Illustrator 24.1.1, SVG Export Plug-In . SVG Version: 6.00 Build 0)  -->
<svg version="1.0" xmlns="http://www.w3.org/2000/svg" xmlns:xlink="http://www.w3.org/1999/xlink" x="0px" y="0px"
	 viewBox="0 0 15.34 17.23" style="enable-background:new 0 0 15.34 17.23;" xml:space="preserve">
<style type="text/css">
	.st38{fill:#315B51;}
</style>
<g id="Layer_1">
	<g>
		<path class="st38" d="M13.93,1.44c-1.63-1.63-4.29-1.63-5.92,0L1.78,7.67c-0.19,0.19-0.19,0.5,0,0.7s0.5,0.19,0.7,0L8.7,2.14
			c1.21-1.21,3.32-1.21,4.52,0c1.25,1.25,1.25,3.28,0,4.52l-8.7,8.8c-0.74,0.74-2.04,0.74-2.78,0c-0.77-0.77-0.77-2.02,0-2.78
			l8.35-8.45c0.28-0.28,0.77-0.28,1.04,0c0.29,0.29,0.29,0.76,0,1.04l-8,8.1c-0.17,0.17-0.17,0.53,0,0.7c0.19,0.19,0.5,0.19,0.7,0
			l8-8.1c0.67-0.67,0.67-1.76,0-2.44c-0.65-0.65-1.79-0.65-2.44,0l-8.35,8.45c-1.14,1.14-1.14,3.03,0,4.18
			c0.56,0.56,1.3,0.86,2.09,0.86s1.53-0.3,2.09-0.86l8.7-8.8C15.56,5.73,15.56,3.07,13.93,1.44z"/>
	</g>
</g>
<g id="Layer_2">
</g>
</svg>
