<?xml version="1.0" encoding="utf-8"?>
<!-- Generator: Adobe Illustrator 24.1.1, SVG Export Plug-In . SVG Version: 6.00 Build 0)  -->
<svg version="1.1" xmlns="http://www.w3.org/2000/svg" xmlns:xlink="http://www.w3.org/1999/xlink" x="0px" y="0px"
	 viewBox="0 0 82.88 82.88" style="enable-background:new 0 0 82.88 82.88;" xml:space="preserve">
<style type="text/css">
	.st0{fill:#00A99D;}
	.st1{fill:url(#SVGID_1_);}
	.st2{fill:#C5B04C;}
	.st3{fill-rule:evenodd;clip-rule:evenodd;fill:#C5B04C;}
	.st4{filter:url(#Adobe_OpacityMaskFilter);}
	.st5{fill:url(#SVGID_3_);}
	.st6{mask:url(#SVGID_2_);fill-rule:evenodd;clip-rule:evenodd;fill:#C5B04C;}
	.st7{filter:url(#Adobe_OpacityMaskFilter_1_);}
	.st8{fill:url(#SVGID_5_);}
	.st9{mask:url(#SVGID_4_);fill-rule:evenodd;clip-rule:evenodd;fill:#F1E5A7;}
	.st10{filter:url(#Adobe_OpacityMaskFilter_2_);}
	.st11{fill:url(#SVGID_7_);}
	.st12{mask:url(#SVGID_6_);fill-rule:evenodd;clip-rule:evenodd;fill:#F1E5A7;}
	.st13{filter:url(#Adobe_OpacityMaskFilter_3_);}
	.st14{fill:url(#SVGID_9_);}
	.st15{mask:url(#SVGID_8_);fill-rule:evenodd;clip-rule:evenodd;fill:#F1E5A7;}
	.st16{filter:url(#Adobe_OpacityMaskFilter_4_);}
	.st17{fill:url(#SVGID_11_);}
	.st18{mask:url(#SVGID_10_);fill-rule:evenodd;clip-rule:evenodd;fill:#F1E5A7;}
	.st19{opacity:0.5;fill-rule:evenodd;clip-rule:evenodd;fill:#C5B04C;}
	.st20{filter:url(#Adobe_OpacityMaskFilter_5_);}
	.st21{fill:url(#SVGID_13_);}
	.st22{mask:url(#SVGID_12_);fill-rule:evenodd;clip-rule:evenodd;fill:#C5B04C;}
	.st23{filter:url(#Adobe_OpacityMaskFilter_6_);}
	.st24{fill:url(#SVGID_15_);}
	.st25{mask:url(#SVGID_14_);fill-rule:evenodd;clip-rule:evenodd;fill:#C5B04C;}
	.st26{filter:url(#Adobe_OpacityMaskFilter_7_);}
	.st27{fill:url(#SVGID_17_);}
	.st28{mask:url(#SVGID_16_);fill-rule:evenodd;clip-rule:evenodd;fill:#F1E5A7;}
	.st29{fill-rule:evenodd;clip-rule:evenodd;fill:#315B51;}
	.st30{filter:url(#Adobe_OpacityMaskFilter_8_);}
	.st31{fill:url(#SVGID_19_);}
	.st32{mask:url(#SVGID_18_);fill-rule:evenodd;clip-rule:evenodd;fill:#2BB595;}
	.st33{fill:#B0AFB0;}
	.st34{fill:#FFFFFF;}
	.st35{fill:none;stroke:#FFFFFF;stroke-width:0.25;stroke-miterlimit:10;}
	.st36{fill:#B3B2B3;}
	.st37{fill:#D39241;}
	.st38{fill:#315B51;}
	.st39{fill:#C8B34C;}
	.st40{fill:#2BB898;}
	.st41{fill:#385BA6;}
	.st42{fill:#515151;}
	.st43{fill:#F4E8AA;}
	.st44{fill:#FAC86E;}
	.st45{fill:#F4F4F4;}
	.st46{fill:#AD9944;}
	.st47{fill:none;stroke:#FFFFFF;stroke-width:0.5;stroke-miterlimit:10;}
	.st48{fill:none;stroke:#CACACA;stroke-width:0.5;stroke-miterlimit:10;}
	.st49{fill:none;stroke:#B3B3B3;stroke-width:0.5;stroke-miterlimit:10;}
	.st50{fill-rule:evenodd;clip-rule:evenodd;fill:none;stroke:#CACACA;stroke-width:0.5;stroke-miterlimit:10;}
	.st51{fill:#FAFAFA;}
	.st52{fill:#EDF1F4;stroke:#00A99D;stroke-miterlimit:10;}
	.st53{fill:#E1E1E1;}
	.st54{filter:url(#Adobe_OpacityMaskFilter_9_);}
	.st55{fill:url(#SVGID_21_);}
	.st56{mask:url(#SVGID_20_);fill-rule:evenodd;clip-rule:evenodd;fill:#C5B04C;}
	.st57{filter:url(#Adobe_OpacityMaskFilter_10_);}
	.st58{fill:url(#SVGID_23_);}
	.st59{mask:url(#SVGID_22_);fill-rule:evenodd;clip-rule:evenodd;fill:#F1E5A7;}
	.st60{filter:url(#Adobe_OpacityMaskFilter_11_);}
	.st61{fill:url(#SVGID_25_);}
	.st62{mask:url(#SVGID_24_);fill-rule:evenodd;clip-rule:evenodd;fill:#F1E5A7;}
	.st63{filter:url(#Adobe_OpacityMaskFilter_12_);}
	.st64{fill:url(#SVGID_27_);}
	.st65{mask:url(#SVGID_26_);fill-rule:evenodd;clip-rule:evenodd;fill:#F1E5A7;}
	.st66{filter:url(#Adobe_OpacityMaskFilter_13_);}
	.st67{fill:url(#SVGID_29_);}
	.st68{mask:url(#SVGID_28_);fill-rule:evenodd;clip-rule:evenodd;fill:#F1E5A7;}
	.st69{filter:url(#Adobe_OpacityMaskFilter_14_);}
	.st70{fill:url(#SVGID_31_);}
	.st71{mask:url(#SVGID_30_);fill-rule:evenodd;clip-rule:evenodd;fill:#C5B04C;}
	.st72{filter:url(#Adobe_OpacityMaskFilter_15_);}
	.st73{fill:url(#SVGID_33_);}
	.st74{mask:url(#SVGID_32_);fill-rule:evenodd;clip-rule:evenodd;fill:#C5B04C;}
	.st75{fill:none;stroke:#2BB898;stroke-width:1.16;stroke-linecap:round;stroke-linejoin:round;stroke-miterlimit:10;}
	.st76{fill-rule:evenodd;clip-rule:evenodd;fill:none;stroke:#C7C7C7;stroke-width:0.5;stroke-miterlimit:10;}
	.st77{fill-rule:evenodd;clip-rule:evenodd;fill:none;stroke:#C7C7C7;stroke-width:0.75;stroke-miterlimit:10;}
	.st78{fill:#2BB898;stroke:#2BB898;stroke-width:0.7684;stroke-miterlimit:10;}
	.st79{clip-path:url(#SVGID_35_);fill:#BCBCBC;}
	.st80{clip-path:url(#SVGID_35_);fill:#969696;}
	.st81{clip-path:url(#SVGID_35_);}
	.st82{fill:#969696;}
	.st83{fill:#BCBCBC;}
	.st84{fill:none;stroke:#C7C7C7;stroke-width:0.5;stroke-miterlimit:10;}
	.st85{clip-path:url(#SVGID_37_);}
	.st86{fill:#4D4D4D;}
	.st87{fill:#A6D0E4;}
	.st88{fill:url(#);}
	.st89{fill:#A0A0A0;}
	.st90{fill:#E7ECF2;stroke:#00A99D;stroke-miterlimit:10;}
	.st91{opacity:0.24;}
	.st92{fill:#B4E0E0;}
	.st93{fill:#52C5BD;}
	.st94{opacity:0.95;fill:#315B51;stroke:#00A99D;stroke-miterlimit:10;}
</style>
<g id="Layer_1">
	<g>
		<g>
			<g>
				<g>
					<path class="st92" d="M41.44,52.13c-5.16,0-9.36,4.2-9.36,9.36s4.2,9.36,9.36,9.36s9.36-4.2,9.36-9.36S46.6,52.13,41.44,52.13z
						 M41.44,68.17c-3.69,0-6.68-3-6.68-6.68s3-6.68,6.68-6.68c3.69,0,6.68,3,6.68,6.68S45.12,68.17,41.44,68.17z"/>
				</g>
			</g>
			<g>
				<g>
					<path class="st92" d="M57.45,24.06c0.71-1.69,1.14-3.49,1.28-5.35h17.46c3.69,0,6.68-3,6.68-6.68s-3-6.68-6.68-6.68H53.95
						c-0.16-0.16-0.3-0.33-0.46-0.49c-3.43-3.31-7.96-5.03-12.73-4.84c-4.55,0.18-8.71,2.21-11.74,5.33H11.79L2.12,8.97
						C0.85,9.45,0,10.68,0,12.03s0.85,2.58,2.12,3.06l9.67,3.63h12.35c0.14,1.86,0.59,3.66,1.29,5.35l1.3,2.67v-0.18
						c1.35,2.15,3.14,4.04,5.35,5.45v1.41h-2.67v2.67h2.67v2.67h-2.67v2.67h2.78c0.2,1.4,0.71,2.7,1.46,3.84l-3.71-2.52l-7.24,7.23
						l2.93,4.31c-0.17,0.36-0.32,0.73-0.46,1.1l-5.12,0.97v10.23l5.12,0.97c0.14,0.37,0.29,0.74,0.46,1.1L22.7,73l7.24,7.23
						l4.31-2.93c0.37,0.17,0.73,0.32,1.1,0.46l0.98,5.12h10.23l0.98-5.12c0.37-0.14,0.73-0.29,1.1-0.46l4.31,2.93L60.18,73
						l-2.93-4.31c0.17-0.36,0.32-0.73,0.46-1.1l5.12-0.97V56.37l-5.12-0.97c-0.14-0.37-0.29-0.74-0.46-1.1l2.93-4.31l-7.24-7.23
						l-3.71,2.52c0.75-1.13,1.26-2.43,1.46-3.83h2.78v-2.67H50.8v-2.67h2.67v-2.67H50.8v-1.41c2.2-1.41,4-3.3,5.35-5.46v0.19
						L57.45,24.06z M10.69,15.45l-7.64-2.86c-0.23-0.09-0.38-0.31-0.38-0.55c0-0.25,0.15-0.47,0.38-0.55l7.64-2.86V15.45z
						 M64.16,16.04h-5.41c-0.07-0.91-0.21-1.8-0.41-2.67h5.83V16.04L64.16,16.04z M72.18,8.02h4.01c2.21,0,4.01,1.8,4.01,4.01
						s-1.8,4.01-4.01,4.01h-4.01V8.02z M66.84,8.02h2.67v8.02h-2.67V8.02z M64.16,8.02v2.67h-6.68c-0.39-0.93-0.87-1.82-1.42-2.67
						L64.16,8.02z M24.13,16.04H13.37v-2.67h11.19C24.34,14.24,24.21,15.13,24.13,16.04z M25.4,10.83v-0.13H13.37V8.02h13.52
						C26.31,8.91,25.81,9.84,25.4,10.83z M52.62,46.2l4.11,4.11l-2.57,3.78l0.36,0.7c0.37,0.72,0.68,1.46,0.91,2.18l0.24,0.75
						l4.48,0.85v5.81l-4.48,0.85L55.43,66c-0.23,0.72-0.54,1.46-0.91,2.18l-0.36,0.7l2.57,3.78l-4.11,4.11l-3.78-2.57l-0.71,0.36
						c-0.73,0.37-1.46,0.68-2.18,0.91l-0.75,0.24l-0.85,4.48h-5.81l-0.85-4.48l-0.75-0.24c-0.72-0.23-1.45-0.54-2.18-0.91
						l-0.71-0.36l-3.78,2.57l-4.11-4.11l2.57-3.78l-0.36-0.7c-0.37-0.72-0.68-1.46-0.91-2.18l-0.24-0.75l-4.48-0.85v-5.81l4.48-0.85
						l0.24-0.75c0.23-0.72,0.54-1.46,0.91-2.18l0.36-0.7l-2.57-3.78l4.11-4.11l3.78,2.57l0.71-0.36c0.46-0.24,0.92-0.44,1.38-0.62
						c1.51,1.05,3.34,1.67,5.31,1.67c1.97,0,3.8-0.62,5.31-1.67c0.46,0.18,0.92,0.38,1.38,0.62l0.7,0.36L52.62,46.2z M48.12,36.09
						v2.67H34.75v-2.67H48.12z M37.43,20.05h-2.67c-1.47,0-2.67-1.2-2.67-2.67s1.2-2.67,2.67-2.67c1.47,0,2.67,1.2,2.67,2.67V20.05z
						 M40.1,33.42V22.73h2.67v10.69H40.1z M47.99,41.44c-0.62,3.05-3.32,5.35-6.55,5.35c-3.23,0-5.93-2.3-6.55-5.35L47.99,41.44
						L47.99,41.44z M48.79,30.1l-0.67,0.39v2.93h-2.67V22.73h2.67c2.95,0,5.35-2.4,5.35-5.35s-2.4-5.35-5.35-5.35
						s-5.35,2.4-5.35,5.35v2.67H40.1v-2.67c0-2.95-2.4-5.35-5.35-5.35s-5.35,2.4-5.35,5.35s2.4,5.35,5.35,5.35h2.67v10.69h-2.67
						v-2.93l-0.67-0.39c-4.66-2.7-7.47-7.7-7.35-13.07c0.18-7.62,6.51-14.06,14.12-14.35c0.2-0.01,0.39-0.01,0.58-0.01
						c3.83,0,7.43,1.45,10.19,4.11c2.91,2.8,4.51,6.56,4.51,10.59C56.14,22.6,53.32,27.47,48.79,30.1z M45.45,20.05v-2.67
						c0-1.47,1.2-2.67,2.67-2.67s2.67,1.2,2.67,2.67s-1.2,2.67-2.67,2.67H45.45z"/>
				</g>
			</g>
		</g>
	</g>
</g>
<g id="Layer_2">
</g>
</svg>
