<?xml version="1.0" encoding="utf-8"?>
<!-- Generator: Adobe Illustrator 24.1.1, SVG Export Plug-In . SVG Version: 6.00 Build 0)  -->
<svg version="1.1" xmlns="http://www.w3.org/2000/svg" xmlns:xlink="http://www.w3.org/1999/xlink" x="0px" y="0px"
	 viewBox="0 0 90.94 80.48" style="enable-background:new 0 0 90.94 80.48;" xml:space="preserve">
<style type="text/css">
	.st0{fill:#00A99D;}
	.st1{fill:url(#SVGID_1_);}
	.st2{fill:#C5B04C;}
	.st3{fill-rule:evenodd;clip-rule:evenodd;fill:#C5B04C;}
	.st4{filter:url(#Adobe_OpacityMaskFilter);}
	.st5{fill:url(#SVGID_3_);}
	.st6{mask:url(#SVGID_2_);fill-rule:evenodd;clip-rule:evenodd;fill:#C5B04C;}
	.st7{filter:url(#Adobe_OpacityMaskFilter_1_);}
	.st8{fill:url(#SVGID_5_);}
	.st9{mask:url(#SVGID_4_);fill-rule:evenodd;clip-rule:evenodd;fill:#F1E5A7;}
	.st10{filter:url(#Adobe_OpacityMaskFilter_2_);}
	.st11{fill:url(#SVGID_7_);}
	.st12{mask:url(#SVGID_6_);fill-rule:evenodd;clip-rule:evenodd;fill:#F1E5A7;}
	.st13{filter:url(#Adobe_OpacityMaskFilter_3_);}
	.st14{fill:url(#SVGID_9_);}
	.st15{mask:url(#SVGID_8_);fill-rule:evenodd;clip-rule:evenodd;fill:#F1E5A7;}
	.st16{filter:url(#Adobe_OpacityMaskFilter_4_);}
	.st17{fill:url(#SVGID_11_);}
	.st18{mask:url(#SVGID_10_);fill-rule:evenodd;clip-rule:evenodd;fill:#F1E5A7;}
	.st19{opacity:0.5;fill-rule:evenodd;clip-rule:evenodd;fill:#C5B04C;}
	.st20{filter:url(#Adobe_OpacityMaskFilter_5_);}
	.st21{fill:url(#SVGID_13_);}
	.st22{mask:url(#SVGID_12_);fill-rule:evenodd;clip-rule:evenodd;fill:#C5B04C;}
	.st23{filter:url(#Adobe_OpacityMaskFilter_6_);}
	.st24{fill:url(#SVGID_15_);}
	.st25{mask:url(#SVGID_14_);fill-rule:evenodd;clip-rule:evenodd;fill:#C5B04C;}
	.st26{filter:url(#Adobe_OpacityMaskFilter_7_);}
	.st27{fill:url(#SVGID_17_);}
	.st28{mask:url(#SVGID_16_);fill-rule:evenodd;clip-rule:evenodd;fill:#F1E5A7;}
	.st29{fill-rule:evenodd;clip-rule:evenodd;fill:#315B51;}
	.st30{filter:url(#Adobe_OpacityMaskFilter_8_);}
	.st31{fill:url(#SVGID_19_);}
	.st32{mask:url(#SVGID_18_);fill-rule:evenodd;clip-rule:evenodd;fill:#2BB595;}
	.st33{fill:#B0AFB0;}
	.st34{fill:#FFFFFF;}
	.st35{fill:none;stroke:#FFFFFF;stroke-width:0.25;stroke-miterlimit:10;}
	.st36{fill:#B3B2B3;}
	.st37{fill:#D39241;}
	.st38{fill:#315B51;}
	.st39{fill:#C8B34C;}
	.st40{fill:#2BB898;}
	.st41{fill:#385BA6;}
	.st42{fill:#515151;}
	.st43{fill:#F4E8AA;}
	.st44{fill:#FAC86E;}
	.st45{fill:#F4F4F4;}
	.st46{fill:#AD9944;}
	.st47{fill:none;stroke:#FFFFFF;stroke-width:0.5;stroke-miterlimit:10;}
	.st48{fill:none;stroke:#CACACA;stroke-width:0.5;stroke-miterlimit:10;}
	.st49{fill:none;stroke:#B3B3B3;stroke-width:0.5;stroke-miterlimit:10;}
	.st50{fill-rule:evenodd;clip-rule:evenodd;fill:none;stroke:#CACACA;stroke-width:0.5;stroke-miterlimit:10;}
	.st51{fill:#FAFAFA;}
	.st52{fill:#EDF1F4;stroke:#00A99D;stroke-miterlimit:10;}
	.st53{fill:#E1E1E1;}
	.st54{filter:url(#Adobe_OpacityMaskFilter_9_);}
	.st55{fill:url(#SVGID_21_);}
	.st56{mask:url(#SVGID_20_);fill-rule:evenodd;clip-rule:evenodd;fill:#C5B04C;}
	.st57{filter:url(#Adobe_OpacityMaskFilter_10_);}
	.st58{fill:url(#SVGID_23_);}
	.st59{mask:url(#SVGID_22_);fill-rule:evenodd;clip-rule:evenodd;fill:#F1E5A7;}
	.st60{filter:url(#Adobe_OpacityMaskFilter_11_);}
	.st61{fill:url(#SVGID_25_);}
	.st62{mask:url(#SVGID_24_);fill-rule:evenodd;clip-rule:evenodd;fill:#F1E5A7;}
	.st63{filter:url(#Adobe_OpacityMaskFilter_12_);}
	.st64{fill:url(#SVGID_27_);}
	.st65{mask:url(#SVGID_26_);fill-rule:evenodd;clip-rule:evenodd;fill:#F1E5A7;}
	.st66{filter:url(#Adobe_OpacityMaskFilter_13_);}
	.st67{fill:url(#SVGID_29_);}
	.st68{mask:url(#SVGID_28_);fill-rule:evenodd;clip-rule:evenodd;fill:#F1E5A7;}
	.st69{filter:url(#Adobe_OpacityMaskFilter_14_);}
	.st70{fill:url(#SVGID_31_);}
	.st71{mask:url(#SVGID_30_);fill-rule:evenodd;clip-rule:evenodd;fill:#C5B04C;}
	.st72{filter:url(#Adobe_OpacityMaskFilter_15_);}
	.st73{fill:url(#SVGID_33_);}
	.st74{mask:url(#SVGID_32_);fill-rule:evenodd;clip-rule:evenodd;fill:#C5B04C;}
	.st75{fill:none;stroke:#2BB898;stroke-width:1.16;stroke-linecap:round;stroke-linejoin:round;stroke-miterlimit:10;}
	.st76{fill-rule:evenodd;clip-rule:evenodd;fill:none;stroke:#C7C7C7;stroke-width:0.5;stroke-miterlimit:10;}
	.st77{fill-rule:evenodd;clip-rule:evenodd;fill:none;stroke:#C7C7C7;stroke-width:0.75;stroke-miterlimit:10;}
	.st78{fill:#2BB898;stroke:#2BB898;stroke-width:0.7684;stroke-miterlimit:10;}
	.st79{clip-path:url(#SVGID_35_);fill:#BCBCBC;}
	.st80{clip-path:url(#SVGID_35_);fill:#969696;}
	.st81{clip-path:url(#SVGID_35_);}
	.st82{fill:#969696;}
	.st83{fill:#BCBCBC;}
	.st84{fill:none;stroke:#C7C7C7;stroke-width:0.5;stroke-miterlimit:10;}
	.st85{clip-path:url(#SVGID_37_);}
	.st86{fill:#4D4D4D;}
	.st87{fill:#A6D0E4;}
	.st88{fill:url(#);}
	.st89{fill:#A0A0A0;}
	.st90{fill:#E7ECF2;stroke:#00A99D;stroke-miterlimit:10;}
	.st91{opacity:0.24;}
	.st92{fill:#B4E0E0;}
	.st93{fill:#52C5BD;}
	.st94{opacity:0.95;fill:#315B51;stroke:#00A99D;stroke-miterlimit:10;}
</style>
<g id="Layer_1">
	<g>
		<path class="st92" d="M49.44,80.48c-0.74,0-1.34-0.6-1.34-1.34v-3.56c0-0.51-0.41-0.92-0.92-0.92h-3.59
			c-0.51,0-0.92,0.41-0.92,0.92v3.56c0,0.74-0.6,1.34-1.34,1.34s-1.34-0.6-1.34-1.34v-3.56c0-1.99,1.62-3.6,3.6-3.6h3.59
			c1.99,0,3.6,1.62,3.6,3.6v3.56C50.78,79.88,50.18,80.48,49.44,80.48L49.44,80.48z"/>
		<g>
			<path class="st92" d="M58.25,31.55c-0.44-0.59-1.28-0.72-1.87-0.28c-0.59,0.44-0.72,1.28-0.28,1.87l6.65,8.98
				c0.74,1,0.69,2.5-0.12,3.42l-7.16,8.17H35.3l-7.16-8.17c-0.81-0.92-0.86-2.43-0.12-3.42L41.22,24.3v10.15
				c-1.67,1.29-2.65,3.25-2.65,5.4c0,3.76,3.06,6.82,6.82,6.82c3.76,0,6.82-3.06,6.82-6.82c0-2.05-0.91-3.96-2.47-5.25V24.54
				l2.94,3.97c0.44,0.59,1.28,0.72,1.87,0.28c0.59-0.44,0.72-1.28,0.28-1.87l-5.74-7.75c-0.9-1.22-2.25-1.92-3.7-1.92
				c-1.44,0-2.79,0.7-3.7,1.92L25.87,40.53c-1.48,2-1.37,4.92,0.26,6.78l5.97,6.81c-1.49,0.7-2.53,2.21-2.53,3.96v6.39
				c0,1.95,1.29,3.61,3.07,4.17L33,79.19c0.02,0.72,0.62,1.29,1.34,1.29c0.02,0,0.03,0,0.05,0c0.74-0.03,1.32-0.65,1.29-1.38
				l-0.36-10.26h20.3l-0.36,10.26c-0.03,0.74,0.55,1.36,1.29,1.38c0.02,0,0.03,0,0.05,0c0.72,0,1.31-0.57,1.34-1.29l0.37-10.61
				c1.68-0.61,2.89-2.22,2.89-4.11v-6.39c0-1.75-1.04-3.26-2.53-3.96l5.97-6.81c1.63-1.86,1.74-4.78,0.26-6.78L58.25,31.55z
				 M45.38,19.92c0.6,0,1.14,0.3,1.54,0.84l0.13,0.17v14.35c0,0.45,0.23,0.87,0.6,1.12c1.17,0.77,1.87,2.06,1.87,3.46
				c0,2.28-1.86,4.14-4.14,4.14c-2.28,0-4.14-1.86-4.14-4.14c0-1.46,0.75-2.79,2-3.55c0.4-0.24,0.65-0.68,0.65-1.15V20.69
				C44.29,20.2,44.81,19.92,45.38,19.92L45.38,19.92z M58.52,64.47c0,0.93-0.76,1.69-1.69,1.69H33.94c-0.93,0-1.69-0.76-1.69-1.69
				v-6.39c0-0.93,0.76-1.69,1.69-1.69h22.89c0.93,0,1.69,0.76,1.69,1.69V64.47z"/>
			<path class="st92" d="M18.75,31.96c0.18-4.24,1.36-8.39,3.44-12.07c0.36-0.64,0.14-1.46-0.5-1.82c-0.64-0.36-1.46-0.14-1.82,0.5
				c-2.31,4.08-3.61,8.68-3.79,13.38c-2.31,0.59-4.02,2.68-4.02,5.17c0,2.94,2.39,5.34,5.34,5.34s5.34-2.39,5.34-5.34
				C22.72,34.65,21.03,32.57,18.75,31.96L18.75,31.96z M17.38,39.79c-1.47,0-2.66-1.19-2.66-2.66c0-1.47,1.19-2.66,2.66-2.66
				s2.66,1.19,2.66,2.66C20.05,38.59,18.85,39.79,17.38,39.79z"/>
			<path class="st92" d="M88.11,0h-4.3c-1.56,0-2.83,1.27-2.83,2.83v0.81H50.46V2.83c0-1.56-1.27-2.83-2.83-2.83h-4.3
				c-1.56,0-2.83,1.27-2.83,2.83v0.81H9.97V2.83C9.97,1.27,8.7,0,7.13,0h-4.3C1.27,0,0,1.27,0,2.83v4.3C0,8.7,1.27,9.97,2.83,9.97
				h4.3c1.56,0,2.83-1.27,2.83-2.83V6.32H33.2c-3.72,1.71-7.07,4.19-9.82,7.31c-0.49,0.55-0.43,1.4,0.12,1.89
				c0.25,0.22,0.57,0.33,0.88,0.33c0.37,0,0.74-0.15,1.01-0.45c3.96-4.5,9.27-7.52,15.1-8.62v0.35c0,1.56,1.27,2.83,2.83,2.83h4.3
				c1.56,0,2.83-1.27,2.83-2.83V6.79C62.61,9.08,71.68,19.56,72.2,31.96c-2.29,0.6-3.98,2.69-3.98,5.16c0,2.94,2.39,5.34,5.34,5.34
				c2.94,0,5.34-2.39,5.34-5.34c0-2.49-1.71-4.59-4.02-5.17c-0.43-11.26-7.27-21.09-17.13-25.63h23.23v0.81
				c0,1.56,1.27,2.83,2.83,2.83h4.3c1.56,0,2.83-1.27,2.83-2.83v-4.3C90.94,1.27,89.67,0,88.11,0L88.11,0z M7.29,7.13
				c0,0.09-0.07,0.16-0.16,0.16h-4.3c-0.09,0-0.16-0.07-0.16-0.16v-4.3c0-0.09,0.07-0.16,0.16-0.16h4.3c0.09,0,0.16,0.07,0.16,0.16
				V7.13z M76.22,37.12c0,1.47-1.19,2.66-2.66,2.66s-2.66-1.19-2.66-2.66c0-1.47,1.19-2.66,2.66-2.66S76.22,35.66,76.22,37.12z
				 M47.78,7.13c0,0.09-0.07,0.16-0.16,0.16h-4.3c-0.09,0-0.16-0.07-0.16-0.16v-4.3c0-0.09,0.07-0.16,0.16-0.16h4.3
				c0.09,0,0.16,0.07,0.16,0.16V7.13z M88.27,7.13c0,0.09-0.07,0.16-0.16,0.16h-4.3c-0.09,0-0.16-0.07-0.16-0.16v-4.3
				c0-0.09,0.07-0.16,0.16-0.16h4.3c0.09,0,0.16,0.07,0.16,0.16V7.13z"/>
		</g>
	</g>
</g>
<g id="Layer_2">
</g>
</svg>
