<?xml version="1.0" encoding="utf-8"?>
<!-- Generator: Adobe Illustrator 24.1.1, SVG Export Plug-In . SVG Version: 6.00 Build 0)  -->
<svg version="1.0" xmlns="http://www.w3.org/2000/svg" xmlns:xlink="http://www.w3.org/1999/xlink" x="0px" y="0px"
	 viewBox="0 0 43.39 245.45" style="enable-background:new 0 0 43.39 245.45;" xml:space="preserve">
<style type="text/css">
	.st0{fill:#00A99D;}
	.st1{fill:url(#SVGID_1_);}
	.st2{fill:#C5B04C;}
	.st3{fill-rule:evenodd;clip-rule:evenodd;fill:#C5B04C;}
	.st4{filter:url(#Adobe_OpacityMaskFilter);}
	.st5{fill:url(#SVGID_3_);}
	.st6{mask:url(#SVGID_2_);fill-rule:evenodd;clip-rule:evenodd;fill:#C5B04C;}
	.st7{filter:url(#Adobe_OpacityMaskFilter_1_);}
	.st8{fill:url(#SVGID_5_);}
	.st9{mask:url(#SVGID_4_);fill-rule:evenodd;clip-rule:evenodd;fill:#F1E5A7;}
	.st10{filter:url(#Adobe_OpacityMaskFilter_2_);}
	.st11{fill:url(#SVGID_7_);}
	.st12{mask:url(#SVGID_6_);fill-rule:evenodd;clip-rule:evenodd;fill:#F1E5A7;}
	.st13{filter:url(#Adobe_OpacityMaskFilter_3_);}
	.st14{fill:url(#SVGID_9_);}
	.st15{mask:url(#SVGID_8_);fill-rule:evenodd;clip-rule:evenodd;fill:#F1E5A7;}
	.st16{filter:url(#Adobe_OpacityMaskFilter_4_);}
	.st17{fill:url(#SVGID_11_);}
	.st18{mask:url(#SVGID_10_);fill-rule:evenodd;clip-rule:evenodd;fill:#F1E5A7;}
	.st19{opacity:0.5;fill-rule:evenodd;clip-rule:evenodd;fill:#C5B04C;}
	.st20{filter:url(#Adobe_OpacityMaskFilter_5_);}
	.st21{fill:url(#SVGID_13_);}
	.st22{mask:url(#SVGID_12_);fill-rule:evenodd;clip-rule:evenodd;fill:#C5B04C;}
	.st23{filter:url(#Adobe_OpacityMaskFilter_6_);}
	.st24{fill:url(#SVGID_15_);}
	.st25{mask:url(#SVGID_14_);fill-rule:evenodd;clip-rule:evenodd;fill:#C5B04C;}
	.st26{filter:url(#Adobe_OpacityMaskFilter_7_);}
	.st27{fill:url(#SVGID_17_);}
	.st28{mask:url(#SVGID_16_);fill-rule:evenodd;clip-rule:evenodd;fill:#F1E5A7;}
	.st29{fill-rule:evenodd;clip-rule:evenodd;fill:#315B51;}
	.st30{filter:url(#Adobe_OpacityMaskFilter_8_);}
	.st31{fill:url(#SVGID_19_);}
	.st32{mask:url(#SVGID_18_);fill-rule:evenodd;clip-rule:evenodd;fill:#2BB595;}
	.st33{fill:#B0AFB0;}
	.st34{fill:#FFFFFF;}
	.st35{fill:none;stroke:#FFFFFF;stroke-width:0.25;stroke-miterlimit:10;}
	.st36{fill:#B3B2B3;}
	.st37{fill:#D39241;}
	.st38{fill:#315B51;}
	.st39{fill:#C8B34C;}
	.st40{fill:#2BB898;}
	.st41{fill:#385BA6;}
	.st42{fill:#515151;}
	.st43{fill:#F4E8AA;}
	.st44{fill:#FAC86E;}
	.st45{fill:#F4F4F4;}
	.st46{fill:#AD9944;}
	.st47{opacity:0.32;}
	.st48{clip-path:url(#SVGID_21_);fill:#FFFFFF;}
	.st49{clip-path:url(#SVGID_23_);fill:#FFFFFF;}
	.st50{fill:none;stroke:#FFFFFF;stroke-width:0.5;stroke-miterlimit:10;}
	.st51{fill:none;stroke:#CACACA;stroke-width:0.5;stroke-miterlimit:10;}
	.st52{fill:none;stroke:#B3B3B3;stroke-width:0.5;stroke-miterlimit:10;}
	.st53{fill-rule:evenodd;clip-rule:evenodd;fill:none;stroke:#CACACA;stroke-width:0.5;stroke-miterlimit:10;}
	.st54{fill:#FAFAFA;}
	.st55{fill:#EDF1F4;stroke:#00A99D;stroke-miterlimit:10;}
	.st56{fill:#E1E1E1;}
	.st57{filter:url(#Adobe_OpacityMaskFilter_9_);}
	.st58{fill:url(#SVGID_25_);}
	.st59{mask:url(#SVGID_24_);fill-rule:evenodd;clip-rule:evenodd;fill:#C5B04C;}
	.st60{filter:url(#Adobe_OpacityMaskFilter_10_);}
	.st61{fill:url(#SVGID_27_);}
	.st62{mask:url(#SVGID_26_);fill-rule:evenodd;clip-rule:evenodd;fill:#F1E5A7;}
	.st63{filter:url(#Adobe_OpacityMaskFilter_11_);}
	.st64{fill:url(#SVGID_29_);}
	.st65{mask:url(#SVGID_28_);fill-rule:evenodd;clip-rule:evenodd;fill:#F1E5A7;}
	.st66{filter:url(#Adobe_OpacityMaskFilter_12_);}
	.st67{fill:url(#SVGID_31_);}
	.st68{mask:url(#SVGID_30_);fill-rule:evenodd;clip-rule:evenodd;fill:#F1E5A7;}
	.st69{filter:url(#Adobe_OpacityMaskFilter_13_);}
	.st70{fill:url(#SVGID_33_);}
	.st71{mask:url(#SVGID_32_);fill-rule:evenodd;clip-rule:evenodd;fill:#F1E5A7;}
	.st72{filter:url(#Adobe_OpacityMaskFilter_14_);}
	.st73{fill:url(#SVGID_35_);}
	.st74{mask:url(#SVGID_34_);fill-rule:evenodd;clip-rule:evenodd;fill:#C5B04C;}
	.st75{filter:url(#Adobe_OpacityMaskFilter_15_);}
	.st76{fill:url(#SVGID_37_);}
	.st77{mask:url(#SVGID_36_);fill-rule:evenodd;clip-rule:evenodd;fill:#C5B04C;}
	.st78{fill:none;stroke:#2BB898;stroke-width:1.16;stroke-linecap:round;stroke-linejoin:round;stroke-miterlimit:10;}
	.st79{fill-rule:evenodd;clip-rule:evenodd;fill:none;stroke:#C7C7C7;stroke-width:0.5;stroke-miterlimit:10;}
	.st80{fill-rule:evenodd;clip-rule:evenodd;fill:none;stroke:#C7C7C7;stroke-width:0.75;stroke-miterlimit:10;}
	.st81{fill:#2BB898;stroke:#2BB898;stroke-width:0.7684;stroke-miterlimit:10;}
	.st82{clip-path:url(#SVGID_39_);fill:#BCBCBC;}
	.st83{clip-path:url(#SVGID_39_);fill:#969696;}
	.st84{clip-path:url(#SVGID_39_);}
	.st85{fill:#969696;}
	.st86{fill:#BCBCBC;}
	.st87{fill:none;stroke:#C7C7C7;stroke-width:0.5;stroke-miterlimit:10;}
	.st88{clip-path:url(#SVGID_41_);}
	.st89{fill:#4D4D4D;}
	.st90{fill:#A6D0E4;}
	.st91{fill:url(#);}
	.st92{fill:#A0A0A0;}
	.st93{fill:#E7ECF2;stroke:#00A99D;stroke-miterlimit:10;}
	.st94{opacity:0.24;}
	.st95{opacity:0.95;fill:#315B51;stroke:#00A99D;stroke-miterlimit:10;}
</style>
<g id="Layer_1">
	<g>
		<line class="st50" x1="21.69" y1="194.81" x2="21.69" y2="0.77"/>
		<g>
			<g>
				<path class="st50" d="M15.16,207.85l11.93,0.1c1.26,0.01,2.27,1.04,2.26,2.3l0,0c-0.01,1.26-1.04,2.27-2.3,2.26l-11.93-0.1
					c-1.26-0.01-2.27-1.04-2.26-2.3l0,0C12.87,208.85,13.9,207.84,15.16,207.85z"/>
				<path class="st50" d="M15.2,203.23l11.93,0.1c1.26,0.01,2.27,1.04,2.26,2.3l0,0c-0.01,1.26-1.04,2.27-2.3,2.26l-11.93-0.1
					c-1.26-0.01-2.27-1.04-2.26-2.3l0,0C12.91,204.23,13.94,203.22,15.2,203.23z"/>
				<path class="st50" d="M32.37,223.19L32.37,223.19L32.37,223.19c-0.02-0.03-0.05-0.06-0.07-0.1c-0.49-0.69-3.51-5.07-4.69-10.64
					H14.84c-1.19,5.57-4.2,9.96-4.69,10.64c-0.02,0.03-0.05,0.06-0.07,0.09l0,0h0c-0.24,0.33-0.47,0.67-0.68,1.02
					c-1.24,2.07-1.95,4.49-1.95,7.07c0,7.61,6.17,13.77,13.77,13.77c7.61,0,13.77-6.17,13.77-13.77c0-2.59-0.71-5.01-1.95-7.07
					C32.84,223.86,32.61,223.52,32.37,223.19z"/>
				<path class="st50" d="M26.47,203.28c-0.62-2.32-2.74-4.02-5.25-4.02c-2.48,0-4.57,1.66-5.23,3.93L26.47,203.28z"/>
				<path class="st50" d="M23.63,212.51v11.49c0,1.13,0.92,2.05,2.05,2.05c1.13,0,2.05-0.92,2.05-2.05c0-1.13-0.92-2.05-2.05-2.05
					h-4.55"/>
				<path class="st50" d="M18.63,212.51v11.49c0,1.13-0.92,2.05-2.05,2.05c-1.13,0-2.05-0.92-2.05-2.05c0-1.13,0.92-2.05,2.05-2.05
					h4.55"/>
			</g>
			<g>
				<line class="st50" x1="3.84" y1="228.51" x2="0" y2="228.51"/>
				<line class="st50" x1="3.7" y1="233.4" x2="0.27" y2="235.14"/>
				<line class="st50" x1="5.03" y1="223.97" x2="1.6" y2="222.23"/>
			</g>
			<g>
				<line class="st50" x1="39.55" y1="228.51" x2="43.39" y2="228.51"/>
				<line class="st50" x1="39.69" y1="233.4" x2="43.12" y2="235.14"/>
				<line class="st50" x1="38.36" y1="223.97" x2="41.79" y2="222.23"/>
			</g>
		</g>
	</g>
</g>
<g id="Layer_2">
</g>
</svg>
