<?xml version="1.0" encoding="utf-8"?>
<!-- Generator: Adobe Illustrator 24.1.1, SVG Export Plug-In . SVG Version: 6.00 Build 0)  -->
<svg version="1.1" xmlns="http://www.w3.org/2000/svg" xmlns:xlink="http://www.w3.org/1999/xlink" x="0px" y="0px"
	 viewBox="0 0 168 130.48" style="enable-background:new 0 0 168 130.48;" xml:space="preserve">
<style type="text/css">
	.st0{fill:#00A99D;}
	.st1{fill:url(#SVGID_1_);}
	.st2{fill:#C5B04C;}
	.st3{fill-rule:evenodd;clip-rule:evenodd;fill:#C5B04C;}
	.st4{filter:url(#Adobe_OpacityMaskFilter);}
	.st5{fill:url(#SVGID_3_);}
	.st6{mask:url(#SVGID_2_);fill-rule:evenodd;clip-rule:evenodd;fill:#C5B04C;}
	.st7{filter:url(#Adobe_OpacityMaskFilter_1_);}
	.st8{fill:url(#SVGID_5_);}
	.st9{mask:url(#SVGID_4_);fill-rule:evenodd;clip-rule:evenodd;fill:#F1E5A7;}
	.st10{filter:url(#Adobe_OpacityMaskFilter_2_);}
	.st11{fill:url(#SVGID_7_);}
	.st12{mask:url(#SVGID_6_);fill-rule:evenodd;clip-rule:evenodd;fill:#F1E5A7;}
	.st13{filter:url(#Adobe_OpacityMaskFilter_3_);}
	.st14{fill:url(#SVGID_9_);}
	.st15{mask:url(#SVGID_8_);fill-rule:evenodd;clip-rule:evenodd;fill:#F1E5A7;}
	.st16{filter:url(#Adobe_OpacityMaskFilter_4_);}
	.st17{fill:url(#SVGID_11_);}
	.st18{mask:url(#SVGID_10_);fill-rule:evenodd;clip-rule:evenodd;fill:#F1E5A7;}
	.st19{opacity:0.5;fill-rule:evenodd;clip-rule:evenodd;fill:#C5B04C;}
	.st20{filter:url(#Adobe_OpacityMaskFilter_5_);}
	.st21{fill:url(#SVGID_13_);}
	.st22{mask:url(#SVGID_12_);fill-rule:evenodd;clip-rule:evenodd;fill:#C5B04C;}
	.st23{filter:url(#Adobe_OpacityMaskFilter_6_);}
	.st24{fill:url(#SVGID_15_);}
	.st25{mask:url(#SVGID_14_);fill-rule:evenodd;clip-rule:evenodd;fill:#C5B04C;}
	.st26{filter:url(#Adobe_OpacityMaskFilter_7_);}
	.st27{fill:url(#SVGID_17_);}
	.st28{mask:url(#SVGID_16_);fill-rule:evenodd;clip-rule:evenodd;fill:#F1E5A7;}
	.st29{fill-rule:evenodd;clip-rule:evenodd;fill:#315B51;}
	.st30{filter:url(#Adobe_OpacityMaskFilter_8_);}
	.st31{fill:url(#SVGID_19_);}
	.st32{mask:url(#SVGID_18_);fill-rule:evenodd;clip-rule:evenodd;fill:#2BB595;}
	.st33{fill:#B0AFB0;}
	.st34{fill:#FFFFFF;}
	.st35{fill:none;stroke:#FFFFFF;stroke-width:0.25;stroke-miterlimit:10;}
	.st36{fill:#B3B2B3;}
	.st37{fill:#D39241;}
	.st38{fill:#315B51;}
	.st39{fill:#C8B34C;}
	.st40{fill:#2BB898;}
	.st41{fill:#385BA6;}
	.st42{fill:#515151;}
	.st43{fill:#F4E8AA;}
	.st44{fill:#FAC86E;}
	.st45{fill:#F4F4F4;}
	.st46{fill:#AD9944;}
	.st47{opacity:0.32;}
	.st48{clip-path:url(#SVGID_21_);fill:#FFFFFF;}
	.st49{fill:none;stroke:#FFFFFF;stroke-width:0.5;stroke-miterlimit:10;}
	.st50{fill:none;stroke:#CACACA;stroke-width:0.5;stroke-miterlimit:10;}
	.st51{fill:none;stroke:#B3B3B3;stroke-width:0.5;stroke-miterlimit:10;}
	.st52{fill-rule:evenodd;clip-rule:evenodd;fill:none;stroke:#CACACA;stroke-width:0.5;stroke-miterlimit:10;}
	.st53{fill:#FAFAFA;}
	.st54{fill:#EDF1F4;stroke:#00A99D;stroke-miterlimit:10;}
	.st55{fill:#E1E1E1;}
	.st56{filter:url(#Adobe_OpacityMaskFilter_9_);}
	.st57{fill:url(#SVGID_23_);}
	.st58{mask:url(#SVGID_22_);fill-rule:evenodd;clip-rule:evenodd;fill:#C5B04C;}
	.st59{filter:url(#Adobe_OpacityMaskFilter_10_);}
	.st60{fill:url(#SVGID_25_);}
	.st61{mask:url(#SVGID_24_);fill-rule:evenodd;clip-rule:evenodd;fill:#F1E5A7;}
	.st62{filter:url(#Adobe_OpacityMaskFilter_11_);}
	.st63{fill:url(#SVGID_27_);}
	.st64{mask:url(#SVGID_26_);fill-rule:evenodd;clip-rule:evenodd;fill:#F1E5A7;}
	.st65{filter:url(#Adobe_OpacityMaskFilter_12_);}
	.st66{fill:url(#SVGID_29_);}
	.st67{mask:url(#SVGID_28_);fill-rule:evenodd;clip-rule:evenodd;fill:#F1E5A7;}
	.st68{filter:url(#Adobe_OpacityMaskFilter_13_);}
	.st69{fill:url(#SVGID_31_);}
	.st70{mask:url(#SVGID_30_);fill-rule:evenodd;clip-rule:evenodd;fill:#F1E5A7;}
	.st71{filter:url(#Adobe_OpacityMaskFilter_14_);}
	.st72{fill:url(#SVGID_33_);}
	.st73{mask:url(#SVGID_32_);fill-rule:evenodd;clip-rule:evenodd;fill:#C5B04C;}
	.st74{filter:url(#Adobe_OpacityMaskFilter_15_);}
	.st75{fill:url(#SVGID_35_);}
	.st76{mask:url(#SVGID_34_);fill-rule:evenodd;clip-rule:evenodd;fill:#C5B04C;}
	.st77{fill:none;stroke:#2BB898;stroke-width:1.16;stroke-linecap:round;stroke-linejoin:round;stroke-miterlimit:10;}
	.st78{fill-rule:evenodd;clip-rule:evenodd;fill:none;stroke:#C7C7C7;stroke-width:0.5;stroke-miterlimit:10;}
	.st79{fill-rule:evenodd;clip-rule:evenodd;fill:none;stroke:#C7C7C7;stroke-width:0.75;stroke-miterlimit:10;}
	.st80{fill:#2BB898;stroke:#2BB898;stroke-width:0.7684;stroke-miterlimit:10;}
	.st81{clip-path:url(#SVGID_37_);fill:#BCBCBC;}
	.st82{clip-path:url(#SVGID_37_);fill:#969696;}
	.st83{clip-path:url(#SVGID_37_);}
	.st84{fill:#969696;}
	.st85{fill:#BCBCBC;}
	.st86{fill:none;stroke:#C7C7C7;stroke-width:0.5;stroke-miterlimit:10;}
	.st87{clip-path:url(#SVGID_39_);}
	.st88{fill:#4D4D4D;}
	.st89{fill:#A6D0E4;}
	.st90{fill:url(#);}
	.st91{fill:#A0A0A0;}
	.st92{fill:#E7ECF2;stroke:#00A99D;stroke-miterlimit:10;}
	.st93{opacity:0.24;}
	.st94{opacity:0.95;fill:#315B51;stroke:#00A99D;stroke-miterlimit:10;}
	.st95{fill:#52C5BD;}
</style>
<g id="Layer_1">
	<g>
		<path class="st95" d="M9.3,118.44h2.73c0.66,0,1.19,0.54,1.19,1.19v2.73c0,0.66-0.54,1.19-1.19,1.19H9.3
			c-0.66,0-1.19,0.54-1.19,1.19v4.27c0,0.66-0.54,1.19-1.19,1.19H2.65c-0.66,0-1.19-0.54-1.19-1.19v-4.27
			c0-0.66,0.54-1.19,1.19-1.19h4.27c0.66,0,1.19-0.54,1.19-1.19v-2.73C8.11,118.98,8.65,118.44,9.3,118.44z"/>
		<path class="st95" d="M28.4,118.44h2.73c0.66,0,1.19,0.54,1.19,1.19v2.73c0,0.66-0.54,1.19-1.19,1.19H28.4
			c-0.66,0-1.19,0.54-1.19,1.19v4.27c0,0.66-0.54,1.19-1.19,1.19h-4.27c-0.66,0-1.19-0.54-1.19-1.19v-4.27
			c0-0.66,0.54-1.19,1.19-1.19h4.27c0.66,0,1.19-0.54,1.19-1.19v-2.73C27.21,118.98,27.74,118.44,28.4,118.44z"/>
		<path class="st95" d="M47.5,118.44h2.73c0.66,0,1.19,0.54,1.19,1.19v2.73c0,0.66-0.54,1.19-1.19,1.19H47.5
			c-0.66,0-1.19,0.54-1.19,1.19v4.27c0,0.66-0.54,1.19-1.19,1.19h-4.27c-0.66,0-1.19-0.54-1.19-1.19v-4.27
			c0-0.66,0.54-1.19,1.19-1.19h4.27c0.66,0,1.19-0.54,1.19-1.19v-2.73C46.3,118.98,46.84,118.44,47.5,118.44z"/>
		<path class="st95" d="M66.59,118.44h2.73c0.66,0,1.19,0.54,1.19,1.19v2.73c0,0.66-0.54,1.19-1.19,1.19h-2.73
			c-0.66,0-1.19,0.54-1.19,1.19v4.27c0,0.66-0.54,1.19-1.19,1.19h-4.27c-0.66,0-1.19-0.54-1.19-1.19v-4.27
			c0-0.66,0.54-1.19,1.19-1.19h4.27c0.66,0,1.19-0.54,1.19-1.19v-2.73C65.4,118.98,65.94,118.44,66.59,118.44z"/>
		<path class="st95" d="M85.69,118.44h2.73c0.66,0,1.19,0.54,1.19,1.19v2.73c0,0.66-0.54,1.19-1.19,1.19h-2.73
			c-0.66,0-1.19,0.54-1.19,1.19v4.27c0,0.66-0.54,1.19-1.19,1.19h-4.27c-0.66,0-1.19-0.54-1.19-1.19v-4.27
			c0-0.66,0.54-1.19,1.19-1.19h4.27c0.66,0,1.19-0.54,1.19-1.19v-2.73C84.5,118.98,85.04,118.44,85.69,118.44z"/>
		<path class="st95" d="M104.79,118.44h2.73c0.66,0,1.19,0.54,1.19,1.19v2.73c0,0.66-0.54,1.19-1.19,1.19h-2.73
			c-0.66,0-1.19,0.54-1.19,1.19v4.27c0,0.66-0.54,1.19-1.19,1.19h-4.27c-0.66,0-1.19-0.54-1.19-1.19v-4.27
			c0-0.66,0.54-1.19,1.19-1.19h4.27c0.66,0,1.19-0.54,1.19-1.19v-2.73C103.6,118.98,104.13,118.44,104.79,118.44z"/>
		<path class="st95" d="M123.89,118.44h2.73c0.66,0,1.19,0.54,1.19,1.19v2.73c0,0.66-0.54,1.19-1.19,1.19h-2.73
			c-0.66,0-1.19,0.54-1.19,1.19v4.27c0,0.66-0.54,1.19-1.19,1.19h-4.27c-0.66,0-1.19-0.54-1.19-1.19v-4.27
			c0-0.66,0.54-1.19,1.19-1.19h4.27c0.66,0,1.19-0.54,1.19-1.19v-2.73C122.7,118.98,123.23,118.44,123.89,118.44z"/>
		<path class="st95" d="M142.99,118.44h2.73c0.66,0,1.19,0.54,1.19,1.19v2.73c0,0.66-0.54,1.19-1.19,1.19h-2.73
			c-0.66,0-1.19,0.54-1.19,1.19v4.27c0,0.66-0.54,1.19-1.19,1.19h-4.27c-0.66,0-1.19-0.54-1.19-1.19v-4.27
			c0-0.66,0.54-1.19,1.19-1.19h4.27c0.66,0,1.19-0.54,1.19-1.19v-2.73C141.79,118.98,142.33,118.44,142.99,118.44z"/>
		<path class="st95" d="M162.08,118.44h2.73c0.66,0,1.19,0.54,1.19,1.19v2.73c0,0.66-0.54,1.19-1.19,1.19h-2.73
			c-0.66,0-1.19,0.54-1.19,1.19v4.27c0,0.66-0.54,1.19-1.19,1.19h-4.27c-0.66,0-1.19-0.54-1.19-1.19v-4.27
			c0-0.66,0.54-1.19,1.19-1.19h4.27c0.66,0,1.19-0.54,1.19-1.19v-2.73C160.89,118.98,161.43,118.44,162.08,118.44z"/>
		<path class="st95" d="M9.3,98.81h2.73c0.66,0,1.19,0.54,1.19,1.19v2.73c0,0.66-0.54,1.19-1.19,1.19H9.3
			c-0.66,0-1.19,0.54-1.19,1.19v4.27c0,0.66-0.54,1.19-1.19,1.19H2.65c-0.66,0-1.19-0.54-1.19-1.19v-4.27
			c0-0.66,0.54-1.19,1.19-1.19h4.27c0.66,0,1.19-0.54,1.19-1.19V100C8.11,99.34,8.65,98.81,9.3,98.81z"/>
		<path class="st95" d="M28.4,98.81h2.73c0.66,0,1.19,0.54,1.19,1.19v2.73c0,0.66-0.54,1.19-1.19,1.19H28.4
			c-0.66,0-1.19,0.54-1.19,1.19v4.27c0,0.66-0.54,1.19-1.19,1.19h-4.27c-0.66,0-1.19-0.54-1.19-1.19v-4.27
			c0-0.66,0.54-1.19,1.19-1.19h4.27c0.66,0,1.19-0.54,1.19-1.19V100C27.21,99.34,27.74,98.81,28.4,98.81z"/>
		<path class="st95" d="M47.5,98.81h2.73c0.66,0,1.19,0.54,1.19,1.19v2.73c0,0.66-0.54,1.19-1.19,1.19H47.5
			c-0.66,0-1.19,0.54-1.19,1.19v4.27c0,0.66-0.54,1.19-1.19,1.19h-4.27c-0.66,0-1.19-0.54-1.19-1.19v-4.27
			c0-0.66,0.54-1.19,1.19-1.19h4.27c0.66,0,1.19-0.54,1.19-1.19V100C46.3,99.34,46.84,98.81,47.5,98.81z"/>
		<path class="st95" d="M66.59,98.81h2.73c0.66,0,1.19,0.54,1.19,1.19v2.73c0,0.66-0.54,1.19-1.19,1.19h-2.73
			c-0.66,0-1.19,0.54-1.19,1.19v4.27c0,0.66-0.54,1.19-1.19,1.19h-4.27c-0.66,0-1.19-0.54-1.19-1.19v-4.27
			c0-0.66,0.54-1.19,1.19-1.19h4.27c0.66,0,1.19-0.54,1.19-1.19V100C65.4,99.34,65.94,98.81,66.59,98.81z"/>
		<path class="st95" d="M85.69,98.81h2.73c0.66,0,1.19,0.54,1.19,1.19v2.73c0,0.66-0.54,1.19-1.19,1.19h-2.73
			c-0.66,0-1.19,0.54-1.19,1.19v4.27c0,0.66-0.54,1.19-1.19,1.19h-4.27c-0.66,0-1.19-0.54-1.19-1.19v-4.27
			c0-0.66,0.54-1.19,1.19-1.19h4.27c0.66,0,1.19-0.54,1.19-1.19V100C84.5,99.34,85.04,98.81,85.69,98.81z"/>
		<path class="st95" d="M104.79,98.81h2.73c0.66,0,1.19,0.54,1.19,1.19v2.73c0,0.66-0.54,1.19-1.19,1.19h-2.73
			c-0.66,0-1.19,0.54-1.19,1.19v4.27c0,0.66-0.54,1.19-1.19,1.19h-4.27c-0.66,0-1.19-0.54-1.19-1.19v-4.27
			c0-0.66,0.54-1.19,1.19-1.19h4.27c0.66,0,1.19-0.54,1.19-1.19V100C103.6,99.34,104.13,98.81,104.79,98.81z"/>
		<path class="st95" d="M123.89,98.81h2.73c0.66,0,1.19,0.54,1.19,1.19v2.73c0,0.66-0.54,1.19-1.19,1.19h-2.73
			c-0.66,0-1.19,0.54-1.19,1.19v4.27c0,0.66-0.54,1.19-1.19,1.19h-4.27c-0.66,0-1.19-0.54-1.19-1.19v-4.27
			c0-0.66,0.54-1.19,1.19-1.19h4.27c0.66,0,1.19-0.54,1.19-1.19V100C122.7,99.34,123.23,98.81,123.89,98.81z"/>
		<path class="st95" d="M142.99,98.81h2.73c0.66,0,1.19,0.54,1.19,1.19v2.73c0,0.66-0.54,1.19-1.19,1.19h-2.73
			c-0.66,0-1.19,0.54-1.19,1.19v4.27c0,0.66-0.54,1.19-1.19,1.19h-4.27c-0.66,0-1.19-0.54-1.19-1.19v-4.27
			c0-0.66,0.54-1.19,1.19-1.19h4.27c0.66,0,1.19-0.54,1.19-1.19V100C141.79,99.34,142.33,98.81,142.99,98.81z"/>
		<path class="st95" d="M162.08,98.81h2.73c0.66,0,1.19,0.54,1.19,1.19v2.73c0,0.66-0.54,1.19-1.19,1.19h-2.73
			c-0.66,0-1.19,0.54-1.19,1.19v4.27c0,0.66-0.54,1.19-1.19,1.19h-4.27c-0.66,0-1.19-0.54-1.19-1.19v-4.27
			c0-0.66,0.54-1.19,1.19-1.19h4.27c0.66,0,1.19-0.54,1.19-1.19V100C160.89,99.34,161.43,98.81,162.08,98.81z"/>
		<path class="st95" d="M9.3,79.17h2.73c0.66,0,1.19,0.54,1.19,1.19v2.73c0,0.66-0.54,1.19-1.19,1.19H9.3
			c-0.66,0-1.19,0.54-1.19,1.19v4.27c0,0.66-0.54,1.19-1.19,1.19H2.65c-0.66,0-1.19-0.54-1.19-1.19v-4.27
			c0-0.66,0.54-1.19,1.19-1.19h4.27c0.66,0,1.19-0.54,1.19-1.19v-2.73C8.11,79.7,8.65,79.17,9.3,79.17z"/>
		<path class="st95" d="M28.4,79.17h2.73c0.66,0,1.19,0.54,1.19,1.19v2.73c0,0.66-0.54,1.19-1.19,1.19H28.4
			c-0.66,0-1.19,0.54-1.19,1.19v4.27c0,0.66-0.54,1.19-1.19,1.19h-4.27c-0.66,0-1.19-0.54-1.19-1.19v-4.27
			c0-0.66,0.54-1.19,1.19-1.19h4.27c0.66,0,1.19-0.54,1.19-1.19v-2.73C27.21,79.7,27.74,79.17,28.4,79.17z"/>
		<path class="st95" d="M47.5,79.17h2.73c0.66,0,1.19,0.54,1.19,1.19v2.73c0,0.66-0.54,1.19-1.19,1.19H47.5
			c-0.66,0-1.19,0.54-1.19,1.19v4.27c0,0.66-0.54,1.19-1.19,1.19h-4.27c-0.66,0-1.19-0.54-1.19-1.19v-4.27
			c0-0.66,0.54-1.19,1.19-1.19h4.27c0.66,0,1.19-0.54,1.19-1.19v-2.73C46.3,79.7,46.84,79.17,47.5,79.17z"/>
		<path class="st95" d="M66.59,79.17h2.73c0.66,0,1.19,0.54,1.19,1.19v2.73c0,0.66-0.54,1.19-1.19,1.19h-2.73
			c-0.66,0-1.19,0.54-1.19,1.19v4.27c0,0.66-0.54,1.19-1.19,1.19h-4.27c-0.66,0-1.19-0.54-1.19-1.19v-4.27
			c0-0.66,0.54-1.19,1.19-1.19h4.27c0.66,0,1.19-0.54,1.19-1.19v-2.73C65.4,79.7,65.94,79.17,66.59,79.17z"/>
		<path class="st95" d="M85.69,79.17h2.73c0.66,0,1.19,0.54,1.19,1.19v2.73c0,0.66-0.54,1.19-1.19,1.19h-2.73
			c-0.66,0-1.19,0.54-1.19,1.19v4.27c0,0.66-0.54,1.19-1.19,1.19h-4.27c-0.66,0-1.19-0.54-1.19-1.19v-4.27
			c0-0.66,0.54-1.19,1.19-1.19h4.27c0.66,0,1.19-0.54,1.19-1.19v-2.73C84.5,79.7,85.04,79.17,85.69,79.17z"/>
		<path class="st95" d="M104.79,79.17h2.73c0.66,0,1.19,0.54,1.19,1.19v2.73c0,0.66-0.54,1.19-1.19,1.19h-2.73
			c-0.66,0-1.19,0.54-1.19,1.19v4.27c0,0.66-0.54,1.19-1.19,1.19h-4.27c-0.66,0-1.19-0.54-1.19-1.19v-4.27
			c0-0.66,0.54-1.19,1.19-1.19h4.27c0.66,0,1.19-0.54,1.19-1.19v-2.73C103.6,79.7,104.13,79.17,104.79,79.17z"/>
		<path class="st95" d="M123.89,79.17h2.73c0.66,0,1.19,0.54,1.19,1.19v2.73c0,0.66-0.54,1.19-1.19,1.19h-2.73
			c-0.66,0-1.19,0.54-1.19,1.19v4.27c0,0.66-0.54,1.19-1.19,1.19h-4.27c-0.66,0-1.19-0.54-1.19-1.19v-4.27
			c0-0.66,0.54-1.19,1.19-1.19h4.27c0.66,0,1.19-0.54,1.19-1.19v-2.73C122.7,79.7,123.23,79.17,123.89,79.17z"/>
		<path class="st95" d="M142.99,79.17h2.73c0.66,0,1.19,0.54,1.19,1.19v2.73c0,0.66-0.54,1.19-1.19,1.19h-2.73
			c-0.66,0-1.19,0.54-1.19,1.19v4.27c0,0.66-0.54,1.19-1.19,1.19h-4.27c-0.66,0-1.19-0.54-1.19-1.19v-4.27
			c0-0.66,0.54-1.19,1.19-1.19h4.27c0.66,0,1.19-0.54,1.19-1.19v-2.73C141.79,79.7,142.33,79.17,142.99,79.17z"/>
		<path class="st95" d="M162.08,79.17h2.73c0.66,0,1.19,0.54,1.19,1.19v2.73c0,0.66-0.54,1.19-1.19,1.19h-2.73
			c-0.66,0-1.19,0.54-1.19,1.19v4.27c0,0.66-0.54,1.19-1.19,1.19h-4.27c-0.66,0-1.19-0.54-1.19-1.19v-4.27
			c0-0.66,0.54-1.19,1.19-1.19h4.27c0.66,0,1.19-0.54,1.19-1.19v-2.73C160.89,79.7,161.43,79.17,162.08,79.17z"/>
		<path class="st95" d="M9.3,59.53h2.73c0.66,0,1.19,0.54,1.19,1.19v2.73c0,0.66-0.54,1.19-1.19,1.19H9.3
			c-0.66,0-1.19,0.54-1.19,1.19v4.27c0,0.66-0.54,1.19-1.19,1.19H2.65c-0.66,0-1.19-0.54-1.19-1.19v-4.27
			c0-0.66,0.54-1.19,1.19-1.19h4.27c0.66,0,1.19-0.54,1.19-1.19v-2.73C8.11,60.07,8.65,59.53,9.3,59.53z"/>
		<path class="st95" d="M28.4,59.53h2.73c0.66,0,1.19,0.54,1.19,1.19v2.73c0,0.66-0.54,1.19-1.19,1.19H28.4
			c-0.66,0-1.19,0.54-1.19,1.19v4.27c0,0.66-0.54,1.19-1.19,1.19h-4.27c-0.66,0-1.19-0.54-1.19-1.19v-4.27
			c0-0.66,0.54-1.19,1.19-1.19h4.27c0.66,0,1.19-0.54,1.19-1.19v-2.73C27.21,60.07,27.74,59.53,28.4,59.53z"/>
		<path class="st95" d="M47.5,59.53h2.73c0.66,0,1.19,0.54,1.19,1.19v2.73c0,0.66-0.54,1.19-1.19,1.19H47.5
			c-0.66,0-1.19,0.54-1.19,1.19v4.27c0,0.66-0.54,1.19-1.19,1.19h-4.27c-0.66,0-1.19-0.54-1.19-1.19v-4.27
			c0-0.66,0.54-1.19,1.19-1.19h4.27c0.66,0,1.19-0.54,1.19-1.19v-2.73C46.3,60.07,46.84,59.53,47.5,59.53z"/>
		<path class="st95" d="M66.59,59.53h2.73c0.66,0,1.19,0.54,1.19,1.19v2.73c0,0.66-0.54,1.19-1.19,1.19h-2.73
			c-0.66,0-1.19,0.54-1.19,1.19v4.27c0,0.66-0.54,1.19-1.19,1.19h-4.27c-0.66,0-1.19-0.54-1.19-1.19v-4.27
			c0-0.66,0.54-1.19,1.19-1.19h4.27c0.66,0,1.19-0.54,1.19-1.19v-2.73C65.4,60.07,65.94,59.53,66.59,59.53z"/>
		<path class="st95" d="M85.69,59.53h2.73c0.66,0,1.19,0.54,1.19,1.19v2.73c0,0.66-0.54,1.19-1.19,1.19h-2.73
			c-0.66,0-1.19,0.54-1.19,1.19v4.27c0,0.66-0.54,1.19-1.19,1.19h-4.27c-0.66,0-1.19-0.54-1.19-1.19v-4.27
			c0-0.66,0.54-1.19,1.19-1.19h4.27c0.66,0,1.19-0.54,1.19-1.19v-2.73C84.5,60.07,85.04,59.53,85.69,59.53z"/>
		<path class="st95" d="M104.79,59.53h2.73c0.66,0,1.19,0.54,1.19,1.19v2.73c0,0.66-0.54,1.19-1.19,1.19h-2.73
			c-0.66,0-1.19,0.54-1.19,1.19v4.27c0,0.66-0.54,1.19-1.19,1.19h-4.27c-0.66,0-1.19-0.54-1.19-1.19v-4.27
			c0-0.66,0.54-1.19,1.19-1.19h4.27c0.66,0,1.19-0.54,1.19-1.19v-2.73C103.6,60.07,104.13,59.53,104.79,59.53z"/>
		<path class="st95" d="M123.89,59.53h2.73c0.66,0,1.19,0.54,1.19,1.19v2.73c0,0.66-0.54,1.19-1.19,1.19h-2.73
			c-0.66,0-1.19,0.54-1.19,1.19v4.27c0,0.66-0.54,1.19-1.19,1.19h-4.27c-0.66,0-1.19-0.54-1.19-1.19v-4.27
			c0-0.66,0.54-1.19,1.19-1.19h4.27c0.66,0,1.19-0.54,1.19-1.19v-2.73C122.7,60.07,123.23,59.53,123.89,59.53z"/>
		<path class="st95" d="M142.99,59.53h2.73c0.66,0,1.19,0.54,1.19,1.19v2.73c0,0.66-0.54,1.19-1.19,1.19h-2.73
			c-0.66,0-1.19,0.54-1.19,1.19v4.27c0,0.66-0.54,1.19-1.19,1.19h-4.27c-0.66,0-1.19-0.54-1.19-1.19v-4.27
			c0-0.66,0.54-1.19,1.19-1.19h4.27c0.66,0,1.19-0.54,1.19-1.19v-2.73C141.79,60.07,142.33,59.53,142.99,59.53z"/>
		<path class="st95" d="M162.08,59.53h2.73c0.66,0,1.19,0.54,1.19,1.19v2.73c0,0.66-0.54,1.19-1.19,1.19h-2.73
			c-0.66,0-1.19,0.54-1.19,1.19v4.27c0,0.66-0.54,1.19-1.19,1.19h-4.27c-0.66,0-1.19-0.54-1.19-1.19v-4.27
			c0-0.66,0.54-1.19,1.19-1.19h4.27c0.66,0,1.19-0.54,1.19-1.19v-2.73C160.89,60.07,161.43,59.53,162.08,59.53z"/>
		<path class="st95" d="M9.3,39.9h2.73c0.66,0,1.19,0.54,1.19,1.19v2.73c0,0.66-0.54,1.19-1.19,1.19H9.3
			c-0.66,0-1.19,0.54-1.19,1.19v4.27c0,0.66-0.54,1.19-1.19,1.19H2.65c-0.66,0-1.19-0.54-1.19-1.19V46.2c0-0.66,0.54-1.19,1.19-1.19
			h4.27c0.66,0,1.19-0.54,1.19-1.19v-2.73C8.11,40.43,8.65,39.9,9.3,39.9z"/>
		<path class="st95" d="M28.4,39.9h2.73c0.66,0,1.19,0.54,1.19,1.19v2.73c0,0.66-0.54,1.19-1.19,1.19H28.4
			c-0.66,0-1.19,0.54-1.19,1.19v4.27c0,0.66-0.54,1.19-1.19,1.19h-4.27c-0.66,0-1.19-0.54-1.19-1.19V46.2
			c0-0.66,0.54-1.19,1.19-1.19h4.27c0.66,0,1.19-0.54,1.19-1.19v-2.73C27.21,40.43,27.74,39.9,28.4,39.9z"/>
		<path class="st95" d="M47.5,39.9h2.73c0.66,0,1.19,0.54,1.19,1.19v2.73c0,0.66-0.54,1.19-1.19,1.19H47.5
			c-0.66,0-1.19,0.54-1.19,1.19v4.27c0,0.66-0.54,1.19-1.19,1.19h-4.27c-0.66,0-1.19-0.54-1.19-1.19V46.2
			c0-0.66,0.54-1.19,1.19-1.19h4.27c0.66,0,1.19-0.54,1.19-1.19v-2.73C46.3,40.43,46.84,39.9,47.5,39.9z"/>
		<path class="st95" d="M66.59,39.9h2.73c0.66,0,1.19,0.54,1.19,1.19v2.73c0,0.66-0.54,1.19-1.19,1.19h-2.73
			c-0.66,0-1.19,0.54-1.19,1.19v4.27c0,0.66-0.54,1.19-1.19,1.19h-4.27c-0.66,0-1.19-0.54-1.19-1.19V46.2
			c0-0.66,0.54-1.19,1.19-1.19h4.27c0.66,0,1.19-0.54,1.19-1.19v-2.73C65.4,40.43,65.94,39.9,66.59,39.9z"/>
		<path class="st95" d="M85.69,39.9h2.73c0.66,0,1.19,0.54,1.19,1.19v2.73c0,0.66-0.54,1.19-1.19,1.19h-2.73
			c-0.66,0-1.19,0.54-1.19,1.19v4.27c0,0.66-0.54,1.19-1.19,1.19h-4.27c-0.66,0-1.19-0.54-1.19-1.19V46.2
			c0-0.66,0.54-1.19,1.19-1.19h4.27c0.66,0,1.19-0.54,1.19-1.19v-2.73C84.5,40.43,85.04,39.9,85.69,39.9z"/>
		<path class="st95" d="M104.79,39.9h2.73c0.66,0,1.19,0.54,1.19,1.19v2.73c0,0.66-0.54,1.19-1.19,1.19h-2.73
			c-0.66,0-1.19,0.54-1.19,1.19v4.27c0,0.66-0.54,1.19-1.19,1.19h-4.27c-0.66,0-1.19-0.54-1.19-1.19V46.2
			c0-0.66,0.54-1.19,1.19-1.19h4.27c0.66,0,1.19-0.54,1.19-1.19v-2.73C103.6,40.43,104.13,39.9,104.79,39.9z"/>
		<path class="st95" d="M123.89,39.9h2.73c0.66,0,1.19,0.54,1.19,1.19v2.73c0,0.66-0.54,1.19-1.19,1.19h-2.73
			c-0.66,0-1.19,0.54-1.19,1.19v4.27c0,0.66-0.54,1.19-1.19,1.19h-4.27c-0.66,0-1.19-0.54-1.19-1.19V46.2
			c0-0.66,0.54-1.19,1.19-1.19h4.27c0.66,0,1.19-0.54,1.19-1.19v-2.73C122.7,40.43,123.23,39.9,123.89,39.9z"/>
		<path class="st95" d="M142.99,39.9h2.73c0.66,0,1.19,0.54,1.19,1.19v2.73c0,0.66-0.54,1.19-1.19,1.19h-2.73
			c-0.66,0-1.19,0.54-1.19,1.19v4.27c0,0.66-0.54,1.19-1.19,1.19h-4.27c-0.66,0-1.19-0.54-1.19-1.19V46.2
			c0-0.66,0.54-1.19,1.19-1.19h4.27c0.66,0,1.19-0.54,1.19-1.19v-2.73C141.79,40.43,142.33,39.9,142.99,39.9z"/>
		<path class="st95" d="M162.08,39.9h2.73c0.66,0,1.19,0.54,1.19,1.19v2.73c0,0.66-0.54,1.19-1.19,1.19h-2.73
			c-0.66,0-1.19,0.54-1.19,1.19v4.27c0,0.66-0.54,1.19-1.19,1.19h-4.27c-0.66,0-1.19-0.54-1.19-1.19V46.2
			c0-0.66,0.54-1.19,1.19-1.19h4.27c0.66,0,1.19-0.54,1.19-1.19v-2.73C160.89,40.43,161.43,39.9,162.08,39.9z"/>
		<path class="st95" d="M9.3,20.26h2.73c0.66,0,1.19,0.54,1.19,1.19v2.73c0,0.66-0.54,1.19-1.19,1.19H9.3
			c-0.66,0-1.19,0.54-1.19,1.19v4.27c0,0.66-0.54,1.19-1.19,1.19H2.65c-0.66,0-1.19-0.54-1.19-1.19v-4.27
			c0-0.66,0.54-1.19,1.19-1.19h4.27c0.66,0,1.19-0.54,1.19-1.19v-2.73C8.11,20.79,8.65,20.26,9.3,20.26z"/>
		<path class="st95" d="M28.4,20.26h2.73c0.66,0,1.19,0.54,1.19,1.19v2.73c0,0.66-0.54,1.19-1.19,1.19H28.4
			c-0.66,0-1.19,0.54-1.19,1.19v4.27c0,0.66-0.54,1.19-1.19,1.19h-4.27c-0.66,0-1.19-0.54-1.19-1.19v-4.27
			c0-0.66,0.54-1.19,1.19-1.19h4.27c0.66,0,1.19-0.54,1.19-1.19v-2.73C27.21,20.79,27.74,20.26,28.4,20.26z"/>
		<path class="st95" d="M47.5,20.26h2.73c0.66,0,1.19,0.54,1.19,1.19v2.73c0,0.66-0.54,1.19-1.19,1.19H47.5
			c-0.66,0-1.19,0.54-1.19,1.19v4.27c0,0.66-0.54,1.19-1.19,1.19h-4.27c-0.66,0-1.19-0.54-1.19-1.19v-4.27
			c0-0.66,0.54-1.19,1.19-1.19h4.27c0.66,0,1.19-0.54,1.19-1.19v-2.73C46.3,20.79,46.84,20.26,47.5,20.26z"/>
		<path class="st95" d="M66.59,20.26h2.73c0.66,0,1.19,0.54,1.19,1.19v2.73c0,0.66-0.54,1.19-1.19,1.19h-2.73
			c-0.66,0-1.19,0.54-1.19,1.19v4.27c0,0.66-0.54,1.19-1.19,1.19h-4.27c-0.66,0-1.19-0.54-1.19-1.19v-4.27
			c0-0.66,0.54-1.19,1.19-1.19h4.27c0.66,0,1.19-0.54,1.19-1.19v-2.73C65.4,20.79,65.94,20.26,66.59,20.26z"/>
		<path class="st95" d="M85.69,20.26h2.73c0.66,0,1.19,0.54,1.19,1.19v2.73c0,0.66-0.54,1.19-1.19,1.19h-2.73
			c-0.66,0-1.19,0.54-1.19,1.19v4.27c0,0.66-0.54,1.19-1.19,1.19h-4.27c-0.66,0-1.19-0.54-1.19-1.19v-4.27
			c0-0.66,0.54-1.19,1.19-1.19h4.27c0.66,0,1.19-0.54,1.19-1.19v-2.73C84.5,20.79,85.04,20.26,85.69,20.26z"/>
		<path class="st95" d="M104.79,20.26h2.73c0.66,0,1.19,0.54,1.19,1.19v2.73c0,0.66-0.54,1.19-1.19,1.19h-2.73
			c-0.66,0-1.19,0.54-1.19,1.19v4.27c0,0.66-0.54,1.19-1.19,1.19h-4.27c-0.66,0-1.19-0.54-1.19-1.19v-4.27
			c0-0.66,0.54-1.19,1.19-1.19h4.27c0.66,0,1.19-0.54,1.19-1.19v-2.73C103.6,20.79,104.13,20.26,104.79,20.26z"/>
		<path class="st95" d="M123.89,20.26h2.73c0.66,0,1.19,0.54,1.19,1.19v2.73c0,0.66-0.54,1.19-1.19,1.19h-2.73
			c-0.66,0-1.19,0.54-1.19,1.19v4.27c0,0.66-0.54,1.19-1.19,1.19h-4.27c-0.66,0-1.19-0.54-1.19-1.19v-4.27
			c0-0.66,0.54-1.19,1.19-1.19h4.27c0.66,0,1.19-0.54,1.19-1.19v-2.73C122.7,20.79,123.23,20.26,123.89,20.26z"/>
		<path class="st95" d="M142.99,20.26h2.73c0.66,0,1.19,0.54,1.19,1.19v2.73c0,0.66-0.54,1.19-1.19,1.19h-2.73
			c-0.66,0-1.19,0.54-1.19,1.19v4.27c0,0.66-0.54,1.19-1.19,1.19h-4.27c-0.66,0-1.19-0.54-1.19-1.19v-4.27
			c0-0.66,0.54-1.19,1.19-1.19h4.27c0.66,0,1.19-0.54,1.19-1.19v-2.73C141.79,20.79,142.33,20.26,142.99,20.26z"/>
		<path class="st95" d="M162.08,20.26h2.73c0.66,0,1.19,0.54,1.19,1.19v2.73c0,0.66-0.54,1.19-1.19,1.19h-2.73
			c-0.66,0-1.19,0.54-1.19,1.19v4.27c0,0.66-0.54,1.19-1.19,1.19h-4.27c-0.66,0-1.19-0.54-1.19-1.19v-4.27
			c0-0.66,0.54-1.19,1.19-1.19h4.27c0.66,0,1.19-0.54,1.19-1.19v-2.73C160.89,20.79,161.43,20.26,162.08,20.26z"/>
		<path class="st95" d="M9.3,0.62h2.73c0.66,0,1.19,0.54,1.19,1.19v2.73c0,0.66-0.54,1.19-1.19,1.19H9.3
			c-0.66,0-1.19,0.54-1.19,1.19v4.27c0,0.66-0.54,1.19-1.19,1.19H2.65c-0.66,0-1.19-0.54-1.19-1.19V6.93c0-0.66,0.54-1.19,1.19-1.19
			h4.27c0.66,0,1.19-0.54,1.19-1.19V1.81C8.11,1.16,8.65,0.62,9.3,0.62z"/>
		<path class="st95" d="M28.4,0.62h2.73c0.66,0,1.19,0.54,1.19,1.19v2.73c0,0.66-0.54,1.19-1.19,1.19H28.4
			c-0.66,0-1.19,0.54-1.19,1.19v4.27c0,0.66-0.54,1.19-1.19,1.19h-4.27c-0.66,0-1.19-0.54-1.19-1.19V6.93
			c0-0.66,0.54-1.19,1.19-1.19h4.27c0.66,0,1.19-0.54,1.19-1.19V1.81C27.21,1.16,27.74,0.62,28.4,0.62z"/>
		<path class="st95" d="M47.5,0.62h2.73c0.66,0,1.19,0.54,1.19,1.19v2.73c0,0.66-0.54,1.19-1.19,1.19H47.5
			c-0.66,0-1.19,0.54-1.19,1.19v4.27c0,0.66-0.54,1.19-1.19,1.19h-4.27c-0.66,0-1.19-0.54-1.19-1.19V6.93
			c0-0.66,0.54-1.19,1.19-1.19h4.27c0.66,0,1.19-0.54,1.19-1.19V1.81C46.3,1.16,46.84,0.62,47.5,0.62z"/>
		<path class="st95" d="M66.59,0.62h2.73c0.66,0,1.19,0.54,1.19,1.19v2.73c0,0.66-0.54,1.19-1.19,1.19h-2.73
			c-0.66,0-1.19,0.54-1.19,1.19v4.27c0,0.66-0.54,1.19-1.19,1.19h-4.27c-0.66,0-1.19-0.54-1.19-1.19V6.93
			c0-0.66,0.54-1.19,1.19-1.19h4.27c0.66,0,1.19-0.54,1.19-1.19V1.81C65.4,1.16,65.94,0.62,66.59,0.62z"/>
		<path class="st95" d="M85.69,0.62h2.73c0.66,0,1.19,0.54,1.19,1.19v2.73c0,0.66-0.54,1.19-1.19,1.19h-2.73
			c-0.66,0-1.19,0.54-1.19,1.19v4.27c0,0.66-0.54,1.19-1.19,1.19h-4.27c-0.66,0-1.19-0.54-1.19-1.19V6.93
			c0-0.66,0.54-1.19,1.19-1.19h4.27c0.66,0,1.19-0.54,1.19-1.19V1.81C84.5,1.16,85.04,0.62,85.69,0.62z"/>
		<path class="st95" d="M104.79,0.62h2.73c0.66,0,1.19,0.54,1.19,1.19v2.73c0,0.66-0.54,1.19-1.19,1.19h-2.73
			c-0.66,0-1.19,0.54-1.19,1.19v4.27c0,0.66-0.54,1.19-1.19,1.19h-4.27c-0.66,0-1.19-0.54-1.19-1.19V6.93
			c0-0.66,0.54-1.19,1.19-1.19h4.27c0.66,0,1.19-0.54,1.19-1.19V1.81C103.6,1.16,104.13,0.62,104.79,0.62z"/>
		<path class="st95" d="M123.89,0.62h2.73c0.66,0,1.19,0.54,1.19,1.19v2.73c0,0.66-0.54,1.19-1.19,1.19h-2.73
			c-0.66,0-1.19,0.54-1.19,1.19v4.27c0,0.66-0.54,1.19-1.19,1.19h-4.27c-0.66,0-1.19-0.54-1.19-1.19V6.93
			c0-0.66,0.54-1.19,1.19-1.19h4.27c0.66,0,1.19-0.54,1.19-1.19V1.81C122.7,1.16,123.23,0.62,123.89,0.62z"/>
		<path class="st95" d="M142.99,0.62h2.73c0.66,0,1.19,0.54,1.19,1.19v2.73c0,0.66-0.54,1.19-1.19,1.19h-2.73
			c-0.66,0-1.19,0.54-1.19,1.19v4.27c0,0.66-0.54,1.19-1.19,1.19h-4.27c-0.66,0-1.19-0.54-1.19-1.19V6.93
			c0-0.66,0.54-1.19,1.19-1.19h4.27c0.66,0,1.19-0.54,1.19-1.19V1.81C141.79,1.16,142.33,0.62,142.99,0.62z"/>
		<path class="st95" d="M162.08,0.62h2.73c0.66,0,1.19,0.54,1.19,1.19v2.73c0,0.66-0.54,1.19-1.19,1.19h-2.73
			c-0.66,0-1.19,0.54-1.19,1.19v4.27c0,0.66-0.54,1.19-1.19,1.19h-4.27c-0.66,0-1.19-0.54-1.19-1.19V6.93
			c0-0.66,0.54-1.19,1.19-1.19h4.27c0.66,0,1.19-0.54,1.19-1.19V1.81C160.89,1.16,161.43,0.62,162.08,0.62z"/>
	</g>
</g>
<g id="Layer_2">
</g>
</svg>
