<?xml version="1.0" encoding="utf-8"?>
<!-- Generator: Adobe Illustrator 24.1.1, SVG Export Plug-In . SVG Version: 6.00 Build 0)  -->
<svg version="1.1" xmlns="http://www.w3.org/2000/svg" xmlns:xlink="http://www.w3.org/1999/xlink" x="0px" y="0px"
	 viewBox="0 0 84.92 84.92" style="enable-background:new 0 0 84.92 84.92;" xml:space="preserve">
<style type="text/css">
	.st0{fill:#00A99D;}
	.st1{fill:url(#SVGID_1_);}
	.st2{fill:#C5B04C;}
	.st3{fill-rule:evenodd;clip-rule:evenodd;fill:#C5B04C;}
	.st4{filter:url(#Adobe_OpacityMaskFilter);}
	.st5{fill:url(#SVGID_3_);}
	.st6{mask:url(#SVGID_2_);fill-rule:evenodd;clip-rule:evenodd;fill:#C5B04C;}
	.st7{filter:url(#Adobe_OpacityMaskFilter_1_);}
	.st8{fill:url(#SVGID_5_);}
	.st9{mask:url(#SVGID_4_);fill-rule:evenodd;clip-rule:evenodd;fill:#F1E5A7;}
	.st10{filter:url(#Adobe_OpacityMaskFilter_2_);}
	.st11{fill:url(#SVGID_7_);}
	.st12{mask:url(#SVGID_6_);fill-rule:evenodd;clip-rule:evenodd;fill:#F1E5A7;}
	.st13{filter:url(#Adobe_OpacityMaskFilter_3_);}
	.st14{fill:url(#SVGID_9_);}
	.st15{mask:url(#SVGID_8_);fill-rule:evenodd;clip-rule:evenodd;fill:#F1E5A7;}
	.st16{filter:url(#Adobe_OpacityMaskFilter_4_);}
	.st17{fill:url(#SVGID_11_);}
	.st18{mask:url(#SVGID_10_);fill-rule:evenodd;clip-rule:evenodd;fill:#F1E5A7;}
	.st19{opacity:0.5;fill-rule:evenodd;clip-rule:evenodd;fill:#C5B04C;}
	.st20{filter:url(#Adobe_OpacityMaskFilter_5_);}
	.st21{fill:url(#SVGID_13_);}
	.st22{mask:url(#SVGID_12_);fill-rule:evenodd;clip-rule:evenodd;fill:#C5B04C;}
	.st23{filter:url(#Adobe_OpacityMaskFilter_6_);}
	.st24{fill:url(#SVGID_15_);}
	.st25{mask:url(#SVGID_14_);fill-rule:evenodd;clip-rule:evenodd;fill:#C5B04C;}
	.st26{filter:url(#Adobe_OpacityMaskFilter_7_);}
	.st27{fill:url(#SVGID_17_);}
	.st28{mask:url(#SVGID_16_);fill-rule:evenodd;clip-rule:evenodd;fill:#F1E5A7;}
	.st29{fill-rule:evenodd;clip-rule:evenodd;fill:#315B51;}
	.st30{filter:url(#Adobe_OpacityMaskFilter_8_);}
	.st31{fill:url(#SVGID_19_);}
	.st32{mask:url(#SVGID_18_);fill-rule:evenodd;clip-rule:evenodd;fill:#2BB595;}
	.st33{fill:#B0AFB0;}
	.st34{fill:#FFFFFF;}
	.st35{fill:none;stroke:#FFFFFF;stroke-width:0.25;stroke-miterlimit:10;}
	.st36{fill:#B3B2B3;}
	.st37{fill:#D39241;}
	.st38{fill:#315B51;}
	.st39{fill:#C8B34C;}
	.st40{fill:#2BB898;}
	.st41{fill:#385BA6;}
	.st42{fill:#515151;}
	.st43{fill:#F4E8AA;}
	.st44{fill:#FAC86E;}
	.st45{fill:#F4F4F4;}
	.st46{fill:#AD9944;}
	.st47{fill:none;stroke:#FFFFFF;stroke-width:0.5;stroke-miterlimit:10;}
	.st48{fill:none;stroke:#CACACA;stroke-width:0.5;stroke-miterlimit:10;}
	.st49{fill:none;stroke:#B3B3B3;stroke-width:0.5;stroke-miterlimit:10;}
	.st50{fill-rule:evenodd;clip-rule:evenodd;fill:none;stroke:#CACACA;stroke-width:0.5;stroke-miterlimit:10;}
	.st51{fill:#FAFAFA;}
	.st52{fill:#EDF1F4;stroke:#00A99D;stroke-miterlimit:10;}
	.st53{fill:#E1E1E1;}
	.st54{filter:url(#Adobe_OpacityMaskFilter_9_);}
	.st55{fill:url(#SVGID_21_);}
	.st56{mask:url(#SVGID_20_);fill-rule:evenodd;clip-rule:evenodd;fill:#C5B04C;}
	.st57{filter:url(#Adobe_OpacityMaskFilter_10_);}
	.st58{fill:url(#SVGID_23_);}
	.st59{mask:url(#SVGID_22_);fill-rule:evenodd;clip-rule:evenodd;fill:#F1E5A7;}
	.st60{filter:url(#Adobe_OpacityMaskFilter_11_);}
	.st61{fill:url(#SVGID_25_);}
	.st62{mask:url(#SVGID_24_);fill-rule:evenodd;clip-rule:evenodd;fill:#F1E5A7;}
	.st63{filter:url(#Adobe_OpacityMaskFilter_12_);}
	.st64{fill:url(#SVGID_27_);}
	.st65{mask:url(#SVGID_26_);fill-rule:evenodd;clip-rule:evenodd;fill:#F1E5A7;}
	.st66{filter:url(#Adobe_OpacityMaskFilter_13_);}
	.st67{fill:url(#SVGID_29_);}
	.st68{mask:url(#SVGID_28_);fill-rule:evenodd;clip-rule:evenodd;fill:#F1E5A7;}
	.st69{filter:url(#Adobe_OpacityMaskFilter_14_);}
	.st70{fill:url(#SVGID_31_);}
	.st71{mask:url(#SVGID_30_);fill-rule:evenodd;clip-rule:evenodd;fill:#C5B04C;}
	.st72{filter:url(#Adobe_OpacityMaskFilter_15_);}
	.st73{fill:url(#SVGID_33_);}
	.st74{mask:url(#SVGID_32_);fill-rule:evenodd;clip-rule:evenodd;fill:#C5B04C;}
	.st75{fill:none;stroke:#2BB898;stroke-width:1.16;stroke-linecap:round;stroke-linejoin:round;stroke-miterlimit:10;}
	.st76{fill-rule:evenodd;clip-rule:evenodd;fill:none;stroke:#C7C7C7;stroke-width:0.5;stroke-miterlimit:10;}
	.st77{fill-rule:evenodd;clip-rule:evenodd;fill:none;stroke:#C7C7C7;stroke-width:0.75;stroke-miterlimit:10;}
	.st78{fill:#2BB898;stroke:#2BB898;stroke-width:0.7684;stroke-miterlimit:10;}
	.st79{clip-path:url(#SVGID_35_);fill:#BCBCBC;}
	.st80{clip-path:url(#SVGID_35_);fill:#969696;}
	.st81{clip-path:url(#SVGID_35_);}
	.st82{fill:#969696;}
	.st83{fill:#BCBCBC;}
	.st84{fill:none;stroke:#C7C7C7;stroke-width:0.5;stroke-miterlimit:10;}
	.st85{clip-path:url(#SVGID_37_);}
	.st86{fill:#4D4D4D;}
	.st87{fill:#A6D0E4;}
	.st88{fill:url(#);}
	.st89{fill:#A0A0A0;}
	.st90{fill:#E7ECF2;stroke:#00A99D;stroke-miterlimit:10;}
	.st91{opacity:0.24;}
	.st92{fill:#B4E0E0;}
	.st93{fill:#52C5BD;}
	.st94{opacity:0.95;fill:#315B51;stroke:#00A99D;stroke-miterlimit:10;}
</style>
<g id="Layer_1">
	<g>
		<path class="st92" d="M80.81,0H20.55c-2.27,0-4.11,1.84-4.11,4.11v20.55H6.85C3.07,24.65,0,27.73,0,31.5v32.87
			c0,3.78,3.07,6.85,6.85,6.85h13.17l-1.83,5.48H13.7c-2.27,0-4.11,1.84-4.11,4.11v4.11h41.09v-4.11c0-2.27-1.84-4.11-4.11-4.11
			h-4.49l-1.83-5.48h13.17c3.78,0,6.85-3.07,6.85-6.85v-1.37h20.55c2.27,0,4.11-1.84,4.11-4.11V4.11C84.92,1.84,83.08,0,80.81,0z
			 M20.55,2.74h60.27c0.75,0,1.37,0.61,1.37,1.37v6.85H19.18V4.11C19.18,3.35,19.79,2.74,20.55,2.74z M6.85,27.39h46.57
			c2.27,0,4.11,1.84,4.11,4.11v26.02H2.74V31.5C2.74,29.24,4.58,27.39,6.85,27.39z M60.27,35.61H76.7v19.18H60.27V35.61z
			 M47.94,80.81v1.37H12.33v-1.37c0-0.75,0.61-1.37,1.37-1.37h32.87C47.32,79.44,47.94,80.06,47.94,80.81z M39.19,76.7H21.08
			l1.83-5.48h14.46L39.19,76.7z M53.42,68.49H6.85c-2.27,0-4.11-1.84-4.11-4.11v-4.11h54.79v4.11
			C57.53,66.64,55.68,68.49,53.42,68.49z M80.81,60.27H60.27v-2.74h19.18V32.87H60.27V31.5c0-3.78-3.07-6.85-6.85-6.85H19.18V13.7
			h63.01v45.2C82.18,59.65,81.57,60.27,80.81,60.27z"/>
		<path class="st92" d="M23.28,63.01h2.74v2.74h-2.74V63.01z"/>
		<path class="st92" d="M28.76,63.01h2.74v2.74h-2.74V63.01z"/>
		<path class="st92" d="M34.24,63.01h2.74v2.74h-2.74V63.01z"/>
		<path class="st92" d="M27.39,5.48h2.74v2.74h-2.74V5.48z"/>
		<path class="st92" d="M32.87,5.48h2.74v2.74h-2.74V5.48z"/>
		<path class="st92" d="M21.92,5.48h2.74v2.74h-2.74V5.48z"/>
		<path class="st92" d="M21.92,16.44h2.74v2.74h-2.74V16.44z"/>
		<path class="st92" d="M27.39,16.44h52.05v2.74H27.39V16.44z"/>
		<path class="st92" d="M63.01,21.92h16.44v2.74H63.01V21.92z"/>
		<path class="st92" d="M63.01,27.39h16.44v2.74H63.01V27.39z"/>
		<path class="st92" d="M9.59,54.79h27.39c2.27,0,4.11-1.84,4.11-4.11V34.24c0-2.27-1.84-4.11-4.11-4.11H9.59
			c-2.27,0-4.11,1.84-4.11,4.11v16.44C5.48,52.94,7.32,54.79,9.59,54.79z M8.22,34.24c0-0.75,0.61-1.37,1.37-1.37h27.39
			c0.75,0,1.37,0.61,1.37,1.37v16.44c0,0.75-0.61,1.37-1.37,1.37H9.59c-0.75,0-1.37-0.61-1.37-1.37V34.24z"/>
		<path class="st92" d="M19.25,50.22l5.47-16.44l2.6,0.87l-5.47,16.44L19.25,50.22z"/>
		<path class="st92" d="M29.73,48.91l6.45-6.45l-6.45-6.45l-1.94,1.94l4.51,4.51l-4.51,4.51L29.73,48.91z"/>
		<path class="st92" d="M18.77,46.97l-4.51-4.51l4.51-4.51l-1.94-1.94l-6.45,6.45l6.45,6.45L18.77,46.97z"/>
		<path class="st92" d="M43.83,30.13h10.96v2.74H43.83V30.13z"/>
		<path class="st92" d="M43.83,35.61h10.96v2.74H43.83V35.61z"/>
		<path class="st92" d="M43.83,41.09h10.96v2.74H43.83V41.09z"/>
		<path class="st92" d="M43.83,46.57h10.96v2.74H43.83V46.57z"/>
		<path class="st92" d="M46.57,52.05h2.74v2.74h-2.74V52.05z"/>
		<path class="st92" d="M52.05,52.05h2.74v2.74h-2.74V52.05z"/>
	</g>
</g>
<g id="Layer_2">
</g>
</svg>
