<?xml version="1.0" encoding="utf-8"?>
<!-- Generator: Adobe Illustrator 24.1.1, SVG Export Plug-In . SVG Version: 6.00 Build 0)  -->
<svg version="1.1" xmlns="http://www.w3.org/2000/svg" xmlns:xlink="http://www.w3.org/1999/xlink" x="0px" y="0px"
	 viewBox="0 0 76.96 74.48" style="enable-background:new 0 0 76.96 74.48;" xml:space="preserve">
<style type="text/css">
	.st0{fill:#00A99D;}
	.st1{fill:url(#SVGID_1_);}
	.st2{fill:#C5B04C;}
	.st3{fill-rule:evenodd;clip-rule:evenodd;fill:#C5B04C;}
	.st4{filter:url(#Adobe_OpacityMaskFilter);}
	.st5{fill:url(#SVGID_3_);}
	.st6{mask:url(#SVGID_2_);fill-rule:evenodd;clip-rule:evenodd;fill:#C5B04C;}
	.st7{filter:url(#Adobe_OpacityMaskFilter_1_);}
	.st8{fill:url(#SVGID_5_);}
	.st9{mask:url(#SVGID_4_);fill-rule:evenodd;clip-rule:evenodd;fill:#F1E5A7;}
	.st10{filter:url(#Adobe_OpacityMaskFilter_2_);}
	.st11{fill:url(#SVGID_7_);}
	.st12{mask:url(#SVGID_6_);fill-rule:evenodd;clip-rule:evenodd;fill:#F1E5A7;}
	.st13{filter:url(#Adobe_OpacityMaskFilter_3_);}
	.st14{fill:url(#SVGID_9_);}
	.st15{mask:url(#SVGID_8_);fill-rule:evenodd;clip-rule:evenodd;fill:#F1E5A7;}
	.st16{filter:url(#Adobe_OpacityMaskFilter_4_);}
	.st17{fill:url(#SVGID_11_);}
	.st18{mask:url(#SVGID_10_);fill-rule:evenodd;clip-rule:evenodd;fill:#F1E5A7;}
	.st19{opacity:0.5;fill-rule:evenodd;clip-rule:evenodd;fill:#C5B04C;}
	.st20{filter:url(#Adobe_OpacityMaskFilter_5_);}
	.st21{fill:url(#SVGID_13_);}
	.st22{mask:url(#SVGID_12_);fill-rule:evenodd;clip-rule:evenodd;fill:#C5B04C;}
	.st23{filter:url(#Adobe_OpacityMaskFilter_6_);}
	.st24{fill:url(#SVGID_15_);}
	.st25{mask:url(#SVGID_14_);fill-rule:evenodd;clip-rule:evenodd;fill:#C5B04C;}
	.st26{filter:url(#Adobe_OpacityMaskFilter_7_);}
	.st27{fill:url(#SVGID_17_);}
	.st28{mask:url(#SVGID_16_);fill-rule:evenodd;clip-rule:evenodd;fill:#F1E5A7;}
	.st29{fill-rule:evenodd;clip-rule:evenodd;fill:#315B51;}
	.st30{filter:url(#Adobe_OpacityMaskFilter_8_);}
	.st31{fill:url(#SVGID_19_);}
	.st32{mask:url(#SVGID_18_);fill-rule:evenodd;clip-rule:evenodd;fill:#2BB595;}
	.st33{fill:#B0AFB0;}
	.st34{fill:#FFFFFF;}
	.st35{fill:none;stroke:#FFFFFF;stroke-width:0.25;stroke-miterlimit:10;}
	.st36{fill:#B3B2B3;}
	.st37{fill:#D39241;}
	.st38{fill:#315B51;}
	.st39{fill:#C8B34C;}
	.st40{fill:#2BB898;}
	.st41{fill:#385BA6;}
	.st42{fill:#515151;}
	.st43{fill:#F4E8AA;}
	.st44{fill:#FAC86E;}
	.st45{fill:#F4F4F4;}
	.st46{fill:#AD9944;}
	.st47{fill:none;stroke:#FFFFFF;stroke-width:0.5;stroke-miterlimit:10;}
	.st48{fill:none;stroke:#CACACA;stroke-width:0.5;stroke-miterlimit:10;}
	.st49{fill:none;stroke:#B3B3B3;stroke-width:0.5;stroke-miterlimit:10;}
	.st50{fill-rule:evenodd;clip-rule:evenodd;fill:none;stroke:#CACACA;stroke-width:0.5;stroke-miterlimit:10;}
	.st51{fill:#FAFAFA;}
	.st52{fill:#EDF1F4;stroke:#00A99D;stroke-miterlimit:10;}
	.st53{fill:#E1E1E1;}
	.st54{filter:url(#Adobe_OpacityMaskFilter_9_);}
	.st55{fill:url(#SVGID_21_);}
	.st56{mask:url(#SVGID_20_);fill-rule:evenodd;clip-rule:evenodd;fill:#C5B04C;}
	.st57{filter:url(#Adobe_OpacityMaskFilter_10_);}
	.st58{fill:url(#SVGID_23_);}
	.st59{mask:url(#SVGID_22_);fill-rule:evenodd;clip-rule:evenodd;fill:#F1E5A7;}
	.st60{filter:url(#Adobe_OpacityMaskFilter_11_);}
	.st61{fill:url(#SVGID_25_);}
	.st62{mask:url(#SVGID_24_);fill-rule:evenodd;clip-rule:evenodd;fill:#F1E5A7;}
	.st63{filter:url(#Adobe_OpacityMaskFilter_12_);}
	.st64{fill:url(#SVGID_27_);}
	.st65{mask:url(#SVGID_26_);fill-rule:evenodd;clip-rule:evenodd;fill:#F1E5A7;}
	.st66{filter:url(#Adobe_OpacityMaskFilter_13_);}
	.st67{fill:url(#SVGID_29_);}
	.st68{mask:url(#SVGID_28_);fill-rule:evenodd;clip-rule:evenodd;fill:#F1E5A7;}
	.st69{filter:url(#Adobe_OpacityMaskFilter_14_);}
	.st70{fill:url(#SVGID_31_);}
	.st71{mask:url(#SVGID_30_);fill-rule:evenodd;clip-rule:evenodd;fill:#C5B04C;}
	.st72{filter:url(#Adobe_OpacityMaskFilter_15_);}
	.st73{fill:url(#SVGID_33_);}
	.st74{mask:url(#SVGID_32_);fill-rule:evenodd;clip-rule:evenodd;fill:#C5B04C;}
	.st75{fill:none;stroke:#2BB898;stroke-width:1.16;stroke-linecap:round;stroke-linejoin:round;stroke-miterlimit:10;}
	.st76{fill-rule:evenodd;clip-rule:evenodd;fill:none;stroke:#C7C7C7;stroke-width:0.5;stroke-miterlimit:10;}
	.st77{fill-rule:evenodd;clip-rule:evenodd;fill:none;stroke:#C7C7C7;stroke-width:0.75;stroke-miterlimit:10;}
	.st78{fill:#2BB898;stroke:#2BB898;stroke-width:0.7684;stroke-miterlimit:10;}
	.st79{clip-path:url(#SVGID_35_);fill:#BCBCBC;}
	.st80{clip-path:url(#SVGID_35_);fill:#969696;}
	.st81{clip-path:url(#SVGID_35_);}
	.st82{fill:#969696;}
	.st83{fill:#BCBCBC;}
	.st84{fill:none;stroke:#C7C7C7;stroke-width:0.5;stroke-miterlimit:10;}
	.st85{clip-path:url(#SVGID_37_);}
	.st86{fill:#4D4D4D;}
	.st87{fill:#A6D0E4;}
	.st88{fill:url(#);}
	.st89{fill:#A0A0A0;}
	.st90{fill:#E7ECF2;stroke:#00A99D;stroke-miterlimit:10;}
	.st91{opacity:0.24;}
	.st92{fill:#B4E0E0;}
	.st93{fill:#52C5BD;}
	.st94{opacity:0.95;fill:#315B51;stroke:#00A99D;stroke-miterlimit:10;}
</style>
<g id="Layer_1">
	<g>
		<path class="st92" d="M66.79,53.47l-12.18-3.51v-4.29c3.15-2.43,5.83-5.81,6.92-9.67h3.63c2.4,0,4.34-1.95,4.34-4.34V24.2
			c0-2.4-1.95-4.34-4.34-4.34h-3.1v-2.48C62.06,7.78,54.28,0,44.69,0S27.31,7.78,27.31,17.38v2.48h-3.1c-2.4,0-4.34,1.95-4.34,4.34
			v7.45c0,2.4,1.95,4.34,4.34,4.34h0.62v4.97c0,0.69,0.56,1.24,1.24,1.24h5.11c1.06,1.29,2.26,2.45,3.58,3.47v4.29l-2.48,0.72v-2.88
			c0-1.71-1.39-3.1-3.1-3.1H3.1c-1.71,0-3.1,1.39-3.1,3.1v18.62c0,1.71,1.39,3.1,3.1,3.1h6.38l-0.55,2.48H6.21
			c-0.69,0-1.24,0.56-1.24,1.24s0.56,1.24,1.24,1.24h69.51c0.69,0,1.24-0.56,1.24-1.24v-6.57C76.96,60.47,72.78,55.05,66.79,53.47z
			 M65.79,22.45c0.74,0.26,1.24,0.97,1.24,1.75v7.45c0,0.79-0.5,1.49-1.24,1.75V22.45z M62.06,22.34h1.24v11.17h-1.24V22.34z
			 M23.58,33.41c-0.74-0.26-1.24-0.97-1.24-1.75V24.2c0-0.79,0.5-1.49,1.24-1.75V33.41z M56.8,53.17l-5.12,9.73l-5.02-2.46
			l7.12-8.14L56.8,53.17z M44.69,58.94l-7.45-8.51v-3.09c2.54,1.47,5.19,2.31,7.45,2.31s4.91-0.84,7.45-2.31v3.09L44.69,58.94z
			 M29.79,17.38c0-8.23,6.67-14.9,14.9-14.9s14.9,6.67,14.9,14.9v4.24c-2.63-0.86-4.88-2.59-6.41-4.89
			c-0.37-0.55-1.1-0.71-1.67-0.37c-0.09,0.06-9.19,5.47-21.71,5.82L29.79,17.38z M26.07,22.34h1.24v11.17h-1.24V22.34z M27.31,39.72
			V36h0.53c0.38,1.3,0.91,2.56,1.6,3.72H27.31z M34.52,42.2h5.41c0.53,1.49,1.93,2.48,3.51,2.48h2.48c2.06,0,3.72-1.67,3.72-3.72
			c0-2.06-1.67-3.72-3.72-3.72h-2.48c-1.58,0-2.98,1-3.51,2.48h-7.57c-2.18-3.05-2.58-5.84-2.58-7.45v-7.62
			c10.9-0.28,19.21-4.14,22-5.62c1.96,2.53,4.7,4.34,7.79,5.16v8.08c0,2.13-0.69,6.33-5.33,10.49c-2.99,2.68-6.74,4.41-9.57,4.41
			c-2.82,0-6.58-1.73-9.57-4.41C34.91,42.57,34.71,42.39,34.52,42.2z M42.2,40.96c0-0.69,0.56-1.24,1.24-1.24h2.48
			c0.69,0,1.24,0.56,1.24,1.24c0,0.69-0.56,1.24-1.24,1.24h-2.48C42.76,42.2,42.2,41.65,42.2,40.96z M35.58,52.3l7.11,8.13
			l-4.92,2.46l-5.12-9.74L35.58,52.3z M11.48,71.99l0.77-3.47v0l1.16-5.21h5.46l1.16,5.21v0l0.77,3.47H11.48z M22.24,67.03
			l-1.16-5.23c-0.13-0.57-0.63-0.97-1.21-0.97h-7.45c-0.58,0-1.09,0.4-1.21,0.97l-1.16,5.23H3.1c-0.34,0-0.62-0.28-0.62-0.62V47.79
			c0-0.34,0.28-0.62,0.62-0.62h26.07c0.34,0,0.62,0.28,0.62,0.62v18.62c0,0.34-0.28,0.62-0.62,0.62H22.24z M40.07,71.99H23.34
			l-0.55-2.48h6.38c1.71,0,3.1-1.39,3.1-3.1v-8.63l3.87,7.35c0.31,0.6,1.05,0.83,1.65,0.53l0.88-0.44l2.19,4.39L40.07,71.99z
			 M42.68,71.99l0.41-1.24h3.21l0.47,1.24H42.68z M46.4,68.27h-3.43l-2.08-4.16l3.77-1.88l3.83,1.87L46.4,68.27z M74.48,71.99h-6.21
			v-3.72c0-0.69-0.56-1.24-1.24-1.24c-0.69,0-1.24,0.56-1.24,1.24v3.72H49.42l-0.9-2.41l2.19-4.39l0.96,0.47
			c0.17,0.08,0.36,0.13,0.54,0.13c0.46,0,0.89-0.26,1.1-0.66l5.92-11.25l6.88,1.98c0.01,0,0.02,0,0.03,0.01
			c4.91,1.29,8.33,5.73,8.33,10.8V71.99z"/>
		<path class="st92" d="M2.48,71.99H1.24C0.56,71.99,0,72.55,0,73.23s0.56,1.24,1.24,1.24h1.24c0.69,0,1.24-0.56,1.24-1.24
			S3.17,71.99,2.48,71.99z"/>
	</g>
</g>
<g id="Layer_2">
</g>
</svg>
