<?xml version="1.0" encoding="utf-8"?>
<!-- Generator: Adobe Illustrator 24.1.1, SVG Export Plug-In . SVG Version: 6.00 Build 0)  -->
<svg version="1.1" xmlns="http://www.w3.org/2000/svg" xmlns:xlink="http://www.w3.org/1999/xlink" x="0px" y="0px"
	 viewBox="0 0 93.96 94.04" style="enable-background:new 0 0 93.96 94.04;" xml:space="preserve">
<style type="text/css">
	.st0{fill:#00A99D;}
	.st1{fill:url(#SVGID_1_);}
	.st2{fill:#C5B04C;}
	.st3{fill-rule:evenodd;clip-rule:evenodd;fill:#C5B04C;}
	.st4{filter:url(#Adobe_OpacityMaskFilter);}
	.st5{fill:url(#SVGID_3_);}
	.st6{mask:url(#SVGID_2_);fill-rule:evenodd;clip-rule:evenodd;fill:#C5B04C;}
	.st7{filter:url(#Adobe_OpacityMaskFilter_1_);}
	.st8{fill:url(#SVGID_5_);}
	.st9{mask:url(#SVGID_4_);fill-rule:evenodd;clip-rule:evenodd;fill:#F1E5A7;}
	.st10{filter:url(#Adobe_OpacityMaskFilter_2_);}
	.st11{fill:url(#SVGID_7_);}
	.st12{mask:url(#SVGID_6_);fill-rule:evenodd;clip-rule:evenodd;fill:#F1E5A7;}
	.st13{filter:url(#Adobe_OpacityMaskFilter_3_);}
	.st14{fill:url(#SVGID_9_);}
	.st15{mask:url(#SVGID_8_);fill-rule:evenodd;clip-rule:evenodd;fill:#F1E5A7;}
	.st16{filter:url(#Adobe_OpacityMaskFilter_4_);}
	.st17{fill:url(#SVGID_11_);}
	.st18{mask:url(#SVGID_10_);fill-rule:evenodd;clip-rule:evenodd;fill:#F1E5A7;}
	.st19{opacity:0.5;fill-rule:evenodd;clip-rule:evenodd;fill:#C5B04C;}
	.st20{filter:url(#Adobe_OpacityMaskFilter_5_);}
	.st21{fill:url(#SVGID_13_);}
	.st22{mask:url(#SVGID_12_);fill-rule:evenodd;clip-rule:evenodd;fill:#C5B04C;}
	.st23{filter:url(#Adobe_OpacityMaskFilter_6_);}
	.st24{fill:url(#SVGID_15_);}
	.st25{mask:url(#SVGID_14_);fill-rule:evenodd;clip-rule:evenodd;fill:#C5B04C;}
	.st26{filter:url(#Adobe_OpacityMaskFilter_7_);}
	.st27{fill:url(#SVGID_17_);}
	.st28{mask:url(#SVGID_16_);fill-rule:evenodd;clip-rule:evenodd;fill:#F1E5A7;}
	.st29{fill-rule:evenodd;clip-rule:evenodd;fill:#315B51;}
	.st30{filter:url(#Adobe_OpacityMaskFilter_8_);}
	.st31{fill:url(#SVGID_19_);}
	.st32{mask:url(#SVGID_18_);fill-rule:evenodd;clip-rule:evenodd;fill:#2BB595;}
	.st33{fill:#B0AFB0;}
	.st34{fill:#FFFFFF;}
	.st35{fill:none;stroke:#FFFFFF;stroke-width:0.25;stroke-miterlimit:10;}
	.st36{fill:#B3B2B3;}
	.st37{fill:#D39241;}
	.st38{fill:#315B51;}
	.st39{fill:#C8B34C;}
	.st40{fill:#2BB898;}
	.st41{fill:#385BA6;}
	.st42{fill:#515151;}
	.st43{fill:#F4E8AA;}
	.st44{fill:#FAC86E;}
	.st45{fill:#F4F4F4;}
	.st46{fill:#AD9944;}
	.st47{fill:none;stroke:#FFFFFF;stroke-width:0.5;stroke-miterlimit:10;}
	.st48{fill:none;stroke:#CACACA;stroke-width:0.5;stroke-miterlimit:10;}
	.st49{fill:none;stroke:#B3B3B3;stroke-width:0.5;stroke-miterlimit:10;}
	.st50{fill-rule:evenodd;clip-rule:evenodd;fill:none;stroke:#CACACA;stroke-width:0.5;stroke-miterlimit:10;}
	.st51{fill:#FAFAFA;}
	.st52{fill:#EDF1F4;stroke:#00A99D;stroke-miterlimit:10;}
	.st53{fill:#E1E1E1;}
	.st54{filter:url(#Adobe_OpacityMaskFilter_9_);}
	.st55{fill:url(#SVGID_21_);}
	.st56{mask:url(#SVGID_20_);fill-rule:evenodd;clip-rule:evenodd;fill:#C5B04C;}
	.st57{filter:url(#Adobe_OpacityMaskFilter_10_);}
	.st58{fill:url(#SVGID_23_);}
	.st59{mask:url(#SVGID_22_);fill-rule:evenodd;clip-rule:evenodd;fill:#F1E5A7;}
	.st60{filter:url(#Adobe_OpacityMaskFilter_11_);}
	.st61{fill:url(#SVGID_25_);}
	.st62{mask:url(#SVGID_24_);fill-rule:evenodd;clip-rule:evenodd;fill:#F1E5A7;}
	.st63{filter:url(#Adobe_OpacityMaskFilter_12_);}
	.st64{fill:url(#SVGID_27_);}
	.st65{mask:url(#SVGID_26_);fill-rule:evenodd;clip-rule:evenodd;fill:#F1E5A7;}
	.st66{filter:url(#Adobe_OpacityMaskFilter_13_);}
	.st67{fill:url(#SVGID_29_);}
	.st68{mask:url(#SVGID_28_);fill-rule:evenodd;clip-rule:evenodd;fill:#F1E5A7;}
	.st69{filter:url(#Adobe_OpacityMaskFilter_14_);}
	.st70{fill:url(#SVGID_31_);}
	.st71{mask:url(#SVGID_30_);fill-rule:evenodd;clip-rule:evenodd;fill:#C5B04C;}
	.st72{filter:url(#Adobe_OpacityMaskFilter_15_);}
	.st73{fill:url(#SVGID_33_);}
	.st74{mask:url(#SVGID_32_);fill-rule:evenodd;clip-rule:evenodd;fill:#C5B04C;}
	.st75{fill:none;stroke:#2BB898;stroke-width:1.16;stroke-linecap:round;stroke-linejoin:round;stroke-miterlimit:10;}
	.st76{fill-rule:evenodd;clip-rule:evenodd;fill:none;stroke:#C7C7C7;stroke-width:0.5;stroke-miterlimit:10;}
	.st77{fill-rule:evenodd;clip-rule:evenodd;fill:none;stroke:#C7C7C7;stroke-width:0.75;stroke-miterlimit:10;}
	.st78{fill:#2BB898;stroke:#2BB898;stroke-width:0.7684;stroke-miterlimit:10;}
	.st79{clip-path:url(#SVGID_35_);fill:#BCBCBC;}
	.st80{clip-path:url(#SVGID_35_);fill:#969696;}
	.st81{clip-path:url(#SVGID_35_);}
	.st82{fill:#969696;}
	.st83{fill:#BCBCBC;}
	.st84{fill:none;stroke:#C7C7C7;stroke-width:0.5;stroke-miterlimit:10;}
	.st85{clip-path:url(#SVGID_37_);}
	.st86{fill:#4D4D4D;}
	.st87{fill:#A6D0E4;}
	.st88{fill:url(#);}
	.st89{fill:#A0A0A0;}
	.st90{fill:#E7ECF2;stroke:#00A99D;stroke-miterlimit:10;}
	.st91{opacity:0.24;}
	.st92{fill:#B4E0E0;}
	.st93{fill:#52C5BD;}
	.st94{opacity:0.95;fill:#315B51;stroke:#00A99D;stroke-miterlimit:10;}
</style>
<g id="Layer_1">
	<g>
		<path class="st92" d="M44.23,67.86c-0.76,0-1.38,0.62-1.38,1.38c0,0.76,0.62,1.38,1.38,1.38h5.51c0.76,0,1.38-0.62,1.38-1.38
			c0-0.76-0.62-1.38-1.38-1.38H44.23z"/>
		<path class="st92" d="M90.36,15.39H78.47V2.87c0-1.58-1.29-2.87-2.87-2.87H18.37c-1.58,0-2.87,1.29-2.87,2.87v12.52H3.61
			C1.62,15.39,0,17.01,0,19v53.33c0,1.99,1.62,3.61,3.61,3.61h29.63v4.59c0,0.01,0,0.02,0,0.02c0.08,4.55-2,9.07-2.86,10.74h-4.37
			c-0.76,0-1.38,0.62-1.38,1.38c0,0.76,0.62,1.38,1.38,1.38h41.95c0.76,0,1.38-0.62,1.38-1.38c0-0.76-0.62-1.38-1.38-1.38h-4.38
			c-0.86-1.66-2.93-6.16-2.86-10.74c0-0.01,0-0.02,0-0.02v-4.59h10.71c0.76,0,1.38-0.62,1.38-1.38s-0.62-1.38-1.38-1.38H3.61
			c-0.47,0-0.85-0.38-0.85-0.85v-7.04h88.45v7.04c0,0.47-0.38,0.85-0.85,0.85H77.86c-0.76,0-1.38,0.62-1.38,1.38
			s0.62,1.38,1.38,1.38h12.49c1.99,0,3.61-1.62,3.61-3.61V19C93.96,17.01,92.35,15.39,90.36,15.39L90.36,15.39z M35.99,80.52v-4.58
			h21.97v4.58c-0.07,4.28,1.46,8.39,2.55,10.77H33.45C34.54,88.91,36.06,84.8,35.99,80.52z M7.1,25.38v37.16H2.75V19
			c0-0.47,0.38-0.85,0.85-0.85H15.5v3.8h-5.07C8.59,21.95,7.1,23.49,7.1,25.38z M75.71,62.54H18.25V51.83
			c0-0.76-0.62-1.38-1.38-1.38c-0.76,0-1.38,0.62-1.38,1.38v10.71H9.85V25.38c0-0.37,0.26-0.67,0.57-0.67h5.07V45.4
			c0,0.76,0.62,1.38,1.38,1.38c0.76,0,1.38-0.62,1.38-1.38V2.87c0-0.07,0.05-0.12,0.12-0.12h57.22c0.07,0,0.12,0.05,0.12,0.12
			L75.71,62.54L75.71,62.54z M84.11,62.54h-5.64V24.71h5.07c0.32,0,0.57,0.3,0.57,0.67V62.54z M91.21,62.54h-4.34V25.38
			c0-1.89-1.49-3.42-3.33-3.42h-5.07v-3.8h11.89c0.47,0,0.85,0.38,0.85,0.85V62.54z"/>
		<path class="st92" d="M27.39,35.63c1.75,1.12,3.71,1.68,5.85,1.69c1.81,0,3.52-0.4,5.08-1.18c3.85-1.94,5.97-5.18,5.97-9.13V14.43
			c0-2.53-2.06-4.59-4.59-4.59c-2.53,0-4.59,2.06-4.59,4.59v12.58c0,0.22,0,0.47-0.92,0.93c-0.27,0.14-0.57,0.2-0.95,0.2
			c-0.37,0-0.65-0.08-0.91-0.24c-0.75-0.48-0.75-0.63-0.75-0.88V14.43c0-2.53-2.06-4.59-4.59-4.59s-4.59,2.06-4.59,4.59v12.59
			C22.4,30.57,24.12,33.54,27.39,35.63L27.39,35.63z M25.15,14.43c0-1.01,0.82-1.83,1.83-1.83s1.83,0.82,1.83,1.83v12.59
			c0,1.35,0.59,2.28,2.02,3.2c0.7,0.45,1.5,0.68,2.4,0.68c0.81,0,1.53-0.16,2.19-0.5c2.19-1.1,2.44-2.46,2.44-3.39V14.43
			c0-1.01,0.82-1.83,1.83-1.83s1.83,0.82,1.83,1.83v12.58c0,2.89-1.54,5.2-4.46,6.67c-1.17,0.59-2.46,0.89-3.85,0.89
			c-1.59,0-3.06-0.42-4.36-1.25c-2.5-1.6-3.72-3.65-3.72-6.29L25.15,14.43L25.15,14.43z"/>
		<path class="st92" d="M70.63,30.08l-5.44-7.16l4.42-5.86c0.74-0.98,1.05-2.19,0.88-3.4c-0.17-1.21-0.8-2.29-1.78-3.03
			c-0.98-0.74-2.19-1.05-3.4-0.88c-1.21,0.17-2.29,0.8-3.03,1.78l-2.86,3.79l-2.88-3.8c-1.53-2.01-4.41-2.41-6.43-0.88
			c-2.01,1.53-2.41,4.41-0.88,6.43l4.45,5.86l-5.15,6.83c-0.74,0.98-1.05,2.19-0.88,3.4s0.8,2.29,1.78,3.03
			c0.8,0.61,1.76,0.92,2.76,0.92c1.45,0,2.79-0.67,3.67-1.83l3.59-4.76l3.87,5.1c0.88,1.15,2.21,1.81,3.66,1.81
			c1.01,0,1.97-0.32,2.77-0.93c0.98-0.74,1.61-1.82,1.77-3.03C71.69,32.27,71.37,31.06,70.63,30.08L70.63,30.08z M68.09,34.32
			c-0.32,0.24-0.7,0.37-1.11,0.37c-0.58,0-1.11-0.26-1.46-0.73l-4.97-6.55c-0.26-0.34-0.67-0.54-1.1-0.54c0,0,0,0,0,0
			c-0.43,0-0.84,0.2-1.1,0.55l-4.69,6.21c-0.35,0.46-0.88,0.73-1.47,0.73c-0.4,0-0.78-0.13-1.1-0.37c-0.39-0.29-0.64-0.72-0.71-1.21
			c-0.07-0.48,0.06-0.97,0.35-1.36l5.78-7.66c0.37-0.49,0.37-1.17,0-1.66l-5.08-6.69c-0.61-0.81-0.45-1.96,0.35-2.57
			c0.81-0.61,1.96-0.45,2.57,0.35l3.98,5.25c0.26,0.34,0.67,0.54,1.1,0.54h0c0.43,0,0.84-0.2,1.1-0.55l3.95-5.24
			c0.29-0.39,0.72-0.64,1.21-0.71c0.48-0.07,0.97,0.06,1.36,0.35c0.39,0.29,0.64,0.72,0.71,1.21c0.07,0.48-0.06,0.97-0.35,1.36
			l-5.04,6.69c-0.37,0.49-0.37,1.17,0,1.66l6.07,7.99C69.05,32.55,68.89,33.71,68.09,34.32L68.09,34.32z"/>
		<path class="st92" d="M70.19,41.64H23.78c-0.76,0-1.38,0.62-1.38,1.38c0,0.76,0.62,1.38,1.38,1.38h46.41
			c0.76,0,1.38-0.62,1.38-1.38C71.57,42.26,70.95,41.64,70.19,41.64z"/>
		<path class="st92" d="M70.19,47.24H23.78c-0.76,0-1.38,0.62-1.38,1.38c0,0.76,0.62,1.38,1.38,1.38h46.41
			c0.76,0,1.38-0.62,1.38-1.38C71.57,47.85,70.95,47.24,70.19,47.24z"/>
		<path class="st92" d="M70.19,52.83H23.78c-0.76,0-1.38,0.62-1.38,1.38c0,0.76,0.62,1.38,1.38,1.38h46.41
			c0.76,0,1.38-0.62,1.38-1.38C71.57,53.44,70.95,52.83,70.19,52.83z"/>
	</g>
</g>
<g id="Layer_2">
</g>
</svg>
