<?xml version="1.0" encoding="utf-8"?>
<!-- Generator: Adobe Illustrator 24.1.1, SVG Export Plug-In . SVG Version: 6.00 Build 0)  -->
<svg version="1.1" id="Layer_1" xmlns="http://www.w3.org/2000/svg" xmlns:xlink="http://www.w3.org/1999/xlink" x="0px" y="0px"
	 viewBox="0 0 133.87 51.6" style="enable-background:new 0 0 133.87 51.6;" xml:space="preserve">
<style type="text/css">
	.st0{fill:#FFFFFF;}
</style>
<path class="st0" d="M36.4,19.05c0.31,0.61,0.47,1.29,0.47,2.03c0,0.59-0.12,1.13-0.35,1.65c-0.23,0.51-0.54,0.97-0.94,1.35
	c-0.4,0.39-0.85,0.7-1.36,0.93c-0.53,0.25-1.08,0.36-1.67,0.36h-5.79V22.7h5.79c0.46,0,0.86-0.16,1.2-0.48
	c0.34-0.32,0.5-0.7,0.5-1.14c0-0.32-0.07-0.61-0.2-0.86c-0.13-0.26-0.32-0.46-0.54-0.6l-4.73-3.27l1.38-2.15
	c0.05,0.03,0.21,0.14,0.45,0.31c0.25,0.16,0.53,0.36,0.86,0.59c0.33,0.22,0.69,0.46,1.08,0.72c0.39,0.26,0.75,0.5,1.1,0.74
	s0.64,0.45,0.9,0.62c0.26,0.17,0.43,0.31,0.52,0.37C35.64,17.94,36.08,18.44,36.4,19.05z M1.37,12.52h33.61
	c0.76,0,1.37-0.61,1.37-1.37s-0.61-1.37-1.37-1.37H1.37C0.61,9.77,0,10.39,0,11.15S0.61,12.52,1.37,12.52z M8.82,36.59H6.37v2.5
	h2.44V36.59z M11.95,43.57c0,0.58-0.12,1.13-0.35,1.66c-0.23,0.52-0.53,0.97-0.93,1.35c-0.38,0.38-0.84,0.69-1.36,0.9
	s-1.09,0.33-1.69,0.33c-0.59,0-1.13-0.12-1.65-0.35c-0.51-0.23-0.96-0.53-1.34-0.92c-0.38-0.38-0.69-0.83-0.92-1.34
	c-0.23-0.51-0.35-1.06-0.35-1.65v-4.12H0.72v4.12c0,0.94,0.19,1.83,0.54,2.67c0.36,0.84,0.85,1.57,1.47,2.2
	c0.62,0.62,1.35,1.12,2.19,1.48s1.73,0.54,2.69,0.54c0.96,0,1.85-0.17,2.7-0.54c0.84-0.35,1.57-0.84,2.2-1.47
	c0.62-0.62,1.11-1.36,1.47-2.2c0.36-0.84,0.53-1.73,0.53-2.69v-6.95h-2.57V43.57z M40.11,24.08c0.39,0.38,0.85,0.7,1.38,0.93
	c0.53,0.23,1.1,0.35,1.7,0.35h1.3H55.8c0.62,0,1.19-0.11,1.7-0.34c0.51-0.23,0.96-0.53,1.35-0.93c0.39-0.39,0.69-0.85,0.9-1.38
	c0.21-0.53,0.32-1.1,0.32-1.7c0-1.38-0.35-2.47-1.05-3.27c-0.7-0.8-1.71-1.32-3.04-1.57c-1.13-0.21-2.24-0.41-3.35-0.62
	c-1.09-0.21-2.16-0.4-3.18-0.6l3.29-2.84l-1.57-1.7l-5.34,4.22v2.26c1.61,0.31,3.21,0.61,4.81,0.9c1.59,0.29,3.19,0.61,4.81,0.93
	c0.2,0.03,0.41,0.09,0.65,0.19s0.46,0.23,0.66,0.4c0.21,0.17,0.38,0.4,0.52,0.68c0.13,0.27,0.21,0.62,0.21,1.02
	c0,0.47-0.16,0.86-0.49,1.2c-0.33,0.34-0.73,0.5-1.21,0.5H44.49h-1.3c-0.5,0-0.92-0.16-1.25-0.49c-0.34-0.33-0.5-0.72-0.5-1.18V9.7
	h-2.6V21c0,0.6,0.12,1.17,0.35,1.7C39.41,23.23,39.72,23.69,40.11,24.08z M65.28,11.82h-2.66v13.53h2.66V11.82z M23.49,29.19
	c0,0.76,0.61,1.37,1.37,1.37h39.04c0.76,0,1.37-0.61,1.37-1.37s-0.61-1.37-1.37-1.37H24.87C24.11,27.82,23.49,28.44,23.49,29.19z
	 M63.91,47.28h-23.7c-0.76,0-1.37,0.61-1.37,1.37s0.61,1.37,1.37,1.37h23.7c0.76,0,1.37-0.61,1.37-1.37S64.67,47.28,63.91,47.28z
	 M58.75,8.35c-0.58,0.47-1.05,1.06-1.41,1.74l-0.13,0.26l2.09,0.8c0.25-0.48,0.52-0.82,0.82-1c0.29-0.2,0.7-0.29,1.23-0.29h4.14
	V7.62l-4.7,0.02C60.01,7.64,59.33,7.88,58.75,8.35z M62.64,32.96h2.66v10.56h-0.01h-3.77c-1.19,0-2.19-0.41-3.03-1.25
	c-0.8,0.83-1.82,1.25-3.05,1.25c-0.57,0-1.11-0.11-1.63-0.33c-0.52-0.22-0.99-0.53-1.39-0.95c-0.85,0.85-1.87,1.27-3.08,1.27h-1.93
	c-0.03,0-0.04,0.01-0.07,0.01h-9.15c-0.11,1.84-0.81,3.32-2.09,4.44c-0.26,0.23-0.57,0.44-0.89,0.61c-0.33,0.17-0.66,0.34-1.01,0.48
	c-0.35,0.14-0.7,0.26-1.05,0.37c-0.36,0.11-0.69,0.21-0.98,0.29c-0.09,0.03-0.19,0.07-0.28,0.08c-0.1,0.02-0.19,0.04-0.28,0.08
	l-0.5,0.16l-0.72-2.29l0.5-0.19c0.09-0.03,0.19-0.07,0.29-0.11c0.11-0.03,0.21-0.08,0.32-0.11c0.49-0.17,1-0.36,1.53-0.56
	c0.52-0.2,0.96-0.45,1.32-0.74c0.4-0.32,0.69-0.66,0.84-1.04c0.14-0.37,0.25-0.68,0.31-0.9c0.02-0.09,0.03-0.16,0.05-0.24
	c0-0.05,0-0.12,0.01-0.19s0.01-0.12,0.01-0.16h-2.12c-0.65,0-1.28-0.12-1.84-0.37c-0.58-0.25-1.08-0.59-1.5-1.02
	c-0.43-0.44-0.76-0.94-1.01-1.51c-0.25-0.58-0.37-1.19-0.37-1.84c0-0.63,0.12-1.25,0.37-1.83c0.25-0.59,0.59-1.1,1.01-1.54
	c0.42-0.45,0.93-0.8,1.5-1.05c0.58-0.26,1.19-0.38,1.84-0.38c0.68,0,1.3,0.12,1.87,0.37c0.58,0.25,1.08,0.59,1.5,1.04
	c0.43,0.45,0.76,0.95,1.01,1.53c0.25,0.58,0.37,1.2,0.37,1.87v2.09h9.03c0.03,0,0.04-0.01,0.07-0.01h2.05
	c0.51,0,0.94-0.16,1.26-0.49s0.49-0.73,0.49-1.21v-3.72h2.66v4.03c0,0.32,0.07,0.57,0.2,0.74c0.13,0.17,0.29,0.32,0.48,0.41
	c0.19,0.1,0.38,0.16,0.59,0.19s0.37,0.04,0.49,0.04c0.48,0,0.87-0.16,1.2-0.49c0.32-0.33,0.49-0.74,0.53-1.23v-4.75h2.57l0.02,4.97
	c0,0.46,0.13,0.83,0.4,1.1c0.26,0.27,0.63,0.41,1.09,0.41h1.33V32.96z M35.56,38.77c0-0.59-0.21-1.09-0.63-1.51
	c-0.43-0.42-0.93-0.63-1.51-0.63c-0.28,0-0.56,0.05-0.81,0.17c-0.26,0.12-0.48,0.27-0.68,0.47c-0.2,0.2-0.35,0.42-0.47,0.68
	c-0.12,0.26-0.17,0.53-0.17,0.84c0,0.59,0.21,1.08,0.62,1.48s0.92,0.61,1.5,0.61h2.15V38.77z M133.84,6.05v35.96
	c0,5.21-4.22,9.45-9.45,9.46H80.81h-0.54c-5.55-0.01-10.05-4.51-10.05-10.06V10.25l-7.31-7.37c-0.31-0.31-0.48-0.72-0.48-1.14
	c0-0.89,0.71-1.62,1.61-1.62h63.87C131.19,0.13,133.83,2.78,133.84,6.05z M87.43,41.38V3.02H67.14l5.99,6.03v32.35l0.01-0.03
	c0.01,3.95,3.2,7.14,7.15,7.15h0.35c0.98-0.05,1.95-0.31,2.84-0.75C85.91,46.55,87.42,44.08,87.43,41.38z M130.96,41.98l-0.02-35.93
	c0-1.67-1.36-3.03-3.03-3.03H90.34v19h11.82c0.7,0,1.27,0.77,1.27,1.75c0,0.97-0.56,1.75-1.27,1.75H90.34v5.28h18.36
	c0.07,0,0.15,0,0.22,0c0.96,0.06,1.69,0.89,1.63,1.85c-0.06,0.96-0.89,1.69-1.85,1.63H90.45h-0.12v5.53h25.86
	c0.97,0,1.75,0.77,1.75,1.75s-0.78,1.75-1.75,1.75H90.18c-0.4,1.98-1.38,3.81-2.84,5.23h37.06
	C128.03,48.53,130.96,45.6,130.96,41.98z M23.62,43.31c0,1.16-0.39,2.06-1.17,2.71c-0.38,0.34-0.84,0.62-1.36,0.85
	s-1.06,0.46-1.6,0.69l-0.45,0.16l0.66,2.29l0.48-0.19c0.88-0.27,1.69-0.57,2.42-0.9c0.73-0.33,1.35-0.75,1.87-1.24
	c0.52-0.49,0.95-1.09,1.25-1.79c0.31-0.7,0.49-1.55,0.54-2.56v-8.95h-2.66V43.31z M18.76,24.1c-0.56-0.24-1.07-0.58-1.53-1.02
	c-0.43,0.45-0.9,0.78-1.44,1.02c-0.53,0.24-1.1,0.36-1.7,0.36H4.3c-0.46,0-0.86,0.16-1.2,0.49c-0.34,0.33-0.5,0.73-0.5,1.21
	c0,0.46,0.16,0.86,0.5,1.2c0.34,0.34,0.73,0.5,1.2,0.5H14.4v2.66h-0.01H4.29c-0.59,0-1.13-0.12-1.66-0.35
	c-0.52-0.23-0.98-0.54-1.36-0.94c-0.39-0.4-0.7-0.86-0.93-1.39C0.12,27.31,0,26.75,0,26.16c0-0.6,0.11-1.17,0.33-1.69
	s0.52-0.98,0.92-1.38c0.39-0.4,0.85-0.71,1.36-0.95c0.52-0.23,1.08-0.35,1.69-0.35h9.8c0.4,0,0.8-0.15,1.16-0.47
	c0.36-0.31,0.54-0.72,0.54-1.23v-2.52h-1.41v-2.6h6.14c0.68,0,1.3,0.12,1.87,0.37c0.58,0.25,1.08,0.59,1.5,1.01s0.76,0.93,1.01,1.5
	c0.25,0.58,0.37,1.2,0.37,1.87c0,0.65-0.12,1.27-0.37,1.84c-0.25,0.58-0.59,1.08-1.02,1.5c-0.44,0.42-0.94,0.76-1.51,1.01
	c-0.58,0.25-1.19,0.37-1.84,0.37C19.91,24.46,19.32,24.34,18.76,24.1z M18.55,20.55c0.12,0.26,0.27,0.48,0.48,0.68
	s0.44,0.35,0.69,0.47c0.26,0.12,0.52,0.17,0.81,0.17c0.31,0,0.58-0.05,0.84-0.17c0.26-0.12,0.48-0.27,0.68-0.47s0.35-0.42,0.47-0.68
	c0.12-0.26,0.17-0.52,0.17-0.81c0-0.6-0.21-1.11-0.62-1.53c-0.41-0.41-0.93-0.62-1.53-0.62h-2.16v2.15
	C18.37,20.03,18.43,20.3,18.55,20.55z M20.38,27.82h-2.66v15.7h2.66V27.82z"/>
</svg>
