<?xml version="1.0" encoding="utf-8"?>
<!-- Generator: Adobe Illustrator 24.1.1, SVG Export Plug-In . SVG Version: 6.00 Build 0)  -->
<svg version="1.1" id="Layer_1" xmlns="http://www.w3.org/2000/svg" xmlns:xlink="http://www.w3.org/1999/xlink" x="0px" y="0px"
	 viewBox="0 0 91.34 228.81" style="enable-background:new 0 0 91.34 228.81;" xml:space="preserve">
<style type="text/css">
	.st0{fill:#42BCB3;}
</style>
<path class="st0" d="M91.22,228.68H0.26v-0.46h90.5V0.59H0.26V0.13h90.95V228.68z M73.34,22.44v-3.01c0-0.72,0.59-1.31,1.31-1.31
	h4.7c0.72,0,1.31-0.59,1.31-1.31v-4.7c0-0.72-0.59-1.31-1.31-1.31h-4.7c-0.72,0-1.31,0.59-1.31,1.31v4.7c0,0.72-0.59,1.31-1.31,1.31
	h-3.01c-0.72,0-1.31,0.59-1.31,1.31v3.01c0,0.72,0.59,1.31,1.31,1.31h3.01C72.75,23.75,73.34,23.16,73.34,22.44z M52.32,22.44v-3.01
	c0-0.72,0.59-1.31,1.31-1.31h4.7c0.72,0,1.31-0.59,1.31-1.31v-4.7c0-0.72-0.59-1.31-1.31-1.31h-4.7c-0.72,0-1.31,0.59-1.31,1.31v4.7
	c0,0.72-0.59,1.31-1.31,1.31H48c-0.72,0-1.31,0.59-1.31,1.31v3.01c0,0.72,0.59,1.31,1.31,1.31h3.01
	C51.73,23.75,52.32,23.16,52.32,22.44z M31.3,22.44v-3.01c0-0.72,0.59-1.31,1.31-1.31h4.7c0.72,0,1.31-0.59,1.31-1.31v-4.7
	c0-0.72-0.59-1.31-1.31-1.31h-4.7c-0.72,0-1.31,0.59-1.31,1.31v4.7c0,0.72-0.59,1.31-1.31,1.31h-3.01c-0.72,0-1.31,0.59-1.31,1.31
	v3.01c0,0.72,0.59,1.31,1.31,1.31h3.01C30.71,23.75,31.3,23.16,31.3,22.44z M10.28,22.44v-3.01c0-0.72,0.59-1.31,1.31-1.31h4.7
	c0.72,0,1.31-0.59,1.31-1.31v-4.7c0-0.72-0.59-1.31-1.31-1.31h-4.7c-0.72,0-1.31,0.59-1.31,1.31v4.7c0,0.72-0.59,1.31-1.31,1.31
	H5.96c-0.72,0-1.31,0.59-1.31,1.31v3.01c0,0.72,0.59,1.31,1.31,1.31h3.01C9.69,23.75,10.28,23.16,10.28,22.44z M73.34,44.05v-3.01
	c0-0.72,0.59-1.31,1.31-1.31h4.7c0.72,0,1.31-0.59,1.31-1.31v-4.7c0-0.72-0.59-1.31-1.31-1.31h-4.7c-0.72,0-1.31,0.59-1.31,1.31v4.7
	c0,0.72-0.59,1.31-1.31,1.31h-3.01c-0.72,0-1.31,0.59-1.31,1.31v3.01c0,0.72,0.59,1.31,1.31,1.31h3.01
	C72.75,45.36,73.34,44.77,73.34,44.05z M52.32,44.05v-3.01c0-0.72,0.59-1.31,1.31-1.31h4.7c0.72,0,1.31-0.59,1.31-1.31v-4.7
	c0-0.72-0.59-1.31-1.31-1.31h-4.7c-0.72,0-1.31,0.59-1.31,1.31v4.7c0,0.72-0.59,1.31-1.31,1.31H48c-0.72,0-1.31,0.59-1.31,1.31v3.01
	c0,0.72,0.59,1.31,1.31,1.31h3.01C51.73,45.36,52.32,44.77,52.32,44.05z M31.3,44.05v-3.01c0-0.72,0.59-1.31,1.31-1.31h4.7
	c0.72,0,1.31-0.59,1.31-1.31v-4.7c0-0.72-0.59-1.31-1.31-1.31h-4.7c-0.72,0-1.31,0.59-1.31,1.31v4.7c0,0.72-0.59,1.31-1.31,1.31
	h-3.01c-0.72,0-1.31,0.59-1.31,1.31v3.01c0,0.72,0.59,1.31,1.31,1.31h3.01C30.71,45.36,31.3,44.77,31.3,44.05z M10.28,44.05v-3.01
	c0-0.72,0.59-1.31,1.31-1.31h4.7c0.72,0,1.31-0.59,1.31-1.31v-4.7c0-0.72-0.59-1.31-1.31-1.31h-4.7c-0.72,0-1.31,0.59-1.31,1.31v4.7
	c0,0.72-0.59,1.31-1.31,1.31H5.96c-0.72,0-1.31,0.59-1.31,1.31v3.01c0,0.72,0.59,1.31,1.31,1.31h3.01
	C9.69,45.36,10.28,44.77,10.28,44.05z M73.34,65.67v-3.01c0-0.72,0.59-1.31,1.31-1.31h4.7c0.72,0,1.31-0.59,1.31-1.31v-4.7
	c0-0.72-0.59-1.31-1.31-1.31h-4.7c-0.72,0-1.31,0.59-1.31,1.31v4.7c0,0.72-0.59,1.31-1.31,1.31h-3.01c-0.72,0-1.31,0.59-1.31,1.31
	v3.01c0,0.72,0.59,1.31,1.31,1.31h3.01C72.75,66.98,73.34,66.39,73.34,65.67z M52.32,65.67v-3.01c0-0.72,0.59-1.31,1.31-1.31h4.7
	c0.72,0,1.31-0.59,1.31-1.31v-4.7c0-0.72-0.59-1.31-1.31-1.31h-4.7c-0.72,0-1.31,0.59-1.31,1.31v4.7c0,0.72-0.59,1.31-1.31,1.31H48
	c-0.72,0-1.31,0.59-1.31,1.31v3.01c0,0.72,0.59,1.31,1.31,1.31h3.01C51.73,66.98,52.32,66.39,52.32,65.67z M31.3,65.67v-3.01
	c0-0.72,0.59-1.31,1.31-1.31h4.7c0.72,0,1.31-0.59,1.31-1.31v-4.7c0-0.72-0.59-1.31-1.31-1.31h-4.7c-0.72,0-1.31,0.59-1.31,1.31v4.7
	c0,0.72-0.59,1.31-1.31,1.31h-3.01c-0.72,0-1.31,0.59-1.31,1.31v3.01c0,0.72,0.59,1.31,1.31,1.31h3.01
	C30.71,66.98,31.3,66.39,31.3,65.67z M10.28,65.67v-3.01c0-0.72,0.59-1.31,1.31-1.31h4.7c0.72,0,1.31-0.59,1.31-1.31v-4.7
	c0-0.72-0.59-1.31-1.31-1.31h-4.7c-0.72,0-1.31,0.59-1.31,1.31v4.7c0,0.72-0.59,1.31-1.31,1.31H5.96c-0.72,0-1.31,0.59-1.31,1.31
	v3.01c0,0.72,0.59,1.31,1.31,1.31h3.01C9.69,66.98,10.28,66.39,10.28,65.67z M73.34,87.28v-3.01c0-0.72,0.59-1.31,1.31-1.31h4.7
	c0.72,0,1.31-0.59,1.31-1.31v-4.7c0-0.72-0.59-1.31-1.31-1.31h-4.7c-0.72,0-1.31,0.59-1.31,1.31v4.7c0,0.72-0.59,1.31-1.31,1.31
	h-3.01c-0.72,0-1.31,0.59-1.31,1.31v3.01c0,0.72,0.59,1.31,1.31,1.31h3.01C72.75,88.59,73.34,88,73.34,87.28z M52.32,87.28v-3.01
	c0-0.72,0.59-1.31,1.31-1.31h4.7c0.72,0,1.31-0.59,1.31-1.31v-4.7c0-0.72-0.59-1.31-1.31-1.31h-4.7c-0.72,0-1.31,0.59-1.31,1.31v4.7
	c0,0.72-0.59,1.31-1.31,1.31H48c-0.72,0-1.31,0.59-1.31,1.31v3.01c0,0.72,0.59,1.31,1.31,1.31h3.01
	C51.73,88.59,52.32,88,52.32,87.28z M31.3,87.28v-3.01c0-0.72,0.59-1.31,1.31-1.31h4.7c0.72,0,1.31-0.59,1.31-1.31v-4.7
	c0-0.72-0.59-1.31-1.31-1.31h-4.7c-0.72,0-1.31,0.59-1.31,1.31v4.7c0,0.72-0.59,1.31-1.31,1.31h-3.01c-0.72,0-1.31,0.59-1.31,1.31
	v3.01c0,0.72,0.59,1.31,1.31,1.31h3.01C30.71,88.59,31.3,88,31.3,87.28z M10.28,87.28v-3.01c0-0.72,0.59-1.31,1.31-1.31h4.7
	c0.72,0,1.31-0.59,1.31-1.31v-4.7c0-0.72-0.59-1.31-1.31-1.31h-4.7c-0.72,0-1.31,0.59-1.31,1.31v4.7c0,0.72-0.59,1.31-1.31,1.31
	H5.96c-0.72,0-1.31,0.59-1.31,1.31v3.01c0,0.72,0.59,1.31,1.31,1.31h3.01C9.69,88.59,10.28,88,10.28,87.28z M73.34,108.9v-3.01
	c0-0.72,0.59-1.31,1.31-1.31h4.7c0.72,0,1.31-0.59,1.31-1.31v-4.7c0-0.72-0.59-1.31-1.31-1.31h-4.7c-0.72,0-1.31,0.59-1.31,1.31v4.7
	c0,0.72-0.59,1.31-1.31,1.31h-3.01c-0.72,0-1.31,0.59-1.31,1.31v3.01c0,0.72,0.59,1.31,1.31,1.31h3.01
	C72.75,110.21,73.34,109.62,73.34,108.9z M52.32,108.9v-3.01c0-0.72,0.59-1.31,1.31-1.31h4.7c0.72,0,1.31-0.59,1.31-1.31v-4.7
	c0-0.72-0.59-1.31-1.31-1.31h-4.7c-0.72,0-1.31,0.59-1.31,1.31v4.7c0,0.72-0.59,1.31-1.31,1.31H48c-0.72,0-1.31,0.59-1.31,1.31v3.01
	c0,0.72,0.59,1.31,1.31,1.31h3.01C51.73,110.21,52.32,109.62,52.32,108.9z M31.3,108.9v-3.01c0-0.72,0.59-1.31,1.31-1.31h4.7
	c0.72,0,1.31-0.59,1.31-1.31v-4.7c0-0.72-0.59-1.31-1.31-1.31h-4.7c-0.72,0-1.31,0.59-1.31,1.31v4.7c0,0.72-0.59,1.31-1.31,1.31
	h-3.01c-0.72,0-1.31,0.59-1.31,1.31v3.01c0,0.72,0.59,1.31,1.31,1.31h3.01C30.71,110.21,31.3,109.62,31.3,108.9z M10.28,108.9v-3.01
	c0-0.72,0.59-1.31,1.31-1.31h4.7c0.72,0,1.31-0.59,1.31-1.31v-4.7c0-0.72-0.59-1.31-1.31-1.31h-4.7c-0.72,0-1.31,0.59-1.31,1.31v4.7
	c0,0.72-0.59,1.31-1.31,1.31H5.96c-0.72,0-1.31,0.59-1.31,1.31v3.01c0,0.72,0.59,1.31,1.31,1.31h3.01
	C9.69,110.21,10.28,109.62,10.28,108.9z M73.34,130.51v-3.01c0-0.72,0.59-1.31,1.31-1.31h4.7c0.72,0,1.31-0.59,1.31-1.31v-4.7
	c0-0.72-0.59-1.31-1.31-1.31h-4.7c-0.72,0-1.31,0.59-1.31,1.31v4.7c0,0.72-0.59,1.31-1.31,1.31h-3.01c-0.72,0-1.31,0.59-1.31,1.31
	v3.01c0,0.72,0.59,1.31,1.31,1.31h3.01C72.75,131.82,73.34,131.24,73.34,130.51z M52.32,130.51v-3.01c0-0.72,0.59-1.31,1.31-1.31
	h4.7c0.72,0,1.31-0.59,1.31-1.31v-4.7c0-0.72-0.59-1.31-1.31-1.31h-4.7c-0.72,0-1.31,0.59-1.31,1.31v4.7c0,0.72-0.59,1.31-1.31,1.31
	H48c-0.72,0-1.31,0.59-1.31,1.31v3.01c0,0.72,0.59,1.31,1.31,1.31h3.01C51.73,131.82,52.32,131.24,52.32,130.51z M31.3,130.51v-3.01
	c0-0.72,0.59-1.31,1.31-1.31h4.7c0.72,0,1.31-0.59,1.31-1.31v-4.7c0-0.72-0.59-1.31-1.31-1.31h-4.7c-0.72,0-1.31,0.59-1.31,1.31v4.7
	c0,0.72-0.59,1.31-1.31,1.31h-3.01c-0.72,0-1.31,0.59-1.31,1.31v3.01c0,0.72,0.59,1.31,1.31,1.31h3.01
	C30.71,131.82,31.3,131.24,31.3,130.51z M10.28,130.51v-3.01c0-0.72,0.59-1.31,1.31-1.31h4.7c0.72,0,1.31-0.59,1.31-1.31v-4.7
	c0-0.72-0.59-1.31-1.31-1.31h-4.7c-0.72,0-1.31,0.59-1.31,1.31v4.7c0,0.72-0.59,1.31-1.31,1.31H5.96c-0.72,0-1.31,0.59-1.31,1.31
	v3.01c0,0.72,0.59,1.31,1.31,1.31h3.01C9.69,131.82,10.28,131.24,10.28,130.51z M73.34,152.13v-3.01c0-0.72,0.59-1.31,1.31-1.31h4.7
	c0.72,0,1.31-0.59,1.31-1.31v-4.7c0-0.72-0.59-1.31-1.31-1.31h-4.7c-0.72,0-1.31,0.59-1.31,1.31v4.7c0,0.72-0.59,1.31-1.31,1.31
	h-3.01c-0.72,0-1.31,0.59-1.31,1.31v3.01c0,0.72,0.59,1.31,1.31,1.31h3.01C72.75,153.44,73.34,152.85,73.34,152.13z M52.32,152.13
	v-3.01c0-0.72,0.59-1.31,1.31-1.31h4.7c0.72,0,1.31-0.59,1.31-1.31v-4.7c0-0.72-0.59-1.31-1.31-1.31h-4.7
	c-0.72,0-1.31,0.59-1.31,1.31v4.7c0,0.72-0.59,1.31-1.31,1.31H48c-0.72,0-1.31,0.59-1.31,1.31v3.01c0,0.72,0.59,1.31,1.31,1.31h3.01
	C51.73,153.44,52.32,152.85,52.32,152.13z M31.3,152.13v-3.01c0-0.72,0.59-1.31,1.31-1.31h4.7c0.72,0,1.31-0.59,1.31-1.31v-4.7
	c0-0.72-0.59-1.31-1.31-1.31h-4.7c-0.72,0-1.31,0.59-1.31,1.31v4.7c0,0.72-0.59,1.31-1.31,1.31h-3.01c-0.72,0-1.31,0.59-1.31,1.31
	v3.01c0,0.72,0.59,1.31,1.31,1.31h3.01C30.71,153.44,31.3,152.85,31.3,152.13z M10.28,152.13v-3.01c0-0.72,0.59-1.31,1.31-1.31h4.7
	c0.72,0,1.31-0.59,1.31-1.31v-4.7c0-0.72-0.59-1.31-1.31-1.31h-4.7c-0.72,0-1.31,0.59-1.31,1.31v4.7c0,0.72-0.59,1.31-1.31,1.31
	H5.96c-0.72,0-1.31,0.59-1.31,1.31v3.01c0,0.72,0.59,1.31,1.31,1.31h3.01C9.69,153.44,10.28,152.85,10.28,152.13z M73.34,173.74
	v-3.01c0-0.72,0.59-1.31,1.31-1.31h4.7c0.72,0,1.31-0.59,1.31-1.31v-4.7c0-0.72-0.59-1.31-1.31-1.31h-4.7
	c-0.72,0-1.31,0.59-1.31,1.31v4.7c0,0.72-0.59,1.31-1.31,1.31h-3.01c-0.72,0-1.31,0.59-1.31,1.31v3.01c0,0.72,0.59,1.31,1.31,1.31
	h3.01C72.75,175.06,73.34,174.47,73.34,173.74z M52.32,173.74v-3.01c0-0.72,0.59-1.31,1.31-1.31h4.7c0.72,0,1.31-0.59,1.31-1.31
	v-4.7c0-0.72-0.59-1.31-1.31-1.31h-4.7c-0.72,0-1.31,0.59-1.31,1.31v4.7c0,0.72-0.59,1.31-1.31,1.31H48c-0.72,0-1.31,0.59-1.31,1.31
	v3.01c0,0.72,0.59,1.31,1.31,1.31h3.01C51.73,175.06,52.32,174.47,52.32,173.74z M31.3,173.74v-3.01c0-0.72,0.59-1.31,1.31-1.31h4.7
	c0.72,0,1.31-0.59,1.31-1.31v-4.7c0-0.72-0.59-1.31-1.31-1.31h-4.7c-0.72,0-1.31,0.59-1.31,1.31v4.7c0,0.72-0.59,1.31-1.31,1.31
	h-3.01c-0.72,0-1.31,0.59-1.31,1.31v3.01c0,0.72,0.59,1.31,1.31,1.31h3.01C30.71,175.06,31.3,174.47,31.3,173.74z M10.28,173.74
	v-3.01c0-0.72,0.59-1.31,1.31-1.31h4.7c0.72,0,1.31-0.59,1.31-1.31v-4.7c0-0.72-0.59-1.31-1.31-1.31h-4.7
	c-0.72,0-1.31,0.59-1.31,1.31v4.7c0,0.72-0.59,1.31-1.31,1.31H5.96c-0.72,0-1.31,0.59-1.31,1.31v3.01c0,0.72,0.59,1.31,1.31,1.31
	h3.01C9.69,175.06,10.28,174.47,10.28,173.74z M73.34,195.36v-3.01c0-0.72,0.59-1.31,1.31-1.31h4.7c0.72,0,1.31-0.59,1.31-1.31v-4.7
	c0-0.72-0.59-1.31-1.31-1.31h-4.7c-0.72,0-1.31,0.59-1.31,1.31v4.7c0,0.72-0.59,1.31-1.31,1.31h-3.01c-0.72,0-1.31,0.59-1.31,1.31
	v3.01c0,0.72,0.59,1.31,1.31,1.31h3.01C72.75,196.67,73.34,196.08,73.34,195.36z M52.32,195.36v-3.01c0-0.72,0.59-1.31,1.31-1.31
	h4.7c0.72,0,1.31-0.59,1.31-1.31v-4.7c0-0.72-0.59-1.31-1.31-1.31h-4.7c-0.72,0-1.31,0.59-1.31,1.31v4.7c0,0.72-0.59,1.31-1.31,1.31
	H48c-0.72,0-1.31,0.59-1.31,1.31v3.01c0,0.72,0.59,1.31,1.31,1.31h3.01C51.73,196.67,52.32,196.08,52.32,195.36z M31.3,195.36v-3.01
	c0-0.72,0.59-1.31,1.31-1.31h4.7c0.72,0,1.31-0.59,1.31-1.31v-4.7c0-0.72-0.59-1.31-1.31-1.31h-4.7c-0.72,0-1.31,0.59-1.31,1.31v4.7
	c0,0.72-0.59,1.31-1.31,1.31h-3.01c-0.72,0-1.31,0.59-1.31,1.31v3.01c0,0.72,0.59,1.31,1.31,1.31h3.01
	C30.71,196.67,31.3,196.08,31.3,195.36z M10.28,195.36v-3.01c0-0.72,0.59-1.31,1.31-1.31h4.7c0.72,0,1.31-0.59,1.31-1.31v-4.7
	c0-0.72-0.59-1.31-1.31-1.31h-4.7c-0.72,0-1.31,0.59-1.31,1.31v4.7c0,0.72-0.59,1.31-1.31,1.31H5.96c-0.72,0-1.31,0.59-1.31,1.31
	v3.01c0,0.72,0.59,1.31,1.31,1.31h3.01C9.69,196.67,10.28,196.08,10.28,195.36z M73.34,216.97v-3.01c0-0.72,0.59-1.31,1.31-1.31h4.7
	c0.72,0,1.31-0.59,1.31-1.31v-4.7c0-0.72-0.59-1.31-1.31-1.31h-4.7c-0.72,0-1.31,0.59-1.31,1.31v4.7c0,0.72-0.59,1.31-1.31,1.31
	h-3.01c-0.72,0-1.31,0.59-1.31,1.31v3.01c0,0.72,0.59,1.31,1.31,1.31h3.01C72.75,218.29,73.34,217.7,73.34,216.97z M52.32,216.97
	v-3.01c0-0.72,0.59-1.31,1.31-1.31h4.7c0.72,0,1.31-0.59,1.31-1.31v-4.7c0-0.72-0.59-1.31-1.31-1.31h-4.7
	c-0.72,0-1.31,0.59-1.31,1.31v4.7c0,0.72-0.59,1.31-1.31,1.31H48c-0.72,0-1.31,0.59-1.31,1.31v3.01c0,0.72,0.59,1.31,1.31,1.31h3.01
	C51.73,218.29,52.32,217.7,52.32,216.97z M31.3,216.97v-3.01c0-0.72,0.59-1.31,1.31-1.31h4.7c0.72,0,1.31-0.59,1.31-1.31v-4.7
	c0-0.72-0.59-1.31-1.31-1.31h-4.7c-0.72,0-1.31,0.59-1.31,1.31v4.7c0,0.72-0.59,1.31-1.31,1.31h-3.01c-0.72,0-1.31,0.59-1.31,1.31
	v3.01c0,0.72,0.59,1.31,1.31,1.31h3.01C30.71,218.29,31.3,217.7,31.3,216.97z M10.28,216.97v-3.01c0-0.72,0.59-1.31,1.31-1.31h4.7
	c0.72,0,1.31-0.59,1.31-1.31v-4.7c0-0.72-0.59-1.31-1.31-1.31h-4.7c-0.72,0-1.31,0.59-1.31,1.31v4.7c0,0.72-0.59,1.31-1.31,1.31
	H5.96c-0.72,0-1.31,0.59-1.31,1.31v3.01c0,0.72,0.59,1.31,1.31,1.31h3.01C9.69,218.29,10.28,217.7,10.28,216.97z"/>
</svg>
