<?xml version="1.0" encoding="utf-8"?>
<!-- Generator: Adobe Illustrator 24.1.1, SVG Export Plug-In . SVG Version: 6.00 Build 0)  -->
<svg version="1.1" id="Layer_1" xmlns="http://www.w3.org/2000/svg" xmlns:xlink="http://www.w3.org/1999/xlink" x="0px" y="0px"
	 viewBox="0 0 17.48 9.29" style="enable-background:new 0 0 17.48 9.29;" xml:space="preserve">
<style type="text/css">
	.st0{fill:#00A99D;}
</style>
<path class="st0" d="M0.93,0.16l2.75,2.76L2.91,3.7L0.16,0.94C0.05,0.83,0,0.69,0,0.55s0.05-0.28,0.16-0.39
	C0.37-0.05,0.72-0.05,0.93,0.16z M17.33,0.16c-0.21-0.21-0.56-0.21-0.77,0L9.29,7.42c-0.36,0.37-0.66,0.44-1.09,0l-2-2L5.43,6.2
	l2.93,2.93c0.21,0.21,0.56,0.21,0.77,0l8.2-8.2C17.54,0.72,17.54,0.37,17.33,0.16z"/>
</svg>
