<?xml version="1.0" encoding="utf-8"?>
<!-- Generator: Adobe Illustrator 24.1.1, SVG Export Plug-In . SVG Version: 6.00 Build 0)  -->
<svg version="1.1" id="Layer_1" xmlns="http://www.w3.org/2000/svg" xmlns:xlink="http://www.w3.org/1999/xlink" x="0px" y="0px"
	 viewBox="0 0 18.37 18.34" style="enable-background:new 0 0 18.37 18.34;" xml:space="preserve">
<style type="text/css">
	.st0{fill:#F4F4F4;stroke:#FFFFFF;stroke-width:3;stroke-miterlimit:10;}
	.st1{fill:#294E6D;}
</style>
<g>
	<circle class="st0" cx="9.23" cy="9.17" r="7.6"/>
	<g>
		<path class="st1" d="M7.6,12.01H6.41V8.17H7.6V12.01z M7.71,6.95c0-0.38-0.31-0.7-0.7-0.7c-0.39,0-0.7,0.31-0.7,0.7
			c0,0.38,0.31,0.7,0.7,0.7C7.4,7.65,7.71,7.33,7.71,6.95z M12.04,9.9c0-1.03-0.22-1.79-1.42-1.79c-0.58,0-0.97,0.29-1.13,0.59h0
			V8.17H8.34v3.84H9.5V10.1c0-0.5,0.13-0.98,0.75-0.98c0.61,0,0.63,0.57,0.63,1.01v1.87h1.17V9.9z M13.57,12.5V5.85
			c0-0.56-0.46-1.02-1.02-1.02H5.9c-0.56,0-1.02,0.46-1.02,1.02v6.66c0,0.56,0.46,1.02,1.02,1.02h6.66
			C13.12,13.52,13.57,13.07,13.57,12.5z M12.55,5.51c0.19,0,0.34,0.15,0.34,0.34v6.66c0,0.19-0.15,0.34-0.34,0.34H5.9
			c-0.19,0-0.34-0.15-0.34-0.34V5.85c0-0.19,0.15-0.34,0.34-0.34H12.55z"/>
	</g>
</g>
</svg>
