<?xml version="1.0" encoding="utf-8"?>
<!-- Generator: Adobe Illustrator 24.1.1, SVG Export Plug-In . SVG Version: 6.00 Build 0)  -->
<svg version="1.1" id="Layer_1" xmlns="http://www.w3.org/2000/svg" xmlns:xlink="http://www.w3.org/1999/xlink" x="0px" y="0px"
	 viewBox="0 0 49.65 127.78" style="enable-background:new 0 0 49.65 127.78;" xml:space="preserve">
<style type="text/css">
	.st0{clip-path:url(#SVGID_2_);fill:#FFFFFF;}
</style>
<g>
	<defs>
		
			<rect id="SVGID_1_" x="-39.07" y="39.07" transform="matrix(6.123234e-17 -1 1 6.123234e-17 -39.0664 88.7158)" width="127.78" height="49.65"/>
	</defs>
	<clipPath id="SVGID_2_">
		<use xlink:href="#SVGID_1_"  style="overflow:visible;"/>
	</clipPath>
	<path class="st0" d="M13.2,9.11v2.29c0,0.55-0.45,1-1,1H9.91c-0.55,0-1-0.45-1-1V9.11c0-0.55-0.45-1-1-1H4.32c-0.55,0-1-0.45-1-1
		V3.52c0-0.55,0.45-1,1-1h3.58c0.55,0,1,0.45,1,1v3.58c0,0.55,0.45,1,1,1h2.29C12.75,8.11,13.2,8.56,13.2,9.11z M13.2,25.14v2.29
		c0,0.55-0.45,1-1,1H9.91c-0.55,0-1-0.45-1-1v-2.29c0-0.55-0.45-1-1-1H4.32c-0.55,0-1-0.45-1-1v-3.58c0-0.55,0.45-1,1-1h3.58
		c0.55,0,1,0.45,1,1v3.58c0,0.55,0.45,1,1,1h2.29C12.75,24.14,13.2,24.59,13.2,25.14z M13.2,41.17v2.29c0,0.55-0.45,1-1,1H9.91
		c-0.55,0-1-0.45-1-1v-2.29c0-0.55-0.45-1-1-1H4.32c-0.55,0-1-0.45-1-1v-3.58c0-0.55,0.45-1,1-1h3.58c0.55,0,1,0.45,1,1v3.58
		c0,0.55,0.45,1,1,1h2.29C12.75,40.16,13.2,40.61,13.2,41.17z M13.2,57.19v2.29c0,0.55-0.45,1-1,1H9.91c-0.55,0-1-0.45-1-1v-2.29
		c0-0.55-0.45-1-1-1H4.32c-0.55,0-1-0.45-1-1v-3.58c0-0.55,0.45-1,1-1h3.58c0.55,0,1,0.45,1,1v3.58c0,0.55,0.45,1,1,1h2.29
		C12.75,56.19,13.2,56.64,13.2,57.19z M13.2,73.22v2.29c0,0.55-0.45,1-1,1H9.91c-0.55,0-1-0.45-1-1v-2.29c0-0.55-0.45-1-1-1H4.32
		c-0.55,0-1-0.45-1-1v-3.58c0-0.55,0.45-1,1-1h3.58c0.55,0,1,0.45,1,1v3.58c0,0.55,0.45,1,1,1h2.29
		C12.75,72.22,13.2,72.67,13.2,73.22z M13.2,89.25v2.29c0,0.55-0.45,1-1,1H9.91c-0.55,0-1-0.45-1-1v-2.29c0-0.55-0.45-1-1-1H4.32
		c-0.55,0-1-0.45-1-1v-3.58c0-0.55,0.45-1,1-1h3.58c0.55,0,1,0.45,1,1v3.58c0,0.55,0.45,1,1,1h2.29
		C12.75,88.25,13.2,88.7,13.2,89.25z M13.2,105.28v2.29c0,0.55-0.45,1-1,1H9.91c-0.55,0-1-0.45-1-1v-2.29c0-0.55-0.45-1-1-1H4.32
		c-0.55,0-1-0.45-1-1V99.7c0-0.55,0.45-1,1-1h3.58c0.55,0,1,0.45,1,1v3.58c0,0.55,0.45,1,1,1h2.29
		C12.75,104.28,13.2,104.73,13.2,105.28z M13.2,121.31v2.29c0,0.55-0.45,1-1,1H9.91c-0.55,0-1-0.45-1-1v-2.29c0-0.55-0.45-1-1-1
		H4.32c-0.55,0-1-0.45-1-1v-3.58c0-0.55,0.45-1,1-1h3.58c0.55,0,1,0.45,1,1v3.58c0,0.55,0.45,1,1,1h2.29
		C12.75,120.31,13.2,120.76,13.2,121.31z M29.68,9.11v2.29c0,0.55-0.45,1-1,1h-2.29c-0.55,0-1-0.45-1-1V9.11c0-0.55-0.45-1-1-1
		h-3.58c-0.55,0-1-0.45-1-1V3.52c0-0.55,0.45-1,1-1h3.58c0.55,0,1,0.45,1,1v3.58c0,0.55,0.45,1,1,1h2.29
		C29.23,8.11,29.68,8.56,29.68,9.11z M29.68,25.14v2.29c0,0.55-0.45,1-1,1h-2.29c-0.55,0-1-0.45-1-1v-2.29c0-0.55-0.45-1-1-1h-3.58
		c-0.55,0-1-0.45-1-1v-3.58c0-0.55,0.45-1,1-1h3.58c0.55,0,1,0.45,1,1v3.58c0,0.55,0.45,1,1,1h2.29
		C29.23,24.14,29.68,24.59,29.68,25.14z M29.68,41.17v2.29c0,0.55-0.45,1-1,1h-2.29c-0.55,0-1-0.45-1-1v-2.29c0-0.55-0.45-1-1-1
		h-3.58c-0.55,0-1-0.45-1-1v-3.58c0-0.55,0.45-1,1-1h3.58c0.55,0,1,0.45,1,1v3.58c0,0.55,0.45,1,1,1h2.29
		C29.23,40.16,29.68,40.61,29.68,41.17z M29.68,57.19v2.29c0,0.55-0.45,1-1,1h-2.29c-0.55,0-1-0.45-1-1v-2.29c0-0.55-0.45-1-1-1
		h-3.58c-0.55,0-1-0.45-1-1v-3.58c0-0.55,0.45-1,1-1h3.58c0.55,0,1,0.45,1,1v3.58c0,0.55,0.45,1,1,1h2.29
		C29.23,56.19,29.68,56.64,29.68,57.19z M29.68,73.22v2.29c0,0.55-0.45,1-1,1h-2.29c-0.55,0-1-0.45-1-1v-2.29c0-0.55-0.45-1-1-1
		h-3.58c-0.55,0-1-0.45-1-1v-3.58c0-0.55,0.45-1,1-1h3.58c0.55,0,1,0.45,1,1v3.58c0,0.55,0.45,1,1,1h2.29
		C29.23,72.22,29.68,72.67,29.68,73.22z M29.68,89.25v2.29c0,0.55-0.45,1-1,1h-2.29c-0.55,0-1-0.45-1-1v-2.29c0-0.55-0.45-1-1-1
		h-3.58c-0.55,0-1-0.45-1-1v-3.58c0-0.55,0.45-1,1-1h3.58c0.55,0,1,0.45,1,1v3.58c0,0.55,0.45,1,1,1h2.29
		C29.23,88.25,29.68,88.7,29.68,89.25z M29.68,105.28v2.29c0,0.55-0.45,1-1,1h-2.29c-0.55,0-1-0.45-1-1v-2.29c0-0.55-0.45-1-1-1
		h-3.58c-0.55,0-1-0.45-1-1V99.7c0-0.55,0.45-1,1-1h3.58c0.55,0,1,0.45,1,1v3.58c0,0.55,0.45,1,1,1h2.29
		C29.23,104.28,29.68,104.73,29.68,105.28z M29.68,121.31v2.29c0,0.55-0.45,1-1,1h-2.29c-0.55,0-1-0.45-1-1v-2.29c0-0.55-0.45-1-1-1
		h-3.58c-0.55,0-1-0.45-1-1v-3.58c0-0.55,0.45-1,1-1h3.58c0.55,0,1,0.45,1,1v3.58c0,0.55,0.45,1,1,1h2.29
		C29.23,120.31,29.68,120.76,29.68,121.31z M46.16,9.11v2.29c0,0.55-0.45,1-1,1h-2.29c-0.55,0-1-0.45-1-1V9.11c0-0.55-0.45-1-1-1
		h-3.58c-0.55,0-1-0.45-1-1V3.52c0-0.55,0.45-1,1-1h3.58c0.55,0,1,0.45,1,1v3.58c0,0.55,0.45,1,1,1h2.29
		C45.71,8.11,46.16,8.56,46.16,9.11z M46.16,25.14v2.29c0,0.55-0.45,1-1,1h-2.29c-0.55,0-1-0.45-1-1v-2.29c0-0.55-0.45-1-1-1h-3.58
		c-0.55,0-1-0.45-1-1v-3.58c0-0.55,0.45-1,1-1h3.58c0.55,0,1,0.45,1,1v3.58c0,0.55,0.45,1,1,1h2.29
		C45.71,24.14,46.16,24.59,46.16,25.14z M46.16,41.17v2.29c0,0.55-0.45,1-1,1h-2.29c-0.55,0-1-0.45-1-1v-2.29c0-0.55-0.45-1-1-1
		h-3.58c-0.55,0-1-0.45-1-1v-3.58c0-0.55,0.45-1,1-1h3.58c0.55,0,1,0.45,1,1v3.58c0,0.55,0.45,1,1,1h2.29
		C45.71,40.16,46.16,40.61,46.16,41.17z M46.16,57.19v2.29c0,0.55-0.45,1-1,1h-2.29c-0.55,0-1-0.45-1-1v-2.29c0-0.55-0.45-1-1-1
		h-3.58c-0.55,0-1-0.45-1-1v-3.58c0-0.55,0.45-1,1-1h3.58c0.55,0,1,0.45,1,1v3.58c0,0.55,0.45,1,1,1h2.29
		C45.71,56.19,46.16,56.64,46.16,57.19z M46.16,73.22v2.29c0,0.55-0.45,1-1,1h-2.29c-0.55,0-1-0.45-1-1v-2.29c0-0.55-0.45-1-1-1
		h-3.58c-0.55,0-1-0.45-1-1v-3.58c0-0.55,0.45-1,1-1h3.58c0.55,0,1,0.45,1,1v3.58c0,0.55,0.45,1,1,1h2.29
		C45.71,72.22,46.16,72.67,46.16,73.22z M46.16,89.25v2.29c0,0.55-0.45,1-1,1h-2.29c-0.55,0-1-0.45-1-1v-2.29c0-0.55-0.45-1-1-1
		h-3.58c-0.55,0-1-0.45-1-1v-3.58c0-0.55,0.45-1,1-1h3.58c0.55,0,1,0.45,1,1v3.58c0,0.55,0.45,1,1,1h2.29
		C45.71,88.25,46.16,88.7,46.16,89.25z M46.16,105.28v2.29c0,0.55-0.45,1-1,1h-2.29c-0.55,0-1-0.45-1-1v-2.29c0-0.55-0.45-1-1-1
		h-3.58c-0.55,0-1-0.45-1-1V99.7c0-0.55,0.45-1,1-1h3.58c0.55,0,1,0.45,1,1v3.58c0,0.55,0.45,1,1,1h2.29
		C45.71,104.28,46.16,104.73,46.16,105.28z M46.16,121.31v2.29c0,0.55-0.45,1-1,1h-2.29c-0.55,0-1-0.45-1-1v-2.29c0-0.55-0.45-1-1-1
		h-3.58c-0.55,0-1-0.45-1-1v-3.58c0-0.55,0.45-1,1-1h3.58c0.55,0,1,0.45,1,1v3.58c0,0.55,0.45,1,1,1h2.29
		C45.71,120.31,46.16,120.76,46.16,121.31z"/>
</g>
</svg>
