<?xml version="1.0" encoding="utf-8"?>
<!-- Generator: Adobe Illustrator 24.1.1, SVG Export Plug-In . SVG Version: 6.00 Build 0)  -->
<svg version="1.1" id="Layer_2" xmlns="http://www.w3.org/2000/svg" xmlns:xlink="http://www.w3.org/1999/xlink" x="0px" y="0px"
	 viewBox="0 0 15.18 17.24" style="enable-background:new 0 0 15.18 17.24;" xml:space="preserve">
<style type="text/css">
	.st0{fill:#CAE0ED;}
	.st1{fill:#DAD5C3;}
	.st2{fill:#CAEFDC;}
	.st3{fill:#D1C9DA;}
	.st4{fill:none;stroke:url(#SVGID_1_);stroke-width:1.0137;stroke-miterlimit:10;}
	.st5{fill:none;stroke:url(#SVGID_2_);stroke-width:1.0137;stroke-miterlimit:10;}
	.st6{fill:none;stroke:url(#SVGID_3_);stroke-width:1.0059;stroke-miterlimit:10;}
	.st7{fill:#B3B2B3;}
	.st8{fill:#D39241;}
	.st9{fill:#315B51;}
	.st10{fill:#C8B34C;}
	.st11{fill:#2BB898;}
	.st12{fill:#385BA6;}
	.st13{fill:#515151;}
	.st14{fill:#F4E8AA;}
	.st15{fill:#FAC86E;}
	.st16{fill:#F4F4F4;}
	.st17{fill:#AD9944;}
	.st18{fill:#00A99D;}
	.st19{fill:#FFFFFF;}
	.st20{fill:#E1E1E1;}
	.st21{fill:#C5B04C;}
	.st22{fill-rule:evenodd;clip-rule:evenodd;fill:#C5B04C;}
	.st23{filter:url(#Adobe_OpacityMaskFilter);}
	.st24{fill:url(#SVGID_5_);}
	.st25{mask:url(#SVGID_4_);fill-rule:evenodd;clip-rule:evenodd;fill:#C5B04C;}
	.st26{filter:url(#Adobe_OpacityMaskFilter_1_);}
	.st27{fill:url(#SVGID_7_);}
	.st28{mask:url(#SVGID_6_);fill-rule:evenodd;clip-rule:evenodd;fill:#F1E5A7;}
	.st29{filter:url(#Adobe_OpacityMaskFilter_2_);}
	.st30{fill:url(#SVGID_9_);}
	.st31{mask:url(#SVGID_8_);fill-rule:evenodd;clip-rule:evenodd;fill:#F1E5A7;}
	.st32{filter:url(#Adobe_OpacityMaskFilter_3_);}
	.st33{fill:url(#SVGID_11_);}
	.st34{mask:url(#SVGID_10_);fill-rule:evenodd;clip-rule:evenodd;fill:#F1E5A7;}
	.st35{filter:url(#Adobe_OpacityMaskFilter_4_);}
	.st36{fill:url(#SVGID_13_);}
	.st37{mask:url(#SVGID_12_);fill-rule:evenodd;clip-rule:evenodd;fill:#F1E5A7;}
	.st38{opacity:0.5;fill-rule:evenodd;clip-rule:evenodd;fill:#C5B04C;}
	.st39{filter:url(#Adobe_OpacityMaskFilter_5_);}
	.st40{fill:url(#SVGID_15_);}
	.st41{mask:url(#SVGID_14_);fill-rule:evenodd;clip-rule:evenodd;fill:#C5B04C;}
	.st42{filter:url(#Adobe_OpacityMaskFilter_6_);}
	.st43{fill:url(#SVGID_17_);}
	.st44{mask:url(#SVGID_16_);fill-rule:evenodd;clip-rule:evenodd;fill:#C5B04C;}
	.st45{fill:none;stroke:#2BB898;stroke-width:1.16;stroke-linecap:round;stroke-linejoin:round;stroke-miterlimit:10;}
	.st46{fill-rule:evenodd;clip-rule:evenodd;fill:none;stroke:#C7C7C7;stroke-width:0.5;stroke-miterlimit:10;}
	.st47{fill-rule:evenodd;clip-rule:evenodd;fill:none;stroke:#C7C7C7;stroke-width:0.75;stroke-miterlimit:10;}
	.st48{fill:#2BB898;stroke:#2BB898;stroke-width:0.7684;stroke-miterlimit:10;}
	.st49{clip-path:url(#SVGID_19_);fill:#BCBCBC;}
	.st50{clip-path:url(#SVGID_19_);fill:#969696;}
	.st51{clip-path:url(#SVGID_19_);}
	.st52{fill:#969696;}
	.st53{fill:#BCBCBC;}
	.st54{fill:none;stroke:#C7C7C7;stroke-width:0.5;stroke-miterlimit:10;}
	.st55{clip-path:url(#SVGID_21_);}
	.st56{fill-rule:evenodd;clip-rule:evenodd;fill:none;stroke:#CACACA;stroke-width:0.5;stroke-miterlimit:10;}
	.st57{fill:#4D4D4D;}
	.st58{fill:#A6D0E4;}
	.st59{fill:url(#);}
	.st60{fill:#A0A0A0;}
	.st61{fill:url(#SVGID_22_);}
	.st62{filter:url(#Adobe_OpacityMaskFilter_7_);}
	.st63{fill:url(#SVGID_24_);}
	.st64{mask:url(#SVGID_23_);fill-rule:evenodd;clip-rule:evenodd;fill:#C5B04C;}
	.st65{filter:url(#Adobe_OpacityMaskFilter_8_);}
	.st66{fill:url(#SVGID_26_);}
	.st67{mask:url(#SVGID_25_);fill-rule:evenodd;clip-rule:evenodd;fill:#F1E5A7;}
	.st68{filter:url(#Adobe_OpacityMaskFilter_9_);}
	.st69{fill:url(#SVGID_28_);}
	.st70{mask:url(#SVGID_27_);fill-rule:evenodd;clip-rule:evenodd;fill:#F1E5A7;}
	.st71{filter:url(#Adobe_OpacityMaskFilter_10_);}
	.st72{fill:url(#SVGID_30_);}
	.st73{mask:url(#SVGID_29_);fill-rule:evenodd;clip-rule:evenodd;fill:#F1E5A7;}
	.st74{filter:url(#Adobe_OpacityMaskFilter_11_);}
	.st75{fill:url(#SVGID_32_);}
	.st76{mask:url(#SVGID_31_);fill-rule:evenodd;clip-rule:evenodd;fill:#F1E5A7;}
	.st77{filter:url(#Adobe_OpacityMaskFilter_12_);}
	.st78{fill:url(#SVGID_34_);}
	.st79{mask:url(#SVGID_33_);fill-rule:evenodd;clip-rule:evenodd;fill:#C5B04C;}
	.st80{filter:url(#Adobe_OpacityMaskFilter_13_);}
	.st81{fill:url(#SVGID_36_);}
	.st82{mask:url(#SVGID_35_);fill-rule:evenodd;clip-rule:evenodd;fill:#C5B04C;}
	.st83{filter:url(#Adobe_OpacityMaskFilter_14_);}
	.st84{fill:url(#SVGID_38_);}
	.st85{mask:url(#SVGID_37_);fill-rule:evenodd;clip-rule:evenodd;fill:#F1E5A7;}
	.st86{fill-rule:evenodd;clip-rule:evenodd;fill:#315B51;}
	.st87{filter:url(#Adobe_OpacityMaskFilter_15_);}
	.st88{fill:url(#SVGID_40_);}
	.st89{mask:url(#SVGID_39_);fill-rule:evenodd;clip-rule:evenodd;fill:#2BB595;}
	.st90{fill:#B0AFB0;}
	.st91{fill:none;stroke:#FFFFFF;stroke-width:0.25;stroke-miterlimit:10;}
	.st92{fill:#C9C9C9;}
	.st93{fill:none;stroke:#B3B3B3;stroke-width:0.5;stroke-miterlimit:10;}
	.st94{opacity:0.28;fill:#666666;}
	.st95{opacity:0.28;clip-path:url(#SVGID_42_);fill:#B3B2B3;}
	.st96{clip-path:url(#SVGID_44_);fill:#EAEAEA;}
	.st97{clip-path:url(#SVGID_46_);fill:#EAEAEA;}
	.st98{clip-path:url(#SVGID_48_);fill:#EAEAEA;}
	.st99{opacity:0.28;clip-path:url(#SVGID_50_);fill:#B3B2B3;}
	.st100{opacity:0.28;clip-path:url(#SVGID_52_);fill:#B3B2B3;}
	.st101{fill:#A3A3A3;}
	.st102{fill:none;stroke:#FFFFFF;stroke-width:1.436;stroke-miterlimit:10;}
	.st103{fill:none;stroke:#2BB898;stroke-miterlimit:10;}
	.st104{fill:url(#SVGID_57_);}
	.st105{fill:#F48133;}
	.st106{fill:#F89C34;}
	.st107{fill:#EBECEC;}
	.st108{fill:#FEFEFE;}
	.st109{fill:#007DC5;}
	.st110{fill:#008ED4;}
	.st111{fill:#008CC3;}
	.st112{fill:#E1E8EC;}
	.st113{fill:#DDE7EC;}
	.st114{fill:#F05931;}
	.st115{fill:#F37933;}
	.st116{fill:#EFE8E5;}
	.st117{fill:#EFE8E4;}
	.st118{fill:#C20E2E;}
	.st119{fill:#DC0330;}
	.st120{fill:#D5AD42;}
	.st121{fill:#446785;}
	.st122{fill:#2E3A25;}
	.st123{fill:#4ABA08;}
	.st124{fill:#865FC5;}
	.st125{fill:url(#SVGID_58_);}
	.st126{fill:#606060;}
	.st127{fill:#3B3735;}
	.st128{fill:#00A470;}
	.st129{fill:#C4C4C4;}
	.st130{fill:none;stroke:#FFFFFF;stroke-width:1.4012;stroke-miterlimit:10;}
	.st131{fill:url(#SVGID_61_);}
	.st132{fill:url(#SVGID_64_);}
	.st133{fill:url(#SVGID_67_);}
	.st134{fill:url(#SVGID_70_);}
</style>
<g>
	<path class="st109" d="M7.59,0.01c2.42,0,4.84,0.01,7.26-0.01c0.3,0,0.36,0.08,0.33,0.37c-0.21,2.28-0.41,4.55-0.61,6.83
		c-0.23,2.68-0.47,5.36-0.7,8.04c-0.02,0.2-0.11,0.27-0.28,0.32c-1.91,0.54-3.82,1.09-5.74,1.64c-0.15,0.04-0.29,0.04-0.44,0
		c-1.96-0.55-3.92-1.1-5.88-1.64c-0.22-0.06-0.28-0.16-0.3-0.38c-0.26-3.27-0.53-6.54-0.8-9.81C0.29,3.69,0.16,1.98,0,0.28
		c-0.03-0.31,0.14-0.28,0.33-0.28c2.08,0,4.17,0,6.25,0C6.92,0.01,7.25,0.01,7.59,0.01z"/>
	<path class="st110" d="M2.71,3.33c0.1-0.16,0.25-0.09,0.38-0.09c1.39-0.01,2.78-0.01,4.16,0c0.31,0,0.4-0.09,0.38-0.39
		c-0.02-0.36,0-0.72-0.01-1.07c0-0.18,0.04-0.28,0.25-0.28c1.92,0.01,3.84,0.01,5.76,0c0.21,0,0.26,0.1,0.24,0.28
		c-0.09,0.88-0.18,1.76-0.26,2.63c-0.06,0.63-0.1,1.26-0.16,1.89c-0.08,0.95-0.18,1.89-0.26,2.84c-0.05,0.61-0.1,1.21-0.15,1.82
		c-0.09,1.04-0.19,2.08-0.27,3.12c-0.01,0.19-0.1,0.26-0.26,0.3c-1.52,0.43-3.04,0.87-4.55,1.31c-0.27,0.08-0.35-0.02-0.34-0.28
		c0.01-0.47,0-0.95,0-1.42c0.01-0.06,0.05-0.11,0.1-0.14c1.05-0.35,2.12-0.66,3.17-0.99c0.42-0.13,0.47-0.19,0.51-0.63
		c0.12-1.54,0.25-3.08,0.4-4.61c0.05-0.47,0.01-0.52-0.47-0.52c-0.98,0-1.96,0-2.95,0c-0.15,0-0.38,0.05-0.41-0.14
		c-0.02-0.15,0.19-0.2,0.33-0.26c1.12-0.47,2.24-0.92,3.37-1.38c0.55-0.22,0.56-0.24,0.56-0.84c0-0.22,0-0.44,0-0.66
		c0-0.13,0-0.26-0.12-0.34c-0.15-0.09-0.32-0.06-0.48-0.06c-2.8,0-5.6,0-8.4,0C3.07,3.41,2.88,3.44,2.71,3.33z"/>
	<path class="st107" d="M3.34,8.85C3.17,8.32,3.17,7.77,3.07,7.23C3.04,7.11,3.14,7.08,3.23,7.04c1.4-0.6,2.79-1.2,4.19-1.79
		c0.25-0.06,0.23,0.13,0.24,0.27c0.02,0.3,0.01,0.6,0.01,0.9c0,0.69,0.01,1.39,0,2.08c0,0.36-0.04,0.39-0.4,0.39
		c-1.22,0-2.43,0-3.65,0C3.52,8.89,3.42,8.91,3.34,8.85z"/>
	<path class="st107" d="M7.5,13.96c-0.93-0.32-1.89-0.53-2.82-0.81c-0.33-0.1-0.75-0.08-0.97-0.32c-0.22-0.23-0.1-0.64-0.14-0.97
		c-0.07-0.56-0.1-1.13-0.15-1.69C3.39,9.99,3.41,9.89,3.63,9.9c0.46,0.01,0.93,0.01,1.39,0c0.2-0.01,0.26,0.08,0.27,0.26
		c0.03,0.32,0.08,0.64,0.11,0.96c0.01,0.15,0.06,0.23,0.21,0.26c0.65,0.12,1.29,0.25,1.94,0.38c0.03,0.03,0.06,0.07,0.08,0.11
		c0.06,0.6,0.02,1.21,0.02,1.81C7.66,13.8,7.62,13.91,7.5,13.96z"/>
	<path class="st107" d="M2.97,5.04C2.86,4.52,2.79,4,2.76,3.47C2.74,3.31,2.87,3.35,2.94,3.35c1.48,0,2.96,0,4.44,0
		c0.17,0,0.26,0.07,0.27,0.24c0.02,0.44,0.02,0.88,0,1.31C7.65,5.07,7.57,5.15,7.37,5.15c-1.36-0.01-2.73,0-4.09-0.01
		C3.16,5.14,3.04,5.16,2.97,5.04z"/>
	<path class="st111" d="M7.57,11.82c0-0.02-0.01-0.03-0.01-0.05c0.12-0.1,0.07-0.24,0.08-0.36c0-0.83,0-1.66,0-2.49
		C8.4,8.76,9.18,8.75,9.95,8.93c0.08,0.11,0.07,0.24,0.06,0.37c-0.08,0.61-0.13,1.22-0.18,1.83c-0.02,0.27-0.15,0.42-0.42,0.47
		c-0.56,0.1-1.11,0.23-1.67,0.3C7.67,11.89,7.61,11.87,7.57,11.82z"/>
	<path class="st112" d="M9.93,8.99C9.89,8.9,9.8,8.91,9.72,8.91c-0.7,0-1.39,0.01-2.09,0.01C6.32,8.92,5.01,8.91,3.7,8.9
		c-0.12,0-0.25,0.05-0.36-0.05c1.3,0,2.59-0.01,3.89,0c0.25,0,0.34-0.06,0.34-0.33c-0.01-0.99,0-1.99-0.01-2.98
		c0-0.12,0.05-0.27-0.14-0.3c-0.1-0.12-0.24-0.07-0.35-0.07c-1.26,0-2.52,0-3.78-0.01c-0.11,0-0.3,0.11-0.32-0.13
		C3.09,5.1,3.21,5.11,3.34,5.11c1.3,0,2.59-0.01,3.89,0c0.25,0,0.36-0.06,0.34-0.33c-0.02-0.37-0.01-0.74,0-1.11
		c0.01-0.22-0.06-0.31-0.29-0.3c-1.41,0.01-2.82,0-4.23,0c-0.1,0-0.21-0.02-0.28,0.09C2.74,3.42,2.73,3.37,2.71,3.33
		c0.08-0.01,0.16-0.02,0.24-0.02c3.02,0,6.04-0.01,9.06,0c0.1,0,0.21-0.05,0.28,0.07c-0.15,0.15-0.34,0.12-0.52,0.12
		c-1.15,0-2.3,0-3.45,0C8.16,3.5,8,3.48,7.85,3.55c-0.13,0.1-0.11,0.24-0.11,0.38c0,1.46,0,2.92,0,4.37c0,0.14-0.02,0.28,0.11,0.38
		C8.35,8.8,8.87,8.71,9.39,8.74c0.16,0.01,0.32-0.01,0.48,0.04C10,8.82,10,8.83,9.93,8.99z"/>
	<path class="st113" d="M7.57,11.82c0.04,0,0.08,0,0.13,0c0.02,0.02,0.04,0.03,0.05,0.05c0.11,0.69,0.17,1.38-0.04,2.06
		c-0.02,0.02-0.05,0.04-0.07,0.05c-0.05-0.01-0.09-0.02-0.14-0.02c0.13-0.24,0.06-0.49,0.06-0.74C7.57,12.75,7.57,12.29,7.57,11.82z
		"/>
	<path class="st108" d="M7.71,13.93c0-0.7-0.01-1.41-0.01-2.11c0.56-0.11,1.12-0.24,1.69-0.33c0.24-0.04,0.31-0.14,0.33-0.38
		c0.06-0.71,0.14-1.42,0.22-2.12C9.99,8.73,9.78,8.86,9.7,8.86C9.04,8.84,8.37,8.85,7.71,8.84c-0.06-0.06-0.04-0.13-0.04-0.2
		c0-1.69,0-3.38,0-5.07c0-0.07-0.01-0.14,0.04-0.2c1.53,0,3.06,0,4.59-0.01c0.08,0.54,0.01,1.08,0.03,1.62
		c0.01,0.19-0.14,0.21-0.27,0.26c-1.23,0.5-2.46,1-3.69,1.51c-0.1,0.04-0.21,0.09-0.31,0.2c0.09,0,0.19,0,0.28,0
		c1.1,0,2.2,0.01,3.3-0.01c0.27,0,0.33,0.07,0.3,0.33c-0.16,1.72-0.31,3.45-0.45,5.17c-0.02,0.23-0.1,0.35-0.35,0.43
		C10,13.22,8.85,13.58,7.71,13.93z"/>
	<path class="st107" d="M7.7,3.38c0,1.82,0,3.64,0.01,5.46C7.6,8.77,7.63,8.66,7.63,8.56c0-1.63,0-3.26,0-4.9
		C7.63,3.57,7.6,3.46,7.7,3.38z"/>
</g>
</svg>
