<?xml version="1.0" encoding="utf-8"?>
<!-- Generator: Adobe Illustrator 24.1.1, SVG Export Plug-In . SVG Version: 6.00 Build 0)  -->
<svg version="1.1" id="Layer_2" xmlns="http://www.w3.org/2000/svg" xmlns:xlink="http://www.w3.org/1999/xlink" x="0px" y="0px"
	 viewBox="0 0 17.35 16.99" style="enable-background:new 0 0 17.35 16.99;" xml:space="preserve">
<style type="text/css">
	.st0{fill:#CAE0ED;}
	.st1{fill:#DAD5C3;}
	.st2{fill:#CAEFDC;}
	.st3{fill:#D1C9DA;}
	.st4{fill:none;stroke:url(#SVGID_1_);stroke-width:1.0137;stroke-miterlimit:10;}
	.st5{fill:none;stroke:url(#SVGID_2_);stroke-width:1.0137;stroke-miterlimit:10;}
	.st6{fill:none;stroke:url(#SVGID_3_);stroke-width:1.0059;stroke-miterlimit:10;}
	.st7{fill:#B3B2B3;}
	.st8{fill:#D39241;}
	.st9{fill:#315B51;}
	.st10{fill:#C8B34C;}
	.st11{fill:#2BB898;}
	.st12{fill:#385BA6;}
	.st13{fill:#515151;}
	.st14{fill:#F4E8AA;}
	.st15{fill:#FAC86E;}
	.st16{fill:#F4F4F4;}
	.st17{fill:#AD9944;}
	.st18{fill:#00A99D;}
	.st19{fill:#FFFFFF;}
	.st20{fill:#E1E1E1;}
	.st21{fill:#C5B04C;}
	.st22{fill-rule:evenodd;clip-rule:evenodd;fill:#C5B04C;}
	.st23{filter:url(#Adobe_OpacityMaskFilter);}
	.st24{fill:url(#SVGID_5_);}
	.st25{mask:url(#SVGID_4_);fill-rule:evenodd;clip-rule:evenodd;fill:#C5B04C;}
	.st26{filter:url(#Adobe_OpacityMaskFilter_1_);}
	.st27{fill:url(#SVGID_7_);}
	.st28{mask:url(#SVGID_6_);fill-rule:evenodd;clip-rule:evenodd;fill:#F1E5A7;}
	.st29{filter:url(#Adobe_OpacityMaskFilter_2_);}
	.st30{fill:url(#SVGID_9_);}
	.st31{mask:url(#SVGID_8_);fill-rule:evenodd;clip-rule:evenodd;fill:#F1E5A7;}
	.st32{filter:url(#Adobe_OpacityMaskFilter_3_);}
	.st33{fill:url(#SVGID_11_);}
	.st34{mask:url(#SVGID_10_);fill-rule:evenodd;clip-rule:evenodd;fill:#F1E5A7;}
	.st35{filter:url(#Adobe_OpacityMaskFilter_4_);}
	.st36{fill:url(#SVGID_13_);}
	.st37{mask:url(#SVGID_12_);fill-rule:evenodd;clip-rule:evenodd;fill:#F1E5A7;}
	.st38{opacity:0.5;fill-rule:evenodd;clip-rule:evenodd;fill:#C5B04C;}
	.st39{filter:url(#Adobe_OpacityMaskFilter_5_);}
	.st40{fill:url(#SVGID_15_);}
	.st41{mask:url(#SVGID_14_);fill-rule:evenodd;clip-rule:evenodd;fill:#C5B04C;}
	.st42{filter:url(#Adobe_OpacityMaskFilter_6_);}
	.st43{fill:url(#SVGID_17_);}
	.st44{mask:url(#SVGID_16_);fill-rule:evenodd;clip-rule:evenodd;fill:#C5B04C;}
	.st45{fill:none;stroke:#2BB898;stroke-width:1.16;stroke-linecap:round;stroke-linejoin:round;stroke-miterlimit:10;}
	.st46{fill-rule:evenodd;clip-rule:evenodd;fill:none;stroke:#C7C7C7;stroke-width:0.5;stroke-miterlimit:10;}
	.st47{fill-rule:evenodd;clip-rule:evenodd;fill:none;stroke:#C7C7C7;stroke-width:0.75;stroke-miterlimit:10;}
	.st48{fill:#2BB898;stroke:#2BB898;stroke-width:0.7684;stroke-miterlimit:10;}
	.st49{clip-path:url(#SVGID_19_);fill:#BCBCBC;}
	.st50{clip-path:url(#SVGID_19_);fill:#969696;}
	.st51{clip-path:url(#SVGID_19_);}
	.st52{fill:#969696;}
	.st53{fill:#BCBCBC;}
	.st54{fill:none;stroke:#C7C7C7;stroke-width:0.5;stroke-miterlimit:10;}
	.st55{clip-path:url(#SVGID_21_);}
	.st56{fill-rule:evenodd;clip-rule:evenodd;fill:none;stroke:#CACACA;stroke-width:0.5;stroke-miterlimit:10;}
	.st57{fill:#4D4D4D;}
	.st58{fill:#A6D0E4;}
	.st59{fill:url(#);}
	.st60{fill:#A0A0A0;}
	.st61{fill:url(#SVGID_22_);}
	.st62{filter:url(#Adobe_OpacityMaskFilter_7_);}
	.st63{fill:url(#SVGID_24_);}
	.st64{mask:url(#SVGID_23_);fill-rule:evenodd;clip-rule:evenodd;fill:#C5B04C;}
	.st65{filter:url(#Adobe_OpacityMaskFilter_8_);}
	.st66{fill:url(#SVGID_26_);}
	.st67{mask:url(#SVGID_25_);fill-rule:evenodd;clip-rule:evenodd;fill:#F1E5A7;}
	.st68{filter:url(#Adobe_OpacityMaskFilter_9_);}
	.st69{fill:url(#SVGID_28_);}
	.st70{mask:url(#SVGID_27_);fill-rule:evenodd;clip-rule:evenodd;fill:#F1E5A7;}
	.st71{filter:url(#Adobe_OpacityMaskFilter_10_);}
	.st72{fill:url(#SVGID_30_);}
	.st73{mask:url(#SVGID_29_);fill-rule:evenodd;clip-rule:evenodd;fill:#F1E5A7;}
	.st74{filter:url(#Adobe_OpacityMaskFilter_11_);}
	.st75{fill:url(#SVGID_32_);}
	.st76{mask:url(#SVGID_31_);fill-rule:evenodd;clip-rule:evenodd;fill:#F1E5A7;}
	.st77{filter:url(#Adobe_OpacityMaskFilter_12_);}
	.st78{fill:url(#SVGID_34_);}
	.st79{mask:url(#SVGID_33_);fill-rule:evenodd;clip-rule:evenodd;fill:#C5B04C;}
	.st80{filter:url(#Adobe_OpacityMaskFilter_13_);}
	.st81{fill:url(#SVGID_36_);}
	.st82{mask:url(#SVGID_35_);fill-rule:evenodd;clip-rule:evenodd;fill:#C5B04C;}
	.st83{filter:url(#Adobe_OpacityMaskFilter_14_);}
	.st84{fill:url(#SVGID_38_);}
	.st85{mask:url(#SVGID_37_);fill-rule:evenodd;clip-rule:evenodd;fill:#F1E5A7;}
	.st86{fill-rule:evenodd;clip-rule:evenodd;fill:#315B51;}
	.st87{filter:url(#Adobe_OpacityMaskFilter_15_);}
	.st88{fill:url(#SVGID_40_);}
	.st89{mask:url(#SVGID_39_);fill-rule:evenodd;clip-rule:evenodd;fill:#2BB595;}
	.st90{fill:#B0AFB0;}
	.st91{fill:none;stroke:#FFFFFF;stroke-width:0.25;stroke-miterlimit:10;}
	.st92{fill:#C9C9C9;}
	.st93{fill:none;stroke:#B3B3B3;stroke-width:0.5;stroke-miterlimit:10;}
	.st94{opacity:0.28;fill:#666666;}
	.st95{opacity:0.28;clip-path:url(#SVGID_42_);fill:#B3B2B3;}
	.st96{clip-path:url(#SVGID_44_);fill:#EAEAEA;}
	.st97{clip-path:url(#SVGID_46_);fill:#EAEAEA;}
	.st98{clip-path:url(#SVGID_48_);fill:#EAEAEA;}
	.st99{opacity:0.28;clip-path:url(#SVGID_50_);fill:#B3B2B3;}
	.st100{opacity:0.28;clip-path:url(#SVGID_52_);fill:#B3B2B3;}
	.st101{fill:#A3A3A3;}
	.st102{fill:none;stroke:#FFFFFF;stroke-width:1.436;stroke-miterlimit:10;}
	.st103{fill:none;stroke:#2BB898;stroke-miterlimit:10;}
	.st104{fill:url(#SVGID_57_);}
	.st105{fill:#F48133;}
	.st106{fill:#F89C34;}
	.st107{fill:#EBECEC;}
	.st108{fill:#FEFEFE;}
	.st109{fill:#007DC5;}
	.st110{fill:#008ED4;}
	.st111{fill:#008CC3;}
	.st112{fill:#E1E8EC;}
	.st113{fill:#DDE7EC;}
	.st114{fill:#F05931;}
	.st115{fill:#F37933;}
	.st116{fill:#EFE8E5;}
	.st117{fill:#EFE8E4;}
	.st118{fill:#C20E2E;}
	.st119{fill:#DC0330;}
	.st120{fill:#D5AD42;}
	.st121{fill:#446785;}
	.st122{fill:#2E3A25;}
	.st123{fill:#4ABA08;}
	.st124{fill:#865FC5;}
	.st125{fill:url(#SVGID_58_);}
	.st126{fill:#606060;}
	.st127{fill:#3B3735;}
	.st128{fill:#00A470;}
	.st129{fill:#C4C4C4;}
	.st130{fill:none;stroke:#FFFFFF;stroke-width:1.4012;stroke-miterlimit:10;}
	.st131{fill:url(#SVGID_61_);}
	.st132{fill:url(#SVGID_64_);}
	.st133{fill:url(#SVGID_67_);}
	.st134{fill:url(#SVGID_70_);}
</style>
<g>
	<rect x="0.43" y="0.66" class="st122" width="16.54" height="15.84"/>
	<g>
		<path class="st123" d="M9.27,10.88c0.21,1.01,0.19,1,1.23,1.01c0.26,0,0.36-0.09,0.41-0.34c0.18-0.9,0.37-1.81,0.58-2.7
			c0.1-0.44,0.12-0.91,0.28-1.35c0.11,0.06,0.11,0.15,0.12,0.22c0.14,1.07,0.38,2.13,0.57,3.2c0.17,0.97,0.17,0.96,1.14,0.97
			c0.26,0,0.36-0.08,0.42-0.33c0.38-1.58,0.78-3.15,1.17-4.73c0.2-0.82,0.19-0.81-0.66-0.82c-0.24,0-0.35,0.08-0.39,0.32
			c-0.2,1.16-0.4,2.32-0.61,3.47c-0.04,0.23-0.04,0.49-0.2,0.77C13.12,9.33,12.9,8.17,12.72,7c-0.15-0.98-0.12-0.98-1.11-0.98
			c-0.03,0-0.07,0-0.1,0c-0.23-0.04-0.33,0.09-0.38,0.3c-0.2,1-0.41,2.01-0.61,3.01c-0.08,0.39-0.14,0.78-0.21,1.18
			c-0.11-0.07-0.12-0.14-0.13-0.2C10.01,9.2,9.83,8.1,9.67,6.99c-0.14-0.98-0.13-0.97-1.1-0.99C8.25,6,8.18,6.07,8.26,6.39
			C8.61,7.89,8.95,9.38,9.27,10.88z"/>
		<path class="st123" d="M2.2,7.91C2.2,7.91,2.2,7.91,2.2,7.91C2.2,8.5,2.2,9.1,2.2,9.7c0,0.61,0.01,1.22,0,1.83
			c-0.01,0.27,0.08,0.36,0.35,0.36c0.52-0.01,1.04,0.02,1.56,0.01c1.56-0.02,2.74-0.82,3.3-2.27c0.42-1.11,0.45-2.26,0.1-3.39
			c-0.47-1.5-1.57-2.29-3.15-2.32c-0.59-0.01-1.18,0.02-1.76,0c-0.33-0.01-0.41,0.12-0.4,0.42C2.21,5.53,2.2,6.72,2.2,7.91z
			 M3.45,9.19c0-0.43,0-0.85,0-1.28c0,0,0,0,0,0c0-0.85,0.01-1.7,0-2.56c0-0.23,0.05-0.34,0.31-0.33C4.06,5.04,4.38,5,4.68,5.07
			C5.5,5.25,6.04,5.74,6.26,6.54c0.29,1.04,0.27,2.07-0.2,3.07c-0.5,1.05-1.45,1.27-2.42,1.19c-0.23-0.02-0.19-0.19-0.19-0.33
			C3.44,10.04,3.45,9.62,3.45,9.19z"/>
		<path class="st123" d="M0.38,16.99c2.77-0.01,5.54-0.01,8.31-0.01c0,0,0,0,0,0c2.73,0,5.47,0,8.2,0c0.46,0,0.46,0,0.46-0.44
			c0-5.37,0-10.73,0-16.1c0-0.45,0-0.45-0.46-0.45C11.41,0,5.93,0.01,0.45,0C0.1,0,0,0.08,0,0.44c0.01,5.4,0.01,10.8,0.01,16.2
			C0.01,16.93,0.1,17,0.38,16.99z M1.1,0.67c5.05,0.01,10.11,0,15.16-0.01c0.37,0,0.44,0.13,0.44,0.46c-0.01,4.95,0,9.9,0.01,14.85
			c0,0.29-0.08,0.37-0.37,0.37c-2.55-0.01-5.1-0.01-7.65-0.01c0,0,0,0,0-0.01c-2.5,0-5.01,0-7.51,0c-0.5,0-0.5,0-0.5-0.48
			c0-4.91,0.01-9.83,0-14.74C0.68,0.77,0.77,0.67,1.1,0.67z"/>
	</g>
</g>
</svg>
