<?xml version="1.0" encoding="utf-8"?>
<!-- Generator: Adobe Illustrator 24.1.1, SVG Export Plug-In . SVG Version: 6.00 Build 0)  -->
<svg version="1.1" id="Layer_1" xmlns="http://www.w3.org/2000/svg" xmlns:xlink="http://www.w3.org/1999/xlink" x="0px" y="0px"
	 viewBox="0 0 98.35 98.37" style="enable-background:new 0 0 98.35 98.37;" xml:space="preserve">
<style type="text/css">
	.st0{fill:#E2E2E2;}
</style>
<path class="st0" d="M32.85,98.37H10.03c-5.49,0-9.96-4.48-9.96-9.96V65.59c0-5.49,4.47-9.96,9.96-9.96h22.82
	c5.48,0,9.96-4.47,9.96-9.96V10.04c0-5.48,4.47-9.96,9.96-9.96H88.4c5.49,0,9.96,4.48,9.96,9.96v35.64c0,5.48-4.47,9.96-9.96,9.96
	H52.76c-5.49,0-9.96,4.47-9.96,9.96v22.82C42.8,93.89,38.33,98.37,32.85,98.37z"/>
</svg>
