<?xml version="1.0" encoding="utf-8"?>
<!-- Generator: Adobe Illustrator 24.1.1, SVG Export Plug-In . SVG Version: 6.00 Build 0)  -->
<svg version="1.1" id="Layer_2" xmlns="http://www.w3.org/2000/svg" xmlns:xlink="http://www.w3.org/1999/xlink" x="0px" y="0px"
	 viewBox="0 0 17.36 17.1" style="enable-background:new 0 0 17.36 17.1;" xml:space="preserve">
<style type="text/css">
	.st0{fill:#CAE0ED;}
	.st1{fill:#DAD5C3;}
	.st2{fill:#CAEFDC;}
	.st3{fill:#D1C9DA;}
	.st4{fill:none;stroke:url(#SVGID_1_);stroke-width:1.0137;stroke-miterlimit:10;}
	.st5{fill:none;stroke:url(#SVGID_2_);stroke-width:1.0137;stroke-miterlimit:10;}
	.st6{fill:none;stroke:url(#SVGID_3_);stroke-width:1.0059;stroke-miterlimit:10;}
	.st7{fill:#B3B2B3;}
	.st8{fill:#D39241;}
	.st9{fill:#315B51;}
	.st10{fill:#C8B34C;}
	.st11{fill:#2BB898;}
	.st12{fill:#385BA6;}
	.st13{fill:#515151;}
	.st14{fill:#F4E8AA;}
	.st15{fill:#FAC86E;}
	.st16{fill:#F4F4F4;}
	.st17{fill:#AD9944;}
	.st18{fill:#00A99D;}
	.st19{fill:#FFFFFF;}
	.st20{fill:#E1E1E1;}
	.st21{fill:#C5B04C;}
	.st22{fill-rule:evenodd;clip-rule:evenodd;fill:#C5B04C;}
	.st23{filter:url(#Adobe_OpacityMaskFilter);}
	.st24{fill:url(#SVGID_5_);}
	.st25{mask:url(#SVGID_4_);fill-rule:evenodd;clip-rule:evenodd;fill:#C5B04C;}
	.st26{filter:url(#Adobe_OpacityMaskFilter_1_);}
	.st27{fill:url(#SVGID_7_);}
	.st28{mask:url(#SVGID_6_);fill-rule:evenodd;clip-rule:evenodd;fill:#F1E5A7;}
	.st29{filter:url(#Adobe_OpacityMaskFilter_2_);}
	.st30{fill:url(#SVGID_9_);}
	.st31{mask:url(#SVGID_8_);fill-rule:evenodd;clip-rule:evenodd;fill:#F1E5A7;}
	.st32{filter:url(#Adobe_OpacityMaskFilter_3_);}
	.st33{fill:url(#SVGID_11_);}
	.st34{mask:url(#SVGID_10_);fill-rule:evenodd;clip-rule:evenodd;fill:#F1E5A7;}
	.st35{filter:url(#Adobe_OpacityMaskFilter_4_);}
	.st36{fill:url(#SVGID_13_);}
	.st37{mask:url(#SVGID_12_);fill-rule:evenodd;clip-rule:evenodd;fill:#F1E5A7;}
	.st38{opacity:0.5;fill-rule:evenodd;clip-rule:evenodd;fill:#C5B04C;}
	.st39{filter:url(#Adobe_OpacityMaskFilter_5_);}
	.st40{fill:url(#SVGID_15_);}
	.st41{mask:url(#SVGID_14_);fill-rule:evenodd;clip-rule:evenodd;fill:#C5B04C;}
	.st42{filter:url(#Adobe_OpacityMaskFilter_6_);}
	.st43{fill:url(#SVGID_17_);}
	.st44{mask:url(#SVGID_16_);fill-rule:evenodd;clip-rule:evenodd;fill:#C5B04C;}
	.st45{fill:none;stroke:#2BB898;stroke-width:1.16;stroke-linecap:round;stroke-linejoin:round;stroke-miterlimit:10;}
	.st46{fill-rule:evenodd;clip-rule:evenodd;fill:none;stroke:#C7C7C7;stroke-width:0.5;stroke-miterlimit:10;}
	.st47{fill-rule:evenodd;clip-rule:evenodd;fill:none;stroke:#C7C7C7;stroke-width:0.75;stroke-miterlimit:10;}
	.st48{fill:#2BB898;stroke:#2BB898;stroke-width:0.7684;stroke-miterlimit:10;}
	.st49{clip-path:url(#SVGID_19_);fill:#BCBCBC;}
	.st50{clip-path:url(#SVGID_19_);fill:#969696;}
	.st51{clip-path:url(#SVGID_19_);}
	.st52{fill:#969696;}
	.st53{fill:#BCBCBC;}
	.st54{fill:none;stroke:#C7C7C7;stroke-width:0.5;stroke-miterlimit:10;}
	.st55{clip-path:url(#SVGID_21_);}
	.st56{fill-rule:evenodd;clip-rule:evenodd;fill:none;stroke:#CACACA;stroke-width:0.5;stroke-miterlimit:10;}
	.st57{fill:#4D4D4D;}
	.st58{fill:#A6D0E4;}
	.st59{fill:url(#);}
	.st60{fill:#A0A0A0;}
	.st61{fill:url(#SVGID_22_);}
	.st62{filter:url(#Adobe_OpacityMaskFilter_7_);}
	.st63{fill:url(#SVGID_24_);}
	.st64{mask:url(#SVGID_23_);fill-rule:evenodd;clip-rule:evenodd;fill:#C5B04C;}
	.st65{filter:url(#Adobe_OpacityMaskFilter_8_);}
	.st66{fill:url(#SVGID_26_);}
	.st67{mask:url(#SVGID_25_);fill-rule:evenodd;clip-rule:evenodd;fill:#F1E5A7;}
	.st68{filter:url(#Adobe_OpacityMaskFilter_9_);}
	.st69{fill:url(#SVGID_28_);}
	.st70{mask:url(#SVGID_27_);fill-rule:evenodd;clip-rule:evenodd;fill:#F1E5A7;}
	.st71{filter:url(#Adobe_OpacityMaskFilter_10_);}
	.st72{fill:url(#SVGID_30_);}
	.st73{mask:url(#SVGID_29_);fill-rule:evenodd;clip-rule:evenodd;fill:#F1E5A7;}
	.st74{filter:url(#Adobe_OpacityMaskFilter_11_);}
	.st75{fill:url(#SVGID_32_);}
	.st76{mask:url(#SVGID_31_);fill-rule:evenodd;clip-rule:evenodd;fill:#F1E5A7;}
	.st77{filter:url(#Adobe_OpacityMaskFilter_12_);}
	.st78{fill:url(#SVGID_34_);}
	.st79{mask:url(#SVGID_33_);fill-rule:evenodd;clip-rule:evenodd;fill:#C5B04C;}
	.st80{filter:url(#Adobe_OpacityMaskFilter_13_);}
	.st81{fill:url(#SVGID_36_);}
	.st82{mask:url(#SVGID_35_);fill-rule:evenodd;clip-rule:evenodd;fill:#C5B04C;}
	.st83{filter:url(#Adobe_OpacityMaskFilter_14_);}
	.st84{fill:url(#SVGID_38_);}
	.st85{mask:url(#SVGID_37_);fill-rule:evenodd;clip-rule:evenodd;fill:#F1E5A7;}
	.st86{fill-rule:evenodd;clip-rule:evenodd;fill:#315B51;}
	.st87{filter:url(#Adobe_OpacityMaskFilter_15_);}
	.st88{fill:url(#SVGID_40_);}
	.st89{mask:url(#SVGID_39_);fill-rule:evenodd;clip-rule:evenodd;fill:#2BB595;}
	.st90{fill:#B0AFB0;}
	.st91{fill:none;stroke:#FFFFFF;stroke-width:0.25;stroke-miterlimit:10;}
	.st92{fill:#C9C9C9;}
	.st93{fill:none;stroke:#B3B3B3;stroke-width:0.5;stroke-miterlimit:10;}
	.st94{opacity:0.28;fill:#666666;}
	.st95{opacity:0.28;clip-path:url(#SVGID_42_);fill:#B3B2B3;}
	.st96{clip-path:url(#SVGID_44_);fill:#EAEAEA;}
	.st97{clip-path:url(#SVGID_46_);fill:#EAEAEA;}
	.st98{clip-path:url(#SVGID_48_);fill:#EAEAEA;}
	.st99{opacity:0.28;clip-path:url(#SVGID_50_);fill:#B3B2B3;}
	.st100{opacity:0.28;clip-path:url(#SVGID_52_);fill:#B3B2B3;}
	.st101{fill:#A3A3A3;}
	.st102{fill:none;stroke:#FFFFFF;stroke-width:1.436;stroke-miterlimit:10;}
	.st103{fill:none;stroke:#2BB898;stroke-miterlimit:10;}
	.st104{fill:url(#SVGID_57_);}
	.st105{fill:#F48133;}
	.st106{fill:#F89C34;}
	.st107{fill:#EBECEC;}
	.st108{fill:#FEFEFE;}
	.st109{fill:#007DC5;}
	.st110{fill:#008ED4;}
	.st111{fill:#008CC3;}
	.st112{fill:#E1E8EC;}
	.st113{fill:#DDE7EC;}
	.st114{fill:#F05931;}
	.st115{fill:#F37933;}
	.st116{fill:#EFE8E5;}
	.st117{fill:#EFE8E4;}
	.st118{fill:#C20E2E;}
	.st119{fill:#DC0330;}
	.st120{fill:#D5AD42;}
	.st121{fill:#446785;}
	.st122{fill:#2E3A25;}
	.st123{fill:#4ABA08;}
	.st124{fill:#865FC5;}
	.st125{fill:url(#SVGID_58_);}
	.st126{fill:#606060;}
	.st127{fill:#3B3735;}
	.st128{fill:#00A470;}
	.st129{fill:#C4C4C4;}
	.st130{fill:none;stroke:#FFFFFF;stroke-width:1.4012;stroke-miterlimit:10;}
	.st131{fill:url(#SVGID_61_);}
	.st132{fill:url(#SVGID_64_);}
	.st133{fill:url(#SVGID_67_);}
	.st134{fill:url(#SVGID_70_);}
</style>
<g>
	<path d="M6.51,14.97c0,0.06,0.01,0.11,0.01,0.16c0.01,0.44,0.01,0.89,0.01,1.33c0,0.47-0.26,0.66-0.71,0.5
		c-2.23-0.81-3.88-2.27-4.94-4.38c-0.69-1.38-0.97-2.85-0.86-4.39c0.26-3.87,3.04-7.1,6.83-7.9c4.88-1.03,9.35,2.14,10.32,6.67
		c0.91,4.26-1.48,8.55-5.59,9.99C11.46,16.98,11.33,17,11.21,17c-0.21,0-0.35-0.15-0.38-0.36c-0.01-0.06,0-0.13,0-0.19
		c0-0.75,0-1.5,0.01-2.25c0-0.27-0.03-0.54-0.1-0.8c-0.08-0.27-0.2-0.53-0.4-0.73c-0.02-0.02-0.03-0.04-0.05-0.07
		c0.13-0.02,0.25-0.04,0.36-0.06c0.43-0.06,0.86-0.16,1.27-0.32c1.09-0.42,1.8-1.19,2.11-2.32c0.17-0.65,0.24-1.31,0.17-1.99
		c-0.06-0.68-0.32-1.28-0.76-1.8c-0.08-0.1-0.09-0.17-0.06-0.29c0.21-0.69,0.14-1.37-0.1-2.03c-0.03-0.09-0.08-0.12-0.17-0.12
		c-0.14,0.01-0.29,0.02-0.43,0.04c-0.35,0.07-0.67,0.2-0.98,0.37c-0.24,0.13-0.48,0.27-0.71,0.42c-0.09,0.06-0.17,0.07-0.27,0.04
		c-0.69-0.18-1.39-0.26-2.1-0.26C7.94,4.29,7.29,4.37,6.66,4.54C6.55,4.57,6.47,4.56,6.38,4.5C6,4.24,5.6,4.01,5.16,3.86
		C4.93,3.78,4.68,3.73,4.44,3.68C4.38,3.66,4.31,3.67,4.24,3.67c-0.08,0-0.12,0.04-0.15,0.11c-0.16,0.44-0.25,0.9-0.21,1.37
		C3.89,5.4,3.95,5.63,4,5.87c0.02,0.09,0.01,0.15-0.05,0.22C3.52,6.59,3.24,7.18,3.18,7.84c-0.09,0.92,0,1.83,0.39,2.69
		c0.37,0.8,0.99,1.33,1.79,1.66c0.49,0.2,1,0.31,1.52,0.38c0.05,0.01,0.09,0.01,0.14,0.02c0.01,0,0.02,0.01,0.03,0.03
		c-0.01,0.02-0.02,0.04-0.03,0.05c-0.24,0.26-0.38,0.58-0.44,0.92c-0.02,0.13-0.08,0.2-0.2,0.24c-0.39,0.13-0.78,0.21-1.19,0.12
		c-0.51-0.11-0.86-0.42-1.13-0.84c-0.12-0.18-0.25-0.36-0.4-0.51c-0.2-0.21-0.46-0.35-0.74-0.42c-0.15-0.04-0.31-0.04-0.46,0
		c-0.16,0.05-0.19,0.14-0.08,0.26c0.07,0.08,0.15,0.15,0.23,0.2c0.37,0.22,0.62,0.55,0.82,0.92c0.05,0.1,0.1,0.19,0.14,0.3
		c0.24,0.62,0.71,0.97,1.34,1.13c0.45,0.11,0.9,0.09,1.36,0.02C6.34,15,6.42,14.98,6.51,14.97z"/>
</g>
</svg>
