<?xml version="1.0" encoding="utf-8"?>
<!-- Generator: Adobe Illustrator 24.1.1, SVG Export Plug-In . SVG Version: 6.00 Build 0)  -->
<svg version="1.1" id="Layer_2" xmlns="http://www.w3.org/2000/svg" xmlns:xlink="http://www.w3.org/1999/xlink" x="0px" y="0px"
	 viewBox="0 0 15.25 17.24" style="enable-background:new 0 0 15.25 17.24;" xml:space="preserve">
<style type="text/css">
	.st0{fill:#CAE0ED;}
	.st1{fill:#DAD5C3;}
	.st2{fill:#CAEFDC;}
	.st3{fill:#D1C9DA;}
	.st4{fill:none;stroke:url(#SVGID_1_);stroke-width:1.0137;stroke-miterlimit:10;}
	.st5{fill:none;stroke:url(#SVGID_2_);stroke-width:1.0137;stroke-miterlimit:10;}
	.st6{fill:none;stroke:url(#SVGID_3_);stroke-width:1.0059;stroke-miterlimit:10;}
	.st7{fill:#B3B2B3;}
	.st8{fill:#D39241;}
	.st9{fill:#315B51;}
	.st10{fill:#C8B34C;}
	.st11{fill:#2BB898;}
	.st12{fill:#385BA6;}
	.st13{fill:#515151;}
	.st14{fill:#F4E8AA;}
	.st15{fill:#FAC86E;}
	.st16{fill:#F4F4F4;}
	.st17{fill:#AD9944;}
	.st18{fill:#00A99D;}
	.st19{fill:#FFFFFF;}
	.st20{fill:#E1E1E1;}
	.st21{fill:#C5B04C;}
	.st22{fill-rule:evenodd;clip-rule:evenodd;fill:#C5B04C;}
	.st23{filter:url(#Adobe_OpacityMaskFilter);}
	.st24{fill:url(#SVGID_5_);}
	.st25{mask:url(#SVGID_4_);fill-rule:evenodd;clip-rule:evenodd;fill:#C5B04C;}
	.st26{filter:url(#Adobe_OpacityMaskFilter_1_);}
	.st27{fill:url(#SVGID_7_);}
	.st28{mask:url(#SVGID_6_);fill-rule:evenodd;clip-rule:evenodd;fill:#F1E5A7;}
	.st29{filter:url(#Adobe_OpacityMaskFilter_2_);}
	.st30{fill:url(#SVGID_9_);}
	.st31{mask:url(#SVGID_8_);fill-rule:evenodd;clip-rule:evenodd;fill:#F1E5A7;}
	.st32{filter:url(#Adobe_OpacityMaskFilter_3_);}
	.st33{fill:url(#SVGID_11_);}
	.st34{mask:url(#SVGID_10_);fill-rule:evenodd;clip-rule:evenodd;fill:#F1E5A7;}
	.st35{filter:url(#Adobe_OpacityMaskFilter_4_);}
	.st36{fill:url(#SVGID_13_);}
	.st37{mask:url(#SVGID_12_);fill-rule:evenodd;clip-rule:evenodd;fill:#F1E5A7;}
	.st38{opacity:0.5;fill-rule:evenodd;clip-rule:evenodd;fill:#C5B04C;}
	.st39{filter:url(#Adobe_OpacityMaskFilter_5_);}
	.st40{fill:url(#SVGID_15_);}
	.st41{mask:url(#SVGID_14_);fill-rule:evenodd;clip-rule:evenodd;fill:#C5B04C;}
	.st42{filter:url(#Adobe_OpacityMaskFilter_6_);}
	.st43{fill:url(#SVGID_17_);}
	.st44{mask:url(#SVGID_16_);fill-rule:evenodd;clip-rule:evenodd;fill:#C5B04C;}
	.st45{fill:none;stroke:#2BB898;stroke-width:1.16;stroke-linecap:round;stroke-linejoin:round;stroke-miterlimit:10;}
	.st46{fill-rule:evenodd;clip-rule:evenodd;fill:none;stroke:#C7C7C7;stroke-width:0.5;stroke-miterlimit:10;}
	.st47{fill-rule:evenodd;clip-rule:evenodd;fill:none;stroke:#C7C7C7;stroke-width:0.75;stroke-miterlimit:10;}
	.st48{fill:#2BB898;stroke:#2BB898;stroke-width:0.7684;stroke-miterlimit:10;}
	.st49{clip-path:url(#SVGID_19_);fill:#BCBCBC;}
	.st50{clip-path:url(#SVGID_19_);fill:#969696;}
	.st51{clip-path:url(#SVGID_19_);}
	.st52{fill:#969696;}
	.st53{fill:#BCBCBC;}
	.st54{fill:none;stroke:#C7C7C7;stroke-width:0.5;stroke-miterlimit:10;}
	.st55{clip-path:url(#SVGID_21_);}
	.st56{fill-rule:evenodd;clip-rule:evenodd;fill:none;stroke:#CACACA;stroke-width:0.5;stroke-miterlimit:10;}
	.st57{fill:#4D4D4D;}
	.st58{fill:#A6D0E4;}
	.st59{fill:url(#);}
	.st60{fill:#A0A0A0;}
	.st61{fill:url(#SVGID_22_);}
	.st62{filter:url(#Adobe_OpacityMaskFilter_7_);}
	.st63{fill:url(#SVGID_24_);}
	.st64{mask:url(#SVGID_23_);fill-rule:evenodd;clip-rule:evenodd;fill:#C5B04C;}
	.st65{filter:url(#Adobe_OpacityMaskFilter_8_);}
	.st66{fill:url(#SVGID_26_);}
	.st67{mask:url(#SVGID_25_);fill-rule:evenodd;clip-rule:evenodd;fill:#F1E5A7;}
	.st68{filter:url(#Adobe_OpacityMaskFilter_9_);}
	.st69{fill:url(#SVGID_28_);}
	.st70{mask:url(#SVGID_27_);fill-rule:evenodd;clip-rule:evenodd;fill:#F1E5A7;}
	.st71{filter:url(#Adobe_OpacityMaskFilter_10_);}
	.st72{fill:url(#SVGID_30_);}
	.st73{mask:url(#SVGID_29_);fill-rule:evenodd;clip-rule:evenodd;fill:#F1E5A7;}
	.st74{filter:url(#Adobe_OpacityMaskFilter_11_);}
	.st75{fill:url(#SVGID_32_);}
	.st76{mask:url(#SVGID_31_);fill-rule:evenodd;clip-rule:evenodd;fill:#F1E5A7;}
	.st77{filter:url(#Adobe_OpacityMaskFilter_12_);}
	.st78{fill:url(#SVGID_34_);}
	.st79{mask:url(#SVGID_33_);fill-rule:evenodd;clip-rule:evenodd;fill:#C5B04C;}
	.st80{filter:url(#Adobe_OpacityMaskFilter_13_);}
	.st81{fill:url(#SVGID_36_);}
	.st82{mask:url(#SVGID_35_);fill-rule:evenodd;clip-rule:evenodd;fill:#C5B04C;}
	.st83{filter:url(#Adobe_OpacityMaskFilter_14_);}
	.st84{fill:url(#SVGID_38_);}
	.st85{mask:url(#SVGID_37_);fill-rule:evenodd;clip-rule:evenodd;fill:#F1E5A7;}
	.st86{fill-rule:evenodd;clip-rule:evenodd;fill:#315B51;}
	.st87{filter:url(#Adobe_OpacityMaskFilter_15_);}
	.st88{fill:url(#SVGID_40_);}
	.st89{mask:url(#SVGID_39_);fill-rule:evenodd;clip-rule:evenodd;fill:#2BB595;}
	.st90{fill:#B0AFB0;}
	.st91{fill:none;stroke:#FFFFFF;stroke-width:0.25;stroke-miterlimit:10;}
	.st92{fill:#C9C9C9;}
	.st93{fill:none;stroke:#B3B3B3;stroke-width:0.5;stroke-miterlimit:10;}
	.st94{opacity:0.28;fill:#666666;}
	.st95{opacity:0.28;clip-path:url(#SVGID_42_);fill:#B3B2B3;}
	.st96{clip-path:url(#SVGID_44_);fill:#EAEAEA;}
	.st97{clip-path:url(#SVGID_46_);fill:#EAEAEA;}
	.st98{clip-path:url(#SVGID_48_);fill:#EAEAEA;}
	.st99{opacity:0.28;clip-path:url(#SVGID_50_);fill:#B3B2B3;}
	.st100{opacity:0.28;clip-path:url(#SVGID_52_);fill:#B3B2B3;}
	.st101{fill:#A3A3A3;}
	.st102{fill:none;stroke:#FFFFFF;stroke-width:1.436;stroke-miterlimit:10;}
	.st103{fill:none;stroke:#2BB898;stroke-miterlimit:10;}
	.st104{fill:url(#SVGID_57_);}
	.st105{fill:#F48133;}
	.st106{fill:#F89C34;}
	.st107{fill:#EBECEC;}
	.st108{fill:#FEFEFE;}
	.st109{fill:#007DC5;}
	.st110{fill:#008ED4;}
	.st111{fill:#008CC3;}
	.st112{fill:#E1E8EC;}
	.st113{fill:#DDE7EC;}
	.st114{fill:#F05931;}
	.st115{fill:#F37933;}
	.st116{fill:#EFE8E5;}
	.st117{fill:#EFE8E4;}
	.st118{fill:#C20E2E;}
	.st119{fill:#DC0330;}
	.st120{fill:#D5AD42;}
	.st121{fill:#446785;}
	.st122{fill:#2E3A25;}
	.st123{fill:#4ABA08;}
	.st124{fill:#865FC5;}
	.st125{fill:url(#SVGID_58_);}
	.st126{fill:#606060;}
	.st127{fill:#3B3735;}
	.st128{fill:#00A470;}
	.st129{fill:#C4C4C4;}
	.st130{fill:none;stroke:#FFFFFF;stroke-width:1.4012;stroke-miterlimit:10;}
	.st131{fill:url(#SVGID_61_);}
	.st132{fill:url(#SVGID_64_);}
	.st133{fill:url(#SVGID_67_);}
	.st134{fill:url(#SVGID_70_);}
</style>
<g>
	<path class="st114" d="M7.63,0.01c2.43,0,4.86,0,7.29-0.01c0.28,0,0.35,0.07,0.32,0.35c-0.28,3.07-0.56,6.14-0.83,9.21
		c-0.17,1.85-0.34,3.7-0.49,5.56c-0.03,0.34-0.15,0.48-0.49,0.57c-1.84,0.49-3.68,1-5.52,1.52c-0.21,0.06-0.4,0.06-0.61,0
		c-1.87-0.52-3.74-1.04-5.62-1.55c-0.23-0.06-0.33-0.15-0.35-0.41c-0.26-3.11-0.55-6.21-0.82-9.32c-0.17-1.85-0.32-3.7-0.5-5.55
		C-0.02,0.07,0.04,0,0.34,0C2.77,0.01,5.2,0.01,7.63,0.01z"/>
	<path class="st115" d="M7.61,3.17c0-0.52,0.01-1.04,0-1.56c0-0.21,0.04-0.31,0.28-0.31c1.9,0.01,3.8,0.01,5.7,0
		c0.25,0,0.29,0.11,0.27,0.32C13.74,2.6,13.67,3.6,13.58,4.6c-0.09,1.13-0.22,2.26-0.33,3.39c-0.06,0.59-0.1,1.19-0.15,1.79
		c-0.09,0.95-0.19,1.9-0.26,2.85c-0.04,0.57-0.08,1.15-0.15,1.72c-0.02,0.16-0.06,0.24-0.23,0.29c-1.5,0.41-3,0.82-4.5,1.25
		c-0.29,0.08-0.36,0.01-0.35-0.28c0.02-0.53,0-1.06,0-1.6c0.04-0.08,0.1-0.12,0.18-0.16c1.08-0.34,2.18-0.61,3.28-0.92
		c0.27-0.08,0.39-0.2,0.41-0.49c0.15-1.64,0.28-3.29,0.44-4.93c0.06-0.31-0.15-0.34-0.38-0.34c-1.03,0-2.06,0-3.08,0
		c-0.98,0-1.96,0-2.95,0C5.36,7.15,5.17,7.21,5.1,7c0.12-0.14,0.29-0.12,0.45-0.12c0.43-0.01,0.85,0,1.28,0c0.67,0,0.66,0,0.67-0.65
		c0.01-0.38-0.07-0.76,0.05-1.13c0.14-0.1,0.31-0.07,0.47-0.07c1.2,0,2.4,0,3.6,0c0.15,0,0.3,0.03,0.43-0.07
		c0.19-0.27,0.11-0.59,0.17-0.88c0.03-0.14,0.01-0.29,0.04-0.44c0.07-0.34-0.16-0.35-0.39-0.35c-1.27,0-2.54,0-3.8,0
		C7.91,3.27,7.74,3.31,7.61,3.17z"/>
	<path class="st107" d="M3.31,8.9C3.18,7.36,3.05,5.81,2.92,4.27C2.9,4.03,2.89,3.78,2.88,3.54C2.79,3.28,2.88,3.2,3.16,3.2
		c1.38,0.01,2.76,0.01,4.13,0c0.27,0,0.35,0.11,0.35,0.34c0,0.39,0.01,0.79,0,1.18C7.63,5.05,7.55,5.13,7.22,5.14
		c-0.57,0.01-1.13,0-1.7,0.01c-0.14,0-0.28-0.02-0.4,0.08C5.01,5.5,5.09,5.77,5.11,6.04C5.14,6.32,5.17,6.6,5.13,6.89
		c-0.1,0.25,0.09,0.2,0.22,0.2c0.62,0,1.24,0,1.86,0c0.41,0,0.43,0.02,0.43,0.43c0.01,0.36,0,0.71,0,1.07
		c0,0.13,0.01,0.26-0.09,0.36C6.29,8.99,5.03,8.95,3.77,8.96C3.62,8.96,3.45,9.03,3.31,8.9z"/>
	<path class="st107" d="M7.48,13.97c-1.12-0.32-2.24-0.65-3.36-0.95c-0.33-0.09-0.46-0.22-0.48-0.57c-0.03-0.75-0.12-1.49-0.2-2.24
		C3.42,9.97,3.49,9.89,3.74,9.9c0.44,0.02,0.88,0.02,1.32,0c0.25-0.01,0.33,0.08,0.33,0.32c0,0.25,0.07,0.51,0.06,0.76
		c-0.02,0.35,0.12,0.5,0.46,0.58c0.55,0.12,1.09,0.29,1.64,0.44c0.1,0.1,0.1,0.23,0.1,0.35c0,0.41,0,0.83,0,1.24
		C7.64,13.74,7.65,13.9,7.48,13.97z"/>
	<path class="st115" d="M3.31,8.9c0.14,0.06,0.3,0.04,0.45,0.04c1.26,0,2.52-0.01,3.79-0.01c0.03-0.03,0.07-0.05,0.1-0.07
		c0.04-0.01,0.08-0.02,0.12-0.03c0.6-0.02,1.2-0.02,1.8-0.01c0.41,0.01,0.51,0.13,0.48,0.53c-0.05,0.6-0.1,1.19-0.17,1.79
		c-0.02,0.18-0.06,0.36-0.26,0.41c-0.63,0.18-1.25,0.41-1.9,0.48c-0.04-0.01-0.08-0.03-0.1-0.07c0-0.87-0.01-1.73,0.01-2.6
		c0.01-0.32-0.1-0.38-0.4-0.38C6.04,9.01,4.86,9,3.69,9C3.56,9,3.4,9.07,3.31,8.9z"/>
	<path class="st116" d="M4.91,5.13C5,4.99,5.14,5.05,5.26,5.05c0.66-0.01,1.32-0.01,1.98,0c0.25,0.01,0.32-0.08,0.31-0.32
		c-0.02-0.4-0.01-0.81,0-1.21c0.01-0.21-0.07-0.28-0.28-0.28c-1.36,0.01-2.73,0.01-4.09,0c-0.24,0-0.31,0.1-0.29,0.31
		c-0.14-0.3-0.02-0.37,0.28-0.37c1.49,0.01,2.97,0,4.46-0.01c1.46,0,2.92,0.01,4.38,0.01c0.47,0,0.47,0.01,0.35,0.49
		c-0.14-0.27-0.37-0.32-0.66-0.32c-1.17,0.01-2.34,0-3.51,0.01c-0.43,0-0.45,0.02-0.45,0.45c0,0.22,0,0.44,0,0.66
		c0.01,0.42,0.03,0.46,0.45,0.46c1.16,0,2.31,0,3.47,0c0.19,0,0.4-0.04,0.56,0.12c-0.11,0.11-0.24,0.06-0.36,0.06
		c-1.43,0.01-2.87,0.01-4.3,0.01c-0.09,0.09-0.2,0.11-0.32,0.11c-0.67,0.01-1.33,0.01-2,0C5.12,5.23,5,5.21,4.91,5.13z"/>
	<path class="st117" d="M7.61,11.97c0.02,0.01,0.05,0.01,0.07,0.02c0.09,0.31,0.03,0.63,0.04,0.95c0.01,0.33,0,0.66,0.04,0.99
		c-0.05,0.02-0.1,0.05-0.15,0.07c-0.05-0.01-0.09-0.02-0.14-0.02c0.14-0.32,0.05-0.66,0.06-0.98c0.02-0.33,0-0.66,0-1
		C7.56,11.99,7.59,11.98,7.61,11.97z"/>
	<path class="st108" d="M7.76,13.93c-0.06-0.01-0.13-0.04-0.13-0.1c0.01-0.61-0.09-1.23,0.05-1.84c0.6-0.17,1.2-0.34,1.8-0.49
		c0.2-0.05,0.28-0.14,0.29-0.35c0.04-0.63,0.1-1.26,0.17-1.89C9.98,9,9.89,8.94,9.65,8.95C9,8.95,8.34,8.94,7.68,8.94
		c-0.13-0.22-0.07-0.47-0.06-0.7c0.01-0.37-0.07-0.75,0.06-1.12C8.44,7.06,9.21,7.1,9.98,7.09c0.54-0.01,1.08,0,1.62,0
		c0.45,0,0.45,0,0.39,0.46c-0.11,1.26-0.21,2.52-0.32,3.79c-0.04,0.44-0.08,0.87-0.11,1.31c-0.01,0.15-0.03,0.26-0.21,0.31
		C10.16,13.27,8.96,13.6,7.76,13.93z"/>
	<path class="st108" d="M12.21,5.05c-1.41,0-2.82-0.01-4.24,0c-0.29,0-0.38-0.08-0.37-0.37c0.02-0.39,0.01-0.79,0-1.18
		c0-0.2,0.07-0.26,0.27-0.26c1.4,0.01,2.8,0.01,4.2,0c0.37,0,0.22,0.26,0.27,0.43C12.33,4.13,12.3,4.6,12.21,5.05z"/>
	<path class="st114" d="M4.91,5.13c0.88-0.05,1.76-0.03,2.63-0.01C7.69,5.68,7.59,6.26,7.6,6.83c0.01,0.19-0.16,0.16-0.28,0.16
		c-0.74,0-1.47,0-2.21,0C5.06,6.95,5.08,6.88,5.05,6.83C5.05,6.26,4.96,5.7,4.91,5.13z"/>
	<path class="st116" d="M5.05,6.83c0.02,0.05,0.05,0.11,0.07,0.16c0.1,0.12,0.24,0.06,0.35,0.06c2.05,0,4.11,0,6.16,0
		c0.49,0,0.5,0.01,0.37,0.51c0.04-0.34-0.08-0.45-0.44-0.44c-1.29,0.03-2.59,0.01-3.88,0.01C7.6,7.58,7.67,8.04,7.64,8.49
		c-0.01,0.15,0.04,0.3-0.03,0.44c-0.02,0-0.05,0-0.07,0c0-0.48-0.01-0.97,0-1.45C7.56,7.21,7.49,7.11,7.2,7.12
		c-0.62,0.02-1.25,0-1.87,0.01C5.1,7.13,5,7.06,5.05,6.83z"/>
	<path class="st107" d="M7.61,8.93c0-0.49,0-0.99,0-1.48c0-0.11-0.04-0.23,0.07-0.32c0,0.6,0,1.21,0,1.81
		C7.66,8.93,7.63,8.93,7.61,8.93z"/>
</g>
</svg>
