<?xml version="1.0" encoding="utf-8"?>
<!-- Generator: Adobe Illustrator 24.1.1, SVG Export Plug-In . SVG Version: 6.00 Build 0)  -->
<svg version="1.1" id="Layer_2" xmlns="http://www.w3.org/2000/svg" xmlns:xlink="http://www.w3.org/1999/xlink" x="0px" y="0px"
	 viewBox="0 0 15.28 17.46" style="enable-background:new 0 0 15.28 17.46;" xml:space="preserve">
<style type="text/css">
	.st0{fill:#CAE0ED;}
	.st1{fill:#DAD5C3;}
	.st2{fill:#CAEFDC;}
	.st3{fill:#D1C9DA;}
	.st4{fill:none;stroke:url(#SVGID_1_);stroke-width:1.0137;stroke-miterlimit:10;}
	.st5{fill:none;stroke:url(#SVGID_2_);stroke-width:1.0137;stroke-miterlimit:10;}
	.st6{fill:none;stroke:url(#SVGID_3_);stroke-width:1.0059;stroke-miterlimit:10;}
	.st7{fill:#B3B2B3;}
	.st8{fill:#D39241;}
	.st9{fill:#315B51;}
	.st10{fill:#C8B34C;}
	.st11{fill:#2BB898;}
	.st12{fill:#385BA6;}
	.st13{fill:#515151;}
	.st14{fill:#F4E8AA;}
	.st15{fill:#FAC86E;}
	.st16{fill:#F4F4F4;}
	.st17{fill:#AD9944;}
	.st18{fill:#00A99D;}
	.st19{fill:#FFFFFF;}
	.st20{fill:#E1E1E1;}
	.st21{fill:#C5B04C;}
	.st22{fill-rule:evenodd;clip-rule:evenodd;fill:#C5B04C;}
	.st23{filter:url(#Adobe_OpacityMaskFilter);}
	.st24{fill:url(#SVGID_5_);}
	.st25{mask:url(#SVGID_4_);fill-rule:evenodd;clip-rule:evenodd;fill:#C5B04C;}
	.st26{filter:url(#Adobe_OpacityMaskFilter_1_);}
	.st27{fill:url(#SVGID_7_);}
	.st28{mask:url(#SVGID_6_);fill-rule:evenodd;clip-rule:evenodd;fill:#F1E5A7;}
	.st29{filter:url(#Adobe_OpacityMaskFilter_2_);}
	.st30{fill:url(#SVGID_9_);}
	.st31{mask:url(#SVGID_8_);fill-rule:evenodd;clip-rule:evenodd;fill:#F1E5A7;}
	.st32{filter:url(#Adobe_OpacityMaskFilter_3_);}
	.st33{fill:url(#SVGID_11_);}
	.st34{mask:url(#SVGID_10_);fill-rule:evenodd;clip-rule:evenodd;fill:#F1E5A7;}
	.st35{filter:url(#Adobe_OpacityMaskFilter_4_);}
	.st36{fill:url(#SVGID_13_);}
	.st37{mask:url(#SVGID_12_);fill-rule:evenodd;clip-rule:evenodd;fill:#F1E5A7;}
	.st38{opacity:0.5;fill-rule:evenodd;clip-rule:evenodd;fill:#C5B04C;}
	.st39{filter:url(#Adobe_OpacityMaskFilter_5_);}
	.st40{fill:url(#SVGID_15_);}
	.st41{mask:url(#SVGID_14_);fill-rule:evenodd;clip-rule:evenodd;fill:#C5B04C;}
	.st42{filter:url(#Adobe_OpacityMaskFilter_6_);}
	.st43{fill:url(#SVGID_17_);}
	.st44{mask:url(#SVGID_16_);fill-rule:evenodd;clip-rule:evenodd;fill:#C5B04C;}
	.st45{fill:none;stroke:#2BB898;stroke-width:1.16;stroke-linecap:round;stroke-linejoin:round;stroke-miterlimit:10;}
	.st46{fill-rule:evenodd;clip-rule:evenodd;fill:none;stroke:#C7C7C7;stroke-width:0.5;stroke-miterlimit:10;}
	.st47{fill-rule:evenodd;clip-rule:evenodd;fill:none;stroke:#C7C7C7;stroke-width:0.75;stroke-miterlimit:10;}
	.st48{fill:#2BB898;stroke:#2BB898;stroke-width:0.7684;stroke-miterlimit:10;}
	.st49{clip-path:url(#SVGID_19_);fill:#BCBCBC;}
	.st50{clip-path:url(#SVGID_19_);fill:#969696;}
	.st51{clip-path:url(#SVGID_19_);}
	.st52{fill:#969696;}
	.st53{fill:#BCBCBC;}
	.st54{fill:none;stroke:#C7C7C7;stroke-width:0.5;stroke-miterlimit:10;}
	.st55{clip-path:url(#SVGID_21_);}
	.st56{fill-rule:evenodd;clip-rule:evenodd;fill:none;stroke:#CACACA;stroke-width:0.5;stroke-miterlimit:10;}
	.st57{fill:#4D4D4D;}
	.st58{fill:#A6D0E4;}
	.st59{fill:url(#);}
	.st60{fill:#A0A0A0;}
	.st61{fill:url(#SVGID_22_);}
	.st62{filter:url(#Adobe_OpacityMaskFilter_7_);}
	.st63{fill:url(#SVGID_24_);}
	.st64{mask:url(#SVGID_23_);fill-rule:evenodd;clip-rule:evenodd;fill:#C5B04C;}
	.st65{filter:url(#Adobe_OpacityMaskFilter_8_);}
	.st66{fill:url(#SVGID_26_);}
	.st67{mask:url(#SVGID_25_);fill-rule:evenodd;clip-rule:evenodd;fill:#F1E5A7;}
	.st68{filter:url(#Adobe_OpacityMaskFilter_9_);}
	.st69{fill:url(#SVGID_28_);}
	.st70{mask:url(#SVGID_27_);fill-rule:evenodd;clip-rule:evenodd;fill:#F1E5A7;}
	.st71{filter:url(#Adobe_OpacityMaskFilter_10_);}
	.st72{fill:url(#SVGID_30_);}
	.st73{mask:url(#SVGID_29_);fill-rule:evenodd;clip-rule:evenodd;fill:#F1E5A7;}
	.st74{filter:url(#Adobe_OpacityMaskFilter_11_);}
	.st75{fill:url(#SVGID_32_);}
	.st76{mask:url(#SVGID_31_);fill-rule:evenodd;clip-rule:evenodd;fill:#F1E5A7;}
	.st77{filter:url(#Adobe_OpacityMaskFilter_12_);}
	.st78{fill:url(#SVGID_34_);}
	.st79{mask:url(#SVGID_33_);fill-rule:evenodd;clip-rule:evenodd;fill:#C5B04C;}
	.st80{filter:url(#Adobe_OpacityMaskFilter_13_);}
	.st81{fill:url(#SVGID_36_);}
	.st82{mask:url(#SVGID_35_);fill-rule:evenodd;clip-rule:evenodd;fill:#C5B04C;}
	.st83{filter:url(#Adobe_OpacityMaskFilter_14_);}
	.st84{fill:url(#SVGID_38_);}
	.st85{mask:url(#SVGID_37_);fill-rule:evenodd;clip-rule:evenodd;fill:#F1E5A7;}
	.st86{fill-rule:evenodd;clip-rule:evenodd;fill:#315B51;}
	.st87{filter:url(#Adobe_OpacityMaskFilter_15_);}
	.st88{fill:url(#SVGID_40_);}
	.st89{mask:url(#SVGID_39_);fill-rule:evenodd;clip-rule:evenodd;fill:#2BB595;}
	.st90{fill:#B0AFB0;}
	.st91{fill:none;stroke:#FFFFFF;stroke-width:0.25;stroke-miterlimit:10;}
	.st92{fill:#C9C9C9;}
	.st93{fill:none;stroke:#B3B3B3;stroke-width:0.5;stroke-miterlimit:10;}
	.st94{opacity:0.28;fill:#666666;}
	.st95{opacity:0.28;clip-path:url(#SVGID_42_);fill:#B3B2B3;}
	.st96{clip-path:url(#SVGID_44_);fill:#EAEAEA;}
	.st97{clip-path:url(#SVGID_46_);fill:#EAEAEA;}
	.st98{clip-path:url(#SVGID_48_);fill:#EAEAEA;}
	.st99{opacity:0.28;clip-path:url(#SVGID_50_);fill:#B3B2B3;}
	.st100{opacity:0.28;clip-path:url(#SVGID_52_);fill:#B3B2B3;}
	.st101{fill:#A3A3A3;}
	.st102{fill:none;stroke:#FFFFFF;stroke-width:1.436;stroke-miterlimit:10;}
	.st103{fill:none;stroke:#2BB898;stroke-miterlimit:10;}
	.st104{fill:url(#SVGID_57_);}
	.st105{fill:#F48133;}
	.st106{fill:#F89C34;}
	.st107{fill:#EBECEC;}
	.st108{fill:#FEFEFE;}
	.st109{fill:#007DC5;}
	.st110{fill:#008ED4;}
	.st111{fill:#008CC3;}
	.st112{fill:#E1E8EC;}
	.st113{fill:#DDE7EC;}
	.st114{fill:#F05931;}
	.st115{fill:#F37933;}
	.st116{fill:#EFE8E5;}
	.st117{fill:#EFE8E4;}
	.st118{fill:#C20E2E;}
	.st119{fill:#DC0330;}
	.st120{fill:#D5AD42;}
	.st121{fill:#446785;}
	.st122{fill:#2E3A25;}
	.st123{fill:#4ABA08;}
	.st124{fill:#865FC5;}
	.st125{fill:url(#SVGID_58_);}
	.st126{fill:#606060;}
	.st127{fill:#3B3735;}
	.st128{fill:#00A470;}
	.st129{fill:#C4C4C4;}
	.st130{fill:none;stroke:#FFFFFF;stroke-width:1.4012;stroke-miterlimit:10;}
	.st131{fill:url(#SVGID_61_);}
	.st132{fill:url(#SVGID_64_);}
	.st133{fill:url(#SVGID_67_);}
	.st134{fill:url(#SVGID_70_);}
</style>
<g>
	<path class="st105" d="M7.64,0.14c2.44,0,4.87,0,7.31-0.01c0.29,0,0.36,0.07,0.33,0.37c-0.23,2.49-0.44,4.98-0.66,7.47
		c-0.22,2.5-0.46,5-0.67,7.5c-0.02,0.2-0.1,0.27-0.28,0.32c-1.93,0.53-3.87,1.06-5.8,1.6c-0.16,0.05-0.32,0.04-0.48-0.01
		c-1.91-0.53-3.82-1.06-5.73-1.58c-0.2-0.05-0.28-0.14-0.3-0.35c-0.12-1.42-0.25-2.84-0.38-4.25C0.77,8.93,0.57,6.66,0.37,4.39
		C0.25,3.07,0.13,1.74,0,0.42c-0.03-0.3,0.12-0.28,0.33-0.28C2.77,0.14,5.2,0.14,7.64,0.14z"/>
	<path class="st106" d="M7.66,8.76c0-2.32,0.01-4.63-0.01-6.95c0-0.31,0.09-0.39,0.39-0.39c1.83,0.01,3.67,0.01,5.5,0
		c0.25,0,0.38-0.01,0.33,0.34c-0.12,0.91-0.15,1.83-0.23,2.75c-0.1,1.16-0.23,2.31-0.34,3.47c-0.06,0.61-0.1,1.22-0.15,1.82
		c-0.08,0.92-0.2,1.83-0.26,2.75c-0.04,0.63-0.12,1.26-0.16,1.89c-0.01,0.18-0.05,0.28-0.25,0.34c-1.48,0.4-2.96,0.82-4.44,1.23
		c-0.39,0.11-0.39,0.1-0.39-0.32C7.66,13.39,7.66,11.08,7.66,8.76z"/>
	<path class="st107" d="M7.24,8.71c0,1.66,0,3.31,0,4.97c0,0.27-0.03,0.37-0.34,0.28c-0.98-0.29-1.96-0.56-2.95-0.82
		c-0.16-0.04-0.26-0.1-0.27-0.29c-0.06-0.82-0.13-1.64-0.21-2.46c-0.02-0.23,0.01-0.37,0.28-0.27c0.03,0.01,0.07,0.01,0.1,0.01
		c0.81,0.13,0.82,0.13,0.87,0.95c0.01,0.2,0.09,0.29,0.27,0.33c0.21,0.05,0.43,0.1,0.64,0.18c0.25,0.1,0.26-0.03,0.26-0.22
		C5.81,8.82,5.73,6.26,5.63,3.7C5.61,3.4,5.69,3.29,6,3.32c0.31,0.03,0.63,0.02,0.94,0C7.19,3.3,7.25,3.4,7.25,3.64
		C7.24,5.33,7.24,7.02,7.24,8.71z"/>
	<path class="st108" d="M8,6.21C8,5.35,8.01,4.5,8,3.64c0-0.23,0.04-0.33,0.3-0.32c1.29,0.01,2.57,0.01,3.86,0
		c0.22,0,0.31,0.03,0.27,0.29c-0.06,0.41-0.09,0.83-0.1,1.24c-0.01,0.22-0.09,0.31-0.31,0.31c-0.66,0.01-1.32,0.03-1.98,0.03
		c-0.23,0-0.34,0.05-0.34,0.3c0,0.49-0.03,0.97-0.06,1.46C9.62,7.16,9.7,7.21,9.89,7.2c0.65-0.01,1.3,0,1.95-0.01
		c0.22,0,0.27,0.05,0.24,0.28c-0.16,1.73-0.32,3.46-0.45,5.18c-0.02,0.3-0.12,0.44-0.42,0.52c-0.97,0.25-1.92,0.51-2.88,0.79
		C8.08,14.04,7.99,14.01,8,13.74c0.02-0.46,0.02-0.93,0-1.39c-0.01-0.24,0.08-0.32,0.3-0.37c0.55-0.12,1.1-0.28,1.65-0.41
		c0.19-0.05,0.28-0.13,0.3-0.35c0.04-0.67,0.1-1.34,0.18-2c0.03-0.26-0.07-0.29-0.29-0.27C9.55,9.01,8.96,9.03,8.37,9.09
		C8.05,9.13,7.99,9.01,8,8.71C8.02,7.88,8,7.04,8,6.21z"/>
</g>
</svg>
