<?xml version="1.0" encoding="utf-8"?>
<!-- Generator: Adobe Illustrator 24.1.1, SVG Export Plug-In . SVG Version: 6.00 Build 0)  -->
<svg version="1.1" id="Layer_2" xmlns="http://www.w3.org/2000/svg" xmlns:xlink="http://www.w3.org/1999/xlink" x="0px" y="0px"
	 viewBox="0 0 19.3 16.87" style="enable-background:new 0 0 19.3 16.87;" xml:space="preserve">
<style type="text/css">
	.st0{fill:#CAE0ED;}
	.st1{fill:#DAD5C3;}
	.st2{fill:#CAEFDC;}
	.st3{fill:#D1C9DA;}
	.st4{fill:none;stroke:url(#SVGID_1_);stroke-width:1.0137;stroke-miterlimit:10;}
	.st5{fill:none;stroke:url(#SVGID_2_);stroke-width:1.0137;stroke-miterlimit:10;}
	.st6{fill:none;stroke:url(#SVGID_3_);stroke-width:1.0059;stroke-miterlimit:10;}
	.st7{fill:#B3B2B3;}
	.st8{fill:#D39241;}
	.st9{fill:#315B51;}
	.st10{fill:#C8B34C;}
	.st11{fill:#2BB898;}
	.st12{fill:#385BA6;}
	.st13{fill:#515151;}
	.st14{fill:#F4E8AA;}
	.st15{fill:#FAC86E;}
	.st16{fill:#F4F4F4;}
	.st17{fill:#AD9944;}
	.st18{fill:#00A99D;}
	.st19{fill:#FFFFFF;}
	.st20{fill:#E1E1E1;}
	.st21{fill:#C5B04C;}
	.st22{fill-rule:evenodd;clip-rule:evenodd;fill:#C5B04C;}
	.st23{filter:url(#Adobe_OpacityMaskFilter);}
	.st24{fill:url(#SVGID_5_);}
	.st25{mask:url(#SVGID_4_);fill-rule:evenodd;clip-rule:evenodd;fill:#C5B04C;}
	.st26{filter:url(#Adobe_OpacityMaskFilter_1_);}
	.st27{fill:url(#SVGID_7_);}
	.st28{mask:url(#SVGID_6_);fill-rule:evenodd;clip-rule:evenodd;fill:#F1E5A7;}
	.st29{filter:url(#Adobe_OpacityMaskFilter_2_);}
	.st30{fill:url(#SVGID_9_);}
	.st31{mask:url(#SVGID_8_);fill-rule:evenodd;clip-rule:evenodd;fill:#F1E5A7;}
	.st32{filter:url(#Adobe_OpacityMaskFilter_3_);}
	.st33{fill:url(#SVGID_11_);}
	.st34{mask:url(#SVGID_10_);fill-rule:evenodd;clip-rule:evenodd;fill:#F1E5A7;}
	.st35{filter:url(#Adobe_OpacityMaskFilter_4_);}
	.st36{fill:url(#SVGID_13_);}
	.st37{mask:url(#SVGID_12_);fill-rule:evenodd;clip-rule:evenodd;fill:#F1E5A7;}
	.st38{opacity:0.5;fill-rule:evenodd;clip-rule:evenodd;fill:#C5B04C;}
	.st39{filter:url(#Adobe_OpacityMaskFilter_5_);}
	.st40{fill:url(#SVGID_15_);}
	.st41{mask:url(#SVGID_14_);fill-rule:evenodd;clip-rule:evenodd;fill:#C5B04C;}
	.st42{filter:url(#Adobe_OpacityMaskFilter_6_);}
	.st43{fill:url(#SVGID_17_);}
	.st44{mask:url(#SVGID_16_);fill-rule:evenodd;clip-rule:evenodd;fill:#C5B04C;}
	.st45{fill:none;stroke:#2BB898;stroke-width:1.16;stroke-linecap:round;stroke-linejoin:round;stroke-miterlimit:10;}
	.st46{fill-rule:evenodd;clip-rule:evenodd;fill:none;stroke:#C7C7C7;stroke-width:0.5;stroke-miterlimit:10;}
	.st47{fill-rule:evenodd;clip-rule:evenodd;fill:none;stroke:#C7C7C7;stroke-width:0.75;stroke-miterlimit:10;}
	.st48{fill:#2BB898;stroke:#2BB898;stroke-width:0.7684;stroke-miterlimit:10;}
	.st49{clip-path:url(#SVGID_19_);fill:#BCBCBC;}
	.st50{clip-path:url(#SVGID_19_);fill:#969696;}
	.st51{clip-path:url(#SVGID_19_);}
	.st52{fill:#969696;}
	.st53{fill:#BCBCBC;}
	.st54{fill:none;stroke:#C7C7C7;stroke-width:0.5;stroke-miterlimit:10;}
	.st55{clip-path:url(#SVGID_21_);}
	.st56{fill-rule:evenodd;clip-rule:evenodd;fill:none;stroke:#CACACA;stroke-width:0.5;stroke-miterlimit:10;}
	.st57{fill:#4D4D4D;}
	.st58{fill:#A6D0E4;}
	.st59{fill:url(#);}
	.st60{fill:#A0A0A0;}
	.st61{fill:url(#SVGID_22_);}
	.st62{filter:url(#Adobe_OpacityMaskFilter_7_);}
	.st63{fill:url(#SVGID_24_);}
	.st64{mask:url(#SVGID_23_);fill-rule:evenodd;clip-rule:evenodd;fill:#C5B04C;}
	.st65{filter:url(#Adobe_OpacityMaskFilter_8_);}
	.st66{fill:url(#SVGID_26_);}
	.st67{mask:url(#SVGID_25_);fill-rule:evenodd;clip-rule:evenodd;fill:#F1E5A7;}
	.st68{filter:url(#Adobe_OpacityMaskFilter_9_);}
	.st69{fill:url(#SVGID_28_);}
	.st70{mask:url(#SVGID_27_);fill-rule:evenodd;clip-rule:evenodd;fill:#F1E5A7;}
	.st71{filter:url(#Adobe_OpacityMaskFilter_10_);}
	.st72{fill:url(#SVGID_30_);}
	.st73{mask:url(#SVGID_29_);fill-rule:evenodd;clip-rule:evenodd;fill:#F1E5A7;}
	.st74{filter:url(#Adobe_OpacityMaskFilter_11_);}
	.st75{fill:url(#SVGID_32_);}
	.st76{mask:url(#SVGID_31_);fill-rule:evenodd;clip-rule:evenodd;fill:#F1E5A7;}
	.st77{filter:url(#Adobe_OpacityMaskFilter_12_);}
	.st78{fill:url(#SVGID_34_);}
	.st79{mask:url(#SVGID_33_);fill-rule:evenodd;clip-rule:evenodd;fill:#C5B04C;}
	.st80{filter:url(#Adobe_OpacityMaskFilter_13_);}
	.st81{fill:url(#SVGID_36_);}
	.st82{mask:url(#SVGID_35_);fill-rule:evenodd;clip-rule:evenodd;fill:#C5B04C;}
	.st83{filter:url(#Adobe_OpacityMaskFilter_14_);}
	.st84{fill:url(#SVGID_38_);}
	.st85{mask:url(#SVGID_37_);fill-rule:evenodd;clip-rule:evenodd;fill:#F1E5A7;}
	.st86{fill-rule:evenodd;clip-rule:evenodd;fill:#315B51;}
	.st87{filter:url(#Adobe_OpacityMaskFilter_15_);}
	.st88{fill:url(#SVGID_40_);}
	.st89{mask:url(#SVGID_39_);fill-rule:evenodd;clip-rule:evenodd;fill:#2BB595;}
	.st90{fill:#B0AFB0;}
	.st91{fill:none;stroke:#FFFFFF;stroke-width:0.25;stroke-miterlimit:10;}
	.st92{fill:#C9C9C9;}
	.st93{fill:none;stroke:#B3B3B3;stroke-width:0.5;stroke-miterlimit:10;}
	.st94{opacity:0.28;fill:#666666;}
	.st95{opacity:0.28;clip-path:url(#SVGID_42_);fill:#B3B2B3;}
	.st96{clip-path:url(#SVGID_44_);fill:#EAEAEA;}
	.st97{clip-path:url(#SVGID_46_);fill:#EAEAEA;}
	.st98{clip-path:url(#SVGID_48_);fill:#EAEAEA;}
	.st99{opacity:0.28;clip-path:url(#SVGID_50_);fill:#B3B2B3;}
	.st100{opacity:0.28;clip-path:url(#SVGID_52_);fill:#B3B2B3;}
	.st101{fill:#A3A3A3;}
	.st102{fill:none;stroke:#FFFFFF;stroke-width:1.436;stroke-miterlimit:10;}
	.st103{fill:none;stroke:#2BB898;stroke-miterlimit:10;}
	.st104{fill:url(#SVGID_57_);}
	.st105{fill:#F48133;}
	.st106{fill:#F89C34;}
	.st107{fill:#EBECEC;}
	.st108{fill:#FEFEFE;}
	.st109{fill:#007DC5;}
	.st110{fill:#008ED4;}
	.st111{fill:#008CC3;}
	.st112{fill:#E1E8EC;}
	.st113{fill:#DDE7EC;}
	.st114{fill:#F05931;}
	.st115{fill:#F37933;}
	.st116{fill:#EFE8E5;}
	.st117{fill:#EFE8E4;}
	.st118{fill:#C20E2E;}
	.st119{fill:#DC0330;}
	.st120{fill:#D5AD42;}
	.st121{fill:#446785;}
	.st122{fill:#2E3A25;}
	.st123{fill:#4ABA08;}
	.st124{fill:#865FC5;}
	.st125{fill:url(#SVGID_58_);}
	.st126{fill:#606060;}
	.st127{fill:#3B3735;}
	.st128{fill:#00A470;}
	.st129{fill:#C4C4C4;}
	.st130{fill:none;stroke:#FFFFFF;stroke-width:1.4012;stroke-miterlimit:10;}
	.st131{fill:url(#SVGID_61_);}
	.st132{fill:url(#SVGID_64_);}
	.st133{fill:url(#SVGID_67_);}
	.st134{fill:url(#SVGID_70_);}
</style>
<g>
	<path class="st119" d="M17.79,4.07c-0.09,0.07-0.17,0.13-0.26,0.2c-0.05-0.03-0.09-0.07-0.14-0.1c-0.66-0.47-1.35-0.89-2.1-1.21
		c-0.59-0.25-1.2-0.44-1.84-0.53c-1.02-0.14-1.99,0-2.92,0.43C9.11,3.5,8.22,4.6,7.77,6.07c-0.15,0.49-0.24,0.99-0.28,1.5
		C7.44,8.06,7.44,8.54,7.47,9.03c0.02,0.3,0.07,0.6,0.11,0.9c0,0.03,0.01,0.07,0.01,0.1c-0.09,0.03-5.56,0.03-5.7,0
		C1.92,9.87,1.95,9.7,1.98,9.54C2.37,7.71,3.1,6.03,4.21,4.52c0.84-1.16,1.87-2.12,3.1-2.86C7.9,1.3,8.52,1.02,9.19,0.86
		c0.42-0.1,0.84-0.14,1.26-0.14c1.06-0.01,2.07,0.22,3.05,0.61c1.14,0.44,2.18,1.06,3.15,1.8c0.35,0.27,0.69,0.57,1.03,0.86
		C17.71,4.02,17.75,4.04,17.79,4.07z"/>
	<path class="st119" d="M3.01,15.27c0.53,0.54,1.05,1.06,1.59,1.6c-0.06,0-0.1,0.01-0.13,0.01c-0.59,0-1.19,0-1.78,0
		c-0.09,0-0.15-0.03-0.2-0.09c-0.33-0.35-0.66-0.69-1-1.04c-0.03-0.03-0.06-0.06-0.11-0.11c-0.02,0.15-0.01,0.28-0.01,0.41
		c0,0.14,0,0.27,0,0.41c0,0.13,0,0.26,0,0.4c-0.46,0-0.91,0-1.36,0c-0.03-0.09-0.04-4.94-0.01-5.12c0.03,0,0.07-0.01,0.1-0.01
		c0.86,0,1.72,0,2.58,0c0.64,0,1.31,0.51,1.5,1.15c0.15,0.49,0.13,0.98-0.05,1.46c-0.18,0.48-0.53,0.78-1.03,0.89
		C3.07,15.24,3.05,15.25,3.01,15.27z M1.36,14.19C1.39,14.2,1.4,14.2,1.41,14.2c0.33,0,0.67,0,1,0c0.05,0,0.1-0.03,0.14-0.06
		c0.14-0.1,0.2-0.25,0.22-0.42c0.03-0.21,0-0.4-0.14-0.57c-0.07-0.09-0.15-0.14-0.28-0.13c-0.29,0.01-0.59,0-0.88,0
		c-0.04,0-0.08,0-0.13,0.01C1.36,13.42,1.36,13.8,1.36,14.19z"/>
	<path class="st119" d="M9.03,16.87c-0.46,0-0.9,0-1.36,0c0-0.3,0-0.59,0-0.88c-0.45,0-0.88,0-1.33,0c0,0.29,0,0.58,0,0.86
		c-0.1,0.03-1.09,0.04-1.39,0.02c0-0.03-0.01-0.06-0.01-0.09c0-1.23,0-2.45,0-3.68c0-0.61,0.43-1.15,1.01-1.29
		c0.11-0.03,0.22-0.04,0.33-0.04c0.46,0,0.93-0.01,1.39,0c0.34,0,0.64,0.11,0.9,0.32c0.31,0.24,0.44,0.57,0.46,0.95
		c0,0.05,0,0.11,0,0.16c0,1.17,0,2.34,0,3.51C9.03,16.76,9.03,16.81,9.03,16.87z M7.65,14.51c0-0.02,0.01-0.04,0.01-0.05
		c0-0.39,0-0.78,0-1.16c0-0.15-0.09-0.25-0.23-0.29c-0.06-0.02-0.13-0.02-0.2-0.03c-0.15,0-0.3,0-0.45,0
		c-0.07,0-0.15,0.01-0.22,0.03c-0.16,0.04-0.24,0.15-0.24,0.32c0,0.36,0,0.73,0,1.09c0,0.03,0.01,0.06,0.01,0.1
		C6.79,14.51,7.22,14.51,7.65,14.51z"/>
	<path class="st119" d="M15.67,16.87c0-0.43,0-0.85,0-1.28c0.4-0.01,0.79-0.01,1.19-0.01c0.4,0,0.79-0.01,1.19-0.01
		c0-0.21,0-0.41,0-0.63c-0.04,0-0.09-0.01-0.13-0.01c-0.32,0-0.64,0-0.95,0c-0.37,0-0.69-0.13-0.96-0.38
		c-0.26-0.23-0.39-0.53-0.41-0.87c-0.01-0.23-0.01-0.47,0.01-0.7c0.06-0.69,0.63-1.1,1.13-1.18c0.07-0.01,0.15-0.02,0.22-0.02
		c0.7,0,1.4,0,2.11,0c0.03,0,0.06,0,0.1,0c0,0.43,0,0.86,0,1.3c-0.77,0-1.54,0-2.32,0c0,0.21,0,0.41,0,0.62c0.05,0,0.1,0,0.14,0
		c0.34,0,0.69,0,1.03,0c0.37,0,0.69,0.13,0.96,0.39c0.25,0.24,0.37,0.54,0.38,0.89c0.01,0.23,0.01,0.46-0.01,0.69
		c-0.06,0.67-0.61,1.2-1.29,1.2c-0.77,0.01-1.54,0-2.3,0C15.73,16.88,15.7,16.87,15.67,16.87z"/>
	<path class="st119" d="M11.75,16.87c0-1.7,0-3.39,0-5.09c0.48,0,0.96,0,1.44,0c0,1.26,0,2.51,0,3.78c0.14,0.01,0.27,0,0.4,0
		c0.13,0,0.26,0,0.38,0c0.13,0,0.26,0,0.4,0c0.13,0,0.26,0,0.38,0c0.13,0,0.26,0,0.4,0c0,0.44,0,0.87,0,1.31
		C14.03,16.87,12.9,16.87,11.75,16.87z"/>
	<path class="st119" d="M9.7,11.78c0.48,0,0.96,0,1.44,0c0,1.7,0,3.39,0,5.08c-0.09,0.03-1.23,0.03-1.43,0.01
		C9.68,16.78,9.67,11.93,9.7,11.78z"/>
	<path class="st119" d="M1.75,6.27c0.28,0.1,0.54,0.2,0.82,0.3C2.46,6.86,2.34,7.13,2.22,7.43c-0.27-0.1-0.54-0.2-0.82-0.3
		C1.51,6.83,1.63,6.55,1.75,6.27z"/>
	<path class="st119" d="M7.85,8.62C8.1,8.71,8.35,8.8,8.59,8.88C8.65,9.19,8.7,9.49,8.76,9.81C8.73,9.8,8.7,9.79,8.68,9.79
		C8.45,9.7,8.22,9.62,7.99,9.54C7.95,9.52,7.91,9.51,7.9,9.45C7.87,9.18,7.85,8.91,7.82,8.64C7.83,8.63,7.84,8.62,7.85,8.62z"/>
	<path class="st119" d="M4.76,3.33C4.59,3.52,4.44,3.71,4.27,3.9C4.09,3.74,3.91,3.59,3.72,3.43C3.9,3.25,4.07,3.07,4.25,2.89
		C4.42,3.04,4.59,3.19,4.76,3.33z"/>
	<path class="st119" d="M8.66,6.38C8.6,6.66,8.55,6.93,8.5,7.21c-0.07-0.05-0.13-0.1-0.19-0.15C8.21,6.98,8.1,6.9,7.99,6.81
		c-0.04-0.03-0.06-0.06-0.05-0.1c0.06-0.24,0.13-0.48,0.19-0.74C8.32,6.12,8.49,6.25,8.66,6.38z"/>
	<path class="st119" d="M9.43,3.96c0.11,0.17,0.22,0.33,0.32,0.48C9.6,4.61,9.47,4.77,9.32,4.95C9.21,4.78,9.1,4.61,8.98,4.44
		C9.12,4.27,9.26,4.12,9.43,3.96z"/>
	<path class="st119" d="M6.61,1C6.8,0.9,6.98,0.8,7.17,0.7c0.11,0.17,0.21,0.32,0.32,0.49C7.31,1.29,7.13,1.39,6.94,1.5
		C6.83,1.34,6.73,1.18,6.61,1z"/>
	<path class="st119" d="M13.79,1.15c-0.24-0.09-0.46-0.17-0.69-0.26c0.01-0.15,0.02-0.3,0.03-0.46c0.24,0.07,0.47,0.14,0.69,0.25
		C13.81,0.83,13.8,0.98,13.79,1.15z"/>
	<path class="st119" d="M11.41,2.86c0.06,0.17,0.11,0.32,0.16,0.47c-0.21,0.08-0.4,0.16-0.62,0.25c-0.06-0.16-0.11-0.31-0.17-0.49
		C10.99,3.01,11.19,2.94,11.41,2.86z"/>
	<path class="st119" d="M13.79,3.21c-0.24-0.03-0.46-0.06-0.7-0.09c0.01-0.14,0.02-0.28,0.03-0.43c0.24,0,0.47,0.04,0.71,0.09
		C13.81,2.93,13.8,3.07,13.79,3.21z"/>
	<path class="st119" d="M10.5,0.42c-0.24,0.01-0.46,0.02-0.69,0.03C9.76,0.32,9.72,0.19,9.67,0.04C9.91,0.01,10.13-0.01,10.36,0
		C10.4,0.14,10.45,0.27,10.5,0.42z"/>
</g>
</svg>
