<?xml version="1.0" encoding="utf-8"?>
<!-- Generator: Adobe Illustrator 24.1.1, SVG Export Plug-In . SVG Version: 6.00 Build 0)  -->
<svg version="1.1" id="Layer_2" xmlns="http://www.w3.org/2000/svg" xmlns:xlink="http://www.w3.org/1999/xlink" x="0px" y="0px"
	 viewBox="0 0 17.69 17.77" style="enable-background:new 0 0 17.69 17.77;" xml:space="preserve">
<style type="text/css">
	.st0{fill:#CAE0ED;}
	.st1{fill:#DAD5C3;}
	.st2{fill:#CAEFDC;}
	.st3{fill:#D1C9DA;}
	.st4{fill:none;stroke:url(#SVGID_1_);stroke-width:1.0137;stroke-miterlimit:10;}
	.st5{fill:none;stroke:url(#SVGID_2_);stroke-width:1.0137;stroke-miterlimit:10;}
	.st6{fill:none;stroke:url(#SVGID_3_);stroke-width:1.0059;stroke-miterlimit:10;}
	.st7{fill:#B3B2B3;}
	.st8{fill:#D39241;}
	.st9{fill:#315B51;}
	.st10{fill:#C8B34C;}
	.st11{fill:#2BB898;}
	.st12{fill:#385BA6;}
	.st13{fill:#515151;}
	.st14{fill:#F4E8AA;}
	.st15{fill:#FAC86E;}
	.st16{fill:#F4F4F4;}
	.st17{fill:#AD9944;}
	.st18{fill:#00A99D;}
	.st19{fill:#FFFFFF;}
	.st20{fill:#E1E1E1;}
	.st21{fill:#C5B04C;}
	.st22{fill-rule:evenodd;clip-rule:evenodd;fill:#C5B04C;}
	.st23{filter:url(#Adobe_OpacityMaskFilter);}
	.st24{fill:url(#SVGID_5_);}
	.st25{mask:url(#SVGID_4_);fill-rule:evenodd;clip-rule:evenodd;fill:#C5B04C;}
	.st26{filter:url(#Adobe_OpacityMaskFilter_1_);}
	.st27{fill:url(#SVGID_7_);}
	.st28{mask:url(#SVGID_6_);fill-rule:evenodd;clip-rule:evenodd;fill:#F1E5A7;}
	.st29{filter:url(#Adobe_OpacityMaskFilter_2_);}
	.st30{fill:url(#SVGID_9_);}
	.st31{mask:url(#SVGID_8_);fill-rule:evenodd;clip-rule:evenodd;fill:#F1E5A7;}
	.st32{filter:url(#Adobe_OpacityMaskFilter_3_);}
	.st33{fill:url(#SVGID_11_);}
	.st34{mask:url(#SVGID_10_);fill-rule:evenodd;clip-rule:evenodd;fill:#F1E5A7;}
	.st35{filter:url(#Adobe_OpacityMaskFilter_4_);}
	.st36{fill:url(#SVGID_13_);}
	.st37{mask:url(#SVGID_12_);fill-rule:evenodd;clip-rule:evenodd;fill:#F1E5A7;}
	.st38{opacity:0.5;fill-rule:evenodd;clip-rule:evenodd;fill:#C5B04C;}
	.st39{filter:url(#Adobe_OpacityMaskFilter_5_);}
	.st40{fill:url(#SVGID_15_);}
	.st41{mask:url(#SVGID_14_);fill-rule:evenodd;clip-rule:evenodd;fill:#C5B04C;}
	.st42{filter:url(#Adobe_OpacityMaskFilter_6_);}
	.st43{fill:url(#SVGID_17_);}
	.st44{mask:url(#SVGID_16_);fill-rule:evenodd;clip-rule:evenodd;fill:#C5B04C;}
	.st45{fill:none;stroke:#2BB898;stroke-width:1.16;stroke-linecap:round;stroke-linejoin:round;stroke-miterlimit:10;}
	.st46{fill-rule:evenodd;clip-rule:evenodd;fill:none;stroke:#C7C7C7;stroke-width:0.5;stroke-miterlimit:10;}
	.st47{fill-rule:evenodd;clip-rule:evenodd;fill:none;stroke:#C7C7C7;stroke-width:0.75;stroke-miterlimit:10;}
	.st48{fill:#2BB898;stroke:#2BB898;stroke-width:0.7684;stroke-miterlimit:10;}
	.st49{clip-path:url(#SVGID_19_);fill:#BCBCBC;}
	.st50{clip-path:url(#SVGID_19_);fill:#969696;}
	.st51{clip-path:url(#SVGID_19_);}
	.st52{fill:#969696;}
	.st53{fill:#BCBCBC;}
	.st54{fill:none;stroke:#C7C7C7;stroke-width:0.5;stroke-miterlimit:10;}
	.st55{clip-path:url(#SVGID_21_);}
	.st56{fill-rule:evenodd;clip-rule:evenodd;fill:none;stroke:#CACACA;stroke-width:0.5;stroke-miterlimit:10;}
	.st57{fill:#4D4D4D;}
	.st58{fill:#A6D0E4;}
	.st59{fill:url(#);}
	.st60{fill:#A0A0A0;}
	.st61{fill:url(#SVGID_22_);}
	.st62{filter:url(#Adobe_OpacityMaskFilter_7_);}
	.st63{fill:url(#SVGID_24_);}
	.st64{mask:url(#SVGID_23_);fill-rule:evenodd;clip-rule:evenodd;fill:#C5B04C;}
	.st65{filter:url(#Adobe_OpacityMaskFilter_8_);}
	.st66{fill:url(#SVGID_26_);}
	.st67{mask:url(#SVGID_25_);fill-rule:evenodd;clip-rule:evenodd;fill:#F1E5A7;}
	.st68{filter:url(#Adobe_OpacityMaskFilter_9_);}
	.st69{fill:url(#SVGID_28_);}
	.st70{mask:url(#SVGID_27_);fill-rule:evenodd;clip-rule:evenodd;fill:#F1E5A7;}
	.st71{filter:url(#Adobe_OpacityMaskFilter_10_);}
	.st72{fill:url(#SVGID_30_);}
	.st73{mask:url(#SVGID_29_);fill-rule:evenodd;clip-rule:evenodd;fill:#F1E5A7;}
	.st74{filter:url(#Adobe_OpacityMaskFilter_11_);}
	.st75{fill:url(#SVGID_32_);}
	.st76{mask:url(#SVGID_31_);fill-rule:evenodd;clip-rule:evenodd;fill:#F1E5A7;}
	.st77{filter:url(#Adobe_OpacityMaskFilter_12_);}
	.st78{fill:url(#SVGID_34_);}
	.st79{mask:url(#SVGID_33_);fill-rule:evenodd;clip-rule:evenodd;fill:#C5B04C;}
	.st80{filter:url(#Adobe_OpacityMaskFilter_13_);}
	.st81{fill:url(#SVGID_36_);}
	.st82{mask:url(#SVGID_35_);fill-rule:evenodd;clip-rule:evenodd;fill:#C5B04C;}
	.st83{filter:url(#Adobe_OpacityMaskFilter_14_);}
	.st84{fill:url(#SVGID_38_);}
	.st85{mask:url(#SVGID_37_);fill-rule:evenodd;clip-rule:evenodd;fill:#F1E5A7;}
	.st86{fill-rule:evenodd;clip-rule:evenodd;fill:#315B51;}
	.st87{filter:url(#Adobe_OpacityMaskFilter_15_);}
	.st88{fill:url(#SVGID_40_);}
	.st89{mask:url(#SVGID_39_);fill-rule:evenodd;clip-rule:evenodd;fill:#2BB595;}
	.st90{fill:#B0AFB0;}
	.st91{fill:none;stroke:#FFFFFF;stroke-width:0.25;stroke-miterlimit:10;}
	.st92{fill:#C9C9C9;}
	.st93{fill:none;stroke:#B3B3B3;stroke-width:0.5;stroke-miterlimit:10;}
	.st94{opacity:0.28;fill:#666666;}
	.st95{opacity:0.28;clip-path:url(#SVGID_42_);fill:#B3B2B3;}
	.st96{clip-path:url(#SVGID_44_);fill:#EAEAEA;}
	.st97{clip-path:url(#SVGID_46_);fill:#EAEAEA;}
	.st98{clip-path:url(#SVGID_48_);fill:#EAEAEA;}
	.st99{opacity:0.28;clip-path:url(#SVGID_50_);fill:#B3B2B3;}
	.st100{opacity:0.28;clip-path:url(#SVGID_52_);fill:#B3B2B3;}
	.st101{fill:#A3A3A3;}
	.st102{fill:none;stroke:#FFFFFF;stroke-width:1.436;stroke-miterlimit:10;}
	.st103{fill:none;stroke:#2BB898;stroke-miterlimit:10;}
	.st104{fill:url(#SVGID_57_);}
	.st105{fill:#F48133;}
	.st106{fill:#F89C34;}
	.st107{fill:#EBECEC;}
	.st108{fill:#FEFEFE;}
	.st109{fill:#007DC5;}
	.st110{fill:#008ED4;}
	.st111{fill:#008CC3;}
	.st112{fill:#E1E8EC;}
	.st113{fill:#DDE7EC;}
	.st114{fill:#F05931;}
	.st115{fill:#F37933;}
	.st116{fill:#EFE8E5;}
	.st117{fill:#EFE8E4;}
	.st118{fill:#C20E2E;}
	.st119{fill:#DC0330;}
	.st120{fill:#D5AD42;}
	.st121{fill:#446785;}
	.st122{fill:#2E3A25;}
	.st123{fill:#4ABA08;}
	.st124{fill:#865FC5;}
	.st125{fill:url(#SVGID_58_);}
	.st126{fill:#606060;}
	.st127{fill:#3B3735;}
	.st128{fill:#00A470;}
	.st129{fill:#C4C4C4;}
	.st130{fill:none;stroke:#FFFFFF;stroke-width:1.4012;stroke-miterlimit:10;}
	.st131{fill:url(#SVGID_61_);}
	.st132{fill:url(#SVGID_64_);}
	.st133{fill:url(#SVGID_67_);}
	.st134{fill:url(#SVGID_70_);}
</style>
<g>
	<path class="st124" d="M13.23,17.77c-0.24-0.09-0.48-0.17-0.72-0.25c-2.09-0.7-4.17-1.4-6.26-2.11c-1.46-0.49-2.93-0.99-4.39-1.48
		c-0.59-0.2-1.19-0.4-1.78-0.6C0.05,13.33,0.02,13.32,0,13.3c0.12,0.02,0.24,0.03,0.36,0.05c0.49,0.07,0.98,0.15,1.47,0.22
		c0.48,0.07,0.96,0.14,1.44,0.22c0.48,0.07,0.97,0.14,1.45,0.21c0.48,0.07,0.96,0.14,1.44,0.22c0.45,0.07,0.9,0.13,1.34,0.2
		c0.45,0.07,0.9,0.14,1.35,0.2c0.48,0.07,0.97,0.14,1.45,0.21c0.45,0.07,0.9,0.14,1.34,0.2c0.48,0.07,0.96,0.14,1.44,0.21
		c0.05,0.01,0.12,0.04,0.15,0.01c0.03-0.03,0.01-0.1,0.01-0.15c0-5,0-10,0-15c0-0.03,0-0.06,0-0.11c0.11,0.04,0.21,0.09,0.31,0.13
		c1.34,0.56,2.68,1.12,4.03,1.67c0.08,0.03,0.11,0.06,0.11,0.15c0,4.62,0,9.24,0,13.86c0,0.08-0.02,0.12-0.1,0.15
		c-1.43,0.59-2.86,1.19-4.29,1.78c-0.01,0.01-0.03,0.01-0.04,0.02C13.25,17.77,13.24,17.77,13.23,17.77z"/>
	<path class="st124" d="M11.02,3.71c0-0.06-0.01-0.09-0.07-0.12c-0.77-0.33-1.54-0.65-2.31-0.98C8.59,2.59,8.56,2.6,8.53,2.64
		C7.61,3.55,6.69,4.45,5.78,5.36c-0.41,0.4-0.82,0.81-1.22,1.22C4.51,6.62,4.48,6.62,4.43,6.58C3.65,5.99,2.86,5.4,2.08,4.81
		C2.05,4.79,2.02,4.78,1.98,4.8c-0.3,0.1-0.6,0.2-0.9,0.3C1.03,5.11,1.02,5.13,1.02,5.18c0,1.61,0,3.22,0,4.83
		c0,0.05,0.02,0.07,0.06,0.08c0.3,0.1,0.59,0.2,0.89,0.3c0.05,0.02,0.08,0.01,0.12-0.02c0.46-0.35,0.91-0.69,1.37-1.03
		c0.32-0.25,0.65-0.49,0.97-0.74c0.04-0.03,0.07-0.04,0.1,0.01c0.01,0.02,0.04,0.03,0.05,0.05c0.47,0.46,0.93,0.92,1.39,1.38
		c0.85,0.84,1.69,1.67,2.54,2.51c0.04,0.04,0.06,0.04,0.11,0.02c0.77-0.33,1.54-0.66,2.31-0.98c0.06-0.02,0.07-0.06,0.07-0.12
		c0-1.29,0-2.58,0-3.87C11.02,6.3,11.02,5.01,11.02,3.71z M3.48,7.64C3.01,8.1,2.54,8.56,2.08,9.02C2.07,9.03,2.06,9.04,2.04,9.05
		c0-0.98,0-1.94,0-2.93c0.02,0.02,0.04,0.03,0.05,0.05c0.46,0.45,0.92,0.91,1.38,1.36C3.5,7.57,3.53,7.59,3.48,7.64z M8.57,9.7
		C7.63,9,6.7,8.3,5.77,7.59c0.94-0.71,1.87-1.41,2.8-2.11C8.57,6.89,8.57,8.29,8.57,9.7z"/>
</g>
</svg>
